<?xml version="1.0" encoding="UTF-8" standalone="no"?>
<svg viewBox="0 0 1280 720" xmlns="http://www.w3.org/2000/svg" xmlns:xlink="http://www.w3.org/1999/xlink">

<title>Gnuplot</title>
<desc>Produced by GNUPLOT 5.2 patchlevel 2 </desc>

<g id="gnuplot_canvas">

<rect x="0" y="0" width="1280" height="720" fill="none"/>
<defs>

	<circle id="gpDot" r="0.5" stroke-width="0.5"/>
	<path id="gpPt0" stroke-width="0.222" stroke="currentColor" d="M-1,0 h2 M0,-1 v2"/>
	<path id="gpPt1" stroke-width="0.222" stroke="currentColor" d="M-1,-1 L1,1 M1,-1 L-1,1"/>
	<path id="gpPt2" stroke-width="0.222" stroke="currentColor" d="M-1,0 L1,0 M0,-1 L0,1 M-1,-1 L1,1 M-1,1 L1,-1"/>
	<rect id="gpPt3" stroke-width="0.222" stroke="currentColor" x="-1" y="-1" width="2" height="2"/>
	<rect id="gpPt4" stroke-width="0.222" stroke="currentColor" fill="currentColor" x="-1" y="-1" width="2" height="2"/>
	<circle id="gpPt5" stroke-width="0.222" stroke="currentColor" cx="0" cy="0" r="1"/>
	<use xlink:href="#gpPt5" id="gpPt6" fill="currentColor" stroke="none"/>
	<path id="gpPt7" stroke-width="0.222" stroke="currentColor" d="M0,-1.33 L-1.33,0.67 L1.33,0.67 z"/>
	<use xlink:href="#gpPt7" id="gpPt8" fill="currentColor" stroke="none"/>
	<use xlink:href="#gpPt7" id="gpPt9" stroke="currentColor" transform="rotate(180)"/>
	<use xlink:href="#gpPt9" id="gpPt10" fill="currentColor" stroke="none"/>
	<use xlink:href="#gpPt3" id="gpPt11" stroke="currentColor" transform="rotate(45)"/>
	<use xlink:href="#gpPt11" id="gpPt12" fill="currentColor" stroke="none"/>
	<path id="gpPt13" stroke-width="0.222" stroke="currentColor" d="M0,1.330 L1.265,0.411 L0.782,-1.067 L-0.782,-1.076 L-1.265,0.411 z"/>
	<use xlink:href="#gpPt13" id="gpPt14" fill="currentColor" stroke="none"/>
	<filter id="textbox" filterUnits="objectBoundingBox" x="0" y="0" height="1" width="1">
	  <feFlood flood-color="white" flood-opacity="1" result="bgnd"/>
	  <feComposite in="SourceGraphic" in2="bgnd" operator="atop"/>
	</filter>
	<filter id="greybox" filterUnits="objectBoundingBox" x="0" y="0" height="1" width="1">
	  <feFlood flood-color="lightgrey" flood-opacity="1" result="grey"/>
	  <feComposite in="SourceGraphic" in2="grey" operator="atop"/>
	</filter>
</defs>
<g fill="none" color="white" stroke="currentColor" stroke-width="1.00" stroke-linecap="butt" stroke-linejoin="miter">
</g>
<g fill="none" color="black" stroke="currentColor" stroke-width="1.00" stroke-linecap="butt" stroke-linejoin="miter">
	<path stroke="black" d="M71.9,662.4 L80.9,662.4  "/>	<g transform="translate(63.6,666.3)" stroke="none" fill="black" font-family="Helvetica" font-size="12.00" text-anchor="end">
		<text><tspan font-family="Helvetica"> 0</tspan></text>
	</g>
</g>
<g fill="none" color="black" stroke="currentColor" stroke-width="1.00" stroke-linecap="butt" stroke-linejoin="miter">
	<path stroke="black" d="M71.9,561.0 L80.9,561.0  "/>	<g transform="translate(63.6,564.9)" stroke="none" fill="black" font-family="Helvetica" font-size="12.00" text-anchor="end">
		<text><tspan font-family="Helvetica"> 50</tspan></text>
	</g>
</g>
<g fill="none" color="black" stroke="currentColor" stroke-width="1.00" stroke-linecap="butt" stroke-linejoin="miter">
	<path stroke="black" d="M71.9,459.6 L80.9,459.6  "/>	<g transform="translate(63.6,463.5)" stroke="none" fill="black" font-family="Helvetica" font-size="12.00" text-anchor="end">
		<text><tspan font-family="Helvetica"> 100</tspan></text>
	</g>
</g>
<g fill="none" color="black" stroke="currentColor" stroke-width="1.00" stroke-linecap="butt" stroke-linejoin="miter">
	<path stroke="black" d="M71.9,358.2 L80.9,358.2  "/>	<g transform="translate(63.6,362.1)" stroke="none" fill="black" font-family="Helvetica" font-size="12.00" text-anchor="end">
		<text><tspan font-family="Helvetica"> 150</tspan></text>
	</g>
</g>
<g fill="none" color="black" stroke="currentColor" stroke-width="1.00" stroke-linecap="butt" stroke-linejoin="miter">
	<path stroke="black" d="M71.9,256.9 L80.9,256.9  "/>	<g transform="translate(63.6,260.8)" stroke="none" fill="black" font-family="Helvetica" font-size="12.00" text-anchor="end">
		<text><tspan font-family="Helvetica"> 200</tspan></text>
	</g>
</g>
<g fill="none" color="black" stroke="currentColor" stroke-width="1.00" stroke-linecap="butt" stroke-linejoin="miter">
	<path stroke="black" d="M71.9,155.5 L80.9,155.5  "/>	<g transform="translate(63.6,159.4)" stroke="none" fill="black" font-family="Helvetica" font-size="12.00" text-anchor="end">
		<text><tspan font-family="Helvetica"> 250</tspan></text>
	</g>
</g>
<g fill="none" color="black" stroke="currentColor" stroke-width="1.00" stroke-linecap="butt" stroke-linejoin="miter">
	<path stroke="black" d="M71.9,54.1 L80.9,54.1  "/>	<g transform="translate(63.6,58.0)" stroke="none" fill="black" font-family="Helvetica" font-size="12.00" text-anchor="end">
		<text><tspan font-family="Helvetica"> 300</tspan></text>
	</g>
</g>
<g fill="none" color="black" stroke="currentColor" stroke-width="1.00" stroke-linecap="butt" stroke-linejoin="miter">
	<path stroke="black" d="M81.7,662.4 L81.7,653.4  "/>	<g transform="translate(81.7,684.3)" stroke="none" fill="black" font-family="Helvetica" font-size="12.00" text-anchor="middle">
		<text><tspan font-family="Helvetica"> 355</tspan></text>
	</g>
</g>
<g fill="none" color="black" stroke="currentColor" stroke-width="1.00" stroke-linecap="butt" stroke-linejoin="miter">
	<path stroke="black" d="M245.4,662.4 L245.4,653.4  "/>	<g transform="translate(245.4,684.3)" stroke="none" fill="black" font-family="Helvetica" font-size="12.00" text-anchor="middle">
		<text><tspan font-family="Helvetica"> 360</tspan></text>
	</g>
</g>
<g fill="none" color="black" stroke="currentColor" stroke-width="1.00" stroke-linecap="butt" stroke-linejoin="miter">
	<path stroke="black" d="M409.2,662.4 L409.2,653.4  "/>	<g transform="translate(409.2,684.3)" stroke="none" fill="black" font-family="Helvetica" font-size="12.00" text-anchor="middle">
		<text><tspan font-family="Helvetica"> 365</tspan></text>
	</g>
</g>
<g fill="none" color="black" stroke="currentColor" stroke-width="1.00" stroke-linecap="butt" stroke-linejoin="miter">
	<path stroke="black" d="M572.9,662.4 L572.9,653.4  "/>	<g transform="translate(572.9,684.3)" stroke="none" fill="black" font-family="Helvetica" font-size="12.00" text-anchor="middle">
		<text><tspan font-family="Helvetica"> 370</tspan></text>
	</g>
</g>
<g fill="none" color="black" stroke="currentColor" stroke-width="1.00" stroke-linecap="butt" stroke-linejoin="miter">
	<path stroke="black" d="M736.6,662.4 L736.6,653.4  "/>	<g transform="translate(736.6,684.3)" stroke="none" fill="black" font-family="Helvetica" font-size="12.00" text-anchor="middle">
		<text><tspan font-family="Helvetica"> 375</tspan></text>
	</g>
</g>
<g fill="none" color="black" stroke="currentColor" stroke-width="1.00" stroke-linecap="butt" stroke-linejoin="miter">
	<path stroke="black" d="M900.3,662.4 L900.3,653.4  "/>	<g transform="translate(900.3,684.3)" stroke="none" fill="black" font-family="Helvetica" font-size="12.00" text-anchor="middle">
		<text><tspan font-family="Helvetica"> 380</tspan></text>
	</g>
</g>
<g fill="none" color="black" stroke="currentColor" stroke-width="1.00" stroke-linecap="butt" stroke-linejoin="miter">
	<path stroke="black" d="M1003.9,662.4 L994.9,662.4  "/>	<g transform="translate(1012.2,666.3)" stroke="none" fill="black" font-family="Helvetica" font-size="12.00" text-anchor="start">
		<text><tspan font-family="Helvetica"> 0</tspan></text>
	</g>
</g>
<g fill="none" color="black" stroke="currentColor" stroke-width="1.00" stroke-linecap="butt" stroke-linejoin="miter">
	<path stroke="black" d="M1003.9,561.0 L994.9,561.0  "/>	<g transform="translate(1012.2,564.9)" stroke="none" fill="black" font-family="Helvetica" font-size="12.00" text-anchor="start">
		<text><tspan font-family="Helvetica"> 0.02</tspan></text>
	</g>
</g>
<g fill="none" color="black" stroke="currentColor" stroke-width="1.00" stroke-linecap="butt" stroke-linejoin="miter">
	<path stroke="black" d="M1003.9,459.6 L994.9,459.6  "/>	<g transform="translate(1012.2,463.5)" stroke="none" fill="black" font-family="Helvetica" font-size="12.00" text-anchor="start">
		<text><tspan font-family="Helvetica"> 0.04</tspan></text>
	</g>
</g>
<g fill="none" color="black" stroke="currentColor" stroke-width="1.00" stroke-linecap="butt" stroke-linejoin="miter">
	<path stroke="black" d="M1003.9,358.2 L994.9,358.2  "/>	<g transform="translate(1012.2,362.1)" stroke="none" fill="black" font-family="Helvetica" font-size="12.00" text-anchor="start">
		<text><tspan font-family="Helvetica"> 0.06</tspan></text>
	</g>
</g>
<g fill="none" color="black" stroke="currentColor" stroke-width="1.00" stroke-linecap="butt" stroke-linejoin="miter">
	<path stroke="black" d="M1003.9,256.9 L994.9,256.9  "/>	<g transform="translate(1012.2,260.8)" stroke="none" fill="black" font-family="Helvetica" font-size="12.00" text-anchor="start">
		<text><tspan font-family="Helvetica"> 0.08</tspan></text>
	</g>
</g>
<g fill="none" color="black" stroke="currentColor" stroke-width="1.00" stroke-linecap="butt" stroke-linejoin="miter">
	<path stroke="black" d="M1003.9,155.5 L994.9,155.5  "/>	<g transform="translate(1012.2,159.4)" stroke="none" fill="black" font-family="Helvetica" font-size="12.00" text-anchor="start">
		<text><tspan font-family="Helvetica"> 0.1</tspan></text>
	</g>
</g>
<g fill="none" color="black" stroke="currentColor" stroke-width="1.00" stroke-linecap="butt" stroke-linejoin="miter">
	<path stroke="black" d="M1003.9,54.1 L994.9,54.1  "/>	<g transform="translate(1012.2,58.0)" stroke="none" fill="black" font-family="Helvetica" font-size="12.00" text-anchor="start">
		<text><tspan font-family="Helvetica"> 0.12</tspan></text>
	</g>
</g>
<g fill="none" color="black" stroke="currentColor" stroke-width="1.00" stroke-linecap="butt" stroke-linejoin="miter">
</g>
<g fill="none" color="black" stroke="currentColor" stroke-width="1.00" stroke-linecap="butt" stroke-linejoin="miter">
	<path stroke="black" d="M71.9,54.1 L71.9,662.4 L1003.9,662.4 L1003.9,54.1 L71.9,54.1 Z  "/></g>
<g fill="none" color="black" stroke="currentColor" stroke-width="1.00" stroke-linecap="butt" stroke-linejoin="miter">
	<g transform="translate(16.3,358.3) rotate(270)" stroke="none" fill="black" font-family="Helvetica" font-size="12.00" text-anchor="middle">
		<text><tspan font-family="Helvetica">Iterations</tspan></text>
	</g>
</g>
<g fill="none" color="black" stroke="currentColor" stroke-width="1.00" stroke-linecap="butt" stroke-linejoin="miter">
	<g transform="translate(1082.5,358.3) rotate(270)" stroke="none" fill="black" font-family="Helvetica" font-size="12.00" text-anchor="middle">
		<text><tspan font-family="Helvetica">Density (a.u.)</tspan></text>
	</g>
</g>
<g fill="none" color="black" stroke="currentColor" stroke-width="1.00" stroke-linecap="butt" stroke-linejoin="miter">
	<g transform="translate(537.9,711.3)" stroke="none" fill="black" font-family="Helvetica" font-size="12.00" text-anchor="middle">
		<text><tspan font-family="Helvetica">Average time (us)</tspan></text>
	</g>
</g>
<g fill="none" color="black" stroke="currentColor" stroke-width="1.00" stroke-linecap="butt" stroke-linejoin="miter">
	<g transform="translate(537.9,31.0)" stroke="none" fill="black" font-family="Helvetica" font-size="12.00" text-anchor="middle">
		<text><tspan font-family="Helvetica">Problem 7/p7/11111111111111111111</tspan></text>
	</g>
</g>
	<g id="gnuplot_plot_1"><title>PDF</title>
<g fill="none" color="black" stroke="currentColor" stroke-width="1.00" stroke-linecap="butt" stroke-linejoin="miter">
	<g transform="translate(1155.4,67.0)" stroke="none" fill="black" font-family="Helvetica" font-size="12.00" text-anchor="start">
		<text><tspan font-family="Helvetica">PDF</tspan></text>
	</g>
</g>
<g fill="none" color="black" stroke="currentColor" stroke-width="1.00" stroke-linecap="butt" stroke-linejoin="miter">
	<g stroke="none" shape-rendering="crispEdges">
		<polygon fill="rgb( 31, 120, 180)" fill-opacity="0.250000" points="1104.9,67.6 1147.1,67.6 1147.1,58.6 1104.9,58.6 "/>
		<polygon fill="rgb( 31, 120, 180)" fill-opacity="0.250000" points="71.9,661.4 73.8,661.3 75.6,661.2 77.5,661.1 79.4,660.9 81.2,660.8 83.1,660.6 85.0,660.4 86.8,660.2 88.7,660.0 90.6,659.8 92.4,659.5 94.3,659.3 96.2,659.0 98.0,658.7 99.9,658.3 101.8,657.9 103.7,657.6 105.5,657.1 107.4,656.7 109.3,656.2 111.1,655.7 113.0,655.1 114.9,654.5 116.7,653.9 118.6,653.2 120.5,652.4 122.3,651.7 124.2,650.9 126.1,650.0 127.9,649.1 129.8,648.1 131.7,647.0 133.5,646.0 135.4,644.8 137.3,643.6 139.1,642.3 141.0,641.0 142.9,639.6 144.7,638.1 146.6,636.6 148.5,635.0 150.3,633.3 152.2,631.5 154.1,629.7 155.9,627.8 157.8,625.8 159.7,623.8 161.6,621.6 163.4,619.5 165.3,617.2 167.2,614.8 169.0,612.4 170.9,609.9 172.8,607.4 174.6,604.8 176.5,602.1 178.4,599.3 180.2,596.5 182.1,593.6 184.0,590.7 185.8,587.7 187.7,584.7 189.6,581.6 191.4,578.5 193.3,575.3 195.2,572.1 197.0,568.9 198.9,565.6 200.8,562.3 202.6,559.0 204.5,555.7 206.4,552.4 208.2,549.1 210.1,545.7 212.0,542.4 213.8,539.1 215.7,535.8 217.6,532.5 219.5,529.3 221.3,526.1 223.2,522.9 225.1,519.7 226.9,516.6 228.8,513.5 230.7,510.5 232.5,507.5 234.4,504.6 236.3,501.7 238.1,498.9 240.0,496.2 241.9,493.5 243.7,490.8 245.6,488.2 247.5,485.7 249.3,483.3 251.2,480.9 253.1,478.5 254.9,476.2 256.8,474.0 258.7,471.8 260.5,469.7 262.4,467.6 264.3,465.6 266.1,463.5 268.0,461.6 269.9,459.6 271.7,457.7 273.6,455.8 275.5,453.9 277.4,452.0 279.2,450.1 281.1,448.2 283.0,446.3 284.8,444.4 286.7,442.5 288.6,440.5 290.4,438.5 292.3,436.5 294.2,434.5 296.0,432.4 297.9,430.2 299.8,428.0 301.6,425.7 303.5,423.4 305.4,421.0 307.2,418.6 309.1,416.1 311.0,413.5 312.8,410.8 314.7,408.1 316.6,405.3 318.4,402.5 320.3,399.6 322.2,396.6 324.0,393.6 325.9,390.5 327.8,387.4 329.6,384.2 331.5,381.0 333.4,377.7 335.3,374.4 337.1,371.1 339.0,367.8 340.9,364.5 342.7,361.2 344.6,357.9 346.5,354.6 348.3,351.3 350.2,348.1 352.1,345.0 353.9,341.8 355.8,338.8 357.7,335.8 359.5,332.9 361.4,330.0 363.3,327.3 365.1,324.7 367.0,322.2 368.9,319.8 370.7,317.5 372.6,315.3 374.5,313.3 376.3,311.4 378.2,309.7 380.1,308.0 381.9,306.6 383.8,305.2 385.7,304.1 387.5,303.0 389.4,302.1 391.3,301.4 393.2,300.7 395.0,300.2 396.9,299.8 398.8,299.6 400.6,299.4 402.5,299.4 404.4,299.5 406.2,299.6 408.1,299.8 410.0,300.1 411.8,300.4 413.7,300.8 415.6,301.2 417.4,301.7 419.3,302.1 421.2,302.5 423.0,302.9 424.9,303.3 426.8,303.7 428.6,303.9 430.5,304.2 432.4,304.3 434.2,304.3 436.1,304.2 438.0,304.1 439.8,303.7 441.7,303.3 443.6,302.7 445.4,301.9 447.3,301.0 449.2,299.9 451.1,298.7 452.9,297.2 454.8,295.6 456.7,293.8 458.5,291.7 460.4,289.5 462.3,287.2 464.1,284.6 466.0,281.8 467.9,278.9 469.7,275.7 471.6,272.5 473.5,269.0 475.3,265.4 477.2,261.6 479.1,257.7 480.9,253.7 482.8,249.6 484.7,245.4 486.5,241.1 488.4,236.7 490.3,232.3 492.1,227.8 494.0,223.3 495.9,218.9 497.7,214.4 499.6,210.0 501.5,205.6 503.3,201.3 505.2,197.0 507.1,192.9 509.0,188.9 510.8,185.0 512.7,181.3 514.6,177.8 516.4,174.5 518.3,171.3 520.2,168.4 522.0,165.8 523.9,163.3 525.8,161.2 527.6,159.3 529.5,157.7 531.4,156.4 533.2,155.4 535.1,154.8 537.0,154.4 538.8,154.4 540.7,154.7 542.6,155.3 544.4,156.3 546.3,157.7 548.2,159.3 550.0,161.3 551.9,163.7 553.8,166.3 555.6,169.3 557.5,172.6 559.4,176.3 561.2,180.2 563.1,184.5 565.0,189.0 566.8,193.8 568.7,198.9 570.6,204.3 572.5,209.9 574.3,215.7 576.2,221.7 578.1,228.0 579.9,234.4 581.8,241.1 583.7,247.8 585.5,254.8 587.4,261.9 589.3,269.0 591.1,276.3 593.0,283.7 594.9,291.2 596.7,298.7 598.6,306.3 600.5,313.9 602.3,321.5 604.2,329.1 606.1,336.8 607.9,344.4 609.8,351.9 611.7,359.5 613.5,366.9 615.4,374.4 617.3,381.7 619.1,388.9 621.0,396.1 622.9,403.2 624.7,410.1 626.6,417.0 628.5,423.7 630.4,430.3 632.2,436.7 634.1,443.1 636.0,449.3 637.8,455.3 639.7,461.2 641.6,466.9 643.4,472.5 645.3,478.0 647.2,483.3 649.0,488.4 650.9,493.4 652.8,498.2 654.6,502.9 656.5,507.4 658.4,511.7 660.2,515.9 662.1,520.0 664.0,523.9 665.8,527.7 667.7,531.3 669.6,534.8 671.4,538.1 673.3,541.3 675.2,544.4 677.0,547.4 678.9,550.2 680.8,552.9 682.6,555.4 684.5,557.9 686.4,560.2 688.3,562.5 690.1,564.6 692.0,566.6 693.9,568.6 695.7,570.4 697.6,572.1 699.5,573.8 701.3,575.4 703.2,576.8 705.1,578.2 706.9,579.6 708.8,580.8 710.7,582.0 712.5,583.2 714.4,584.2 716.3,585.2 718.1,586.2 720.0,587.1 721.9,587.9 723.7,588.7 725.6,589.5 727.5,590.2 729.3,590.9 731.2,591.5 733.1,592.1 734.9,592.7 736.8,593.2 738.7,593.8 740.5,594.3 742.4,594.7 744.3,595.2 746.2,595.6 748.0,596.0 749.9,596.5 751.8,596.9 753.6,597.2 755.5,597.6 757.4,598.0 759.2,598.4 761.1,598.7 763.0,599.1 764.8,599.5 766.7,599.8 768.6,600.2 770.4,600.6 772.3,601.0 774.2,601.4 776.0,601.8 777.9,602.2 779.8,602.6 781.6,603.0 783.5,603.5 785.4,603.9 787.2,604.4 789.1,604.9 791.0,605.4 792.8,605.9 794.7,606.4 796.6,606.9 798.4,607.5 800.3,608.1 802.2,608.7 804.1,609.3 805.9,609.9 807.8,610.6 809.7,611.2 811.5,611.9 813.4,612.6 815.3,613.3 817.1,614.0 819.0,614.8 820.9,615.5 822.7,616.3 824.6,617.1 826.5,617.9 828.3,618.7 830.2,619.5 832.1,620.4 833.9,621.2 835.8,622.1 837.7,623.0 839.5,623.8 841.4,624.7 843.3,625.6 845.1,626.5 847.0,627.4 848.9,628.3 850.7,629.2 852.6,630.1 854.5,631.0 856.3,631.9 858.2,632.8 860.1,633.7 862.0,634.6 863.8,635.5 865.7,636.3 867.6,637.2 869.4,638.1 871.3,638.9 873.2,639.7 875.0,640.6 876.9,641.4 878.8,642.2 880.6,643.0 882.5,643.7 884.4,644.5 886.2,645.2 888.1,646.0 890.0,646.7 891.8,647.3 893.7,648.0 895.6,648.7 897.4,649.3 899.3,649.9 901.2,650.5 903.0,651.1 904.9,651.7 906.8,652.2 908.6,652.7 910.5,653.2 912.4,653.7 914.2,654.2 916.1,654.7 918.0,655.1 919.9,655.5 921.7,655.9 923.6,656.3 925.5,656.6 927.3,657.0 929.2,657.3 931.1,657.6 932.9,657.9 934.8,658.2 936.7,658.5 938.5,658.8 940.4,659.0 942.3,659.2 944.1,659.4 946.0,659.6 947.9,659.8 949.7,660.0 951.6,660.2 953.5,660.4 955.3,660.5 957.2,660.6 959.1,660.8 960.9,660.9 962.8,661.0 964.7,661.1 966.5,661.2 968.4,661.3 970.3,661.4 972.1,661.5 974.0,661.6 975.9,661.6 977.8,661.7 979.6,661.8 981.5,661.8 983.4,661.9 985.2,661.9 987.1,662.0 989.0,662.0 990.8,662.0 992.7,662.1 994.6,662.1 996.4,662.1 998.3,662.2 1000.2,662.2 1002.0,662.2 1003.9,662.2 1003.9,662.4 1002.0,662.4 1000.2,662.4 998.3,662.4 996.4,662.4 994.6,662.4 992.7,662.4 990.8,662.4 989.0,662.4 987.1,662.4 985.2,662.4 983.4,662.4 981.5,662.4 979.6,662.4 977.8,662.4 975.9,662.4 974.0,662.4 972.1,662.4 970.3,662.4 968.4,662.4 966.5,662.4 964.7,662.4 962.8,662.4 960.9,662.4 959.1,662.4 957.2,662.4 955.3,662.4 953.5,662.4 951.6,662.4 949.7,662.4 947.9,662.4 946.0,662.4 944.1,662.4 942.3,662.4 940.4,662.4 938.5,662.4 936.7,662.4 934.8,662.4 932.9,662.4 931.1,662.4 929.2,662.4 927.3,662.4 925.5,662.4 923.6,662.4 921.7,662.4 919.9,662.4 918.0,662.4 916.1,662.4 914.2,662.4 912.4,662.4 910.5,662.4 908.6,662.4 906.8,662.4 904.9,662.4 903.0,662.4 901.2,662.4 899.3,662.4 897.4,662.4 895.6,662.4 893.7,662.4 891.8,662.4 890.0,662.4 888.1,662.4 886.2,662.4 884.4,662.4 882.5,662.4 880.6,662.4 878.8,662.4 876.9,662.4 875.0,662.4 873.2,662.4 871.3,662.4 869.4,662.4 867.6,662.4 865.7,662.4 863.8,662.4 862.0,662.4 860.1,662.4 858.2,662.4 856.3,662.4 854.5,662.4 852.6,662.4 850.7,662.4 848.9,662.4 847.0,662.4 845.1,662.4 843.3,662.4 841.4,662.4 839.5,662.4 837.7,662.4 835.8,662.4 833.9,662.4 832.1,662.4 830.2,662.4 828.3,662.4 826.5,662.4 824.6,662.4 822.7,662.4 820.9,662.4 819.0,662.4 817.1,662.4 815.3,662.4 813.4,662.4 811.5,662.4 809.7,662.4 807.8,662.4 805.9,662.4 804.1,662.4 802.2,662.4 800.3,662.4 798.4,662.4 796.6,662.4 794.7,662.4 792.8,662.4 791.0,662.4 789.1,662.4 787.2,662.4 785.4,662.4 783.5,662.4 781.6,662.4 779.8,662.4 777.9,662.4 776.0,662.4 774.2,662.4 772.3,662.4 770.4,662.4 768.6,662.4 766.7,662.4 764.8,662.4 763.0,662.4 761.1,662.4 759.2,662.4 757.4,662.4 755.5,662.4 753.6,662.4 751.8,662.4 749.9,662.4 748.0,662.4 746.2,662.4 744.3,662.4 742.4,662.4 740.5,662.4 738.7,662.4 736.8,662.4 734.9,662.4 733.1,662.4 731.2,662.4 729.3,662.4 727.5,662.4 725.6,662.4 723.7,662.4 721.9,662.4 720.0,662.4 718.1,662.4 716.3,662.4 714.4,662.4 712.5,662.4 710.7,662.4 708.8,662.4 706.9,662.4 705.1,662.4 703.2,662.4 701.3,662.4 699.5,662.4 697.6,662.4 695.7,662.4 693.9,662.4 692.0,662.4 690.1,662.4 688.3,662.4 686.4,662.4 684.5,662.4 682.6,662.4 680.8,662.4 678.9,662.4 677.0,662.4 675.2,662.4 673.3,662.4 671.4,662.4 669.6,662.4 667.7,662.4 665.8,662.4 664.0,662.4 662.1,662.4 660.2,662.4 658.4,662.4 656.5,662.4 654.6,662.4 652.8,662.4 650.9,662.4 649.0,662.4 647.2,662.4 645.3,662.4 643.4,662.4 641.6,662.4 639.7,662.4 637.8,662.4 636.0,662.4 634.1,662.4 632.2,662.4 630.4,662.4 628.5,662.4 626.6,662.4 624.7,662.4 622.9,662.4 621.0,662.4 619.1,662.4 617.3,662.4 615.4,662.4 613.5,662.4 611.7,662.4 609.8,662.4 607.9,662.4 606.1,662.4 604.2,662.4 602.3,662.4 600.5,662.4 598.6,662.4 596.7,662.4 594.9,662.4 593.0,662.4 591.1,662.4 589.3,662.4 587.4,662.4 585.5,662.4 583.7,662.4 581.8,662.4 579.9,662.4 578.1,662.4 576.2,662.4 574.3,662.4 572.5,662.4 570.6,662.4 568.7,662.4 566.8,662.4 565.0,662.4 563.1,662.4 561.2,662.4 559.4,662.4 557.5,662.4 555.6,662.4 553.8,662.4 551.9,662.4 550.0,662.4 548.2,662.4 546.3,662.4 544.4,662.4 542.6,662.4 540.7,662.4 538.8,662.4 537.0,662.4 535.1,662.4 533.2,662.4 531.4,662.4 529.5,662.4 527.6,662.4 525.8,662.4 523.9,662.4 522.0,662.4 520.2,662.4 518.3,662.4 516.4,662.4 514.6,662.4 512.7,662.4 510.8,662.4 509.0,662.4 507.1,662.4 505.2,662.4 503.3,662.4 501.5,662.4 499.6,662.4 497.7,662.4 495.9,662.4 494.0,662.4 492.1,662.4 490.3,662.4 488.4,662.4 486.5,662.4 484.7,662.4 482.8,662.4 480.9,662.4 479.1,662.4 477.2,662.4 475.3,662.4 473.5,662.4 471.6,662.4 469.7,662.4 467.9,662.4 466.0,662.4 464.1,662.4 462.3,662.4 460.4,662.4 458.5,662.4 456.7,662.4 454.8,662.4 452.9,662.4 451.1,662.4 449.2,662.4 447.3,662.4 445.4,662.4 443.6,662.4 441.7,662.4 439.8,662.4 438.0,662.4 436.1,662.4 434.2,662.4 432.4,662.4 430.5,662.4 428.6,662.4 426.8,662.4 424.9,662.4 423.0,662.4 421.2,662.4 419.3,662.4 417.4,662.4 415.6,662.4 413.7,662.4 411.8,662.4 410.0,662.4 408.1,662.4 406.2,662.4 404.4,662.4 402.5,662.4 400.6,662.4 398.8,662.4 396.9,662.4 395.0,662.4 393.2,662.4 391.3,662.4 389.4,662.4 387.5,662.4 385.7,662.4 383.8,662.4 381.9,662.4 380.1,662.4 378.2,662.4 376.3,662.4 374.5,662.4 372.6,662.4 370.7,662.4 368.9,662.4 367.0,662.4 365.1,662.4 363.3,662.4 361.4,662.4 359.5,662.4 357.7,662.4 355.8,662.4 353.9,662.4 352.1,662.4 350.2,662.4 348.3,662.4 346.5,662.4 344.6,662.4 342.7,662.4 340.9,662.4 339.0,662.4 337.1,662.4 335.3,662.4 333.4,662.4 331.5,662.4 329.6,662.4 327.8,662.4 325.9,662.4 324.0,662.4 322.2,662.4 320.3,662.4 318.4,662.4 316.6,662.4 314.7,662.4 312.8,662.4 311.0,662.4 309.1,662.4 307.2,662.4 305.4,662.4 303.5,662.4 301.6,662.4 299.8,662.4 297.9,662.4 296.0,662.4 294.2,662.4 292.3,662.4 290.4,662.4 288.6,662.4 286.7,662.4 284.8,662.4 283.0,662.4 281.1,662.4 279.2,662.4 277.4,662.4 275.5,662.4 273.6,662.4 271.7,662.4 269.9,662.4 268.0,662.4 266.1,662.4 264.3,662.4 262.4,662.4 260.5,662.4 258.7,662.4 256.8,662.4 254.9,662.4 253.1,662.4 251.2,662.4 249.3,662.4 247.5,662.4 245.6,662.4 243.7,662.4 241.9,662.4 240.0,662.4 238.1,662.4 236.3,662.4 234.4,662.4 232.5,662.4 230.7,662.4 228.8,662.4 226.9,662.4 225.1,662.4 223.2,662.4 221.3,662.4 219.5,662.4 217.6,662.4 215.7,662.4 213.8,662.4 212.0,662.4 210.1,662.4 208.2,662.4 206.4,662.4 204.5,662.4 202.6,662.4 200.8,662.4 198.9,662.4 197.0,662.4 195.2,662.4 193.3,662.4 191.4,662.4 189.6,662.4 187.7,662.4 185.8,662.4 184.0,662.4 182.1,662.4 180.2,662.4 178.4,662.4 176.5,662.4 174.6,662.4 172.8,662.4 170.9,662.4 169.0,662.4 167.2,662.4 165.3,662.4 163.4,662.4 161.6,662.4 159.7,662.4 157.8,662.4 155.9,662.4 154.1,662.4 152.2,662.4 150.3,662.4 148.5,662.4 146.6,662.4 144.7,662.4 142.9,662.4 141.0,662.4 139.1,662.4 137.3,662.4 135.4,662.4 133.5,662.4 131.7,662.4 129.8,662.4 127.9,662.4 126.1,662.4 124.2,662.4 122.3,662.4 120.5,662.4 118.6,662.4 116.7,662.4 114.9,662.4 113.0,662.4 111.1,662.4 109.3,662.4 107.4,662.4 105.5,662.4 103.7,662.4 101.8,662.4 99.9,662.4 98.0,662.4 96.2,662.4 94.3,662.4 92.4,662.4 90.6,662.4 88.7,662.4 86.8,662.4 85.0,662.4 83.1,662.4 81.2,662.4 79.4,662.4 77.5,662.4 75.6,662.4 73.8,662.4 71.9,662.4 "/>
	</g>
</g>
	</g>
	<g id="gnuplot_plot_2"><title>Mean</title>
<g fill="none" color="white" stroke="rgb( 31, 120, 180)" stroke-width="2.00" stroke-linecap="butt" stroke-linejoin="miter">
</g>
<g fill="none" color="black" stroke="currentColor" stroke-width="2.00" stroke-linecap="butt" stroke-linejoin="miter">
	<g transform="translate(1155.4,85.0)" stroke="none" fill="black" font-family="Helvetica" font-size="12.00" text-anchor="start">
		<text><tspan font-family="Helvetica">Mean</tspan></text>
	</g>
</g>
<g fill="none" color="black" stroke="currentColor" stroke-width="2.00" stroke-linecap="butt" stroke-linejoin="miter">
	<path stroke="rgb( 31, 120, 180)" d="M1104.9,81.1 L1147.1,81.1 M475.6,662.4 L475.6,54.1  "/></g>
	</g>
	<g id="gnuplot_plot_3"><title>"Clean" sample</title>
<g fill="none" color="white" stroke="rgb( 31, 120, 180)" stroke-width="1.00" stroke-linecap="butt" stroke-linejoin="miter">
</g>
<g fill="none" color="black" stroke="currentColor" stroke-width="1.00" stroke-linecap="butt" stroke-linejoin="miter">
	<g transform="translate(1155.4,103.0)" stroke="none" fill="black" font-family="Helvetica" font-size="12.00" text-anchor="start">
		<text><tspan font-family="Helvetica">"Clean" sample</tspan></text>
	</g>
</g>
<g fill="none" color="black" stroke="currentColor" stroke-width="1.00" stroke-linecap="butt" stroke-linejoin="miter">
	<use xlink:href="#gpPt6" transform="translate(555.4,656.3) scale(3.38)" color="rgb( 31, 120, 180)"/>
	<use xlink:href="#gpPt6" transform="translate(549.4,650.2) scale(3.38)" color="rgb( 31, 120, 180)"/>
	<use xlink:href="#gpPt6" transform="translate(563.1,644.2) scale(3.38)" color="rgb( 31, 120, 180)"/>
	<use xlink:href="#gpPt6" transform="translate(540.4,638.1) scale(3.38)" color="rgb( 31, 120, 180)"/>
	<use xlink:href="#gpPt6" transform="translate(528.1,632.0) scale(3.38)" color="rgb( 31, 120, 180)"/>
	<use xlink:href="#gpPt6" transform="translate(550.1,625.9) scale(3.38)" color="rgb( 31, 120, 180)"/>
	<use xlink:href="#gpPt6" transform="translate(535.8,619.8) scale(3.38)" color="rgb( 31, 120, 180)"/>
	<use xlink:href="#gpPt6" transform="translate(536.6,613.7) scale(3.38)" color="rgb( 31, 120, 180)"/>
	<use xlink:href="#gpPt6" transform="translate(551.4,607.7) scale(3.38)" color="rgb( 31, 120, 180)"/>
	<use xlink:href="#gpPt6" transform="translate(529.9,601.6) scale(3.38)" color="rgb( 31, 120, 180)"/>
	<use xlink:href="#gpPt6" transform="translate(524.0,595.5) scale(3.38)" color="rgb( 31, 120, 180)"/>
	<use xlink:href="#gpPt6" transform="translate(530.7,589.4) scale(3.38)" color="rgb( 31, 120, 180)"/>
	<use xlink:href="#gpPt6" transform="translate(535.7,583.3) scale(3.38)" color="rgb( 31, 120, 180)"/>
	<use xlink:href="#gpPt6" transform="translate(530.7,577.2) scale(3.38)" color="rgb( 31, 120, 180)"/>
	<use xlink:href="#gpPt6" transform="translate(534.7,571.2) scale(3.38)" color="rgb( 31, 120, 180)"/>
	<use xlink:href="#gpPt6" transform="translate(533.5,565.1) scale(3.38)" color="rgb( 31, 120, 180)"/>
	<use xlink:href="#gpPt6" transform="translate(536.7,559.0) scale(3.38)" color="rgb( 31, 120, 180)"/>
	<use xlink:href="#gpPt6" transform="translate(534.4,552.9) scale(3.38)" color="rgb( 31, 120, 180)"/>
	<use xlink:href="#gpPt6" transform="translate(540.9,546.8) scale(3.38)" color="rgb( 31, 120, 180)"/>
	<use xlink:href="#gpPt6" transform="translate(537.6,540.7) scale(3.38)" color="rgb( 31, 120, 180)"/>
	<use xlink:href="#gpPt6" transform="translate(537.7,534.7) scale(3.38)" color="rgb( 31, 120, 180)"/>
	<use xlink:href="#gpPt6" transform="translate(559.1,528.6) scale(3.38)" color="rgb( 31, 120, 180)"/>
	<use xlink:href="#gpPt6" transform="translate(687.8,522.5) scale(3.38)" color="rgb( 31, 120, 180)"/>
	<use xlink:href="#gpPt6" transform="translate(751.1,516.4) scale(3.38)" color="rgb( 31, 120, 180)"/>
	<use xlink:href="#gpPt6" transform="translate(513.0,504.2) scale(3.38)" color="rgb( 31, 120, 180)"/>
	<use xlink:href="#gpPt6" transform="translate(466.5,498.2) scale(3.38)" color="rgb( 31, 120, 180)"/>
	<use xlink:href="#gpPt6" transform="translate(453.4,492.1) scale(3.38)" color="rgb( 31, 120, 180)"/>
	<use xlink:href="#gpPt6" transform="translate(306.1,486.0) scale(3.38)" color="rgb( 31, 120, 180)"/>
	<use xlink:href="#gpPt6" transform="translate(257.0,479.9) scale(3.38)" color="rgb( 31, 120, 180)"/>
	<use xlink:href="#gpPt6" transform="translate(522.0,473.8) scale(3.38)" color="rgb( 31, 120, 180)"/>
	<use xlink:href="#gpPt6" transform="translate(389.2,467.7) scale(3.38)" color="rgb( 31, 120, 180)"/>
	<use xlink:href="#gpPt6" transform="translate(390.3,461.7) scale(3.38)" color="rgb( 31, 120, 180)"/>
	<use xlink:href="#gpPt6" transform="translate(389.6,455.6) scale(3.38)" color="rgb( 31, 120, 180)"/>
	<use xlink:href="#gpPt6" transform="translate(372.3,449.5) scale(3.38)" color="rgb( 31, 120, 180)"/>
	<use xlink:href="#gpPt6" transform="translate(390.5,443.4) scale(3.38)" color="rgb( 31, 120, 180)"/>
	<use xlink:href="#gpPt6" transform="translate(397.8,437.3) scale(3.38)" color="rgb( 31, 120, 180)"/>
	<use xlink:href="#gpPt6" transform="translate(401.3,431.2) scale(3.38)" color="rgb( 31, 120, 180)"/>
	<use xlink:href="#gpPt6" transform="translate(551.3,425.2) scale(3.38)" color="rgb( 31, 120, 180)"/>
	<use xlink:href="#gpPt6" transform="translate(643.6,419.1) scale(3.38)" color="rgb( 31, 120, 180)"/>
	<use xlink:href="#gpPt6" transform="translate(612.2,413.0) scale(3.38)" color="rgb( 31, 120, 180)"/>
	<use xlink:href="#gpPt6" transform="translate(543.3,406.9) scale(3.38)" color="rgb( 31, 120, 180)"/>
	<use xlink:href="#gpPt6" transform="translate(395.7,400.8) scale(3.38)" color="rgb( 31, 120, 180)"/>
	<use xlink:href="#gpPt6" transform="translate(394.0,394.7) scale(3.38)" color="rgb( 31, 120, 180)"/>
	<use xlink:href="#gpPt6" transform="translate(380.0,388.7) scale(3.38)" color="rgb( 31, 120, 180)"/>
	<use xlink:href="#gpPt6" transform="translate(378.7,382.6) scale(3.38)" color="rgb( 31, 120, 180)"/>
	<use xlink:href="#gpPt6" transform="translate(380.7,376.5) scale(3.38)" color="rgb( 31, 120, 180)"/>
	<use xlink:href="#gpPt6" transform="translate(382.5,370.4) scale(3.38)" color="rgb( 31, 120, 180)"/>
	<use xlink:href="#gpPt6" transform="translate(386.3,364.3) scale(3.38)" color="rgb( 31, 120, 180)"/>
	<use xlink:href="#gpPt6" transform="translate(569.4,358.2) scale(3.38)" color="rgb( 31, 120, 180)"/>
	<use xlink:href="#gpPt6" transform="translate(642.6,352.2) scale(3.38)" color="rgb( 31, 120, 180)"/>
	<use xlink:href="#gpPt6" transform="translate(600.8,346.1) scale(3.38)" color="rgb( 31, 120, 180)"/>
	<use xlink:href="#gpPt6" transform="translate(545.6,340.0) scale(3.38)" color="rgb( 31, 120, 180)"/>
	<use xlink:href="#gpPt6" transform="translate(389.9,333.9) scale(3.38)" color="rgb( 31, 120, 180)"/>
	<use xlink:href="#gpPt6" transform="translate(380.6,327.8) scale(3.38)" color="rgb( 31, 120, 180)"/>
	<use xlink:href="#gpPt6" transform="translate(388.1,321.8) scale(3.38)" color="rgb( 31, 120, 180)"/>
	<use xlink:href="#gpPt6" transform="translate(378.4,315.7) scale(3.38)" color="rgb( 31, 120, 180)"/>
	<use xlink:href="#gpPt6" transform="translate(389.6,309.6) scale(3.38)" color="rgb( 31, 120, 180)"/>
	<use xlink:href="#gpPt6" transform="translate(592.6,303.5) scale(3.38)" color="rgb( 31, 120, 180)"/>
	<use xlink:href="#gpPt6" transform="translate(623.0,297.4) scale(3.38)" color="rgb( 31, 120, 180)"/>
	<use xlink:href="#gpPt6" transform="translate(497.7,291.3) scale(3.38)" color="rgb( 31, 120, 180)"/>
	<use xlink:href="#gpPt6" transform="translate(393.8,285.3) scale(3.38)" color="rgb( 31, 120, 180)"/>
	<use xlink:href="#gpPt6" transform="translate(393.1,279.2) scale(3.38)" color="rgb( 31, 120, 180)"/>
	<use xlink:href="#gpPt6" transform="translate(386.5,273.1) scale(3.38)" color="rgb( 31, 120, 180)"/>
	<use xlink:href="#gpPt6" transform="translate(385.3,267.0) scale(3.38)" color="rgb( 31, 120, 180)"/>
	<use xlink:href="#gpPt6" transform="translate(411.9,260.9) scale(3.38)" color="rgb( 31, 120, 180)"/>
	<use xlink:href="#gpPt6" transform="translate(624.6,254.8) scale(3.38)" color="rgb( 31, 120, 180)"/>
	<use xlink:href="#gpPt6" transform="translate(547.7,242.7) scale(3.38)" color="rgb( 31, 120, 180)"/>
	<use xlink:href="#gpPt6" transform="translate(541.4,236.6) scale(3.38)" color="rgb( 31, 120, 180)"/>
	<use xlink:href="#gpPt6" transform="translate(552.0,230.5) scale(3.38)" color="rgb( 31, 120, 180)"/>
	<use xlink:href="#gpPt6" transform="translate(535.3,224.4) scale(3.38)" color="rgb( 31, 120, 180)"/>
	<use xlink:href="#gpPt6" transform="translate(591.6,218.3) scale(3.38)" color="rgb( 31, 120, 180)"/>
	<use xlink:href="#gpPt6" transform="translate(711.9,206.2) scale(3.38)" color="rgb( 31, 120, 180)"/>
	<use xlink:href="#gpPt6" transform="translate(547.5,200.1) scale(3.38)" color="rgb( 31, 120, 180)"/>
	<use xlink:href="#gpPt6" transform="translate(547.0,194.0) scale(3.38)" color="rgb( 31, 120, 180)"/>
	<use xlink:href="#gpPt6" transform="translate(545.1,187.9) scale(3.38)" color="rgb( 31, 120, 180)"/>
	<use xlink:href="#gpPt6" transform="translate(563.9,181.8) scale(3.38)" color="rgb( 31, 120, 180)"/>
	<use xlink:href="#gpPt6" transform="translate(745.5,175.8) scale(3.38)" color="rgb( 31, 120, 180)"/>
	<use xlink:href="#gpPt6" transform="translate(459.8,169.7) scale(3.38)" color="rgb( 31, 120, 180)"/>
	<use xlink:href="#gpPt6" transform="translate(248.1,163.6) scale(3.38)" color="rgb( 31, 120, 180)"/>
	<use xlink:href="#gpPt6" transform="translate(259.2,157.5) scale(3.38)" color="rgb( 31, 120, 180)"/>
	<use xlink:href="#gpPt6" transform="translate(259.8,151.4) scale(3.38)" color="rgb( 31, 120, 180)"/>
	<use xlink:href="#gpPt6" transform="translate(253.1,145.3) scale(3.38)" color="rgb( 31, 120, 180)"/>
	<use xlink:href="#gpPt6" transform="translate(493.3,139.3) scale(3.38)" color="rgb( 31, 120, 180)"/>
	<use xlink:href="#gpPt6" transform="translate(428.6,133.2) scale(3.38)" color="rgb( 31, 120, 180)"/>
	<use xlink:href="#gpPt6" transform="translate(252.7,127.1) scale(3.38)" color="rgb( 31, 120, 180)"/>
	<use xlink:href="#gpPt6" transform="translate(243.3,121.0) scale(3.38)" color="rgb( 31, 120, 180)"/>
	<use xlink:href="#gpPt6" transform="translate(245.0,114.9) scale(3.38)" color="rgb( 31, 120, 180)"/>
	<use xlink:href="#gpPt6" transform="translate(381.7,108.8) scale(3.38)" color="rgb( 31, 120, 180)"/>
	<use xlink:href="#gpPt6" transform="translate(505.6,102.8) scale(3.38)" color="rgb( 31, 120, 180)"/>
	<use xlink:href="#gpPt6" transform="translate(291.8,96.7) scale(3.38)" color="rgb( 31, 120, 180)"/>
	<use xlink:href="#gpPt6" transform="translate(246.4,90.6) scale(3.38)" color="rgb( 31, 120, 180)"/>
	<use xlink:href="#gpPt6" transform="translate(247.3,84.5) scale(3.38)" color="rgb( 31, 120, 180)"/>
	<use xlink:href="#gpPt6" transform="translate(279.9,78.4) scale(3.38)" color="rgb( 31, 120, 180)"/>
	<use xlink:href="#gpPt6" transform="translate(498.5,72.3) scale(3.38)" color="rgb( 31, 120, 180)"/>
	<use xlink:href="#gpPt6" transform="translate(324.7,66.3) scale(3.38)" color="rgb( 31, 120, 180)"/>
	<use xlink:href="#gpPt6" transform="translate(251.3,60.2) scale(3.38)" color="rgb( 31, 120, 180)"/>
	<use xlink:href="#gpPt6" transform="translate(318.1,54.1) scale(3.38)" color="rgb( 31, 120, 180)"/>
	<use xlink:href="#gpPt6" transform="translate(1126.0,99.1) scale(3.38)" color="rgb( 31, 120, 180)"/>
</g>
	</g>
	<g id="gnuplot_plot_4"><title>Mild outliers</title>
<g fill="none" color="black" stroke="currentColor" stroke-width="1.00" stroke-linecap="butt" stroke-linejoin="miter">
	<g transform="translate(1155.4,121.0)" stroke="none" fill="black" font-family="Helvetica" font-size="12.00" text-anchor="start">
		<text><tspan font-family="Helvetica">Mild outliers</tspan></text>
	</g>
</g>
<g fill="none" color="black" stroke="currentColor" stroke-width="1.00" stroke-linecap="butt" stroke-linejoin="miter">
	<use xlink:href="#gpPt6" transform="translate(832.5,510.3) scale(3.38)" color="rgb(255, 127,   0)"/>
	<use xlink:href="#gpPt6" transform="translate(802.4,248.8) scale(3.38)" color="rgb(255, 127,   0)"/>
	<use xlink:href="#gpPt6" transform="translate(806.4,212.3) scale(3.38)" color="rgb(255, 127,   0)"/>
	<use xlink:href="#gpPt6" transform="translate(1126.0,117.1) scale(3.38)" color="rgb(255, 127,   0)"/>
</g>
	</g>
	<g id="gnuplot_plot_5"><title>gnuplot_plot_5</title>
<g fill="none" color="white" stroke="rgb(255, 127,   0)" stroke-width="2.00" stroke-linecap="butt" stroke-linejoin="miter">
</g>
<g fill="none" color="black" stroke="currentColor" stroke-width="2.00" stroke-linecap="butt" stroke-linejoin="miter">
	<path stroke="rgb(255, 127,   0)" d="M143.0,662.4 L143.0,54.1  "/></g>
	</g>
	<g id="gnuplot_plot_6"><title>gnuplot_plot_6</title>
<g fill="none" color="black" stroke="currentColor" stroke-width="2.00" stroke-linecap="butt" stroke-linejoin="miter">
	<path stroke="rgb(255, 127,   0)" d="M791.2,662.4 L791.2,54.1  "/></g>
	</g>
	<g id="gnuplot_plot_7"><title>gnuplot_plot_7</title>
<g fill="none" color="black" stroke="currentColor" stroke-width="2.00" stroke-linecap="butt" stroke-linejoin="miter">
</g>
	</g>
	<g id="gnuplot_plot_8"><title>gnuplot_plot_8</title>
<g fill="none" color="black" stroke="currentColor" stroke-width="2.00" stroke-linecap="butt" stroke-linejoin="miter">
</g>
	</g>
<g fill="none" color="black" stroke="currentColor" stroke-width="2.00" stroke-linecap="butt" stroke-linejoin="miter">
</g>
<g fill="none" color="black" stroke="black" stroke-width="1.00" stroke-linecap="butt" stroke-linejoin="miter">
</g>
<g fill="none" color="black" stroke="currentColor" stroke-width="1.00" stroke-linecap="butt" stroke-linejoin="miter">
	<path stroke="black" d="M71.9,54.1 L71.9,662.4 L1003.9,662.4 L1003.9,54.1 L71.9,54.1 Z  "/></g>
<g fill="none" color="black" stroke="currentColor" stroke-width="1.00" stroke-linecap="butt" stroke-linejoin="miter">
</g>
</g>
</svg>