<?xml version="1.0" encoding="UTF-8" standalone="no"?>
<svg viewBox="0 0 1280 720" xmlns="http://www.w3.org/2000/svg" xmlns:xlink="http://www.w3.org/1999/xlink">

<title>Gnuplot</title>
<desc>Produced by GNUPLOT 5.2 patchlevel 2 </desc>

<g id="gnuplot_canvas">

<rect x="0" y="0" width="1280" height="720" fill="none"/>
<defs>

	<circle id="gpDot" r="0.5" stroke-width="0.5"/>
	<path id="gpPt0" stroke-width="0.222" stroke="currentColor" d="M-1,0 h2 M0,-1 v2"/>
	<path id="gpPt1" stroke-width="0.222" stroke="currentColor" d="M-1,-1 L1,1 M1,-1 L-1,1"/>
	<path id="gpPt2" stroke-width="0.222" stroke="currentColor" d="M-1,0 L1,0 M0,-1 L0,1 M-1,-1 L1,1 M-1,1 L1,-1"/>
	<rect id="gpPt3" stroke-width="0.222" stroke="currentColor" x="-1" y="-1" width="2" height="2"/>
	<rect id="gpPt4" stroke-width="0.222" stroke="currentColor" fill="currentColor" x="-1" y="-1" width="2" height="2"/>
	<circle id="gpPt5" stroke-width="0.222" stroke="currentColor" cx="0" cy="0" r="1"/>
	<use xlink:href="#gpPt5" id="gpPt6" fill="currentColor" stroke="none"/>
	<path id="gpPt7" stroke-width="0.222" stroke="currentColor" d="M0,-1.33 L-1.33,0.67 L1.33,0.67 z"/>
	<use xlink:href="#gpPt7" id="gpPt8" fill="currentColor" stroke="none"/>
	<use xlink:href="#gpPt7" id="gpPt9" stroke="currentColor" transform="rotate(180)"/>
	<use xlink:href="#gpPt9" id="gpPt10" fill="currentColor" stroke="none"/>
	<use xlink:href="#gpPt3" id="gpPt11" stroke="currentColor" transform="rotate(45)"/>
	<use xlink:href="#gpPt11" id="gpPt12" fill="currentColor" stroke="none"/>
	<path id="gpPt13" stroke-width="0.222" stroke="currentColor" d="M0,1.330 L1.265,0.411 L0.782,-1.067 L-0.782,-1.076 L-1.265,0.411 z"/>
	<use xlink:href="#gpPt13" id="gpPt14" fill="currentColor" stroke="none"/>
	<filter id="textbox" filterUnits="objectBoundingBox" x="0" y="0" height="1" width="1">
	  <feFlood flood-color="white" flood-opacity="1" result="bgnd"/>
	  <feComposite in="SourceGraphic" in2="bgnd" operator="atop"/>
	</filter>
	<filter id="greybox" filterUnits="objectBoundingBox" x="0" y="0" height="1" width="1">
	  <feFlood flood-color="lightgrey" flood-opacity="1" result="grey"/>
	  <feComposite in="SourceGraphic" in2="grey" operator="atop"/>
	</filter>
</defs>
<g fill="none" color="white" stroke="currentColor" stroke-width="1.00" stroke-linecap="butt" stroke-linejoin="miter">
</g>
<g fill="none" color="black" stroke="currentColor" stroke-width="1.00" stroke-linecap="butt" stroke-linejoin="miter">
	<path stroke="black" d="M63.6,662.4 L72.6,662.4  "/>	<g transform="translate(55.3,666.3)" stroke="none" fill="black" font-family="Helvetica" font-size="12.00" text-anchor="end">
		<text><tspan font-family="Helvetica"> 0</tspan></text>
	</g>
</g>
<g fill="none" color="black" stroke="currentColor" stroke-width="1.00" stroke-linecap="butt" stroke-linejoin="miter">
	<path stroke="black" d="M63.6,596.3 L72.6,596.3  "/>	<g transform="translate(55.3,600.2)" stroke="none" fill="black" font-family="Helvetica" font-size="12.00" text-anchor="end">
		<text><tspan font-family="Helvetica"> 2</tspan></text>
	</g>
</g>
<g fill="none" color="black" stroke="currentColor" stroke-width="1.00" stroke-linecap="butt" stroke-linejoin="miter">
	<path stroke="black" d="M63.6,530.2 L72.6,530.2  "/>	<g transform="translate(55.3,534.1)" stroke="none" fill="black" font-family="Helvetica" font-size="12.00" text-anchor="end">
		<text><tspan font-family="Helvetica"> 4</tspan></text>
	</g>
</g>
<g fill="none" color="black" stroke="currentColor" stroke-width="1.00" stroke-linecap="butt" stroke-linejoin="miter">
	<path stroke="black" d="M63.6,464.0 L72.6,464.0  "/>	<g transform="translate(55.3,467.9)" stroke="none" fill="black" font-family="Helvetica" font-size="12.00" text-anchor="end">
		<text><tspan font-family="Helvetica"> 6</tspan></text>
	</g>
</g>
<g fill="none" color="black" stroke="currentColor" stroke-width="1.00" stroke-linecap="butt" stroke-linejoin="miter">
	<path stroke="black" d="M63.6,397.9 L72.6,397.9  "/>	<g transform="translate(55.3,401.8)" stroke="none" fill="black" font-family="Helvetica" font-size="12.00" text-anchor="end">
		<text><tspan font-family="Helvetica"> 8</tspan></text>
	</g>
</g>
<g fill="none" color="black" stroke="currentColor" stroke-width="1.00" stroke-linecap="butt" stroke-linejoin="miter">
	<path stroke="black" d="M63.6,331.8 L72.6,331.8  "/>	<g transform="translate(55.3,335.7)" stroke="none" fill="black" font-family="Helvetica" font-size="12.00" text-anchor="end">
		<text><tspan font-family="Helvetica"> 10</tspan></text>
	</g>
</g>
<g fill="none" color="black" stroke="currentColor" stroke-width="1.00" stroke-linecap="butt" stroke-linejoin="miter">
	<path stroke="black" d="M63.6,265.7 L72.6,265.7  "/>	<g transform="translate(55.3,269.6)" stroke="none" fill="black" font-family="Helvetica" font-size="12.00" text-anchor="end">
		<text><tspan font-family="Helvetica"> 12</tspan></text>
	</g>
</g>
<g fill="none" color="black" stroke="currentColor" stroke-width="1.00" stroke-linecap="butt" stroke-linejoin="miter">
	<path stroke="black" d="M63.6,199.6 L72.6,199.6  "/>	<g transform="translate(55.3,203.5)" stroke="none" fill="black" font-family="Helvetica" font-size="12.00" text-anchor="end">
		<text><tspan font-family="Helvetica"> 14</tspan></text>
	</g>
</g>
<g fill="none" color="black" stroke="currentColor" stroke-width="1.00" stroke-linecap="butt" stroke-linejoin="miter">
	<path stroke="black" d="M63.6,133.4 L72.6,133.4  "/>	<g transform="translate(55.3,137.3)" stroke="none" fill="black" font-family="Helvetica" font-size="12.00" text-anchor="end">
		<text><tspan font-family="Helvetica"> 16</tspan></text>
	</g>
</g>
<g fill="none" color="black" stroke="currentColor" stroke-width="1.00" stroke-linecap="butt" stroke-linejoin="miter">
	<path stroke="black" d="M63.6,67.3 L72.6,67.3  "/>	<g transform="translate(55.3,71.2)" stroke="none" fill="black" font-family="Helvetica" font-size="12.00" text-anchor="end">
		<text><tspan font-family="Helvetica"> 18</tspan></text>
	</g>
</g>
<g fill="none" color="black" stroke="currentColor" stroke-width="1.00" stroke-linecap="butt" stroke-linejoin="miter">
	<path stroke="black" d="M138.3,662.4 L138.3,653.4  "/>	<g transform="translate(138.3,684.3)" stroke="none" fill="black" font-family="Helvetica" font-size="12.00" text-anchor="middle">
		<text><tspan font-family="Helvetica"> 5.3</tspan></text>
	</g>
</g>
<g fill="none" color="black" stroke="currentColor" stroke-width="1.00" stroke-linecap="butt" stroke-linejoin="miter">
	<path stroke="black" d="M265.3,662.4 L265.3,653.4  "/>	<g transform="translate(265.3,684.3)" stroke="none" fill="black" font-family="Helvetica" font-size="12.00" text-anchor="middle">
		<text><tspan font-family="Helvetica"> 5.35</tspan></text>
	</g>
</g>
<g fill="none" color="black" stroke="currentColor" stroke-width="1.00" stroke-linecap="butt" stroke-linejoin="miter">
	<path stroke="black" d="M392.2,662.4 L392.2,653.4  "/>	<g transform="translate(392.2,684.3)" stroke="none" fill="black" font-family="Helvetica" font-size="12.00" text-anchor="middle">
		<text><tspan font-family="Helvetica"> 5.4</tspan></text>
	</g>
</g>
<g fill="none" color="black" stroke="currentColor" stroke-width="1.00" stroke-linecap="butt" stroke-linejoin="miter">
	<path stroke="black" d="M519.2,662.4 L519.2,653.4  "/>	<g transform="translate(519.2,684.3)" stroke="none" fill="black" font-family="Helvetica" font-size="12.00" text-anchor="middle">
		<text><tspan font-family="Helvetica"> 5.45</tspan></text>
	</g>
</g>
<g fill="none" color="black" stroke="currentColor" stroke-width="1.00" stroke-linecap="butt" stroke-linejoin="miter">
	<path stroke="black" d="M646.1,662.4 L646.1,653.4  "/>	<g transform="translate(646.1,684.3)" stroke="none" fill="black" font-family="Helvetica" font-size="12.00" text-anchor="middle">
		<text><tspan font-family="Helvetica"> 5.5</tspan></text>
	</g>
</g>
<g fill="none" color="black" stroke="currentColor" stroke-width="1.00" stroke-linecap="butt" stroke-linejoin="miter">
	<path stroke="black" d="M773.1,662.4 L773.1,653.4  "/>	<g transform="translate(773.1,684.3)" stroke="none" fill="black" font-family="Helvetica" font-size="12.00" text-anchor="middle">
		<text><tspan font-family="Helvetica"> 5.55</tspan></text>
	</g>
</g>
<g fill="none" color="black" stroke="currentColor" stroke-width="1.00" stroke-linecap="butt" stroke-linejoin="miter">
	<path stroke="black" d="M900.0,662.4 L900.0,653.4  "/>	<g transform="translate(900.0,684.3)" stroke="none" fill="black" font-family="Helvetica" font-size="12.00" text-anchor="middle">
		<text><tspan font-family="Helvetica"> 5.6</tspan></text>
	</g>
</g>
<g fill="none" color="black" stroke="currentColor" stroke-width="1.00" stroke-linecap="butt" stroke-linejoin="miter">
	<path stroke="black" d="M1020.5,662.4 L1011.5,662.4  "/>	<g transform="translate(1028.8,666.3)" stroke="none" fill="black" font-family="Helvetica" font-size="12.00" text-anchor="start">
		<text><tspan font-family="Helvetica"> 0</tspan></text>
	</g>
</g>
<g fill="none" color="black" stroke="currentColor" stroke-width="1.00" stroke-linecap="butt" stroke-linejoin="miter">
	<path stroke="black" d="M1020.5,601.6 L1011.5,601.6  "/>	<g transform="translate(1028.8,605.5)" stroke="none" fill="black" font-family="Helvetica" font-size="12.00" text-anchor="start">
		<text><tspan font-family="Helvetica"> 1</tspan></text>
	</g>
</g>
<g fill="none" color="black" stroke="currentColor" stroke-width="1.00" stroke-linecap="butt" stroke-linejoin="miter">
	<path stroke="black" d="M1020.5,540.7 L1011.5,540.7  "/>	<g transform="translate(1028.8,544.6)" stroke="none" fill="black" font-family="Helvetica" font-size="12.00" text-anchor="start">
		<text><tspan font-family="Helvetica"> 2</tspan></text>
	</g>
</g>
<g fill="none" color="black" stroke="currentColor" stroke-width="1.00" stroke-linecap="butt" stroke-linejoin="miter">
	<path stroke="black" d="M1020.5,479.9 L1011.5,479.9  "/>	<g transform="translate(1028.8,483.8)" stroke="none" fill="black" font-family="Helvetica" font-size="12.00" text-anchor="start">
		<text><tspan font-family="Helvetica"> 3</tspan></text>
	</g>
</g>
<g fill="none" color="black" stroke="currentColor" stroke-width="1.00" stroke-linecap="butt" stroke-linejoin="miter">
	<path stroke="black" d="M1020.5,419.1 L1011.5,419.1  "/>	<g transform="translate(1028.8,423.0)" stroke="none" fill="black" font-family="Helvetica" font-size="12.00" text-anchor="start">
		<text><tspan font-family="Helvetica"> 4</tspan></text>
	</g>
</g>
<g fill="none" color="black" stroke="currentColor" stroke-width="1.00" stroke-linecap="butt" stroke-linejoin="miter">
	<path stroke="black" d="M1020.5,358.2 L1011.5,358.2  "/>	<g transform="translate(1028.8,362.1)" stroke="none" fill="black" font-family="Helvetica" font-size="12.00" text-anchor="start">
		<text><tspan font-family="Helvetica"> 5</tspan></text>
	</g>
</g>
<g fill="none" color="black" stroke="currentColor" stroke-width="1.00" stroke-linecap="butt" stroke-linejoin="miter">
	<path stroke="black" d="M1020.5,297.4 L1011.5,297.4  "/>	<g transform="translate(1028.8,301.3)" stroke="none" fill="black" font-family="Helvetica" font-size="12.00" text-anchor="start">
		<text><tspan font-family="Helvetica"> 6</tspan></text>
	</g>
</g>
<g fill="none" color="black" stroke="currentColor" stroke-width="1.00" stroke-linecap="butt" stroke-linejoin="miter">
	<path stroke="black" d="M1020.5,236.6 L1011.5,236.6  "/>	<g transform="translate(1028.8,240.5)" stroke="none" fill="black" font-family="Helvetica" font-size="12.00" text-anchor="start">
		<text><tspan font-family="Helvetica"> 7</tspan></text>
	</g>
</g>
<g fill="none" color="black" stroke="currentColor" stroke-width="1.00" stroke-linecap="butt" stroke-linejoin="miter">
	<path stroke="black" d="M1020.5,175.8 L1011.5,175.8  "/>	<g transform="translate(1028.8,179.7)" stroke="none" fill="black" font-family="Helvetica" font-size="12.00" text-anchor="start">
		<text><tspan font-family="Helvetica"> 8</tspan></text>
	</g>
</g>
<g fill="none" color="black" stroke="currentColor" stroke-width="1.00" stroke-linecap="butt" stroke-linejoin="miter">
	<path stroke="black" d="M1020.5,114.9 L1011.5,114.9  "/>	<g transform="translate(1028.8,118.8)" stroke="none" fill="black" font-family="Helvetica" font-size="12.00" text-anchor="start">
		<text><tspan font-family="Helvetica"> 9</tspan></text>
	</g>
</g>
<g fill="none" color="black" stroke="currentColor" stroke-width="1.00" stroke-linecap="butt" stroke-linejoin="miter">
	<path stroke="black" d="M1020.5,54.1 L1011.5,54.1  "/>	<g transform="translate(1028.8,58.0)" stroke="none" fill="black" font-family="Helvetica" font-size="12.00" text-anchor="start">
		<text><tspan font-family="Helvetica"> 10</tspan></text>
	</g>
</g>
<g fill="none" color="black" stroke="currentColor" stroke-width="1.00" stroke-linecap="butt" stroke-linejoin="miter">
</g>
<g fill="none" color="black" stroke="currentColor" stroke-width="1.00" stroke-linecap="butt" stroke-linejoin="miter">
	<path stroke="black" d="M63.6,54.1 L63.6,662.4 L1020.5,662.4 L1020.5,54.1 L63.6,54.1 Z  "/></g>
<g fill="none" color="black" stroke="currentColor" stroke-width="1.00" stroke-linecap="butt" stroke-linejoin="miter">
	<g transform="translate(16.3,358.3) rotate(270)" stroke="none" fill="black" font-family="Helvetica" font-size="12.00" text-anchor="middle">
		<text><tspan font-family="Helvetica">Iterations (x 10</tspan><tspan font-family="Helvetica" font-size="9.6" dy="-6.00px">3</tspan><tspan font-family="Helvetica" font-size="12.0" dy="6.00px">)</tspan></text>
	</g>
</g>
<g fill="none" color="black" stroke="currentColor" stroke-width="1.00" stroke-linecap="butt" stroke-linejoin="miter">
	<g transform="translate(1082.5,358.3) rotate(270)" stroke="none" fill="black" font-family="Helvetica" font-size="12.00" text-anchor="middle">
		<text><tspan font-family="Helvetica">Density (a.u.)</tspan></text>
	</g>
</g>
<g fill="none" color="black" stroke="currentColor" stroke-width="1.00" stroke-linecap="butt" stroke-linejoin="miter">
	<g transform="translate(542.0,711.3)" stroke="none" fill="black" font-family="Helvetica" font-size="12.00" text-anchor="middle">
		<text><tspan font-family="Helvetica">Average time (us)</tspan></text>
	</g>
</g>
<g fill="none" color="black" stroke="currentColor" stroke-width="1.00" stroke-linecap="butt" stroke-linejoin="miter">
	<g transform="translate(542.0,31.0)" stroke="none" fill="black" font-family="Helvetica" font-size="12.00" text-anchor="middle">
		<text><tspan font-family="Helvetica">Problem 7/p7_memoize/11111111111111111111</tspan></text>
	</g>
</g>
	<g id="gnuplot_plot_1"><title>PDF</title>
<g fill="none" color="black" stroke="currentColor" stroke-width="1.00" stroke-linecap="butt" stroke-linejoin="miter">
	<g transform="translate(1155.4,67.0)" stroke="none" fill="black" font-family="Helvetica" font-size="12.00" text-anchor="start">
		<text><tspan font-family="Helvetica">PDF</tspan></text>
	</g>
</g>
<g fill="none" color="black" stroke="currentColor" stroke-width="1.00" stroke-linecap="butt" stroke-linejoin="miter">
	<g stroke="none" shape-rendering="crispEdges">
		<polygon fill="rgb( 31, 120, 180)" fill-opacity="0.250000" points="1104.9,67.6 1147.1,67.6 1147.1,58.6 1104.9,58.6 "/>
		<polygon fill="rgb( 31, 120, 180)" fill-opacity="0.250000" points="63.6,662.3 65.5,662.3 67.4,662.2 69.4,662.2 71.3,662.2 73.2,662.2 75.1,662.2 77.0,662.1 78.9,662.1 80.9,662.1 82.8,662.0 84.7,662.0 86.6,662.0 88.5,661.9 90.4,661.9 92.4,661.8 94.3,661.8 96.2,661.7 98.1,661.7 100.0,661.6 102.0,661.5 103.9,661.4 105.8,661.4 107.7,661.3 109.6,661.2 111.5,661.1 113.5,661.0 115.4,660.8 117.3,660.7 119.2,660.6 121.1,660.4 123.0,660.3 125.0,660.1 126.9,659.9 128.8,659.7 130.7,659.5 132.6,659.3 134.6,659.1 136.5,658.8 138.4,658.6 140.3,658.3 142.2,658.0 144.1,657.7 146.1,657.3 148.0,657.0 149.9,656.6 151.8,656.2 153.7,655.8 155.6,655.4 157.6,654.9 159.5,654.4 161.4,653.9 163.3,653.3 165.2,652.7 167.2,652.1 169.1,651.5 171.0,650.8 172.9,650.0 174.8,649.3 176.7,648.5 178.7,647.6 180.6,646.7 182.5,645.8 184.4,644.8 186.3,643.8 188.2,642.7 190.2,641.5 192.1,640.3 194.0,639.1 195.9,637.8 197.8,636.4 199.8,634.9 201.7,633.4 203.6,631.8 205.5,630.1 207.4,628.3 209.3,626.5 211.3,624.5 213.2,622.5 215.1,620.4 217.0,618.2 218.9,615.9 220.8,613.5 222.8,611.0 224.7,608.4 226.6,605.6 228.5,602.8 230.4,599.8 232.4,596.7 234.3,593.5 236.2,590.2 238.1,586.7 240.0,583.1 241.9,579.4 243.9,575.5 245.8,571.5 247.7,567.3 249.6,563.0 251.5,558.5 253.4,553.9 255.4,549.1 257.3,544.2 259.2,539.1 261.1,533.8 263.0,528.4 265.0,522.9 266.9,517.2 268.8,511.3 270.7,505.2 272.6,499.0 274.5,492.7 276.5,486.2 278.4,479.5 280.3,472.7 282.2,465.7 284.1,458.6 286.0,451.4 288.0,444.0 289.9,436.5 291.8,428.8 293.7,421.0 295.6,413.1 297.6,405.1 299.5,397.0 301.4,388.8 303.3,380.6 305.2,372.2 307.1,363.8 309.1,355.3 311.0,346.7 312.9,338.2 314.8,329.6 316.7,320.9 318.6,312.3 320.6,303.7 322.5,295.1 324.4,286.5 326.3,277.9 328.2,269.5 330.2,261.0 332.1,252.7 334.0,244.5 335.9,236.4 337.8,228.4 339.7,220.5 341.7,212.8 343.6,205.3 345.5,197.9 347.4,190.7 349.3,183.8 351.2,177.0 353.2,170.5 355.1,164.2 357.0,158.2 358.9,152.4 360.8,147.0 362.8,141.8 364.7,136.9 366.6,132.3 368.5,128.0 370.4,124.1 372.3,120.4 374.3,117.2 376.2,114.2 378.1,111.6 380.0,109.4 381.9,107.5 383.8,106.0 385.8,104.8 387.7,104.0 389.6,103.6 391.5,103.5 393.4,103.7 395.4,104.4 397.3,105.3 399.2,106.7 401.1,108.3 403.0,110.3 404.9,112.6 406.9,115.3 408.8,118.2 410.7,121.5 412.6,125.0 414.5,128.9 416.4,133.0 418.4,137.3 420.3,141.9 422.2,146.8 424.1,151.9 426.0,157.1 428.0,162.6 429.9,168.3 431.8,174.1 433.7,180.1 435.6,186.2 437.5,192.4 439.5,198.8 441.4,205.2 443.3,211.8 445.2,218.4 447.1,225.1 449.0,231.8 451.0,238.5 452.9,245.3 454.8,252.0 456.7,258.8 458.6,265.5 460.6,272.2 462.5,278.9 464.4,285.5 466.3,292.0 468.2,298.5 470.1,304.9 472.1,311.2 474.0,317.4 475.9,323.5 477.8,329.5 479.7,335.4 481.6,341.2 483.6,346.8 485.5,352.3 487.4,357.7 489.3,363.0 491.2,368.1 493.2,373.0 495.1,377.9 497.0,382.5 498.9,387.1 500.8,391.5 502.7,395.7 504.7,399.9 506.6,403.8 508.5,407.7 510.4,411.3 512.3,414.9 514.2,418.3 516.2,421.6 518.1,424.8 520.0,427.8 521.9,430.7 523.8,433.5 525.8,436.2 527.7,438.7 529.6,441.1 531.5,443.5 533.4,445.7 535.3,447.8 537.3,449.9 539.2,451.8 541.1,453.6 543.0,455.4 544.9,457.0 546.8,458.6 548.8,460.1 550.7,461.5 552.6,462.9 554.5,464.2 556.4,465.4 558.3,466.5 560.3,467.6 562.2,468.6 564.1,469.5 566.0,470.4 567.9,471.3 569.9,472.1 571.8,472.8 573.7,473.5 575.6,474.1 577.5,474.7 579.4,475.2 581.4,475.7 583.3,476.2 585.2,476.6 587.1,476.9 589.0,477.3 590.9,477.5 592.9,477.8 594.8,478.0 596.7,478.2 598.6,478.3 600.5,478.4 602.5,478.4 604.4,478.5 606.3,478.5 608.2,478.4 610.1,478.3 612.0,478.2 614.0,478.1 615.9,478.0 617.8,477.8 619.7,477.6 621.6,477.4 623.5,477.2 625.5,476.9 627.4,476.6 629.3,476.3 631.2,476.1 633.1,475.8 635.1,475.4 637.0,475.1 638.9,474.8 640.8,474.5 642.7,474.2 644.6,473.9 646.6,473.6 648.5,473.4 650.4,473.1 652.3,472.9 654.2,472.7 656.1,472.5 658.1,472.4 660.0,472.3 661.9,472.2 663.8,472.2 665.7,472.2 667.7,472.3 669.6,472.4 671.5,472.6 673.4,472.8 675.3,473.1 677.2,473.5 679.2,473.9 681.1,474.4 683.0,475.0 684.9,475.7 686.8,476.4 688.7,477.2 690.7,478.1 692.6,479.1 694.5,480.2 696.4,481.3 698.3,482.6 700.3,483.9 702.2,485.3 704.1,486.8 706.0,488.4 707.9,490.1 709.8,491.9 711.8,493.7 713.7,495.7 715.6,497.7 717.5,499.8 719.4,502.0 721.3,504.2 723.3,506.6 725.2,509.0 727.1,511.5 729.0,514.0 730.9,516.6 732.9,519.2 734.8,521.9 736.7,524.7 738.6,527.5 740.5,530.3 742.4,533.2 744.4,536.0 746.3,539.0 748.2,541.9 750.1,544.8 752.0,547.8 753.9,550.8 755.9,553.7 757.8,556.7 759.7,559.6 761.6,562.6 763.5,565.5 765.5,568.4 767.4,571.3 769.3,574.1 771.2,576.9 773.1,579.7 775.0,582.4 777.0,585.1 778.9,587.7 780.8,590.3 782.7,592.8 784.6,595.3 786.5,597.7 788.5,600.0 790.4,602.3 792.3,604.5 794.2,606.7 796.1,608.8 798.1,610.8 800.0,612.8 801.9,614.7 803.8,616.5 805.7,618.3 807.6,620.0 809.6,621.6 811.5,623.2 813.4,624.7 815.3,626.1 817.2,627.5 819.1,628.9 821.1,630.1 823.0,631.3 824.9,632.5 826.8,633.6 828.7,634.7 830.7,635.7 832.6,636.6 834.5,637.5 836.4,638.4 838.3,639.2 840.2,640.0 842.2,640.8 844.1,641.5 846.0,642.2 847.9,642.8 849.8,643.5 851.7,644.1 853.7,644.7 855.6,645.2 857.5,645.7 859.4,646.2 861.3,646.7 863.3,647.2 865.2,647.7 867.1,648.1 869.0,648.5 870.9,649.0 872.8,649.4 874.8,649.7 876.7,650.1 878.6,650.5 880.5,650.9 882.4,651.2 884.3,651.6 886.3,651.9 888.2,652.3 890.1,652.6 892.0,652.9 893.9,653.2 895.9,653.5 897.8,653.8 899.7,654.1 901.6,654.4 903.5,654.7 905.4,655.0 907.4,655.3 909.3,655.6 911.2,655.8 913.1,656.1 915.0,656.4 916.9,656.6 918.9,656.9 920.8,657.1 922.7,657.3 924.6,657.6 926.5,657.8 928.5,658.0 930.4,658.2 932.3,658.4 934.2,658.6 936.1,658.8 938.0,659.0 940.0,659.2 941.9,659.4 943.8,659.5 945.7,659.7 947.6,659.8 949.5,660.0 951.5,660.1 953.4,660.3 955.3,660.4 957.2,660.5 959.1,660.6 961.1,660.8 963.0,660.9 964.9,661.0 966.8,661.1 968.7,661.2 970.6,661.2 972.6,661.3 974.5,661.4 976.4,661.5 978.3,661.5 980.2,661.6 982.1,661.7 984.1,661.7 986.0,661.8 987.9,661.8 989.8,661.9 991.7,661.9 993.7,661.9 995.6,662.0 997.5,662.0 999.4,662.1 1001.3,662.1 1003.2,662.1 1005.2,662.1 1007.1,662.2 1009.0,662.2 1010.9,662.2 1012.8,662.2 1014.7,662.2 1016.7,662.3 1018.6,662.3 1020.5,662.3 1020.5,662.4 1018.6,662.4 1016.7,662.4 1014.7,662.4 1012.8,662.4 1010.9,662.4 1009.0,662.4 1007.1,662.4 1005.2,662.4 1003.2,662.4 1001.3,662.4 999.4,662.4 997.5,662.4 995.6,662.4 993.7,662.4 991.7,662.4 989.8,662.4 987.9,662.4 986.0,662.4 984.1,662.4 982.1,662.4 980.2,662.4 978.3,662.4 976.4,662.4 974.5,662.4 972.6,662.4 970.6,662.4 968.7,662.4 966.8,662.4 964.9,662.4 963.0,662.4 961.1,662.4 959.1,662.4 957.2,662.4 955.3,662.4 953.4,662.4 951.5,662.4 949.5,662.4 947.6,662.4 945.7,662.4 943.8,662.4 941.9,662.4 940.0,662.4 938.0,662.4 936.1,662.4 934.2,662.4 932.3,662.4 930.4,662.4 928.5,662.4 926.5,662.4 924.6,662.4 922.7,662.4 920.8,662.4 918.9,662.4 916.9,662.4 915.0,662.4 913.1,662.4 911.2,662.4 909.3,662.4 907.4,662.4 905.4,662.4 903.5,662.4 901.6,662.4 899.7,662.4 897.8,662.4 895.9,662.4 893.9,662.4 892.0,662.4 890.1,662.4 888.2,662.4 886.3,662.4 884.3,662.4 882.4,662.4 880.5,662.4 878.6,662.4 876.7,662.4 874.8,662.4 872.8,662.4 870.9,662.4 869.0,662.4 867.1,662.4 865.2,662.4 863.3,662.4 861.3,662.4 859.4,662.4 857.5,662.4 855.6,662.4 853.7,662.4 851.7,662.4 849.8,662.4 847.9,662.4 846.0,662.4 844.1,662.4 842.2,662.4 840.2,662.4 838.3,662.4 836.4,662.4 834.5,662.4 832.6,662.4 830.7,662.4 828.7,662.4 826.8,662.4 824.9,662.4 823.0,662.4 821.1,662.4 819.1,662.4 817.2,662.4 815.3,662.4 813.4,662.4 811.5,662.4 809.6,662.4 807.6,662.4 805.7,662.4 803.8,662.4 801.9,662.4 800.0,662.4 798.1,662.4 796.1,662.4 794.2,662.4 792.3,662.4 790.4,662.4 788.5,662.4 786.5,662.4 784.6,662.4 782.7,662.4 780.8,662.4 778.9,662.4 777.0,662.4 775.0,662.4 773.1,662.4 771.2,662.4 769.3,662.4 767.4,662.4 765.5,662.4 763.5,662.4 761.6,662.4 759.7,662.4 757.8,662.4 755.9,662.4 753.9,662.4 752.0,662.4 750.1,662.4 748.2,662.4 746.3,662.4 744.4,662.4 742.4,662.4 740.5,662.4 738.6,662.4 736.7,662.4 734.8,662.4 732.9,662.4 730.9,662.4 729.0,662.4 727.1,662.4 725.2,662.4 723.3,662.4 721.3,662.4 719.4,662.4 717.5,662.4 715.6,662.4 713.7,662.4 711.8,662.4 709.8,662.4 707.9,662.4 706.0,662.4 704.1,662.4 702.2,662.4 700.3,662.4 698.3,662.4 696.4,662.4 694.5,662.4 692.6,662.4 690.7,662.4 688.7,662.4 686.8,662.4 684.9,662.4 683.0,662.4 681.1,662.4 679.2,662.4 677.2,662.4 675.3,662.4 673.4,662.4 671.5,662.4 669.6,662.4 667.7,662.4 665.7,662.4 663.8,662.4 661.9,662.4 660.0,662.4 658.1,662.4 656.1,662.4 654.2,662.4 652.3,662.4 650.4,662.4 648.5,662.4 646.6,662.4 644.6,662.4 642.7,662.4 640.8,662.4 638.9,662.4 637.0,662.4 635.1,662.4 633.1,662.4 631.2,662.4 629.3,662.4 627.4,662.4 625.5,662.4 623.5,662.4 621.6,662.4 619.7,662.4 617.8,662.4 615.9,662.4 614.0,662.4 612.0,662.4 610.1,662.4 608.2,662.4 606.3,662.4 604.4,662.4 602.5,662.4 600.5,662.4 598.6,662.4 596.7,662.4 594.8,662.4 592.9,662.4 590.9,662.4 589.0,662.4 587.1,662.4 585.2,662.4 583.3,662.4 581.4,662.4 579.4,662.4 577.5,662.4 575.6,662.4 573.7,662.4 571.8,662.4 569.9,662.4 567.9,662.4 566.0,662.4 564.1,662.4 562.2,662.4 560.3,662.4 558.3,662.4 556.4,662.4 554.5,662.4 552.6,662.4 550.7,662.4 548.8,662.4 546.8,662.4 544.9,662.4 543.0,662.4 541.1,662.4 539.2,662.4 537.3,662.4 535.3,662.4 533.4,662.4 531.5,662.4 529.6,662.4 527.7,662.4 525.8,662.4 523.8,662.4 521.9,662.4 520.0,662.4 518.1,662.4 516.2,662.4 514.2,662.4 512.3,662.4 510.4,662.4 508.5,662.4 506.6,662.4 504.7,662.4 502.7,662.4 500.8,662.4 498.9,662.4 497.0,662.4 495.1,662.4 493.2,662.4 491.2,662.4 489.3,662.4 487.4,662.4 485.5,662.4 483.6,662.4 481.6,662.4 479.7,662.4 477.8,662.4 475.9,662.4 474.0,662.4 472.1,662.4 470.1,662.4 468.2,662.4 466.3,662.4 464.4,662.4 462.5,662.4 460.6,662.4 458.6,662.4 456.7,662.4 454.8,662.4 452.9,662.4 451.0,662.4 449.0,662.4 447.1,662.4 445.2,662.4 443.3,662.4 441.4,662.4 439.5,662.4 437.5,662.4 435.6,662.4 433.7,662.4 431.8,662.4 429.9,662.4 428.0,662.4 426.0,662.4 424.1,662.4 422.2,662.4 420.3,662.4 418.4,662.4 416.4,662.4 414.5,662.4 412.6,662.4 410.7,662.4 408.8,662.4 406.9,662.4 404.9,662.4 403.0,662.4 401.1,662.4 399.2,662.4 397.3,662.4 395.4,662.4 393.4,662.4 391.5,662.4 389.6,662.4 387.7,662.4 385.8,662.4 383.8,662.4 381.9,662.4 380.0,662.4 378.1,662.4 376.2,662.4 374.3,662.4 372.3,662.4 370.4,662.4 368.5,662.4 366.6,662.4 364.7,662.4 362.8,662.4 360.8,662.4 358.9,662.4 357.0,662.4 355.1,662.4 353.2,662.4 351.2,662.4 349.3,662.4 347.4,662.4 345.5,662.4 343.6,662.4 341.7,662.4 339.7,662.4 337.8,662.4 335.9,662.4 334.0,662.4 332.1,662.4 330.2,662.4 328.2,662.4 326.3,662.4 324.4,662.4 322.5,662.4 320.6,662.4 318.6,662.4 316.7,662.4 314.8,662.4 312.9,662.4 311.0,662.4 309.1,662.4 307.1,662.4 305.2,662.4 303.3,662.4 301.4,662.4 299.5,662.4 297.6,662.4 295.6,662.4 293.7,662.4 291.8,662.4 289.9,662.4 288.0,662.4 286.0,662.4 284.1,662.4 282.2,662.4 280.3,662.4 278.4,662.4 276.5,662.4 274.5,662.4 272.6,662.4 270.7,662.4 268.8,662.4 266.9,662.4 265.0,662.4 263.0,662.4 261.1,662.4 259.2,662.4 257.3,662.4 255.4,662.4 253.4,662.4 251.5,662.4 249.6,662.4 247.7,662.4 245.8,662.4 243.9,662.4 241.9,662.4 240.0,662.4 238.1,662.4 236.2,662.4 234.3,662.4 232.4,662.4 230.4,662.4 228.5,662.4 226.6,662.4 224.7,662.4 222.8,662.4 220.8,662.4 218.9,662.4 217.0,662.4 215.1,662.4 213.2,662.4 211.3,662.4 209.3,662.4 207.4,662.4 205.5,662.4 203.6,662.4 201.7,662.4 199.8,662.4 197.8,662.4 195.9,662.4 194.0,662.4 192.1,662.4 190.2,662.4 188.2,662.4 186.3,662.4 184.4,662.4 182.5,662.4 180.6,662.4 178.7,662.4 176.7,662.4 174.8,662.4 172.9,662.4 171.0,662.4 169.1,662.4 167.2,662.4 165.2,662.4 163.3,662.4 161.4,662.4 159.5,662.4 157.6,662.4 155.6,662.4 153.7,662.4 151.8,662.4 149.9,662.4 148.0,662.4 146.1,662.4 144.1,662.4 142.2,662.4 140.3,662.4 138.4,662.4 136.5,662.4 134.6,662.4 132.6,662.4 130.7,662.4 128.8,662.4 126.9,662.4 125.0,662.4 123.0,662.4 121.1,662.4 119.2,662.4 117.3,662.4 115.4,662.4 113.5,662.4 111.5,662.4 109.6,662.4 107.7,662.4 105.8,662.4 103.9,662.4 102.0,662.4 100.0,662.4 98.1,662.4 96.2,662.4 94.3,662.4 92.4,662.4 90.4,662.4 88.5,662.4 86.6,662.4 84.7,662.4 82.8,662.4 80.9,662.4 78.9,662.4 77.0,662.4 75.1,662.4 73.2,662.4 71.3,662.4 69.4,662.4 67.4,662.4 65.5,662.4 63.6,662.4 "/>
	</g>
</g>
	</g>
	<g id="gnuplot_plot_2"><title>Mean</title>
<g fill="none" color="white" stroke="rgb( 31, 120, 180)" stroke-width="2.00" stroke-linecap="butt" stroke-linejoin="miter">
</g>
<g fill="none" color="black" stroke="currentColor" stroke-width="2.00" stroke-linecap="butt" stroke-linejoin="miter">
	<g transform="translate(1155.4,85.0)" stroke="none" fill="black" font-family="Helvetica" font-size="12.00" text-anchor="start">
		<text><tspan font-family="Helvetica">Mean</tspan></text>
	</g>
</g>
<g fill="none" color="black" stroke="currentColor" stroke-width="2.00" stroke-linecap="butt" stroke-linejoin="miter">
	<path stroke="rgb( 31, 120, 180)" d="M1104.9,81.1 L1147.1,81.1 M470.8,662.4 L470.8,54.1  "/></g>
	</g>
	<g id="gnuplot_plot_3"><title>"Clean" sample</title>
<g fill="none" color="white" stroke="rgb( 31, 120, 180)" stroke-width="1.00" stroke-linecap="butt" stroke-linejoin="miter">
</g>
<g fill="none" color="black" stroke="currentColor" stroke-width="1.00" stroke-linecap="butt" stroke-linejoin="miter">
	<g transform="translate(1155.4,103.0)" stroke="none" fill="black" font-family="Helvetica" font-size="12.00" text-anchor="start">
		<text><tspan font-family="Helvetica">"Clean" sample</tspan></text>
	</g>
</g>
<g fill="none" color="black" stroke="currentColor" stroke-width="1.00" stroke-linecap="butt" stroke-linejoin="miter">
	<use xlink:href="#gpPt6" transform="translate(381.2,656.3) scale(3.38)" color="rgb( 31, 120, 180)"/>
	<use xlink:href="#gpPt6" transform="translate(428.1,650.2) scale(3.38)" color="rgb( 31, 120, 180)"/>
	<use xlink:href="#gpPt6" transform="translate(435.0,644.2) scale(3.38)" color="rgb( 31, 120, 180)"/>
	<use xlink:href="#gpPt6" transform="translate(377.7,638.1) scale(3.38)" color="rgb( 31, 120, 180)"/>
	<use xlink:href="#gpPt6" transform="translate(344.2,632.0) scale(3.38)" color="rgb( 31, 120, 180)"/>
	<use xlink:href="#gpPt6" transform="translate(317.5,625.9) scale(3.38)" color="rgb( 31, 120, 180)"/>
	<use xlink:href="#gpPt6" transform="translate(305.3,619.8) scale(3.38)" color="rgb( 31, 120, 180)"/>
	<use xlink:href="#gpPt6" transform="translate(291.3,613.7) scale(3.38)" color="rgb( 31, 120, 180)"/>
	<use xlink:href="#gpPt6" transform="translate(364.8,607.7) scale(3.38)" color="rgb( 31, 120, 180)"/>
	<use xlink:href="#gpPt6" transform="translate(233.3,601.6) scale(3.38)" color="rgb( 31, 120, 180)"/>
	<use xlink:href="#gpPt6" transform="translate(294.6,595.5) scale(3.38)" color="rgb( 31, 120, 180)"/>
	<use xlink:href="#gpPt6" transform="translate(317.4,589.4) scale(3.38)" color="rgb( 31, 120, 180)"/>
	<use xlink:href="#gpPt6" transform="translate(301.8,583.3) scale(3.38)" color="rgb( 31, 120, 180)"/>
	<use xlink:href="#gpPt6" transform="translate(341.0,577.2) scale(3.38)" color="rgb( 31, 120, 180)"/>
	<use xlink:href="#gpPt6" transform="translate(401.9,571.2) scale(3.38)" color="rgb( 31, 120, 180)"/>
	<use xlink:href="#gpPt6" transform="translate(412.3,565.1) scale(3.38)" color="rgb( 31, 120, 180)"/>
	<use xlink:href="#gpPt6" transform="translate(580.6,559.0) scale(3.38)" color="rgb( 31, 120, 180)"/>
	<use xlink:href="#gpPt6" transform="translate(521.9,552.9) scale(3.38)" color="rgb( 31, 120, 180)"/>
	<use xlink:href="#gpPt6" transform="translate(736.3,546.8) scale(3.38)" color="rgb( 31, 120, 180)"/>
	<use xlink:href="#gpPt6" transform="translate(693.1,540.7) scale(3.38)" color="rgb( 31, 120, 180)"/>
	<use xlink:href="#gpPt6" transform="translate(661.6,534.7) scale(3.38)" color="rgb( 31, 120, 180)"/>
	<use xlink:href="#gpPt6" transform="translate(571.0,528.6) scale(3.38)" color="rgb( 31, 120, 180)"/>
	<use xlink:href="#gpPt6" transform="translate(577.0,522.5) scale(3.38)" color="rgb( 31, 120, 180)"/>
	<use xlink:href="#gpPt6" transform="translate(546.5,516.4) scale(3.38)" color="rgb( 31, 120, 180)"/>
	<use xlink:href="#gpPt6" transform="translate(339.4,510.3) scale(3.38)" color="rgb( 31, 120, 180)"/>
	<use xlink:href="#gpPt6" transform="translate(708.0,504.2) scale(3.38)" color="rgb( 31, 120, 180)"/>
	<use xlink:href="#gpPt6" transform="translate(354.8,498.2) scale(3.38)" color="rgb( 31, 120, 180)"/>
	<use xlink:href="#gpPt6" transform="translate(397.7,492.1) scale(3.38)" color="rgb( 31, 120, 180)"/>
	<use xlink:href="#gpPt6" transform="translate(445.0,486.0) scale(3.38)" color="rgb( 31, 120, 180)"/>
	<use xlink:href="#gpPt6" transform="translate(487.0,479.9) scale(3.38)" color="rgb( 31, 120, 180)"/>
	<use xlink:href="#gpPt6" transform="translate(420.5,473.8) scale(3.38)" color="rgb( 31, 120, 180)"/>
	<use xlink:href="#gpPt6" transform="translate(377.8,467.7) scale(3.38)" color="rgb( 31, 120, 180)"/>
	<use xlink:href="#gpPt6" transform="translate(394.1,461.7) scale(3.38)" color="rgb( 31, 120, 180)"/>
	<use xlink:href="#gpPt6" transform="translate(354.6,455.6) scale(3.38)" color="rgb( 31, 120, 180)"/>
	<use xlink:href="#gpPt6" transform="translate(372.8,449.5) scale(3.38)" color="rgb( 31, 120, 180)"/>
	<use xlink:href="#gpPt6" transform="translate(385.5,443.4) scale(3.38)" color="rgb( 31, 120, 180)"/>
	<use xlink:href="#gpPt6" transform="translate(606.7,437.3) scale(3.38)" color="rgb( 31, 120, 180)"/>
	<use xlink:href="#gpPt6" transform="translate(715.1,431.2) scale(3.38)" color="rgb( 31, 120, 180)"/>
	<use xlink:href="#gpPt6" transform="translate(629.6,425.2) scale(3.38)" color="rgb( 31, 120, 180)"/>
	<use xlink:href="#gpPt6" transform="translate(597.9,419.1) scale(3.38)" color="rgb( 31, 120, 180)"/>
	<use xlink:href="#gpPt6" transform="translate(486.5,413.0) scale(3.38)" color="rgb( 31, 120, 180)"/>
	<use xlink:href="#gpPt6" transform="translate(360.9,406.9) scale(3.38)" color="rgb( 31, 120, 180)"/>
	<use xlink:href="#gpPt6" transform="translate(352.3,400.8) scale(3.38)" color="rgb( 31, 120, 180)"/>
	<use xlink:href="#gpPt6" transform="translate(364.4,394.7) scale(3.38)" color="rgb( 31, 120, 180)"/>
	<use xlink:href="#gpPt6" transform="translate(406.5,388.7) scale(3.38)" color="rgb( 31, 120, 180)"/>
	<use xlink:href="#gpPt6" transform="translate(393.6,382.6) scale(3.38)" color="rgb( 31, 120, 180)"/>
	<use xlink:href="#gpPt6" transform="translate(389.2,376.5) scale(3.38)" color="rgb( 31, 120, 180)"/>
	<use xlink:href="#gpPt6" transform="translate(410.3,370.4) scale(3.38)" color="rgb( 31, 120, 180)"/>
	<use xlink:href="#gpPt6" transform="translate(537.1,364.3) scale(3.38)" color="rgb( 31, 120, 180)"/>
	<use xlink:href="#gpPt6" transform="translate(676.7,358.2) scale(3.38)" color="rgb( 31, 120, 180)"/>
	<use xlink:href="#gpPt6" transform="translate(613.5,352.2) scale(3.38)" color="rgb( 31, 120, 180)"/>
	<use xlink:href="#gpPt6" transform="translate(619.9,346.1) scale(3.38)" color="rgb( 31, 120, 180)"/>
	<use xlink:href="#gpPt6" transform="translate(346.6,340.0) scale(3.38)" color="rgb( 31, 120, 180)"/>
	<use xlink:href="#gpPt6" transform="translate(388.0,333.9) scale(3.38)" color="rgb( 31, 120, 180)"/>
	<use xlink:href="#gpPt6" transform="translate(710.3,327.8) scale(3.38)" color="rgb( 31, 120, 180)"/>
	<use xlink:href="#gpPt6" transform="translate(375.2,321.8) scale(3.38)" color="rgb( 31, 120, 180)"/>
	<use xlink:href="#gpPt6" transform="translate(357.0,315.7) scale(3.38)" color="rgb( 31, 120, 180)"/>
	<use xlink:href="#gpPt6" transform="translate(389.6,309.6) scale(3.38)" color="rgb( 31, 120, 180)"/>
	<use xlink:href="#gpPt6" transform="translate(483.4,303.5) scale(3.38)" color="rgb( 31, 120, 180)"/>
	<use xlink:href="#gpPt6" transform="translate(673.4,297.4) scale(3.38)" color="rgb( 31, 120, 180)"/>
	<use xlink:href="#gpPt6" transform="translate(719.0,291.3) scale(3.38)" color="rgb( 31, 120, 180)"/>
	<use xlink:href="#gpPt6" transform="translate(502.0,285.3) scale(3.38)" color="rgb( 31, 120, 180)"/>
	<use xlink:href="#gpPt6" transform="translate(371.9,279.2) scale(3.38)" color="rgb( 31, 120, 180)"/>
	<use xlink:href="#gpPt6" transform="translate(436.1,273.1) scale(3.38)" color="rgb( 31, 120, 180)"/>
	<use xlink:href="#gpPt6" transform="translate(384.2,267.0) scale(3.38)" color="rgb( 31, 120, 180)"/>
	<use xlink:href="#gpPt6" transform="translate(426.9,260.9) scale(3.38)" color="rgb( 31, 120, 180)"/>
	<use xlink:href="#gpPt6" transform="translate(456.5,254.8) scale(3.38)" color="rgb( 31, 120, 180)"/>
	<use xlink:href="#gpPt6" transform="translate(711.2,248.8) scale(3.38)" color="rgb( 31, 120, 180)"/>
	<use xlink:href="#gpPt6" transform="translate(656.3,242.7) scale(3.38)" color="rgb( 31, 120, 180)"/>
	<use xlink:href="#gpPt6" transform="translate(391.9,236.6) scale(3.38)" color="rgb( 31, 120, 180)"/>
	<use xlink:href="#gpPt6" transform="translate(383.3,230.5) scale(3.38)" color="rgb( 31, 120, 180)"/>
	<use xlink:href="#gpPt6" transform="translate(384.7,224.4) scale(3.38)" color="rgb( 31, 120, 180)"/>
	<use xlink:href="#gpPt6" transform="translate(426.0,218.3) scale(3.38)" color="rgb( 31, 120, 180)"/>
	<use xlink:href="#gpPt6" transform="translate(378.8,212.3) scale(3.38)" color="rgb( 31, 120, 180)"/>
	<use xlink:href="#gpPt6" transform="translate(510.0,206.2) scale(3.38)" color="rgb( 31, 120, 180)"/>
	<use xlink:href="#gpPt6" transform="translate(662.1,200.1) scale(3.38)" color="rgb( 31, 120, 180)"/>
	<use xlink:href="#gpPt6" transform="translate(527.9,194.0) scale(3.38)" color="rgb( 31, 120, 180)"/>
	<use xlink:href="#gpPt6" transform="translate(447.4,187.9) scale(3.38)" color="rgb( 31, 120, 180)"/>
	<use xlink:href="#gpPt6" transform="translate(426.2,181.8) scale(3.38)" color="rgb( 31, 120, 180)"/>
	<use xlink:href="#gpPt6" transform="translate(370.8,175.8) scale(3.38)" color="rgb( 31, 120, 180)"/>
	<use xlink:href="#gpPt6" transform="translate(415.4,169.7) scale(3.38)" color="rgb( 31, 120, 180)"/>
	<use xlink:href="#gpPt6" transform="translate(710.3,163.6) scale(3.38)" color="rgb( 31, 120, 180)"/>
	<use xlink:href="#gpPt6" transform="translate(727.5,157.5) scale(3.38)" color="rgb( 31, 120, 180)"/>
	<use xlink:href="#gpPt6" transform="translate(455.0,151.4) scale(3.38)" color="rgb( 31, 120, 180)"/>
	<use xlink:href="#gpPt6" transform="translate(401.9,145.3) scale(3.38)" color="rgb( 31, 120, 180)"/>
	<use xlink:href="#gpPt6" transform="translate(365.9,139.3) scale(3.38)" color="rgb( 31, 120, 180)"/>
	<use xlink:href="#gpPt6" transform="translate(446.4,133.2) scale(3.38)" color="rgb( 31, 120, 180)"/>
	<use xlink:href="#gpPt6" transform="translate(533.1,127.1) scale(3.38)" color="rgb( 31, 120, 180)"/>
	<use xlink:href="#gpPt6" transform="translate(663.8,121.0) scale(3.38)" color="rgb( 31, 120, 180)"/>
	<use xlink:href="#gpPt6" transform="translate(435.8,114.9) scale(3.38)" color="rgb( 31, 120, 180)"/>
	<use xlink:href="#gpPt6" transform="translate(331.4,108.8) scale(3.38)" color="rgb( 31, 120, 180)"/>
	<use xlink:href="#gpPt6" transform="translate(418.0,102.8) scale(3.38)" color="rgb( 31, 120, 180)"/>
	<use xlink:href="#gpPt6" transform="translate(522.8,96.7) scale(3.38)" color="rgb( 31, 120, 180)"/>
	<use xlink:href="#gpPt6" transform="translate(580.4,90.6) scale(3.38)" color="rgb( 31, 120, 180)"/>
	<use xlink:href="#gpPt6" transform="translate(850.8,84.5) scale(3.38)" color="rgb( 31, 120, 180)"/>
	<use xlink:href="#gpPt6" transform="translate(385.7,78.4) scale(3.38)" color="rgb( 31, 120, 180)"/>
	<use xlink:href="#gpPt6" transform="translate(332.4,72.3) scale(3.38)" color="rgb( 31, 120, 180)"/>
	<use xlink:href="#gpPt6" transform="translate(416.6,66.3) scale(3.38)" color="rgb( 31, 120, 180)"/>
	<use xlink:href="#gpPt6" transform="translate(417.0,60.2) scale(3.38)" color="rgb( 31, 120, 180)"/>
	<use xlink:href="#gpPt6" transform="translate(737.0,54.1) scale(3.38)" color="rgb( 31, 120, 180)"/>
	<use xlink:href="#gpPt6" transform="translate(1126.0,99.1) scale(3.38)" color="rgb( 31, 120, 180)"/>
</g>
	</g>
	<g id="gnuplot_plot_4"><title>gnuplot_plot_4</title>
<g fill="none" color="white" stroke="rgb( 31, 120, 180)" stroke-width="2.00" stroke-linecap="butt" stroke-linejoin="miter">
</g>
<g fill="none" color="black" stroke="currentColor" stroke-width="2.00" stroke-linecap="butt" stroke-linejoin="miter">
	<path stroke="rgb(255, 127,   0)" d="M84.0,662.4 L84.0,54.1  "/></g>
	</g>
	<g id="gnuplot_plot_5"><title>gnuplot_plot_5</title>
<g fill="none" color="black" stroke="currentColor" stroke-width="2.00" stroke-linecap="butt" stroke-linejoin="miter">
	<path stroke="rgb(255, 127,   0)" d="M865.5,662.4 L865.5,54.1  "/></g>
	</g>
	<g id="gnuplot_plot_6"><title>gnuplot_plot_6</title>
<g fill="none" color="black" stroke="currentColor" stroke-width="2.00" stroke-linecap="butt" stroke-linejoin="miter">
</g>
	</g>
	<g id="gnuplot_plot_7"><title>gnuplot_plot_7</title>
<g fill="none" color="black" stroke="currentColor" stroke-width="2.00" stroke-linecap="butt" stroke-linejoin="miter">
</g>
	</g>
<g fill="none" color="black" stroke="currentColor" stroke-width="2.00" stroke-linecap="butt" stroke-linejoin="miter">
</g>
<g fill="none" color="black" stroke="black" stroke-width="1.00" stroke-linecap="butt" stroke-linejoin="miter">
</g>
<g fill="none" color="black" stroke="currentColor" stroke-width="1.00" stroke-linecap="butt" stroke-linejoin="miter">
	<path stroke="black" d="M63.6,54.1 L63.6,662.4 L1020.5,662.4 L1020.5,54.1 L63.6,54.1 Z  "/></g>
<g fill="none" color="black" stroke="currentColor" stroke-width="1.00" stroke-linecap="butt" stroke-linejoin="miter">
</g>
</g>
</svg>