<?xml version="1.0" encoding="UTF-8" standalone="no"?>
<svg viewBox="0 0 1280 720" xmlns="http://www.w3.org/2000/svg" xmlns:xlink="http://www.w3.org/1999/xlink">

<title>Gnuplot</title>
<desc>Produced by GNUPLOT 5.2 patchlevel 2 </desc>

<g id="gnuplot_canvas">

<rect x="0" y="0" width="1280" height="720" fill="none"/>
<defs>

	<circle id="gpDot" r="0.5" stroke-width="0.5"/>
	<path id="gpPt0" stroke-width="0.222" stroke="currentColor" d="M-1,0 h2 M0,-1 v2"/>
	<path id="gpPt1" stroke-width="0.222" stroke="currentColor" d="M-1,-1 L1,1 M1,-1 L-1,1"/>
	<path id="gpPt2" stroke-width="0.222" stroke="currentColor" d="M-1,0 L1,0 M0,-1 L0,1 M-1,-1 L1,1 M-1,1 L1,-1"/>
	<rect id="gpPt3" stroke-width="0.222" stroke="currentColor" x="-1" y="-1" width="2" height="2"/>
	<rect id="gpPt4" stroke-width="0.222" stroke="currentColor" fill="currentColor" x="-1" y="-1" width="2" height="2"/>
	<circle id="gpPt5" stroke-width="0.222" stroke="currentColor" cx="0" cy="0" r="1"/>
	<use xlink:href="#gpPt5" id="gpPt6" fill="currentColor" stroke="none"/>
	<path id="gpPt7" stroke-width="0.222" stroke="currentColor" d="M0,-1.33 L-1.33,0.67 L1.33,0.67 z"/>
	<use xlink:href="#gpPt7" id="gpPt8" fill="currentColor" stroke="none"/>
	<use xlink:href="#gpPt7" id="gpPt9" stroke="currentColor" transform="rotate(180)"/>
	<use xlink:href="#gpPt9" id="gpPt10" fill="currentColor" stroke="none"/>
	<use xlink:href="#gpPt3" id="gpPt11" stroke="currentColor" transform="rotate(45)"/>
	<use xlink:href="#gpPt11" id="gpPt12" fill="currentColor" stroke="none"/>
	<path id="gpPt13" stroke-width="0.222" stroke="currentColor" d="M0,1.330 L1.265,0.411 L0.782,-1.067 L-0.782,-1.076 L-1.265,0.411 z"/>
	<use xlink:href="#gpPt13" id="gpPt14" fill="currentColor" stroke="none"/>
	<filter id="textbox" filterUnits="objectBoundingBox" x="0" y="0" height="1" width="1">
	  <feFlood flood-color="white" flood-opacity="1" result="bgnd"/>
	  <feComposite in="SourceGraphic" in2="bgnd" operator="atop"/>
	</filter>
	<filter id="greybox" filterUnits="objectBoundingBox" x="0" y="0" height="1" width="1">
	  <feFlood flood-color="lightgrey" flood-opacity="1" result="grey"/>
	  <feComposite in="SourceGraphic" in2="grey" operator="atop"/>
	</filter>
</defs>
<g fill="none" color="white" stroke="currentColor" stroke-width="1.00" stroke-linecap="butt" stroke-linejoin="miter">
</g>
<g fill="none" color="black" stroke="currentColor" stroke-width="1.00" stroke-linecap="butt" stroke-linejoin="miter">
	<path stroke="black" d="M71.9,662.4 L80.9,662.4  "/>	<g transform="translate(63.6,666.3)" stroke="none" fill="black" font-family="Helvetica" font-size="12.00" text-anchor="end">
		<text><tspan font-family="Helvetica"> 0</tspan></text>
	</g>
</g>
<g fill="none" color="black" stroke="currentColor" stroke-width="1.00" stroke-linecap="butt" stroke-linejoin="miter">
	<path stroke="black" d="M71.9,561.0 L80.9,561.0  "/>	<g transform="translate(63.6,564.9)" stroke="none" fill="black" font-family="Helvetica" font-size="12.00" text-anchor="end">
		<text><tspan font-family="Helvetica"> 50</tspan></text>
	</g>
</g>
<g fill="none" color="black" stroke="currentColor" stroke-width="1.00" stroke-linecap="butt" stroke-linejoin="miter">
	<path stroke="black" d="M71.9,459.6 L80.9,459.6  "/>	<g transform="translate(63.6,463.5)" stroke="none" fill="black" font-family="Helvetica" font-size="12.00" text-anchor="end">
		<text><tspan font-family="Helvetica"> 100</tspan></text>
	</g>
</g>
<g fill="none" color="black" stroke="currentColor" stroke-width="1.00" stroke-linecap="butt" stroke-linejoin="miter">
	<path stroke="black" d="M71.9,358.2 L80.9,358.2  "/>	<g transform="translate(63.6,362.1)" stroke="none" fill="black" font-family="Helvetica" font-size="12.00" text-anchor="end">
		<text><tspan font-family="Helvetica"> 150</tspan></text>
	</g>
</g>
<g fill="none" color="black" stroke="currentColor" stroke-width="1.00" stroke-linecap="butt" stroke-linejoin="miter">
	<path stroke="black" d="M71.9,256.9 L80.9,256.9  "/>	<g transform="translate(63.6,260.8)" stroke="none" fill="black" font-family="Helvetica" font-size="12.00" text-anchor="end">
		<text><tspan font-family="Helvetica"> 200</tspan></text>
	</g>
</g>
<g fill="none" color="black" stroke="currentColor" stroke-width="1.00" stroke-linecap="butt" stroke-linejoin="miter">
	<path stroke="black" d="M71.9,155.5 L80.9,155.5  "/>	<g transform="translate(63.6,159.4)" stroke="none" fill="black" font-family="Helvetica" font-size="12.00" text-anchor="end">
		<text><tspan font-family="Helvetica"> 250</tspan></text>
	</g>
</g>
<g fill="none" color="black" stroke="currentColor" stroke-width="1.00" stroke-linecap="butt" stroke-linejoin="miter">
	<path stroke="black" d="M71.9,54.1 L80.9,54.1  "/>	<g transform="translate(63.6,58.0)" stroke="none" fill="black" font-family="Helvetica" font-size="12.00" text-anchor="end">
		<text><tspan font-family="Helvetica"> 300</tspan></text>
	</g>
</g>
<g fill="none" color="black" stroke="currentColor" stroke-width="1.00" stroke-linecap="butt" stroke-linejoin="miter">
	<path stroke="black" d="M95.9,662.4 L95.9,653.4  "/>	<g transform="translate(95.9,684.3)" stroke="none" fill="black" font-family="Helvetica" font-size="12.00" text-anchor="middle">
		<text><tspan font-family="Helvetica"> 410</tspan></text>
	</g>
</g>
<g fill="none" color="black" stroke="currentColor" stroke-width="1.00" stroke-linecap="butt" stroke-linejoin="miter">
	<path stroke="black" d="M203.0,662.4 L203.0,653.4  "/>	<g transform="translate(203.0,684.3)" stroke="none" fill="black" font-family="Helvetica" font-size="12.00" text-anchor="middle">
		<text><tspan font-family="Helvetica"> 415</tspan></text>
	</g>
</g>
<g fill="none" color="black" stroke="currentColor" stroke-width="1.00" stroke-linecap="butt" stroke-linejoin="miter">
	<path stroke="black" d="M310.1,662.4 L310.1,653.4  "/>	<g transform="translate(310.1,684.3)" stroke="none" fill="black" font-family="Helvetica" font-size="12.00" text-anchor="middle">
		<text><tspan font-family="Helvetica"> 420</tspan></text>
	</g>
</g>
<g fill="none" color="black" stroke="currentColor" stroke-width="1.00" stroke-linecap="butt" stroke-linejoin="miter">
	<path stroke="black" d="M417.1,662.4 L417.1,653.4  "/>	<g transform="translate(417.1,684.3)" stroke="none" fill="black" font-family="Helvetica" font-size="12.00" text-anchor="middle">
		<text><tspan font-family="Helvetica"> 425</tspan></text>
	</g>
</g>
<g fill="none" color="black" stroke="currentColor" stroke-width="1.00" stroke-linecap="butt" stroke-linejoin="miter">
	<path stroke="black" d="M524.2,662.4 L524.2,653.4  "/>	<g transform="translate(524.2,684.3)" stroke="none" fill="black" font-family="Helvetica" font-size="12.00" text-anchor="middle">
		<text><tspan font-family="Helvetica"> 430</tspan></text>
	</g>
</g>
<g fill="none" color="black" stroke="currentColor" stroke-width="1.00" stroke-linecap="butt" stroke-linejoin="miter">
	<path stroke="black" d="M631.3,662.4 L631.3,653.4  "/>	<g transform="translate(631.3,684.3)" stroke="none" fill="black" font-family="Helvetica" font-size="12.00" text-anchor="middle">
		<text><tspan font-family="Helvetica"> 435</tspan></text>
	</g>
</g>
<g fill="none" color="black" stroke="currentColor" stroke-width="1.00" stroke-linecap="butt" stroke-linejoin="miter">
	<path stroke="black" d="M738.4,662.4 L738.4,653.4  "/>	<g transform="translate(738.4,684.3)" stroke="none" fill="black" font-family="Helvetica" font-size="12.00" text-anchor="middle">
		<text><tspan font-family="Helvetica"> 440</tspan></text>
	</g>
</g>
<g fill="none" color="black" stroke="currentColor" stroke-width="1.00" stroke-linecap="butt" stroke-linejoin="miter">
	<path stroke="black" d="M845.5,662.4 L845.5,653.4  "/>	<g transform="translate(845.5,684.3)" stroke="none" fill="black" font-family="Helvetica" font-size="12.00" text-anchor="middle">
		<text><tspan font-family="Helvetica"> 445</tspan></text>
	</g>
</g>
<g fill="none" color="black" stroke="currentColor" stroke-width="1.00" stroke-linecap="butt" stroke-linejoin="miter">
	<path stroke="black" d="M952.5,662.4 L952.5,653.4  "/>	<g transform="translate(952.5,684.3)" stroke="none" fill="black" font-family="Helvetica" font-size="12.00" text-anchor="middle">
		<text><tspan font-family="Helvetica"> 450</tspan></text>
	</g>
</g>
<g fill="none" color="black" stroke="currentColor" stroke-width="1.00" stroke-linecap="butt" stroke-linejoin="miter">
	<path stroke="black" d="M995.6,662.4 L986.6,662.4  "/>	<g transform="translate(1003.9,666.3)" stroke="none" fill="black" font-family="Helvetica" font-size="12.00" text-anchor="start">
		<text><tspan font-family="Helvetica"> 0</tspan></text>
	</g>
</g>
<g fill="none" color="black" stroke="currentColor" stroke-width="1.00" stroke-linecap="butt" stroke-linejoin="miter">
	<path stroke="black" d="M995.6,601.6 L986.6,601.6  "/>	<g transform="translate(1003.9,605.5)" stroke="none" fill="black" font-family="Helvetica" font-size="12.00" text-anchor="start">
		<text><tspan font-family="Helvetica"> 0.01</tspan></text>
	</g>
</g>
<g fill="none" color="black" stroke="currentColor" stroke-width="1.00" stroke-linecap="butt" stroke-linejoin="miter">
	<path stroke="black" d="M995.6,540.7 L986.6,540.7  "/>	<g transform="translate(1003.9,544.6)" stroke="none" fill="black" font-family="Helvetica" font-size="12.00" text-anchor="start">
		<text><tspan font-family="Helvetica"> 0.02</tspan></text>
	</g>
</g>
<g fill="none" color="black" stroke="currentColor" stroke-width="1.00" stroke-linecap="butt" stroke-linejoin="miter">
	<path stroke="black" d="M995.6,479.9 L986.6,479.9  "/>	<g transform="translate(1003.9,483.8)" stroke="none" fill="black" font-family="Helvetica" font-size="12.00" text-anchor="start">
		<text><tspan font-family="Helvetica"> 0.03</tspan></text>
	</g>
</g>
<g fill="none" color="black" stroke="currentColor" stroke-width="1.00" stroke-linecap="butt" stroke-linejoin="miter">
	<path stroke="black" d="M995.6,419.1 L986.6,419.1  "/>	<g transform="translate(1003.9,423.0)" stroke="none" fill="black" font-family="Helvetica" font-size="12.00" text-anchor="start">
		<text><tspan font-family="Helvetica"> 0.04</tspan></text>
	</g>
</g>
<g fill="none" color="black" stroke="currentColor" stroke-width="1.00" stroke-linecap="butt" stroke-linejoin="miter">
	<path stroke="black" d="M995.6,358.2 L986.6,358.2  "/>	<g transform="translate(1003.9,362.1)" stroke="none" fill="black" font-family="Helvetica" font-size="12.00" text-anchor="start">
		<text><tspan font-family="Helvetica"> 0.05</tspan></text>
	</g>
</g>
<g fill="none" color="black" stroke="currentColor" stroke-width="1.00" stroke-linecap="butt" stroke-linejoin="miter">
	<path stroke="black" d="M995.6,297.4 L986.6,297.4  "/>	<g transform="translate(1003.9,301.3)" stroke="none" fill="black" font-family="Helvetica" font-size="12.00" text-anchor="start">
		<text><tspan font-family="Helvetica"> 0.06</tspan></text>
	</g>
</g>
<g fill="none" color="black" stroke="currentColor" stroke-width="1.00" stroke-linecap="butt" stroke-linejoin="miter">
	<path stroke="black" d="M995.6,236.6 L986.6,236.6  "/>	<g transform="translate(1003.9,240.5)" stroke="none" fill="black" font-family="Helvetica" font-size="12.00" text-anchor="start">
		<text><tspan font-family="Helvetica"> 0.07</tspan></text>
	</g>
</g>
<g fill="none" color="black" stroke="currentColor" stroke-width="1.00" stroke-linecap="butt" stroke-linejoin="miter">
	<path stroke="black" d="M995.6,175.8 L986.6,175.8  "/>	<g transform="translate(1003.9,179.7)" stroke="none" fill="black" font-family="Helvetica" font-size="12.00" text-anchor="start">
		<text><tspan font-family="Helvetica"> 0.08</tspan></text>
	</g>
</g>
<g fill="none" color="black" stroke="currentColor" stroke-width="1.00" stroke-linecap="butt" stroke-linejoin="miter">
	<path stroke="black" d="M995.6,114.9 L986.6,114.9  "/>	<g transform="translate(1003.9,118.8)" stroke="none" fill="black" font-family="Helvetica" font-size="12.00" text-anchor="start">
		<text><tspan font-family="Helvetica"> 0.09</tspan></text>
	</g>
</g>
<g fill="none" color="black" stroke="currentColor" stroke-width="1.00" stroke-linecap="butt" stroke-linejoin="miter">
	<path stroke="black" d="M995.6,54.1 L986.6,54.1  "/>	<g transform="translate(1003.9,58.0)" stroke="none" fill="black" font-family="Helvetica" font-size="12.00" text-anchor="start">
		<text><tspan font-family="Helvetica"> 0.1</tspan></text>
	</g>
</g>
<g fill="none" color="black" stroke="currentColor" stroke-width="1.00" stroke-linecap="butt" stroke-linejoin="miter">
</g>
<g fill="none" color="black" stroke="currentColor" stroke-width="1.00" stroke-linecap="butt" stroke-linejoin="miter">
	<path stroke="black" d="M71.9,54.1 L71.9,662.4 L995.6,662.4 L995.6,54.1 L71.9,54.1 Z  "/></g>
<g fill="none" color="black" stroke="currentColor" stroke-width="1.00" stroke-linecap="butt" stroke-linejoin="miter">
	<g transform="translate(16.3,358.3) rotate(270)" stroke="none" fill="black" font-family="Helvetica" font-size="12.00" text-anchor="middle">
		<text><tspan font-family="Helvetica">Iterations</tspan></text>
	</g>
</g>
<g fill="none" color="black" stroke="currentColor" stroke-width="1.00" stroke-linecap="butt" stroke-linejoin="miter">
	<g transform="translate(1074.2,358.3) rotate(270)" stroke="none" fill="black" font-family="Helvetica" font-size="12.00" text-anchor="middle">
		<text><tspan font-family="Helvetica">Density (a.u.)</tspan></text>
	</g>
</g>
<g fill="none" color="black" stroke="currentColor" stroke-width="1.00" stroke-linecap="butt" stroke-linejoin="miter">
	<g transform="translate(533.7,711.3)" stroke="none" fill="black" font-family="Helvetica" font-size="12.00" text-anchor="middle">
		<text><tspan font-family="Helvetica">Average time (us)</tspan></text>
	</g>
</g>
<g fill="none" color="black" stroke="currentColor" stroke-width="1.00" stroke-linecap="butt" stroke-linejoin="miter">
	<g transform="translate(533.7,31.0)" stroke="none" fill="black" font-family="Helvetica" font-size="12.00" text-anchor="middle">
		<text><tspan font-family="Helvetica">Problem 7/p7_tail_recursive/11111111111111111111</tspan></text>
	</g>
</g>
	<g id="gnuplot_plot_1"><title>PDF</title>
<g fill="none" color="black" stroke="currentColor" stroke-width="1.00" stroke-linecap="butt" stroke-linejoin="miter">
	<g transform="translate(1147.1,67.0)" stroke="none" fill="black" font-family="Helvetica" font-size="12.00" text-anchor="start">
		<text><tspan font-family="Helvetica">PDF</tspan></text>
	</g>
</g>
<g fill="none" color="black" stroke="currentColor" stroke-width="1.00" stroke-linecap="butt" stroke-linejoin="miter">
	<g stroke="none" shape-rendering="crispEdges">
		<polygon fill="rgb( 31, 120, 180)" fill-opacity="0.250000" points="1096.6,67.6 1138.8,67.6 1138.8,58.6 1096.6,58.6 "/>
		<polygon fill="rgb( 31, 120, 180)" fill-opacity="0.250000" points="71.9,661.6 73.8,661.5 75.6,661.4 77.5,661.3 79.3,661.1 81.2,660.9 83.0,660.7 84.9,660.5 86.7,660.2 88.6,659.9 90.4,659.6 92.3,659.2 94.1,658.8 96.0,658.3 97.8,657.8 99.7,657.2 101.5,656.6 103.4,655.9 105.2,655.1 107.1,654.3 108.9,653.3 110.8,652.3 112.6,651.2 114.5,649.9 116.3,648.5 118.2,647.1 120.0,645.4 121.9,643.7 123.7,641.7 125.6,639.7 127.4,637.4 129.3,634.9 131.1,632.3 133.0,629.5 134.8,626.4 136.7,623.1 138.5,619.6 140.4,615.8 142.2,611.8 144.1,607.5 145.9,602.9 147.8,598.1 149.6,592.9 151.5,587.5 153.3,581.7 155.2,575.6 157.1,569.2 158.9,562.5 160.8,555.4 162.6,548.0 164.5,540.2 166.3,532.2 168.2,523.8 170.0,515.0 171.9,506.0 173.7,496.6 175.6,486.9 177.4,476.9 179.3,466.6 181.1,456.1 183.0,445.3 184.8,434.2 186.7,422.9 188.5,411.5 190.4,399.8 192.2,388.0 194.1,376.0 195.9,363.9 197.8,351.8 199.6,339.6 201.5,327.4 203.3,315.2 205.2,303.0 207.0,291.0 208.9,279.0 210.7,267.2 212.6,255.5 214.4,244.1 216.3,232.8 218.1,221.9 220.0,211.3 221.8,201.0 223.7,191.0 225.5,181.4 227.4,172.3 229.2,163.6 231.1,155.3 232.9,147.5 234.8,140.2 236.6,133.4 238.5,127.2 240.4,121.5 242.2,116.3 244.1,111.6 245.9,107.5 247.8,104.0 249.6,101.0 251.5,98.5 253.3,96.6 255.2,95.2 257.0,94.3 258.9,93.9 260.7,94.0 262.6,94.6 264.4,95.6 266.3,97.0 268.1,98.9 270.0,101.1 271.8,103.7 273.7,106.6 275.5,109.9 277.4,113.4 279.2,117.2 281.1,121.2 282.9,125.5 284.8,129.9 286.6,134.4 288.5,139.2 290.3,144.0 292.2,148.9 294.0,153.9 295.9,158.9 297.7,164.0 299.6,169.0 301.4,174.1 303.3,179.1 305.1,184.1 307.0,189.0 308.8,193.9 310.7,198.7 312.5,203.4 314.4,208.1 316.2,212.6 318.1,217.0 319.9,221.3 321.8,225.5 323.6,229.6 325.5,233.6 327.4,237.4 329.2,241.2 331.1,244.8 332.9,248.3 334.8,251.8 336.6,255.1 338.5,258.3 340.3,261.4 342.2,264.4 344.0,267.4 345.9,270.3 347.7,273.1 349.6,275.8 351.4,278.5 353.3,281.2 355.1,283.8 357.0,286.4 358.8,289.0 360.7,291.5 362.5,294.1 364.4,296.6 366.2,299.2 368.1,301.8 369.9,304.4 371.8,307.0 373.6,309.7 375.5,312.4 377.3,315.1 379.2,318.0 381.0,320.8 382.9,323.8 384.7,326.8 386.6,329.9 388.4,333.0 390.3,336.3 392.1,339.6 394.0,343.0 395.8,346.5 397.7,350.0 399.5,353.7 401.4,357.4 403.2,361.2 405.1,365.1 406.9,369.0 408.8,373.0 410.7,377.1 412.5,381.2 414.4,385.4 416.2,389.7 418.1,394.0 419.9,398.3 421.8,402.7 423.6,407.1 425.5,411.5 427.3,416.0 429.2,420.4 431.0,424.9 432.9,429.3 434.7,433.8 436.6,438.2 438.4,442.6 440.3,447.0 442.1,451.3 444.0,455.6 445.8,459.9 447.7,464.1 449.5,468.2 451.4,472.3 453.2,476.3 455.1,480.3 456.9,484.1 458.8,487.9 460.6,491.7 462.5,495.3 464.3,498.8 466.2,502.3 468.0,505.6 469.9,508.9 471.7,512.1 473.6,515.2 475.4,518.2 477.3,521.1 479.1,524.0 481.0,526.7 482.8,529.4 484.7,531.9 486.5,534.4 488.4,536.8 490.2,539.2 492.1,541.4 494.0,543.6 495.8,545.7 497.7,547.8 499.5,549.8 501.4,551.7 503.2,553.6 505.1,555.4 506.9,557.2 508.8,558.9 510.6,560.6 512.5,562.2 514.3,563.8 516.2,565.4 518.0,567.0 519.9,568.5 521.7,570.0 523.6,571.5 525.4,573.0 527.3,574.4 529.1,575.9 531.0,577.3 532.8,578.7 534.7,580.1 536.5,581.5 538.4,582.9 540.2,584.3 542.1,585.7 543.9,587.1 545.8,588.5 547.6,589.9 549.5,591.3 551.3,592.7 553.2,594.0 555.0,595.4 556.9,596.8 558.7,598.1 560.6,599.5 562.4,600.9 564.3,602.2 566.1,603.5 568.0,604.9 569.8,606.2 571.7,607.5 573.5,608.8 575.4,610.1 577.3,611.4 579.1,612.6 581.0,613.9 582.8,615.1 584.7,616.3 586.5,617.5 588.4,618.7 590.2,619.8 592.1,621.0 593.9,622.1 595.8,623.2 597.6,624.3 599.5,625.4 601.3,626.4 603.2,627.5 605.0,628.5 606.9,629.5 608.7,630.4 610.6,631.4 612.4,632.3 614.3,633.3 616.1,634.2 618.0,635.0 619.8,635.9 621.7,636.8 623.5,637.6 625.4,638.4 627.2,639.2 629.1,640.0 630.9,640.8 632.8,641.6 634.6,642.3 636.5,643.0 638.3,643.8 640.2,644.5 642.0,645.2 643.9,645.8 645.7,646.5 647.6,647.2 649.4,647.8 651.3,648.4 653.1,649.0 655.0,649.6 656.8,650.2 658.7,650.8 660.6,651.3 662.4,651.8 664.3,652.4 666.1,652.9 668.0,653.3 669.8,653.8 671.7,654.3 673.5,654.7 675.4,655.2 677.2,655.6 679.1,656.0 680.9,656.3 682.8,656.7 684.6,657.1 686.5,657.4 688.3,657.7 690.2,658.0 692.0,658.3 693.9,658.6 695.7,658.8 697.6,659.1 699.4,659.3 701.3,659.5 703.1,659.7 705.0,659.9 706.8,660.1 708.7,660.3 710.5,660.5 712.4,660.6 714.2,660.7 716.1,660.9 717.9,661.0 719.8,661.1 721.6,661.2 723.5,661.3 725.3,661.3 727.2,661.4 729.0,661.5 730.9,661.5 732.7,661.5 734.6,661.6 736.4,661.6 738.3,661.6 740.1,661.6 742.0,661.6 743.9,661.6 745.7,661.6 747.6,661.6 749.4,661.6 751.3,661.5 753.1,661.5 755.0,661.4 756.8,661.4 758.7,661.3 760.5,661.2 762.4,661.1 764.2,661.1 766.1,661.0 767.9,660.8 769.8,660.7 771.6,660.6 773.5,660.5 775.3,660.3 777.2,660.2 779.0,660.0 780.9,659.8 782.7,659.7 784.6,659.5 786.4,659.3 788.3,659.1 790.1,658.8 792.0,658.6 793.8,658.4 795.7,658.1 797.5,657.9 799.4,657.6 801.2,657.4 803.1,657.1 804.9,656.9 806.8,656.6 808.6,656.3 810.5,656.0 812.3,655.7 814.2,655.5 816.0,655.2 817.9,654.9 819.7,654.6 821.6,654.3 823.4,654.1 825.3,653.8 827.1,653.5 829.0,653.3 830.9,653.0 832.7,652.8 834.6,652.6 836.4,652.3 838.3,652.1 840.1,651.9 842.0,651.8 843.8,651.6 845.7,651.5 847.5,651.3 849.4,651.2 851.2,651.1 853.1,651.1 854.9,651.0 856.8,651.0 858.6,650.9 860.5,650.9 862.3,651.0 864.2,651.0 866.0,651.1 867.9,651.1 869.7,651.2 871.6,651.3 873.4,651.5 875.3,651.6 877.1,651.8 879.0,651.9 880.8,652.1 882.7,652.3 884.5,652.5 886.4,652.8 888.2,653.0 890.1,653.3 891.9,653.5 893.8,653.8 895.6,654.0 897.5,654.3 899.3,654.6 901.2,654.9 903.0,655.2 904.9,655.4 906.7,655.7 908.6,656.0 910.4,656.3 912.3,656.6 914.2,656.8 916.0,657.1 917.9,657.4 919.7,657.6 921.6,657.9 923.4,658.1 925.3,658.4 927.1,658.6 929.0,658.8 930.8,659.1 932.7,659.3 934.5,659.5 936.4,659.7 938.2,659.9 940.1,660.0 941.9,660.2 943.8,660.4 945.6,660.5 947.5,660.6 949.3,660.8 951.2,660.9 953.0,661.0 954.9,661.1 956.7,661.2 958.6,661.3 960.4,661.4 962.3,661.5 964.1,661.6 966.0,661.7 967.8,661.7 969.7,661.8 971.5,661.9 973.4,661.9 975.2,662.0 977.1,662.0 978.9,662.0 980.8,662.1 982.6,662.1 984.5,662.1 986.3,662.2 988.2,662.2 990.0,662.2 991.9,662.2 993.7,662.3 995.6,662.3 995.6,662.4 993.7,662.4 991.9,662.4 990.0,662.4 988.2,662.4 986.3,662.4 984.5,662.4 982.6,662.4 980.8,662.4 978.9,662.4 977.1,662.4 975.2,662.4 973.4,662.4 971.5,662.4 969.7,662.4 967.8,662.4 966.0,662.4 964.1,662.4 962.3,662.4 960.4,662.4 958.6,662.4 956.7,662.4 954.9,662.4 953.0,662.4 951.2,662.4 949.3,662.4 947.5,662.4 945.6,662.4 943.8,662.4 941.9,662.4 940.1,662.4 938.2,662.4 936.4,662.4 934.5,662.4 932.7,662.4 930.8,662.4 929.0,662.4 927.1,662.4 925.3,662.4 923.4,662.4 921.6,662.4 919.7,662.4 917.9,662.4 916.0,662.4 914.2,662.4 912.3,662.4 910.4,662.4 908.6,662.4 906.7,662.4 904.9,662.4 903.0,662.4 901.2,662.4 899.3,662.4 897.5,662.4 895.6,662.4 893.8,662.4 891.9,662.4 890.1,662.4 888.2,662.4 886.4,662.4 884.5,662.4 882.7,662.4 880.8,662.4 879.0,662.4 877.1,662.4 875.3,662.4 873.4,662.4 871.6,662.4 869.7,662.4 867.9,662.4 866.0,662.4 864.2,662.4 862.3,662.4 860.5,662.4 858.6,662.4 856.8,662.4 854.9,662.4 853.1,662.4 851.2,662.4 849.4,662.4 847.5,662.4 845.7,662.4 843.8,662.4 842.0,662.4 840.1,662.4 838.3,662.4 836.4,662.4 834.6,662.4 832.7,662.4 830.9,662.4 829.0,662.4 827.1,662.4 825.3,662.4 823.4,662.4 821.6,662.4 819.7,662.4 817.9,662.4 816.0,662.4 814.2,662.4 812.3,662.4 810.5,662.4 808.6,662.4 806.8,662.4 804.9,662.4 803.1,662.4 801.2,662.4 799.4,662.4 797.5,662.4 795.7,662.4 793.8,662.4 792.0,662.4 790.1,662.4 788.3,662.4 786.4,662.4 784.6,662.4 782.7,662.4 780.9,662.4 779.0,662.4 777.2,662.4 775.3,662.4 773.5,662.4 771.6,662.4 769.8,662.4 767.9,662.4 766.1,662.4 764.2,662.4 762.4,662.4 760.5,662.4 758.7,662.4 756.8,662.4 755.0,662.4 753.1,662.4 751.3,662.4 749.4,662.4 747.6,662.4 745.7,662.4 743.9,662.4 742.0,662.4 740.1,662.4 738.3,662.4 736.4,662.4 734.6,662.4 732.7,662.4 730.9,662.4 729.0,662.4 727.2,662.4 725.3,662.4 723.5,662.4 721.6,662.4 719.8,662.4 717.9,662.4 716.1,662.4 714.2,662.4 712.4,662.4 710.5,662.4 708.7,662.4 706.8,662.4 705.0,662.4 703.1,662.4 701.3,662.4 699.4,662.4 697.6,662.4 695.7,662.4 693.9,662.4 692.0,662.4 690.2,662.4 688.3,662.4 686.5,662.4 684.6,662.4 682.8,662.4 680.9,662.4 679.1,662.4 677.2,662.4 675.4,662.4 673.5,662.4 671.7,662.4 669.8,662.4 668.0,662.4 666.1,662.4 664.3,662.4 662.4,662.4 660.6,662.4 658.7,662.4 656.8,662.4 655.0,662.4 653.1,662.4 651.3,662.4 649.4,662.4 647.6,662.4 645.7,662.4 643.9,662.4 642.0,662.4 640.2,662.4 638.3,662.4 636.5,662.4 634.6,662.4 632.8,662.4 630.9,662.4 629.1,662.4 627.2,662.4 625.4,662.4 623.5,662.4 621.7,662.4 619.8,662.4 618.0,662.4 616.1,662.4 614.3,662.4 612.4,662.4 610.6,662.4 608.7,662.4 606.9,662.4 605.0,662.4 603.2,662.4 601.3,662.4 599.5,662.4 597.6,662.4 595.8,662.4 593.9,662.4 592.1,662.4 590.2,662.4 588.4,662.4 586.5,662.4 584.7,662.4 582.8,662.4 581.0,662.4 579.1,662.4 577.3,662.4 575.4,662.4 573.5,662.4 571.7,662.4 569.8,662.4 568.0,662.4 566.1,662.4 564.3,662.4 562.4,662.4 560.6,662.4 558.7,662.4 556.9,662.4 555.0,662.4 553.2,662.4 551.3,662.4 549.5,662.4 547.6,662.4 545.8,662.4 543.9,662.4 542.1,662.4 540.2,662.4 538.4,662.4 536.5,662.4 534.7,662.4 532.8,662.4 531.0,662.4 529.1,662.4 527.3,662.4 525.4,662.4 523.6,662.4 521.7,662.4 519.9,662.4 518.0,662.4 516.2,662.4 514.3,662.4 512.5,662.4 510.6,662.4 508.8,662.4 506.9,662.4 505.1,662.4 503.2,662.4 501.4,662.4 499.5,662.4 497.7,662.4 495.8,662.4 494.0,662.4 492.1,662.4 490.2,662.4 488.4,662.4 486.5,662.4 484.7,662.4 482.8,662.4 481.0,662.4 479.1,662.4 477.3,662.4 475.4,662.4 473.6,662.4 471.7,662.4 469.9,662.4 468.0,662.4 466.2,662.4 464.3,662.4 462.5,662.4 460.6,662.4 458.8,662.4 456.9,662.4 455.1,662.4 453.2,662.4 451.4,662.4 449.5,662.4 447.7,662.4 445.8,662.4 444.0,662.4 442.1,662.4 440.3,662.4 438.4,662.4 436.6,662.4 434.7,662.4 432.9,662.4 431.0,662.4 429.2,662.4 427.3,662.4 425.5,662.4 423.6,662.4 421.8,662.4 419.9,662.4 418.1,662.4 416.2,662.4 414.4,662.4 412.5,662.4 410.7,662.4 408.8,662.4 406.9,662.4 405.1,662.4 403.2,662.4 401.4,662.4 399.5,662.4 397.7,662.4 395.8,662.4 394.0,662.4 392.1,662.4 390.3,662.4 388.4,662.4 386.6,662.4 384.7,662.4 382.9,662.4 381.0,662.4 379.2,662.4 377.3,662.4 375.5,662.4 373.6,662.4 371.8,662.4 369.9,662.4 368.1,662.4 366.2,662.4 364.4,662.4 362.5,662.4 360.7,662.4 358.8,662.4 357.0,662.4 355.1,662.4 353.3,662.4 351.4,662.4 349.6,662.4 347.7,662.4 345.9,662.4 344.0,662.4 342.2,662.4 340.3,662.4 338.5,662.4 336.6,662.4 334.8,662.4 332.9,662.4 331.1,662.4 329.2,662.4 327.4,662.4 325.5,662.4 323.6,662.4 321.8,662.4 319.9,662.4 318.1,662.4 316.2,662.4 314.4,662.4 312.5,662.4 310.7,662.4 308.8,662.4 307.0,662.4 305.1,662.4 303.3,662.4 301.4,662.4 299.6,662.4 297.7,662.4 295.9,662.4 294.0,662.4 292.2,662.4 290.3,662.4 288.5,662.4 286.6,662.4 284.8,662.4 282.9,662.4 281.1,662.4 279.2,662.4 277.4,662.4 275.5,662.4 273.7,662.4 271.8,662.4 270.0,662.4 268.1,662.4 266.3,662.4 264.4,662.4 262.6,662.4 260.7,662.4 258.9,662.4 257.0,662.4 255.2,662.4 253.3,662.4 251.5,662.4 249.6,662.4 247.8,662.4 245.9,662.4 244.1,662.4 242.2,662.4 240.4,662.4 238.5,662.4 236.6,662.4 234.8,662.4 232.9,662.4 231.1,662.4 229.2,662.4 227.4,662.4 225.5,662.4 223.7,662.4 221.8,662.4 220.0,662.4 218.1,662.4 216.3,662.4 214.4,662.4 212.6,662.4 210.7,662.4 208.9,662.4 207.0,662.4 205.2,662.4 203.3,662.4 201.5,662.4 199.6,662.4 197.8,662.4 195.9,662.4 194.1,662.4 192.2,662.4 190.4,662.4 188.5,662.4 186.7,662.4 184.8,662.4 183.0,662.4 181.1,662.4 179.3,662.4 177.4,662.4 175.6,662.4 173.7,662.4 171.9,662.4 170.0,662.4 168.2,662.4 166.3,662.4 164.5,662.4 162.6,662.4 160.8,662.4 158.9,662.4 157.1,662.4 155.2,662.4 153.3,662.4 151.5,662.4 149.6,662.4 147.8,662.4 145.9,662.4 144.1,662.4 142.2,662.4 140.4,662.4 138.5,662.4 136.7,662.4 134.8,662.4 133.0,662.4 131.1,662.4 129.3,662.4 127.4,662.4 125.6,662.4 123.7,662.4 121.9,662.4 120.0,662.4 118.2,662.4 116.3,662.4 114.5,662.4 112.6,662.4 110.8,662.4 108.9,662.4 107.1,662.4 105.2,662.4 103.4,662.4 101.5,662.4 99.7,662.4 97.8,662.4 96.0,662.4 94.1,662.4 92.3,662.4 90.4,662.4 88.6,662.4 86.7,662.4 84.9,662.4 83.0,662.4 81.2,662.4 79.3,662.4 77.5,662.4 75.6,662.4 73.8,662.4 71.9,662.4 "/>
	</g>
</g>
	</g>
	<g id="gnuplot_plot_2"><title>Mean</title>
<g fill="none" color="white" stroke="rgb( 31, 120, 180)" stroke-width="2.00" stroke-linecap="butt" stroke-linejoin="miter">
</g>
<g fill="none" color="black" stroke="currentColor" stroke-width="2.00" stroke-linecap="butt" stroke-linejoin="miter">
	<g transform="translate(1147.1,85.0)" stroke="none" fill="black" font-family="Helvetica" font-size="12.00" text-anchor="start">
		<text><tspan font-family="Helvetica">Mean</tspan></text>
	</g>
</g>
<g fill="none" color="black" stroke="currentColor" stroke-width="2.00" stroke-linecap="butt" stroke-linejoin="miter">
	<path stroke="rgb( 31, 120, 180)" d="M1096.6,81.1 L1138.8,81.1 M330.2,662.4 L330.2,54.1  "/></g>
	</g>
	<g id="gnuplot_plot_3"><title>"Clean" sample</title>
<g fill="none" color="white" stroke="rgb( 31, 120, 180)" stroke-width="1.00" stroke-linecap="butt" stroke-linejoin="miter">
</g>
<g fill="none" color="black" stroke="currentColor" stroke-width="1.00" stroke-linecap="butt" stroke-linejoin="miter">
	<g transform="translate(1147.1,103.0)" stroke="none" fill="black" font-family="Helvetica" font-size="12.00" text-anchor="start">
		<text><tspan font-family="Helvetica">"Clean" sample</tspan></text>
	</g>
</g>
<g fill="none" color="black" stroke="currentColor" stroke-width="1.00" stroke-linecap="butt" stroke-linejoin="miter">
	<use xlink:href="#gpPt6" transform="translate(324.3,656.3) scale(3.38)" color="rgb( 31, 120, 180)"/>
	<use xlink:href="#gpPt6" transform="translate(315.4,650.2) scale(3.38)" color="rgb( 31, 120, 180)"/>
	<use xlink:href="#gpPt6" transform="translate(307.9,644.2) scale(3.38)" color="rgb( 31, 120, 180)"/>
	<use xlink:href="#gpPt6" transform="translate(329.5,638.1) scale(3.38)" color="rgb( 31, 120, 180)"/>
	<use xlink:href="#gpPt6" transform="translate(262.9,632.0) scale(3.38)" color="rgb( 31, 120, 180)"/>
	<use xlink:href="#gpPt6" transform="translate(216.3,625.9) scale(3.38)" color="rgb( 31, 120, 180)"/>
	<use xlink:href="#gpPt6" transform="translate(239.7,619.8) scale(3.38)" color="rgb( 31, 120, 180)"/>
	<use xlink:href="#gpPt6" transform="translate(251.0,613.7) scale(3.38)" color="rgb( 31, 120, 180)"/>
	<use xlink:href="#gpPt6" transform="translate(240.6,607.7) scale(3.38)" color="rgb( 31, 120, 180)"/>
	<use xlink:href="#gpPt6" transform="translate(250.7,601.6) scale(3.38)" color="rgb( 31, 120, 180)"/>
	<use xlink:href="#gpPt6" transform="translate(265.1,595.5) scale(3.38)" color="rgb( 31, 120, 180)"/>
	<use xlink:href="#gpPt6" transform="translate(282.0,589.4) scale(3.38)" color="rgb( 31, 120, 180)"/>
	<use xlink:href="#gpPt6" transform="translate(319.9,583.3) scale(3.38)" color="rgb( 31, 120, 180)"/>
	<use xlink:href="#gpPt6" transform="translate(374.1,577.2) scale(3.38)" color="rgb( 31, 120, 180)"/>
	<use xlink:href="#gpPt6" transform="translate(383.1,571.2) scale(3.38)" color="rgb( 31, 120, 180)"/>
	<use xlink:href="#gpPt6" transform="translate(371.9,565.1) scale(3.38)" color="rgb( 31, 120, 180)"/>
	<use xlink:href="#gpPt6" transform="translate(450.6,559.0) scale(3.38)" color="rgb( 31, 120, 180)"/>
	<use xlink:href="#gpPt6" transform="translate(398.3,552.9) scale(3.38)" color="rgb( 31, 120, 180)"/>
	<use xlink:href="#gpPt6" transform="translate(385.8,546.8) scale(3.38)" color="rgb( 31, 120, 180)"/>
	<use xlink:href="#gpPt6" transform="translate(374.7,540.7) scale(3.38)" color="rgb( 31, 120, 180)"/>
	<use xlink:href="#gpPt6" transform="translate(291.3,534.7) scale(3.38)" color="rgb( 31, 120, 180)"/>
	<use xlink:href="#gpPt6" transform="translate(232.6,528.6) scale(3.38)" color="rgb( 31, 120, 180)"/>
	<use xlink:href="#gpPt6" transform="translate(233.5,522.5) scale(3.38)" color="rgb( 31, 120, 180)"/>
	<use xlink:href="#gpPt6" transform="translate(281.2,516.4) scale(3.38)" color="rgb( 31, 120, 180)"/>
	<use xlink:href="#gpPt6" transform="translate(239.3,510.3) scale(3.38)" color="rgb( 31, 120, 180)"/>
	<use xlink:href="#gpPt6" transform="translate(251.0,504.2) scale(3.38)" color="rgb( 31, 120, 180)"/>
	<use xlink:href="#gpPt6" transform="translate(402.9,498.2) scale(3.38)" color="rgb( 31, 120, 180)"/>
	<use xlink:href="#gpPt6" transform="translate(232.5,492.1) scale(3.38)" color="rgb( 31, 120, 180)"/>
	<use xlink:href="#gpPt6" transform="translate(267.5,486.0) scale(3.38)" color="rgb( 31, 120, 180)"/>
	<use xlink:href="#gpPt6" transform="translate(237.8,479.9) scale(3.38)" color="rgb( 31, 120, 180)"/>
	<use xlink:href="#gpPt6" transform="translate(222.5,473.8) scale(3.38)" color="rgb( 31, 120, 180)"/>
	<use xlink:href="#gpPt6" transform="translate(325.0,467.7) scale(3.38)" color="rgb( 31, 120, 180)"/>
	<use xlink:href="#gpPt6" transform="translate(382.1,461.7) scale(3.38)" color="rgb( 31, 120, 180)"/>
	<use xlink:href="#gpPt6" transform="translate(415.8,455.6) scale(3.38)" color="rgb( 31, 120, 180)"/>
	<use xlink:href="#gpPt6" transform="translate(402.9,449.5) scale(3.38)" color="rgb( 31, 120, 180)"/>
	<use xlink:href="#gpPt6" transform="translate(334.2,443.4) scale(3.38)" color="rgb( 31, 120, 180)"/>
	<use xlink:href="#gpPt6" transform="translate(215.1,437.3) scale(3.38)" color="rgb( 31, 120, 180)"/>
	<use xlink:href="#gpPt6" transform="translate(269.7,431.2) scale(3.38)" color="rgb( 31, 120, 180)"/>
	<use xlink:href="#gpPt6" transform="translate(283.1,425.2) scale(3.38)" color="rgb( 31, 120, 180)"/>
	<use xlink:href="#gpPt6" transform="translate(237.4,419.1) scale(3.38)" color="rgb( 31, 120, 180)"/>
	<use xlink:href="#gpPt6" transform="translate(246.7,413.0) scale(3.38)" color="rgb( 31, 120, 180)"/>
	<use xlink:href="#gpPt6" transform="translate(235.5,406.9) scale(3.38)" color="rgb( 31, 120, 180)"/>
	<use xlink:href="#gpPt6" transform="translate(309.0,400.8) scale(3.38)" color="rgb( 31, 120, 180)"/>
	<use xlink:href="#gpPt6" transform="translate(363.3,394.7) scale(3.38)" color="rgb( 31, 120, 180)"/>
	<use xlink:href="#gpPt6" transform="translate(404.8,388.7) scale(3.38)" color="rgb( 31, 120, 180)"/>
	<use xlink:href="#gpPt6" transform="translate(317.5,382.6) scale(3.38)" color="rgb( 31, 120, 180)"/>
	<use xlink:href="#gpPt6" transform="translate(259.2,376.5) scale(3.38)" color="rgb( 31, 120, 180)"/>
	<use xlink:href="#gpPt6" transform="translate(526.1,370.4) scale(3.38)" color="rgb( 31, 120, 180)"/>
	<use xlink:href="#gpPt6" transform="translate(235.9,364.3) scale(3.38)" color="rgb( 31, 120, 180)"/>
	<use xlink:href="#gpPt6" transform="translate(247.6,358.2) scale(3.38)" color="rgb( 31, 120, 180)"/>
	<use xlink:href="#gpPt6" transform="translate(256.5,352.2) scale(3.38)" color="rgb( 31, 120, 180)"/>
	<use xlink:href="#gpPt6" transform="translate(303.9,346.1) scale(3.38)" color="rgb( 31, 120, 180)"/>
	<use xlink:href="#gpPt6" transform="translate(536.2,340.0) scale(3.38)" color="rgb( 31, 120, 180)"/>
	<use xlink:href="#gpPt6" transform="translate(525.4,333.9) scale(3.38)" color="rgb( 31, 120, 180)"/>
	<use xlink:href="#gpPt6" transform="translate(244.8,327.8) scale(3.38)" color="rgb( 31, 120, 180)"/>
	<use xlink:href="#gpPt6" transform="translate(278.9,321.8) scale(3.38)" color="rgb( 31, 120, 180)"/>
	<use xlink:href="#gpPt6" transform="translate(227.4,315.7) scale(3.38)" color="rgb( 31, 120, 180)"/>
	<use xlink:href="#gpPt6" transform="translate(324.1,309.6) scale(3.38)" color="rgb( 31, 120, 180)"/>
	<use xlink:href="#gpPt6" transform="translate(379.2,303.5) scale(3.38)" color="rgb( 31, 120, 180)"/>
	<use xlink:href="#gpPt6" transform="translate(456.9,297.4) scale(3.38)" color="rgb( 31, 120, 180)"/>
	<use xlink:href="#gpPt6" transform="translate(538.7,291.3) scale(3.38)" color="rgb( 31, 120, 180)"/>
	<use xlink:href="#gpPt6" transform="translate(476.6,279.2) scale(3.38)" color="rgb( 31, 120, 180)"/>
	<use xlink:href="#gpPt6" transform="translate(333.4,273.1) scale(3.38)" color="rgb( 31, 120, 180)"/>
	<use xlink:href="#gpPt6" transform="translate(426.9,267.0) scale(3.38)" color="rgb( 31, 120, 180)"/>
	<use xlink:href="#gpPt6" transform="translate(340.3,260.9) scale(3.38)" color="rgb( 31, 120, 180)"/>
	<use xlink:href="#gpPt6" transform="translate(412.3,254.8) scale(3.38)" color="rgb( 31, 120, 180)"/>
	<use xlink:href="#gpPt6" transform="translate(379.5,248.8) scale(3.38)" color="rgb( 31, 120, 180)"/>
	<use xlink:href="#gpPt6" transform="translate(216.0,242.7) scale(3.38)" color="rgb( 31, 120, 180)"/>
	<use xlink:href="#gpPt6" transform="translate(243.5,236.6) scale(3.38)" color="rgb( 31, 120, 180)"/>
	<use xlink:href="#gpPt6" transform="translate(232.5,230.5) scale(3.38)" color="rgb( 31, 120, 180)"/>
	<use xlink:href="#gpPt6" transform="translate(247.9,224.4) scale(3.38)" color="rgb( 31, 120, 180)"/>
	<use xlink:href="#gpPt6" transform="translate(422.5,218.3) scale(3.38)" color="rgb( 31, 120, 180)"/>
	<use xlink:href="#gpPt6" transform="translate(260.1,206.2) scale(3.38)" color="rgb( 31, 120, 180)"/>
	<use xlink:href="#gpPt6" transform="translate(376.9,200.1) scale(3.38)" color="rgb( 31, 120, 180)"/>
	<use xlink:href="#gpPt6" transform="translate(372.2,194.0) scale(3.38)" color="rgb( 31, 120, 180)"/>
	<use xlink:href="#gpPt6" transform="translate(312.8,187.9) scale(3.38)" color="rgb( 31, 120, 180)"/>
	<use xlink:href="#gpPt6" transform="translate(427.7,181.8) scale(3.38)" color="rgb( 31, 120, 180)"/>
	<use xlink:href="#gpPt6" transform="translate(340.4,175.8) scale(3.38)" color="rgb( 31, 120, 180)"/>
	<use xlink:href="#gpPt6" transform="translate(246.9,169.7) scale(3.38)" color="rgb( 31, 120, 180)"/>
	<use xlink:href="#gpPt6" transform="translate(234.8,163.6) scale(3.38)" color="rgb( 31, 120, 180)"/>
	<use xlink:href="#gpPt6" transform="translate(244.6,157.5) scale(3.38)" color="rgb( 31, 120, 180)"/>
	<use xlink:href="#gpPt6" transform="translate(578.4,151.4) scale(3.38)" color="rgb( 31, 120, 180)"/>
	<use xlink:href="#gpPt6" transform="translate(325.6,145.3) scale(3.38)" color="rgb( 31, 120, 180)"/>
	<use xlink:href="#gpPt6" transform="translate(247.0,139.3) scale(3.38)" color="rgb( 31, 120, 180)"/>
	<use xlink:href="#gpPt6" transform="translate(238.0,133.2) scale(3.38)" color="rgb( 31, 120, 180)"/>
	<use xlink:href="#gpPt6" transform="translate(300.0,127.1) scale(3.38)" color="rgb( 31, 120, 180)"/>
	<use xlink:href="#gpPt6" transform="translate(447.9,121.0) scale(3.38)" color="rgb( 31, 120, 180)"/>
	<use xlink:href="#gpPt6" transform="translate(333.0,114.9) scale(3.38)" color="rgb( 31, 120, 180)"/>
	<use xlink:href="#gpPt6" transform="translate(207.9,108.8) scale(3.38)" color="rgb( 31, 120, 180)"/>
	<use xlink:href="#gpPt6" transform="translate(247.9,102.8) scale(3.38)" color="rgb( 31, 120, 180)"/>
	<use xlink:href="#gpPt6" transform="translate(491.7,96.7) scale(3.38)" color="rgb( 31, 120, 180)"/>
	<use xlink:href="#gpPt6" transform="translate(405.2,90.6) scale(3.38)" color="rgb( 31, 120, 180)"/>
	<use xlink:href="#gpPt6" transform="translate(247.7,84.5) scale(3.38)" color="rgb( 31, 120, 180)"/>
	<use xlink:href="#gpPt6" transform="translate(262.2,78.4) scale(3.38)" color="rgb( 31, 120, 180)"/>
	<use xlink:href="#gpPt6" transform="translate(245.0,72.3) scale(3.38)" color="rgb( 31, 120, 180)"/>
	<use xlink:href="#gpPt6" transform="translate(478.0,66.3) scale(3.38)" color="rgb( 31, 120, 180)"/>
	<use xlink:href="#gpPt6" transform="translate(380.3,60.2) scale(3.38)" color="rgb( 31, 120, 180)"/>
	<use xlink:href="#gpPt6" transform="translate(240.0,54.1) scale(3.38)" color="rgb( 31, 120, 180)"/>
	<use xlink:href="#gpPt6" transform="translate(1117.7,99.1) scale(3.38)" color="rgb( 31, 120, 180)"/>
</g>
	</g>
	<g id="gnuplot_plot_4"><title>Mild outliers</title>
<g fill="none" color="black" stroke="currentColor" stroke-width="1.00" stroke-linecap="butt" stroke-linejoin="miter">
	<g transform="translate(1147.1,121.0)" stroke="none" fill="black" font-family="Helvetica" font-size="12.00" text-anchor="start">
		<text><tspan font-family="Helvetica">Mild outliers</tspan></text>
	</g>
</g>
<g fill="none" color="black" stroke="currentColor" stroke-width="1.00" stroke-linecap="butt" stroke-linejoin="miter">
	<use xlink:href="#gpPt6" transform="translate(622.1,212.3) scale(3.38)" color="rgb(255, 127,   0)"/>
	<use xlink:href="#gpPt6" transform="translate(1117.7,117.1) scale(3.38)" color="rgb(255, 127,   0)"/>
</g>
	</g>
	<g id="gnuplot_plot_5"><title>Severe outliers</title>
<g fill="none" color="black" stroke="currentColor" stroke-width="1.00" stroke-linecap="butt" stroke-linejoin="miter">
	<g transform="translate(1147.1,139.0)" stroke="none" fill="black" font-family="Helvetica" font-size="12.00" text-anchor="start">
		<text><tspan font-family="Helvetica">Severe outliers</tspan></text>
	</g>
</g>
<g fill="none" color="black" stroke="currentColor" stroke-width="1.00" stroke-linecap="butt" stroke-linejoin="miter">
	<use xlink:href="#gpPt6" transform="translate(859.6,285.3) scale(3.38)" color="rgb(227,  26,  28)"/>
	<use xlink:href="#gpPt6" transform="translate(1117.7,135.1) scale(3.38)" color="rgb(227,  26,  28)"/>
</g>
	</g>
	<g id="gnuplot_plot_6"><title>gnuplot_plot_6</title>
<g fill="none" color="white" stroke="rgb(227,  26,  28)" stroke-width="2.00" stroke-linecap="butt" stroke-linejoin="miter">
</g>
<g fill="none" color="black" stroke="currentColor" stroke-width="2.00" stroke-linecap="butt" stroke-linejoin="miter">
</g>
	</g>
	<g id="gnuplot_plot_7"><title>gnuplot_plot_7</title>
<g fill="none" color="black" stroke="currentColor" stroke-width="2.00" stroke-linecap="butt" stroke-linejoin="miter">
	<path stroke="rgb(255, 127,   0)" d="M585.6,662.4 L585.6,54.1  "/></g>
	</g>
	<g id="gnuplot_plot_8"><title>gnuplot_plot_8</title>
<g fill="none" color="black" stroke="currentColor" stroke-width="2.00" stroke-linecap="butt" stroke-linejoin="miter">
</g>
	</g>
	<g id="gnuplot_plot_9"><title>gnuplot_plot_9</title>
<g fill="none" color="black" stroke="currentColor" stroke-width="2.00" stroke-linecap="butt" stroke-linejoin="miter">
	<path stroke="rgb(227,  26,  28)" d="M788.9,662.4 L788.9,54.1  "/></g>
	</g>
<g fill="none" color="black" stroke="currentColor" stroke-width="2.00" stroke-linecap="butt" stroke-linejoin="miter">
</g>
<g fill="none" color="black" stroke="black" stroke-width="1.00" stroke-linecap="butt" stroke-linejoin="miter">
</g>
<g fill="none" color="black" stroke="currentColor" stroke-width="1.00" stroke-linecap="butt" stroke-linejoin="miter">
	<path stroke="black" d="M71.9,54.1 L71.9,662.4 L995.6,662.4 L995.6,54.1 L71.9,54.1 Z  "/></g>
<g fill="none" color="black" stroke="currentColor" stroke-width="1.00" stroke-linecap="butt" stroke-linejoin="miter">
</g>
</g>
</svg>