<?xml version="1.0" encoding="UTF-8" standalone="no"?>
<svg viewBox="0 0 1280 720" xmlns="http://www.w3.org/2000/svg" xmlns:xlink="http://www.w3.org/1999/xlink">

<title>Gnuplot</title>
<desc>Produced by GNUPLOT 5.2 patchlevel 2 </desc>

<g id="gnuplot_canvas">

<rect x="0" y="0" width="1280" height="720" fill="none"/>
<defs>

	<circle id="gpDot" r="0.5" stroke-width="0.5"/>
	<path id="gpPt0" stroke-width="0.222" stroke="currentColor" d="M-1,0 h2 M0,-1 v2"/>
	<path id="gpPt1" stroke-width="0.222" stroke="currentColor" d="M-1,-1 L1,1 M1,-1 L-1,1"/>
	<path id="gpPt2" stroke-width="0.222" stroke="currentColor" d="M-1,0 L1,0 M0,-1 L0,1 M-1,-1 L1,1 M-1,1 L1,-1"/>
	<rect id="gpPt3" stroke-width="0.222" stroke="currentColor" x="-1" y="-1" width="2" height="2"/>
	<rect id="gpPt4" stroke-width="0.222" stroke="currentColor" fill="currentColor" x="-1" y="-1" width="2" height="2"/>
	<circle id="gpPt5" stroke-width="0.222" stroke="currentColor" cx="0" cy="0" r="1"/>
	<use xlink:href="#gpPt5" id="gpPt6" fill="currentColor" stroke="none"/>
	<path id="gpPt7" stroke-width="0.222" stroke="currentColor" d="M0,-1.33 L-1.33,0.67 L1.33,0.67 z"/>
	<use xlink:href="#gpPt7" id="gpPt8" fill="currentColor" stroke="none"/>
	<use xlink:href="#gpPt7" id="gpPt9" stroke="currentColor" transform="rotate(180)"/>
	<use xlink:href="#gpPt9" id="gpPt10" fill="currentColor" stroke="none"/>
	<use xlink:href="#gpPt3" id="gpPt11" stroke="currentColor" transform="rotate(45)"/>
	<use xlink:href="#gpPt11" id="gpPt12" fill="currentColor" stroke="none"/>
	<path id="gpPt13" stroke-width="0.222" stroke="currentColor" d="M0,1.330 L1.265,0.411 L0.782,-1.067 L-0.782,-1.076 L-1.265,0.411 z"/>
	<use xlink:href="#gpPt13" id="gpPt14" fill="currentColor" stroke="none"/>
	<filter id="textbox" filterUnits="objectBoundingBox" x="0" y="0" height="1" width="1">
	  <feFlood flood-color="white" flood-opacity="1" result="bgnd"/>
	  <feComposite in="SourceGraphic" in2="bgnd" operator="atop"/>
	</filter>
	<filter id="greybox" filterUnits="objectBoundingBox" x="0" y="0" height="1" width="1">
	  <feFlood flood-color="lightgrey" flood-opacity="1" result="grey"/>
	  <feComposite in="SourceGraphic" in2="grey" operator="atop"/>
	</filter>
</defs>
<g fill="none" color="white" stroke="currentColor" stroke-width="1.00" stroke-linecap="butt" stroke-linejoin="miter">
</g>
<g fill="none" color="black" stroke="currentColor" stroke-width="1.00" stroke-linecap="butt" stroke-linejoin="miter">
	<path stroke="black" d="M71.9,662.4 L80.9,662.4  "/>	<g transform="translate(63.6,666.3)" stroke="none" fill="black" font-family="Helvetica" font-size="12.00" text-anchor="end">
		<text><tspan font-family="Helvetica"> 0</tspan></text>
	</g>
</g>
<g fill="none" color="black" stroke="currentColor" stroke-width="1.00" stroke-linecap="butt" stroke-linejoin="miter">
	<path stroke="black" d="M71.9,561.0 L80.9,561.0  "/>	<g transform="translate(63.6,564.9)" stroke="none" fill="black" font-family="Helvetica" font-size="12.00" text-anchor="end">
		<text><tspan font-family="Helvetica"> 50</tspan></text>
	</g>
</g>
<g fill="none" color="black" stroke="currentColor" stroke-width="1.00" stroke-linecap="butt" stroke-linejoin="miter">
	<path stroke="black" d="M71.9,459.6 L80.9,459.6  "/>	<g transform="translate(63.6,463.5)" stroke="none" fill="black" font-family="Helvetica" font-size="12.00" text-anchor="end">
		<text><tspan font-family="Helvetica"> 100</tspan></text>
	</g>
</g>
<g fill="none" color="black" stroke="currentColor" stroke-width="1.00" stroke-linecap="butt" stroke-linejoin="miter">
	<path stroke="black" d="M71.9,358.2 L80.9,358.2  "/>	<g transform="translate(63.6,362.1)" stroke="none" fill="black" font-family="Helvetica" font-size="12.00" text-anchor="end">
		<text><tspan font-family="Helvetica"> 150</tspan></text>
	</g>
</g>
<g fill="none" color="black" stroke="currentColor" stroke-width="1.00" stroke-linecap="butt" stroke-linejoin="miter">
	<path stroke="black" d="M71.9,256.9 L80.9,256.9  "/>	<g transform="translate(63.6,260.8)" stroke="none" fill="black" font-family="Helvetica" font-size="12.00" text-anchor="end">
		<text><tspan font-family="Helvetica"> 200</tspan></text>
	</g>
</g>
<g fill="none" color="black" stroke="currentColor" stroke-width="1.00" stroke-linecap="butt" stroke-linejoin="miter">
	<path stroke="black" d="M71.9,155.5 L80.9,155.5  "/>	<g transform="translate(63.6,159.4)" stroke="none" fill="black" font-family="Helvetica" font-size="12.00" text-anchor="end">
		<text><tspan font-family="Helvetica"> 250</tspan></text>
	</g>
</g>
<g fill="none" color="black" stroke="currentColor" stroke-width="1.00" stroke-linecap="butt" stroke-linejoin="miter">
	<path stroke="black" d="M71.9,54.1 L80.9,54.1  "/>	<g transform="translate(63.6,58.0)" stroke="none" fill="black" font-family="Helvetica" font-size="12.00" text-anchor="end">
		<text><tspan font-family="Helvetica"> 300</tspan></text>
	</g>
</g>
<g fill="none" color="black" stroke="currentColor" stroke-width="1.00" stroke-linecap="butt" stroke-linejoin="miter">
	<path stroke="black" d="M117.8,662.4 L117.8,653.4  "/>	<g transform="translate(117.8,684.3)" stroke="none" fill="black" font-family="Helvetica" font-size="12.00" text-anchor="middle">
		<text><tspan font-family="Helvetica"> 355</tspan></text>
	</g>
</g>
<g fill="none" color="black" stroke="currentColor" stroke-width="1.00" stroke-linecap="butt" stroke-linejoin="miter">
	<path stroke="black" d="M269.9,662.4 L269.9,653.4  "/>	<g transform="translate(269.9,684.3)" stroke="none" fill="black" font-family="Helvetica" font-size="12.00" text-anchor="middle">
		<text><tspan font-family="Helvetica"> 360</tspan></text>
	</g>
</g>
<g fill="none" color="black" stroke="currentColor" stroke-width="1.00" stroke-linecap="butt" stroke-linejoin="miter">
	<path stroke="black" d="M422.0,662.4 L422.0,653.4  "/>	<g transform="translate(422.0,684.3)" stroke="none" fill="black" font-family="Helvetica" font-size="12.00" text-anchor="middle">
		<text><tspan font-family="Helvetica"> 365</tspan></text>
	</g>
</g>
<g fill="none" color="black" stroke="currentColor" stroke-width="1.00" stroke-linecap="butt" stroke-linejoin="miter">
	<path stroke="black" d="M574.1,662.4 L574.1,653.4  "/>	<g transform="translate(574.1,684.3)" stroke="none" fill="black" font-family="Helvetica" font-size="12.00" text-anchor="middle">
		<text><tspan font-family="Helvetica"> 370</tspan></text>
	</g>
</g>
<g fill="none" color="black" stroke="currentColor" stroke-width="1.00" stroke-linecap="butt" stroke-linejoin="miter">
	<path stroke="black" d="M726.2,662.4 L726.2,653.4  "/>	<g transform="translate(726.2,684.3)" stroke="none" fill="black" font-family="Helvetica" font-size="12.00" text-anchor="middle">
		<text><tspan font-family="Helvetica"> 375</tspan></text>
	</g>
</g>
<g fill="none" color="black" stroke="currentColor" stroke-width="1.00" stroke-linecap="butt" stroke-linejoin="miter">
	<path stroke="black" d="M878.3,662.4 L878.3,653.4  "/>	<g transform="translate(878.3,684.3)" stroke="none" fill="black" font-family="Helvetica" font-size="12.00" text-anchor="middle">
		<text><tspan font-family="Helvetica"> 380</tspan></text>
	</g>
</g>
<g fill="none" color="black" stroke="currentColor" stroke-width="1.00" stroke-linecap="butt" stroke-linejoin="miter">
	<path stroke="black" d="M1003.9,662.4 L994.9,662.4  "/>	<g transform="translate(1012.2,666.3)" stroke="none" fill="black" font-family="Helvetica" font-size="12.00" text-anchor="start">
		<text><tspan font-family="Helvetica"> 0</tspan></text>
	</g>
</g>
<g fill="none" color="black" stroke="currentColor" stroke-width="1.00" stroke-linecap="butt" stroke-linejoin="miter">
	<path stroke="black" d="M1003.9,594.8 L994.9,594.8  "/>	<g transform="translate(1012.2,598.7)" stroke="none" fill="black" font-family="Helvetica" font-size="12.00" text-anchor="start">
		<text><tspan font-family="Helvetica"> 0.01</tspan></text>
	</g>
</g>
<g fill="none" color="black" stroke="currentColor" stroke-width="1.00" stroke-linecap="butt" stroke-linejoin="miter">
	<path stroke="black" d="M1003.9,527.2 L994.9,527.2  "/>	<g transform="translate(1012.2,531.1)" stroke="none" fill="black" font-family="Helvetica" font-size="12.00" text-anchor="start">
		<text><tspan font-family="Helvetica"> 0.02</tspan></text>
	</g>
</g>
<g fill="none" color="black" stroke="currentColor" stroke-width="1.00" stroke-linecap="butt" stroke-linejoin="miter">
	<path stroke="black" d="M1003.9,459.6 L994.9,459.6  "/>	<g transform="translate(1012.2,463.5)" stroke="none" fill="black" font-family="Helvetica" font-size="12.00" text-anchor="start">
		<text><tspan font-family="Helvetica"> 0.03</tspan></text>
	</g>
</g>
<g fill="none" color="black" stroke="currentColor" stroke-width="1.00" stroke-linecap="butt" stroke-linejoin="miter">
	<path stroke="black" d="M1003.9,392.0 L994.9,392.0  "/>	<g transform="translate(1012.2,395.9)" stroke="none" fill="black" font-family="Helvetica" font-size="12.00" text-anchor="start">
		<text><tspan font-family="Helvetica"> 0.04</tspan></text>
	</g>
</g>
<g fill="none" color="black" stroke="currentColor" stroke-width="1.00" stroke-linecap="butt" stroke-linejoin="miter">
	<path stroke="black" d="M1003.9,324.5 L994.9,324.5  "/>	<g transform="translate(1012.2,328.4)" stroke="none" fill="black" font-family="Helvetica" font-size="12.00" text-anchor="start">
		<text><tspan font-family="Helvetica"> 0.05</tspan></text>
	</g>
</g>
<g fill="none" color="black" stroke="currentColor" stroke-width="1.00" stroke-linecap="butt" stroke-linejoin="miter">
	<path stroke="black" d="M1003.9,256.9 L994.9,256.9  "/>	<g transform="translate(1012.2,260.8)" stroke="none" fill="black" font-family="Helvetica" font-size="12.00" text-anchor="start">
		<text><tspan font-family="Helvetica"> 0.06</tspan></text>
	</g>
</g>
<g fill="none" color="black" stroke="currentColor" stroke-width="1.00" stroke-linecap="butt" stroke-linejoin="miter">
	<path stroke="black" d="M1003.9,189.3 L994.9,189.3  "/>	<g transform="translate(1012.2,193.2)" stroke="none" fill="black" font-family="Helvetica" font-size="12.00" text-anchor="start">
		<text><tspan font-family="Helvetica"> 0.07</tspan></text>
	</g>
</g>
<g fill="none" color="black" stroke="currentColor" stroke-width="1.00" stroke-linecap="butt" stroke-linejoin="miter">
	<path stroke="black" d="M1003.9,121.7 L994.9,121.7  "/>	<g transform="translate(1012.2,125.6)" stroke="none" fill="black" font-family="Helvetica" font-size="12.00" text-anchor="start">
		<text><tspan font-family="Helvetica"> 0.08</tspan></text>
	</g>
</g>
<g fill="none" color="black" stroke="currentColor" stroke-width="1.00" stroke-linecap="butt" stroke-linejoin="miter">
	<path stroke="black" d="M1003.9,54.1 L994.9,54.1  "/>	<g transform="translate(1012.2,58.0)" stroke="none" fill="black" font-family="Helvetica" font-size="12.00" text-anchor="start">
		<text><tspan font-family="Helvetica"> 0.09</tspan></text>
	</g>
</g>
<g fill="none" color="black" stroke="currentColor" stroke-width="1.00" stroke-linecap="butt" stroke-linejoin="miter">
</g>
<g fill="none" color="black" stroke="currentColor" stroke-width="1.00" stroke-linecap="butt" stroke-linejoin="miter">
	<path stroke="black" d="M71.9,54.1 L71.9,662.4 L1003.9,662.4 L1003.9,54.1 L71.9,54.1 Z  "/></g>
<g fill="none" color="black" stroke="currentColor" stroke-width="1.00" stroke-linecap="butt" stroke-linejoin="miter">
	<g transform="translate(16.3,358.3) rotate(270)" stroke="none" fill="black" font-family="Helvetica" font-size="12.00" text-anchor="middle">
		<text><tspan font-family="Helvetica">Iterations</tspan></text>
	</g>
</g>
<g fill="none" color="black" stroke="currentColor" stroke-width="1.00" stroke-linecap="butt" stroke-linejoin="miter">
	<g transform="translate(1082.5,358.3) rotate(270)" stroke="none" fill="black" font-family="Helvetica" font-size="12.00" text-anchor="middle">
		<text><tspan font-family="Helvetica">Density (a.u.)</tspan></text>
	</g>
</g>
<g fill="none" color="black" stroke="currentColor" stroke-width="1.00" stroke-linecap="butt" stroke-linejoin="miter">
	<g transform="translate(537.9,711.3)" stroke="none" fill="black" font-family="Helvetica" font-size="12.00" text-anchor="middle">
		<text><tspan font-family="Helvetica">Average time (us)</tspan></text>
	</g>
</g>
<g fill="none" color="black" stroke="currentColor" stroke-width="1.00" stroke-linecap="butt" stroke-linejoin="miter">
	<g transform="translate(537.9,31.0)" stroke="none" fill="black" font-family="Helvetica" font-size="12.00" text-anchor="middle">
		<text><tspan font-family="Helvetica">Problem 7/p7/22222222222222222222</tspan></text>
	</g>
</g>
	<g id="gnuplot_plot_1"><title>PDF</title>
<g fill="none" color="black" stroke="currentColor" stroke-width="1.00" stroke-linecap="butt" stroke-linejoin="miter">
	<g transform="translate(1155.4,67.0)" stroke="none" fill="black" font-family="Helvetica" font-size="12.00" text-anchor="start">
		<text><tspan font-family="Helvetica">PDF</tspan></text>
	</g>
</g>
<g fill="none" color="black" stroke="currentColor" stroke-width="1.00" stroke-linecap="butt" stroke-linejoin="miter">
	<g stroke="none" shape-rendering="crispEdges">
		<polygon fill="rgb( 31, 120, 180)" fill-opacity="0.250000" points="1104.9,67.6 1147.1,67.6 1147.1,58.6 1104.9,58.6 "/>
		<polygon fill="rgb( 31, 120, 180)" fill-opacity="0.250000" points="71.9,658.9 73.8,658.5 75.6,658.1 77.5,657.7 79.4,657.3 81.2,656.8 83.1,656.3 85.0,655.7 86.8,655.1 88.7,654.4 90.6,653.7 92.4,653.0 94.3,652.2 96.2,651.3 98.0,650.3 99.9,649.3 101.8,648.2 103.7,647.0 105.5,645.8 107.4,644.5 109.3,643.0 111.1,641.5 113.0,639.9 114.9,638.2 116.7,636.3 118.6,634.4 120.5,632.3 122.3,630.1 124.2,627.8 126.1,625.4 127.9,622.8 129.8,620.0 131.7,617.2 133.5,614.1 135.4,610.9 137.3,607.6 139.1,604.1 141.0,600.4 142.9,596.5 144.7,592.4 146.6,588.2 148.5,583.8 150.3,579.2 152.2,574.4 154.1,569.4 155.9,564.2 157.8,558.8 159.7,553.2 161.6,547.4 163.4,541.5 165.3,535.3 167.2,528.9 169.0,522.3 170.9,515.5 172.8,508.5 174.6,501.4 176.5,494.0 178.4,486.5 180.2,478.7 182.1,470.8 184.0,462.8 185.8,454.6 187.7,446.2 189.6,437.7 191.4,429.0 193.3,420.3 195.2,411.4 197.0,402.4 198.9,393.3 200.8,384.2 202.6,375.0 204.5,365.7 206.4,356.4 208.2,347.0 210.1,337.7 212.0,328.4 213.8,319.0 215.7,309.7 217.6,300.5 219.5,291.3 221.3,282.3 223.2,273.3 225.1,264.4 226.9,255.7 228.8,247.1 230.7,238.7 232.5,230.4 234.4,222.4 236.3,214.6 238.1,207.0 240.0,199.6 241.9,192.5 243.7,185.7 245.6,179.1 247.5,172.8 249.3,166.9 251.2,161.2 253.1,155.9 254.9,150.9 256.8,146.2 258.7,141.9 260.5,138.0 262.4,134.4 264.3,131.2 266.1,128.3 268.0,125.8 269.9,123.7 271.7,121.9 273.6,120.5 275.5,119.5 277.4,118.8 279.2,118.5 281.1,118.6 283.0,119.0 284.8,119.7 286.7,120.8 288.6,122.1 290.4,123.8 292.3,125.9 294.2,128.2 296.0,130.8 297.9,133.6 299.8,136.7 301.6,140.1 303.5,143.7 305.4,147.5 307.2,151.5 309.1,155.7 311.0,160.1 312.8,164.6 314.7,169.3 316.6,174.1 318.4,179.0 320.3,184.0 322.2,189.1 324.0,194.3 325.9,199.5 327.8,204.8 329.6,210.1 331.5,215.4 333.4,220.7 335.3,226.0 337.1,231.2 339.0,236.5 340.9,241.6 342.7,246.7 344.6,251.8 346.5,256.7 348.3,261.6 350.2,266.3 352.1,271.0 353.9,275.5 355.8,279.9 357.7,284.1 359.5,288.3 361.4,292.2 363.3,296.1 365.1,299.7 367.0,303.2 368.9,306.6 370.7,309.7 372.6,312.7 374.5,315.6 376.3,318.2 378.2,320.7 380.1,323.0 381.9,325.1 383.8,327.1 385.7,328.8 387.5,330.4 389.4,331.8 391.3,333.0 393.2,334.1 395.0,334.9 396.9,335.6 398.8,336.1 400.6,336.5 402.5,336.6 404.4,336.6 406.2,336.5 408.1,336.1 410.0,335.6 411.8,335.0 413.7,334.2 415.6,333.2 417.4,332.1 419.3,330.8 421.2,329.4 423.0,327.9 424.9,326.2 426.8,324.3 428.6,322.4 430.5,320.3 432.4,318.1 434.2,315.7 436.1,313.3 438.0,310.7 439.8,308.0 441.7,305.2 443.6,302.4 445.4,299.4 447.3,296.3 449.2,293.2 451.1,290.0 452.9,286.7 454.8,283.3 456.7,279.9 458.5,276.4 460.4,272.8 462.3,269.3 464.1,265.7 466.0,262.0 467.9,258.4 469.7,254.7 471.6,251.0 473.5,247.4 475.3,243.7 477.2,240.0 479.1,236.4 480.9,232.9 482.8,229.3 484.7,225.9 486.5,222.4 488.4,219.1 490.3,215.8 492.1,212.7 494.0,209.6 495.9,206.7 497.7,203.8 499.6,201.1 501.5,198.6 503.3,196.1 505.2,193.9 507.1,191.8 509.0,189.9 510.8,188.1 512.7,186.6 514.6,185.2 516.4,184.1 518.3,183.1 520.2,182.4 522.0,181.9 523.9,181.6 525.8,181.6 527.6,181.8 529.5,182.2 531.4,182.9 533.2,183.9 535.1,185.0 537.0,186.5 538.8,188.2 540.7,190.1 542.6,192.3 544.4,194.8 546.3,197.5 548.2,200.5 550.0,203.7 551.9,207.1 553.8,210.8 555.6,214.7 557.5,218.9 559.4,223.2 561.2,227.8 563.1,232.6 565.0,237.6 566.8,242.8 568.7,248.2 570.6,253.8 572.5,259.5 574.3,265.4 576.2,271.4 578.1,277.5 579.9,283.8 581.8,290.2 583.7,296.8 585.5,303.4 587.4,310.0 589.3,316.8 591.1,323.6 593.0,330.5 594.9,337.4 596.7,344.3 598.6,351.2 600.5,358.2 602.3,365.1 604.2,372.1 606.1,379.0 607.9,385.8 609.8,392.6 611.7,399.4 613.5,406.1 615.4,412.7 617.3,419.2 619.1,425.7 621.0,432.1 622.9,438.3 624.7,444.4 626.6,450.5 628.5,456.4 630.4,462.2 632.2,467.8 634.1,473.3 636.0,478.7 637.8,484.0 639.7,489.1 641.6,494.0 643.4,498.8 645.3,503.5 647.2,508.0 649.0,512.3 650.9,516.5 652.8,520.6 654.6,524.5 656.5,528.2 658.4,531.8 660.2,535.2 662.1,538.6 664.0,541.7 665.8,544.7 667.7,547.6 669.6,550.4 671.4,553.0 673.3,555.5 675.2,557.8 677.0,560.0 678.9,562.1 680.8,564.1 682.6,566.0 684.5,567.8 686.4,569.5 688.3,571.0 690.1,572.5 692.0,573.9 693.9,575.2 695.7,576.4 697.6,577.5 699.5,578.5 701.3,579.5 703.2,580.4 705.1,581.3 706.9,582.1 708.8,582.8 710.7,583.5 712.5,584.1 714.4,584.7 716.3,585.2 718.1,585.7 720.0,586.2 721.9,586.7 723.7,587.1 725.6,587.5 727.5,587.8 729.3,588.2 731.2,588.5 733.1,588.9 734.9,589.2 736.8,589.5 738.7,589.8 740.5,590.1 742.4,590.4 744.3,590.8 746.2,591.1 748.0,591.4 749.9,591.7 751.8,592.1 753.6,592.4 755.5,592.8 757.4,593.2 759.2,593.6 761.1,594.0 763.0,594.4 764.8,594.9 766.7,595.4 768.6,595.9 770.4,596.4 772.3,596.9 774.2,597.5 776.0,598.1 777.9,598.7 779.8,599.3 781.6,599.9 783.5,600.6 785.4,601.3 787.2,602.0 789.1,602.7 791.0,603.5 792.8,604.3 794.7,605.1 796.6,605.9 798.4,606.7 800.3,607.5 802.2,608.4 804.1,609.3 805.9,610.2 807.8,611.1 809.7,612.0 811.5,612.9 813.4,613.9 815.3,614.8 817.1,615.8 819.0,616.8 820.9,617.7 822.7,618.7 824.6,619.7 826.5,620.7 828.3,621.7 830.2,622.7 832.1,623.7 833.9,624.6 835.8,625.6 837.7,626.6 839.5,627.6 841.4,628.6 843.3,629.5 845.1,630.5 847.0,631.5 848.9,632.4 850.7,633.3 852.6,634.3 854.5,635.2 856.3,636.1 858.2,637.0 860.1,637.8 862.0,638.7 863.8,639.5 865.7,640.4 867.6,641.2 869.4,642.0 871.3,642.8 873.2,643.5 875.0,644.3 876.9,645.0 878.8,645.7 880.6,646.4 882.5,647.1 884.4,647.7 886.2,648.4 888.1,649.0 890.0,649.6 891.8,650.2 893.7,650.7 895.6,651.3 897.4,651.8 899.3,652.3 901.2,652.8 903.0,653.3 904.9,653.8 906.8,654.2 908.6,654.6 910.5,655.0 912.4,655.4 914.2,655.8 916.1,656.2 918.0,656.5 919.9,656.8 921.7,657.2 923.6,657.5 925.5,657.7 927.3,658.0 929.2,658.3 931.1,658.5 932.9,658.8 934.8,659.0 936.7,659.2 938.5,659.4 940.4,659.6 942.3,659.8 944.1,659.9 946.0,660.1 947.9,660.3 949.7,660.4 951.6,660.5 953.5,660.7 955.3,660.8 957.2,660.9 959.1,661.0 960.9,661.1 962.8,661.2 964.7,661.3 966.5,661.4 968.4,661.5 970.3,661.5 972.1,661.6 974.0,661.7 975.9,661.7 977.8,661.8 979.6,661.8 981.5,661.9 983.4,661.9 985.2,661.9 987.1,662.0 989.0,662.0 990.8,662.1 992.7,662.1 994.6,662.1 996.4,662.1 998.3,662.2 1000.2,662.2 1002.0,662.2 1003.9,662.2 1003.9,662.4 1002.0,662.4 1000.2,662.4 998.3,662.4 996.4,662.4 994.6,662.4 992.7,662.4 990.8,662.4 989.0,662.4 987.1,662.4 985.2,662.4 983.4,662.4 981.5,662.4 979.6,662.4 977.8,662.4 975.9,662.4 974.0,662.4 972.1,662.4 970.3,662.4 968.4,662.4 966.5,662.4 964.7,662.4 962.8,662.4 960.9,662.4 959.1,662.4 957.2,662.4 955.3,662.4 953.5,662.4 951.6,662.4 949.7,662.4 947.9,662.4 946.0,662.4 944.1,662.4 942.3,662.4 940.4,662.4 938.5,662.4 936.7,662.4 934.8,662.4 932.9,662.4 931.1,662.4 929.2,662.4 927.3,662.4 925.5,662.4 923.6,662.4 921.7,662.4 919.9,662.4 918.0,662.4 916.1,662.4 914.2,662.4 912.4,662.4 910.5,662.4 908.6,662.4 906.8,662.4 904.9,662.4 903.0,662.4 901.2,662.4 899.3,662.4 897.4,662.4 895.6,662.4 893.7,662.4 891.8,662.4 890.0,662.4 888.1,662.4 886.2,662.4 884.4,662.4 882.5,662.4 880.6,662.4 878.8,662.4 876.9,662.4 875.0,662.4 873.2,662.4 871.3,662.4 869.4,662.4 867.6,662.4 865.7,662.4 863.8,662.4 862.0,662.4 860.1,662.4 858.2,662.4 856.3,662.4 854.5,662.4 852.6,662.4 850.7,662.4 848.9,662.4 847.0,662.4 845.1,662.4 843.3,662.4 841.4,662.4 839.5,662.4 837.7,662.4 835.8,662.4 833.9,662.4 832.1,662.4 830.2,662.4 828.3,662.4 826.5,662.4 824.6,662.4 822.7,662.4 820.9,662.4 819.0,662.4 817.1,662.4 815.3,662.4 813.4,662.4 811.5,662.4 809.7,662.4 807.8,662.4 805.9,662.4 804.1,662.4 802.2,662.4 800.3,662.4 798.4,662.4 796.6,662.4 794.7,662.4 792.8,662.4 791.0,662.4 789.1,662.4 787.2,662.4 785.4,662.4 783.5,662.4 781.6,662.4 779.8,662.4 777.9,662.4 776.0,662.4 774.2,662.4 772.3,662.4 770.4,662.4 768.6,662.4 766.7,662.4 764.8,662.4 763.0,662.4 761.1,662.4 759.2,662.4 757.4,662.4 755.5,662.4 753.6,662.4 751.8,662.4 749.9,662.4 748.0,662.4 746.2,662.4 744.3,662.4 742.4,662.4 740.5,662.4 738.7,662.4 736.8,662.4 734.9,662.4 733.1,662.4 731.2,662.4 729.3,662.4 727.5,662.4 725.6,662.4 723.7,662.4 721.9,662.4 720.0,662.4 718.1,662.4 716.3,662.4 714.4,662.4 712.5,662.4 710.7,662.4 708.8,662.4 706.9,662.4 705.1,662.4 703.2,662.4 701.3,662.4 699.5,662.4 697.6,662.4 695.7,662.4 693.9,662.4 692.0,662.4 690.1,662.4 688.3,662.4 686.4,662.4 684.5,662.4 682.6,662.4 680.8,662.4 678.9,662.4 677.0,662.4 675.2,662.4 673.3,662.4 671.4,662.4 669.6,662.4 667.7,662.4 665.8,662.4 664.0,662.4 662.1,662.4 660.2,662.4 658.4,662.4 656.5,662.4 654.6,662.4 652.8,662.4 650.9,662.4 649.0,662.4 647.2,662.4 645.3,662.4 643.4,662.4 641.6,662.4 639.7,662.4 637.8,662.4 636.0,662.4 634.1,662.4 632.2,662.4 630.4,662.4 628.5,662.4 626.6,662.4 624.7,662.4 622.9,662.4 621.0,662.4 619.1,662.4 617.3,662.4 615.4,662.4 613.5,662.4 611.7,662.4 609.8,662.4 607.9,662.4 606.1,662.4 604.2,662.4 602.3,662.4 600.5,662.4 598.6,662.4 596.7,662.4 594.9,662.4 593.0,662.4 591.1,662.4 589.3,662.4 587.4,662.4 585.5,662.4 583.7,662.4 581.8,662.4 579.9,662.4 578.1,662.4 576.2,662.4 574.3,662.4 572.5,662.4 570.6,662.4 568.7,662.4 566.8,662.4 565.0,662.4 563.1,662.4 561.2,662.4 559.4,662.4 557.5,662.4 555.6,662.4 553.8,662.4 551.9,662.4 550.0,662.4 548.2,662.4 546.3,662.4 544.4,662.4 542.6,662.4 540.7,662.4 538.8,662.4 537.0,662.4 535.1,662.4 533.2,662.4 531.4,662.4 529.5,662.4 527.6,662.4 525.8,662.4 523.9,662.4 522.0,662.4 520.2,662.4 518.3,662.4 516.4,662.4 514.6,662.4 512.7,662.4 510.8,662.4 509.0,662.4 507.1,662.4 505.2,662.4 503.3,662.4 501.5,662.4 499.6,662.4 497.7,662.4 495.9,662.4 494.0,662.4 492.1,662.4 490.3,662.4 488.4,662.4 486.5,662.4 484.7,662.4 482.8,662.4 480.9,662.4 479.1,662.4 477.2,662.4 475.3,662.4 473.5,662.4 471.6,662.4 469.7,662.4 467.9,662.4 466.0,662.4 464.1,662.4 462.3,662.4 460.4,662.4 458.5,662.4 456.7,662.4 454.8,662.4 452.9,662.4 451.1,662.4 449.2,662.4 447.3,662.4 445.4,662.4 443.6,662.4 441.7,662.4 439.8,662.4 438.0,662.4 436.1,662.4 434.2,662.4 432.4,662.4 430.5,662.4 428.6,662.4 426.8,662.4 424.9,662.4 423.0,662.4 421.2,662.4 419.3,662.4 417.4,662.4 415.6,662.4 413.7,662.4 411.8,662.4 410.0,662.4 408.1,662.4 406.2,662.4 404.4,662.4 402.5,662.4 400.6,662.4 398.8,662.4 396.9,662.4 395.0,662.4 393.2,662.4 391.3,662.4 389.4,662.4 387.5,662.4 385.7,662.4 383.8,662.4 381.9,662.4 380.1,662.4 378.2,662.4 376.3,662.4 374.5,662.4 372.6,662.4 370.7,662.4 368.9,662.4 367.0,662.4 365.1,662.4 363.3,662.4 361.4,662.4 359.5,662.4 357.7,662.4 355.8,662.4 353.9,662.4 352.1,662.4 350.2,662.4 348.3,662.4 346.5,662.4 344.6,662.4 342.7,662.4 340.9,662.4 339.0,662.4 337.1,662.4 335.3,662.4 333.4,662.4 331.5,662.4 329.6,662.4 327.8,662.4 325.9,662.4 324.0,662.4 322.2,662.4 320.3,662.4 318.4,662.4 316.6,662.4 314.7,662.4 312.8,662.4 311.0,662.4 309.1,662.4 307.2,662.4 305.4,662.4 303.5,662.4 301.6,662.4 299.8,662.4 297.9,662.4 296.0,662.4 294.2,662.4 292.3,662.4 290.4,662.4 288.6,662.4 286.7,662.4 284.8,662.4 283.0,662.4 281.1,662.4 279.2,662.4 277.4,662.4 275.5,662.4 273.6,662.4 271.7,662.4 269.9,662.4 268.0,662.4 266.1,662.4 264.3,662.4 262.4,662.4 260.5,662.4 258.7,662.4 256.8,662.4 254.9,662.4 253.1,662.4 251.2,662.4 249.3,662.4 247.5,662.4 245.6,662.4 243.7,662.4 241.9,662.4 240.0,662.4 238.1,662.4 236.3,662.4 234.4,662.4 232.5,662.4 230.7,662.4 228.8,662.4 226.9,662.4 225.1,662.4 223.2,662.4 221.3,662.4 219.5,662.4 217.6,662.4 215.7,662.4 213.8,662.4 212.0,662.4 210.1,662.4 208.2,662.4 206.4,662.4 204.5,662.4 202.6,662.4 200.8,662.4 198.9,662.4 197.0,662.4 195.2,662.4 193.3,662.4 191.4,662.4 189.6,662.4 187.7,662.4 185.8,662.4 184.0,662.4 182.1,662.4 180.2,662.4 178.4,662.4 176.5,662.4 174.6,662.4 172.8,662.4 170.9,662.4 169.0,662.4 167.2,662.4 165.3,662.4 163.4,662.4 161.6,662.4 159.7,662.4 157.8,662.4 155.9,662.4 154.1,662.4 152.2,662.4 150.3,662.4 148.5,662.4 146.6,662.4 144.7,662.4 142.9,662.4 141.0,662.4 139.1,662.4 137.3,662.4 135.4,662.4 133.5,662.4 131.7,662.4 129.8,662.4 127.9,662.4 126.1,662.4 124.2,662.4 122.3,662.4 120.5,662.4 118.6,662.4 116.7,662.4 114.9,662.4 113.0,662.4 111.1,662.4 109.3,662.4 107.4,662.4 105.5,662.4 103.7,662.4 101.8,662.4 99.9,662.4 98.0,662.4 96.2,662.4 94.3,662.4 92.4,662.4 90.6,662.4 88.7,662.4 86.8,662.4 85.0,662.4 83.1,662.4 81.2,662.4 79.4,662.4 77.5,662.4 75.6,662.4 73.8,662.4 71.9,662.4 "/>
	</g>
</g>
	</g>
	<g id="gnuplot_plot_2"><title>Mean</title>
<g fill="none" color="white" stroke="rgb( 31, 120, 180)" stroke-width="2.00" stroke-linecap="butt" stroke-linejoin="miter">
</g>
<g fill="none" color="black" stroke="currentColor" stroke-width="2.00" stroke-linecap="butt" stroke-linejoin="miter">
	<g transform="translate(1155.4,85.0)" stroke="none" fill="black" font-family="Helvetica" font-size="12.00" text-anchor="start">
		<text><tspan font-family="Helvetica">Mean</tspan></text>
	</g>
</g>
<g fill="none" color="black" stroke="currentColor" stroke-width="2.00" stroke-linecap="butt" stroke-linejoin="miter">
	<path stroke="rgb( 31, 120, 180)" d="M1104.9,81.1 L1147.1,81.1 M423.4,662.4 L423.4,54.1  "/></g>
	</g>
	<g id="gnuplot_plot_3"><title>"Clean" sample</title>
<g fill="none" color="white" stroke="rgb( 31, 120, 180)" stroke-width="1.00" stroke-linecap="butt" stroke-linejoin="miter">
</g>
<g fill="none" color="black" stroke="currentColor" stroke-width="1.00" stroke-linecap="butt" stroke-linejoin="miter">
	<g transform="translate(1155.4,103.0)" stroke="none" fill="black" font-family="Helvetica" font-size="12.00" text-anchor="start">
		<text><tspan font-family="Helvetica">"Clean" sample</tspan></text>
	</g>
</g>
<g fill="none" color="black" stroke="currentColor" stroke-width="1.00" stroke-linecap="butt" stroke-linejoin="miter">
	<use xlink:href="#gpPt6" transform="translate(568.0,656.3) scale(3.38)" color="rgb( 31, 120, 180)"/>
	<use xlink:href="#gpPt6" transform="translate(542.2,650.2) scale(3.38)" color="rgb( 31, 120, 180)"/>
	<use xlink:href="#gpPt6" transform="translate(540.6,644.2) scale(3.38)" color="rgb( 31, 120, 180)"/>
	<use xlink:href="#gpPt6" transform="translate(564.0,638.1) scale(3.38)" color="rgb( 31, 120, 180)"/>
	<use xlink:href="#gpPt6" transform="translate(534.6,632.0) scale(3.38)" color="rgb( 31, 120, 180)"/>
	<use xlink:href="#gpPt6" transform="translate(552.3,625.9) scale(3.38)" color="rgb( 31, 120, 180)"/>
	<use xlink:href="#gpPt6" transform="translate(536.9,619.8) scale(3.38)" color="rgb( 31, 120, 180)"/>
	<use xlink:href="#gpPt6" transform="translate(542.5,613.7) scale(3.38)" color="rgb( 31, 120, 180)"/>
	<use xlink:href="#gpPt6" transform="translate(548.5,607.7) scale(3.38)" color="rgb( 31, 120, 180)"/>
	<use xlink:href="#gpPt6" transform="translate(549.3,601.6) scale(3.38)" color="rgb( 31, 120, 180)"/>
	<use xlink:href="#gpPt6" transform="translate(539.1,595.5) scale(3.38)" color="rgb( 31, 120, 180)"/>
	<use xlink:href="#gpPt6" transform="translate(552.7,589.4) scale(3.38)" color="rgb( 31, 120, 180)"/>
	<use xlink:href="#gpPt6" transform="translate(544.2,583.3) scale(3.38)" color="rgb( 31, 120, 180)"/>
	<use xlink:href="#gpPt6" transform="translate(545.3,577.2) scale(3.38)" color="rgb( 31, 120, 180)"/>
	<use xlink:href="#gpPt6" transform="translate(740.5,571.2) scale(3.38)" color="rgb( 31, 120, 180)"/>
	<use xlink:href="#gpPt6" transform="translate(268.2,565.1) scale(3.38)" color="rgb( 31, 120, 180)"/>
	<use xlink:href="#gpPt6" transform="translate(295.4,559.0) scale(3.38)" color="rgb( 31, 120, 180)"/>
	<use xlink:href="#gpPt6" transform="translate(362.8,552.9) scale(3.38)" color="rgb( 31, 120, 180)"/>
	<use xlink:href="#gpPt6" transform="translate(411.1,546.8) scale(3.38)" color="rgb( 31, 120, 180)"/>
	<use xlink:href="#gpPt6" transform="translate(445.3,540.7) scale(3.38)" color="rgb( 31, 120, 180)"/>
	<use xlink:href="#gpPt6" transform="translate(548.7,534.7) scale(3.38)" color="rgb( 31, 120, 180)"/>
	<use xlink:href="#gpPt6" transform="translate(506.6,528.6) scale(3.38)" color="rgb( 31, 120, 180)"/>
	<use xlink:href="#gpPt6" transform="translate(469.1,522.5) scale(3.38)" color="rgb( 31, 120, 180)"/>
	<use xlink:href="#gpPt6" transform="translate(494.8,516.4) scale(3.38)" color="rgb( 31, 120, 180)"/>
	<use xlink:href="#gpPt6" transform="translate(332.4,510.3) scale(3.38)" color="rgb( 31, 120, 180)"/>
	<use xlink:href="#gpPt6" transform="translate(281.1,504.2) scale(3.38)" color="rgb( 31, 120, 180)"/>
	<use xlink:href="#gpPt6" transform="translate(263.6,498.2) scale(3.38)" color="rgb( 31, 120, 180)"/>
	<use xlink:href="#gpPt6" transform="translate(259.2,492.1) scale(3.38)" color="rgb( 31, 120, 180)"/>
	<use xlink:href="#gpPt6" transform="translate(264.2,486.0) scale(3.38)" color="rgb( 31, 120, 180)"/>
	<use xlink:href="#gpPt6" transform="translate(269.8,479.9) scale(3.38)" color="rgb( 31, 120, 180)"/>
	<use xlink:href="#gpPt6" transform="translate(275.3,473.8) scale(3.38)" color="rgb( 31, 120, 180)"/>
	<use xlink:href="#gpPt6" transform="translate(263.1,467.7) scale(3.38)" color="rgb( 31, 120, 180)"/>
	<use xlink:href="#gpPt6" transform="translate(265.0,461.7) scale(3.38)" color="rgb( 31, 120, 180)"/>
	<use xlink:href="#gpPt6" transform="translate(258.1,455.6) scale(3.38)" color="rgb( 31, 120, 180)"/>
	<use xlink:href="#gpPt6" transform="translate(268.2,449.5) scale(3.38)" color="rgb( 31, 120, 180)"/>
	<use xlink:href="#gpPt6" transform="translate(385.5,443.4) scale(3.38)" color="rgb( 31, 120, 180)"/>
	<use xlink:href="#gpPt6" transform="translate(462.4,437.3) scale(3.38)" color="rgb( 31, 120, 180)"/>
	<use xlink:href="#gpPt6" transform="translate(553.2,431.2) scale(3.38)" color="rgb( 31, 120, 180)"/>
	<use xlink:href="#gpPt6" transform="translate(477.7,425.2) scale(3.38)" color="rgb( 31, 120, 180)"/>
	<use xlink:href="#gpPt6" transform="translate(379.1,419.1) scale(3.38)" color="rgb( 31, 120, 180)"/>
	<use xlink:href="#gpPt6" transform="translate(260.4,413.0) scale(3.38)" color="rgb( 31, 120, 180)"/>
	<use xlink:href="#gpPt6" transform="translate(259.7,406.9) scale(3.38)" color="rgb( 31, 120, 180)"/>
	<use xlink:href="#gpPt6" transform="translate(268.2,400.8) scale(3.38)" color="rgb( 31, 120, 180)"/>
	<use xlink:href="#gpPt6" transform="translate(262.8,394.7) scale(3.38)" color="rgb( 31, 120, 180)"/>
	<use xlink:href="#gpPt6" transform="translate(414.0,388.7) scale(3.38)" color="rgb( 31, 120, 180)"/>
	<use xlink:href="#gpPt6" transform="translate(540.1,382.6) scale(3.38)" color="rgb( 31, 120, 180)"/>
	<use xlink:href="#gpPt6" transform="translate(540.9,376.5) scale(3.38)" color="rgb( 31, 120, 180)"/>
	<use xlink:href="#gpPt6" transform="translate(667.5,370.4) scale(3.38)" color="rgb( 31, 120, 180)"/>
	<use xlink:href="#gpPt6" transform="translate(817.7,364.3) scale(3.38)" color="rgb( 31, 120, 180)"/>
	<use xlink:href="#gpPt6" transform="translate(757.9,358.2) scale(3.38)" color="rgb( 31, 120, 180)"/>
	<use xlink:href="#gpPt6" transform="translate(616.0,352.2) scale(3.38)" color="rgb( 31, 120, 180)"/>
	<use xlink:href="#gpPt6" transform="translate(540.4,346.1) scale(3.38)" color="rgb( 31, 120, 180)"/>
	<use xlink:href="#gpPt6" transform="translate(550.4,340.0) scale(3.38)" color="rgb( 31, 120, 180)"/>
	<use xlink:href="#gpPt6" transform="translate(544.9,333.9) scale(3.38)" color="rgb( 31, 120, 180)"/>
	<use xlink:href="#gpPt6" transform="translate(545.5,327.8) scale(3.38)" color="rgb( 31, 120, 180)"/>
	<use xlink:href="#gpPt6" transform="translate(542.7,321.8) scale(3.38)" color="rgb( 31, 120, 180)"/>
	<use xlink:href="#gpPt6" transform="translate(658.0,315.7) scale(3.38)" color="rgb( 31, 120, 180)"/>
	<use xlink:href="#gpPt6" transform="translate(786.7,309.6) scale(3.38)" color="rgb( 31, 120, 180)"/>
	<use xlink:href="#gpPt6" transform="translate(737.4,303.5) scale(3.38)" color="rgb( 31, 120, 180)"/>
	<use xlink:href="#gpPt6" transform="translate(556.3,297.4) scale(3.38)" color="rgb( 31, 120, 180)"/>
	<use xlink:href="#gpPt6" transform="translate(543.9,291.3) scale(3.38)" color="rgb( 31, 120, 180)"/>
	<use xlink:href="#gpPt6" transform="translate(576.2,285.3) scale(3.38)" color="rgb( 31, 120, 180)"/>
	<use xlink:href="#gpPt6" transform="translate(268.4,279.2) scale(3.38)" color="rgb( 31, 120, 180)"/>
	<use xlink:href="#gpPt6" transform="translate(265.2,273.1) scale(3.38)" color="rgb( 31, 120, 180)"/>
	<use xlink:href="#gpPt6" transform="translate(348.9,267.0) scale(3.38)" color="rgb( 31, 120, 180)"/>
	<use xlink:href="#gpPt6" transform="translate(511.3,260.9) scale(3.38)" color="rgb( 31, 120, 180)"/>
	<use xlink:href="#gpPt6" transform="translate(397.3,254.8) scale(3.38)" color="rgb( 31, 120, 180)"/>
	<use xlink:href="#gpPt6" transform="translate(271.0,248.8) scale(3.38)" color="rgb( 31, 120, 180)"/>
	<use xlink:href="#gpPt6" transform="translate(266.2,242.7) scale(3.38)" color="rgb( 31, 120, 180)"/>
	<use xlink:href="#gpPt6" transform="translate(263.3,236.6) scale(3.38)" color="rgb( 31, 120, 180)"/>
	<use xlink:href="#gpPt6" transform="translate(261.2,230.5) scale(3.38)" color="rgb( 31, 120, 180)"/>
	<use xlink:href="#gpPt6" transform="translate(343.6,224.4) scale(3.38)" color="rgb( 31, 120, 180)"/>
	<use xlink:href="#gpPt6" transform="translate(518.9,218.3) scale(3.38)" color="rgb( 31, 120, 180)"/>
	<use xlink:href="#gpPt6" transform="translate(406.8,212.3) scale(3.38)" color="rgb( 31, 120, 180)"/>
	<use xlink:href="#gpPt6" transform="translate(366.9,206.2) scale(3.38)" color="rgb( 31, 120, 180)"/>
	<use xlink:href="#gpPt6" transform="translate(342.7,200.1) scale(3.38)" color="rgb( 31, 120, 180)"/>
	<use xlink:href="#gpPt6" transform="translate(265.2,194.0) scale(3.38)" color="rgb( 31, 120, 180)"/>
	<use xlink:href="#gpPt6" transform="translate(262.9,187.9) scale(3.38)" color="rgb( 31, 120, 180)"/>
	<use xlink:href="#gpPt6" transform="translate(454.3,181.8) scale(3.38)" color="rgb( 31, 120, 180)"/>
	<use xlink:href="#gpPt6" transform="translate(466.0,175.8) scale(3.38)" color="rgb( 31, 120, 180)"/>
	<use xlink:href="#gpPt6" transform="translate(274.6,169.7) scale(3.38)" color="rgb( 31, 120, 180)"/>
	<use xlink:href="#gpPt6" transform="translate(271.8,163.6) scale(3.38)" color="rgb( 31, 120, 180)"/>
	<use xlink:href="#gpPt6" transform="translate(272.0,157.5) scale(3.38)" color="rgb( 31, 120, 180)"/>
	<use xlink:href="#gpPt6" transform="translate(261.4,151.4) scale(3.38)" color="rgb( 31, 120, 180)"/>
	<use xlink:href="#gpPt6" transform="translate(440.1,145.3) scale(3.38)" color="rgb( 31, 120, 180)"/>
	<use xlink:href="#gpPt6" transform="translate(470.7,139.3) scale(3.38)" color="rgb( 31, 120, 180)"/>
	<use xlink:href="#gpPt6" transform="translate(410.0,133.2) scale(3.38)" color="rgb( 31, 120, 180)"/>
	<use xlink:href="#gpPt6" transform="translate(265.1,127.1) scale(3.38)" color="rgb( 31, 120, 180)"/>
	<use xlink:href="#gpPt6" transform="translate(266.5,121.0) scale(3.38)" color="rgb( 31, 120, 180)"/>
	<use xlink:href="#gpPt6" transform="translate(306.8,114.9) scale(3.38)" color="rgb( 31, 120, 180)"/>
	<use xlink:href="#gpPt6" transform="translate(508.4,108.8) scale(3.38)" color="rgb( 31, 120, 180)"/>
	<use xlink:href="#gpPt6" transform="translate(330.7,102.8) scale(3.38)" color="rgb( 31, 120, 180)"/>
	<use xlink:href="#gpPt6" transform="translate(262.6,96.7) scale(3.38)" color="rgb( 31, 120, 180)"/>
	<use xlink:href="#gpPt6" transform="translate(263.2,90.6) scale(3.38)" color="rgb( 31, 120, 180)"/>
	<use xlink:href="#gpPt6" transform="translate(264.7,84.5) scale(3.38)" color="rgb( 31, 120, 180)"/>
	<use xlink:href="#gpPt6" transform="translate(471.4,78.4) scale(3.38)" color="rgb( 31, 120, 180)"/>
	<use xlink:href="#gpPt6" transform="translate(451.1,72.3) scale(3.38)" color="rgb( 31, 120, 180)"/>
	<use xlink:href="#gpPt6" transform="translate(284.5,66.3) scale(3.38)" color="rgb( 31, 120, 180)"/>
	<use xlink:href="#gpPt6" transform="translate(267.1,60.2) scale(3.38)" color="rgb( 31, 120, 180)"/>
	<use xlink:href="#gpPt6" transform="translate(265.6,54.1) scale(3.38)" color="rgb( 31, 120, 180)"/>
	<use xlink:href="#gpPt6" transform="translate(1126.0,99.1) scale(3.38)" color="rgb( 31, 120, 180)"/>
</g>
	</g>
	<g id="gnuplot_plot_4"><title>gnuplot_plot_4</title>
<g fill="none" color="white" stroke="rgb( 31, 120, 180)" stroke-width="2.00" stroke-linecap="butt" stroke-linejoin="miter">
</g>
<g fill="none" color="black" stroke="currentColor" stroke-width="2.00" stroke-linecap="butt" stroke-linejoin="miter">
</g>
	</g>
	<g id="gnuplot_plot_5"><title>gnuplot_plot_5</title>
<g fill="none" color="black" stroke="currentColor" stroke-width="2.00" stroke-linecap="butt" stroke-linejoin="miter">
	<path stroke="rgb(255, 127,   0)" d="M954.1,662.4 L954.1,54.1  "/></g>
	</g>
	<g id="gnuplot_plot_6"><title>gnuplot_plot_6</title>
<g fill="none" color="black" stroke="currentColor" stroke-width="2.00" stroke-linecap="butt" stroke-linejoin="miter">
</g>
	</g>
	<g id="gnuplot_plot_7"><title>gnuplot_plot_7</title>
<g fill="none" color="black" stroke="currentColor" stroke-width="2.00" stroke-linecap="butt" stroke-linejoin="miter">
</g>
	</g>
<g fill="none" color="black" stroke="currentColor" stroke-width="2.00" stroke-linecap="butt" stroke-linejoin="miter">
</g>
<g fill="none" color="black" stroke="black" stroke-width="1.00" stroke-linecap="butt" stroke-linejoin="miter">
</g>
<g fill="none" color="black" stroke="currentColor" stroke-width="1.00" stroke-linecap="butt" stroke-linejoin="miter">
	<path stroke="black" d="M71.9,54.1 L71.9,662.4 L1003.9,662.4 L1003.9,54.1 L71.9,54.1 Z  "/></g>
<g fill="none" color="black" stroke="currentColor" stroke-width="1.00" stroke-linecap="butt" stroke-linejoin="miter">
</g>
</g>
</svg>