<?xml version="1.0" encoding="UTF-8" standalone="no"?>
<svg viewBox="0 0 1280 720" xmlns="http://www.w3.org/2000/svg" xmlns:xlink="http://www.w3.org/1999/xlink">

<title>Gnuplot</title>
<desc>Produced by GNUPLOT 5.2 patchlevel 2 </desc>

<g id="gnuplot_canvas">

<rect x="0" y="0" width="1280" height="720" fill="none"/>
<defs>

	<circle id="gpDot" r="0.5" stroke-width="0.5"/>
	<path id="gpPt0" stroke-width="0.222" stroke="currentColor" d="M-1,0 h2 M0,-1 v2"/>
	<path id="gpPt1" stroke-width="0.222" stroke="currentColor" d="M-1,-1 L1,1 M1,-1 L-1,1"/>
	<path id="gpPt2" stroke-width="0.222" stroke="currentColor" d="M-1,0 L1,0 M0,-1 L0,1 M-1,-1 L1,1 M-1,1 L1,-1"/>
	<rect id="gpPt3" stroke-width="0.222" stroke="currentColor" x="-1" y="-1" width="2" height="2"/>
	<rect id="gpPt4" stroke-width="0.222" stroke="currentColor" fill="currentColor" x="-1" y="-1" width="2" height="2"/>
	<circle id="gpPt5" stroke-width="0.222" stroke="currentColor" cx="0" cy="0" r="1"/>
	<use xlink:href="#gpPt5" id="gpPt6" fill="currentColor" stroke="none"/>
	<path id="gpPt7" stroke-width="0.222" stroke="currentColor" d="M0,-1.33 L-1.33,0.67 L1.33,0.67 z"/>
	<use xlink:href="#gpPt7" id="gpPt8" fill="currentColor" stroke="none"/>
	<use xlink:href="#gpPt7" id="gpPt9" stroke="currentColor" transform="rotate(180)"/>
	<use xlink:href="#gpPt9" id="gpPt10" fill="currentColor" stroke="none"/>
	<use xlink:href="#gpPt3" id="gpPt11" stroke="currentColor" transform="rotate(45)"/>
	<use xlink:href="#gpPt11" id="gpPt12" fill="currentColor" stroke="none"/>
	<path id="gpPt13" stroke-width="0.222" stroke="currentColor" d="M0,1.330 L1.265,0.411 L0.782,-1.067 L-0.782,-1.076 L-1.265,0.411 z"/>
	<use xlink:href="#gpPt13" id="gpPt14" fill="currentColor" stroke="none"/>
	<filter id="textbox" filterUnits="objectBoundingBox" x="0" y="0" height="1" width="1">
	  <feFlood flood-color="white" flood-opacity="1" result="bgnd"/>
	  <feComposite in="SourceGraphic" in2="bgnd" operator="atop"/>
	</filter>
	<filter id="greybox" filterUnits="objectBoundingBox" x="0" y="0" height="1" width="1">
	  <feFlood flood-color="lightgrey" flood-opacity="1" result="grey"/>
	  <feComposite in="SourceGraphic" in2="grey" operator="atop"/>
	</filter>
</defs>
<g fill="none" color="white" stroke="currentColor" stroke-width="1.00" stroke-linecap="butt" stroke-linejoin="miter">
</g>
<g fill="none" color="black" stroke="currentColor" stroke-width="1.00" stroke-linecap="butt" stroke-linejoin="miter">
	<path stroke="black" d="M63.6,662.4 L72.6,662.4  "/>	<g transform="translate(55.3,666.3)" stroke="none" fill="black" font-family="Helvetica" font-size="12.00" text-anchor="end">
		<text><tspan font-family="Helvetica"> 0</tspan></text>
	</g>
</g>
<g fill="none" color="black" stroke="currentColor" stroke-width="1.00" stroke-linecap="butt" stroke-linejoin="miter">
	<path stroke="black" d="M63.6,596.3 L72.6,596.3  "/>	<g transform="translate(55.3,600.2)" stroke="none" fill="black" font-family="Helvetica" font-size="12.00" text-anchor="end">
		<text><tspan font-family="Helvetica"> 2</tspan></text>
	</g>
</g>
<g fill="none" color="black" stroke="currentColor" stroke-width="1.00" stroke-linecap="butt" stroke-linejoin="miter">
	<path stroke="black" d="M63.6,530.2 L72.6,530.2  "/>	<g transform="translate(55.3,534.1)" stroke="none" fill="black" font-family="Helvetica" font-size="12.00" text-anchor="end">
		<text><tspan font-family="Helvetica"> 4</tspan></text>
	</g>
</g>
<g fill="none" color="black" stroke="currentColor" stroke-width="1.00" stroke-linecap="butt" stroke-linejoin="miter">
	<path stroke="black" d="M63.6,464.0 L72.6,464.0  "/>	<g transform="translate(55.3,467.9)" stroke="none" fill="black" font-family="Helvetica" font-size="12.00" text-anchor="end">
		<text><tspan font-family="Helvetica"> 6</tspan></text>
	</g>
</g>
<g fill="none" color="black" stroke="currentColor" stroke-width="1.00" stroke-linecap="butt" stroke-linejoin="miter">
	<path stroke="black" d="M63.6,397.9 L72.6,397.9  "/>	<g transform="translate(55.3,401.8)" stroke="none" fill="black" font-family="Helvetica" font-size="12.00" text-anchor="end">
		<text><tspan font-family="Helvetica"> 8</tspan></text>
	</g>
</g>
<g fill="none" color="black" stroke="currentColor" stroke-width="1.00" stroke-linecap="butt" stroke-linejoin="miter">
	<path stroke="black" d="M63.6,331.8 L72.6,331.8  "/>	<g transform="translate(55.3,335.7)" stroke="none" fill="black" font-family="Helvetica" font-size="12.00" text-anchor="end">
		<text><tspan font-family="Helvetica"> 10</tspan></text>
	</g>
</g>
<g fill="none" color="black" stroke="currentColor" stroke-width="1.00" stroke-linecap="butt" stroke-linejoin="miter">
	<path stroke="black" d="M63.6,265.7 L72.6,265.7  "/>	<g transform="translate(55.3,269.6)" stroke="none" fill="black" font-family="Helvetica" font-size="12.00" text-anchor="end">
		<text><tspan font-family="Helvetica"> 12</tspan></text>
	</g>
</g>
<g fill="none" color="black" stroke="currentColor" stroke-width="1.00" stroke-linecap="butt" stroke-linejoin="miter">
	<path stroke="black" d="M63.6,199.6 L72.6,199.6  "/>	<g transform="translate(55.3,203.5)" stroke="none" fill="black" font-family="Helvetica" font-size="12.00" text-anchor="end">
		<text><tspan font-family="Helvetica"> 14</tspan></text>
	</g>
</g>
<g fill="none" color="black" stroke="currentColor" stroke-width="1.00" stroke-linecap="butt" stroke-linejoin="miter">
	<path stroke="black" d="M63.6,133.4 L72.6,133.4  "/>	<g transform="translate(55.3,137.3)" stroke="none" fill="black" font-family="Helvetica" font-size="12.00" text-anchor="end">
		<text><tspan font-family="Helvetica"> 16</tspan></text>
	</g>
</g>
<g fill="none" color="black" stroke="currentColor" stroke-width="1.00" stroke-linecap="butt" stroke-linejoin="miter">
	<path stroke="black" d="M63.6,67.3 L72.6,67.3  "/>	<g transform="translate(55.3,71.2)" stroke="none" fill="black" font-family="Helvetica" font-size="12.00" text-anchor="end">
		<text><tspan font-family="Helvetica"> 18</tspan></text>
	</g>
</g>
<g fill="none" color="black" stroke="currentColor" stroke-width="1.00" stroke-linecap="butt" stroke-linejoin="miter">
	<path stroke="black" d="M65.1,662.4 L65.1,653.4  "/>	<g transform="translate(65.1,684.3)" stroke="none" fill="black" font-family="Helvetica" font-size="12.00" text-anchor="middle">
		<text><tspan font-family="Helvetica"> 5.25</tspan></text>
	</g>
</g>
<g fill="none" color="black" stroke="currentColor" stroke-width="1.00" stroke-linecap="butt" stroke-linejoin="miter">
	<path stroke="black" d="M193.2,662.4 L193.2,653.4  "/>	<g transform="translate(193.2,684.3)" stroke="none" fill="black" font-family="Helvetica" font-size="12.00" text-anchor="middle">
		<text><tspan font-family="Helvetica"> 5.3</tspan></text>
	</g>
</g>
<g fill="none" color="black" stroke="currentColor" stroke-width="1.00" stroke-linecap="butt" stroke-linejoin="miter">
	<path stroke="black" d="M321.3,662.4 L321.3,653.4  "/>	<g transform="translate(321.3,684.3)" stroke="none" fill="black" font-family="Helvetica" font-size="12.00" text-anchor="middle">
		<text><tspan font-family="Helvetica"> 5.35</tspan></text>
	</g>
</g>
<g fill="none" color="black" stroke="currentColor" stroke-width="1.00" stroke-linecap="butt" stroke-linejoin="miter">
	<path stroke="black" d="M449.4,662.4 L449.4,653.4  "/>	<g transform="translate(449.4,684.3)" stroke="none" fill="black" font-family="Helvetica" font-size="12.00" text-anchor="middle">
		<text><tspan font-family="Helvetica"> 5.4</tspan></text>
	</g>
</g>
<g fill="none" color="black" stroke="currentColor" stroke-width="1.00" stroke-linecap="butt" stroke-linejoin="miter">
	<path stroke="black" d="M577.6,662.4 L577.6,653.4  "/>	<g transform="translate(577.6,684.3)" stroke="none" fill="black" font-family="Helvetica" font-size="12.00" text-anchor="middle">
		<text><tspan font-family="Helvetica"> 5.45</tspan></text>
	</g>
</g>
<g fill="none" color="black" stroke="currentColor" stroke-width="1.00" stroke-linecap="butt" stroke-linejoin="miter">
	<path stroke="black" d="M705.7,662.4 L705.7,653.4  "/>	<g transform="translate(705.7,684.3)" stroke="none" fill="black" font-family="Helvetica" font-size="12.00" text-anchor="middle">
		<text><tspan font-family="Helvetica"> 5.5</tspan></text>
	</g>
</g>
<g fill="none" color="black" stroke="currentColor" stroke-width="1.00" stroke-linecap="butt" stroke-linejoin="miter">
	<path stroke="black" d="M833.8,662.4 L833.8,653.4  "/>	<g transform="translate(833.8,684.3)" stroke="none" fill="black" font-family="Helvetica" font-size="12.00" text-anchor="middle">
		<text><tspan font-family="Helvetica"> 5.55</tspan></text>
	</g>
</g>
<g fill="none" color="black" stroke="currentColor" stroke-width="1.00" stroke-linecap="butt" stroke-linejoin="miter">
	<path stroke="black" d="M961.9,662.4 L961.9,653.4  "/>	<g transform="translate(961.9,684.3)" stroke="none" fill="black" font-family="Helvetica" font-size="12.00" text-anchor="middle">
		<text><tspan font-family="Helvetica"> 5.6</tspan></text>
	</g>
</g>
<g fill="none" color="black" stroke="currentColor" stroke-width="1.00" stroke-linecap="butt" stroke-linejoin="miter">
	<path stroke="black" d="M1020.5,662.4 L1011.5,662.4  "/>	<g transform="translate(1028.8,666.3)" stroke="none" fill="black" font-family="Helvetica" font-size="12.00" text-anchor="start">
		<text><tspan font-family="Helvetica"> 0</tspan></text>
	</g>
</g>
<g fill="none" color="black" stroke="currentColor" stroke-width="1.00" stroke-linecap="butt" stroke-linejoin="miter">
	<path stroke="black" d="M1020.5,601.6 L1011.5,601.6  "/>	<g transform="translate(1028.8,605.5)" stroke="none" fill="black" font-family="Helvetica" font-size="12.00" text-anchor="start">
		<text><tspan font-family="Helvetica"> 1</tspan></text>
	</g>
</g>
<g fill="none" color="black" stroke="currentColor" stroke-width="1.00" stroke-linecap="butt" stroke-linejoin="miter">
	<path stroke="black" d="M1020.5,540.7 L1011.5,540.7  "/>	<g transform="translate(1028.8,544.6)" stroke="none" fill="black" font-family="Helvetica" font-size="12.00" text-anchor="start">
		<text><tspan font-family="Helvetica"> 2</tspan></text>
	</g>
</g>
<g fill="none" color="black" stroke="currentColor" stroke-width="1.00" stroke-linecap="butt" stroke-linejoin="miter">
	<path stroke="black" d="M1020.5,479.9 L1011.5,479.9  "/>	<g transform="translate(1028.8,483.8)" stroke="none" fill="black" font-family="Helvetica" font-size="12.00" text-anchor="start">
		<text><tspan font-family="Helvetica"> 3</tspan></text>
	</g>
</g>
<g fill="none" color="black" stroke="currentColor" stroke-width="1.00" stroke-linecap="butt" stroke-linejoin="miter">
	<path stroke="black" d="M1020.5,419.1 L1011.5,419.1  "/>	<g transform="translate(1028.8,423.0)" stroke="none" fill="black" font-family="Helvetica" font-size="12.00" text-anchor="start">
		<text><tspan font-family="Helvetica"> 4</tspan></text>
	</g>
</g>
<g fill="none" color="black" stroke="currentColor" stroke-width="1.00" stroke-linecap="butt" stroke-linejoin="miter">
	<path stroke="black" d="M1020.5,358.2 L1011.5,358.2  "/>	<g transform="translate(1028.8,362.1)" stroke="none" fill="black" font-family="Helvetica" font-size="12.00" text-anchor="start">
		<text><tspan font-family="Helvetica"> 5</tspan></text>
	</g>
</g>
<g fill="none" color="black" stroke="currentColor" stroke-width="1.00" stroke-linecap="butt" stroke-linejoin="miter">
	<path stroke="black" d="M1020.5,297.4 L1011.5,297.4  "/>	<g transform="translate(1028.8,301.3)" stroke="none" fill="black" font-family="Helvetica" font-size="12.00" text-anchor="start">
		<text><tspan font-family="Helvetica"> 6</tspan></text>
	</g>
</g>
<g fill="none" color="black" stroke="currentColor" stroke-width="1.00" stroke-linecap="butt" stroke-linejoin="miter">
	<path stroke="black" d="M1020.5,236.6 L1011.5,236.6  "/>	<g transform="translate(1028.8,240.5)" stroke="none" fill="black" font-family="Helvetica" font-size="12.00" text-anchor="start">
		<text><tspan font-family="Helvetica"> 7</tspan></text>
	</g>
</g>
<g fill="none" color="black" stroke="currentColor" stroke-width="1.00" stroke-linecap="butt" stroke-linejoin="miter">
	<path stroke="black" d="M1020.5,175.8 L1011.5,175.8  "/>	<g transform="translate(1028.8,179.7)" stroke="none" fill="black" font-family="Helvetica" font-size="12.00" text-anchor="start">
		<text><tspan font-family="Helvetica"> 8</tspan></text>
	</g>
</g>
<g fill="none" color="black" stroke="currentColor" stroke-width="1.00" stroke-linecap="butt" stroke-linejoin="miter">
	<path stroke="black" d="M1020.5,114.9 L1011.5,114.9  "/>	<g transform="translate(1028.8,118.8)" stroke="none" fill="black" font-family="Helvetica" font-size="12.00" text-anchor="start">
		<text><tspan font-family="Helvetica"> 9</tspan></text>
	</g>
</g>
<g fill="none" color="black" stroke="currentColor" stroke-width="1.00" stroke-linecap="butt" stroke-linejoin="miter">
	<path stroke="black" d="M1020.5,54.1 L1011.5,54.1  "/>	<g transform="translate(1028.8,58.0)" stroke="none" fill="black" font-family="Helvetica" font-size="12.00" text-anchor="start">
		<text><tspan font-family="Helvetica"> 10</tspan></text>
	</g>
</g>
<g fill="none" color="black" stroke="currentColor" stroke-width="1.00" stroke-linecap="butt" stroke-linejoin="miter">
</g>
<g fill="none" color="black" stroke="currentColor" stroke-width="1.00" stroke-linecap="butt" stroke-linejoin="miter">
	<path stroke="black" d="M63.6,54.1 L63.6,662.4 L1020.5,662.4 L1020.5,54.1 L63.6,54.1 Z  "/></g>
<g fill="none" color="black" stroke="currentColor" stroke-width="1.00" stroke-linecap="butt" stroke-linejoin="miter">
	<g transform="translate(16.3,358.3) rotate(270)" stroke="none" fill="black" font-family="Helvetica" font-size="12.00" text-anchor="middle">
		<text><tspan font-family="Helvetica">Iterations (x 10</tspan><tspan font-family="Helvetica" font-size="9.6" dy="-6.00px">3</tspan><tspan font-family="Helvetica" font-size="12.0" dy="6.00px">)</tspan></text>
	</g>
</g>
<g fill="none" color="black" stroke="currentColor" stroke-width="1.00" stroke-linecap="butt" stroke-linejoin="miter">
	<g transform="translate(1082.5,358.3) rotate(270)" stroke="none" fill="black" font-family="Helvetica" font-size="12.00" text-anchor="middle">
		<text><tspan font-family="Helvetica">Density (a.u.)</tspan></text>
	</g>
</g>
<g fill="none" color="black" stroke="currentColor" stroke-width="1.00" stroke-linecap="butt" stroke-linejoin="miter">
	<g transform="translate(542.0,711.3)" stroke="none" fill="black" font-family="Helvetica" font-size="12.00" text-anchor="middle">
		<text><tspan font-family="Helvetica">Average time (us)</tspan></text>
	</g>
</g>
<g fill="none" color="black" stroke="currentColor" stroke-width="1.00" stroke-linecap="butt" stroke-linejoin="miter">
	<g transform="translate(542.0,31.0)" stroke="none" fill="black" font-family="Helvetica" font-size="12.00" text-anchor="middle">
		<text><tspan font-family="Helvetica">Problem 7/p7_memoize/22222222222222222222</tspan></text>
	</g>
</g>
	<g id="gnuplot_plot_1"><title>PDF</title>
<g fill="none" color="black" stroke="currentColor" stroke-width="1.00" stroke-linecap="butt" stroke-linejoin="miter">
	<g transform="translate(1155.4,67.0)" stroke="none" fill="black" font-family="Helvetica" font-size="12.00" text-anchor="start">
		<text><tspan font-family="Helvetica">PDF</tspan></text>
	</g>
</g>
<g fill="none" color="black" stroke="currentColor" stroke-width="1.00" stroke-linecap="butt" stroke-linejoin="miter">
	<g stroke="none" shape-rendering="crispEdges">
		<polygon fill="rgb( 31, 120, 180)" fill-opacity="0.250000" points="1104.9,67.6 1147.1,67.6 1147.1,58.6 1104.9,58.6 "/>
		<polygon fill="rgb( 31, 120, 180)" fill-opacity="0.250000" points="63.6,662.1 65.5,662.1 67.4,662.1 69.4,662.0 71.3,662.0 73.2,661.9 75.1,661.9 77.0,661.8 78.9,661.8 80.9,661.7 82.8,661.6 84.7,661.6 86.6,661.5 88.5,661.4 90.4,661.3 92.4,661.2 94.3,661.0 96.2,660.9 98.1,660.7 100.0,660.6 102.0,660.4 103.9,660.2 105.8,660.0 107.7,659.8 109.6,659.6 111.5,659.3 113.5,659.0 115.4,658.7 117.3,658.4 119.2,658.1 121.1,657.7 123.0,657.3 125.0,656.9 126.9,656.4 128.8,655.9 130.7,655.4 132.6,654.9 134.6,654.3 136.5,653.7 138.4,653.0 140.3,652.3 142.2,651.5 144.1,650.7 146.1,649.9 148.0,649.0 149.9,648.1 151.8,647.1 153.7,646.0 155.6,644.9 157.6,643.7 159.5,642.5 161.4,641.2 163.3,639.8 165.2,638.4 167.2,636.8 169.1,635.3 171.0,633.6 172.9,631.8 174.8,630.0 176.7,628.1 178.7,626.1 180.6,624.0 182.5,621.8 184.4,619.5 186.3,617.1 188.2,614.7 190.2,612.1 192.1,609.4 194.0,606.6 195.9,603.7 197.8,600.7 199.8,597.5 201.7,594.3 203.6,590.9 205.5,587.4 207.4,583.8 209.3,580.1 211.3,576.2 213.2,572.2 215.1,568.1 217.0,563.8 218.9,559.4 220.8,554.9 222.8,550.3 224.7,545.5 226.6,540.6 228.5,535.5 230.4,530.3 232.4,525.0 234.3,519.5 236.2,514.0 238.1,508.2 240.0,502.4 241.9,496.4 243.9,490.3 245.8,484.1 247.7,477.7 249.6,471.3 251.5,464.7 253.4,458.0 255.4,451.2 257.3,444.3 259.2,437.3 261.1,430.2 263.0,423.1 265.0,415.8 266.9,408.5 268.8,401.1 270.7,393.7 272.6,386.2 274.5,378.7 276.5,371.1 278.4,363.5 280.3,355.8 282.2,348.2 284.1,340.6 286.0,332.9 288.0,325.3 289.9,317.7 291.8,310.1 293.7,302.6 295.6,295.1 297.6,287.7 299.5,280.3 301.4,273.1 303.3,265.9 305.2,258.8 307.1,251.8 309.1,244.9 311.0,238.1 312.9,231.4 314.8,224.9 316.7,218.5 318.6,212.3 320.6,206.2 322.5,200.3 324.4,194.5 326.3,189.0 328.2,183.5 330.2,178.3 332.1,173.3 334.0,168.4 335.9,163.7 337.8,159.3 339.7,155.0 341.7,150.9 343.6,147.0 345.5,143.4 347.4,139.9 349.3,136.6 351.2,133.6 353.2,130.8 355.1,128.1 357.0,125.7 358.9,123.5 360.8,121.5 362.8,119.7 364.7,118.1 366.6,116.7 368.5,115.5 370.4,114.6 372.3,113.8 374.3,113.2 376.2,112.9 378.1,112.7 380.0,112.7 381.9,112.9 383.8,113.4 385.8,114.0 387.7,114.8 389.6,115.8 391.5,117.0 393.4,118.4 395.4,119.9 397.3,121.7 399.2,123.6 401.1,125.7 403.0,128.0 404.9,130.5 406.9,133.2 408.8,136.0 410.7,139.0 412.6,142.1 414.5,145.5 416.4,149.0 418.4,152.6 420.3,156.5 422.2,160.4 424.1,164.6 426.0,168.9 428.0,173.3 429.9,177.9 431.8,182.6 433.7,187.5 435.6,192.5 437.5,197.6 439.5,202.8 441.4,208.2 443.3,213.7 445.2,219.3 447.1,225.0 449.0,230.8 451.0,236.7 452.9,242.6 454.8,248.7 456.7,254.8 458.6,261.0 460.6,267.3 462.5,273.6 464.4,279.9 466.3,286.3 468.2,292.7 470.1,299.2 472.1,305.6 474.0,312.1 475.9,318.6 477.8,325.0 479.7,331.5 481.6,337.9 483.6,344.3 485.5,350.6 487.4,356.9 489.3,363.2 491.2,369.4 493.2,375.5 495.1,381.5 497.0,387.5 498.9,393.4 500.8,399.1 502.7,404.8 504.7,410.4 506.6,415.8 508.5,421.1 510.4,426.3 512.3,431.4 514.2,436.3 516.2,441.1 518.1,445.7 520.0,450.2 521.9,454.5 523.8,458.7 525.8,462.7 527.7,466.5 529.6,470.2 531.5,473.7 533.4,477.0 535.3,480.2 537.3,483.2 539.2,486.0 541.1,488.6 543.0,491.1 544.9,493.4 546.8,495.6 548.8,497.6 550.7,499.4 552.6,501.0 554.5,502.5 556.4,503.9 558.3,505.1 560.3,506.1 562.2,507.0 564.1,507.8 566.0,508.5 567.9,509.0 569.9,509.4 571.8,509.7 573.7,509.9 575.6,510.0 577.5,510.0 579.4,509.9 581.4,509.7 583.3,509.5 585.2,509.2 587.1,508.8 589.0,508.4 590.9,508.0 592.9,507.5 594.8,507.1 596.7,506.6 598.6,506.1 600.5,505.5 602.5,505.0 604.4,504.6 606.3,504.1 608.2,503.6 610.1,503.2 612.0,502.9 614.0,502.6 615.9,502.3 617.8,502.1 619.7,501.9 621.6,501.8 623.5,501.8 625.5,501.9 627.4,502.0 629.3,502.2 631.2,502.5 633.1,502.9 635.1,503.4 637.0,504.0 638.9,504.6 640.8,505.3 642.7,506.2 644.6,507.1 646.6,508.1 648.5,509.2 650.4,510.3 652.3,511.6 654.2,512.9 656.1,514.3 658.1,515.8 660.0,517.4 661.9,519.0 663.8,520.7 665.7,522.5 667.7,524.3 669.6,526.1 671.5,528.1 673.4,530.0 675.3,532.0 677.2,534.1 679.2,536.2 681.1,538.3 683.0,540.4 684.9,542.5 686.8,544.7 688.7,546.9 690.7,549.0 692.6,551.2 694.5,553.4 696.4,555.6 698.3,557.7 700.3,559.9 702.2,562.0 704.1,564.1 706.0,566.2 707.9,568.3 709.8,570.4 711.8,572.4 713.7,574.4 715.6,576.3 717.5,578.3 719.4,580.1 721.3,582.0 723.3,583.8 725.2,585.6 727.1,587.3 729.0,589.0 730.9,590.7 732.9,592.3 734.8,593.8 736.7,595.4 738.6,596.9 740.5,598.3 742.4,599.7 744.4,601.1 746.3,602.5 748.2,603.8 750.1,605.0 752.0,606.3 753.9,607.5 755.9,608.6 757.8,609.8 759.7,610.9 761.6,611.9 763.5,613.0 765.5,614.0 767.4,615.0 769.3,615.9 771.2,616.9 773.1,617.8 775.0,618.7 777.0,619.5 778.9,620.4 780.8,621.2 782.7,622.0 784.6,622.8 786.5,623.5 788.5,624.3 790.4,625.0 792.3,625.7 794.2,626.4 796.1,627.1 798.1,627.8 800.0,628.5 801.9,629.1 803.8,629.7 805.7,630.4 807.6,631.0 809.6,631.6 811.5,632.2 813.4,632.7 815.3,633.3 817.2,633.9 819.1,634.4 821.1,634.9 823.0,635.5 824.9,636.0 826.8,636.5 828.7,637.0 830.7,637.5 832.6,638.0 834.5,638.5 836.4,639.0 838.3,639.4 840.2,639.9 842.2,640.4 844.1,640.8 846.0,641.3 847.9,641.7 849.8,642.2 851.7,642.6 853.7,643.0 855.6,643.5 857.5,643.9 859.4,644.3 861.3,644.8 863.3,645.2 865.2,645.6 867.1,646.0 869.0,646.4 870.9,646.8 872.8,647.2 874.8,647.6 876.7,648.0 878.6,648.4 880.5,648.8 882.4,649.2 884.3,649.6 886.3,650.0 888.2,650.4 890.1,650.8 892.0,651.1 893.9,651.5 895.9,651.9 897.8,652.2 899.7,652.6 901.6,653.0 903.5,653.3 905.4,653.7 907.4,654.0 909.3,654.3 911.2,654.6 913.1,655.0 915.0,655.3 916.9,655.6 918.9,655.9 920.8,656.2 922.7,656.5 924.6,656.7 926.5,657.0 928.5,657.3 930.4,657.5 932.3,657.8 934.2,658.0 936.1,658.2 938.0,658.5 940.0,658.7 941.9,658.9 943.8,659.1 945.7,659.3 947.6,659.5 949.5,659.6 951.5,659.8 953.4,660.0 955.3,660.1 957.2,660.3 959.1,660.4 961.1,660.5 963.0,660.7 964.9,660.8 966.8,660.9 968.7,661.0 970.6,661.1 972.6,661.2 974.5,661.3 976.4,661.4 978.3,661.4 980.2,661.5 982.1,661.6 984.1,661.6 986.0,661.7 987.9,661.8 989.8,661.8 991.7,661.9 993.7,661.9 995.6,661.9 997.5,662.0 999.4,662.0 1001.3,662.1 1003.2,662.1 1005.2,662.1 1007.1,662.1 1009.0,662.2 1010.9,662.2 1012.8,662.2 1014.7,662.2 1016.7,662.2 1018.6,662.3 1020.5,662.3 1020.5,662.4 1018.6,662.4 1016.7,662.4 1014.7,662.4 1012.8,662.4 1010.9,662.4 1009.0,662.4 1007.1,662.4 1005.2,662.4 1003.2,662.4 1001.3,662.4 999.4,662.4 997.5,662.4 995.6,662.4 993.7,662.4 991.7,662.4 989.8,662.4 987.9,662.4 986.0,662.4 984.1,662.4 982.1,662.4 980.2,662.4 978.3,662.4 976.4,662.4 974.5,662.4 972.6,662.4 970.6,662.4 968.7,662.4 966.8,662.4 964.9,662.4 963.0,662.4 961.1,662.4 959.1,662.4 957.2,662.4 955.3,662.4 953.4,662.4 951.5,662.4 949.5,662.4 947.6,662.4 945.7,662.4 943.8,662.4 941.9,662.4 940.0,662.4 938.0,662.4 936.1,662.4 934.2,662.4 932.3,662.4 930.4,662.4 928.5,662.4 926.5,662.4 924.6,662.4 922.7,662.4 920.8,662.4 918.9,662.4 916.9,662.4 915.0,662.4 913.1,662.4 911.2,662.4 909.3,662.4 907.4,662.4 905.4,662.4 903.5,662.4 901.6,662.4 899.7,662.4 897.8,662.4 895.9,662.4 893.9,662.4 892.0,662.4 890.1,662.4 888.2,662.4 886.3,662.4 884.3,662.4 882.4,662.4 880.5,662.4 878.6,662.4 876.7,662.4 874.8,662.4 872.8,662.4 870.9,662.4 869.0,662.4 867.1,662.4 865.2,662.4 863.3,662.4 861.3,662.4 859.4,662.4 857.5,662.4 855.6,662.4 853.7,662.4 851.7,662.4 849.8,662.4 847.9,662.4 846.0,662.4 844.1,662.4 842.2,662.4 840.2,662.4 838.3,662.4 836.4,662.4 834.5,662.4 832.6,662.4 830.7,662.4 828.7,662.4 826.8,662.4 824.9,662.4 823.0,662.4 821.1,662.4 819.1,662.4 817.2,662.4 815.3,662.4 813.4,662.4 811.5,662.4 809.6,662.4 807.6,662.4 805.7,662.4 803.8,662.4 801.9,662.4 800.0,662.4 798.1,662.4 796.1,662.4 794.2,662.4 792.3,662.4 790.4,662.4 788.5,662.4 786.5,662.4 784.6,662.4 782.7,662.4 780.8,662.4 778.9,662.4 777.0,662.4 775.0,662.4 773.1,662.4 771.2,662.4 769.3,662.4 767.4,662.4 765.5,662.4 763.5,662.4 761.6,662.4 759.7,662.4 757.8,662.4 755.9,662.4 753.9,662.4 752.0,662.4 750.1,662.4 748.2,662.4 746.3,662.4 744.4,662.4 742.4,662.4 740.5,662.4 738.6,662.4 736.7,662.4 734.8,662.4 732.9,662.4 730.9,662.4 729.0,662.4 727.1,662.4 725.2,662.4 723.3,662.4 721.3,662.4 719.4,662.4 717.5,662.4 715.6,662.4 713.7,662.4 711.8,662.4 709.8,662.4 707.9,662.4 706.0,662.4 704.1,662.4 702.2,662.4 700.3,662.4 698.3,662.4 696.4,662.4 694.5,662.4 692.6,662.4 690.7,662.4 688.7,662.4 686.8,662.4 684.9,662.4 683.0,662.4 681.1,662.4 679.2,662.4 677.2,662.4 675.3,662.4 673.4,662.4 671.5,662.4 669.6,662.4 667.7,662.4 665.7,662.4 663.8,662.4 661.9,662.4 660.0,662.4 658.1,662.4 656.1,662.4 654.2,662.4 652.3,662.4 650.4,662.4 648.5,662.4 646.6,662.4 644.6,662.4 642.7,662.4 640.8,662.4 638.9,662.4 637.0,662.4 635.1,662.4 633.1,662.4 631.2,662.4 629.3,662.4 627.4,662.4 625.5,662.4 623.5,662.4 621.6,662.4 619.7,662.4 617.8,662.4 615.9,662.4 614.0,662.4 612.0,662.4 610.1,662.4 608.2,662.4 606.3,662.4 604.4,662.4 602.5,662.4 600.5,662.4 598.6,662.4 596.7,662.4 594.8,662.4 592.9,662.4 590.9,662.4 589.0,662.4 587.1,662.4 585.2,662.4 583.3,662.4 581.4,662.4 579.4,662.4 577.5,662.4 575.6,662.4 573.7,662.4 571.8,662.4 569.9,662.4 567.9,662.4 566.0,662.4 564.1,662.4 562.2,662.4 560.3,662.4 558.3,662.4 556.4,662.4 554.5,662.4 552.6,662.4 550.7,662.4 548.8,662.4 546.8,662.4 544.9,662.4 543.0,662.4 541.1,662.4 539.2,662.4 537.3,662.4 535.3,662.4 533.4,662.4 531.5,662.4 529.6,662.4 527.7,662.4 525.8,662.4 523.8,662.4 521.9,662.4 520.0,662.4 518.1,662.4 516.2,662.4 514.2,662.4 512.3,662.4 510.4,662.4 508.5,662.4 506.6,662.4 504.7,662.4 502.7,662.4 500.8,662.4 498.9,662.4 497.0,662.4 495.1,662.4 493.2,662.4 491.2,662.4 489.3,662.4 487.4,662.4 485.5,662.4 483.6,662.4 481.6,662.4 479.7,662.4 477.8,662.4 475.9,662.4 474.0,662.4 472.1,662.4 470.1,662.4 468.2,662.4 466.3,662.4 464.4,662.4 462.5,662.4 460.6,662.4 458.6,662.4 456.7,662.4 454.8,662.4 452.9,662.4 451.0,662.4 449.0,662.4 447.1,662.4 445.2,662.4 443.3,662.4 441.4,662.4 439.5,662.4 437.5,662.4 435.6,662.4 433.7,662.4 431.8,662.4 429.9,662.4 428.0,662.4 426.0,662.4 424.1,662.4 422.2,662.4 420.3,662.4 418.4,662.4 416.4,662.4 414.5,662.4 412.6,662.4 410.7,662.4 408.8,662.4 406.9,662.4 404.9,662.4 403.0,662.4 401.1,662.4 399.2,662.4 397.3,662.4 395.4,662.4 393.4,662.4 391.5,662.4 389.6,662.4 387.7,662.4 385.8,662.4 383.8,662.4 381.9,662.4 380.0,662.4 378.1,662.4 376.2,662.4 374.3,662.4 372.3,662.4 370.4,662.4 368.5,662.4 366.6,662.4 364.7,662.4 362.8,662.4 360.8,662.4 358.9,662.4 357.0,662.4 355.1,662.4 353.2,662.4 351.2,662.4 349.3,662.4 347.4,662.4 345.5,662.4 343.6,662.4 341.7,662.4 339.7,662.4 337.8,662.4 335.9,662.4 334.0,662.4 332.1,662.4 330.2,662.4 328.2,662.4 326.3,662.4 324.4,662.4 322.5,662.4 320.6,662.4 318.6,662.4 316.7,662.4 314.8,662.4 312.9,662.4 311.0,662.4 309.1,662.4 307.1,662.4 305.2,662.4 303.3,662.4 301.4,662.4 299.5,662.4 297.6,662.4 295.6,662.4 293.7,662.4 291.8,662.4 289.9,662.4 288.0,662.4 286.0,662.4 284.1,662.4 282.2,662.4 280.3,662.4 278.4,662.4 276.5,662.4 274.5,662.4 272.6,662.4 270.7,662.4 268.8,662.4 266.9,662.4 265.0,662.4 263.0,662.4 261.1,662.4 259.2,662.4 257.3,662.4 255.4,662.4 253.4,662.4 251.5,662.4 249.6,662.4 247.7,662.4 245.8,662.4 243.9,662.4 241.9,662.4 240.0,662.4 238.1,662.4 236.2,662.4 234.3,662.4 232.4,662.4 230.4,662.4 228.5,662.4 226.6,662.4 224.7,662.4 222.8,662.4 220.8,662.4 218.9,662.4 217.0,662.4 215.1,662.4 213.2,662.4 211.3,662.4 209.3,662.4 207.4,662.4 205.5,662.4 203.6,662.4 201.7,662.4 199.8,662.4 197.8,662.4 195.9,662.4 194.0,662.4 192.1,662.4 190.2,662.4 188.2,662.4 186.3,662.4 184.4,662.4 182.5,662.4 180.6,662.4 178.7,662.4 176.7,662.4 174.8,662.4 172.9,662.4 171.0,662.4 169.1,662.4 167.2,662.4 165.2,662.4 163.3,662.4 161.4,662.4 159.5,662.4 157.6,662.4 155.6,662.4 153.7,662.4 151.8,662.4 149.9,662.4 148.0,662.4 146.1,662.4 144.1,662.4 142.2,662.4 140.3,662.4 138.4,662.4 136.5,662.4 134.6,662.4 132.6,662.4 130.7,662.4 128.8,662.4 126.9,662.4 125.0,662.4 123.0,662.4 121.1,662.4 119.2,662.4 117.3,662.4 115.4,662.4 113.5,662.4 111.5,662.4 109.6,662.4 107.7,662.4 105.8,662.4 103.9,662.4 102.0,662.4 100.0,662.4 98.1,662.4 96.2,662.4 94.3,662.4 92.4,662.4 90.4,662.4 88.5,662.4 86.6,662.4 84.7,662.4 82.8,662.4 80.9,662.4 78.9,662.4 77.0,662.4 75.1,662.4 73.2,662.4 71.3,662.4 69.4,662.4 67.4,662.4 65.5,662.4 63.6,662.4 "/>
	</g>
</g>
	</g>
	<g id="gnuplot_plot_2"><title>Mean</title>
<g fill="none" color="white" stroke="rgb( 31, 120, 180)" stroke-width="2.00" stroke-linecap="butt" stroke-linejoin="miter">
</g>
<g fill="none" color="black" stroke="currentColor" stroke-width="2.00" stroke-linecap="butt" stroke-linejoin="miter">
	<g transform="translate(1155.4,85.0)" stroke="none" fill="black" font-family="Helvetica" font-size="12.00" text-anchor="start">
		<text><tspan font-family="Helvetica">Mean</tspan></text>
	</g>
</g>
<g fill="none" color="black" stroke="currentColor" stroke-width="2.00" stroke-linecap="butt" stroke-linejoin="miter">
	<path stroke="rgb( 31, 120, 180)" d="M1104.9,81.1 L1147.1,81.1 M435.7,662.4 L435.7,54.1  "/></g>
	</g>
	<g id="gnuplot_plot_3"><title>"Clean" sample</title>
<g fill="none" color="white" stroke="rgb( 31, 120, 180)" stroke-width="1.00" stroke-linecap="butt" stroke-linejoin="miter">
</g>
<g fill="none" color="black" stroke="currentColor" stroke-width="1.00" stroke-linecap="butt" stroke-linejoin="miter">
	<g transform="translate(1155.4,103.0)" stroke="none" fill="black" font-family="Helvetica" font-size="12.00" text-anchor="start">
		<text><tspan font-family="Helvetica">"Clean" sample</tspan></text>
	</g>
</g>
<g fill="none" color="black" stroke="currentColor" stroke-width="1.00" stroke-linecap="butt" stroke-linejoin="miter">
	<use xlink:href="#gpPt6" transform="translate(385.4,656.3) scale(3.38)" color="rgb( 31, 120, 180)"/>
	<use xlink:href="#gpPt6" transform="translate(310.9,650.2) scale(3.38)" color="rgb( 31, 120, 180)"/>
	<use xlink:href="#gpPt6" transform="translate(355.7,644.2) scale(3.38)" color="rgb( 31, 120, 180)"/>
	<use xlink:href="#gpPt6" transform="translate(338.4,638.1) scale(3.38)" color="rgb( 31, 120, 180)"/>
	<use xlink:href="#gpPt6" transform="translate(324.7,632.0) scale(3.38)" color="rgb( 31, 120, 180)"/>
	<use xlink:href="#gpPt6" transform="translate(369.4,625.9) scale(3.38)" color="rgb( 31, 120, 180)"/>
	<use xlink:href="#gpPt6" transform="translate(322.1,619.8) scale(3.38)" color="rgb( 31, 120, 180)"/>
	<use xlink:href="#gpPt6" transform="translate(385.2,613.7) scale(3.38)" color="rgb( 31, 120, 180)"/>
	<use xlink:href="#gpPt6" transform="translate(438.1,607.7) scale(3.38)" color="rgb( 31, 120, 180)"/>
	<use xlink:href="#gpPt6" transform="translate(429.7,601.6) scale(3.38)" color="rgb( 31, 120, 180)"/>
	<use xlink:href="#gpPt6" transform="translate(396.5,595.5) scale(3.38)" color="rgb( 31, 120, 180)"/>
	<use xlink:href="#gpPt6" transform="translate(410.3,589.4) scale(3.38)" color="rgb( 31, 120, 180)"/>
	<use xlink:href="#gpPt6" transform="translate(420.0,583.3) scale(3.38)" color="rgb( 31, 120, 180)"/>
	<use xlink:href="#gpPt6" transform="translate(395.7,577.2) scale(3.38)" color="rgb( 31, 120, 180)"/>
	<use xlink:href="#gpPt6" transform="translate(405.4,571.2) scale(3.38)" color="rgb( 31, 120, 180)"/>
	<use xlink:href="#gpPt6" transform="translate(389.9,565.1) scale(3.38)" color="rgb( 31, 120, 180)"/>
	<use xlink:href="#gpPt6" transform="translate(420.4,559.0) scale(3.38)" color="rgb( 31, 120, 180)"/>
	<use xlink:href="#gpPt6" transform="translate(461.7,552.9) scale(3.38)" color="rgb( 31, 120, 180)"/>
	<use xlink:href="#gpPt6" transform="translate(418.6,546.8) scale(3.38)" color="rgb( 31, 120, 180)"/>
	<use xlink:href="#gpPt6" transform="translate(465.5,540.7) scale(3.38)" color="rgb( 31, 120, 180)"/>
	<use xlink:href="#gpPt6" transform="translate(442.7,534.7) scale(3.38)" color="rgb( 31, 120, 180)"/>
	<use xlink:href="#gpPt6" transform="translate(482.9,528.6) scale(3.38)" color="rgb( 31, 120, 180)"/>
	<use xlink:href="#gpPt6" transform="translate(425.6,522.5) scale(3.38)" color="rgb( 31, 120, 180)"/>
	<use xlink:href="#gpPt6" transform="translate(463.1,516.4) scale(3.38)" color="rgb( 31, 120, 180)"/>
	<use xlink:href="#gpPt6" transform="translate(451.6,510.3) scale(3.38)" color="rgb( 31, 120, 180)"/>
	<use xlink:href="#gpPt6" transform="translate(606.7,504.2) scale(3.38)" color="rgb( 31, 120, 180)"/>
	<use xlink:href="#gpPt6" transform="translate(678.0,498.2) scale(3.38)" color="rgb( 31, 120, 180)"/>
	<use xlink:href="#gpPt6" transform="translate(674.9,486.0) scale(3.38)" color="rgb( 31, 120, 180)"/>
	<use xlink:href="#gpPt6" transform="translate(616.8,479.9) scale(3.38)" color="rgb( 31, 120, 180)"/>
	<use xlink:href="#gpPt6" transform="translate(527.6,473.8) scale(3.38)" color="rgb( 31, 120, 180)"/>
	<use xlink:href="#gpPt6" transform="translate(326.4,467.7) scale(3.38)" color="rgb( 31, 120, 180)"/>
	<use xlink:href="#gpPt6" transform="translate(298.4,461.7) scale(3.38)" color="rgb( 31, 120, 180)"/>
	<use xlink:href="#gpPt6" transform="translate(267.6,455.6) scale(3.38)" color="rgb( 31, 120, 180)"/>
	<use xlink:href="#gpPt6" transform="translate(298.0,449.5) scale(3.38)" color="rgb( 31, 120, 180)"/>
	<use xlink:href="#gpPt6" transform="translate(291.8,443.4) scale(3.38)" color="rgb( 31, 120, 180)"/>
	<use xlink:href="#gpPt6" transform="translate(310.3,437.3) scale(3.38)" color="rgb( 31, 120, 180)"/>
	<use xlink:href="#gpPt6" transform="translate(261.6,431.2) scale(3.38)" color="rgb( 31, 120, 180)"/>
	<use xlink:href="#gpPt6" transform="translate(236.1,425.2) scale(3.38)" color="rgb( 31, 120, 180)"/>
	<use xlink:href="#gpPt6" transform="translate(228.2,419.1) scale(3.38)" color="rgb( 31, 120, 180)"/>
	<use xlink:href="#gpPt6" transform="translate(336.4,413.0) scale(3.38)" color="rgb( 31, 120, 180)"/>
	<use xlink:href="#gpPt6" transform="translate(520.6,406.9) scale(3.38)" color="rgb( 31, 120, 180)"/>
	<use xlink:href="#gpPt6" transform="translate(580.2,400.8) scale(3.38)" color="rgb( 31, 120, 180)"/>
	<use xlink:href="#gpPt6" transform="translate(626.8,388.7) scale(3.38)" color="rgb( 31, 120, 180)"/>
	<use xlink:href="#gpPt6" transform="translate(426.6,382.6) scale(3.38)" color="rgb( 31, 120, 180)"/>
	<use xlink:href="#gpPt6" transform="translate(366.2,376.5) scale(3.38)" color="rgb( 31, 120, 180)"/>
	<use xlink:href="#gpPt6" transform="translate(392.4,370.4) scale(3.38)" color="rgb( 31, 120, 180)"/>
	<use xlink:href="#gpPt6" transform="translate(372.1,364.3) scale(3.38)" color="rgb( 31, 120, 180)"/>
	<use xlink:href="#gpPt6" transform="translate(309.8,358.2) scale(3.38)" color="rgb( 31, 120, 180)"/>
	<use xlink:href="#gpPt6" transform="translate(314.1,352.2) scale(3.38)" color="rgb( 31, 120, 180)"/>
	<use xlink:href="#gpPt6" transform="translate(260.4,346.1) scale(3.38)" color="rgb( 31, 120, 180)"/>
	<use xlink:href="#gpPt6" transform="translate(489.0,340.0) scale(3.38)" color="rgb( 31, 120, 180)"/>
	<use xlink:href="#gpPt6" transform="translate(646.4,333.9) scale(3.38)" color="rgb( 31, 120, 180)"/>
	<use xlink:href="#gpPt6" transform="translate(621.0,327.8) scale(3.38)" color="rgb( 31, 120, 180)"/>
	<use xlink:href="#gpPt6" transform="translate(455.8,321.8) scale(3.38)" color="rgb( 31, 120, 180)"/>
	<use xlink:href="#gpPt6" transform="translate(341.3,315.7) scale(3.38)" color="rgb( 31, 120, 180)"/>
	<use xlink:href="#gpPt6" transform="translate(328.6,309.6) scale(3.38)" color="rgb( 31, 120, 180)"/>
	<use xlink:href="#gpPt6" transform="translate(349.7,303.5) scale(3.38)" color="rgb( 31, 120, 180)"/>
	<use xlink:href="#gpPt6" transform="translate(337.1,297.4) scale(3.38)" color="rgb( 31, 120, 180)"/>
	<use xlink:href="#gpPt6" transform="translate(326.4,291.3) scale(3.38)" color="rgb( 31, 120, 180)"/>
	<use xlink:href="#gpPt6" transform="translate(412.4,285.3) scale(3.38)" color="rgb( 31, 120, 180)"/>
	<use xlink:href="#gpPt6" transform="translate(630.2,273.1) scale(3.38)" color="rgb( 31, 120, 180)"/>
	<use xlink:href="#gpPt6" transform="translate(486.6,267.0) scale(3.38)" color="rgb( 31, 120, 180)"/>
	<use xlink:href="#gpPt6" transform="translate(386.8,260.9) scale(3.38)" color="rgb( 31, 120, 180)"/>
	<use xlink:href="#gpPt6" transform="translate(370.8,254.8) scale(3.38)" color="rgb( 31, 120, 180)"/>
	<use xlink:href="#gpPt6" transform="translate(418.6,248.8) scale(3.38)" color="rgb( 31, 120, 180)"/>
	<use xlink:href="#gpPt6" transform="translate(385.8,242.7) scale(3.38)" color="rgb( 31, 120, 180)"/>
	<use xlink:href="#gpPt6" transform="translate(432.0,236.6) scale(3.38)" color="rgb( 31, 120, 180)"/>
	<use xlink:href="#gpPt6" transform="translate(654.9,230.5) scale(3.38)" color="rgb( 31, 120, 180)"/>
	<use xlink:href="#gpPt6" transform="translate(643.8,224.4) scale(3.38)" color="rgb( 31, 120, 180)"/>
	<use xlink:href="#gpPt6" transform="translate(424.4,218.3) scale(3.38)" color="rgb( 31, 120, 180)"/>
	<use xlink:href="#gpPt6" transform="translate(348.4,212.3) scale(3.38)" color="rgb( 31, 120, 180)"/>
	<use xlink:href="#gpPt6" transform="translate(352.5,206.2) scale(3.38)" color="rgb( 31, 120, 180)"/>
	<use xlink:href="#gpPt6" transform="translate(343.6,200.1) scale(3.38)" color="rgb( 31, 120, 180)"/>
	<use xlink:href="#gpPt6" transform="translate(503.8,194.0) scale(3.38)" color="rgb( 31, 120, 180)"/>
	<use xlink:href="#gpPt6" transform="translate(668.9,187.9) scale(3.38)" color="rgb( 31, 120, 180)"/>
	<use xlink:href="#gpPt6" transform="translate(510.3,175.8) scale(3.38)" color="rgb( 31, 120, 180)"/>
	<use xlink:href="#gpPt6" transform="translate(419.1,169.7) scale(3.38)" color="rgb( 31, 120, 180)"/>
	<use xlink:href="#gpPt6" transform="translate(348.9,163.6) scale(3.38)" color="rgb( 31, 120, 180)"/>
	<use xlink:href="#gpPt6" transform="translate(317.5,157.5) scale(3.38)" color="rgb( 31, 120, 180)"/>
	<use xlink:href="#gpPt6" transform="translate(395.8,151.4) scale(3.38)" color="rgb( 31, 120, 180)"/>
	<use xlink:href="#gpPt6" transform="translate(616.3,145.3) scale(3.38)" color="rgb( 31, 120, 180)"/>
	<use xlink:href="#gpPt6" transform="translate(459.0,139.3) scale(3.38)" color="rgb( 31, 120, 180)"/>
	<use xlink:href="#gpPt6" transform="translate(343.1,133.2) scale(3.38)" color="rgb( 31, 120, 180)"/>
	<use xlink:href="#gpPt6" transform="translate(370.1,127.1) scale(3.38)" color="rgb( 31, 120, 180)"/>
	<use xlink:href="#gpPt6" transform="translate(490.2,121.0) scale(3.38)" color="rgb( 31, 120, 180)"/>
	<use xlink:href="#gpPt6" transform="translate(350.9,114.9) scale(3.38)" color="rgb( 31, 120, 180)"/>
	<use xlink:href="#gpPt6" transform="translate(577.8,108.8) scale(3.38)" color="rgb( 31, 120, 180)"/>
	<use xlink:href="#gpPt6" transform="translate(443.8,102.8) scale(3.38)" color="rgb( 31, 120, 180)"/>
	<use xlink:href="#gpPt6" transform="translate(303.9,96.7) scale(3.38)" color="rgb( 31, 120, 180)"/>
	<use xlink:href="#gpPt6" transform="translate(305.0,90.6) scale(3.38)" color="rgb( 31, 120, 180)"/>
	<use xlink:href="#gpPt6" transform="translate(313.2,84.5) scale(3.38)" color="rgb( 31, 120, 180)"/>
	<use xlink:href="#gpPt6" transform="translate(412.5,78.4) scale(3.38)" color="rgb( 31, 120, 180)"/>
	<use xlink:href="#gpPt6" transform="translate(622.2,72.3) scale(3.38)" color="rgb( 31, 120, 180)"/>
	<use xlink:href="#gpPt6" transform="translate(451.5,66.3) scale(3.38)" color="rgb( 31, 120, 180)"/>
	<use xlink:href="#gpPt6" transform="translate(353.9,60.2) scale(3.38)" color="rgb( 31, 120, 180)"/>
	<use xlink:href="#gpPt6" transform="translate(449.9,54.1) scale(3.38)" color="rgb( 31, 120, 180)"/>
	<use xlink:href="#gpPt6" transform="translate(1126.0,99.1) scale(3.38)" color="rgb( 31, 120, 180)"/>
</g>
	</g>
	<g id="gnuplot_plot_4"><title>Mild outliers</title>
<g fill="none" color="black" stroke="currentColor" stroke-width="1.00" stroke-linecap="butt" stroke-linejoin="miter">
	<g transform="translate(1155.4,121.0)" stroke="none" fill="black" font-family="Helvetica" font-size="12.00" text-anchor="start">
		<text><tspan font-family="Helvetica">Mild outliers</tspan></text>
	</g>
</g>
<g fill="none" color="black" stroke="currentColor" stroke-width="1.00" stroke-linecap="butt" stroke-linejoin="miter">
	<use xlink:href="#gpPt6" transform="translate(727.4,492.1) scale(3.38)" color="rgb(255, 127,   0)"/>
	<use xlink:href="#gpPt6" transform="translate(855.9,394.7) scale(3.38)" color="rgb(255, 127,   0)"/>
	<use xlink:href="#gpPt6" transform="translate(781.2,279.2) scale(3.38)" color="rgb(255, 127,   0)"/>
	<use xlink:href="#gpPt6" transform="translate(755.5,181.8) scale(3.38)" color="rgb(255, 127,   0)"/>
	<use xlink:href="#gpPt6" transform="translate(1126.0,117.1) scale(3.38)" color="rgb(255, 127,   0)"/>
</g>
	</g>
	<g id="gnuplot_plot_5"><title>gnuplot_plot_5</title>
<g fill="none" color="white" stroke="rgb(255, 127,   0)" stroke-width="2.00" stroke-linecap="butt" stroke-linejoin="miter">
</g>
<g fill="none" color="black" stroke="currentColor" stroke-width="2.00" stroke-linecap="butt" stroke-linejoin="miter">
	<path stroke="rgb(255, 127,   0)" d="M125.9,662.4 L125.9,54.1  "/></g>
	</g>
	<g id="gnuplot_plot_6"><title>gnuplot_plot_6</title>
<g fill="none" color="black" stroke="currentColor" stroke-width="2.00" stroke-linecap="butt" stroke-linejoin="miter">
	<path stroke="rgb(255, 127,   0)" d="M703.9,662.4 L703.9,54.1  "/></g>
	</g>
	<g id="gnuplot_plot_7"><title>gnuplot_plot_7</title>
<g fill="none" color="black" stroke="currentColor" stroke-width="2.00" stroke-linecap="butt" stroke-linejoin="miter">
</g>
	</g>
	<g id="gnuplot_plot_8"><title>gnuplot_plot_8</title>
<g fill="none" color="black" stroke="currentColor" stroke-width="2.00" stroke-linecap="butt" stroke-linejoin="miter">
	<path stroke="rgb(227,  26,  28)" d="M920.7,662.4 L920.7,54.1  "/></g>
	</g>
<g fill="none" color="black" stroke="currentColor" stroke-width="2.00" stroke-linecap="butt" stroke-linejoin="miter">
</g>
<g fill="none" color="black" stroke="black" stroke-width="1.00" stroke-linecap="butt" stroke-linejoin="miter">
</g>
<g fill="none" color="black" stroke="currentColor" stroke-width="1.00" stroke-linecap="butt" stroke-linejoin="miter">
	<path stroke="black" d="M63.6,54.1 L63.6,662.4 L1020.5,662.4 L1020.5,54.1 L63.6,54.1 Z  "/></g>
<g fill="none" color="black" stroke="currentColor" stroke-width="1.00" stroke-linecap="butt" stroke-linejoin="miter">
</g>
</g>
</svg>