<?xml version="1.0" encoding="UTF-8" standalone="no"?>
<svg viewBox="0 0 1280 720" xmlns="http://www.w3.org/2000/svg" xmlns:xlink="http://www.w3.org/1999/xlink">

<title>Gnuplot</title>
<desc>Produced by GNUPLOT 5.2 patchlevel 2 </desc>

<g id="gnuplot_canvas">

<rect x="0" y="0" width="1280" height="720" fill="none"/>
<defs>

	<circle id="gpDot" r="0.5" stroke-width="0.5"/>
	<path id="gpPt0" stroke-width="0.222" stroke="currentColor" d="M-1,0 h2 M0,-1 v2"/>
	<path id="gpPt1" stroke-width="0.222" stroke="currentColor" d="M-1,-1 L1,1 M1,-1 L-1,1"/>
	<path id="gpPt2" stroke-width="0.222" stroke="currentColor" d="M-1,0 L1,0 M0,-1 L0,1 M-1,-1 L1,1 M-1,1 L1,-1"/>
	<rect id="gpPt3" stroke-width="0.222" stroke="currentColor" x="-1" y="-1" width="2" height="2"/>
	<rect id="gpPt4" stroke-width="0.222" stroke="currentColor" fill="currentColor" x="-1" y="-1" width="2" height="2"/>
	<circle id="gpPt5" stroke-width="0.222" stroke="currentColor" cx="0" cy="0" r="1"/>
	<use xlink:href="#gpPt5" id="gpPt6" fill="currentColor" stroke="none"/>
	<path id="gpPt7" stroke-width="0.222" stroke="currentColor" d="M0,-1.33 L-1.33,0.67 L1.33,0.67 z"/>
	<use xlink:href="#gpPt7" id="gpPt8" fill="currentColor" stroke="none"/>
	<use xlink:href="#gpPt7" id="gpPt9" stroke="currentColor" transform="rotate(180)"/>
	<use xlink:href="#gpPt9" id="gpPt10" fill="currentColor" stroke="none"/>
	<use xlink:href="#gpPt3" id="gpPt11" stroke="currentColor" transform="rotate(45)"/>
	<use xlink:href="#gpPt11" id="gpPt12" fill="currentColor" stroke="none"/>
	<path id="gpPt13" stroke-width="0.222" stroke="currentColor" d="M0,1.330 L1.265,0.411 L0.782,-1.067 L-0.782,-1.076 L-1.265,0.411 z"/>
	<use xlink:href="#gpPt13" id="gpPt14" fill="currentColor" stroke="none"/>
	<filter id="textbox" filterUnits="objectBoundingBox" x="0" y="0" height="1" width="1">
	  <feFlood flood-color="white" flood-opacity="1" result="bgnd"/>
	  <feComposite in="SourceGraphic" in2="bgnd" operator="atop"/>
	</filter>
	<filter id="greybox" filterUnits="objectBoundingBox" x="0" y="0" height="1" width="1">
	  <feFlood flood-color="lightgrey" flood-opacity="1" result="grey"/>
	  <feComposite in="SourceGraphic" in2="grey" operator="atop"/>
	</filter>
</defs>
<g fill="none" color="white" stroke="currentColor" stroke-width="1.00" stroke-linecap="butt" stroke-linejoin="miter">
</g>
<g fill="none" color="black" stroke="currentColor" stroke-width="1.00" stroke-linecap="butt" stroke-linejoin="miter">
	<path stroke="black" d="M71.9,662.4 L80.9,662.4  "/>	<g transform="translate(63.6,666.3)" stroke="none" fill="black" font-family="Helvetica" font-size="12.00" text-anchor="end">
		<text><tspan font-family="Helvetica"> 0</tspan></text>
	</g>
</g>
<g fill="none" color="black" stroke="currentColor" stroke-width="1.00" stroke-linecap="butt" stroke-linejoin="miter">
	<path stroke="black" d="M71.9,540.7 L80.9,540.7  "/>	<g transform="translate(63.6,544.6)" stroke="none" fill="black" font-family="Helvetica" font-size="12.00" text-anchor="end">
		<text><tspan font-family="Helvetica"> 20</tspan></text>
	</g>
</g>
<g fill="none" color="black" stroke="currentColor" stroke-width="1.00" stroke-linecap="butt" stroke-linejoin="miter">
	<path stroke="black" d="M71.9,419.1 L80.9,419.1  "/>	<g transform="translate(63.6,423.0)" stroke="none" fill="black" font-family="Helvetica" font-size="12.00" text-anchor="end">
		<text><tspan font-family="Helvetica"> 40</tspan></text>
	</g>
</g>
<g fill="none" color="black" stroke="currentColor" stroke-width="1.00" stroke-linecap="butt" stroke-linejoin="miter">
	<path stroke="black" d="M71.9,297.4 L80.9,297.4  "/>	<g transform="translate(63.6,301.3)" stroke="none" fill="black" font-family="Helvetica" font-size="12.00" text-anchor="end">
		<text><tspan font-family="Helvetica"> 60</tspan></text>
	</g>
</g>
<g fill="none" color="black" stroke="currentColor" stroke-width="1.00" stroke-linecap="butt" stroke-linejoin="miter">
	<path stroke="black" d="M71.9,175.8 L80.9,175.8  "/>	<g transform="translate(63.6,179.7)" stroke="none" fill="black" font-family="Helvetica" font-size="12.00" text-anchor="end">
		<text><tspan font-family="Helvetica"> 80</tspan></text>
	</g>
</g>
<g fill="none" color="black" stroke="currentColor" stroke-width="1.00" stroke-linecap="butt" stroke-linejoin="miter">
	<path stroke="black" d="M71.9,54.1 L80.9,54.1  "/>	<g transform="translate(63.6,58.0)" stroke="none" fill="black" font-family="Helvetica" font-size="12.00" text-anchor="end">
		<text><tspan font-family="Helvetica"> 100</tspan></text>
	</g>
</g>
<g fill="none" color="black" stroke="currentColor" stroke-width="1.00" stroke-linecap="butt" stroke-linejoin="miter">
	<path stroke="black" d="M92.2,662.4 L92.2,653.4  "/>	<g transform="translate(92.2,684.3)" stroke="none" fill="black" font-family="Helvetica" font-size="12.00" text-anchor="middle">
		<text><tspan font-family="Helvetica"> 10</tspan></text>
	</g>
</g>
<g fill="none" color="black" stroke="currentColor" stroke-width="1.00" stroke-linecap="butt" stroke-linejoin="miter">
	<path stroke="black" d="M279.1,662.4 L279.1,653.4  "/>	<g transform="translate(279.1,684.3)" stroke="none" fill="black" font-family="Helvetica" font-size="12.00" text-anchor="middle">
		<text><tspan font-family="Helvetica"> 10.2</tspan></text>
	</g>
</g>
<g fill="none" color="black" stroke="currentColor" stroke-width="1.00" stroke-linecap="butt" stroke-linejoin="miter">
	<path stroke="black" d="M466.0,662.4 L466.0,653.4  "/>	<g transform="translate(466.0,684.3)" stroke="none" fill="black" font-family="Helvetica" font-size="12.00" text-anchor="middle">
		<text><tspan font-family="Helvetica"> 10.4</tspan></text>
	</g>
</g>
<g fill="none" color="black" stroke="currentColor" stroke-width="1.00" stroke-linecap="butt" stroke-linejoin="miter">
	<path stroke="black" d="M652.9,662.4 L652.9,653.4  "/>	<g transform="translate(652.9,684.3)" stroke="none" fill="black" font-family="Helvetica" font-size="12.00" text-anchor="middle">
		<text><tspan font-family="Helvetica"> 10.6</tspan></text>
	</g>
</g>
<g fill="none" color="black" stroke="currentColor" stroke-width="1.00" stroke-linecap="butt" stroke-linejoin="miter">
	<path stroke="black" d="M839.8,662.4 L839.8,653.4  "/>	<g transform="translate(839.8,684.3)" stroke="none" fill="black" font-family="Helvetica" font-size="12.00" text-anchor="middle">
		<text><tspan font-family="Helvetica"> 10.8</tspan></text>
	</g>
</g>
<g fill="none" color="black" stroke="currentColor" stroke-width="1.00" stroke-linecap="butt" stroke-linejoin="miter">
	<path stroke="black" d="M1012.2,662.4 L1003.2,662.4  "/>	<g transform="translate(1020.5,666.3)" stroke="none" fill="black" font-family="Helvetica" font-size="12.00" text-anchor="start">
		<text><tspan font-family="Helvetica"> 0</tspan></text>
	</g>
</g>
<g fill="none" color="black" stroke="currentColor" stroke-width="1.00" stroke-linecap="butt" stroke-linejoin="miter">
	<path stroke="black" d="M1012.2,561.0 L1003.2,561.0  "/>	<g transform="translate(1020.5,564.9)" stroke="none" fill="black" font-family="Helvetica" font-size="12.00" text-anchor="start">
		<text><tspan font-family="Helvetica"> 0.5</tspan></text>
	</g>
</g>
<g fill="none" color="black" stroke="currentColor" stroke-width="1.00" stroke-linecap="butt" stroke-linejoin="miter">
	<path stroke="black" d="M1012.2,459.6 L1003.2,459.6  "/>	<g transform="translate(1020.5,463.5)" stroke="none" fill="black" font-family="Helvetica" font-size="12.00" text-anchor="start">
		<text><tspan font-family="Helvetica"> 1</tspan></text>
	</g>
</g>
<g fill="none" color="black" stroke="currentColor" stroke-width="1.00" stroke-linecap="butt" stroke-linejoin="miter">
	<path stroke="black" d="M1012.2,358.2 L1003.2,358.2  "/>	<g transform="translate(1020.5,362.1)" stroke="none" fill="black" font-family="Helvetica" font-size="12.00" text-anchor="start">
		<text><tspan font-family="Helvetica"> 1.5</tspan></text>
	</g>
</g>
<g fill="none" color="black" stroke="currentColor" stroke-width="1.00" stroke-linecap="butt" stroke-linejoin="miter">
	<path stroke="black" d="M1012.2,256.9 L1003.2,256.9  "/>	<g transform="translate(1020.5,260.8)" stroke="none" fill="black" font-family="Helvetica" font-size="12.00" text-anchor="start">
		<text><tspan font-family="Helvetica"> 2</tspan></text>
	</g>
</g>
<g fill="none" color="black" stroke="currentColor" stroke-width="1.00" stroke-linecap="butt" stroke-linejoin="miter">
	<path stroke="black" d="M1012.2,155.5 L1003.2,155.5  "/>	<g transform="translate(1020.5,159.4)" stroke="none" fill="black" font-family="Helvetica" font-size="12.00" text-anchor="start">
		<text><tspan font-family="Helvetica"> 2.5</tspan></text>
	</g>
</g>
<g fill="none" color="black" stroke="currentColor" stroke-width="1.00" stroke-linecap="butt" stroke-linejoin="miter">
	<path stroke="black" d="M1012.2,54.1 L1003.2,54.1  "/>	<g transform="translate(1020.5,58.0)" stroke="none" fill="black" font-family="Helvetica" font-size="12.00" text-anchor="start">
		<text><tspan font-family="Helvetica"> 3</tspan></text>
	</g>
</g>
<g fill="none" color="black" stroke="currentColor" stroke-width="1.00" stroke-linecap="butt" stroke-linejoin="miter">
</g>
<g fill="none" color="black" stroke="currentColor" stroke-width="1.00" stroke-linecap="butt" stroke-linejoin="miter">
	<path stroke="black" d="M71.9,54.1 L71.9,662.4 L1012.2,662.4 L1012.2,54.1 L71.9,54.1 Z  "/></g>
<g fill="none" color="black" stroke="currentColor" stroke-width="1.00" stroke-linecap="butt" stroke-linejoin="miter">
	<g transform="translate(16.3,358.3) rotate(270)" stroke="none" fill="black" font-family="Helvetica" font-size="12.00" text-anchor="middle">
		<text><tspan font-family="Helvetica">Iterations</tspan></text>
	</g>
</g>
<g fill="none" color="black" stroke="currentColor" stroke-width="1.00" stroke-linecap="butt" stroke-linejoin="miter">
	<g transform="translate(1082.5,358.3) rotate(270)" stroke="none" fill="black" font-family="Helvetica" font-size="12.00" text-anchor="middle">
		<text><tspan font-family="Helvetica">Density (a.u.)</tspan></text>
	</g>
</g>
<g fill="none" color="black" stroke="currentColor" stroke-width="1.00" stroke-linecap="butt" stroke-linejoin="miter">
	<g transform="translate(542.0,711.3)" stroke="none" fill="black" font-family="Helvetica" font-size="12.00" text-anchor="middle">
		<text><tspan font-family="Helvetica">Average time (ms)</tspan></text>
	</g>
</g>
<g fill="none" color="black" stroke="currentColor" stroke-width="1.00" stroke-linecap="butt" stroke-linejoin="miter">
	<g transform="translate(542.0,31.0)" stroke="none" fill="black" font-family="Helvetica" font-size="12.00" text-anchor="middle">
		<text><tspan font-family="Helvetica">Problem 7/p7/12131415161718191010918171615145141313121</tspan></text>
	</g>
</g>
	<g id="gnuplot_plot_1"><title>PDF</title>
<g fill="none" color="black" stroke="currentColor" stroke-width="1.00" stroke-linecap="butt" stroke-linejoin="miter">
	<g transform="translate(1155.4,67.0)" stroke="none" fill="black" font-family="Helvetica" font-size="12.00" text-anchor="start">
		<text><tspan font-family="Helvetica">PDF</tspan></text>
	</g>
</g>
<g fill="none" color="black" stroke="currentColor" stroke-width="1.00" stroke-linecap="butt" stroke-linejoin="miter">
	<g stroke="none" shape-rendering="crispEdges">
		<polygon fill="rgb( 31, 120, 180)" fill-opacity="0.250000" points="1104.9,67.6 1147.1,67.6 1147.1,58.6 1104.9,58.6 "/>
		<polygon fill="rgb( 31, 120, 180)" fill-opacity="0.250000" points="71.9,662.1 73.8,662.0 75.7,662.0 77.6,662.0 79.4,661.9 81.3,661.9 83.2,661.8 85.1,661.8 87.0,661.7 88.9,661.6 90.7,661.5 92.6,661.4 94.5,661.4 96.4,661.3 98.3,661.1 100.2,661.0 102.0,660.9 103.9,660.8 105.8,660.6 107.7,660.4 109.6,660.3 111.5,660.1 113.4,659.9 115.2,659.7 117.1,659.4 119.0,659.2 120.9,658.9 122.8,658.7 124.7,658.4 126.5,658.1 128.4,657.7 130.3,657.4 132.2,657.0 134.1,656.6 136.0,656.2 137.9,655.8 139.7,655.3 141.6,654.8 143.5,654.3 145.4,653.8 147.3,653.3 149.2,652.7 151.0,652.1 152.9,651.5 154.8,650.8 156.7,650.1 158.6,649.4 160.5,648.7 162.3,647.9 164.2,647.1 166.1,646.3 168.0,645.5 169.9,644.7 171.8,643.8 173.7,642.9 175.5,642.0 177.4,641.0 179.3,640.0 181.2,639.1 183.1,638.1 185.0,637.1 186.8,636.0 188.7,635.0 190.6,633.9 192.5,632.9 194.4,631.8 196.3,630.7 198.2,629.6 200.0,628.5 201.9,627.4 203.8,626.3 205.7,625.2 207.6,624.1 209.5,623.1 211.3,622.0 213.2,620.9 215.1,619.9 217.0,618.8 218.9,617.8 220.8,616.8 222.6,615.8 224.5,614.8 226.4,613.9 228.3,612.9 230.2,612.0 232.1,611.1 234.0,610.3 235.8,609.5 237.7,608.6 239.6,607.9 241.5,607.1 243.4,606.4 245.3,605.7 247.1,605.0 249.0,604.3 250.9,603.7 252.8,603.1 254.7,602.5 256.6,601.9 258.5,601.3 260.3,600.8 262.2,600.2 264.1,599.7 266.0,599.2 267.9,598.6 269.8,598.1 271.6,597.6 273.5,597.0 275.4,596.5 277.3,595.9 279.2,595.3 281.1,594.7 282.9,594.1 284.8,593.4 286.7,592.7 288.6,591.9 290.5,591.1 292.4,590.2 294.3,589.3 296.1,588.3 298.0,587.3 299.9,586.1 301.8,584.9 303.7,583.6 305.6,582.3 307.4,580.8 309.3,579.2 311.2,577.5 313.1,575.8 315.0,573.9 316.9,571.9 318.8,569.7 320.6,567.5 322.5,565.1 324.4,562.7 326.3,560.0 328.2,557.3 330.1,554.4 331.9,551.4 333.8,548.3 335.7,545.0 337.6,541.6 339.5,538.0 341.4,534.3 343.2,530.5 345.1,526.6 347.0,522.5 348.9,518.3 350.8,514.0 352.7,509.5 354.6,505.0 356.4,500.3 358.3,495.6 360.2,490.7 362.1,485.7 364.0,480.7 365.9,475.5 367.7,470.3 369.6,465.1 371.5,459.7 373.4,454.4 375.3,448.9 377.2,443.5 379.1,438.0 380.9,432.5 382.8,426.9 384.7,421.4 386.6,415.9 388.5,410.4 390.4,405.0 392.2,399.5 394.1,394.1 396.0,388.8 397.9,383.5 399.8,378.3 401.7,373.2 403.5,368.2 405.4,363.2 407.3,358.4 409.2,353.7 411.1,349.0 413.0,344.5 414.9,340.2 416.7,335.9 418.6,331.8 420.5,327.8 422.4,323.9 424.3,320.2 426.2,316.6 428.0,313.2 429.9,309.9 431.8,306.8 433.7,303.8 435.6,300.9 437.5,298.2 439.4,295.6 441.2,293.1 443.1,290.8 445.0,288.6 446.9,286.5 448.8,284.5 450.7,282.6 452.5,280.8 454.4,279.1 456.3,277.5 458.2,276.0 460.1,274.5 462.0,273.1 463.8,271.7 465.7,270.3 467.6,269.0 469.5,267.7 471.4,266.5 473.3,265.2 475.2,263.9 477.0,262.6 478.9,261.3 480.8,259.9 482.7,258.5 484.6,257.1 486.5,255.6 488.3,254.0 490.2,252.3 492.1,250.6 494.0,248.7 495.9,246.8 497.8,244.8 499.7,242.6 501.5,240.4 503.4,238.0 505.3,235.5 507.2,232.9 509.1,230.2 511.0,227.4 512.8,224.4 514.7,221.3 516.6,218.1 518.5,214.7 520.4,211.2 522.3,207.6 524.1,203.9 526.0,200.1 527.9,196.2 529.8,192.2 531.7,188.0 533.6,183.8 535.5,179.5 537.3,175.2 539.2,170.7 541.1,166.2 543.0,161.7 544.9,157.2 546.8,152.6 548.6,148.0 550.5,143.4 552.4,138.8 554.3,134.2 556.2,129.7 558.1,125.2 560.0,120.8 561.8,116.5 563.7,112.2 565.6,108.1 567.5,104.0 569.4,100.2 571.3,96.4 573.1,92.8 575.0,89.4 576.9,86.2 578.8,83.2 580.7,80.3 582.6,77.7 584.4,75.4 586.3,73.3 588.2,71.4 590.1,69.8 592.0,68.5 593.9,67.4 595.8,66.7 597.6,66.2 599.5,66.1 601.4,66.2 603.3,66.7 605.2,67.4 607.1,68.5 608.9,69.9 610.8,71.7 612.7,73.7 614.6,76.1 616.5,78.7 618.4,81.7 620.3,85.0 622.1,88.6 624.0,92.5 625.9,96.6 627.8,101.1 629.7,105.8 631.6,110.8 633.4,116.0 635.3,121.5 637.2,127.1 639.1,133.1 641.0,139.2 642.9,145.5 644.7,152.0 646.6,158.6 648.5,165.4 650.4,172.4 652.3,179.4 654.2,186.6 656.1,193.9 657.9,201.2 659.8,208.6 661.7,216.1 663.6,223.6 665.5,231.1 667.4,238.7 669.2,246.2 671.1,253.8 673.0,261.3 674.9,268.7 676.8,276.1 678.7,283.5 680.6,290.8 682.4,298.0 684.3,305.1 686.2,312.1 688.1,319.0 690.0,325.8 691.9,332.5 693.7,339.0 695.6,345.5 697.5,351.7 699.4,357.9 701.3,363.9 703.2,369.7 705.0,375.4 706.9,381.0 708.8,386.4 710.7,391.6 712.6,396.7 714.5,401.6 716.4,406.4 718.2,411.0 720.1,415.4 722.0,419.7 723.9,423.9 725.8,427.9 727.7,431.8 729.5,435.5 731.4,439.1 733.3,442.6 735.2,445.9 737.1,449.1 739.0,452.2 740.9,455.2 742.7,458.1 744.6,460.8 746.5,463.5 748.4,466.0 750.3,468.5 752.2,470.9 754.0,473.2 755.9,475.4 757.8,477.6 759.7,479.7 761.6,481.7 763.5,483.7 765.3,485.6 767.2,487.5 769.1,489.3 771.0,491.1 772.9,492.9 774.8,494.6 776.7,496.3 778.5,498.1 780.4,499.7 782.3,501.4 784.2,503.1 786.1,504.8 788.0,506.4 789.8,508.1 791.7,509.8 793.6,511.5 795.5,513.2 797.4,514.9 799.3,516.6 801.2,518.4 803.0,520.1 804.9,521.9 806.8,523.8 808.7,525.6 810.6,527.5 812.5,529.4 814.3,531.3 816.2,533.3 818.1,535.2 820.0,537.3 821.9,539.3 823.8,541.4 825.6,543.5 827.5,545.6 829.4,547.8 831.3,549.9 833.2,552.1 835.1,554.4 837.0,556.6 838.8,558.9 840.7,561.1 842.6,563.4 844.5,565.7 846.4,568.0 848.3,570.4 850.1,572.7 852.0,575.0 853.9,577.4 855.8,579.7 857.7,582.0 859.6,584.4 861.5,586.7 863.3,589.0 865.2,591.3 867.1,593.5 869.0,595.8 870.9,598.0 872.8,600.2 874.6,602.4 876.5,604.6 878.4,606.7 880.3,608.8 882.2,610.9 884.1,612.9 885.9,614.9 887.8,616.8 889.7,618.7 891.6,620.6 893.5,622.4 895.4,624.2 897.3,625.9 899.1,627.6 901.0,629.2 902.9,630.8 904.8,632.4 906.7,633.9 908.6,635.3 910.4,636.7 912.3,638.0 914.2,639.3 916.1,640.6 918.0,641.8 919.9,642.9 921.8,644.0 923.6,645.1 925.5,646.1 927.4,647.1 929.3,648.0 931.2,648.9 933.1,649.8 934.9,650.6 936.8,651.3 938.7,652.0 940.6,652.7 942.5,653.4 944.4,654.0 946.2,654.6 948.1,655.1 950.0,655.6 951.9,656.1 953.8,656.6 955.7,657.0 957.6,657.4 959.4,657.8 961.3,658.1 963.2,658.5 965.1,658.8 967.0,659.1 968.9,659.3 970.7,659.6 972.6,659.8 974.5,660.0 976.4,660.2 978.3,660.4 980.2,660.6 982.1,660.8 983.9,660.9 985.8,661.0 987.7,661.2 989.6,661.3 991.5,661.4 993.4,661.5 995.2,661.6 997.1,661.6 999.0,661.7 1000.9,661.8 1002.8,661.8 1004.7,661.9 1006.5,661.9 1008.4,662.0 1010.3,662.0 1012.2,662.1 1012.2,662.4 1010.3,662.4 1008.4,662.4 1006.5,662.4 1004.7,662.4 1002.8,662.4 1000.9,662.4 999.0,662.4 997.1,662.4 995.2,662.4 993.4,662.4 991.5,662.4 989.6,662.4 987.7,662.4 985.8,662.4 983.9,662.4 982.1,662.4 980.2,662.4 978.3,662.4 976.4,662.4 974.5,662.4 972.6,662.4 970.7,662.4 968.9,662.4 967.0,662.4 965.1,662.4 963.2,662.4 961.3,662.4 959.4,662.4 957.6,662.4 955.7,662.4 953.8,662.4 951.9,662.4 950.0,662.4 948.1,662.4 946.2,662.4 944.4,662.4 942.5,662.4 940.6,662.4 938.7,662.4 936.8,662.4 934.9,662.4 933.1,662.4 931.2,662.4 929.3,662.4 927.4,662.4 925.5,662.4 923.6,662.4 921.8,662.4 919.9,662.4 918.0,662.4 916.1,662.4 914.2,662.4 912.3,662.4 910.4,662.4 908.6,662.4 906.7,662.4 904.8,662.4 902.9,662.4 901.0,662.4 899.1,662.4 897.3,662.4 895.4,662.4 893.5,662.4 891.6,662.4 889.7,662.4 887.8,662.4 885.9,662.4 884.1,662.4 882.2,662.4 880.3,662.4 878.4,662.4 876.5,662.4 874.6,662.4 872.8,662.4 870.9,662.4 869.0,662.4 867.1,662.4 865.2,662.4 863.3,662.4 861.5,662.4 859.6,662.4 857.7,662.4 855.8,662.4 853.9,662.4 852.0,662.4 850.1,662.4 848.3,662.4 846.4,662.4 844.5,662.4 842.6,662.4 840.7,662.4 838.8,662.4 837.0,662.4 835.1,662.4 833.2,662.4 831.3,662.4 829.4,662.4 827.5,662.4 825.6,662.4 823.8,662.4 821.9,662.4 820.0,662.4 818.1,662.4 816.2,662.4 814.3,662.4 812.5,662.4 810.6,662.4 808.7,662.4 806.8,662.4 804.9,662.4 803.0,662.4 801.2,662.4 799.3,662.4 797.4,662.4 795.5,662.4 793.6,662.4 791.7,662.4 789.8,662.4 788.0,662.4 786.1,662.4 784.2,662.4 782.3,662.4 780.4,662.4 778.5,662.4 776.7,662.4 774.8,662.4 772.9,662.4 771.0,662.4 769.1,662.4 767.2,662.4 765.3,662.4 763.5,662.4 761.6,662.4 759.7,662.4 757.8,662.4 755.9,662.4 754.0,662.4 752.2,662.4 750.3,662.4 748.4,662.4 746.5,662.4 744.6,662.4 742.7,662.4 740.9,662.4 739.0,662.4 737.1,662.4 735.2,662.4 733.3,662.4 731.4,662.4 729.5,662.4 727.7,662.4 725.8,662.4 723.9,662.4 722.0,662.4 720.1,662.4 718.2,662.4 716.4,662.4 714.5,662.4 712.6,662.4 710.7,662.4 708.8,662.4 706.9,662.4 705.0,662.4 703.2,662.4 701.3,662.4 699.4,662.4 697.5,662.4 695.6,662.4 693.7,662.4 691.9,662.4 690.0,662.4 688.1,662.4 686.2,662.4 684.3,662.4 682.4,662.4 680.6,662.4 678.7,662.4 676.8,662.4 674.9,662.4 673.0,662.4 671.1,662.4 669.2,662.4 667.4,662.4 665.5,662.4 663.6,662.4 661.7,662.4 659.8,662.4 657.9,662.4 656.1,662.4 654.2,662.4 652.3,662.4 650.4,662.4 648.5,662.4 646.6,662.4 644.7,662.4 642.9,662.4 641.0,662.4 639.1,662.4 637.2,662.4 635.3,662.4 633.4,662.4 631.6,662.4 629.7,662.4 627.8,662.4 625.9,662.4 624.0,662.4 622.1,662.4 620.3,662.4 618.4,662.4 616.5,662.4 614.6,662.4 612.7,662.4 610.8,662.4 608.9,662.4 607.1,662.4 605.2,662.4 603.3,662.4 601.4,662.4 599.5,662.4 597.6,662.4 595.8,662.4 593.9,662.4 592.0,662.4 590.1,662.4 588.2,662.4 586.3,662.4 584.4,662.4 582.6,662.4 580.7,662.4 578.8,662.4 576.9,662.4 575.0,662.4 573.1,662.4 571.3,662.4 569.4,662.4 567.5,662.4 565.6,662.4 563.7,662.4 561.8,662.4 560.0,662.4 558.1,662.4 556.2,662.4 554.3,662.4 552.4,662.4 550.5,662.4 548.6,662.4 546.8,662.4 544.9,662.4 543.0,662.4 541.1,662.4 539.2,662.4 537.3,662.4 535.5,662.4 533.6,662.4 531.7,662.4 529.8,662.4 527.9,662.4 526.0,662.4 524.1,662.4 522.3,662.4 520.4,662.4 518.5,662.4 516.6,662.4 514.7,662.4 512.8,662.4 511.0,662.4 509.1,662.4 507.2,662.4 505.3,662.4 503.4,662.4 501.5,662.4 499.7,662.4 497.8,662.4 495.9,662.4 494.0,662.4 492.1,662.4 490.2,662.4 488.3,662.4 486.5,662.4 484.6,662.4 482.7,662.4 480.8,662.4 478.9,662.4 477.0,662.4 475.2,662.4 473.3,662.4 471.4,662.4 469.5,662.4 467.6,662.4 465.7,662.4 463.8,662.4 462.0,662.4 460.1,662.4 458.2,662.4 456.3,662.4 454.4,662.4 452.5,662.4 450.7,662.4 448.8,662.4 446.9,662.4 445.0,662.4 443.1,662.4 441.2,662.4 439.4,662.4 437.5,662.4 435.6,662.4 433.7,662.4 431.8,662.4 429.9,662.4 428.0,662.4 426.2,662.4 424.3,662.4 422.4,662.4 420.5,662.4 418.6,662.4 416.7,662.4 414.9,662.4 413.0,662.4 411.1,662.4 409.2,662.4 407.3,662.4 405.4,662.4 403.5,662.4 401.7,662.4 399.8,662.4 397.9,662.4 396.0,662.4 394.1,662.4 392.2,662.4 390.4,662.4 388.5,662.4 386.6,662.4 384.7,662.4 382.8,662.4 380.9,662.4 379.1,662.4 377.2,662.4 375.3,662.4 373.4,662.4 371.5,662.4 369.6,662.4 367.7,662.4 365.9,662.4 364.0,662.4 362.1,662.4 360.2,662.4 358.3,662.4 356.4,662.4 354.6,662.4 352.7,662.4 350.8,662.4 348.9,662.4 347.0,662.4 345.1,662.4 343.2,662.4 341.4,662.4 339.5,662.4 337.6,662.4 335.7,662.4 333.8,662.4 331.9,662.4 330.1,662.4 328.2,662.4 326.3,662.4 324.4,662.4 322.5,662.4 320.6,662.4 318.8,662.4 316.9,662.4 315.0,662.4 313.1,662.4 311.2,662.4 309.3,662.4 307.4,662.4 305.6,662.4 303.7,662.4 301.8,662.4 299.9,662.4 298.0,662.4 296.1,662.4 294.3,662.4 292.4,662.4 290.5,662.4 288.6,662.4 286.7,662.4 284.8,662.4 282.9,662.4 281.1,662.4 279.2,662.4 277.3,662.4 275.4,662.4 273.5,662.4 271.6,662.4 269.8,662.4 267.9,662.4 266.0,662.4 264.1,662.4 262.2,662.4 260.3,662.4 258.5,662.4 256.6,662.4 254.7,662.4 252.8,662.4 250.9,662.4 249.0,662.4 247.1,662.4 245.3,662.4 243.4,662.4 241.5,662.4 239.6,662.4 237.7,662.4 235.8,662.4 234.0,662.4 232.1,662.4 230.2,662.4 228.3,662.4 226.4,662.4 224.5,662.4 222.6,662.4 220.8,662.4 218.9,662.4 217.0,662.4 215.1,662.4 213.2,662.4 211.3,662.4 209.5,662.4 207.6,662.4 205.7,662.4 203.8,662.4 201.9,662.4 200.0,662.4 198.2,662.4 196.3,662.4 194.4,662.4 192.5,662.4 190.6,662.4 188.7,662.4 186.8,662.4 185.0,662.4 183.1,662.4 181.2,662.4 179.3,662.4 177.4,662.4 175.5,662.4 173.7,662.4 171.8,662.4 169.9,662.4 168.0,662.4 166.1,662.4 164.2,662.4 162.3,662.4 160.5,662.4 158.6,662.4 156.7,662.4 154.8,662.4 152.9,662.4 151.0,662.4 149.2,662.4 147.3,662.4 145.4,662.4 143.5,662.4 141.6,662.4 139.7,662.4 137.9,662.4 136.0,662.4 134.1,662.4 132.2,662.4 130.3,662.4 128.4,662.4 126.5,662.4 124.7,662.4 122.8,662.4 120.9,662.4 119.0,662.4 117.1,662.4 115.2,662.4 113.4,662.4 111.5,662.4 109.6,662.4 107.7,662.4 105.8,662.4 103.9,662.4 102.0,662.4 100.2,662.4 98.3,662.4 96.4,662.4 94.5,662.4 92.6,662.4 90.7,662.4 88.9,662.4 87.0,662.4 85.1,662.4 83.2,662.4 81.3,662.4 79.4,662.4 77.6,662.4 75.7,662.4 73.8,662.4 71.9,662.4 "/>
	</g>
</g>
	</g>
	<g id="gnuplot_plot_2"><title>Mean</title>
<g fill="none" color="white" stroke="rgb( 31, 120, 180)" stroke-width="2.00" stroke-linecap="butt" stroke-linejoin="miter">
</g>
<g fill="none" color="black" stroke="currentColor" stroke-width="2.00" stroke-linecap="butt" stroke-linejoin="miter">
	<g transform="translate(1155.4,85.0)" stroke="none" fill="black" font-family="Helvetica" font-size="12.00" text-anchor="start">
		<text><tspan font-family="Helvetica">Mean</tspan></text>
	</g>
</g>
<g fill="none" color="black" stroke="currentColor" stroke-width="2.00" stroke-linecap="butt" stroke-linejoin="miter">
	<path stroke="rgb( 31, 120, 180)" d="M1104.9,81.1 L1147.1,81.1 M565.1,662.4 L565.1,54.1  "/></g>
	</g>
	<g id="gnuplot_plot_3"><title>"Clean" sample</title>
<g fill="none" color="white" stroke="rgb( 31, 120, 180)" stroke-width="1.00" stroke-linecap="butt" stroke-linejoin="miter">
</g>
<g fill="none" color="black" stroke="currentColor" stroke-width="1.00" stroke-linecap="butt" stroke-linejoin="miter">
	<g transform="translate(1155.4,103.0)" stroke="none" fill="black" font-family="Helvetica" font-size="12.00" text-anchor="start">
		<text><tspan font-family="Helvetica">"Clean" sample</tspan></text>
	</g>
</g>
<g fill="none" color="black" stroke="currentColor" stroke-width="1.00" stroke-linecap="butt" stroke-linejoin="miter">
	<use xlink:href="#gpPt6" transform="translate(237.5,656.3) scale(3.38)" color="rgb( 31, 120, 180)"/>
	<use xlink:href="#gpPt6" transform="translate(245.6,650.2) scale(3.38)" color="rgb( 31, 120, 180)"/>
	<use xlink:href="#gpPt6" transform="translate(392.6,644.2) scale(3.38)" color="rgb( 31, 120, 180)"/>
	<use xlink:href="#gpPt6" transform="translate(430.9,638.1) scale(3.38)" color="rgb( 31, 120, 180)"/>
	<use xlink:href="#gpPt6" transform="translate(286.4,632.0) scale(3.38)" color="rgb( 31, 120, 180)"/>
	<use xlink:href="#gpPt6" transform="translate(253.7,625.9) scale(3.38)" color="rgb( 31, 120, 180)"/>
	<use xlink:href="#gpPt6" transform="translate(432.9,619.8) scale(3.38)" color="rgb( 31, 120, 180)"/>
	<use xlink:href="#gpPt6" transform="translate(532.0,613.7) scale(3.38)" color="rgb( 31, 120, 180)"/>
	<use xlink:href="#gpPt6" transform="translate(428.4,607.7) scale(3.38)" color="rgb( 31, 120, 180)"/>
	<use xlink:href="#gpPt6" transform="translate(611.4,601.6) scale(3.38)" color="rgb( 31, 120, 180)"/>
	<use xlink:href="#gpPt6" transform="translate(549.1,595.5) scale(3.38)" color="rgb( 31, 120, 180)"/>
	<use xlink:href="#gpPt6" transform="translate(427.4,589.4) scale(3.38)" color="rgb( 31, 120, 180)"/>
	<use xlink:href="#gpPt6" transform="translate(418.9,583.3) scale(3.38)" color="rgb( 31, 120, 180)"/>
	<use xlink:href="#gpPt6" transform="translate(525.8,577.2) scale(3.38)" color="rgb( 31, 120, 180)"/>
	<use xlink:href="#gpPt6" transform="translate(541.6,571.2) scale(3.38)" color="rgb( 31, 120, 180)"/>
	<use xlink:href="#gpPt6" transform="translate(463.4,565.1) scale(3.38)" color="rgb( 31, 120, 180)"/>
	<use xlink:href="#gpPt6" transform="translate(466.3,559.0) scale(3.38)" color="rgb( 31, 120, 180)"/>
	<use xlink:href="#gpPt6" transform="translate(551.7,552.9) scale(3.38)" color="rgb( 31, 120, 180)"/>
	<use xlink:href="#gpPt6" transform="translate(426.8,546.8) scale(3.38)" color="rgb( 31, 120, 180)"/>
	<use xlink:href="#gpPt6" transform="translate(524.7,540.7) scale(3.38)" color="rgb( 31, 120, 180)"/>
	<use xlink:href="#gpPt6" transform="translate(497.6,534.7) scale(3.38)" color="rgb( 31, 120, 180)"/>
	<use xlink:href="#gpPt6" transform="translate(436.3,528.6) scale(3.38)" color="rgb( 31, 120, 180)"/>
	<use xlink:href="#gpPt6" transform="translate(740.6,522.5) scale(3.38)" color="rgb( 31, 120, 180)"/>
	<use xlink:href="#gpPt6" transform="translate(680.1,516.4) scale(3.38)" color="rgb( 31, 120, 180)"/>
	<use xlink:href="#gpPt6" transform="translate(731.7,510.3) scale(3.38)" color="rgb( 31, 120, 180)"/>
	<use xlink:href="#gpPt6" transform="translate(423.7,504.2) scale(3.38)" color="rgb( 31, 120, 180)"/>
	<use xlink:href="#gpPt6" transform="translate(539.7,498.2) scale(3.38)" color="rgb( 31, 120, 180)"/>
	<use xlink:href="#gpPt6" transform="translate(445.8,492.1) scale(3.38)" color="rgb( 31, 120, 180)"/>
	<use xlink:href="#gpPt6" transform="translate(522.6,486.0) scale(3.38)" color="rgb( 31, 120, 180)"/>
	<use xlink:href="#gpPt6" transform="translate(489.4,479.9) scale(3.38)" color="rgb( 31, 120, 180)"/>
	<use xlink:href="#gpPt6" transform="translate(463.3,473.8) scale(3.38)" color="rgb( 31, 120, 180)"/>
	<use xlink:href="#gpPt6" transform="translate(507.0,467.7) scale(3.38)" color="rgb( 31, 120, 180)"/>
	<use xlink:href="#gpPt6" transform="translate(339.9,461.7) scale(3.38)" color="rgb( 31, 120, 180)"/>
	<use xlink:href="#gpPt6" transform="translate(389.8,455.6) scale(3.38)" color="rgb( 31, 120, 180)"/>
	<use xlink:href="#gpPt6" transform="translate(693.7,449.5) scale(3.38)" color="rgb( 31, 120, 180)"/>
	<use xlink:href="#gpPt6" transform="translate(809.2,443.4) scale(3.38)" color="rgb( 31, 120, 180)"/>
	<use xlink:href="#gpPt6" transform="translate(816.1,437.3) scale(3.38)" color="rgb( 31, 120, 180)"/>
	<use xlink:href="#gpPt6" transform="translate(792.9,431.2) scale(3.38)" color="rgb( 31, 120, 180)"/>
	<use xlink:href="#gpPt6" transform="translate(638.1,425.2) scale(3.38)" color="rgb( 31, 120, 180)"/>
	<use xlink:href="#gpPt6" transform="translate(612.1,419.1) scale(3.38)" color="rgb( 31, 120, 180)"/>
	<use xlink:href="#gpPt6" transform="translate(568.4,413.0) scale(3.38)" color="rgb( 31, 120, 180)"/>
	<use xlink:href="#gpPt6" transform="translate(630.1,406.9) scale(3.38)" color="rgb( 31, 120, 180)"/>
	<use xlink:href="#gpPt6" transform="translate(611.1,400.8) scale(3.38)" color="rgb( 31, 120, 180)"/>
	<use xlink:href="#gpPt6" transform="translate(438.6,394.7) scale(3.38)" color="rgb( 31, 120, 180)"/>
	<use xlink:href="#gpPt6" transform="translate(621.9,388.7) scale(3.38)" color="rgb( 31, 120, 180)"/>
	<use xlink:href="#gpPt6" transform="translate(838.1,382.6) scale(3.38)" color="rgb( 31, 120, 180)"/>
	<use xlink:href="#gpPt6" transform="translate(606.2,376.5) scale(3.38)" color="rgb( 31, 120, 180)"/>
	<use xlink:href="#gpPt6" transform="translate(601.9,370.4) scale(3.38)" color="rgb( 31, 120, 180)"/>
	<use xlink:href="#gpPt6" transform="translate(601.6,364.3) scale(3.38)" color="rgb( 31, 120, 180)"/>
	<use xlink:href="#gpPt6" transform="translate(560.5,358.2) scale(3.38)" color="rgb( 31, 120, 180)"/>
	<use xlink:href="#gpPt6" transform="translate(604.8,352.2) scale(3.38)" color="rgb( 31, 120, 180)"/>
	<use xlink:href="#gpPt6" transform="translate(618.8,346.1) scale(3.38)" color="rgb( 31, 120, 180)"/>
	<use xlink:href="#gpPt6" transform="translate(435.7,340.0) scale(3.38)" color="rgb( 31, 120, 180)"/>
	<use xlink:href="#gpPt6" transform="translate(518.1,333.9) scale(3.38)" color="rgb( 31, 120, 180)"/>
	<use xlink:href="#gpPt6" transform="translate(607.3,327.8) scale(3.38)" color="rgb( 31, 120, 180)"/>
	<use xlink:href="#gpPt6" transform="translate(673.3,321.8) scale(3.38)" color="rgb( 31, 120, 180)"/>
	<use xlink:href="#gpPt6" transform="translate(632.1,315.7) scale(3.38)" color="rgb( 31, 120, 180)"/>
	<use xlink:href="#gpPt6" transform="translate(598.3,309.6) scale(3.38)" color="rgb( 31, 120, 180)"/>
	<use xlink:href="#gpPt6" transform="translate(603.2,303.5) scale(3.38)" color="rgb( 31, 120, 180)"/>
	<use xlink:href="#gpPt6" transform="translate(671.2,297.4) scale(3.38)" color="rgb( 31, 120, 180)"/>
	<use xlink:href="#gpPt6" transform="translate(630.0,291.3) scale(3.38)" color="rgb( 31, 120, 180)"/>
	<use xlink:href="#gpPt6" transform="translate(596.8,285.3) scale(3.38)" color="rgb( 31, 120, 180)"/>
	<use xlink:href="#gpPt6" transform="translate(582.9,279.2) scale(3.38)" color="rgb( 31, 120, 180)"/>
	<use xlink:href="#gpPt6" transform="translate(601.1,273.1) scale(3.38)" color="rgb( 31, 120, 180)"/>
	<use xlink:href="#gpPt6" transform="translate(647.9,267.0) scale(3.38)" color="rgb( 31, 120, 180)"/>
	<use xlink:href="#gpPt6" transform="translate(740.6,260.9) scale(3.38)" color="rgb( 31, 120, 180)"/>
	<use xlink:href="#gpPt6" transform="translate(491.7,254.8) scale(3.38)" color="rgb( 31, 120, 180)"/>
	<use xlink:href="#gpPt6" transform="translate(522.6,248.8) scale(3.38)" color="rgb( 31, 120, 180)"/>
	<use xlink:href="#gpPt6" transform="translate(403.7,242.7) scale(3.38)" color="rgb( 31, 120, 180)"/>
	<use xlink:href="#gpPt6" transform="translate(590.2,236.6) scale(3.38)" color="rgb( 31, 120, 180)"/>
	<use xlink:href="#gpPt6" transform="translate(643.1,230.5) scale(3.38)" color="rgb( 31, 120, 180)"/>
	<use xlink:href="#gpPt6" transform="translate(640.8,224.4) scale(3.38)" color="rgb( 31, 120, 180)"/>
	<use xlink:href="#gpPt6" transform="translate(821.1,218.3) scale(3.38)" color="rgb( 31, 120, 180)"/>
	<use xlink:href="#gpPt6" transform="translate(599.3,212.3) scale(3.38)" color="rgb( 31, 120, 180)"/>
	<use xlink:href="#gpPt6" transform="translate(596.6,206.2) scale(3.38)" color="rgb( 31, 120, 180)"/>
	<use xlink:href="#gpPt6" transform="translate(748.4,200.1) scale(3.38)" color="rgb( 31, 120, 180)"/>
	<use xlink:href="#gpPt6" transform="translate(690.0,194.0) scale(3.38)" color="rgb( 31, 120, 180)"/>
	<use xlink:href="#gpPt6" transform="translate(440.3,187.9) scale(3.38)" color="rgb( 31, 120, 180)"/>
	<use xlink:href="#gpPt6" transform="translate(452.0,181.8) scale(3.38)" color="rgb( 31, 120, 180)"/>
	<use xlink:href="#gpPt6" transform="translate(470.4,175.8) scale(3.38)" color="rgb( 31, 120, 180)"/>
	<use xlink:href="#gpPt6" transform="translate(641.1,169.7) scale(3.38)" color="rgb( 31, 120, 180)"/>
	<use xlink:href="#gpPt6" transform="translate(577.3,163.6) scale(3.38)" color="rgb( 31, 120, 180)"/>
	<use xlink:href="#gpPt6" transform="translate(552.3,157.5) scale(3.38)" color="rgb( 31, 120, 180)"/>
	<use xlink:href="#gpPt6" transform="translate(721.1,151.4) scale(3.38)" color="rgb( 31, 120, 180)"/>
	<use xlink:href="#gpPt6" transform="translate(776.3,145.3) scale(3.38)" color="rgb( 31, 120, 180)"/>
	<use xlink:href="#gpPt6" transform="translate(434.4,139.3) scale(3.38)" color="rgb( 31, 120, 180)"/>
	<use xlink:href="#gpPt6" transform="translate(846.6,133.2) scale(3.38)" color="rgb( 31, 120, 180)"/>
	<use xlink:href="#gpPt6" transform="translate(388.3,127.1) scale(3.38)" color="rgb( 31, 120, 180)"/>
	<use xlink:href="#gpPt6" transform="translate(582.3,121.0) scale(3.38)" color="rgb( 31, 120, 180)"/>
	<use xlink:href="#gpPt6" transform="translate(617.3,114.9) scale(3.38)" color="rgb( 31, 120, 180)"/>
	<use xlink:href="#gpPt6" transform="translate(611.8,108.8) scale(3.38)" color="rgb( 31, 120, 180)"/>
	<use xlink:href="#gpPt6" transform="translate(618.5,102.8) scale(3.38)" color="rgb( 31, 120, 180)"/>
	<use xlink:href="#gpPt6" transform="translate(552.5,96.7) scale(3.38)" color="rgb( 31, 120, 180)"/>
	<use xlink:href="#gpPt6" transform="translate(597.0,90.6) scale(3.38)" color="rgb( 31, 120, 180)"/>
	<use xlink:href="#gpPt6" transform="translate(605.5,84.5) scale(3.38)" color="rgb( 31, 120, 180)"/>
	<use xlink:href="#gpPt6" transform="translate(778.3,78.4) scale(3.38)" color="rgb( 31, 120, 180)"/>
	<use xlink:href="#gpPt6" transform="translate(659.9,72.3) scale(3.38)" color="rgb( 31, 120, 180)"/>
	<use xlink:href="#gpPt6" transform="translate(675.3,66.3) scale(3.38)" color="rgb( 31, 120, 180)"/>
	<use xlink:href="#gpPt6" transform="translate(608.2,60.2) scale(3.38)" color="rgb( 31, 120, 180)"/>
	<use xlink:href="#gpPt6" transform="translate(401.2,54.1) scale(3.38)" color="rgb( 31, 120, 180)"/>
	<use xlink:href="#gpPt6" transform="translate(1126.0,99.1) scale(3.38)" color="rgb( 31, 120, 180)"/>
</g>
	</g>
	<g id="gnuplot_plot_4"><title>gnuplot_plot_4</title>
<g fill="none" color="white" stroke="rgb( 31, 120, 180)" stroke-width="2.00" stroke-linecap="butt" stroke-linejoin="miter">
</g>
<g fill="none" color="black" stroke="currentColor" stroke-width="2.00" stroke-linecap="butt" stroke-linejoin="miter">
	<path stroke="rgb(255, 127,   0)" d="M208.0,662.4 L208.0,54.1  "/></g>
	</g>
	<g id="gnuplot_plot_5"><title>gnuplot_plot_5</title>
<g fill="none" color="black" stroke="currentColor" stroke-width="2.00" stroke-linecap="butt" stroke-linejoin="miter">
	<path stroke="rgb(255, 127,   0)" d="M889.0,662.4 L889.0,54.1  "/></g>
	</g>
	<g id="gnuplot_plot_6"><title>gnuplot_plot_6</title>
<g fill="none" color="black" stroke="currentColor" stroke-width="2.00" stroke-linecap="butt" stroke-linejoin="miter">
</g>
	</g>
	<g id="gnuplot_plot_7"><title>gnuplot_plot_7</title>
<g fill="none" color="black" stroke="currentColor" stroke-width="2.00" stroke-linecap="butt" stroke-linejoin="miter">
</g>
	</g>
<g fill="none" color="black" stroke="currentColor" stroke-width="2.00" stroke-linecap="butt" stroke-linejoin="miter">
</g>
<g fill="none" color="black" stroke="black" stroke-width="1.00" stroke-linecap="butt" stroke-linejoin="miter">
</g>
<g fill="none" color="black" stroke="currentColor" stroke-width="1.00" stroke-linecap="butt" stroke-linejoin="miter">
	<path stroke="black" d="M71.9,54.1 L71.9,662.4 L1012.2,662.4 L1012.2,54.1 L71.9,54.1 Z  "/></g>
<g fill="none" color="black" stroke="currentColor" stroke-width="1.00" stroke-linecap="butt" stroke-linejoin="miter">
</g>
</g>
</svg>