<?xml version="1.0" encoding="UTF-8" standalone="no"?>
<svg viewBox="0 0 1280 720" xmlns="http://www.w3.org/2000/svg" xmlns:xlink="http://www.w3.org/1999/xlink">

<title>Gnuplot</title>
<desc>Produced by GNUPLOT 5.2 patchlevel 2 </desc>

<g id="gnuplot_canvas">

<rect x="0" y="0" width="1280" height="720" fill="none"/>
<defs>

	<circle id="gpDot" r="0.5" stroke-width="0.5"/>
	<path id="gpPt0" stroke-width="0.222" stroke="currentColor" d="M-1,0 h2 M0,-1 v2"/>
	<path id="gpPt1" stroke-width="0.222" stroke="currentColor" d="M-1,-1 L1,1 M1,-1 L-1,1"/>
	<path id="gpPt2" stroke-width="0.222" stroke="currentColor" d="M-1,0 L1,0 M0,-1 L0,1 M-1,-1 L1,1 M-1,1 L1,-1"/>
	<rect id="gpPt3" stroke-width="0.222" stroke="currentColor" x="-1" y="-1" width="2" height="2"/>
	<rect id="gpPt4" stroke-width="0.222" stroke="currentColor" fill="currentColor" x="-1" y="-1" width="2" height="2"/>
	<circle id="gpPt5" stroke-width="0.222" stroke="currentColor" cx="0" cy="0" r="1"/>
	<use xlink:href="#gpPt5" id="gpPt6" fill="currentColor" stroke="none"/>
	<path id="gpPt7" stroke-width="0.222" stroke="currentColor" d="M0,-1.33 L-1.33,0.67 L1.33,0.67 z"/>
	<use xlink:href="#gpPt7" id="gpPt8" fill="currentColor" stroke="none"/>
	<use xlink:href="#gpPt7" id="gpPt9" stroke="currentColor" transform="rotate(180)"/>
	<use xlink:href="#gpPt9" id="gpPt10" fill="currentColor" stroke="none"/>
	<use xlink:href="#gpPt3" id="gpPt11" stroke="currentColor" transform="rotate(45)"/>
	<use xlink:href="#gpPt11" id="gpPt12" fill="currentColor" stroke="none"/>
	<path id="gpPt13" stroke-width="0.222" stroke="currentColor" d="M0,1.330 L1.265,0.411 L0.782,-1.067 L-0.782,-1.076 L-1.265,0.411 z"/>
	<use xlink:href="#gpPt13" id="gpPt14" fill="currentColor" stroke="none"/>
	<filter id="textbox" filterUnits="objectBoundingBox" x="0" y="0" height="1" width="1">
	  <feFlood flood-color="white" flood-opacity="1" result="bgnd"/>
	  <feComposite in="SourceGraphic" in2="bgnd" operator="atop"/>
	</filter>
	<filter id="greybox" filterUnits="objectBoundingBox" x="0" y="0" height="1" width="1">
	  <feFlood flood-color="lightgrey" flood-opacity="1" result="grey"/>
	  <feComposite in="SourceGraphic" in2="grey" operator="atop"/>
	</filter>
</defs>
<g fill="none" color="white" stroke="currentColor" stroke-width="1.00" stroke-linecap="butt" stroke-linejoin="miter">
</g>
<g fill="none" color="black" stroke="currentColor" stroke-width="1.00" stroke-linecap="butt" stroke-linejoin="miter">
	<path stroke="black" d="M63.6,662.4 L72.6,662.4  "/>	<g transform="translate(55.3,666.3)" stroke="none" fill="black" font-family="Helvetica" font-size="12.00" text-anchor="end">
		<text><tspan font-family="Helvetica"> 0</tspan></text>
	</g>
</g>
<g fill="none" color="black" stroke="currentColor" stroke-width="1.00" stroke-linecap="butt" stroke-linejoin="miter">
	<path stroke="black" d="M63.6,540.7 L72.6,540.7  "/>	<g transform="translate(55.3,544.6)" stroke="none" fill="black" font-family="Helvetica" font-size="12.00" text-anchor="end">
		<text><tspan font-family="Helvetica"> 2</tspan></text>
	</g>
</g>
<g fill="none" color="black" stroke="currentColor" stroke-width="1.00" stroke-linecap="butt" stroke-linejoin="miter">
	<path stroke="black" d="M63.6,419.1 L72.6,419.1  "/>	<g transform="translate(55.3,423.0)" stroke="none" fill="black" font-family="Helvetica" font-size="12.00" text-anchor="end">
		<text><tspan font-family="Helvetica"> 4</tspan></text>
	</g>
</g>
<g fill="none" color="black" stroke="currentColor" stroke-width="1.00" stroke-linecap="butt" stroke-linejoin="miter">
	<path stroke="black" d="M63.6,297.4 L72.6,297.4  "/>	<g transform="translate(55.3,301.3)" stroke="none" fill="black" font-family="Helvetica" font-size="12.00" text-anchor="end">
		<text><tspan font-family="Helvetica"> 6</tspan></text>
	</g>
</g>
<g fill="none" color="black" stroke="currentColor" stroke-width="1.00" stroke-linecap="butt" stroke-linejoin="miter">
	<path stroke="black" d="M63.6,175.8 L72.6,175.8  "/>	<g transform="translate(55.3,179.7)" stroke="none" fill="black" font-family="Helvetica" font-size="12.00" text-anchor="end">
		<text><tspan font-family="Helvetica"> 8</tspan></text>
	</g>
</g>
<g fill="none" color="black" stroke="currentColor" stroke-width="1.00" stroke-linecap="butt" stroke-linejoin="miter">
	<path stroke="black" d="M63.6,54.1 L72.6,54.1  "/>	<g transform="translate(55.3,58.0)" stroke="none" fill="black" font-family="Helvetica" font-size="12.00" text-anchor="end">
		<text><tspan font-family="Helvetica"> 10</tspan></text>
	</g>
</g>
<g fill="none" color="black" stroke="currentColor" stroke-width="1.00" stroke-linecap="butt" stroke-linejoin="miter">
	<path stroke="black" d="M202.3,662.4 L202.3,653.4  "/>	<g transform="translate(202.3,684.3)" stroke="none" fill="black" font-family="Helvetica" font-size="12.00" text-anchor="middle">
		<text><tspan font-family="Helvetica"> 9.8</tspan></text>
	</g>
</g>
<g fill="none" color="black" stroke="currentColor" stroke-width="1.00" stroke-linecap="butt" stroke-linejoin="miter">
	<path stroke="black" d="M367.3,662.4 L367.3,653.4  "/>	<g transform="translate(367.3,684.3)" stroke="none" fill="black" font-family="Helvetica" font-size="12.00" text-anchor="middle">
		<text><tspan font-family="Helvetica"> 9.9</tspan></text>
	</g>
</g>
<g fill="none" color="black" stroke="currentColor" stroke-width="1.00" stroke-linecap="butt" stroke-linejoin="miter">
	<path stroke="black" d="M532.3,662.4 L532.3,653.4  "/>	<g transform="translate(532.3,684.3)" stroke="none" fill="black" font-family="Helvetica" font-size="12.00" text-anchor="middle">
		<text><tspan font-family="Helvetica"> 10</tspan></text>
	</g>
</g>
<g fill="none" color="black" stroke="currentColor" stroke-width="1.00" stroke-linecap="butt" stroke-linejoin="miter">
	<path stroke="black" d="M697.3,662.4 L697.3,653.4  "/>	<g transform="translate(697.3,684.3)" stroke="none" fill="black" font-family="Helvetica" font-size="12.00" text-anchor="middle">
		<text><tspan font-family="Helvetica"> 10.1</tspan></text>
	</g>
</g>
<g fill="none" color="black" stroke="currentColor" stroke-width="1.00" stroke-linecap="butt" stroke-linejoin="miter">
	<path stroke="black" d="M862.2,662.4 L862.2,653.4  "/>	<g transform="translate(862.2,684.3)" stroke="none" fill="black" font-family="Helvetica" font-size="12.00" text-anchor="middle">
		<text><tspan font-family="Helvetica"> 10.2</tspan></text>
	</g>
</g>
<g fill="none" color="black" stroke="currentColor" stroke-width="1.00" stroke-linecap="butt" stroke-linejoin="miter">
	<path stroke="black" d="M1027.2,662.4 L1027.2,653.4  "/>	<g transform="translate(1027.2,684.3)" stroke="none" fill="black" font-family="Helvetica" font-size="12.00" text-anchor="middle">
		<text><tspan font-family="Helvetica"> 10.3</tspan></text>
	</g>
</g>
<g fill="none" color="black" stroke="currentColor" stroke-width="1.00" stroke-linecap="butt" stroke-linejoin="miter">
	<path stroke="black" d="M1028.8,662.4 L1019.8,662.4  "/>	<g transform="translate(1037.1,666.3)" stroke="none" fill="black" font-family="Helvetica" font-size="12.00" text-anchor="start">
		<text><tspan font-family="Helvetica"> 0</tspan></text>
	</g>
</g>
<g fill="none" color="black" stroke="currentColor" stroke-width="1.00" stroke-linecap="butt" stroke-linejoin="miter">
	<path stroke="black" d="M1028.8,561.0 L1019.8,561.0  "/>	<g transform="translate(1037.1,564.9)" stroke="none" fill="black" font-family="Helvetica" font-size="12.00" text-anchor="start">
		<text><tspan font-family="Helvetica"> 1</tspan></text>
	</g>
</g>
<g fill="none" color="black" stroke="currentColor" stroke-width="1.00" stroke-linecap="butt" stroke-linejoin="miter">
	<path stroke="black" d="M1028.8,459.6 L1019.8,459.6  "/>	<g transform="translate(1037.1,463.5)" stroke="none" fill="black" font-family="Helvetica" font-size="12.00" text-anchor="start">
		<text><tspan font-family="Helvetica"> 2</tspan></text>
	</g>
</g>
<g fill="none" color="black" stroke="currentColor" stroke-width="1.00" stroke-linecap="butt" stroke-linejoin="miter">
	<path stroke="black" d="M1028.8,358.2 L1019.8,358.2  "/>	<g transform="translate(1037.1,362.1)" stroke="none" fill="black" font-family="Helvetica" font-size="12.00" text-anchor="start">
		<text><tspan font-family="Helvetica"> 3</tspan></text>
	</g>
</g>
<g fill="none" color="black" stroke="currentColor" stroke-width="1.00" stroke-linecap="butt" stroke-linejoin="miter">
	<path stroke="black" d="M1028.8,256.9 L1019.8,256.9  "/>	<g transform="translate(1037.1,260.8)" stroke="none" fill="black" font-family="Helvetica" font-size="12.00" text-anchor="start">
		<text><tspan font-family="Helvetica"> 4</tspan></text>
	</g>
</g>
<g fill="none" color="black" stroke="currentColor" stroke-width="1.00" stroke-linecap="butt" stroke-linejoin="miter">
	<path stroke="black" d="M1028.8,155.5 L1019.8,155.5  "/>	<g transform="translate(1037.1,159.4)" stroke="none" fill="black" font-family="Helvetica" font-size="12.00" text-anchor="start">
		<text><tspan font-family="Helvetica"> 5</tspan></text>
	</g>
</g>
<g fill="none" color="black" stroke="currentColor" stroke-width="1.00" stroke-linecap="butt" stroke-linejoin="miter">
	<path stroke="black" d="M1028.8,54.1 L1019.8,54.1  "/>	<g transform="translate(1037.1,58.0)" stroke="none" fill="black" font-family="Helvetica" font-size="12.00" text-anchor="start">
		<text><tspan font-family="Helvetica"> 6</tspan></text>
	</g>
</g>
<g fill="none" color="black" stroke="currentColor" stroke-width="1.00" stroke-linecap="butt" stroke-linejoin="miter">
</g>
<g fill="none" color="black" stroke="currentColor" stroke-width="1.00" stroke-linecap="butt" stroke-linejoin="miter">
	<path stroke="black" d="M63.6,54.1 L63.6,662.4 L1028.8,662.4 L1028.8,54.1 L63.6,54.1 Z  "/></g>
<g fill="none" color="black" stroke="currentColor" stroke-width="1.00" stroke-linecap="butt" stroke-linejoin="miter">
	<g transform="translate(16.3,358.3) rotate(270)" stroke="none" fill="black" font-family="Helvetica" font-size="12.00" text-anchor="middle">
		<text><tspan font-family="Helvetica">Iterations (x 10</tspan><tspan font-family="Helvetica" font-size="9.6" dy="-6.00px">3</tspan><tspan font-family="Helvetica" font-size="12.0" dy="6.00px">)</tspan></text>
	</g>
</g>
<g fill="none" color="black" stroke="currentColor" stroke-width="1.00" stroke-linecap="butt" stroke-linejoin="miter">
	<g transform="translate(1082.5,358.3) rotate(270)" stroke="none" fill="black" font-family="Helvetica" font-size="12.00" text-anchor="middle">
		<text><tspan font-family="Helvetica">Density (a.u.)</tspan></text>
	</g>
</g>
<g fill="none" color="black" stroke="currentColor" stroke-width="1.00" stroke-linecap="butt" stroke-linejoin="miter">
	<g transform="translate(546.2,711.3)" stroke="none" fill="black" font-family="Helvetica" font-size="12.00" text-anchor="middle">
		<text><tspan font-family="Helvetica">Average time (us)</tspan></text>
	</g>
</g>
<g fill="none" color="black" stroke="currentColor" stroke-width="1.00" stroke-linecap="butt" stroke-linejoin="miter">
	<g transform="translate(546.2,31.0)" stroke="none" fill="black" font-family="Helvetica" font-size="12.00" text-anchor="middle">
		<text><tspan font-family="Helvetica">Problem 7/p7_memoize/12131415161718191010918171615145141313121</tspan></text>
	</g>
</g>
	<g id="gnuplot_plot_1"><title>PDF</title>
<g fill="none" color="black" stroke="currentColor" stroke-width="1.00" stroke-linecap="butt" stroke-linejoin="miter">
	<g transform="translate(1155.4,67.0)" stroke="none" fill="black" font-family="Helvetica" font-size="12.00" text-anchor="start">
		<text><tspan font-family="Helvetica">PDF</tspan></text>
	</g>
</g>
<g fill="none" color="black" stroke="currentColor" stroke-width="1.00" stroke-linecap="butt" stroke-linejoin="miter">
	<g stroke="none" shape-rendering="crispEdges">
		<polygon fill="rgb( 31, 120, 180)" fill-opacity="0.250000" points="1104.9,67.6 1147.1,67.6 1147.1,58.6 1104.9,58.6 "/>
		<polygon fill="rgb( 31, 120, 180)" fill-opacity="0.250000" points="63.6,661.5 65.5,661.4 67.5,661.3 69.4,661.1 71.3,661.0 73.3,660.9 75.2,660.7 77.1,660.5 79.1,660.4 81.0,660.2 82.9,659.9 84.9,659.7 86.8,659.5 88.7,659.2 90.7,658.9 92.6,658.5 94.5,658.2 96.5,657.8 98.4,657.4 100.4,657.0 102.3,656.5 104.2,656.0 106.2,655.4 108.1,654.8 110.0,654.2 112.0,653.5 113.9,652.7 115.8,651.9 117.8,651.1 119.7,650.2 121.6,649.2 123.6,648.2 125.5,647.1 127.4,645.9 129.4,644.7 131.3,643.3 133.2,641.9 135.2,640.4 137.1,638.9 139.0,637.2 141.0,635.4 142.9,633.5 144.8,631.5 146.8,629.4 148.7,627.2 150.6,624.9 152.6,622.5 154.5,619.9 156.4,617.2 158.4,614.4 160.3,611.4 162.2,608.3 164.2,605.0 166.1,601.6 168.1,598.1 170.0,594.4 171.9,590.5 173.9,586.5 175.8,582.4 177.7,578.0 179.7,573.5 181.6,568.9 183.5,564.0 185.5,559.0 187.4,553.9 189.3,548.5 191.3,543.0 193.2,537.3 195.1,531.5 197.1,525.5 199.0,519.3 200.9,513.0 202.9,506.5 204.8,499.8 206.7,493.0 208.7,486.0 210.6,478.9 212.5,471.7 214.5,464.3 216.4,456.8 218.3,449.2 220.3,441.4 222.2,433.6 224.1,425.6 226.1,417.6 228.0,409.4 229.9,401.2 231.9,392.9 233.8,384.6 235.7,376.2 237.7,367.8 239.6,359.3 241.6,350.8 243.5,342.4 245.4,333.9 247.4,325.4 249.3,317.0 251.2,308.6 253.2,300.3 255.1,292.0 257.0,283.8 259.0,275.7 260.9,267.7 262.8,259.8 264.8,252.0 266.7,244.4 268.6,236.9 270.6,229.5 272.5,222.3 274.4,215.3 276.4,208.5 278.3,201.9 280.2,195.4 282.2,189.2 284.1,183.2 286.0,177.5 288.0,172.0 289.9,166.7 291.8,161.7 293.8,156.9 295.7,152.4 297.6,148.1 299.6,144.2 301.5,140.5 303.4,137.0 305.4,133.9 307.3,131.1 309.3,128.5 311.2,126.2 313.1,124.2 315.1,122.5 317.0,121.0 318.9,119.9 320.9,119.0 322.8,118.4 324.7,118.1 326.7,118.1 328.6,118.3 330.5,118.8 332.5,119.6 334.4,120.6 336.3,121.8 338.3,123.3 340.2,125.1 342.1,127.1 344.1,129.3 346.0,131.7 347.9,134.3 349.9,137.2 351.8,140.2 353.7,143.4 355.7,146.8 357.6,150.4 359.5,154.2 361.5,158.1 363.4,162.2 365.3,166.4 367.3,170.7 369.2,175.2 371.1,179.8 373.1,184.5 375.0,189.4 377.0,194.3 378.9,199.3 380.8,204.4 382.8,209.5 384.7,214.8 386.6,220.1 388.6,225.4 390.5,230.8 392.4,236.2 394.4,241.7 396.3,247.2 398.2,252.7 400.2,258.2 402.1,263.8 404.0,269.3 406.0,274.9 407.9,280.4 409.8,285.9 411.8,291.4 413.7,296.9 415.6,302.3 417.6,307.7 419.5,313.1 421.4,318.4 423.4,323.6 425.3,328.9 427.2,334.0 429.2,339.1 431.1,344.2 433.0,349.1 435.0,354.0 436.9,358.8 438.8,363.6 440.8,368.3 442.7,372.8 444.7,377.3 446.6,381.8 448.5,386.1 450.5,390.3 452.4,394.4 454.3,398.5 456.3,402.4 458.2,406.3 460.1,410.0 462.1,413.6 464.0,417.2 465.9,420.6 467.9,423.9 469.8,427.2 471.7,430.3 473.7,433.3 475.6,436.2 477.5,439.0 479.5,441.7 481.4,444.4 483.3,446.9 485.3,449.3 487.2,451.6 489.1,453.8 491.1,455.9 493.0,457.9 494.9,459.8 496.9,461.6 498.8,463.3 500.7,464.9 502.7,466.5 504.6,467.9 506.5,469.3 508.5,470.6 510.4,471.8 512.4,472.9 514.3,474.0 516.2,475.0 518.2,475.9 520.1,476.7 522.0,477.5 524.0,478.2 525.9,478.8 527.8,479.4 529.8,479.9 531.7,480.4 533.6,480.8 535.6,481.2 537.5,481.5 539.4,481.8 541.4,482.1 543.3,482.3 545.2,482.4 547.2,482.5 549.1,482.6 551.0,482.7 553.0,482.7 554.9,482.8 556.8,482.7 558.8,482.7 560.7,482.7 562.6,482.6 564.6,482.5 566.5,482.4 568.4,482.3 570.4,482.2 572.3,482.0 574.2,481.9 576.2,481.8 578.1,481.6 580.0,481.5 582.0,481.3 583.9,481.2 585.9,481.1 587.8,480.9 589.7,480.8 591.7,480.7 593.6,480.6 595.5,480.5 597.5,480.4 599.4,480.3 601.3,480.2 603.3,480.2 605.2,480.2 607.1,480.1 609.1,480.1 611.0,480.2 612.9,480.2 614.9,480.3 616.8,480.4 618.7,480.5 620.7,480.6 622.6,480.8 624.5,481.0 626.5,481.2 628.4,481.5 630.3,481.8 632.3,482.1 634.2,482.4 636.1,482.8 638.1,483.2 640.0,483.7 641.9,484.2 643.9,484.7 645.8,485.2 647.7,485.8 649.7,486.5 651.6,487.2 653.6,487.9 655.5,488.6 657.4,489.4 659.4,490.3 661.3,491.1 663.2,492.1 665.2,493.0 667.1,494.0 669.0,495.1 671.0,496.1 672.9,497.3 674.8,498.4 676.8,499.6 678.7,500.9 680.6,502.1 682.6,503.5 684.5,504.8 686.4,506.2 688.4,507.7 690.3,509.1 692.2,510.6 694.2,512.2 696.1,513.7 698.0,515.3 700.0,517.0 701.9,518.6 703.8,520.3 705.8,522.0 707.7,523.8 709.6,525.5 711.6,527.3 713.5,529.1 715.4,531.0 717.4,532.8 719.3,534.7 721.3,536.5 723.2,538.4 725.1,540.3 727.1,542.2 729.0,544.1 730.9,546.1 732.9,548.0 734.8,549.9 736.7,551.8 738.7,553.7 740.6,555.6 742.5,557.6 744.5,559.5 746.4,561.3 748.3,563.2 750.3,565.1 752.2,567.0 754.1,568.8 756.1,570.6 758.0,572.5 759.9,574.2 761.9,576.0 763.8,577.8 765.7,579.5 767.7,581.2 769.6,582.9 771.5,584.6 773.5,586.2 775.4,587.8 777.3,589.4 779.3,591.0 781.2,592.5 783.1,594.0 785.1,595.5 787.0,597.0 789.0,598.4 790.9,599.8 792.8,601.2 794.8,602.5 796.7,603.8 798.6,605.1 800.6,606.4 802.5,607.6 804.4,608.8 806.4,610.0 808.3,611.2 810.2,612.3 812.2,613.4 814.1,614.5 816.0,615.6 818.0,616.6 819.9,617.6 821.8,618.6 823.8,619.6 825.7,620.6 827.6,621.5 829.6,622.4 831.5,623.4 833.4,624.2 835.4,625.1 837.3,626.0 839.2,626.8 841.2,627.7 843.1,628.5 845.0,629.3 847.0,630.1 848.9,630.8 850.8,631.6 852.8,632.4 854.7,633.1 856.7,633.9 858.6,634.6 860.5,635.3 862.5,636.0 864.4,636.7 866.3,637.4 868.3,638.1 870.2,638.7 872.1,639.4 874.1,640.0 876.0,640.7 877.9,641.3 879.9,642.0 881.8,642.6 883.7,643.2 885.7,643.8 887.6,644.4 889.5,644.9 891.5,645.5 893.4,646.1 895.3,646.6 897.3,647.2 899.2,647.7 901.1,648.2 903.1,648.7 905.0,649.3 906.9,649.7 908.9,650.2 910.8,650.7 912.7,651.2 914.7,651.6 916.6,652.1 918.5,652.5 920.5,652.9 922.4,653.3 924.3,653.7 926.3,654.1 928.2,654.5 930.2,654.8 932.1,655.2 934.0,655.5 936.0,655.9 937.9,656.2 939.8,656.5 941.8,656.8 943.7,657.1 945.6,657.3 947.6,657.6 949.5,657.9 951.4,658.1 953.4,658.3 955.3,658.6 957.2,658.8 959.2,659.0 961.1,659.2 963.0,659.4 965.0,659.6 966.9,659.7 968.8,659.9 970.8,660.0 972.7,660.2 974.6,660.3 976.6,660.5 978.5,660.6 980.4,660.7 982.4,660.8 984.3,660.9 986.2,661.0 988.2,661.1 990.1,661.2 992.0,661.3 994.0,661.4 995.9,661.5 997.9,661.5 999.8,661.6 1001.7,661.6 1003.7,661.7 1005.6,661.8 1007.5,661.8 1009.5,661.9 1011.4,661.9 1013.3,661.9 1015.3,662.0 1017.2,662.0 1019.1,662.0 1021.1,662.1 1023.0,662.1 1024.9,662.1 1026.9,662.1 1028.8,662.2 1028.8,662.4 1026.9,662.4 1024.9,662.4 1023.0,662.4 1021.1,662.4 1019.1,662.4 1017.2,662.4 1015.3,662.4 1013.3,662.4 1011.4,662.4 1009.5,662.4 1007.5,662.4 1005.6,662.4 1003.7,662.4 1001.7,662.4 999.8,662.4 997.9,662.4 995.9,662.4 994.0,662.4 992.0,662.4 990.1,662.4 988.2,662.4 986.2,662.4 984.3,662.4 982.4,662.4 980.4,662.4 978.5,662.4 976.6,662.4 974.6,662.4 972.7,662.4 970.8,662.4 968.8,662.4 966.9,662.4 965.0,662.4 963.0,662.4 961.1,662.4 959.2,662.4 957.2,662.4 955.3,662.4 953.4,662.4 951.4,662.4 949.5,662.4 947.6,662.4 945.6,662.4 943.7,662.4 941.8,662.4 939.8,662.4 937.9,662.4 936.0,662.4 934.0,662.4 932.1,662.4 930.2,662.4 928.2,662.4 926.3,662.4 924.3,662.4 922.4,662.4 920.5,662.4 918.5,662.4 916.6,662.4 914.7,662.4 912.7,662.4 910.8,662.4 908.9,662.4 906.9,662.4 905.0,662.4 903.1,662.4 901.1,662.4 899.2,662.4 897.3,662.4 895.3,662.4 893.4,662.4 891.5,662.4 889.5,662.4 887.6,662.4 885.7,662.4 883.7,662.4 881.8,662.4 879.9,662.4 877.9,662.4 876.0,662.4 874.1,662.4 872.1,662.4 870.2,662.4 868.3,662.4 866.3,662.4 864.4,662.4 862.5,662.4 860.5,662.4 858.6,662.4 856.7,662.4 854.7,662.4 852.8,662.4 850.8,662.4 848.9,662.4 847.0,662.4 845.0,662.4 843.1,662.4 841.2,662.4 839.2,662.4 837.3,662.4 835.4,662.4 833.4,662.4 831.5,662.4 829.6,662.4 827.6,662.4 825.7,662.4 823.8,662.4 821.8,662.4 819.9,662.4 818.0,662.4 816.0,662.4 814.1,662.4 812.2,662.4 810.2,662.4 808.3,662.4 806.4,662.4 804.4,662.4 802.5,662.4 800.6,662.4 798.6,662.4 796.7,662.4 794.8,662.4 792.8,662.4 790.9,662.4 789.0,662.4 787.0,662.4 785.1,662.4 783.1,662.4 781.2,662.4 779.3,662.4 777.3,662.4 775.4,662.4 773.5,662.4 771.5,662.4 769.6,662.4 767.7,662.4 765.7,662.4 763.8,662.4 761.9,662.4 759.9,662.4 758.0,662.4 756.1,662.4 754.1,662.4 752.2,662.4 750.3,662.4 748.3,662.4 746.4,662.4 744.5,662.4 742.5,662.4 740.6,662.4 738.7,662.4 736.7,662.4 734.8,662.4 732.9,662.4 730.9,662.4 729.0,662.4 727.1,662.4 725.1,662.4 723.2,662.4 721.3,662.4 719.3,662.4 717.4,662.4 715.4,662.4 713.5,662.4 711.6,662.4 709.6,662.4 707.7,662.4 705.8,662.4 703.8,662.4 701.9,662.4 700.0,662.4 698.0,662.4 696.1,662.4 694.2,662.4 692.2,662.4 690.3,662.4 688.4,662.4 686.4,662.4 684.5,662.4 682.6,662.4 680.6,662.4 678.7,662.4 676.8,662.4 674.8,662.4 672.9,662.4 671.0,662.4 669.0,662.4 667.1,662.4 665.2,662.4 663.2,662.4 661.3,662.4 659.4,662.4 657.4,662.4 655.5,662.4 653.6,662.4 651.6,662.4 649.7,662.4 647.7,662.4 645.8,662.4 643.9,662.4 641.9,662.4 640.0,662.4 638.1,662.4 636.1,662.4 634.2,662.4 632.3,662.4 630.3,662.4 628.4,662.4 626.5,662.4 624.5,662.4 622.6,662.4 620.7,662.4 618.7,662.4 616.8,662.4 614.9,662.4 612.9,662.4 611.0,662.4 609.1,662.4 607.1,662.4 605.2,662.4 603.3,662.4 601.3,662.4 599.4,662.4 597.5,662.4 595.5,662.4 593.6,662.4 591.7,662.4 589.7,662.4 587.8,662.4 585.9,662.4 583.9,662.4 582.0,662.4 580.0,662.4 578.1,662.4 576.2,662.4 574.2,662.4 572.3,662.4 570.4,662.4 568.4,662.4 566.5,662.4 564.6,662.4 562.6,662.4 560.7,662.4 558.8,662.4 556.8,662.4 554.9,662.4 553.0,662.4 551.0,662.4 549.1,662.4 547.2,662.4 545.2,662.4 543.3,662.4 541.4,662.4 539.4,662.4 537.5,662.4 535.6,662.4 533.6,662.4 531.7,662.4 529.8,662.4 527.8,662.4 525.9,662.4 524.0,662.4 522.0,662.4 520.1,662.4 518.2,662.4 516.2,662.4 514.3,662.4 512.4,662.4 510.4,662.4 508.5,662.4 506.5,662.4 504.6,662.4 502.7,662.4 500.7,662.4 498.8,662.4 496.9,662.4 494.9,662.4 493.0,662.4 491.1,662.4 489.1,662.4 487.2,662.4 485.3,662.4 483.3,662.4 481.4,662.4 479.5,662.4 477.5,662.4 475.6,662.4 473.7,662.4 471.7,662.4 469.8,662.4 467.9,662.4 465.9,662.4 464.0,662.4 462.1,662.4 460.1,662.4 458.2,662.4 456.3,662.4 454.3,662.4 452.4,662.4 450.5,662.4 448.5,662.4 446.6,662.4 444.7,662.4 442.7,662.4 440.8,662.4 438.8,662.4 436.9,662.4 435.0,662.4 433.0,662.4 431.1,662.4 429.2,662.4 427.2,662.4 425.3,662.4 423.4,662.4 421.4,662.4 419.5,662.4 417.6,662.4 415.6,662.4 413.7,662.4 411.8,662.4 409.8,662.4 407.9,662.4 406.0,662.4 404.0,662.4 402.1,662.4 400.2,662.4 398.2,662.4 396.3,662.4 394.4,662.4 392.4,662.4 390.5,662.4 388.6,662.4 386.6,662.4 384.7,662.4 382.8,662.4 380.8,662.4 378.9,662.4 377.0,662.4 375.0,662.4 373.1,662.4 371.1,662.4 369.2,662.4 367.3,662.4 365.3,662.4 363.4,662.4 361.5,662.4 359.5,662.4 357.6,662.4 355.7,662.4 353.7,662.4 351.8,662.4 349.9,662.4 347.9,662.4 346.0,662.4 344.1,662.4 342.1,662.4 340.2,662.4 338.3,662.4 336.3,662.4 334.4,662.4 332.5,662.4 330.5,662.4 328.6,662.4 326.7,662.4 324.7,662.4 322.8,662.4 320.9,662.4 318.9,662.4 317.0,662.4 315.1,662.4 313.1,662.4 311.2,662.4 309.3,662.4 307.3,662.4 305.4,662.4 303.4,662.4 301.5,662.4 299.6,662.4 297.6,662.4 295.7,662.4 293.8,662.4 291.8,662.4 289.9,662.4 288.0,662.4 286.0,662.4 284.1,662.4 282.2,662.4 280.2,662.4 278.3,662.4 276.4,662.4 274.4,662.4 272.5,662.4 270.6,662.4 268.6,662.4 266.7,662.4 264.8,662.4 262.8,662.4 260.9,662.4 259.0,662.4 257.0,662.4 255.1,662.4 253.2,662.4 251.2,662.4 249.3,662.4 247.4,662.4 245.4,662.4 243.5,662.4 241.6,662.4 239.6,662.4 237.7,662.4 235.7,662.4 233.8,662.4 231.9,662.4 229.9,662.4 228.0,662.4 226.1,662.4 224.1,662.4 222.2,662.4 220.3,662.4 218.3,662.4 216.4,662.4 214.5,662.4 212.5,662.4 210.6,662.4 208.7,662.4 206.7,662.4 204.8,662.4 202.9,662.4 200.9,662.4 199.0,662.4 197.1,662.4 195.1,662.4 193.2,662.4 191.3,662.4 189.3,662.4 187.4,662.4 185.5,662.4 183.5,662.4 181.6,662.4 179.7,662.4 177.7,662.4 175.8,662.4 173.9,662.4 171.9,662.4 170.0,662.4 168.1,662.4 166.1,662.4 164.2,662.4 162.2,662.4 160.3,662.4 158.4,662.4 156.4,662.4 154.5,662.4 152.6,662.4 150.6,662.4 148.7,662.4 146.8,662.4 144.8,662.4 142.9,662.4 141.0,662.4 139.0,662.4 137.1,662.4 135.2,662.4 133.2,662.4 131.3,662.4 129.4,662.4 127.4,662.4 125.5,662.4 123.6,662.4 121.6,662.4 119.7,662.4 117.8,662.4 115.8,662.4 113.9,662.4 112.0,662.4 110.0,662.4 108.1,662.4 106.2,662.4 104.2,662.4 102.3,662.4 100.4,662.4 98.4,662.4 96.5,662.4 94.5,662.4 92.6,662.4 90.7,662.4 88.7,662.4 86.8,662.4 84.9,662.4 82.9,662.4 81.0,662.4 79.1,662.4 77.1,662.4 75.2,662.4 73.3,662.4 71.3,662.4 69.4,662.4 67.5,662.4 65.5,662.4 63.6,662.4 "/>
	</g>
</g>
	</g>
	<g id="gnuplot_plot_2"><title>Mean</title>
<g fill="none" color="white" stroke="rgb( 31, 120, 180)" stroke-width="2.00" stroke-linecap="butt" stroke-linejoin="miter">
</g>
<g fill="none" color="black" stroke="currentColor" stroke-width="2.00" stroke-linecap="butt" stroke-linejoin="miter">
	<g transform="translate(1155.4,85.0)" stroke="none" fill="black" font-family="Helvetica" font-size="12.00" text-anchor="start">
		<text><tspan font-family="Helvetica">Mean</tspan></text>
	</g>
</g>
<g fill="none" color="black" stroke="currentColor" stroke-width="2.00" stroke-linecap="butt" stroke-linejoin="miter">
	<path stroke="rgb( 31, 120, 180)" d="M1104.9,81.1 L1147.1,81.1 M428.3,662.4 L428.3,54.1  "/></g>
	</g>
	<g id="gnuplot_plot_3"><title>"Clean" sample</title>
<g fill="none" color="white" stroke="rgb( 31, 120, 180)" stroke-width="1.00" stroke-linecap="butt" stroke-linejoin="miter">
</g>
<g fill="none" color="black" stroke="currentColor" stroke-width="1.00" stroke-linecap="butt" stroke-linejoin="miter">
	<g transform="translate(1155.4,103.0)" stroke="none" fill="black" font-family="Helvetica" font-size="12.00" text-anchor="start">
		<text><tspan font-family="Helvetica">"Clean" sample</tspan></text>
	</g>
</g>
<g fill="none" color="black" stroke="currentColor" stroke-width="1.00" stroke-linecap="butt" stroke-linejoin="miter">
	<use xlink:href="#gpPt6" transform="translate(408.6,656.3) scale(3.38)" color="rgb( 31, 120, 180)"/>
	<use xlink:href="#gpPt6" transform="translate(463.0,650.2) scale(3.38)" color="rgb( 31, 120, 180)"/>
	<use xlink:href="#gpPt6" transform="translate(396.5,644.2) scale(3.38)" color="rgb( 31, 120, 180)"/>
	<use xlink:href="#gpPt6" transform="translate(423.8,638.1) scale(3.38)" color="rgb( 31, 120, 180)"/>
	<use xlink:href="#gpPt6" transform="translate(423.1,632.0) scale(3.38)" color="rgb( 31, 120, 180)"/>
	<use xlink:href="#gpPt6" transform="translate(400.3,625.9) scale(3.38)" color="rgb( 31, 120, 180)"/>
	<use xlink:href="#gpPt6" transform="translate(379.8,619.8) scale(3.38)" color="rgb( 31, 120, 180)"/>
	<use xlink:href="#gpPt6" transform="translate(404.8,613.7) scale(3.38)" color="rgb( 31, 120, 180)"/>
	<use xlink:href="#gpPt6" transform="translate(374.6,607.7) scale(3.38)" color="rgb( 31, 120, 180)"/>
	<use xlink:href="#gpPt6" transform="translate(365.7,601.6) scale(3.38)" color="rgb( 31, 120, 180)"/>
	<use xlink:href="#gpPt6" transform="translate(302.1,595.5) scale(3.38)" color="rgb( 31, 120, 180)"/>
	<use xlink:href="#gpPt6" transform="translate(296.1,589.4) scale(3.38)" color="rgb( 31, 120, 180)"/>
	<use xlink:href="#gpPt6" transform="translate(302.3,583.3) scale(3.38)" color="rgb( 31, 120, 180)"/>
	<use xlink:href="#gpPt6" transform="translate(283.5,577.2) scale(3.38)" color="rgb( 31, 120, 180)"/>
	<use xlink:href="#gpPt6" transform="translate(285.1,571.2) scale(3.38)" color="rgb( 31, 120, 180)"/>
	<use xlink:href="#gpPt6" transform="translate(303.8,565.1) scale(3.38)" color="rgb( 31, 120, 180)"/>
	<use xlink:href="#gpPt6" transform="translate(303.8,559.0) scale(3.38)" color="rgb( 31, 120, 180)"/>
	<use xlink:href="#gpPt6" transform="translate(296.5,552.9) scale(3.38)" color="rgb( 31, 120, 180)"/>
	<use xlink:href="#gpPt6" transform="translate(287.1,546.8) scale(3.38)" color="rgb( 31, 120, 180)"/>
	<use xlink:href="#gpPt6" transform="translate(331.1,540.7) scale(3.38)" color="rgb( 31, 120, 180)"/>
	<use xlink:href="#gpPt6" transform="translate(276.4,534.7) scale(3.38)" color="rgb( 31, 120, 180)"/>
	<use xlink:href="#gpPt6" transform="translate(729.4,528.6) scale(3.38)" color="rgb( 31, 120, 180)"/>
	<use xlink:href="#gpPt6" transform="translate(304.1,522.5) scale(3.38)" color="rgb( 31, 120, 180)"/>
	<use xlink:href="#gpPt6" transform="translate(499.4,516.4) scale(3.38)" color="rgb( 31, 120, 180)"/>
	<use xlink:href="#gpPt6" transform="translate(571.7,510.3) scale(3.38)" color="rgb( 31, 120, 180)"/>
	<use xlink:href="#gpPt6" transform="translate(720.4,504.2) scale(3.38)" color="rgb( 31, 120, 180)"/>
	<use xlink:href="#gpPt6" transform="translate(677.8,498.2) scale(3.38)" color="rgb( 31, 120, 180)"/>
	<use xlink:href="#gpPt6" transform="translate(678.8,492.1) scale(3.38)" color="rgb( 31, 120, 180)"/>
	<use xlink:href="#gpPt6" transform="translate(720.9,486.0) scale(3.38)" color="rgb( 31, 120, 180)"/>
	<use xlink:href="#gpPt6" transform="translate(540.6,479.9) scale(3.38)" color="rgb( 31, 120, 180)"/>
	<use xlink:href="#gpPt6" transform="translate(302.4,473.8) scale(3.38)" color="rgb( 31, 120, 180)"/>
	<use xlink:href="#gpPt6" transform="translate(356.2,467.7) scale(3.38)" color="rgb( 31, 120, 180)"/>
	<use xlink:href="#gpPt6" transform="translate(359.0,461.7) scale(3.38)" color="rgb( 31, 120, 180)"/>
	<use xlink:href="#gpPt6" transform="translate(310.9,455.6) scale(3.38)" color="rgb( 31, 120, 180)"/>
	<use xlink:href="#gpPt6" transform="translate(348.0,449.5) scale(3.38)" color="rgb( 31, 120, 180)"/>
	<use xlink:href="#gpPt6" transform="translate(293.8,443.4) scale(3.38)" color="rgb( 31, 120, 180)"/>
	<use xlink:href="#gpPt6" transform="translate(298.0,437.3) scale(3.38)" color="rgb( 31, 120, 180)"/>
	<use xlink:href="#gpPt6" transform="translate(297.5,431.2) scale(3.38)" color="rgb( 31, 120, 180)"/>
	<use xlink:href="#gpPt6" transform="translate(357.4,425.2) scale(3.38)" color="rgb( 31, 120, 180)"/>
	<use xlink:href="#gpPt6" transform="translate(276.8,419.1) scale(3.38)" color="rgb( 31, 120, 180)"/>
	<use xlink:href="#gpPt6" transform="translate(616.0,413.0) scale(3.38)" color="rgb( 31, 120, 180)"/>
	<use xlink:href="#gpPt6" transform="translate(835.7,406.9) scale(3.38)" color="rgb( 31, 120, 180)"/>
	<use xlink:href="#gpPt6" transform="translate(654.6,400.8) scale(3.38)" color="rgb( 31, 120, 180)"/>
	<use xlink:href="#gpPt6" transform="translate(718.0,394.7) scale(3.38)" color="rgb( 31, 120, 180)"/>
	<use xlink:href="#gpPt6" transform="translate(322.3,388.7) scale(3.38)" color="rgb( 31, 120, 180)"/>
	<use xlink:href="#gpPt6" transform="translate(357.5,382.6) scale(3.38)" color="rgb( 31, 120, 180)"/>
	<use xlink:href="#gpPt6" transform="translate(323.4,376.5) scale(3.38)" color="rgb( 31, 120, 180)"/>
	<use xlink:href="#gpPt6" transform="translate(339.3,370.4) scale(3.38)" color="rgb( 31, 120, 180)"/>
	<use xlink:href="#gpPt6" transform="translate(355.9,364.3) scale(3.38)" color="rgb( 31, 120, 180)"/>
	<use xlink:href="#gpPt6" transform="translate(609.8,358.2) scale(3.38)" color="rgb( 31, 120, 180)"/>
	<use xlink:href="#gpPt6" transform="translate(299.5,352.2) scale(3.38)" color="rgb( 31, 120, 180)"/>
	<use xlink:href="#gpPt6" transform="translate(518.9,346.1) scale(3.38)" color="rgb( 31, 120, 180)"/>
	<use xlink:href="#gpPt6" transform="translate(624.8,340.0) scale(3.38)" color="rgb( 31, 120, 180)"/>
	<use xlink:href="#gpPt6" transform="translate(625.5,333.9) scale(3.38)" color="rgb( 31, 120, 180)"/>
	<use xlink:href="#gpPt6" transform="translate(507.4,327.8) scale(3.38)" color="rgb( 31, 120, 180)"/>
	<use xlink:href="#gpPt6" transform="translate(284.8,321.8) scale(3.38)" color="rgb( 31, 120, 180)"/>
	<use xlink:href="#gpPt6" transform="translate(283.4,315.7) scale(3.38)" color="rgb( 31, 120, 180)"/>
	<use xlink:href="#gpPt6" transform="translate(274.7,309.6) scale(3.38)" color="rgb( 31, 120, 180)"/>
	<use xlink:href="#gpPt6" transform="translate(263.6,303.5) scale(3.38)" color="rgb( 31, 120, 180)"/>
	<use xlink:href="#gpPt6" transform="translate(324.8,297.4) scale(3.38)" color="rgb( 31, 120, 180)"/>
	<use xlink:href="#gpPt6" transform="translate(326.6,291.3) scale(3.38)" color="rgb( 31, 120, 180)"/>
	<use xlink:href="#gpPt6" transform="translate(666.0,285.3) scale(3.38)" color="rgb( 31, 120, 180)"/>
	<use xlink:href="#gpPt6" transform="translate(755.6,279.2) scale(3.38)" color="rgb( 31, 120, 180)"/>
	<use xlink:href="#gpPt6" transform="translate(561.5,273.1) scale(3.38)" color="rgb( 31, 120, 180)"/>
	<use xlink:href="#gpPt6" transform="translate(256.7,267.0) scale(3.38)" color="rgb( 31, 120, 180)"/>
	<use xlink:href="#gpPt6" transform="translate(271.0,260.9) scale(3.38)" color="rgb( 31, 120, 180)"/>
	<use xlink:href="#gpPt6" transform="translate(469.6,254.8) scale(3.38)" color="rgb( 31, 120, 180)"/>
	<use xlink:href="#gpPt6" transform="translate(262.4,248.8) scale(3.38)" color="rgb( 31, 120, 180)"/>
	<use xlink:href="#gpPt6" transform="translate(277.7,242.7) scale(3.38)" color="rgb( 31, 120, 180)"/>
	<use xlink:href="#gpPt6" transform="translate(835.6,236.6) scale(3.38)" color="rgb( 31, 120, 180)"/>
	<use xlink:href="#gpPt6" transform="translate(673.5,230.5) scale(3.38)" color="rgb( 31, 120, 180)"/>
	<use xlink:href="#gpPt6" transform="translate(465.4,224.4) scale(3.38)" color="rgb( 31, 120, 180)"/>
	<use xlink:href="#gpPt6" transform="translate(328.2,218.3) scale(3.38)" color="rgb( 31, 120, 180)"/>
	<use xlink:href="#gpPt6" transform="translate(290.8,212.3) scale(3.38)" color="rgb( 31, 120, 180)"/>
	<use xlink:href="#gpPt6" transform="translate(327.3,206.2) scale(3.38)" color="rgb( 31, 120, 180)"/>
	<use xlink:href="#gpPt6" transform="translate(307.4,200.1) scale(3.38)" color="rgb( 31, 120, 180)"/>
	<use xlink:href="#gpPt6" transform="translate(426.6,194.0) scale(3.38)" color="rgb( 31, 120, 180)"/>
	<use xlink:href="#gpPt6" transform="translate(596.4,187.9) scale(3.38)" color="rgb( 31, 120, 180)"/>
	<use xlink:href="#gpPt6" transform="translate(538.9,181.8) scale(3.38)" color="rgb( 31, 120, 180)"/>
	<use xlink:href="#gpPt6" transform="translate(313.5,175.8) scale(3.38)" color="rgb( 31, 120, 180)"/>
	<use xlink:href="#gpPt6" transform="translate(394.4,169.7) scale(3.38)" color="rgb( 31, 120, 180)"/>
	<use xlink:href="#gpPt6" transform="translate(360.0,163.6) scale(3.38)" color="rgb( 31, 120, 180)"/>
	<use xlink:href="#gpPt6" transform="translate(282.2,157.5) scale(3.38)" color="rgb( 31, 120, 180)"/>
	<use xlink:href="#gpPt6" transform="translate(564.7,151.4) scale(3.38)" color="rgb( 31, 120, 180)"/>
	<use xlink:href="#gpPt6" transform="translate(662.9,145.3) scale(3.38)" color="rgb( 31, 120, 180)"/>
	<use xlink:href="#gpPt6" transform="translate(379.6,139.3) scale(3.38)" color="rgb( 31, 120, 180)"/>
	<use xlink:href="#gpPt6" transform="translate(294.2,133.2) scale(3.38)" color="rgb( 31, 120, 180)"/>
	<use xlink:href="#gpPt6" transform="translate(303.6,127.1) scale(3.38)" color="rgb( 31, 120, 180)"/>
	<use xlink:href="#gpPt6" transform="translate(367.6,121.0) scale(3.38)" color="rgb( 31, 120, 180)"/>
	<use xlink:href="#gpPt6" transform="translate(454.1,114.9) scale(3.38)" color="rgb( 31, 120, 180)"/>
	<use xlink:href="#gpPt6" transform="translate(668.3,108.8) scale(3.38)" color="rgb( 31, 120, 180)"/>
	<use xlink:href="#gpPt6" transform="translate(548.2,102.8) scale(3.38)" color="rgb( 31, 120, 180)"/>
	<use xlink:href="#gpPt6" transform="translate(377.7,96.7) scale(3.38)" color="rgb( 31, 120, 180)"/>
	<use xlink:href="#gpPt6" transform="translate(392.9,90.6) scale(3.38)" color="rgb( 31, 120, 180)"/>
	<use xlink:href="#gpPt6" transform="translate(417.9,84.5) scale(3.38)" color="rgb( 31, 120, 180)"/>
	<use xlink:href="#gpPt6" transform="translate(556.4,78.4) scale(3.38)" color="rgb( 31, 120, 180)"/>
	<use xlink:href="#gpPt6" transform="translate(618.8,72.3) scale(3.38)" color="rgb( 31, 120, 180)"/>
	<use xlink:href="#gpPt6" transform="translate(402.7,66.3) scale(3.38)" color="rgb( 31, 120, 180)"/>
	<use xlink:href="#gpPt6" transform="translate(417.2,60.2) scale(3.38)" color="rgb( 31, 120, 180)"/>
	<use xlink:href="#gpPt6" transform="translate(326.1,54.1) scale(3.38)" color="rgb( 31, 120, 180)"/>
	<use xlink:href="#gpPt6" transform="translate(1126.0,99.1) scale(3.38)" color="rgb( 31, 120, 180)"/>
</g>
	</g>
	<g id="gnuplot_plot_4"><title>gnuplot_plot_4</title>
<g fill="none" color="white" stroke="rgb( 31, 120, 180)" stroke-width="2.00" stroke-linecap="butt" stroke-linejoin="miter">
</g>
<g fill="none" color="black" stroke="currentColor" stroke-width="2.00" stroke-linecap="butt" stroke-linejoin="miter">
</g>
	</g>
	<g id="gnuplot_plot_5"><title>gnuplot_plot_5</title>
<g fill="none" color="black" stroke="currentColor" stroke-width="2.00" stroke-linecap="butt" stroke-linejoin="miter">
	<path stroke="rgb(255, 127,   0)" d="M901.3,662.4 L901.3,54.1  "/></g>
	</g>
	<g id="gnuplot_plot_6"><title>gnuplot_plot_6</title>
<g fill="none" color="black" stroke="currentColor" stroke-width="2.00" stroke-linecap="butt" stroke-linejoin="miter">
</g>
	</g>
	<g id="gnuplot_plot_7"><title>gnuplot_plot_7</title>
<g fill="none" color="black" stroke="currentColor" stroke-width="2.00" stroke-linecap="butt" stroke-linejoin="miter">
</g>
	</g>
<g fill="none" color="black" stroke="currentColor" stroke-width="2.00" stroke-linecap="butt" stroke-linejoin="miter">
</g>
<g fill="none" color="black" stroke="black" stroke-width="1.00" stroke-linecap="butt" stroke-linejoin="miter">
</g>
<g fill="none" color="black" stroke="currentColor" stroke-width="1.00" stroke-linecap="butt" stroke-linejoin="miter">
	<path stroke="black" d="M63.6,54.1 L63.6,662.4 L1028.8,662.4 L1028.8,54.1 L63.6,54.1 Z  "/></g>
<g fill="none" color="black" stroke="currentColor" stroke-width="1.00" stroke-linecap="butt" stroke-linejoin="miter">
</g>
</g>
</svg>