<?xml version="1.0" encoding="UTF-8" standalone="no"?>
<svg viewBox="0 0 1280 720" xmlns="http://www.w3.org/2000/svg" xmlns:xlink="http://www.w3.org/1999/xlink">

<title>Gnuplot</title>
<desc>Produced by GNUPLOT 5.2 patchlevel 2 </desc>

<g id="gnuplot_canvas">

<rect x="0" y="0" width="1280" height="720" fill="none"/>
<defs>

	<circle id="gpDot" r="0.5" stroke-width="0.5"/>
	<path id="gpPt0" stroke-width="0.222" stroke="currentColor" d="M-1,0 h2 M0,-1 v2"/>
	<path id="gpPt1" stroke-width="0.222" stroke="currentColor" d="M-1,-1 L1,1 M1,-1 L-1,1"/>
	<path id="gpPt2" stroke-width="0.222" stroke="currentColor" d="M-1,0 L1,0 M0,-1 L0,1 M-1,-1 L1,1 M-1,1 L1,-1"/>
	<rect id="gpPt3" stroke-width="0.222" stroke="currentColor" x="-1" y="-1" width="2" height="2"/>
	<rect id="gpPt4" stroke-width="0.222" stroke="currentColor" fill="currentColor" x="-1" y="-1" width="2" height="2"/>
	<circle id="gpPt5" stroke-width="0.222" stroke="currentColor" cx="0" cy="0" r="1"/>
	<use xlink:href="#gpPt5" id="gpPt6" fill="currentColor" stroke="none"/>
	<path id="gpPt7" stroke-width="0.222" stroke="currentColor" d="M0,-1.33 L-1.33,0.67 L1.33,0.67 z"/>
	<use xlink:href="#gpPt7" id="gpPt8" fill="currentColor" stroke="none"/>
	<use xlink:href="#gpPt7" id="gpPt9" stroke="currentColor" transform="rotate(180)"/>
	<use xlink:href="#gpPt9" id="gpPt10" fill="currentColor" stroke="none"/>
	<use xlink:href="#gpPt3" id="gpPt11" stroke="currentColor" transform="rotate(45)"/>
	<use xlink:href="#gpPt11" id="gpPt12" fill="currentColor" stroke="none"/>
	<path id="gpPt13" stroke-width="0.222" stroke="currentColor" d="M0,1.330 L1.265,0.411 L0.782,-1.067 L-0.782,-1.076 L-1.265,0.411 z"/>
	<use xlink:href="#gpPt13" id="gpPt14" fill="currentColor" stroke="none"/>
	<filter id="textbox" filterUnits="objectBoundingBox" x="0" y="0" height="1" width="1">
	  <feFlood flood-color="white" flood-opacity="1" result="bgnd"/>
	  <feComposite in="SourceGraphic" in2="bgnd" operator="atop"/>
	</filter>
	<filter id="greybox" filterUnits="objectBoundingBox" x="0" y="0" height="1" width="1">
	  <feFlood flood-color="lightgrey" flood-opacity="1" result="grey"/>
	  <feComposite in="SourceGraphic" in2="grey" operator="atop"/>
	</filter>
</defs>
<g fill="none" color="white" stroke="currentColor" stroke-width="1.00" stroke-linecap="butt" stroke-linejoin="miter">
</g>
<g fill="none" color="black" stroke="currentColor" stroke-width="1.00" stroke-linecap="butt" stroke-linejoin="miter">
	<path stroke="black" d="M71.9,662.4 L80.9,662.4  "/>	<g transform="translate(63.6,666.3)" stroke="none" fill="black" font-family="Helvetica" font-size="12.00" text-anchor="end">
		<text><tspan font-family="Helvetica"> 0</tspan></text>
	</g>
</g>
<g fill="none" color="black" stroke="currentColor" stroke-width="1.00" stroke-linecap="butt" stroke-linejoin="miter">
	<path stroke="black" d="M71.9,540.7 L80.9,540.7  "/>	<g transform="translate(63.6,544.6)" stroke="none" fill="black" font-family="Helvetica" font-size="12.00" text-anchor="end">
		<text><tspan font-family="Helvetica"> 20</tspan></text>
	</g>
</g>
<g fill="none" color="black" stroke="currentColor" stroke-width="1.00" stroke-linecap="butt" stroke-linejoin="miter">
	<path stroke="black" d="M71.9,419.1 L80.9,419.1  "/>	<g transform="translate(63.6,423.0)" stroke="none" fill="black" font-family="Helvetica" font-size="12.00" text-anchor="end">
		<text><tspan font-family="Helvetica"> 40</tspan></text>
	</g>
</g>
<g fill="none" color="black" stroke="currentColor" stroke-width="1.00" stroke-linecap="butt" stroke-linejoin="miter">
	<path stroke="black" d="M71.9,297.4 L80.9,297.4  "/>	<g transform="translate(63.6,301.3)" stroke="none" fill="black" font-family="Helvetica" font-size="12.00" text-anchor="end">
		<text><tspan font-family="Helvetica"> 60</tspan></text>
	</g>
</g>
<g fill="none" color="black" stroke="currentColor" stroke-width="1.00" stroke-linecap="butt" stroke-linejoin="miter">
	<path stroke="black" d="M71.9,175.8 L80.9,175.8  "/>	<g transform="translate(63.6,179.7)" stroke="none" fill="black" font-family="Helvetica" font-size="12.00" text-anchor="end">
		<text><tspan font-family="Helvetica"> 80</tspan></text>
	</g>
</g>
<g fill="none" color="black" stroke="currentColor" stroke-width="1.00" stroke-linecap="butt" stroke-linejoin="miter">
	<path stroke="black" d="M71.9,54.1 L80.9,54.1  "/>	<g transform="translate(63.6,58.0)" stroke="none" fill="black" font-family="Helvetica" font-size="12.00" text-anchor="end">
		<text><tspan font-family="Helvetica"> 100</tspan></text>
	</g>
</g>
<g fill="none" color="black" stroke="currentColor" stroke-width="1.00" stroke-linecap="butt" stroke-linejoin="miter">
	<path stroke="black" d="M150.5,662.4 L150.5,653.4  "/>	<g transform="translate(150.5,684.3)" stroke="none" fill="black" font-family="Helvetica" font-size="12.00" text-anchor="middle">
		<text><tspan font-family="Helvetica"> 11.6</tspan></text>
	</g>
</g>
<g fill="none" color="black" stroke="currentColor" stroke-width="1.00" stroke-linecap="butt" stroke-linejoin="miter">
	<path stroke="black" d="M253.7,662.4 L253.7,653.4  "/>	<g transform="translate(253.7,684.3)" stroke="none" fill="black" font-family="Helvetica" font-size="12.00" text-anchor="middle">
		<text><tspan font-family="Helvetica"> 11.7</tspan></text>
	</g>
</g>
<g fill="none" color="black" stroke="currentColor" stroke-width="1.00" stroke-linecap="butt" stroke-linejoin="miter">
	<path stroke="black" d="M357.0,662.4 L357.0,653.4  "/>	<g transform="translate(357.0,684.3)" stroke="none" fill="black" font-family="Helvetica" font-size="12.00" text-anchor="middle">
		<text><tspan font-family="Helvetica"> 11.8</tspan></text>
	</g>
</g>
<g fill="none" color="black" stroke="currentColor" stroke-width="1.00" stroke-linecap="butt" stroke-linejoin="miter">
	<path stroke="black" d="M460.2,662.4 L460.2,653.4  "/>	<g transform="translate(460.2,684.3)" stroke="none" fill="black" font-family="Helvetica" font-size="12.00" text-anchor="middle">
		<text><tspan font-family="Helvetica"> 11.9</tspan></text>
	</g>
</g>
<g fill="none" color="black" stroke="currentColor" stroke-width="1.00" stroke-linecap="butt" stroke-linejoin="miter">
	<path stroke="black" d="M563.4,662.4 L563.4,653.4  "/>	<g transform="translate(563.4,684.3)" stroke="none" fill="black" font-family="Helvetica" font-size="12.00" text-anchor="middle">
		<text><tspan font-family="Helvetica"> 12</tspan></text>
	</g>
</g>
<g fill="none" color="black" stroke="currentColor" stroke-width="1.00" stroke-linecap="butt" stroke-linejoin="miter">
	<path stroke="black" d="M666.7,662.4 L666.7,653.4  "/>	<g transform="translate(666.7,684.3)" stroke="none" fill="black" font-family="Helvetica" font-size="12.00" text-anchor="middle">
		<text><tspan font-family="Helvetica"> 12.1</tspan></text>
	</g>
</g>
<g fill="none" color="black" stroke="currentColor" stroke-width="1.00" stroke-linecap="butt" stroke-linejoin="miter">
	<path stroke="black" d="M769.9,662.4 L769.9,653.4  "/>	<g transform="translate(769.9,684.3)" stroke="none" fill="black" font-family="Helvetica" font-size="12.00" text-anchor="middle">
		<text><tspan font-family="Helvetica"> 12.2</tspan></text>
	</g>
</g>
<g fill="none" color="black" stroke="currentColor" stroke-width="1.00" stroke-linecap="butt" stroke-linejoin="miter">
	<path stroke="black" d="M873.2,662.4 L873.2,653.4  "/>	<g transform="translate(873.2,684.3)" stroke="none" fill="black" font-family="Helvetica" font-size="12.00" text-anchor="middle">
		<text><tspan font-family="Helvetica"> 12.3</tspan></text>
	</g>
</g>
<g fill="none" color="black" stroke="currentColor" stroke-width="1.00" stroke-linecap="butt" stroke-linejoin="miter">
	<path stroke="black" d="M976.4,662.4 L976.4,653.4  "/>	<g transform="translate(976.4,684.3)" stroke="none" fill="black" font-family="Helvetica" font-size="12.00" text-anchor="middle">
		<text><tspan font-family="Helvetica"> 12.4</tspan></text>
	</g>
</g>
<g fill="none" color="black" stroke="currentColor" stroke-width="1.00" stroke-linecap="butt" stroke-linejoin="miter">
	<path stroke="black" d="M1020.5,662.4 L1011.5,662.4  "/>	<g transform="translate(1028.8,666.3)" stroke="none" fill="black" font-family="Helvetica" font-size="12.00" text-anchor="start">
		<text><tspan font-family="Helvetica"> 0</tspan></text>
	</g>
</g>
<g fill="none" color="black" stroke="currentColor" stroke-width="1.00" stroke-linecap="butt" stroke-linejoin="miter">
	<path stroke="black" d="M1020.5,575.5 L1011.5,575.5  "/>	<g transform="translate(1028.8,579.4)" stroke="none" fill="black" font-family="Helvetica" font-size="12.00" text-anchor="start">
		<text><tspan font-family="Helvetica"> 1</tspan></text>
	</g>
</g>
<g fill="none" color="black" stroke="currentColor" stroke-width="1.00" stroke-linecap="butt" stroke-linejoin="miter">
	<path stroke="black" d="M1020.5,488.6 L1011.5,488.6  "/>	<g transform="translate(1028.8,492.5)" stroke="none" fill="black" font-family="Helvetica" font-size="12.00" text-anchor="start">
		<text><tspan font-family="Helvetica"> 2</tspan></text>
	</g>
</g>
<g fill="none" color="black" stroke="currentColor" stroke-width="1.00" stroke-linecap="butt" stroke-linejoin="miter">
	<path stroke="black" d="M1020.5,401.7 L1011.5,401.7  "/>	<g transform="translate(1028.8,405.6)" stroke="none" fill="black" font-family="Helvetica" font-size="12.00" text-anchor="start">
		<text><tspan font-family="Helvetica"> 3</tspan></text>
	</g>
</g>
<g fill="none" color="black" stroke="currentColor" stroke-width="1.00" stroke-linecap="butt" stroke-linejoin="miter">
	<path stroke="black" d="M1020.5,314.8 L1011.5,314.8  "/>	<g transform="translate(1028.8,318.7)" stroke="none" fill="black" font-family="Helvetica" font-size="12.00" text-anchor="start">
		<text><tspan font-family="Helvetica"> 4</tspan></text>
	</g>
</g>
<g fill="none" color="black" stroke="currentColor" stroke-width="1.00" stroke-linecap="butt" stroke-linejoin="miter">
	<path stroke="black" d="M1020.5,227.9 L1011.5,227.9  "/>	<g transform="translate(1028.8,231.8)" stroke="none" fill="black" font-family="Helvetica" font-size="12.00" text-anchor="start">
		<text><tspan font-family="Helvetica"> 5</tspan></text>
	</g>
</g>
<g fill="none" color="black" stroke="currentColor" stroke-width="1.00" stroke-linecap="butt" stroke-linejoin="miter">
	<path stroke="black" d="M1020.5,141.0 L1011.5,141.0  "/>	<g transform="translate(1028.8,144.9)" stroke="none" fill="black" font-family="Helvetica" font-size="12.00" text-anchor="start">
		<text><tspan font-family="Helvetica"> 6</tspan></text>
	</g>
</g>
<g fill="none" color="black" stroke="currentColor" stroke-width="1.00" stroke-linecap="butt" stroke-linejoin="miter">
	<path stroke="black" d="M1020.5,54.1 L1011.5,54.1  "/>	<g transform="translate(1028.8,58.0)" stroke="none" fill="black" font-family="Helvetica" font-size="12.00" text-anchor="start">
		<text><tspan font-family="Helvetica"> 7</tspan></text>
	</g>
</g>
<g fill="none" color="black" stroke="currentColor" stroke-width="1.00" stroke-linecap="butt" stroke-linejoin="miter">
</g>
<g fill="none" color="black" stroke="currentColor" stroke-width="1.00" stroke-linecap="butt" stroke-linejoin="miter">
	<path stroke="black" d="M71.9,54.1 L71.9,662.4 L1020.5,662.4 L1020.5,54.1 L71.9,54.1 Z  "/></g>
<g fill="none" color="black" stroke="currentColor" stroke-width="1.00" stroke-linecap="butt" stroke-linejoin="miter">
	<g transform="translate(16.3,358.3) rotate(270)" stroke="none" fill="black" font-family="Helvetica" font-size="12.00" text-anchor="middle">
		<text><tspan font-family="Helvetica">Iterations</tspan></text>
	</g>
</g>
<g fill="none" color="black" stroke="currentColor" stroke-width="1.00" stroke-linecap="butt" stroke-linejoin="miter">
	<g transform="translate(1074.2,358.3) rotate(270)" stroke="none" fill="black" font-family="Helvetica" font-size="12.00" text-anchor="middle">
		<text><tspan font-family="Helvetica">Density (a.u.)</tspan></text>
	</g>
</g>
<g fill="none" color="black" stroke="currentColor" stroke-width="1.00" stroke-linecap="butt" stroke-linejoin="miter">
	<g transform="translate(546.2,711.3)" stroke="none" fill="black" font-family="Helvetica" font-size="12.00" text-anchor="middle">
		<text><tspan font-family="Helvetica">Average time (ms)</tspan></text>
	</g>
</g>
<g fill="none" color="black" stroke="currentColor" stroke-width="1.00" stroke-linecap="butt" stroke-linejoin="miter">
	<g transform="translate(546.2,31.0)" stroke="none" fill="black" font-family="Helvetica" font-size="12.00" text-anchor="middle">
		<text><tspan font-family="Helvetica">Problem 7/p7_tail_recursive_ish/12131415161718191010918171615145141313121</tspan></text>
	</g>
</g>
	<g id="gnuplot_plot_1"><title>PDF</title>
<g fill="none" color="black" stroke="currentColor" stroke-width="1.00" stroke-linecap="butt" stroke-linejoin="miter">
	<g transform="translate(1147.1,67.0)" stroke="none" fill="black" font-family="Helvetica" font-size="12.00" text-anchor="start">
		<text><tspan font-family="Helvetica">PDF</tspan></text>
	</g>
</g>
<g fill="none" color="black" stroke="currentColor" stroke-width="1.00" stroke-linecap="butt" stroke-linejoin="miter">
	<g stroke="none" shape-rendering="crispEdges">
		<polygon fill="rgb( 31, 120, 180)" fill-opacity="0.250000" points="1096.6,67.6 1138.8,67.6 1138.8,58.6 1096.6,58.6 "/>
		<polygon fill="rgb( 31, 120, 180)" fill-opacity="0.250000" points="71.9,662.1 73.8,662.1 75.7,662.0 77.6,661.9 79.5,661.9 81.4,661.8 83.3,661.7 85.2,661.6 87.1,661.5 89.0,661.4 90.9,661.3 92.8,661.2 94.7,661.0 96.6,660.8 98.5,660.7 100.4,660.5 102.3,660.2 104.2,660.0 106.1,659.7 108.0,659.4 109.9,659.1 111.8,658.8 113.7,658.4 115.6,658.0 117.5,657.6 119.4,657.2 121.3,656.7 123.2,656.2 125.1,655.6 127.0,655.1 128.9,654.5 130.8,653.8 132.7,653.1 134.6,652.4 136.5,651.7 138.4,650.9 140.3,650.2 142.2,649.3 144.1,648.5 146.0,647.6 147.9,646.7 149.8,645.8 151.7,644.8 153.6,643.9 155.5,642.9 157.4,641.9 159.3,641.0 161.2,640.0 163.1,639.0 165.0,638.0 167.0,637.0 168.9,636.1 170.8,635.1 172.7,634.2 174.6,633.3 176.5,632.4 178.4,631.6 180.3,630.8 182.2,630.0 184.1,629.3 186.0,628.6 187.9,628.0 189.8,627.4 191.7,626.8 193.6,626.4 195.5,626.0 197.4,625.6 199.3,625.3 201.2,625.0 203.1,624.8 205.0,624.7 206.9,624.6 208.8,624.6 210.7,624.6 212.6,624.7 214.5,624.8 216.4,625.0 218.3,625.2 220.2,625.4 222.1,625.7 224.0,626.0 225.9,626.4 227.8,626.7 229.7,627.1 231.6,627.5 233.5,627.9 235.4,628.3 237.3,628.7 239.2,629.2 241.1,629.6 243.0,630.0 244.9,630.3 246.8,630.7 248.7,631.1 250.6,631.4 252.5,631.7 254.4,632.0 256.3,632.2 258.2,632.4 260.1,632.5 262.0,632.6 263.9,632.7 265.8,632.7 267.7,632.7 269.6,632.6 271.5,632.5 273.4,632.3 275.3,632.0 277.2,631.7 279.1,631.3 281.0,630.9 282.9,630.4 284.8,629.8 286.7,629.2 288.6,628.5 290.5,627.7 292.4,626.8 294.3,625.9 296.2,624.9 298.1,623.8 300.0,622.6 301.9,621.4 303.8,620.1 305.7,618.6 307.6,617.2 309.5,615.6 311.4,613.9 313.3,612.2 315.2,610.3 317.1,608.4 319.0,606.4 320.9,604.3 322.8,602.1 324.7,599.9 326.6,597.5 328.5,595.1 330.4,592.5 332.3,589.9 334.2,587.2 336.1,584.3 338.0,581.4 339.9,578.4 341.8,575.3 343.7,572.1 345.6,568.8 347.5,565.3 349.4,561.8 351.3,558.1 353.2,554.3 355.1,550.4 357.1,546.4 359.0,542.3 360.9,537.9 362.8,533.5 364.7,528.9 366.6,524.1 368.5,519.2 370.4,514.1 372.3,508.8 374.2,503.4 376.1,497.7 378.0,491.8 379.9,485.7 381.8,479.5 383.7,473.0 385.6,466.2 387.5,459.2 389.4,452.0 391.3,444.6 393.2,436.9 395.1,429.0 397.0,420.8 398.9,412.4 400.8,403.8 402.7,394.9 404.6,385.8 406.5,376.5 408.4,366.9 410.3,357.2 412.2,347.3 414.1,337.2 416.0,326.9 417.9,316.6 419.8,306.1 421.7,295.5 423.6,284.9 425.5,274.2 427.4,263.6 429.3,253.0 431.2,242.4 433.1,231.9 435.0,221.6 436.9,211.4 438.8,201.5 440.7,191.8 442.6,182.3 444.5,173.2 446.4,164.5 448.3,156.2 450.2,148.3 452.1,140.8 454.0,133.9 455.9,127.6 457.8,121.8 459.7,116.6 461.6,112.1 463.5,108.2 465.4,105.1 467.3,102.6 469.2,100.9 471.1,99.9 473.0,99.6 474.9,100.1 476.8,101.4 478.7,103.4 480.6,106.1 482.5,109.6 484.4,113.8 486.3,118.8 488.2,124.4 490.1,130.7 492.0,137.7 493.9,145.3 495.8,153.4 497.7,162.2 499.6,171.4 501.5,181.2 503.4,191.3 505.3,201.9 507.2,212.9 509.1,224.1 511.0,235.7 512.9,247.5 514.8,259.5 516.7,271.6 518.6,283.9 520.5,296.2 522.4,308.5 524.3,320.9 526.2,333.2 528.1,345.5 530.0,357.6 531.9,369.6 533.8,381.5 535.7,393.1 537.6,404.6 539.5,415.8 541.4,426.7 543.3,437.4 545.2,447.8 547.2,457.9 549.1,467.6 551.0,477.1 552.9,486.2 554.8,494.9 556.7,503.4 558.6,511.5 560.5,519.2 562.4,526.7 564.3,533.7 566.2,540.5 568.1,546.9 570.0,553.0 571.9,558.8 573.8,564.3 575.7,569.5 577.6,574.4 579.5,579.0 581.4,583.4 583.3,587.5 585.2,591.3 587.1,595.0 589.0,598.4 590.9,601.5 592.8,604.5 594.7,607.3 596.6,609.9 598.5,612.4 600.4,614.6 602.3,616.8 604.2,618.8 606.1,620.6 608.0,622.4 609.9,624.0 611.8,625.5 613.7,626.9 615.6,628.2 617.5,629.4 619.4,630.6 621.3,631.7 623.2,632.7 625.1,633.7 627.0,634.6 628.9,635.4 630.8,636.2 632.7,637.0 634.6,637.7 636.5,638.3 638.4,639.0 640.3,639.6 642.2,640.2 644.1,640.7 646.0,641.2 647.9,641.7 649.8,642.2 651.7,642.7 653.6,643.1 655.5,643.6 657.4,644.0 659.3,644.4 661.2,644.8 663.1,645.1 665.0,645.5 666.9,645.9 668.8,646.2 670.7,646.6 672.6,646.9 674.5,647.2 676.4,647.5 678.3,647.9 680.2,648.2 682.1,648.5 684.0,648.8 685.9,649.1 687.8,649.5 689.7,649.8 691.6,650.1 693.5,650.4 695.4,650.7 697.3,651.1 699.2,651.4 701.1,651.7 703.0,652.0 704.9,652.3 706.8,652.7 708.7,653.0 710.6,653.3 712.5,653.6 714.4,654.0 716.3,654.3 718.2,654.6 720.1,654.9 722.0,655.2 723.9,655.6 725.8,655.9 727.7,656.2 729.6,656.5 731.5,656.7 733.4,657.0 735.3,657.3 737.3,657.6 739.2,657.8 741.1,658.1 743.0,658.3 744.9,658.5 746.8,658.7 748.7,658.9 750.6,659.1 752.5,659.3 754.4,659.4 756.3,659.6 758.2,659.7 760.1,659.8 762.0,659.9 763.9,660.0 765.8,660.1 767.7,660.1 769.6,660.2 771.5,660.2 773.4,660.2 775.3,660.2 777.2,660.2 779.1,660.1 781.0,660.1 782.9,660.0 784.8,659.9 786.7,659.8 788.6,659.6 790.5,659.5 792.4,659.3 794.3,659.2 796.2,659.0 798.1,658.7 800.0,658.5 801.9,658.3 803.8,658.0 805.7,657.8 807.6,657.5 809.5,657.2 811.4,656.9 813.3,656.5 815.2,656.2 817.1,655.8 819.0,655.5 820.9,655.1 822.8,654.8 824.7,654.4 826.6,654.0 828.5,653.6 830.4,653.2 832.3,652.8 834.2,652.4 836.1,652.0 838.0,651.6 839.9,651.3 841.8,650.9 843.7,650.5 845.6,650.1 847.5,649.8 849.4,649.5 851.3,649.1 853.2,648.8 855.1,648.5 857.0,648.3 858.9,648.0 860.8,647.8 862.7,647.6 864.6,647.4 866.5,647.2 868.4,647.1 870.3,646.9 872.2,646.8 874.1,646.8 876.0,646.7 877.9,646.7 879.8,646.7 881.7,646.8 883.6,646.8 885.5,646.9 887.4,647.0 889.3,647.2 891.2,647.4 893.1,647.5 895.0,647.8 896.9,648.0 898.8,648.2 900.7,648.5 902.6,648.8 904.5,649.1 906.4,649.4 908.3,649.8 910.2,650.1 912.1,650.5 914.0,650.9 915.9,651.2 917.8,651.6 919.7,652.0 921.6,652.4 923.5,652.8 925.4,653.2 927.4,653.6 929.3,654.0 931.2,654.4 933.1,654.8 935.0,655.2 936.9,655.5 938.8,655.9 940.7,656.3 942.6,656.6 944.5,656.9 946.4,657.3 948.3,657.6 950.2,657.9 952.1,658.2 954.0,658.5 955.9,658.7 957.8,659.0 959.7,659.3 961.6,659.5 963.5,659.7 965.4,659.9 967.3,660.1 969.2,660.3 971.1,660.5 973.0,660.6 974.9,660.8 976.8,660.9 978.7,661.1 980.6,661.2 982.5,661.3 984.4,661.4 986.3,661.5 988.2,661.6 990.1,661.7 992.0,661.7 993.9,661.8 995.8,661.9 997.7,661.9 999.6,662.0 1001.5,662.0 1003.4,662.1 1005.3,662.1 1007.2,662.1 1009.1,662.2 1011.0,662.2 1012.9,662.2 1014.8,662.2 1016.7,662.3 1018.6,662.3 1020.5,662.3 1020.5,662.4 1018.6,662.4 1016.7,662.4 1014.8,662.4 1012.9,662.4 1011.0,662.4 1009.1,662.4 1007.2,662.4 1005.3,662.4 1003.4,662.4 1001.5,662.4 999.6,662.4 997.7,662.4 995.8,662.4 993.9,662.4 992.0,662.4 990.1,662.4 988.2,662.4 986.3,662.4 984.4,662.4 982.5,662.4 980.6,662.4 978.7,662.4 976.8,662.4 974.9,662.4 973.0,662.4 971.1,662.4 969.2,662.4 967.3,662.4 965.4,662.4 963.5,662.4 961.6,662.4 959.7,662.4 957.8,662.4 955.9,662.4 954.0,662.4 952.1,662.4 950.2,662.4 948.3,662.4 946.4,662.4 944.5,662.4 942.6,662.4 940.7,662.4 938.8,662.4 936.9,662.4 935.0,662.4 933.1,662.4 931.2,662.4 929.3,662.4 927.4,662.4 925.4,662.4 923.5,662.4 921.6,662.4 919.7,662.4 917.8,662.4 915.9,662.4 914.0,662.4 912.1,662.4 910.2,662.4 908.3,662.4 906.4,662.4 904.5,662.4 902.6,662.4 900.7,662.4 898.8,662.4 896.9,662.4 895.0,662.4 893.1,662.4 891.2,662.4 889.3,662.4 887.4,662.4 885.5,662.4 883.6,662.4 881.7,662.4 879.8,662.4 877.9,662.4 876.0,662.4 874.1,662.4 872.2,662.4 870.3,662.4 868.4,662.4 866.5,662.4 864.6,662.4 862.7,662.4 860.8,662.4 858.9,662.4 857.0,662.4 855.1,662.4 853.2,662.4 851.3,662.4 849.4,662.4 847.5,662.4 845.6,662.4 843.7,662.4 841.8,662.4 839.9,662.4 838.0,662.4 836.1,662.4 834.2,662.4 832.3,662.4 830.4,662.4 828.5,662.4 826.6,662.4 824.7,662.4 822.8,662.4 820.9,662.4 819.0,662.4 817.1,662.4 815.2,662.4 813.3,662.4 811.4,662.4 809.5,662.4 807.6,662.4 805.7,662.4 803.8,662.4 801.9,662.4 800.0,662.4 798.1,662.4 796.2,662.4 794.3,662.4 792.4,662.4 790.5,662.4 788.6,662.4 786.7,662.4 784.8,662.4 782.9,662.4 781.0,662.4 779.1,662.4 777.2,662.4 775.3,662.4 773.4,662.4 771.5,662.4 769.6,662.4 767.7,662.4 765.8,662.4 763.9,662.4 762.0,662.4 760.1,662.4 758.2,662.4 756.3,662.4 754.4,662.4 752.5,662.4 750.6,662.4 748.7,662.4 746.8,662.4 744.9,662.4 743.0,662.4 741.1,662.4 739.2,662.4 737.3,662.4 735.3,662.4 733.4,662.4 731.5,662.4 729.6,662.4 727.7,662.4 725.8,662.4 723.9,662.4 722.0,662.4 720.1,662.4 718.2,662.4 716.3,662.4 714.4,662.4 712.5,662.4 710.6,662.4 708.7,662.4 706.8,662.4 704.9,662.4 703.0,662.4 701.1,662.4 699.2,662.4 697.3,662.4 695.4,662.4 693.5,662.4 691.6,662.4 689.7,662.4 687.8,662.4 685.9,662.4 684.0,662.4 682.1,662.4 680.2,662.4 678.3,662.4 676.4,662.4 674.5,662.4 672.6,662.4 670.7,662.4 668.8,662.4 666.9,662.4 665.0,662.4 663.1,662.4 661.2,662.4 659.3,662.4 657.4,662.4 655.5,662.4 653.6,662.4 651.7,662.4 649.8,662.4 647.9,662.4 646.0,662.4 644.1,662.4 642.2,662.4 640.3,662.4 638.4,662.4 636.5,662.4 634.6,662.4 632.7,662.4 630.8,662.4 628.9,662.4 627.0,662.4 625.1,662.4 623.2,662.4 621.3,662.4 619.4,662.4 617.5,662.4 615.6,662.4 613.7,662.4 611.8,662.4 609.9,662.4 608.0,662.4 606.1,662.4 604.2,662.4 602.3,662.4 600.4,662.4 598.5,662.4 596.6,662.4 594.7,662.4 592.8,662.4 590.9,662.4 589.0,662.4 587.1,662.4 585.2,662.4 583.3,662.4 581.4,662.4 579.5,662.4 577.6,662.4 575.7,662.4 573.8,662.4 571.9,662.4 570.0,662.4 568.1,662.4 566.2,662.4 564.3,662.4 562.4,662.4 560.5,662.4 558.6,662.4 556.7,662.4 554.8,662.4 552.9,662.4 551.0,662.4 549.1,662.4 547.2,662.4 545.2,662.4 543.3,662.4 541.4,662.4 539.5,662.4 537.6,662.4 535.7,662.4 533.8,662.4 531.9,662.4 530.0,662.4 528.1,662.4 526.2,662.4 524.3,662.4 522.4,662.4 520.5,662.4 518.6,662.4 516.7,662.4 514.8,662.4 512.9,662.4 511.0,662.4 509.1,662.4 507.2,662.4 505.3,662.4 503.4,662.4 501.5,662.4 499.6,662.4 497.7,662.4 495.8,662.4 493.9,662.4 492.0,662.4 490.1,662.4 488.2,662.4 486.3,662.4 484.4,662.4 482.5,662.4 480.6,662.4 478.7,662.4 476.8,662.4 474.9,662.4 473.0,662.4 471.1,662.4 469.2,662.4 467.3,662.4 465.4,662.4 463.5,662.4 461.6,662.4 459.7,662.4 457.8,662.4 455.9,662.4 454.0,662.4 452.1,662.4 450.2,662.4 448.3,662.4 446.4,662.4 444.5,662.4 442.6,662.4 440.7,662.4 438.8,662.4 436.9,662.4 435.0,662.4 433.1,662.4 431.2,662.4 429.3,662.4 427.4,662.4 425.5,662.4 423.6,662.4 421.7,662.4 419.8,662.4 417.9,662.4 416.0,662.4 414.1,662.4 412.2,662.4 410.3,662.4 408.4,662.4 406.5,662.4 404.6,662.4 402.7,662.4 400.8,662.4 398.9,662.4 397.0,662.4 395.1,662.4 393.2,662.4 391.3,662.4 389.4,662.4 387.5,662.4 385.6,662.4 383.7,662.4 381.8,662.4 379.9,662.4 378.0,662.4 376.1,662.4 374.2,662.4 372.3,662.4 370.4,662.4 368.5,662.4 366.6,662.4 364.7,662.4 362.8,662.4 360.9,662.4 359.0,662.4 357.1,662.4 355.1,662.4 353.2,662.4 351.3,662.4 349.4,662.4 347.5,662.4 345.6,662.4 343.7,662.4 341.8,662.4 339.9,662.4 338.0,662.4 336.1,662.4 334.2,662.4 332.3,662.4 330.4,662.4 328.5,662.4 326.6,662.4 324.7,662.4 322.8,662.4 320.9,662.4 319.0,662.4 317.1,662.4 315.2,662.4 313.3,662.4 311.4,662.4 309.5,662.4 307.6,662.4 305.7,662.4 303.8,662.4 301.9,662.4 300.0,662.4 298.1,662.4 296.2,662.4 294.3,662.4 292.4,662.4 290.5,662.4 288.6,662.4 286.7,662.4 284.8,662.4 282.9,662.4 281.0,662.4 279.1,662.4 277.2,662.4 275.3,662.4 273.4,662.4 271.5,662.4 269.6,662.4 267.7,662.4 265.8,662.4 263.9,662.4 262.0,662.4 260.1,662.4 258.2,662.4 256.3,662.4 254.4,662.4 252.5,662.4 250.6,662.4 248.7,662.4 246.8,662.4 244.9,662.4 243.0,662.4 241.1,662.4 239.2,662.4 237.3,662.4 235.4,662.4 233.5,662.4 231.6,662.4 229.7,662.4 227.8,662.4 225.9,662.4 224.0,662.4 222.1,662.4 220.2,662.4 218.3,662.4 216.4,662.4 214.5,662.4 212.6,662.4 210.7,662.4 208.8,662.4 206.9,662.4 205.0,662.4 203.1,662.4 201.2,662.4 199.3,662.4 197.4,662.4 195.5,662.4 193.6,662.4 191.7,662.4 189.8,662.4 187.9,662.4 186.0,662.4 184.1,662.4 182.2,662.4 180.3,662.4 178.4,662.4 176.5,662.4 174.6,662.4 172.7,662.4 170.8,662.4 168.9,662.4 167.0,662.4 165.0,662.4 163.1,662.4 161.2,662.4 159.3,662.4 157.4,662.4 155.5,662.4 153.6,662.4 151.7,662.4 149.8,662.4 147.9,662.4 146.0,662.4 144.1,662.4 142.2,662.4 140.3,662.4 138.4,662.4 136.5,662.4 134.6,662.4 132.7,662.4 130.8,662.4 128.9,662.4 127.0,662.4 125.1,662.4 123.2,662.4 121.3,662.4 119.4,662.4 117.5,662.4 115.6,662.4 113.7,662.4 111.8,662.4 109.9,662.4 108.0,662.4 106.1,662.4 104.2,662.4 102.3,662.4 100.4,662.4 98.5,662.4 96.6,662.4 94.7,662.4 92.8,662.4 90.9,662.4 89.0,662.4 87.1,662.4 85.2,662.4 83.3,662.4 81.4,662.4 79.5,662.4 77.6,662.4 75.7,662.4 73.8,662.4 71.9,662.4 "/>
	</g>
</g>
	</g>
	<g id="gnuplot_plot_2"><title>Mean</title>
<g fill="none" color="white" stroke="rgb( 31, 120, 180)" stroke-width="2.00" stroke-linecap="butt" stroke-linejoin="miter">
</g>
<g fill="none" color="black" stroke="currentColor" stroke-width="2.00" stroke-linecap="butt" stroke-linejoin="miter">
	<g transform="translate(1147.1,85.0)" stroke="none" fill="black" font-family="Helvetica" font-size="12.00" text-anchor="start">
		<text><tspan font-family="Helvetica">Mean</tspan></text>
	</g>
</g>
<g fill="none" color="black" stroke="currentColor" stroke-width="2.00" stroke-linecap="butt" stroke-linejoin="miter">
	<path stroke="rgb( 31, 120, 180)" d="M1096.6,81.1 L1138.8,81.1 M463.2,662.4 L463.2,54.1  "/></g>
	</g>
	<g id="gnuplot_plot_3"><title>"Clean" sample</title>
<g fill="none" color="white" stroke="rgb( 31, 120, 180)" stroke-width="1.00" stroke-linecap="butt" stroke-linejoin="miter">
</g>
<g fill="none" color="black" stroke="currentColor" stroke-width="1.00" stroke-linecap="butt" stroke-linejoin="miter">
	<g transform="translate(1147.1,103.0)" stroke="none" fill="black" font-family="Helvetica" font-size="12.00" text-anchor="start">
		<text><tspan font-family="Helvetica">"Clean" sample</tspan></text>
	</g>
</g>
<g fill="none" color="black" stroke="currentColor" stroke-width="1.00" stroke-linecap="butt" stroke-linejoin="miter">
	<use xlink:href="#gpPt6" transform="translate(410.0,656.3) scale(3.38)" color="rgb( 31, 120, 180)"/>
	<use xlink:href="#gpPt6" transform="translate(359.4,650.2) scale(3.38)" color="rgb( 31, 120, 180)"/>
	<use xlink:href="#gpPt6" transform="translate(465.9,619.8) scale(3.38)" color="rgb( 31, 120, 180)"/>
	<use xlink:href="#gpPt6" transform="translate(372.0,601.6) scale(3.38)" color="rgb( 31, 120, 180)"/>
	<use xlink:href="#gpPt6" transform="translate(436.6,595.5) scale(3.38)" color="rgb( 31, 120, 180)"/>
	<use xlink:href="#gpPt6" transform="translate(564.9,589.4) scale(3.38)" color="rgb( 31, 120, 180)"/>
	<use xlink:href="#gpPt6" transform="translate(358.5,583.3) scale(3.38)" color="rgb( 31, 120, 180)"/>
	<use xlink:href="#gpPt6" transform="translate(363.3,577.2) scale(3.38)" color="rgb( 31, 120, 180)"/>
	<use xlink:href="#gpPt6" transform="translate(413.7,565.1) scale(3.38)" color="rgb( 31, 120, 180)"/>
	<use xlink:href="#gpPt6" transform="translate(373.7,559.0) scale(3.38)" color="rgb( 31, 120, 180)"/>
	<use xlink:href="#gpPt6" transform="translate(511.7,552.9) scale(3.38)" color="rgb( 31, 120, 180)"/>
	<use xlink:href="#gpPt6" transform="translate(361.9,546.8) scale(3.38)" color="rgb( 31, 120, 180)"/>
	<use xlink:href="#gpPt6" transform="translate(553.7,540.7) scale(3.38)" color="rgb( 31, 120, 180)"/>
	<use xlink:href="#gpPt6" transform="translate(421.3,534.7) scale(3.38)" color="rgb( 31, 120, 180)"/>
	<use xlink:href="#gpPt6" transform="translate(535.3,528.6) scale(3.38)" color="rgb( 31, 120, 180)"/>
	<use xlink:href="#gpPt6" transform="translate(433.5,522.5) scale(3.38)" color="rgb( 31, 120, 180)"/>
	<use xlink:href="#gpPt6" transform="translate(535.6,516.4) scale(3.38)" color="rgb( 31, 120, 180)"/>
	<use xlink:href="#gpPt6" transform="translate(409.2,510.3) scale(3.38)" color="rgb( 31, 120, 180)"/>
	<use xlink:href="#gpPt6" transform="translate(524.8,504.2) scale(3.38)" color="rgb( 31, 120, 180)"/>
	<use xlink:href="#gpPt6" transform="translate(413.0,498.2) scale(3.38)" color="rgb( 31, 120, 180)"/>
	<use xlink:href="#gpPt6" transform="translate(490.4,492.1) scale(3.38)" color="rgb( 31, 120, 180)"/>
	<use xlink:href="#gpPt6" transform="translate(514.4,486.0) scale(3.38)" color="rgb( 31, 120, 180)"/>
	<use xlink:href="#gpPt6" transform="translate(399.5,479.9) scale(3.38)" color="rgb( 31, 120, 180)"/>
	<use xlink:href="#gpPt6" transform="translate(499.5,473.8) scale(3.38)" color="rgb( 31, 120, 180)"/>
	<use xlink:href="#gpPt6" transform="translate(518.3,467.7) scale(3.38)" color="rgb( 31, 120, 180)"/>
	<use xlink:href="#gpPt6" transform="translate(440.6,461.7) scale(3.38)" color="rgb( 31, 120, 180)"/>
	<use xlink:href="#gpPt6" transform="translate(423.2,455.6) scale(3.38)" color="rgb( 31, 120, 180)"/>
	<use xlink:href="#gpPt6" transform="translate(456.2,449.5) scale(3.38)" color="rgb( 31, 120, 180)"/>
	<use xlink:href="#gpPt6" transform="translate(474.0,443.4) scale(3.38)" color="rgb( 31, 120, 180)"/>
	<use xlink:href="#gpPt6" transform="translate(477.7,413.0) scale(3.38)" color="rgb( 31, 120, 180)"/>
	<use xlink:href="#gpPt6" transform="translate(495.9,406.9) scale(3.38)" color="rgb( 31, 120, 180)"/>
	<use xlink:href="#gpPt6" transform="translate(479.5,400.8) scale(3.38)" color="rgb( 31, 120, 180)"/>
	<use xlink:href="#gpPt6" transform="translate(492.5,394.7) scale(3.38)" color="rgb( 31, 120, 180)"/>
	<use xlink:href="#gpPt6" transform="translate(481.7,388.7) scale(3.38)" color="rgb( 31, 120, 180)"/>
	<use xlink:href="#gpPt6" transform="translate(468.3,382.6) scale(3.38)" color="rgb( 31, 120, 180)"/>
	<use xlink:href="#gpPt6" transform="translate(473.9,376.5) scale(3.38)" color="rgb( 31, 120, 180)"/>
	<use xlink:href="#gpPt6" transform="translate(502.2,370.4) scale(3.38)" color="rgb( 31, 120, 180)"/>
	<use xlink:href="#gpPt6" transform="translate(480.1,364.3) scale(3.38)" color="rgb( 31, 120, 180)"/>
	<use xlink:href="#gpPt6" transform="translate(476.7,358.2) scale(3.38)" color="rgb( 31, 120, 180)"/>
	<use xlink:href="#gpPt6" transform="translate(515.0,352.2) scale(3.38)" color="rgb( 31, 120, 180)"/>
	<use xlink:href="#gpPt6" transform="translate(483.2,346.1) scale(3.38)" color="rgb( 31, 120, 180)"/>
	<use xlink:href="#gpPt6" transform="translate(476.6,340.0) scale(3.38)" color="rgb( 31, 120, 180)"/>
	<use xlink:href="#gpPt6" transform="translate(472.2,333.9) scale(3.38)" color="rgb( 31, 120, 180)"/>
	<use xlink:href="#gpPt6" transform="translate(462.0,327.8) scale(3.38)" color="rgb( 31, 120, 180)"/>
	<use xlink:href="#gpPt6" transform="translate(522.8,321.8) scale(3.38)" color="rgb( 31, 120, 180)"/>
	<use xlink:href="#gpPt6" transform="translate(481.1,315.7) scale(3.38)" color="rgb( 31, 120, 180)"/>
	<use xlink:href="#gpPt6" transform="translate(455.0,309.6) scale(3.38)" color="rgb( 31, 120, 180)"/>
	<use xlink:href="#gpPt6" transform="translate(479.3,303.5) scale(3.38)" color="rgb( 31, 120, 180)"/>
	<use xlink:href="#gpPt6" transform="translate(500.3,297.4) scale(3.38)" color="rgb( 31, 120, 180)"/>
	<use xlink:href="#gpPt6" transform="translate(466.1,291.3) scale(3.38)" color="rgb( 31, 120, 180)"/>
	<use xlink:href="#gpPt6" transform="translate(512.5,285.3) scale(3.38)" color="rgb( 31, 120, 180)"/>
	<use xlink:href="#gpPt6" transform="translate(466.9,279.2) scale(3.38)" color="rgb( 31, 120, 180)"/>
	<use xlink:href="#gpPt6" transform="translate(460.7,273.1) scale(3.38)" color="rgb( 31, 120, 180)"/>
	<use xlink:href="#gpPt6" transform="translate(473.1,267.0) scale(3.38)" color="rgb( 31, 120, 180)"/>
	<use xlink:href="#gpPt6" transform="translate(405.9,260.9) scale(3.38)" color="rgb( 31, 120, 180)"/>
	<use xlink:href="#gpPt6" transform="translate(474.6,254.8) scale(3.38)" color="rgb( 31, 120, 180)"/>
	<use xlink:href="#gpPt6" transform="translate(453.6,248.8) scale(3.38)" color="rgb( 31, 120, 180)"/>
	<use xlink:href="#gpPt6" transform="translate(485.8,242.7) scale(3.38)" color="rgb( 31, 120, 180)"/>
	<use xlink:href="#gpPt6" transform="translate(418.8,236.6) scale(3.38)" color="rgb( 31, 120, 180)"/>
	<use xlink:href="#gpPt6" transform="translate(469.7,230.5) scale(3.38)" color="rgb( 31, 120, 180)"/>
	<use xlink:href="#gpPt6" transform="translate(484.1,224.4) scale(3.38)" color="rgb( 31, 120, 180)"/>
	<use xlink:href="#gpPt6" transform="translate(472.9,218.3) scale(3.38)" color="rgb( 31, 120, 180)"/>
	<use xlink:href="#gpPt6" transform="translate(499.3,212.3) scale(3.38)" color="rgb( 31, 120, 180)"/>
	<use xlink:href="#gpPt6" transform="translate(481.7,206.2) scale(3.38)" color="rgb( 31, 120, 180)"/>
	<use xlink:href="#gpPt6" transform="translate(458.9,200.1) scale(3.38)" color="rgb( 31, 120, 180)"/>
	<use xlink:href="#gpPt6" transform="translate(464.0,194.0) scale(3.38)" color="rgb( 31, 120, 180)"/>
	<use xlink:href="#gpPt6" transform="translate(479.4,187.9) scale(3.38)" color="rgb( 31, 120, 180)"/>
	<use xlink:href="#gpPt6" transform="translate(418.8,181.8) scale(3.38)" color="rgb( 31, 120, 180)"/>
	<use xlink:href="#gpPt6" transform="translate(490.1,175.8) scale(3.38)" color="rgb( 31, 120, 180)"/>
	<use xlink:href="#gpPt6" transform="translate(497.7,169.7) scale(3.38)" color="rgb( 31, 120, 180)"/>
	<use xlink:href="#gpPt6" transform="translate(496.2,163.6) scale(3.38)" color="rgb( 31, 120, 180)"/>
	<use xlink:href="#gpPt6" transform="translate(489.4,157.5) scale(3.38)" color="rgb( 31, 120, 180)"/>
	<use xlink:href="#gpPt6" transform="translate(468.5,151.4) scale(3.38)" color="rgb( 31, 120, 180)"/>
	<use xlink:href="#gpPt6" transform="translate(479.7,145.3) scale(3.38)" color="rgb( 31, 120, 180)"/>
	<use xlink:href="#gpPt6" transform="translate(482.9,139.3) scale(3.38)" color="rgb( 31, 120, 180)"/>
	<use xlink:href="#gpPt6" transform="translate(434.1,133.2) scale(3.38)" color="rgb( 31, 120, 180)"/>
	<use xlink:href="#gpPt6" transform="translate(474.6,127.1) scale(3.38)" color="rgb( 31, 120, 180)"/>
	<use xlink:href="#gpPt6" transform="translate(447.8,121.0) scale(3.38)" color="rgb( 31, 120, 180)"/>
	<use xlink:href="#gpPt6" transform="translate(453.8,114.9) scale(3.38)" color="rgb( 31, 120, 180)"/>
	<use xlink:href="#gpPt6" transform="translate(473.3,108.8) scale(3.38)" color="rgb( 31, 120, 180)"/>
	<use xlink:href="#gpPt6" transform="translate(458.2,102.8) scale(3.38)" color="rgb( 31, 120, 180)"/>
	<use xlink:href="#gpPt6" transform="translate(450.7,96.7) scale(3.38)" color="rgb( 31, 120, 180)"/>
	<use xlink:href="#gpPt6" transform="translate(466.7,90.6) scale(3.38)" color="rgb( 31, 120, 180)"/>
	<use xlink:href="#gpPt6" transform="translate(480.0,84.5) scale(3.38)" color="rgb( 31, 120, 180)"/>
	<use xlink:href="#gpPt6" transform="translate(451.2,78.4) scale(3.38)" color="rgb( 31, 120, 180)"/>
	<use xlink:href="#gpPt6" transform="translate(438.8,66.3) scale(3.38)" color="rgb( 31, 120, 180)"/>
	<use xlink:href="#gpPt6" transform="translate(467.9,60.2) scale(3.38)" color="rgb( 31, 120, 180)"/>
	<use xlink:href="#gpPt6" transform="translate(473.9,54.1) scale(3.38)" color="rgb( 31, 120, 180)"/>
	<use xlink:href="#gpPt6" transform="translate(1117.7,99.1) scale(3.38)" color="rgb( 31, 120, 180)"/>
</g>
	</g>
	<g id="gnuplot_plot_4"><title>Mild outliers</title>
<g fill="none" color="black" stroke="currentColor" stroke-width="1.00" stroke-linecap="butt" stroke-linejoin="miter">
	<g transform="translate(1147.1,121.0)" stroke="none" fill="black" font-family="Helvetica" font-size="12.00" text-anchor="start">
		<text><tspan font-family="Helvetica">Mild outliers</tspan></text>
	</g>
</g>
<g fill="none" color="black" stroke="currentColor" stroke-width="1.00" stroke-linecap="butt" stroke-linejoin="miter">
	<use xlink:href="#gpPt6" transform="translate(343.6,625.9) scale(3.38)" color="rgb(255, 127,   0)"/>
	<use xlink:href="#gpPt6" transform="translate(627.8,571.2) scale(3.38)" color="rgb(255, 127,   0)"/>
	<use xlink:href="#gpPt6" transform="translate(603.5,431.2) scale(3.38)" color="rgb(255, 127,   0)"/>
	<use xlink:href="#gpPt6" transform="translate(300.3,72.3) scale(3.38)" color="rgb(255, 127,   0)"/>
	<use xlink:href="#gpPt6" transform="translate(1117.7,117.1) scale(3.38)" color="rgb(255, 127,   0)"/>
</g>
	</g>
	<g id="gnuplot_plot_5"><title>Severe outliers</title>
<g fill="none" color="black" stroke="currentColor" stroke-width="1.00" stroke-linecap="butt" stroke-linejoin="miter">
	<g transform="translate(1147.1,139.0)" stroke="none" fill="black" font-family="Helvetica" font-size="12.00" text-anchor="start">
		<text><tspan font-family="Helvetica">Severe outliers</tspan></text>
	</g>
</g>
<g fill="none" color="black" stroke="currentColor" stroke-width="1.00" stroke-linecap="butt" stroke-linejoin="miter">
	<use xlink:href="#gpPt6" transform="translate(196.1,644.2) scale(3.38)" color="rgb(227,  26,  28)"/>
	<use xlink:href="#gpPt6" transform="translate(197.0,638.1) scale(3.38)" color="rgb(227,  26,  28)"/>
	<use xlink:href="#gpPt6" transform="translate(210.8,632.0) scale(3.38)" color="rgb(227,  26,  28)"/>
	<use xlink:href="#gpPt6" transform="translate(265.3,613.7) scale(3.38)" color="rgb(227,  26,  28)"/>
	<use xlink:href="#gpPt6" transform="translate(198.3,607.7) scale(3.38)" color="rgb(227,  26,  28)"/>
	<use xlink:href="#gpPt6" transform="translate(896.3,437.3) scale(3.38)" color="rgb(227,  26,  28)"/>
	<use xlink:href="#gpPt6" transform="translate(859.7,425.2) scale(3.38)" color="rgb(227,  26,  28)"/>
	<use xlink:href="#gpPt6" transform="translate(689.2,419.1) scale(3.38)" color="rgb(227,  26,  28)"/>
	<use xlink:href="#gpPt6" transform="translate(1117.7,135.1) scale(3.38)" color="rgb(227,  26,  28)"/>
</g>
	</g>
	<g id="gnuplot_plot_6"><title>gnuplot_plot_6</title>
<g fill="none" color="white" stroke="rgb(227,  26,  28)" stroke-width="2.00" stroke-linecap="butt" stroke-linejoin="miter">
</g>
<g fill="none" color="black" stroke="currentColor" stroke-width="2.00" stroke-linecap="butt" stroke-linejoin="miter">
	<path stroke="rgb(255, 127,   0)" d="M354.6,662.4 L354.6,54.1  "/></g>
	</g>
	<g id="gnuplot_plot_7"><title>gnuplot_plot_7</title>
<g fill="none" color="black" stroke="currentColor" stroke-width="2.00" stroke-linecap="butt" stroke-linejoin="miter">
	<path stroke="rgb(255, 127,   0)" d="M571.5,662.4 L571.5,54.1  "/></g>
	</g>
	<g id="gnuplot_plot_8"><title>gnuplot_plot_8</title>
<g fill="none" color="black" stroke="currentColor" stroke-width="2.00" stroke-linecap="butt" stroke-linejoin="miter">
	<path stroke="rgb(227,  26,  28)" d="M273.3,662.4 L273.3,54.1  "/></g>
	</g>
	<g id="gnuplot_plot_9"><title>gnuplot_plot_9</title>
<g fill="none" color="black" stroke="currentColor" stroke-width="2.00" stroke-linecap="butt" stroke-linejoin="miter">
	<path stroke="rgb(227,  26,  28)" d="M652.8,662.4 L652.8,54.1  "/></g>
	</g>
<g fill="none" color="black" stroke="currentColor" stroke-width="2.00" stroke-linecap="butt" stroke-linejoin="miter">
</g>
<g fill="none" color="black" stroke="black" stroke-width="1.00" stroke-linecap="butt" stroke-linejoin="miter">
</g>
<g fill="none" color="black" stroke="currentColor" stroke-width="1.00" stroke-linecap="butt" stroke-linejoin="miter">
	<path stroke="black" d="M71.9,54.1 L71.9,662.4 L1020.5,662.4 L1020.5,54.1 L71.9,54.1 Z  "/></g>
<g fill="none" color="black" stroke="currentColor" stroke-width="1.00" stroke-linecap="butt" stroke-linejoin="miter">
</g>
</g>
</svg>