<?xml version="1.0" encoding="UTF-8" standalone="no"?>
<svg viewBox="0 0 1280 720" xmlns="http://www.w3.org/2000/svg" xmlns:xlink="http://www.w3.org/1999/xlink">

<title>Gnuplot</title>
<desc>Produced by GNUPLOT 5.2 patchlevel 2 </desc>

<g id="gnuplot_canvas">

<rect x="0" y="0" width="1280" height="720" fill="none"/>
<defs>

	<circle id="gpDot" r="0.5" stroke-width="0.5"/>
	<path id="gpPt0" stroke-width="0.222" stroke="currentColor" d="M-1,0 h2 M0,-1 v2"/>
	<path id="gpPt1" stroke-width="0.222" stroke="currentColor" d="M-1,-1 L1,1 M1,-1 L-1,1"/>
	<path id="gpPt2" stroke-width="0.222" stroke="currentColor" d="M-1,0 L1,0 M0,-1 L0,1 M-1,-1 L1,1 M-1,1 L1,-1"/>
	<rect id="gpPt3" stroke-width="0.222" stroke="currentColor" x="-1" y="-1" width="2" height="2"/>
	<rect id="gpPt4" stroke-width="0.222" stroke="currentColor" fill="currentColor" x="-1" y="-1" width="2" height="2"/>
	<circle id="gpPt5" stroke-width="0.222" stroke="currentColor" cx="0" cy="0" r="1"/>
	<use xlink:href="#gpPt5" id="gpPt6" fill="currentColor" stroke="none"/>
	<path id="gpPt7" stroke-width="0.222" stroke="currentColor" d="M0,-1.33 L-1.33,0.67 L1.33,0.67 z"/>
	<use xlink:href="#gpPt7" id="gpPt8" fill="currentColor" stroke="none"/>
	<use xlink:href="#gpPt7" id="gpPt9" stroke="currentColor" transform="rotate(180)"/>
	<use xlink:href="#gpPt9" id="gpPt10" fill="currentColor" stroke="none"/>
	<use xlink:href="#gpPt3" id="gpPt11" stroke="currentColor" transform="rotate(45)"/>
	<use xlink:href="#gpPt11" id="gpPt12" fill="currentColor" stroke="none"/>
	<path id="gpPt13" stroke-width="0.222" stroke="currentColor" d="M0,1.330 L1.265,0.411 L0.782,-1.067 L-0.782,-1.076 L-1.265,0.411 z"/>
	<use xlink:href="#gpPt13" id="gpPt14" fill="currentColor" stroke="none"/>
	<filter id="textbox" filterUnits="objectBoundingBox" x="0" y="0" height="1" width="1">
	  <feFlood flood-color="white" flood-opacity="1" result="bgnd"/>
	  <feComposite in="SourceGraphic" in2="bgnd" operator="atop"/>
	</filter>
	<filter id="greybox" filterUnits="objectBoundingBox" x="0" y="0" height="1" width="1">
	  <feFlood flood-color="lightgrey" flood-opacity="1" result="grey"/>
	  <feComposite in="SourceGraphic" in2="grey" operator="atop"/>
	</filter>
</defs>
<g fill="none" color="white" stroke="currentColor" stroke-width="1.00" stroke-linecap="butt" stroke-linejoin="miter">
</g>
<g fill="none" color="black" stroke="currentColor" stroke-width="1.00" stroke-linecap="butt" stroke-linejoin="miter">
	<path stroke="black" d="M71.9,662.4 L80.9,662.4  "/>	<g transform="translate(63.6,666.3)" stroke="none" fill="black" font-family="Helvetica" font-size="12.00" text-anchor="end">
		<text><tspan font-family="Helvetica"> 0</tspan></text>
	</g>
</g>
<g fill="none" color="black" stroke="currentColor" stroke-width="1.00" stroke-linecap="butt" stroke-linejoin="miter">
	<path stroke="black" d="M71.9,540.7 L80.9,540.7  "/>	<g transform="translate(63.6,544.6)" stroke="none" fill="black" font-family="Helvetica" font-size="12.00" text-anchor="end">
		<text><tspan font-family="Helvetica"> 20</tspan></text>
	</g>
</g>
<g fill="none" color="black" stroke="currentColor" stroke-width="1.00" stroke-linecap="butt" stroke-linejoin="miter">
	<path stroke="black" d="M71.9,419.1 L80.9,419.1  "/>	<g transform="translate(63.6,423.0)" stroke="none" fill="black" font-family="Helvetica" font-size="12.00" text-anchor="end">
		<text><tspan font-family="Helvetica"> 40</tspan></text>
	</g>
</g>
<g fill="none" color="black" stroke="currentColor" stroke-width="1.00" stroke-linecap="butt" stroke-linejoin="miter">
	<path stroke="black" d="M71.9,297.4 L80.9,297.4  "/>	<g transform="translate(63.6,301.3)" stroke="none" fill="black" font-family="Helvetica" font-size="12.00" text-anchor="end">
		<text><tspan font-family="Helvetica"> 60</tspan></text>
	</g>
</g>
<g fill="none" color="black" stroke="currentColor" stroke-width="1.00" stroke-linecap="butt" stroke-linejoin="miter">
	<path stroke="black" d="M71.9,175.8 L80.9,175.8  "/>	<g transform="translate(63.6,179.7)" stroke="none" fill="black" font-family="Helvetica" font-size="12.00" text-anchor="end">
		<text><tspan font-family="Helvetica"> 80</tspan></text>
	</g>
</g>
<g fill="none" color="black" stroke="currentColor" stroke-width="1.00" stroke-linecap="butt" stroke-linejoin="miter">
	<path stroke="black" d="M71.9,54.1 L80.9,54.1  "/>	<g transform="translate(63.6,58.0)" stroke="none" fill="black" font-family="Helvetica" font-size="12.00" text-anchor="end">
		<text><tspan font-family="Helvetica"> 100</tspan></text>
	</g>
</g>
<g fill="none" color="black" stroke="currentColor" stroke-width="1.00" stroke-linecap="butt" stroke-linejoin="miter">
	<path stroke="black" d="M143.3,662.4 L143.3,653.4  "/>	<g transform="translate(143.3,684.3)" stroke="none" fill="black" font-family="Helvetica" font-size="12.00" text-anchor="middle">
		<text><tspan font-family="Helvetica"> 10.4</tspan></text>
	</g>
</g>
<g fill="none" color="black" stroke="currentColor" stroke-width="1.00" stroke-linecap="butt" stroke-linejoin="miter">
	<path stroke="black" d="M324.8,662.4 L324.8,653.4  "/>	<g transform="translate(324.8,684.3)" stroke="none" fill="black" font-family="Helvetica" font-size="12.00" text-anchor="middle">
		<text><tspan font-family="Helvetica"> 10.6</tspan></text>
	</g>
</g>
<g fill="none" color="black" stroke="currentColor" stroke-width="1.00" stroke-linecap="butt" stroke-linejoin="miter">
	<path stroke="black" d="M506.4,662.4 L506.4,653.4  "/>	<g transform="translate(506.4,684.3)" stroke="none" fill="black" font-family="Helvetica" font-size="12.00" text-anchor="middle">
		<text><tspan font-family="Helvetica"> 10.8</tspan></text>
	</g>
</g>
<g fill="none" color="black" stroke="currentColor" stroke-width="1.00" stroke-linecap="butt" stroke-linejoin="miter">
	<path stroke="black" d="M688.0,662.4 L688.0,653.4  "/>	<g transform="translate(688.0,684.3)" stroke="none" fill="black" font-family="Helvetica" font-size="12.00" text-anchor="middle">
		<text><tspan font-family="Helvetica"> 11</tspan></text>
	</g>
</g>
<g fill="none" color="black" stroke="currentColor" stroke-width="1.00" stroke-linecap="butt" stroke-linejoin="miter">
	<path stroke="black" d="M869.6,662.4 L869.6,653.4  "/>	<g transform="translate(869.6,684.3)" stroke="none" fill="black" font-family="Helvetica" font-size="12.00" text-anchor="middle">
		<text><tspan font-family="Helvetica"> 11.2</tspan></text>
	</g>
</g>
<g fill="none" color="black" stroke="currentColor" stroke-width="1.00" stroke-linecap="butt" stroke-linejoin="miter">
	<path stroke="black" d="M1003.9,662.4 L994.9,662.4  "/>	<g transform="translate(1012.2,666.3)" stroke="none" fill="black" font-family="Helvetica" font-size="12.00" text-anchor="start">
		<text><tspan font-family="Helvetica"> 0</tspan></text>
	</g>
</g>
<g fill="none" color="black" stroke="currentColor" stroke-width="1.00" stroke-linecap="butt" stroke-linejoin="miter">
	<path stroke="black" d="M1003.9,594.8 L994.9,594.8  "/>	<g transform="translate(1012.2,598.7)" stroke="none" fill="black" font-family="Helvetica" font-size="12.00" text-anchor="start">
		<text><tspan font-family="Helvetica"> 0.5</tspan></text>
	</g>
</g>
<g fill="none" color="black" stroke="currentColor" stroke-width="1.00" stroke-linecap="butt" stroke-linejoin="miter">
	<path stroke="black" d="M1003.9,527.2 L994.9,527.2  "/>	<g transform="translate(1012.2,531.1)" stroke="none" fill="black" font-family="Helvetica" font-size="12.00" text-anchor="start">
		<text><tspan font-family="Helvetica"> 1</tspan></text>
	</g>
</g>
<g fill="none" color="black" stroke="currentColor" stroke-width="1.00" stroke-linecap="butt" stroke-linejoin="miter">
	<path stroke="black" d="M1003.9,459.6 L994.9,459.6  "/>	<g transform="translate(1012.2,463.5)" stroke="none" fill="black" font-family="Helvetica" font-size="12.00" text-anchor="start">
		<text><tspan font-family="Helvetica"> 1.5</tspan></text>
	</g>
</g>
<g fill="none" color="black" stroke="currentColor" stroke-width="1.00" stroke-linecap="butt" stroke-linejoin="miter">
	<path stroke="black" d="M1003.9,392.0 L994.9,392.0  "/>	<g transform="translate(1012.2,395.9)" stroke="none" fill="black" font-family="Helvetica" font-size="12.00" text-anchor="start">
		<text><tspan font-family="Helvetica"> 2</tspan></text>
	</g>
</g>
<g fill="none" color="black" stroke="currentColor" stroke-width="1.00" stroke-linecap="butt" stroke-linejoin="miter">
	<path stroke="black" d="M1003.9,324.5 L994.9,324.5  "/>	<g transform="translate(1012.2,328.4)" stroke="none" fill="black" font-family="Helvetica" font-size="12.00" text-anchor="start">
		<text><tspan font-family="Helvetica"> 2.5</tspan></text>
	</g>
</g>
<g fill="none" color="black" stroke="currentColor" stroke-width="1.00" stroke-linecap="butt" stroke-linejoin="miter">
	<path stroke="black" d="M1003.9,256.9 L994.9,256.9  "/>	<g transform="translate(1012.2,260.8)" stroke="none" fill="black" font-family="Helvetica" font-size="12.00" text-anchor="start">
		<text><tspan font-family="Helvetica"> 3</tspan></text>
	</g>
</g>
<g fill="none" color="black" stroke="currentColor" stroke-width="1.00" stroke-linecap="butt" stroke-linejoin="miter">
	<path stroke="black" d="M1003.9,189.3 L994.9,189.3  "/>	<g transform="translate(1012.2,193.2)" stroke="none" fill="black" font-family="Helvetica" font-size="12.00" text-anchor="start">
		<text><tspan font-family="Helvetica"> 3.5</tspan></text>
	</g>
</g>
<g fill="none" color="black" stroke="currentColor" stroke-width="1.00" stroke-linecap="butt" stroke-linejoin="miter">
	<path stroke="black" d="M1003.9,121.7 L994.9,121.7  "/>	<g transform="translate(1012.2,125.6)" stroke="none" fill="black" font-family="Helvetica" font-size="12.00" text-anchor="start">
		<text><tspan font-family="Helvetica"> 4</tspan></text>
	</g>
</g>
<g fill="none" color="black" stroke="currentColor" stroke-width="1.00" stroke-linecap="butt" stroke-linejoin="miter">
	<path stroke="black" d="M1003.9,54.1 L994.9,54.1  "/>	<g transform="translate(1012.2,58.0)" stroke="none" fill="black" font-family="Helvetica" font-size="12.00" text-anchor="start">
		<text><tspan font-family="Helvetica"> 4.5</tspan></text>
	</g>
</g>
<g fill="none" color="black" stroke="currentColor" stroke-width="1.00" stroke-linecap="butt" stroke-linejoin="miter">
</g>
<g fill="none" color="black" stroke="currentColor" stroke-width="1.00" stroke-linecap="butt" stroke-linejoin="miter">
	<path stroke="black" d="M71.9,54.1 L71.9,662.4 L1003.9,662.4 L1003.9,54.1 L71.9,54.1 Z  "/></g>
<g fill="none" color="black" stroke="currentColor" stroke-width="1.00" stroke-linecap="butt" stroke-linejoin="miter">
	<g transform="translate(16.3,358.3) rotate(270)" stroke="none" fill="black" font-family="Helvetica" font-size="12.00" text-anchor="middle">
		<text><tspan font-family="Helvetica">Iterations</tspan></text>
	</g>
</g>
<g fill="none" color="black" stroke="currentColor" stroke-width="1.00" stroke-linecap="butt" stroke-linejoin="miter">
	<g transform="translate(1074.2,358.3) rotate(270)" stroke="none" fill="black" font-family="Helvetica" font-size="12.00" text-anchor="middle">
		<text><tspan font-family="Helvetica">Density (a.u.)</tspan></text>
	</g>
</g>
<g fill="none" color="black" stroke="currentColor" stroke-width="1.00" stroke-linecap="butt" stroke-linejoin="miter">
	<g transform="translate(537.9,711.3)" stroke="none" fill="black" font-family="Helvetica" font-size="12.00" text-anchor="middle">
		<text><tspan font-family="Helvetica">Average time (ms)</tspan></text>
	</g>
</g>
<g fill="none" color="black" stroke="currentColor" stroke-width="1.00" stroke-linecap="butt" stroke-linejoin="miter">
	<g transform="translate(537.9,31.0)" stroke="none" fill="black" font-family="Helvetica" font-size="12.00" text-anchor="middle">
		<text><tspan font-family="Helvetica">Problem 7/p7_tail_recursive/12131415161718191010918171615145141313121</tspan></text>
	</g>
</g>
	<g id="gnuplot_plot_1"><title>PDF</title>
<g fill="none" color="black" stroke="currentColor" stroke-width="1.00" stroke-linecap="butt" stroke-linejoin="miter">
	<g transform="translate(1147.1,67.0)" stroke="none" fill="black" font-family="Helvetica" font-size="12.00" text-anchor="start">
		<text><tspan font-family="Helvetica">PDF</tspan></text>
	</g>
</g>
<g fill="none" color="black" stroke="currentColor" stroke-width="1.00" stroke-linecap="butt" stroke-linejoin="miter">
	<g stroke="none" shape-rendering="crispEdges">
		<polygon fill="rgb( 31, 120, 180)" fill-opacity="0.250000" points="1096.6,67.6 1138.8,67.6 1138.8,58.6 1096.6,58.6 "/>
		<polygon fill="rgb( 31, 120, 180)" fill-opacity="0.250000" points="71.9,662.3 73.8,662.2 75.6,662.2 77.5,662.2 79.4,662.2 81.2,662.1 83.1,662.1 85.0,662.0 86.8,662.0 88.7,661.9 90.6,661.9 92.4,661.8 94.3,661.7 96.2,661.6 98.0,661.5 99.9,661.4 101.8,661.3 103.7,661.2 105.5,661.1 107.4,660.9 109.3,660.8 111.1,660.6 113.0,660.4 114.9,660.2 116.7,660.0 118.6,659.8 120.5,659.6 122.3,659.3 124.2,659.1 126.1,658.8 127.9,658.5 129.8,658.2 131.7,657.9 133.5,657.6 135.4,657.3 137.3,656.9 139.1,656.6 141.0,656.2 142.9,655.9 144.7,655.5 146.6,655.1 148.5,654.8 150.3,654.4 152.2,654.0 154.1,653.6 155.9,653.3 157.8,652.9 159.7,652.6 161.6,652.2 163.4,651.9 165.3,651.6 167.2,651.3 169.0,651.0 170.9,650.8 172.8,650.6 174.6,650.3 176.5,650.2 178.4,650.0 180.2,649.9 182.1,649.8 184.0,649.7 185.8,649.7 187.7,649.7 189.6,649.7 191.4,649.7 193.3,649.8 195.2,649.9 197.0,650.1 198.9,650.2 200.8,650.4 202.6,650.6 204.5,650.9 206.4,651.1 208.2,651.4 210.1,651.7 212.0,652.0 213.8,652.4 215.7,652.7 217.6,653.1 219.5,653.4 221.3,653.8 223.2,654.2 225.1,654.5 226.9,654.9 228.8,655.3 230.7,655.7 232.5,656.0 234.4,656.4 236.3,656.7 238.1,657.1 240.0,657.4 241.9,657.7 243.7,658.1 245.6,658.4 247.5,658.7 249.3,658.9 251.2,659.2 253.1,659.4 254.9,659.7 256.8,659.9 258.7,660.1 260.5,660.3 262.4,660.5 264.3,660.7 266.1,660.8 268.0,661.0 269.9,661.1 271.7,661.3 273.6,661.4 275.5,661.5 277.4,661.6 279.2,661.7 281.1,661.7 283.0,661.8 284.8,661.9 286.7,661.9 288.6,662.0 290.4,662.0 292.3,662.1 294.2,662.1 296.0,662.1 297.9,662.1 299.8,662.2 301.6,662.2 303.5,662.2 305.4,662.2 307.2,662.2 309.1,662.2 311.0,662.2 312.8,662.1 314.7,662.1 316.6,662.1 318.4,662.0 320.3,662.0 322.2,661.9 324.0,661.9 325.9,661.8 327.8,661.7 329.6,661.7 331.5,661.6 333.4,661.4 335.3,661.3 337.1,661.2 339.0,661.0 340.9,660.9 342.7,660.7 344.6,660.5 346.5,660.2 348.3,660.0 350.2,659.7 352.1,659.4 353.9,659.1 355.8,658.7 357.7,658.3 359.5,657.9 361.4,657.5 363.3,657.0 365.1,656.5 367.0,656.0 368.9,655.4 370.7,654.8 372.6,654.2 374.5,653.5 376.3,652.8 378.2,652.0 380.1,651.2 381.9,650.4 383.8,649.5 385.7,648.6 387.5,647.7 389.4,646.8 391.3,645.8 393.2,644.7 395.0,643.7 396.9,642.6 398.8,641.5 400.6,640.4 402.5,639.2 404.4,638.0 406.2,636.8 408.1,635.6 410.0,634.4 411.8,633.1 413.7,631.9 415.6,630.6 417.4,629.2 419.3,627.9 421.2,626.6 423.0,625.2 424.9,623.8 426.8,622.4 428.6,621.0 430.5,619.5 432.4,618.0 434.2,616.5 436.1,614.9 438.0,613.3 439.8,611.6 441.7,609.9 443.6,608.1 445.4,606.3 447.3,604.3 449.2,602.3 451.1,600.3 452.9,598.1 454.8,595.8 456.7,593.5 458.5,591.0 460.4,588.4 462.3,585.7 464.1,582.9 466.0,579.9 467.9,576.8 469.7,573.6 471.6,570.2 473.5,566.7 475.3,563.0 477.2,559.1 479.1,555.2 480.9,551.0 482.8,546.8 484.7,542.3 486.5,537.7 488.4,533.0 490.3,528.1 492.1,523.1 494.0,517.9 495.9,512.6 497.7,507.1 499.6,501.6 501.5,495.9 503.3,490.0 505.2,484.1 507.1,478.0 509.0,471.8 510.8,465.5 512.7,459.1 514.6,452.6 516.4,446.1 518.3,439.4 520.2,432.6 522.0,425.7 523.9,418.7 525.8,411.7 527.6,404.6 529.5,397.3 531.4,390.0 533.2,382.6 535.1,375.2 537.0,367.6 538.8,360.0 540.7,352.2 542.6,344.4 544.4,336.6 546.3,328.6 548.2,320.6 550.0,312.5 551.9,304.4 553.8,296.2 555.6,287.9 557.5,279.6 559.4,271.3 561.2,263.0 563.1,254.6 565.0,246.2 566.8,237.9 568.7,229.5 570.6,221.3 572.5,213.0 574.3,204.9 576.2,196.8 578.1,188.8 579.9,181.0 581.8,173.3 583.7,165.8 585.5,158.5 587.4,151.4 589.3,144.5 591.1,137.9 593.0,131.5 594.9,125.4 596.7,119.6 598.6,114.2 600.5,109.0 602.3,104.2 604.2,99.8 606.1,95.7 607.9,92.1 609.8,88.8 611.7,85.9 613.5,83.4 615.4,81.3 617.3,79.6 619.1,78.3 621.0,77.4 622.9,76.9 624.7,76.8 626.6,77.1 628.5,77.7 630.4,78.8 632.2,80.1 634.1,81.9 636.0,83.9 637.8,86.3 639.7,89.0 641.6,91.9 643.4,95.2 645.3,98.7 647.2,102.5 649.0,106.4 650.9,110.7 652.8,115.1 654.6,119.7 656.5,124.5 658.4,129.4 660.2,134.5 662.1,139.8 664.0,145.1 665.8,150.6 667.7,156.2 669.6,161.9 671.4,167.7 673.3,173.6 675.2,179.6 677.0,185.6 678.9,191.7 680.8,197.9 682.6,204.1 684.5,210.4 686.4,216.8 688.3,223.2 690.1,229.6 692.0,236.1 693.9,242.6 695.7,249.2 697.6,255.9 699.5,262.6 701.3,269.3 703.2,276.1 705.1,282.9 706.9,289.8 708.8,296.8 710.7,303.7 712.5,310.8 714.4,317.8 716.3,324.9 718.1,332.1 720.0,339.2 721.9,346.5 723.7,353.7 725.6,361.0 727.5,368.3 729.3,375.6 731.2,382.9 733.1,390.2 734.9,397.5 736.8,404.8 738.7,412.0 740.5,419.2 742.4,426.4 744.3,433.6 746.2,440.7 748.0,447.7 749.9,454.6 751.8,461.5 753.6,468.3 755.5,474.9 757.4,481.5 759.2,487.9 761.1,494.2 763.0,500.4 764.8,506.4 766.7,512.3 768.6,518.0 770.4,523.6 772.3,529.0 774.2,534.2 776.0,539.3 777.9,544.2 779.8,548.9 781.6,553.5 783.5,557.9 785.4,562.1 787.2,566.1 789.1,570.0 791.0,573.7 792.8,577.3 794.7,580.7 796.6,583.9 798.4,587.0 800.3,589.9 802.2,592.8 804.1,595.4 805.9,598.0 807.8,600.4 809.7,602.7 811.5,604.9 813.4,607.0 815.3,609.0 817.1,610.9 819.0,612.6 820.9,614.4 822.7,616.0 824.6,617.5 826.5,619.0 828.3,620.4 830.2,621.7 832.1,623.0 833.9,624.2 835.8,625.4 837.7,626.5 839.5,627.6 841.4,628.6 843.3,629.5 845.1,630.4 847.0,631.3 848.9,632.2 850.7,633.0 852.6,633.7 854.5,634.5 856.3,635.2 858.2,635.8 860.1,636.5 862.0,637.1 863.8,637.7 865.7,638.3 867.6,638.9 869.4,639.4 871.3,639.9 873.2,640.4 875.0,641.0 876.9,641.4 878.8,641.9 880.6,642.4 882.5,642.9 884.4,643.3 886.2,643.8 888.1,644.3 890.0,644.7 891.8,645.2 893.7,645.7 895.6,646.1 897.4,646.6 899.3,647.1 901.2,647.5 903.0,648.0 904.9,648.5 906.8,649.0 908.6,649.5 910.5,650.0 912.4,650.4 914.2,650.9 916.1,651.4 918.0,651.9 919.9,652.4 921.7,652.8 923.6,653.3 925.5,653.7 927.3,654.2 929.2,654.6 931.1,655.1 932.9,655.5 934.8,655.9 936.7,656.3 938.5,656.7 940.4,657.1 942.3,657.4 944.1,657.8 946.0,658.1 947.9,658.4 949.7,658.7 951.6,659.0 953.5,659.3 955.3,659.5 957.2,659.8 959.1,660.0 960.9,660.2 962.8,660.4 964.7,660.6 966.5,660.8 968.4,660.9 970.3,661.1 972.1,661.2 974.0,661.3 975.9,661.4 977.8,661.5 979.6,661.6 981.5,661.7 983.4,661.8 985.2,661.9 987.1,661.9 989.0,662.0 990.8,662.0 992.7,662.1 994.6,662.1 996.4,662.2 998.3,662.2 1000.2,662.2 1002.0,662.2 1003.9,662.3 1003.9,662.4 1002.0,662.4 1000.2,662.4 998.3,662.4 996.4,662.4 994.6,662.4 992.7,662.4 990.8,662.4 989.0,662.4 987.1,662.4 985.2,662.4 983.4,662.4 981.5,662.4 979.6,662.4 977.8,662.4 975.9,662.4 974.0,662.4 972.1,662.4 970.3,662.4 968.4,662.4 966.5,662.4 964.7,662.4 962.8,662.4 960.9,662.4 959.1,662.4 957.2,662.4 955.3,662.4 953.5,662.4 951.6,662.4 949.7,662.4 947.9,662.4 946.0,662.4 944.1,662.4 942.3,662.4 940.4,662.4 938.5,662.4 936.7,662.4 934.8,662.4 932.9,662.4 931.1,662.4 929.2,662.4 927.3,662.4 925.5,662.4 923.6,662.4 921.7,662.4 919.9,662.4 918.0,662.4 916.1,662.4 914.2,662.4 912.4,662.4 910.5,662.4 908.6,662.4 906.8,662.4 904.9,662.4 903.0,662.4 901.2,662.4 899.3,662.4 897.4,662.4 895.6,662.4 893.7,662.4 891.8,662.4 890.0,662.4 888.1,662.4 886.2,662.4 884.4,662.4 882.5,662.4 880.6,662.4 878.8,662.4 876.9,662.4 875.0,662.4 873.2,662.4 871.3,662.4 869.4,662.4 867.6,662.4 865.7,662.4 863.8,662.4 862.0,662.4 860.1,662.4 858.2,662.4 856.3,662.4 854.5,662.4 852.6,662.4 850.7,662.4 848.9,662.4 847.0,662.4 845.1,662.4 843.3,662.4 841.4,662.4 839.5,662.4 837.7,662.4 835.8,662.4 833.9,662.4 832.1,662.4 830.2,662.4 828.3,662.4 826.5,662.4 824.6,662.4 822.7,662.4 820.9,662.4 819.0,662.4 817.1,662.4 815.3,662.4 813.4,662.4 811.5,662.4 809.7,662.4 807.8,662.4 805.9,662.4 804.1,662.4 802.2,662.4 800.3,662.4 798.4,662.4 796.6,662.4 794.7,662.4 792.8,662.4 791.0,662.4 789.1,662.4 787.2,662.4 785.4,662.4 783.5,662.4 781.6,662.4 779.8,662.4 777.9,662.4 776.0,662.4 774.2,662.4 772.3,662.4 770.4,662.4 768.6,662.4 766.7,662.4 764.8,662.4 763.0,662.4 761.1,662.4 759.2,662.4 757.4,662.4 755.5,662.4 753.6,662.4 751.8,662.4 749.9,662.4 748.0,662.4 746.2,662.4 744.3,662.4 742.4,662.4 740.5,662.4 738.7,662.4 736.8,662.4 734.9,662.4 733.1,662.4 731.2,662.4 729.3,662.4 727.5,662.4 725.6,662.4 723.7,662.4 721.9,662.4 720.0,662.4 718.1,662.4 716.3,662.4 714.4,662.4 712.5,662.4 710.7,662.4 708.8,662.4 706.9,662.4 705.1,662.4 703.2,662.4 701.3,662.4 699.5,662.4 697.6,662.4 695.7,662.4 693.9,662.4 692.0,662.4 690.1,662.4 688.3,662.4 686.4,662.4 684.5,662.4 682.6,662.4 680.8,662.4 678.9,662.4 677.0,662.4 675.2,662.4 673.3,662.4 671.4,662.4 669.6,662.4 667.7,662.4 665.8,662.4 664.0,662.4 662.1,662.4 660.2,662.4 658.4,662.4 656.5,662.4 654.6,662.4 652.8,662.4 650.9,662.4 649.0,662.4 647.2,662.4 645.3,662.4 643.4,662.4 641.6,662.4 639.7,662.4 637.8,662.4 636.0,662.4 634.1,662.4 632.2,662.4 630.4,662.4 628.5,662.4 626.6,662.4 624.7,662.4 622.9,662.4 621.0,662.4 619.1,662.4 617.3,662.4 615.4,662.4 613.5,662.4 611.7,662.4 609.8,662.4 607.9,662.4 606.1,662.4 604.2,662.4 602.3,662.4 600.5,662.4 598.6,662.4 596.7,662.4 594.9,662.4 593.0,662.4 591.1,662.4 589.3,662.4 587.4,662.4 585.5,662.4 583.7,662.4 581.8,662.4 579.9,662.4 578.1,662.4 576.2,662.4 574.3,662.4 572.5,662.4 570.6,662.4 568.7,662.4 566.8,662.4 565.0,662.4 563.1,662.4 561.2,662.4 559.4,662.4 557.5,662.4 555.6,662.4 553.8,662.4 551.9,662.4 550.0,662.4 548.2,662.4 546.3,662.4 544.4,662.4 542.6,662.4 540.7,662.4 538.8,662.4 537.0,662.4 535.1,662.4 533.2,662.4 531.4,662.4 529.5,662.4 527.6,662.4 525.8,662.4 523.9,662.4 522.0,662.4 520.2,662.4 518.3,662.4 516.4,662.4 514.6,662.4 512.7,662.4 510.8,662.4 509.0,662.4 507.1,662.4 505.2,662.4 503.3,662.4 501.5,662.4 499.6,662.4 497.7,662.4 495.9,662.4 494.0,662.4 492.1,662.4 490.3,662.4 488.4,662.4 486.5,662.4 484.7,662.4 482.8,662.4 480.9,662.4 479.1,662.4 477.2,662.4 475.3,662.4 473.5,662.4 471.6,662.4 469.7,662.4 467.9,662.4 466.0,662.4 464.1,662.4 462.3,662.4 460.4,662.4 458.5,662.4 456.7,662.4 454.8,662.4 452.9,662.4 451.1,662.4 449.2,662.4 447.3,662.4 445.4,662.4 443.6,662.4 441.7,662.4 439.8,662.4 438.0,662.4 436.1,662.4 434.2,662.4 432.4,662.4 430.5,662.4 428.6,662.4 426.8,662.4 424.9,662.4 423.0,662.4 421.2,662.4 419.3,662.4 417.4,662.4 415.6,662.4 413.7,662.4 411.8,662.4 410.0,662.4 408.1,662.4 406.2,662.4 404.4,662.4 402.5,662.4 400.6,662.4 398.8,662.4 396.9,662.4 395.0,662.4 393.2,662.4 391.3,662.4 389.4,662.4 387.5,662.4 385.7,662.4 383.8,662.4 381.9,662.4 380.1,662.4 378.2,662.4 376.3,662.4 374.5,662.4 372.6,662.4 370.7,662.4 368.9,662.4 367.0,662.4 365.1,662.4 363.3,662.4 361.4,662.4 359.5,662.4 357.7,662.4 355.8,662.4 353.9,662.4 352.1,662.4 350.2,662.4 348.3,662.4 346.5,662.4 344.6,662.4 342.7,662.4 340.9,662.4 339.0,662.4 337.1,662.4 335.3,662.4 333.4,662.4 331.5,662.4 329.6,662.4 327.8,662.4 325.9,662.4 324.0,662.4 322.2,662.4 320.3,662.4 318.4,662.4 316.6,662.4 314.7,662.4 312.8,662.4 311.0,662.4 309.1,662.4 307.2,662.4 305.4,662.4 303.5,662.4 301.6,662.4 299.8,662.4 297.9,662.4 296.0,662.4 294.2,662.4 292.3,662.4 290.4,662.4 288.6,662.4 286.7,662.4 284.8,662.4 283.0,662.4 281.1,662.4 279.2,662.4 277.4,662.4 275.5,662.4 273.6,662.4 271.7,662.4 269.9,662.4 268.0,662.4 266.1,662.4 264.3,662.4 262.4,662.4 260.5,662.4 258.7,662.4 256.8,662.4 254.9,662.4 253.1,662.4 251.2,662.4 249.3,662.4 247.5,662.4 245.6,662.4 243.7,662.4 241.9,662.4 240.0,662.4 238.1,662.4 236.3,662.4 234.4,662.4 232.5,662.4 230.7,662.4 228.8,662.4 226.9,662.4 225.1,662.4 223.2,662.4 221.3,662.4 219.5,662.4 217.6,662.4 215.7,662.4 213.8,662.4 212.0,662.4 210.1,662.4 208.2,662.4 206.4,662.4 204.5,662.4 202.6,662.4 200.8,662.4 198.9,662.4 197.0,662.4 195.2,662.4 193.3,662.4 191.4,662.4 189.6,662.4 187.7,662.4 185.8,662.4 184.0,662.4 182.1,662.4 180.2,662.4 178.4,662.4 176.5,662.4 174.6,662.4 172.8,662.4 170.9,662.4 169.0,662.4 167.2,662.4 165.3,662.4 163.4,662.4 161.6,662.4 159.7,662.4 157.8,662.4 155.9,662.4 154.1,662.4 152.2,662.4 150.3,662.4 148.5,662.4 146.6,662.4 144.7,662.4 142.9,662.4 141.0,662.4 139.1,662.4 137.3,662.4 135.4,662.4 133.5,662.4 131.7,662.4 129.8,662.4 127.9,662.4 126.1,662.4 124.2,662.4 122.3,662.4 120.5,662.4 118.6,662.4 116.7,662.4 114.9,662.4 113.0,662.4 111.1,662.4 109.3,662.4 107.4,662.4 105.5,662.4 103.7,662.4 101.8,662.4 99.9,662.4 98.0,662.4 96.2,662.4 94.3,662.4 92.4,662.4 90.6,662.4 88.7,662.4 86.8,662.4 85.0,662.4 83.1,662.4 81.2,662.4 79.4,662.4 77.5,662.4 75.6,662.4 73.8,662.4 71.9,662.4 "/>
	</g>
</g>
	</g>
	<g id="gnuplot_plot_2"><title>Mean</title>
<g fill="none" color="white" stroke="rgb( 31, 120, 180)" stroke-width="2.00" stroke-linecap="butt" stroke-linejoin="miter">
</g>
<g fill="none" color="black" stroke="currentColor" stroke-width="2.00" stroke-linecap="butt" stroke-linejoin="miter">
	<g transform="translate(1147.1,85.0)" stroke="none" fill="black" font-family="Helvetica" font-size="12.00" text-anchor="start">
		<text><tspan font-family="Helvetica">Mean</tspan></text>
	</g>
</g>
<g fill="none" color="black" stroke="currentColor" stroke-width="2.00" stroke-linecap="butt" stroke-linejoin="miter">
	<path stroke="rgb( 31, 120, 180)" d="M1096.6,81.1 L1138.8,81.1 M627.9,662.4 L627.9,54.1  "/></g>
	</g>
	<g id="gnuplot_plot_3"><title>"Clean" sample</title>
<g fill="none" color="white" stroke="rgb( 31, 120, 180)" stroke-width="1.00" stroke-linecap="butt" stroke-linejoin="miter">
</g>
<g fill="none" color="black" stroke="currentColor" stroke-width="1.00" stroke-linecap="butt" stroke-linejoin="miter">
	<g transform="translate(1147.1,103.0)" stroke="none" fill="black" font-family="Helvetica" font-size="12.00" text-anchor="start">
		<text><tspan font-family="Helvetica">"Clean" sample</tspan></text>
	</g>
</g>
<g fill="none" color="black" stroke="currentColor" stroke-width="1.00" stroke-linecap="butt" stroke-linejoin="miter">
	<use xlink:href="#gpPt6" transform="translate(635.8,644.2) scale(3.38)" color="rgb( 31, 120, 180)"/>
	<use xlink:href="#gpPt6" transform="translate(504.2,638.1) scale(3.38)" color="rgb( 31, 120, 180)"/>
	<use xlink:href="#gpPt6" transform="translate(618.5,625.9) scale(3.38)" color="rgb( 31, 120, 180)"/>
	<use xlink:href="#gpPt6" transform="translate(682.0,619.8) scale(3.38)" color="rgb( 31, 120, 180)"/>
	<use xlink:href="#gpPt6" transform="translate(755.9,613.7) scale(3.38)" color="rgb( 31, 120, 180)"/>
	<use xlink:href="#gpPt6" transform="translate(731.3,607.7) scale(3.38)" color="rgb( 31, 120, 180)"/>
	<use xlink:href="#gpPt6" transform="translate(828.0,601.6) scale(3.38)" color="rgb( 31, 120, 180)"/>
	<use xlink:href="#gpPt6" transform="translate(530.2,595.5) scale(3.38)" color="rgb( 31, 120, 180)"/>
	<use xlink:href="#gpPt6" transform="translate(704.3,589.4) scale(3.38)" color="rgb( 31, 120, 180)"/>
	<use xlink:href="#gpPt6" transform="translate(744.0,583.3) scale(3.38)" color="rgb( 31, 120, 180)"/>
	<use xlink:href="#gpPt6" transform="translate(685.0,577.2) scale(3.38)" color="rgb( 31, 120, 180)"/>
	<use xlink:href="#gpPt6" transform="translate(663.3,571.2) scale(3.38)" color="rgb( 31, 120, 180)"/>
	<use xlink:href="#gpPt6" transform="translate(528.4,565.1) scale(3.38)" color="rgb( 31, 120, 180)"/>
	<use xlink:href="#gpPt6" transform="translate(590.4,559.0) scale(3.38)" color="rgb( 31, 120, 180)"/>
	<use xlink:href="#gpPt6" transform="translate(733.0,552.9) scale(3.38)" color="rgb( 31, 120, 180)"/>
	<use xlink:href="#gpPt6" transform="translate(600.6,546.8) scale(3.38)" color="rgb( 31, 120, 180)"/>
	<use xlink:href="#gpPt6" transform="translate(656.9,540.7) scale(3.38)" color="rgb( 31, 120, 180)"/>
	<use xlink:href="#gpPt6" transform="translate(498.0,534.7) scale(3.38)" color="rgb( 31, 120, 180)"/>
	<use xlink:href="#gpPt6" transform="translate(617.3,528.6) scale(3.38)" color="rgb( 31, 120, 180)"/>
	<use xlink:href="#gpPt6" transform="translate(537.4,522.5) scale(3.38)" color="rgb( 31, 120, 180)"/>
	<use xlink:href="#gpPt6" transform="translate(712.3,516.4) scale(3.38)" color="rgb( 31, 120, 180)"/>
	<use xlink:href="#gpPt6" transform="translate(529.3,510.3) scale(3.38)" color="rgb( 31, 120, 180)"/>
	<use xlink:href="#gpPt6" transform="translate(682.0,504.2) scale(3.38)" color="rgb( 31, 120, 180)"/>
	<use xlink:href="#gpPt6" transform="translate(513.2,498.2) scale(3.38)" color="rgb( 31, 120, 180)"/>
	<use xlink:href="#gpPt6" transform="translate(619.5,492.1) scale(3.38)" color="rgb( 31, 120, 180)"/>
	<use xlink:href="#gpPt6" transform="translate(605.4,486.0) scale(3.38)" color="rgb( 31, 120, 180)"/>
	<use xlink:href="#gpPt6" transform="translate(640.2,479.9) scale(3.38)" color="rgb( 31, 120, 180)"/>
	<use xlink:href="#gpPt6" transform="translate(719.7,473.8) scale(3.38)" color="rgb( 31, 120, 180)"/>
	<use xlink:href="#gpPt6" transform="translate(469.2,467.7) scale(3.38)" color="rgb( 31, 120, 180)"/>
	<use xlink:href="#gpPt6" transform="translate(626.7,461.7) scale(3.38)" color="rgb( 31, 120, 180)"/>
	<use xlink:href="#gpPt6" transform="translate(652.4,455.6) scale(3.38)" color="rgb( 31, 120, 180)"/>
	<use xlink:href="#gpPt6" transform="translate(573.9,449.5) scale(3.38)" color="rgb( 31, 120, 180)"/>
	<use xlink:href="#gpPt6" transform="translate(779.9,443.4) scale(3.38)" color="rgb( 31, 120, 180)"/>
	<use xlink:href="#gpPt6" transform="translate(638.9,437.3) scale(3.38)" color="rgb( 31, 120, 180)"/>
	<use xlink:href="#gpPt6" transform="translate(599.7,431.2) scale(3.38)" color="rgb( 31, 120, 180)"/>
	<use xlink:href="#gpPt6" transform="translate(533.5,425.2) scale(3.38)" color="rgb( 31, 120, 180)"/>
	<use xlink:href="#gpPt6" transform="translate(631.8,419.1) scale(3.38)" color="rgb( 31, 120, 180)"/>
	<use xlink:href="#gpPt6" transform="translate(731.3,413.0) scale(3.38)" color="rgb( 31, 120, 180)"/>
	<use xlink:href="#gpPt6" transform="translate(704.4,406.9) scale(3.38)" color="rgb( 31, 120, 180)"/>
	<use xlink:href="#gpPt6" transform="translate(616.3,400.8) scale(3.38)" color="rgb( 31, 120, 180)"/>
	<use xlink:href="#gpPt6" transform="translate(564.6,394.7) scale(3.38)" color="rgb( 31, 120, 180)"/>
	<use xlink:href="#gpPt6" transform="translate(605.2,388.7) scale(3.38)" color="rgb( 31, 120, 180)"/>
	<use xlink:href="#gpPt6" transform="translate(525.8,382.6) scale(3.38)" color="rgb( 31, 120, 180)"/>
	<use xlink:href="#gpPt6" transform="translate(661.9,376.5) scale(3.38)" color="rgb( 31, 120, 180)"/>
	<use xlink:href="#gpPt6" transform="translate(559.7,370.4) scale(3.38)" color="rgb( 31, 120, 180)"/>
	<use xlink:href="#gpPt6" transform="translate(572.9,364.3) scale(3.38)" color="rgb( 31, 120, 180)"/>
	<use xlink:href="#gpPt6" transform="translate(562.1,358.2) scale(3.38)" color="rgb( 31, 120, 180)"/>
	<use xlink:href="#gpPt6" transform="translate(694.4,352.2) scale(3.38)" color="rgb( 31, 120, 180)"/>
	<use xlink:href="#gpPt6" transform="translate(602.6,346.1) scale(3.38)" color="rgb( 31, 120, 180)"/>
	<use xlink:href="#gpPt6" transform="translate(716.9,340.0) scale(3.38)" color="rgb( 31, 120, 180)"/>
	<use xlink:href="#gpPt6" transform="translate(647.3,327.8) scale(3.38)" color="rgb( 31, 120, 180)"/>
	<use xlink:href="#gpPt6" transform="translate(674.8,321.8) scale(3.38)" color="rgb( 31, 120, 180)"/>
	<use xlink:href="#gpPt6" transform="translate(610.7,315.7) scale(3.38)" color="rgb( 31, 120, 180)"/>
	<use xlink:href="#gpPt6" transform="translate(665.9,309.6) scale(3.38)" color="rgb( 31, 120, 180)"/>
	<use xlink:href="#gpPt6" transform="translate(730.2,303.5) scale(3.38)" color="rgb( 31, 120, 180)"/>
	<use xlink:href="#gpPt6" transform="translate(667.4,297.4) scale(3.38)" color="rgb( 31, 120, 180)"/>
	<use xlink:href="#gpPt6" transform="translate(661.0,291.3) scale(3.38)" color="rgb( 31, 120, 180)"/>
	<use xlink:href="#gpPt6" transform="translate(675.4,285.3) scale(3.38)" color="rgb( 31, 120, 180)"/>
	<use xlink:href="#gpPt6" transform="translate(617.0,279.2) scale(3.38)" color="rgb( 31, 120, 180)"/>
	<use xlink:href="#gpPt6" transform="translate(599.4,273.1) scale(3.38)" color="rgb( 31, 120, 180)"/>
	<use xlink:href="#gpPt6" transform="translate(615.5,267.0) scale(3.38)" color="rgb( 31, 120, 180)"/>
	<use xlink:href="#gpPt6" transform="translate(547.1,260.9) scale(3.38)" color="rgb( 31, 120, 180)"/>
	<use xlink:href="#gpPt6" transform="translate(584.8,254.8) scale(3.38)" color="rgb( 31, 120, 180)"/>
	<use xlink:href="#gpPt6" transform="translate(582.8,248.8) scale(3.38)" color="rgb( 31, 120, 180)"/>
	<use xlink:href="#gpPt6" transform="translate(607.7,242.7) scale(3.38)" color="rgb( 31, 120, 180)"/>
	<use xlink:href="#gpPt6" transform="translate(584.7,236.6) scale(3.38)" color="rgb( 31, 120, 180)"/>
	<use xlink:href="#gpPt6" transform="translate(634.1,230.5) scale(3.38)" color="rgb( 31, 120, 180)"/>
	<use xlink:href="#gpPt6" transform="translate(593.6,224.4) scale(3.38)" color="rgb( 31, 120, 180)"/>
	<use xlink:href="#gpPt6" transform="translate(695.2,218.3) scale(3.38)" color="rgb( 31, 120, 180)"/>
	<use xlink:href="#gpPt6" transform="translate(708.7,212.3) scale(3.38)" color="rgb( 31, 120, 180)"/>
	<use xlink:href="#gpPt6" transform="translate(699.0,206.2) scale(3.38)" color="rgb( 31, 120, 180)"/>
	<use xlink:href="#gpPt6" transform="translate(551.1,200.1) scale(3.38)" color="rgb( 31, 120, 180)"/>
	<use xlink:href="#gpPt6" transform="translate(656.2,194.0) scale(3.38)" color="rgb( 31, 120, 180)"/>
	<use xlink:href="#gpPt6" transform="translate(639.1,187.9) scale(3.38)" color="rgb( 31, 120, 180)"/>
	<use xlink:href="#gpPt6" transform="translate(522.0,181.8) scale(3.38)" color="rgb( 31, 120, 180)"/>
	<use xlink:href="#gpPt6" transform="translate(609.6,175.8) scale(3.38)" color="rgb( 31, 120, 180)"/>
	<use xlink:href="#gpPt6" transform="translate(649.7,169.7) scale(3.38)" color="rgb( 31, 120, 180)"/>
	<use xlink:href="#gpPt6" transform="translate(806.0,163.6) scale(3.38)" color="rgb( 31, 120, 180)"/>
	<use xlink:href="#gpPt6" transform="translate(600.0,157.5) scale(3.38)" color="rgb( 31, 120, 180)"/>
	<use xlink:href="#gpPt6" transform="translate(573.5,151.4) scale(3.38)" color="rgb( 31, 120, 180)"/>
	<use xlink:href="#gpPt6" transform="translate(714.2,145.3) scale(3.38)" color="rgb( 31, 120, 180)"/>
	<use xlink:href="#gpPt6" transform="translate(610.7,139.3) scale(3.38)" color="rgb( 31, 120, 180)"/>
	<use xlink:href="#gpPt6" transform="translate(671.9,133.2) scale(3.38)" color="rgb( 31, 120, 180)"/>
	<use xlink:href="#gpPt6" transform="translate(662.5,127.1) scale(3.38)" color="rgb( 31, 120, 180)"/>
	<use xlink:href="#gpPt6" transform="translate(567.9,121.0) scale(3.38)" color="rgb( 31, 120, 180)"/>
	<use xlink:href="#gpPt6" transform="translate(690.8,114.9) scale(3.38)" color="rgb( 31, 120, 180)"/>
	<use xlink:href="#gpPt6" transform="translate(645.9,108.8) scale(3.38)" color="rgb( 31, 120, 180)"/>
	<use xlink:href="#gpPt6" transform="translate(613.4,102.8) scale(3.38)" color="rgb( 31, 120, 180)"/>
	<use xlink:href="#gpPt6" transform="translate(661.2,96.7) scale(3.38)" color="rgb( 31, 120, 180)"/>
	<use xlink:href="#gpPt6" transform="translate(753.9,90.6) scale(3.38)" color="rgb( 31, 120, 180)"/>
	<use xlink:href="#gpPt6" transform="translate(599.9,84.5) scale(3.38)" color="rgb( 31, 120, 180)"/>
	<use xlink:href="#gpPt6" transform="translate(614.2,78.4) scale(3.38)" color="rgb( 31, 120, 180)"/>
	<use xlink:href="#gpPt6" transform="translate(627.2,72.3) scale(3.38)" color="rgb( 31, 120, 180)"/>
	<use xlink:href="#gpPt6" transform="translate(621.5,66.3) scale(3.38)" color="rgb( 31, 120, 180)"/>
	<use xlink:href="#gpPt6" transform="translate(729.3,60.2) scale(3.38)" color="rgb( 31, 120, 180)"/>
	<use xlink:href="#gpPt6" transform="translate(566.9,54.1) scale(3.38)" color="rgb( 31, 120, 180)"/>
	<use xlink:href="#gpPt6" transform="translate(1117.7,99.1) scale(3.38)" color="rgb( 31, 120, 180)"/>
</g>
	</g>
	<g id="gnuplot_plot_4"><title>Mild outliers</title>
<g fill="none" color="black" stroke="currentColor" stroke-width="1.00" stroke-linecap="butt" stroke-linejoin="miter">
	<g transform="translate(1147.1,121.0)" stroke="none" fill="black" font-family="Helvetica" font-size="12.00" text-anchor="start">
		<text><tspan font-family="Helvetica">Mild outliers</tspan></text>
	</g>
</g>
<g fill="none" color="black" stroke="currentColor" stroke-width="1.00" stroke-linecap="butt" stroke-linejoin="miter">
	<use xlink:href="#gpPt6" transform="translate(434.6,650.2) scale(3.38)" color="rgb(255, 127,   0)"/>
	<use xlink:href="#gpPt6" transform="translate(430.6,632.0) scale(3.38)" color="rgb(255, 127,   0)"/>
	<use xlink:href="#gpPt6" transform="translate(888.5,333.9) scale(3.38)" color="rgb(255, 127,   0)"/>
	<use xlink:href="#gpPt6" transform="translate(1117.7,117.1) scale(3.38)" color="rgb(255, 127,   0)"/>
</g>
	</g>
	<g id="gnuplot_plot_5"><title>Severe outliers</title>
<g fill="none" color="black" stroke="currentColor" stroke-width="1.00" stroke-linecap="butt" stroke-linejoin="miter">
	<g transform="translate(1147.1,139.0)" stroke="none" fill="black" font-family="Helvetica" font-size="12.00" text-anchor="start">
		<text><tspan font-family="Helvetica">Severe outliers</tspan></text>
	</g>
</g>
<g fill="none" color="black" stroke="currentColor" stroke-width="1.00" stroke-linecap="butt" stroke-linejoin="miter">
	<use xlink:href="#gpPt6" transform="translate(187.3,656.3) scale(3.38)" color="rgb(227,  26,  28)"/>
	<use xlink:href="#gpPt6" transform="translate(1117.7,135.1) scale(3.38)" color="rgb(227,  26,  28)"/>
</g>
	</g>
	<g id="gnuplot_plot_6"><title>gnuplot_plot_6</title>
<g fill="none" color="white" stroke="rgb(227,  26,  28)" stroke-width="2.00" stroke-linecap="butt" stroke-linejoin="miter">
</g>
<g fill="none" color="black" stroke="currentColor" stroke-width="2.00" stroke-linecap="butt" stroke-linejoin="miter">
	<path stroke="rgb(255, 127,   0)" d="M437.5,662.4 L437.5,54.1  "/></g>
	</g>
	<g id="gnuplot_plot_7"><title>gnuplot_plot_7</title>
<g fill="none" color="black" stroke="currentColor" stroke-width="2.00" stroke-linecap="butt" stroke-linejoin="miter">
	<path stroke="rgb(255, 127,   0)" d="M828.6,662.4 L828.6,54.1  "/></g>
	</g>
	<g id="gnuplot_plot_8"><title>gnuplot_plot_8</title>
<g fill="none" color="black" stroke="currentColor" stroke-width="2.00" stroke-linecap="butt" stroke-linejoin="miter">
	<path stroke="rgb(227,  26,  28)" d="M290.9,662.4 L290.9,54.1  "/></g>
	</g>
	<g id="gnuplot_plot_9"><title>gnuplot_plot_9</title>
<g fill="none" color="black" stroke="currentColor" stroke-width="2.00" stroke-linecap="butt" stroke-linejoin="miter">
	<path stroke="rgb(227,  26,  28)" d="M975.3,662.4 L975.3,54.1  "/></g>
	</g>
<g fill="none" color="black" stroke="currentColor" stroke-width="2.00" stroke-linecap="butt" stroke-linejoin="miter">
</g>
<g fill="none" color="black" stroke="black" stroke-width="1.00" stroke-linecap="butt" stroke-linejoin="miter">
</g>
<g fill="none" color="black" stroke="currentColor" stroke-width="1.00" stroke-linecap="butt" stroke-linejoin="miter">
	<path stroke="black" d="M71.9,54.1 L71.9,662.4 L1003.9,662.4 L1003.9,54.1 L71.9,54.1 Z  "/></g>
<g fill="none" color="black" stroke="currentColor" stroke-width="1.00" stroke-linecap="butt" stroke-linejoin="miter">
</g>
</g>
</svg>