<?xml version="1.0" encoding="UTF-8" standalone="no"?>
<svg viewBox="0 0 1280 720" xmlns="http://www.w3.org/2000/svg" xmlns:xlink="http://www.w3.org/1999/xlink">

<title>Gnuplot</title>
<desc>Produced by GNUPLOT 5.2 patchlevel 2 </desc>

<g id="gnuplot_canvas">

<rect x="0" y="0" width="1280" height="720" fill="none"/>
<defs>

	<circle id="gpDot" r="0.5" stroke-width="0.5"/>
	<path id="gpPt0" stroke-width="0.222" stroke="currentColor" d="M-1,0 h2 M0,-1 v2"/>
	<path id="gpPt1" stroke-width="0.222" stroke="currentColor" d="M-1,-1 L1,1 M1,-1 L-1,1"/>
	<path id="gpPt2" stroke-width="0.222" stroke="currentColor" d="M-1,0 L1,0 M0,-1 L0,1 M-1,-1 L1,1 M-1,1 L1,-1"/>
	<rect id="gpPt3" stroke-width="0.222" stroke="currentColor" x="-1" y="-1" width="2" height="2"/>
	<rect id="gpPt4" stroke-width="0.222" stroke="currentColor" fill="currentColor" x="-1" y="-1" width="2" height="2"/>
	<circle id="gpPt5" stroke-width="0.222" stroke="currentColor" cx="0" cy="0" r="1"/>
	<use xlink:href="#gpPt5" id="gpPt6" fill="currentColor" stroke="none"/>
	<path id="gpPt7" stroke-width="0.222" stroke="currentColor" d="M0,-1.33 L-1.33,0.67 L1.33,0.67 z"/>
	<use xlink:href="#gpPt7" id="gpPt8" fill="currentColor" stroke="none"/>
	<use xlink:href="#gpPt7" id="gpPt9" stroke="currentColor" transform="rotate(180)"/>
	<use xlink:href="#gpPt9" id="gpPt10" fill="currentColor" stroke="none"/>
	<use xlink:href="#gpPt3" id="gpPt11" stroke="currentColor" transform="rotate(45)"/>
	<use xlink:href="#gpPt11" id="gpPt12" fill="currentColor" stroke="none"/>
	<path id="gpPt13" stroke-width="0.222" stroke="currentColor" d="M0,1.330 L1.265,0.411 L0.782,-1.067 L-0.782,-1.076 L-1.265,0.411 z"/>
	<use xlink:href="#gpPt13" id="gpPt14" fill="currentColor" stroke="none"/>
	<filter id="textbox" filterUnits="objectBoundingBox" x="0" y="0" height="1" width="1">
	  <feFlood flood-color="white" flood-opacity="1" result="bgnd"/>
	  <feComposite in="SourceGraphic" in2="bgnd" operator="atop"/>
	</filter>
	<filter id="greybox" filterUnits="objectBoundingBox" x="0" y="0" height="1" width="1">
	  <feFlood flood-color="lightgrey" flood-opacity="1" result="grey"/>
	  <feComposite in="SourceGraphic" in2="grey" operator="atop"/>
	</filter>
</defs>
<g fill="none" color="white" stroke="currentColor" stroke-width="1.00" stroke-linecap="butt" stroke-linejoin="miter">
</g>
<g fill="none" color="black" stroke="currentColor" stroke-width="1.00" stroke-linecap="butt" stroke-linejoin="miter">
	<path stroke="black" d="M71.9,662.4 L80.9,662.4  "/>	<g transform="translate(63.6,666.3)" stroke="none" fill="black" font-family="Helvetica" font-size="12.00" text-anchor="end">
		<text><tspan font-family="Helvetica"> 0</tspan></text>
	</g>
</g>
<g fill="none" color="black" stroke="currentColor" stroke-width="1.00" stroke-linecap="butt" stroke-linejoin="miter">
	<path stroke="black" d="M71.9,561.0 L80.9,561.0  "/>	<g transform="translate(63.6,564.9)" stroke="none" fill="black" font-family="Helvetica" font-size="12.00" text-anchor="end">
		<text><tspan font-family="Helvetica"> 50</tspan></text>
	</g>
</g>
<g fill="none" color="black" stroke="currentColor" stroke-width="1.00" stroke-linecap="butt" stroke-linejoin="miter">
	<path stroke="black" d="M71.9,459.6 L80.9,459.6  "/>	<g transform="translate(63.6,463.5)" stroke="none" fill="black" font-family="Helvetica" font-size="12.00" text-anchor="end">
		<text><tspan font-family="Helvetica"> 100</tspan></text>
	</g>
</g>
<g fill="none" color="black" stroke="currentColor" stroke-width="1.00" stroke-linecap="butt" stroke-linejoin="miter">
	<path stroke="black" d="M71.9,358.2 L80.9,358.2  "/>	<g transform="translate(63.6,362.1)" stroke="none" fill="black" font-family="Helvetica" font-size="12.00" text-anchor="end">
		<text><tspan font-family="Helvetica"> 150</tspan></text>
	</g>
</g>
<g fill="none" color="black" stroke="currentColor" stroke-width="1.00" stroke-linecap="butt" stroke-linejoin="miter">
	<path stroke="black" d="M71.9,256.9 L80.9,256.9  "/>	<g transform="translate(63.6,260.8)" stroke="none" fill="black" font-family="Helvetica" font-size="12.00" text-anchor="end">
		<text><tspan font-family="Helvetica"> 200</tspan></text>
	</g>
</g>
<g fill="none" color="black" stroke="currentColor" stroke-width="1.00" stroke-linecap="butt" stroke-linejoin="miter">
	<path stroke="black" d="M71.9,155.5 L80.9,155.5  "/>	<g transform="translate(63.6,159.4)" stroke="none" fill="black" font-family="Helvetica" font-size="12.00" text-anchor="end">
		<text><tspan font-family="Helvetica"> 250</tspan></text>
	</g>
</g>
<g fill="none" color="black" stroke="currentColor" stroke-width="1.00" stroke-linecap="butt" stroke-linejoin="miter">
	<path stroke="black" d="M71.9,54.1 L80.9,54.1  "/>	<g transform="translate(63.6,58.0)" stroke="none" fill="black" font-family="Helvetica" font-size="12.00" text-anchor="end">
		<text><tspan font-family="Helvetica"> 300</tspan></text>
	</g>
</g>
<g fill="none" color="black" stroke="currentColor" stroke-width="1.00" stroke-linecap="butt" stroke-linejoin="miter">
	<path stroke="black" d="M104.1,662.4 L104.1,653.4  "/>	<g transform="translate(104.1,684.3)" stroke="none" fill="black" font-family="Helvetica" font-size="12.00" text-anchor="middle">
		<text><tspan font-family="Helvetica"> 354</tspan></text>
	</g>
</g>
<g fill="none" color="black" stroke="currentColor" stroke-width="1.00" stroke-linecap="butt" stroke-linejoin="miter">
	<path stroke="black" d="M201.7,662.4 L201.7,653.4  "/>	<g transform="translate(201.7,684.3)" stroke="none" fill="black" font-family="Helvetica" font-size="12.00" text-anchor="middle">
		<text><tspan font-family="Helvetica"> 356</tspan></text>
	</g>
</g>
<g fill="none" color="black" stroke="currentColor" stroke-width="1.00" stroke-linecap="butt" stroke-linejoin="miter">
	<path stroke="black" d="M299.2,662.4 L299.2,653.4  "/>	<g transform="translate(299.2,684.3)" stroke="none" fill="black" font-family="Helvetica" font-size="12.00" text-anchor="middle">
		<text><tspan font-family="Helvetica"> 358</tspan></text>
	</g>
</g>
<g fill="none" color="black" stroke="currentColor" stroke-width="1.00" stroke-linecap="butt" stroke-linejoin="miter">
	<path stroke="black" d="M396.8,662.4 L396.8,653.4  "/>	<g transform="translate(396.8,684.3)" stroke="none" fill="black" font-family="Helvetica" font-size="12.00" text-anchor="middle">
		<text><tspan font-family="Helvetica"> 360</tspan></text>
	</g>
</g>
<g fill="none" color="black" stroke="currentColor" stroke-width="1.00" stroke-linecap="butt" stroke-linejoin="miter">
	<path stroke="black" d="M494.3,662.4 L494.3,653.4  "/>	<g transform="translate(494.3,684.3)" stroke="none" fill="black" font-family="Helvetica" font-size="12.00" text-anchor="middle">
		<text><tspan font-family="Helvetica"> 362</tspan></text>
	</g>
</g>
<g fill="none" color="black" stroke="currentColor" stroke-width="1.00" stroke-linecap="butt" stroke-linejoin="miter">
	<path stroke="black" d="M591.9,662.4 L591.9,653.4  "/>	<g transform="translate(591.9,684.3)" stroke="none" fill="black" font-family="Helvetica" font-size="12.00" text-anchor="middle">
		<text><tspan font-family="Helvetica"> 364</tspan></text>
	</g>
</g>
<g fill="none" color="black" stroke="currentColor" stroke-width="1.00" stroke-linecap="butt" stroke-linejoin="miter">
	<path stroke="black" d="M689.4,662.4 L689.4,653.4  "/>	<g transform="translate(689.4,684.3)" stroke="none" fill="black" font-family="Helvetica" font-size="12.00" text-anchor="middle">
		<text><tspan font-family="Helvetica"> 366</tspan></text>
	</g>
</g>
<g fill="none" color="black" stroke="currentColor" stroke-width="1.00" stroke-linecap="butt" stroke-linejoin="miter">
	<path stroke="black" d="M786.9,662.4 L786.9,653.4  "/>	<g transform="translate(786.9,684.3)" stroke="none" fill="black" font-family="Helvetica" font-size="12.00" text-anchor="middle">
		<text><tspan font-family="Helvetica"> 368</tspan></text>
	</g>
</g>
<g fill="none" color="black" stroke="currentColor" stroke-width="1.00" stroke-linecap="butt" stroke-linejoin="miter">
	<path stroke="black" d="M884.5,662.4 L884.5,653.4  "/>	<g transform="translate(884.5,684.3)" stroke="none" fill="black" font-family="Helvetica" font-size="12.00" text-anchor="middle">
		<text><tspan font-family="Helvetica"> 370</tspan></text>
	</g>
</g>
<g fill="none" color="black" stroke="currentColor" stroke-width="1.00" stroke-linecap="butt" stroke-linejoin="miter">
	<path stroke="black" d="M982.0,662.4 L982.0,653.4  "/>	<g transform="translate(982.0,684.3)" stroke="none" fill="black" font-family="Helvetica" font-size="12.00" text-anchor="middle">
		<text><tspan font-family="Helvetica"> 372</tspan></text>
	</g>
</g>
<g fill="none" color="black" stroke="currentColor" stroke-width="1.00" stroke-linecap="butt" stroke-linejoin="miter">
	<path stroke="black" d="M1003.9,662.4 L994.9,662.4  "/>	<g transform="translate(1012.2,666.3)" stroke="none" fill="black" font-family="Helvetica" font-size="12.00" text-anchor="start">
		<text><tspan font-family="Helvetica"> 0</tspan></text>
	</g>
</g>
<g fill="none" color="black" stroke="currentColor" stroke-width="1.00" stroke-linecap="butt" stroke-linejoin="miter">
	<path stroke="black" d="M1003.9,594.8 L994.9,594.8  "/>	<g transform="translate(1012.2,598.7)" stroke="none" fill="black" font-family="Helvetica" font-size="12.00" text-anchor="start">
		<text><tspan font-family="Helvetica"> 0.02</tspan></text>
	</g>
</g>
<g fill="none" color="black" stroke="currentColor" stroke-width="1.00" stroke-linecap="butt" stroke-linejoin="miter">
	<path stroke="black" d="M1003.9,527.2 L994.9,527.2  "/>	<g transform="translate(1012.2,531.1)" stroke="none" fill="black" font-family="Helvetica" font-size="12.00" text-anchor="start">
		<text><tspan font-family="Helvetica"> 0.04</tspan></text>
	</g>
</g>
<g fill="none" color="black" stroke="currentColor" stroke-width="1.00" stroke-linecap="butt" stroke-linejoin="miter">
	<path stroke="black" d="M1003.9,459.6 L994.9,459.6  "/>	<g transform="translate(1012.2,463.5)" stroke="none" fill="black" font-family="Helvetica" font-size="12.00" text-anchor="start">
		<text><tspan font-family="Helvetica"> 0.06</tspan></text>
	</g>
</g>
<g fill="none" color="black" stroke="currentColor" stroke-width="1.00" stroke-linecap="butt" stroke-linejoin="miter">
	<path stroke="black" d="M1003.9,392.0 L994.9,392.0  "/>	<g transform="translate(1012.2,395.9)" stroke="none" fill="black" font-family="Helvetica" font-size="12.00" text-anchor="start">
		<text><tspan font-family="Helvetica"> 0.08</tspan></text>
	</g>
</g>
<g fill="none" color="black" stroke="currentColor" stroke-width="1.00" stroke-linecap="butt" stroke-linejoin="miter">
	<path stroke="black" d="M1003.9,324.5 L994.9,324.5  "/>	<g transform="translate(1012.2,328.4)" stroke="none" fill="black" font-family="Helvetica" font-size="12.00" text-anchor="start">
		<text><tspan font-family="Helvetica"> 0.1</tspan></text>
	</g>
</g>
<g fill="none" color="black" stroke="currentColor" stroke-width="1.00" stroke-linecap="butt" stroke-linejoin="miter">
	<path stroke="black" d="M1003.9,256.9 L994.9,256.9  "/>	<g transform="translate(1012.2,260.8)" stroke="none" fill="black" font-family="Helvetica" font-size="12.00" text-anchor="start">
		<text><tspan font-family="Helvetica"> 0.12</tspan></text>
	</g>
</g>
<g fill="none" color="black" stroke="currentColor" stroke-width="1.00" stroke-linecap="butt" stroke-linejoin="miter">
	<path stroke="black" d="M1003.9,189.3 L994.9,189.3  "/>	<g transform="translate(1012.2,193.2)" stroke="none" fill="black" font-family="Helvetica" font-size="12.00" text-anchor="start">
		<text><tspan font-family="Helvetica"> 0.14</tspan></text>
	</g>
</g>
<g fill="none" color="black" stroke="currentColor" stroke-width="1.00" stroke-linecap="butt" stroke-linejoin="miter">
	<path stroke="black" d="M1003.9,121.7 L994.9,121.7  "/>	<g transform="translate(1012.2,125.6)" stroke="none" fill="black" font-family="Helvetica" font-size="12.00" text-anchor="start">
		<text><tspan font-family="Helvetica"> 0.16</tspan></text>
	</g>
</g>
<g fill="none" color="black" stroke="currentColor" stroke-width="1.00" stroke-linecap="butt" stroke-linejoin="miter">
	<path stroke="black" d="M1003.9,54.1 L994.9,54.1  "/>	<g transform="translate(1012.2,58.0)" stroke="none" fill="black" font-family="Helvetica" font-size="12.00" text-anchor="start">
		<text><tspan font-family="Helvetica"> 0.18</tspan></text>
	</g>
</g>
<g fill="none" color="black" stroke="currentColor" stroke-width="1.00" stroke-linecap="butt" stroke-linejoin="miter">
</g>
<g fill="none" color="black" stroke="currentColor" stroke-width="1.00" stroke-linecap="butt" stroke-linejoin="miter">
	<path stroke="black" d="M71.9,54.1 L71.9,662.4 L1003.9,662.4 L1003.9,54.1 L71.9,54.1 Z  "/></g>
<g fill="none" color="black" stroke="currentColor" stroke-width="1.00" stroke-linecap="butt" stroke-linejoin="miter">
	<g transform="translate(16.3,358.3) rotate(270)" stroke="none" fill="black" font-family="Helvetica" font-size="12.00" text-anchor="middle">
		<text><tspan font-family="Helvetica">Iterations</tspan></text>
	</g>
</g>
<g fill="none" color="black" stroke="currentColor" stroke-width="1.00" stroke-linecap="butt" stroke-linejoin="miter">
	<g transform="translate(1082.5,358.3) rotate(270)" stroke="none" fill="black" font-family="Helvetica" font-size="12.00" text-anchor="middle">
		<text><tspan font-family="Helvetica">Density (a.u.)</tspan></text>
	</g>
</g>
<g fill="none" color="black" stroke="currentColor" stroke-width="1.00" stroke-linecap="butt" stroke-linejoin="miter">
	<g transform="translate(537.9,711.3)" stroke="none" fill="black" font-family="Helvetica" font-size="12.00" text-anchor="middle">
		<text><tspan font-family="Helvetica">Average time (us)</tspan></text>
	</g>
</g>
<g fill="none" color="black" stroke="currentColor" stroke-width="1.00" stroke-linecap="butt" stroke-linejoin="miter">
	<g transform="translate(537.9,31.0)" stroke="none" fill="black" font-family="Helvetica" font-size="12.00" text-anchor="middle">
		<text><tspan font-family="Helvetica">Problem 7/p7/12121212121212121212</tspan></text>
	</g>
</g>
	<g id="gnuplot_plot_1"><title>PDF</title>
<g fill="none" color="black" stroke="currentColor" stroke-width="1.00" stroke-linecap="butt" stroke-linejoin="miter">
	<g transform="translate(1155.4,67.0)" stroke="none" fill="black" font-family="Helvetica" font-size="12.00" text-anchor="start">
		<text><tspan font-family="Helvetica">PDF</tspan></text>
	</g>
</g>
<g fill="none" color="black" stroke="currentColor" stroke-width="1.00" stroke-linecap="butt" stroke-linejoin="miter">
	<g stroke="none" shape-rendering="crispEdges">
		<polygon fill="rgb( 31, 120, 180)" fill-opacity="0.250000" points="1104.9,67.6 1147.1,67.6 1147.1,58.6 1104.9,58.6 "/>
		<polygon fill="rgb( 31, 120, 180)" fill-opacity="0.250000" points="71.9,662.1 73.8,662.1 75.6,662.0 77.5,662.0 79.4,662.0 81.2,661.9 83.1,661.9 85.0,661.8 86.8,661.8 88.7,661.7 90.6,661.7 92.4,661.6 94.3,661.6 96.2,661.5 98.0,661.4 99.9,661.3 101.8,661.2 103.7,661.1 105.5,661.0 107.4,660.9 109.3,660.8 111.1,660.7 113.0,660.6 114.9,660.4 116.7,660.3 118.6,660.1 120.5,659.9 122.3,659.7 124.2,659.5 126.1,659.3 127.9,659.1 129.8,658.9 131.7,658.7 133.5,658.4 135.4,658.1 137.3,657.8 139.1,657.5 141.0,657.2 142.9,656.9 144.7,656.5 146.6,656.1 148.5,655.7 150.3,655.3 152.2,654.9 154.1,654.4 155.9,653.9 157.8,653.4 159.7,652.9 161.6,652.3 163.4,651.7 165.3,651.1 167.2,650.5 169.0,649.8 170.9,649.1 172.8,648.3 174.6,647.6 176.5,646.7 178.4,645.9 180.2,645.0 182.1,644.1 184.0,643.1 185.8,642.1 187.7,641.0 189.6,639.9 191.4,638.7 193.3,637.5 195.2,636.2 197.0,634.9 198.9,633.5 200.8,632.1 202.6,630.6 204.5,629.0 206.4,627.4 208.2,625.7 210.1,623.9 212.0,622.0 213.8,620.0 215.7,618.0 217.6,615.9 219.5,613.7 221.3,611.4 223.2,608.9 225.1,606.4 226.9,603.8 228.8,601.1 230.7,598.2 232.5,595.3 234.4,592.2 236.3,589.0 238.1,585.6 240.0,582.2 241.9,578.5 243.7,574.8 245.6,570.9 247.5,566.8 249.3,562.6 251.2,558.3 253.1,553.7 254.9,549.0 256.8,544.2 258.7,539.2 260.5,534.0 262.4,528.6 264.3,523.0 266.1,517.3 268.0,511.4 269.9,505.3 271.7,499.0 273.6,492.6 275.5,486.0 277.4,479.1 279.2,472.1 281.1,465.0 283.0,457.6 284.8,450.1 286.7,442.4 288.6,434.6 290.4,426.6 292.3,418.4 294.2,410.1 296.0,401.7 297.9,393.1 299.8,384.4 301.6,375.5 303.5,366.6 305.4,357.6 307.2,348.4 309.1,339.2 311.0,330.0 312.8,320.7 314.7,311.3 316.6,301.9 318.4,292.5 320.3,283.1 322.2,273.7 324.0,264.3 325.9,255.0 327.8,245.7 329.6,236.5 331.5,227.4 333.4,218.4 335.3,209.5 337.1,200.8 339.0,192.2 340.9,183.8 342.7,175.6 344.6,167.5 346.5,159.7 348.3,152.1 350.2,144.8 352.1,137.7 353.9,130.9 355.8,124.4 357.7,118.2 359.5,112.3 361.4,106.7 363.3,101.4 365.1,96.5 367.0,92.0 368.9,87.8 370.7,84.0 372.6,80.6 374.5,77.5 376.3,74.8 378.2,72.6 380.1,70.7 381.9,69.2 383.8,68.1 385.7,67.4 387.5,67.1 389.4,67.2 391.3,67.7 393.2,68.6 395.0,69.9 396.9,71.5 398.8,73.5 400.6,75.9 402.5,78.6 404.4,81.7 406.2,85.1 408.1,88.9 410.0,92.9 411.8,97.3 413.7,101.9 415.6,106.9 417.4,112.1 419.3,117.5 421.2,123.2 423.0,129.1 424.9,135.3 426.8,141.6 428.6,148.1 430.5,154.8 432.4,161.6 434.2,168.5 436.1,175.6 438.0,182.8 439.8,190.0 441.7,197.4 443.6,204.7 445.4,212.2 447.3,219.7 449.2,227.1 451.1,234.6 452.9,242.1 454.8,249.6 456.7,257.0 458.5,264.4 460.4,271.7 462.3,279.0 464.1,286.1 466.0,293.2 467.9,300.2 469.7,307.1 471.6,313.9 473.5,320.6 475.3,327.2 477.2,333.6 479.1,339.9 480.9,346.0 482.8,352.0 484.7,357.8 486.5,363.5 488.4,369.1 490.3,374.5 492.1,379.7 494.0,384.8 495.9,389.7 497.7,394.5 499.6,399.1 501.5,403.5 503.3,407.8 505.2,412.0 507.1,415.9 509.0,419.8 510.8,423.5 512.7,427.0 514.6,430.4 516.4,433.7 518.3,436.8 520.2,439.8 522.0,442.7 523.9,445.4 525.8,448.1 527.6,450.6 529.5,453.0 531.4,455.3 533.2,457.5 535.1,459.5 537.0,461.5 538.8,463.5 540.7,465.3 542.6,467.0 544.4,468.7 546.3,470.3 548.2,471.8 550.0,473.2 551.9,474.6 553.8,476.0 555.6,477.2 557.5,478.4 559.4,479.6 561.2,480.7 563.1,481.8 565.0,482.8 566.8,483.8 568.7,484.8 570.6,485.7 572.5,486.6 574.3,487.4 576.2,488.2 578.1,489.0 579.9,489.8 581.8,490.5 583.7,491.2 585.5,491.9 587.4,492.5 589.3,493.2 591.1,493.8 593.0,494.3 594.9,494.9 596.7,495.4 598.6,495.9 600.5,496.3 602.3,496.8 604.2,497.2 606.1,497.5 607.9,497.9 609.8,498.2 611.7,498.5 613.5,498.7 615.4,499.0 617.3,499.1 619.1,499.3 621.0,499.4 622.9,499.5 624.7,499.5 626.6,499.5 628.5,499.5 630.4,499.4 632.2,499.2 634.1,499.1 636.0,498.9 637.8,498.6 639.7,498.3 641.6,498.0 643.4,497.6 645.3,497.2 647.2,496.8 649.0,496.3 650.9,495.7 652.8,495.1 654.6,494.5 656.5,493.9 658.4,493.2 660.2,492.5 662.1,491.7 664.0,491.0 665.8,490.1 667.7,489.3 669.6,488.5 671.4,487.6 673.3,486.7 675.2,485.8 677.0,484.9 678.9,483.9 680.8,483.0 682.6,482.1 684.5,481.1 686.4,480.2 688.3,479.3 690.1,478.4 692.0,477.5 693.9,476.7 695.7,475.8 697.6,475.0 699.5,474.3 701.3,473.5 703.2,472.8 705.1,472.2 706.9,471.6 708.8,471.1 710.7,470.6 712.5,470.1 714.4,469.8 716.3,469.5 718.1,469.3 720.0,469.1 721.9,469.1 723.7,469.1 725.6,469.2 727.5,469.3 729.3,469.6 731.2,470.0 733.1,470.4 734.9,471.0 736.8,471.6 738.7,472.3 740.5,473.1 742.4,474.1 744.3,475.1 746.2,476.2 748.0,477.4 749.9,478.7 751.8,480.1 753.6,481.6 755.5,483.1 757.4,484.8 759.2,486.6 761.1,488.4 763.0,490.4 764.8,492.4 766.7,494.5 768.6,496.6 770.4,498.9 772.3,501.2 774.2,503.6 776.0,506.0 777.9,508.5 779.8,511.1 781.6,513.7 783.5,516.4 785.4,519.1 787.2,521.8 789.1,524.6 791.0,527.5 792.8,530.3 794.7,533.2 796.6,536.1 798.4,539.0 800.3,541.9 802.2,544.9 804.1,547.8 805.9,550.7 807.8,553.7 809.7,556.6 811.5,559.5 813.4,562.4 815.3,565.3 817.1,568.2 819.0,571.0 820.9,573.8 822.7,576.6 824.6,579.4 826.5,582.1 828.3,584.8 830.2,587.4 832.1,590.0 833.9,592.6 835.8,595.1 837.7,597.6 839.5,600.0 841.4,602.4 843.3,604.7 845.1,606.9 847.0,609.1 848.9,611.3 850.7,613.4 852.6,615.4 854.5,617.4 856.3,619.4 858.2,621.2 860.1,623.1 862.0,624.8 863.8,626.5 865.7,628.2 867.6,629.8 869.4,631.3 871.3,632.8 873.2,634.3 875.0,635.7 876.9,637.0 878.8,638.3 880.6,639.5 882.5,640.7 884.4,641.8 886.2,642.9 888.1,644.0 890.0,645.0 891.8,645.9 893.7,646.8 895.6,647.7 897.4,648.5 899.3,649.3 901.2,650.1 903.0,650.8 904.9,651.5 906.8,652.1 908.6,652.8 910.5,653.3 912.4,653.9 914.2,654.4 916.1,654.9 918.0,655.4 919.9,655.9 921.7,656.3 923.6,656.7 925.5,657.1 927.3,657.4 929.2,657.7 931.1,658.1 932.9,658.4 934.8,658.6 936.7,658.9 938.5,659.1 940.4,659.4 942.3,659.6 944.1,659.8 946.0,660.0 947.9,660.2 949.7,660.3 951.6,660.5 953.5,660.6 955.3,660.8 957.2,660.9 959.1,661.0 960.9,661.1 962.8,661.2 964.7,661.3 966.5,661.4 968.4,661.5 970.3,661.5 972.1,661.6 974.0,661.7 975.9,661.7 977.8,661.8 979.6,661.8 981.5,661.9 983.4,661.9 985.2,662.0 987.1,662.0 989.0,662.0 990.8,662.1 992.7,662.1 994.6,662.1 996.4,662.2 998.3,662.2 1000.2,662.2 1002.0,662.2 1003.9,662.2 1003.9,662.4 1002.0,662.4 1000.2,662.4 998.3,662.4 996.4,662.4 994.6,662.4 992.7,662.4 990.8,662.4 989.0,662.4 987.1,662.4 985.2,662.4 983.4,662.4 981.5,662.4 979.6,662.4 977.8,662.4 975.9,662.4 974.0,662.4 972.1,662.4 970.3,662.4 968.4,662.4 966.5,662.4 964.7,662.4 962.8,662.4 960.9,662.4 959.1,662.4 957.2,662.4 955.3,662.4 953.5,662.4 951.6,662.4 949.7,662.4 947.9,662.4 946.0,662.4 944.1,662.4 942.3,662.4 940.4,662.4 938.5,662.4 936.7,662.4 934.8,662.4 932.9,662.4 931.1,662.4 929.2,662.4 927.3,662.4 925.5,662.4 923.6,662.4 921.7,662.4 919.9,662.4 918.0,662.4 916.1,662.4 914.2,662.4 912.4,662.4 910.5,662.4 908.6,662.4 906.8,662.4 904.9,662.4 903.0,662.4 901.2,662.4 899.3,662.4 897.4,662.4 895.6,662.4 893.7,662.4 891.8,662.4 890.0,662.4 888.1,662.4 886.2,662.4 884.4,662.4 882.5,662.4 880.6,662.4 878.8,662.4 876.9,662.4 875.0,662.4 873.2,662.4 871.3,662.4 869.4,662.4 867.6,662.4 865.7,662.4 863.8,662.4 862.0,662.4 860.1,662.4 858.2,662.4 856.3,662.4 854.5,662.4 852.6,662.4 850.7,662.4 848.9,662.4 847.0,662.4 845.1,662.4 843.3,662.4 841.4,662.4 839.5,662.4 837.7,662.4 835.8,662.4 833.9,662.4 832.1,662.4 830.2,662.4 828.3,662.4 826.5,662.4 824.6,662.4 822.7,662.4 820.9,662.4 819.0,662.4 817.1,662.4 815.3,662.4 813.4,662.4 811.5,662.4 809.7,662.4 807.8,662.4 805.9,662.4 804.1,662.4 802.2,662.4 800.3,662.4 798.4,662.4 796.6,662.4 794.7,662.4 792.8,662.4 791.0,662.4 789.1,662.4 787.2,662.4 785.4,662.4 783.5,662.4 781.6,662.4 779.8,662.4 777.9,662.4 776.0,662.4 774.2,662.4 772.3,662.4 770.4,662.4 768.6,662.4 766.7,662.4 764.8,662.4 763.0,662.4 761.1,662.4 759.2,662.4 757.4,662.4 755.5,662.4 753.6,662.4 751.8,662.4 749.9,662.4 748.0,662.4 746.2,662.4 744.3,662.4 742.4,662.4 740.5,662.4 738.7,662.4 736.8,662.4 734.9,662.4 733.1,662.4 731.2,662.4 729.3,662.4 727.5,662.4 725.6,662.4 723.7,662.4 721.9,662.4 720.0,662.4 718.1,662.4 716.3,662.4 714.4,662.4 712.5,662.4 710.7,662.4 708.8,662.4 706.9,662.4 705.1,662.4 703.2,662.4 701.3,662.4 699.5,662.4 697.6,662.4 695.7,662.4 693.9,662.4 692.0,662.4 690.1,662.4 688.3,662.4 686.4,662.4 684.5,662.4 682.6,662.4 680.8,662.4 678.9,662.4 677.0,662.4 675.2,662.4 673.3,662.4 671.4,662.4 669.6,662.4 667.7,662.4 665.8,662.4 664.0,662.4 662.1,662.4 660.2,662.4 658.4,662.4 656.5,662.4 654.6,662.4 652.8,662.4 650.9,662.4 649.0,662.4 647.2,662.4 645.3,662.4 643.4,662.4 641.6,662.4 639.7,662.4 637.8,662.4 636.0,662.4 634.1,662.4 632.2,662.4 630.4,662.4 628.5,662.4 626.6,662.4 624.7,662.4 622.9,662.4 621.0,662.4 619.1,662.4 617.3,662.4 615.4,662.4 613.5,662.4 611.7,662.4 609.8,662.4 607.9,662.4 606.1,662.4 604.2,662.4 602.3,662.4 600.5,662.4 598.6,662.4 596.7,662.4 594.9,662.4 593.0,662.4 591.1,662.4 589.3,662.4 587.4,662.4 585.5,662.4 583.7,662.4 581.8,662.4 579.9,662.4 578.1,662.4 576.2,662.4 574.3,662.4 572.5,662.4 570.6,662.4 568.7,662.4 566.8,662.4 565.0,662.4 563.1,662.4 561.2,662.4 559.4,662.4 557.5,662.4 555.6,662.4 553.8,662.4 551.9,662.4 550.0,662.4 548.2,662.4 546.3,662.4 544.4,662.4 542.6,662.4 540.7,662.4 538.8,662.4 537.0,662.4 535.1,662.4 533.2,662.4 531.4,662.4 529.5,662.4 527.6,662.4 525.8,662.4 523.9,662.4 522.0,662.4 520.2,662.4 518.3,662.4 516.4,662.4 514.6,662.4 512.7,662.4 510.8,662.4 509.0,662.4 507.1,662.4 505.2,662.4 503.3,662.4 501.5,662.4 499.6,662.4 497.7,662.4 495.9,662.4 494.0,662.4 492.1,662.4 490.3,662.4 488.4,662.4 486.5,662.4 484.7,662.4 482.8,662.4 480.9,662.4 479.1,662.4 477.2,662.4 475.3,662.4 473.5,662.4 471.6,662.4 469.7,662.4 467.9,662.4 466.0,662.4 464.1,662.4 462.3,662.4 460.4,662.4 458.5,662.4 456.7,662.4 454.8,662.4 452.9,662.4 451.1,662.4 449.2,662.4 447.3,662.4 445.4,662.4 443.6,662.4 441.7,662.4 439.8,662.4 438.0,662.4 436.1,662.4 434.2,662.4 432.4,662.4 430.5,662.4 428.6,662.4 426.8,662.4 424.9,662.4 423.0,662.4 421.2,662.4 419.3,662.4 417.4,662.4 415.6,662.4 413.7,662.4 411.8,662.4 410.0,662.4 408.1,662.4 406.2,662.4 404.4,662.4 402.5,662.4 400.6,662.4 398.8,662.4 396.9,662.4 395.0,662.4 393.2,662.4 391.3,662.4 389.4,662.4 387.5,662.4 385.7,662.4 383.8,662.4 381.9,662.4 380.1,662.4 378.2,662.4 376.3,662.4 374.5,662.4 372.6,662.4 370.7,662.4 368.9,662.4 367.0,662.4 365.1,662.4 363.3,662.4 361.4,662.4 359.5,662.4 357.7,662.4 355.8,662.4 353.9,662.4 352.1,662.4 350.2,662.4 348.3,662.4 346.5,662.4 344.6,662.4 342.7,662.4 340.9,662.4 339.0,662.4 337.1,662.4 335.3,662.4 333.4,662.4 331.5,662.4 329.6,662.4 327.8,662.4 325.9,662.4 324.0,662.4 322.2,662.4 320.3,662.4 318.4,662.4 316.6,662.4 314.7,662.4 312.8,662.4 311.0,662.4 309.1,662.4 307.2,662.4 305.4,662.4 303.5,662.4 301.6,662.4 299.8,662.4 297.9,662.4 296.0,662.4 294.2,662.4 292.3,662.4 290.4,662.4 288.6,662.4 286.7,662.4 284.8,662.4 283.0,662.4 281.1,662.4 279.2,662.4 277.4,662.4 275.5,662.4 273.6,662.4 271.7,662.4 269.9,662.4 268.0,662.4 266.1,662.4 264.3,662.4 262.4,662.4 260.5,662.4 258.7,662.4 256.8,662.4 254.9,662.4 253.1,662.4 251.2,662.4 249.3,662.4 247.5,662.4 245.6,662.4 243.7,662.4 241.9,662.4 240.0,662.4 238.1,662.4 236.3,662.4 234.4,662.4 232.5,662.4 230.7,662.4 228.8,662.4 226.9,662.4 225.1,662.4 223.2,662.4 221.3,662.4 219.5,662.4 217.6,662.4 215.7,662.4 213.8,662.4 212.0,662.4 210.1,662.4 208.2,662.4 206.4,662.4 204.5,662.4 202.6,662.4 200.8,662.4 198.9,662.4 197.0,662.4 195.2,662.4 193.3,662.4 191.4,662.4 189.6,662.4 187.7,662.4 185.8,662.4 184.0,662.4 182.1,662.4 180.2,662.4 178.4,662.4 176.5,662.4 174.6,662.4 172.8,662.4 170.9,662.4 169.0,662.4 167.2,662.4 165.3,662.4 163.4,662.4 161.6,662.4 159.7,662.4 157.8,662.4 155.9,662.4 154.1,662.4 152.2,662.4 150.3,662.4 148.5,662.4 146.6,662.4 144.7,662.4 142.9,662.4 141.0,662.4 139.1,662.4 137.3,662.4 135.4,662.4 133.5,662.4 131.7,662.4 129.8,662.4 127.9,662.4 126.1,662.4 124.2,662.4 122.3,662.4 120.5,662.4 118.6,662.4 116.7,662.4 114.9,662.4 113.0,662.4 111.1,662.4 109.3,662.4 107.4,662.4 105.5,662.4 103.7,662.4 101.8,662.4 99.9,662.4 98.0,662.4 96.2,662.4 94.3,662.4 92.4,662.4 90.6,662.4 88.7,662.4 86.8,662.4 85.0,662.4 83.1,662.4 81.2,662.4 79.4,662.4 77.5,662.4 75.6,662.4 73.8,662.4 71.9,662.4 "/>
	</g>
</g>
	</g>
	<g id="gnuplot_plot_2"><title>Mean</title>
<g fill="none" color="white" stroke="rgb( 31, 120, 180)" stroke-width="2.00" stroke-linecap="butt" stroke-linejoin="miter">
</g>
<g fill="none" color="black" stroke="currentColor" stroke-width="2.00" stroke-linecap="butt" stroke-linejoin="miter">
	<g transform="translate(1155.4,85.0)" stroke="none" fill="black" font-family="Helvetica" font-size="12.00" text-anchor="start">
		<text><tspan font-family="Helvetica">Mean</tspan></text>
	</g>
</g>
<g fill="none" color="black" stroke="currentColor" stroke-width="2.00" stroke-linecap="butt" stroke-linejoin="miter">
	<path stroke="rgb( 31, 120, 180)" d="M1104.9,81.1 L1147.1,81.1 M482.9,662.4 L482.9,54.1  "/></g>
	</g>
	<g id="gnuplot_plot_3"><title>"Clean" sample</title>
<g fill="none" color="white" stroke="rgb( 31, 120, 180)" stroke-width="1.00" stroke-linecap="butt" stroke-linejoin="miter">
</g>
<g fill="none" color="black" stroke="currentColor" stroke-width="1.00" stroke-linecap="butt" stroke-linejoin="miter">
	<g transform="translate(1155.4,103.0)" stroke="none" fill="black" font-family="Helvetica" font-size="12.00" text-anchor="start">
		<text><tspan font-family="Helvetica">"Clean" sample</tspan></text>
	</g>
</g>
<g fill="none" color="black" stroke="currentColor" stroke-width="1.00" stroke-linecap="butt" stroke-linejoin="miter">
	<use xlink:href="#gpPt6" transform="translate(601.6,656.3) scale(3.38)" color="rgb( 31, 120, 180)"/>
	<use xlink:href="#gpPt6" transform="translate(345.5,650.2) scale(3.38)" color="rgb( 31, 120, 180)"/>
	<use xlink:href="#gpPt6" transform="translate(375.1,644.2) scale(3.38)" color="rgb( 31, 120, 180)"/>
	<use xlink:href="#gpPt6" transform="translate(371.2,638.1) scale(3.38)" color="rgb( 31, 120, 180)"/>
	<use xlink:href="#gpPt6" transform="translate(398.4,632.0) scale(3.38)" color="rgb( 31, 120, 180)"/>
	<use xlink:href="#gpPt6" transform="translate(385.4,625.9) scale(3.38)" color="rgb( 31, 120, 180)"/>
	<use xlink:href="#gpPt6" transform="translate(363.3,619.8) scale(3.38)" color="rgb( 31, 120, 180)"/>
	<use xlink:href="#gpPt6" transform="translate(392.9,613.7) scale(3.38)" color="rgb( 31, 120, 180)"/>
	<use xlink:href="#gpPt6" transform="translate(368.0,607.7) scale(3.38)" color="rgb( 31, 120, 180)"/>
	<use xlink:href="#gpPt6" transform="translate(371.1,601.6) scale(3.38)" color="rgb( 31, 120, 180)"/>
	<use xlink:href="#gpPt6" transform="translate(395.1,595.5) scale(3.38)" color="rgb( 31, 120, 180)"/>
	<use xlink:href="#gpPt6" transform="translate(374.8,589.4) scale(3.38)" color="rgb( 31, 120, 180)"/>
	<use xlink:href="#gpPt6" transform="translate(364.0,583.3) scale(3.38)" color="rgb( 31, 120, 180)"/>
	<use xlink:href="#gpPt6" transform="translate(370.3,577.2) scale(3.38)" color="rgb( 31, 120, 180)"/>
	<use xlink:href="#gpPt6" transform="translate(375.3,571.2) scale(3.38)" color="rgb( 31, 120, 180)"/>
	<use xlink:href="#gpPt6" transform="translate(361.0,565.1) scale(3.38)" color="rgb( 31, 120, 180)"/>
	<use xlink:href="#gpPt6" transform="translate(349.2,559.0) scale(3.38)" color="rgb( 31, 120, 180)"/>
	<use xlink:href="#gpPt6" transform="translate(385.5,552.9) scale(3.38)" color="rgb( 31, 120, 180)"/>
	<use xlink:href="#gpPt6" transform="translate(401.3,546.8) scale(3.38)" color="rgb( 31, 120, 180)"/>
	<use xlink:href="#gpPt6" transform="translate(403.8,540.7) scale(3.38)" color="rgb( 31, 120, 180)"/>
	<use xlink:href="#gpPt6" transform="translate(437.0,534.7) scale(3.38)" color="rgb( 31, 120, 180)"/>
	<use xlink:href="#gpPt6" transform="translate(546.5,528.6) scale(3.38)" color="rgb( 31, 120, 180)"/>
	<use xlink:href="#gpPt6" transform="translate(617.4,522.5) scale(3.38)" color="rgb( 31, 120, 180)"/>
	<use xlink:href="#gpPt6" transform="translate(742.1,516.4) scale(3.38)" color="rgb( 31, 120, 180)"/>
	<use xlink:href="#gpPt6" transform="translate(746.5,510.3) scale(3.38)" color="rgb( 31, 120, 180)"/>
	<use xlink:href="#gpPt6" transform="translate(693.5,504.2) scale(3.38)" color="rgb( 31, 120, 180)"/>
	<use xlink:href="#gpPt6" transform="translate(641.3,498.2) scale(3.38)" color="rgb( 31, 120, 180)"/>
	<use xlink:href="#gpPt6" transform="translate(428.4,492.1) scale(3.38)" color="rgb( 31, 120, 180)"/>
	<use xlink:href="#gpPt6" transform="translate(348.0,486.0) scale(3.38)" color="rgb( 31, 120, 180)"/>
	<use xlink:href="#gpPt6" transform="translate(369.4,479.9) scale(3.38)" color="rgb( 31, 120, 180)"/>
	<use xlink:href="#gpPt6" transform="translate(371.5,473.8) scale(3.38)" color="rgb( 31, 120, 180)"/>
	<use xlink:href="#gpPt6" transform="translate(380.1,467.7) scale(3.38)" color="rgb( 31, 120, 180)"/>
	<use xlink:href="#gpPt6" transform="translate(370.4,461.7) scale(3.38)" color="rgb( 31, 120, 180)"/>
	<use xlink:href="#gpPt6" transform="translate(384.3,455.6) scale(3.38)" color="rgb( 31, 120, 180)"/>
	<use xlink:href="#gpPt6" transform="translate(705.5,449.5) scale(3.38)" color="rgb( 31, 120, 180)"/>
	<use xlink:href="#gpPt6" transform="translate(392.0,443.4) scale(3.38)" color="rgb( 31, 120, 180)"/>
	<use xlink:href="#gpPt6" transform="translate(361.7,437.3) scale(3.38)" color="rgb( 31, 120, 180)"/>
	<use xlink:href="#gpPt6" transform="translate(515.5,431.2) scale(3.38)" color="rgb( 31, 120, 180)"/>
	<use xlink:href="#gpPt6" transform="translate(778.5,425.2) scale(3.38)" color="rgb( 31, 120, 180)"/>
	<use xlink:href="#gpPt6" transform="translate(817.9,419.1) scale(3.38)" color="rgb( 31, 120, 180)"/>
	<use xlink:href="#gpPt6" transform="translate(720.7,413.0) scale(3.38)" color="rgb( 31, 120, 180)"/>
	<use xlink:href="#gpPt6" transform="translate(536.2,406.9) scale(3.38)" color="rgb( 31, 120, 180)"/>
	<use xlink:href="#gpPt6" transform="translate(436.8,400.8) scale(3.38)" color="rgb( 31, 120, 180)"/>
	<use xlink:href="#gpPt6" transform="translate(439.0,394.7) scale(3.38)" color="rgb( 31, 120, 180)"/>
	<use xlink:href="#gpPt6" transform="translate(439.1,388.7) scale(3.38)" color="rgb( 31, 120, 180)"/>
	<use xlink:href="#gpPt6" transform="translate(450.1,382.6) scale(3.38)" color="rgb( 31, 120, 180)"/>
	<use xlink:href="#gpPt6" transform="translate(436.4,376.5) scale(3.38)" color="rgb( 31, 120, 180)"/>
	<use xlink:href="#gpPt6" transform="translate(431.7,370.4) scale(3.38)" color="rgb( 31, 120, 180)"/>
	<use xlink:href="#gpPt6" transform="translate(486.2,364.3) scale(3.38)" color="rgb( 31, 120, 180)"/>
	<use xlink:href="#gpPt6" transform="translate(753.5,358.2) scale(3.38)" color="rgb( 31, 120, 180)"/>
	<use xlink:href="#gpPt6" transform="translate(575.5,352.2) scale(3.38)" color="rgb( 31, 120, 180)"/>
	<use xlink:href="#gpPt6" transform="translate(517.9,346.1) scale(3.38)" color="rgb( 31, 120, 180)"/>
	<use xlink:href="#gpPt6" transform="translate(551.0,340.0) scale(3.38)" color="rgb( 31, 120, 180)"/>
	<use xlink:href="#gpPt6" transform="translate(610.9,333.9) scale(3.38)" color="rgb( 31, 120, 180)"/>
	<use xlink:href="#gpPt6" transform="translate(747.0,327.8) scale(3.38)" color="rgb( 31, 120, 180)"/>
	<use xlink:href="#gpPt6" transform="translate(404.2,321.8) scale(3.38)" color="rgb( 31, 120, 180)"/>
	<use xlink:href="#gpPt6" transform="translate(367.0,315.7) scale(3.38)" color="rgb( 31, 120, 180)"/>
	<use xlink:href="#gpPt6" transform="translate(415.8,309.6) scale(3.38)" color="rgb( 31, 120, 180)"/>
	<use xlink:href="#gpPt6" transform="translate(708.4,303.5) scale(3.38)" color="rgb( 31, 120, 180)"/>
	<use xlink:href="#gpPt6" transform="translate(762.6,297.4) scale(3.38)" color="rgb( 31, 120, 180)"/>
	<use xlink:href="#gpPt6" transform="translate(556.4,291.3) scale(3.38)" color="rgb( 31, 120, 180)"/>
	<use xlink:href="#gpPt6" transform="translate(362.9,285.3) scale(3.38)" color="rgb( 31, 120, 180)"/>
	<use xlink:href="#gpPt6" transform="translate(370.5,279.2) scale(3.38)" color="rgb( 31, 120, 180)"/>
	<use xlink:href="#gpPt6" transform="translate(377.1,273.1) scale(3.38)" color="rgb( 31, 120, 180)"/>
	<use xlink:href="#gpPt6" transform="translate(372.8,267.0) scale(3.38)" color="rgb( 31, 120, 180)"/>
	<use xlink:href="#gpPt6" transform="translate(392.9,260.9) scale(3.38)" color="rgb( 31, 120, 180)"/>
	<use xlink:href="#gpPt6" transform="translate(729.1,254.8) scale(3.38)" color="rgb( 31, 120, 180)"/>
	<use xlink:href="#gpPt6" transform="translate(726.2,248.8) scale(3.38)" color="rgb( 31, 120, 180)"/>
	<use xlink:href="#gpPt6" transform="translate(419.1,242.7) scale(3.38)" color="rgb( 31, 120, 180)"/>
	<use xlink:href="#gpPt6" transform="translate(522.2,236.6) scale(3.38)" color="rgb( 31, 120, 180)"/>
	<use xlink:href="#gpPt6" transform="translate(391.6,230.5) scale(3.38)" color="rgb( 31, 120, 180)"/>
	<use xlink:href="#gpPt6" transform="translate(379.7,224.4) scale(3.38)" color="rgb( 31, 120, 180)"/>
	<use xlink:href="#gpPt6" transform="translate(431.2,218.3) scale(3.38)" color="rgb( 31, 120, 180)"/>
	<use xlink:href="#gpPt6" transform="translate(758.1,212.3) scale(3.38)" color="rgb( 31, 120, 180)"/>
	<use xlink:href="#gpPt6" transform="translate(682.3,206.2) scale(3.38)" color="rgb( 31, 120, 180)"/>
	<use xlink:href="#gpPt6" transform="translate(372.5,200.1) scale(3.38)" color="rgb( 31, 120, 180)"/>
	<use xlink:href="#gpPt6" transform="translate(368.2,194.0) scale(3.38)" color="rgb( 31, 120, 180)"/>
	<use xlink:href="#gpPt6" transform="translate(375.0,187.9) scale(3.38)" color="rgb( 31, 120, 180)"/>
	<use xlink:href="#gpPt6" transform="translate(366.8,181.8) scale(3.38)" color="rgb( 31, 120, 180)"/>
	<use xlink:href="#gpPt6" transform="translate(613.3,175.8) scale(3.38)" color="rgb( 31, 120, 180)"/>
	<use xlink:href="#gpPt6" transform="translate(740.5,169.7) scale(3.38)" color="rgb( 31, 120, 180)"/>
	<use xlink:href="#gpPt6" transform="translate(508.6,163.6) scale(3.38)" color="rgb( 31, 120, 180)"/>
	<use xlink:href="#gpPt6" transform="translate(258.0,157.5) scale(3.38)" color="rgb( 31, 120, 180)"/>
	<use xlink:href="#gpPt6" transform="translate(273.2,151.4) scale(3.38)" color="rgb( 31, 120, 180)"/>
	<use xlink:href="#gpPt6" transform="translate(257.9,145.3) scale(3.38)" color="rgb( 31, 120, 180)"/>
	<use xlink:href="#gpPt6" transform="translate(540.0,139.3) scale(3.38)" color="rgb( 31, 120, 180)"/>
	<use xlink:href="#gpPt6" transform="translate(750.5,133.2) scale(3.38)" color="rgb( 31, 120, 180)"/>
	<use xlink:href="#gpPt6" transform="translate(425.9,127.1) scale(3.38)" color="rgb( 31, 120, 180)"/>
	<use xlink:href="#gpPt6" transform="translate(398.4,121.0) scale(3.38)" color="rgb( 31, 120, 180)"/>
	<use xlink:href="#gpPt6" transform="translate(404.5,114.9) scale(3.38)" color="rgb( 31, 120, 180)"/>
	<use xlink:href="#gpPt6" transform="translate(450.6,108.8) scale(3.38)" color="rgb( 31, 120, 180)"/>
	<use xlink:href="#gpPt6" transform="translate(770.9,102.8) scale(3.38)" color="rgb( 31, 120, 180)"/>
	<use xlink:href="#gpPt6" transform="translate(616.3,96.7) scale(3.38)" color="rgb( 31, 120, 180)"/>
	<use xlink:href="#gpPt6" transform="translate(364.8,90.6) scale(3.38)" color="rgb( 31, 120, 180)"/>
	<use xlink:href="#gpPt6" transform="translate(365.7,84.5) scale(3.38)" color="rgb( 31, 120, 180)"/>
	<use xlink:href="#gpPt6" transform="translate(367.3,78.4) scale(3.38)" color="rgb( 31, 120, 180)"/>
	<use xlink:href="#gpPt6" transform="translate(695.8,72.3) scale(3.38)" color="rgb( 31, 120, 180)"/>
	<use xlink:href="#gpPt6" transform="translate(600.9,66.3) scale(3.38)" color="rgb( 31, 120, 180)"/>
	<use xlink:href="#gpPt6" transform="translate(377.7,60.2) scale(3.38)" color="rgb( 31, 120, 180)"/>
	<use xlink:href="#gpPt6" transform="translate(364.4,54.1) scale(3.38)" color="rgb( 31, 120, 180)"/>
	<use xlink:href="#gpPt6" transform="translate(1126.0,99.1) scale(3.38)" color="rgb( 31, 120, 180)"/>
</g>
	</g>
	<g id="gnuplot_plot_4"><title>gnuplot_plot_4</title>
<g fill="none" color="white" stroke="rgb( 31, 120, 180)" stroke-width="2.00" stroke-linecap="butt" stroke-linejoin="miter">
</g>
<g fill="none" color="black" stroke="currentColor" stroke-width="2.00" stroke-linecap="butt" stroke-linejoin="miter">
</g>
	</g>
	<g id="gnuplot_plot_5"><title>gnuplot_plot_5</title>
<g fill="none" color="black" stroke="currentColor" stroke-width="2.00" stroke-linecap="butt" stroke-linejoin="miter">
	<path stroke="rgb(255, 127,   0)" d="M945.7,662.4 L945.7,54.1  "/></g>
	</g>
	<g id="gnuplot_plot_6"><title>gnuplot_plot_6</title>
<g fill="none" color="black" stroke="currentColor" stroke-width="2.00" stroke-linecap="butt" stroke-linejoin="miter">
</g>
	</g>
	<g id="gnuplot_plot_7"><title>gnuplot_plot_7</title>
<g fill="none" color="black" stroke="currentColor" stroke-width="2.00" stroke-linecap="butt" stroke-linejoin="miter">
</g>
	</g>
<g fill="none" color="black" stroke="currentColor" stroke-width="2.00" stroke-linecap="butt" stroke-linejoin="miter">
</g>
<g fill="none" color="black" stroke="black" stroke-width="1.00" stroke-linecap="butt" stroke-linejoin="miter">
</g>
<g fill="none" color="black" stroke="currentColor" stroke-width="1.00" stroke-linecap="butt" stroke-linejoin="miter">
	<path stroke="black" d="M71.9,54.1 L71.9,662.4 L1003.9,662.4 L1003.9,54.1 L71.9,54.1 Z  "/></g>
<g fill="none" color="black" stroke="currentColor" stroke-width="1.00" stroke-linecap="butt" stroke-linejoin="miter">
</g>
</g>
</svg>