<?xml version="1.0" encoding="UTF-8" standalone="no"?>
<svg viewBox="0 0 1280 720" xmlns="http://www.w3.org/2000/svg" xmlns:xlink="http://www.w3.org/1999/xlink">

<title>Gnuplot</title>
<desc>Produced by GNUPLOT 5.2 patchlevel 2 </desc>

<g id="gnuplot_canvas">

<rect x="0" y="0" width="1280" height="720" fill="none"/>
<defs>

	<circle id="gpDot" r="0.5" stroke-width="0.5"/>
	<path id="gpPt0" stroke-width="0.222" stroke="currentColor" d="M-1,0 h2 M0,-1 v2"/>
	<path id="gpPt1" stroke-width="0.222" stroke="currentColor" d="M-1,-1 L1,1 M1,-1 L-1,1"/>
	<path id="gpPt2" stroke-width="0.222" stroke="currentColor" d="M-1,0 L1,0 M0,-1 L0,1 M-1,-1 L1,1 M-1,1 L1,-1"/>
	<rect id="gpPt3" stroke-width="0.222" stroke="currentColor" x="-1" y="-1" width="2" height="2"/>
	<rect id="gpPt4" stroke-width="0.222" stroke="currentColor" fill="currentColor" x="-1" y="-1" width="2" height="2"/>
	<circle id="gpPt5" stroke-width="0.222" stroke="currentColor" cx="0" cy="0" r="1"/>
	<use xlink:href="#gpPt5" id="gpPt6" fill="currentColor" stroke="none"/>
	<path id="gpPt7" stroke-width="0.222" stroke="currentColor" d="M0,-1.33 L-1.33,0.67 L1.33,0.67 z"/>
	<use xlink:href="#gpPt7" id="gpPt8" fill="currentColor" stroke="none"/>
	<use xlink:href="#gpPt7" id="gpPt9" stroke="currentColor" transform="rotate(180)"/>
	<use xlink:href="#gpPt9" id="gpPt10" fill="currentColor" stroke="none"/>
	<use xlink:href="#gpPt3" id="gpPt11" stroke="currentColor" transform="rotate(45)"/>
	<use xlink:href="#gpPt11" id="gpPt12" fill="currentColor" stroke="none"/>
	<path id="gpPt13" stroke-width="0.222" stroke="currentColor" d="M0,1.330 L1.265,0.411 L0.782,-1.067 L-0.782,-1.076 L-1.265,0.411 z"/>
	<use xlink:href="#gpPt13" id="gpPt14" fill="currentColor" stroke="none"/>
	<filter id="textbox" filterUnits="objectBoundingBox" x="0" y="0" height="1" width="1">
	  <feFlood flood-color="white" flood-opacity="1" result="bgnd"/>
	  <feComposite in="SourceGraphic" in2="bgnd" operator="atop"/>
	</filter>
	<filter id="greybox" filterUnits="objectBoundingBox" x="0" y="0" height="1" width="1">
	  <feFlood flood-color="lightgrey" flood-opacity="1" result="grey"/>
	  <feComposite in="SourceGraphic" in2="grey" operator="atop"/>
	</filter>
</defs>
<g fill="none" color="white" stroke="currentColor" stroke-width="1.00" stroke-linecap="butt" stroke-linejoin="miter">
</g>
<g fill="none" color="black" stroke="currentColor" stroke-width="1.00" stroke-linecap="butt" stroke-linejoin="miter">
	<path stroke="black" d="M63.6,662.4 L72.6,662.4  "/>	<g transform="translate(55.3,666.3)" stroke="none" fill="black" font-family="Helvetica" font-size="12.00" text-anchor="end">
		<text><tspan font-family="Helvetica"> 0</tspan></text>
	</g>
</g>
<g fill="none" color="black" stroke="currentColor" stroke-width="1.00" stroke-linecap="butt" stroke-linejoin="miter">
	<path stroke="black" d="M63.6,596.3 L72.6,596.3  "/>	<g transform="translate(55.3,600.2)" stroke="none" fill="black" font-family="Helvetica" font-size="12.00" text-anchor="end">
		<text><tspan font-family="Helvetica"> 2</tspan></text>
	</g>
</g>
<g fill="none" color="black" stroke="currentColor" stroke-width="1.00" stroke-linecap="butt" stroke-linejoin="miter">
	<path stroke="black" d="M63.6,530.2 L72.6,530.2  "/>	<g transform="translate(55.3,534.1)" stroke="none" fill="black" font-family="Helvetica" font-size="12.00" text-anchor="end">
		<text><tspan font-family="Helvetica"> 4</tspan></text>
	</g>
</g>
<g fill="none" color="black" stroke="currentColor" stroke-width="1.00" stroke-linecap="butt" stroke-linejoin="miter">
	<path stroke="black" d="M63.6,464.0 L72.6,464.0  "/>	<g transform="translate(55.3,467.9)" stroke="none" fill="black" font-family="Helvetica" font-size="12.00" text-anchor="end">
		<text><tspan font-family="Helvetica"> 6</tspan></text>
	</g>
</g>
<g fill="none" color="black" stroke="currentColor" stroke-width="1.00" stroke-linecap="butt" stroke-linejoin="miter">
	<path stroke="black" d="M63.6,397.9 L72.6,397.9  "/>	<g transform="translate(55.3,401.8)" stroke="none" fill="black" font-family="Helvetica" font-size="12.00" text-anchor="end">
		<text><tspan font-family="Helvetica"> 8</tspan></text>
	</g>
</g>
<g fill="none" color="black" stroke="currentColor" stroke-width="1.00" stroke-linecap="butt" stroke-linejoin="miter">
	<path stroke="black" d="M63.6,331.8 L72.6,331.8  "/>	<g transform="translate(55.3,335.7)" stroke="none" fill="black" font-family="Helvetica" font-size="12.00" text-anchor="end">
		<text><tspan font-family="Helvetica"> 10</tspan></text>
	</g>
</g>
<g fill="none" color="black" stroke="currentColor" stroke-width="1.00" stroke-linecap="butt" stroke-linejoin="miter">
	<path stroke="black" d="M63.6,265.7 L72.6,265.7  "/>	<g transform="translate(55.3,269.6)" stroke="none" fill="black" font-family="Helvetica" font-size="12.00" text-anchor="end">
		<text><tspan font-family="Helvetica"> 12</tspan></text>
	</g>
</g>
<g fill="none" color="black" stroke="currentColor" stroke-width="1.00" stroke-linecap="butt" stroke-linejoin="miter">
	<path stroke="black" d="M63.6,199.6 L72.6,199.6  "/>	<g transform="translate(55.3,203.5)" stroke="none" fill="black" font-family="Helvetica" font-size="12.00" text-anchor="end">
		<text><tspan font-family="Helvetica"> 14</tspan></text>
	</g>
</g>
<g fill="none" color="black" stroke="currentColor" stroke-width="1.00" stroke-linecap="butt" stroke-linejoin="miter">
	<path stroke="black" d="M63.6,133.4 L72.6,133.4  "/>	<g transform="translate(55.3,137.3)" stroke="none" fill="black" font-family="Helvetica" font-size="12.00" text-anchor="end">
		<text><tspan font-family="Helvetica"> 16</tspan></text>
	</g>
</g>
<g fill="none" color="black" stroke="currentColor" stroke-width="1.00" stroke-linecap="butt" stroke-linejoin="miter">
	<path stroke="black" d="M63.6,67.3 L72.6,67.3  "/>	<g transform="translate(55.3,71.2)" stroke="none" fill="black" font-family="Helvetica" font-size="12.00" text-anchor="end">
		<text><tspan font-family="Helvetica"> 18</tspan></text>
	</g>
</g>
<g fill="none" color="black" stroke="currentColor" stroke-width="1.00" stroke-linecap="butt" stroke-linejoin="miter">
	<path stroke="black" d="M152.6,662.4 L152.6,653.4  "/>	<g transform="translate(152.6,684.3)" stroke="none" fill="black" font-family="Helvetica" font-size="12.00" text-anchor="middle">
		<text><tspan font-family="Helvetica"> 5.3</tspan></text>
	</g>
</g>
<g fill="none" color="black" stroke="currentColor" stroke-width="1.00" stroke-linecap="butt" stroke-linejoin="miter">
	<path stroke="black" d="M308.2,662.4 L308.2,653.4  "/>	<g transform="translate(308.2,684.3)" stroke="none" fill="black" font-family="Helvetica" font-size="12.00" text-anchor="middle">
		<text><tspan font-family="Helvetica"> 5.35</tspan></text>
	</g>
</g>
<g fill="none" color="black" stroke="currentColor" stroke-width="1.00" stroke-linecap="butt" stroke-linejoin="miter">
	<path stroke="black" d="M463.8,662.4 L463.8,653.4  "/>	<g transform="translate(463.8,684.3)" stroke="none" fill="black" font-family="Helvetica" font-size="12.00" text-anchor="middle">
		<text><tspan font-family="Helvetica"> 5.4</tspan></text>
	</g>
</g>
<g fill="none" color="black" stroke="currentColor" stroke-width="1.00" stroke-linecap="butt" stroke-linejoin="miter">
	<path stroke="black" d="M619.4,662.4 L619.4,653.4  "/>	<g transform="translate(619.4,684.3)" stroke="none" fill="black" font-family="Helvetica" font-size="12.00" text-anchor="middle">
		<text><tspan font-family="Helvetica"> 5.45</tspan></text>
	</g>
</g>
<g fill="none" color="black" stroke="currentColor" stroke-width="1.00" stroke-linecap="butt" stroke-linejoin="miter">
	<path stroke="black" d="M775.0,662.4 L775.0,653.4  "/>	<g transform="translate(775.0,684.3)" stroke="none" fill="black" font-family="Helvetica" font-size="12.00" text-anchor="middle">
		<text><tspan font-family="Helvetica"> 5.5</tspan></text>
	</g>
</g>
<g fill="none" color="black" stroke="currentColor" stroke-width="1.00" stroke-linecap="butt" stroke-linejoin="miter">
	<path stroke="black" d="M930.6,662.4 L930.6,653.4  "/>	<g transform="translate(930.6,684.3)" stroke="none" fill="black" font-family="Helvetica" font-size="12.00" text-anchor="middle">
		<text><tspan font-family="Helvetica"> 5.55</tspan></text>
	</g>
</g>
<g fill="none" color="black" stroke="currentColor" stroke-width="1.00" stroke-linecap="butt" stroke-linejoin="miter">
	<path stroke="black" d="M1020.5,662.4 L1011.5,662.4  "/>	<g transform="translate(1028.8,666.3)" stroke="none" fill="black" font-family="Helvetica" font-size="12.00" text-anchor="start">
		<text><tspan font-family="Helvetica"> 0</tspan></text>
	</g>
</g>
<g fill="none" color="black" stroke="currentColor" stroke-width="1.00" stroke-linecap="butt" stroke-linejoin="miter">
	<path stroke="black" d="M1020.5,561.0 L1011.5,561.0  "/>	<g transform="translate(1028.8,564.9)" stroke="none" fill="black" font-family="Helvetica" font-size="12.00" text-anchor="start">
		<text><tspan font-family="Helvetica"> 2</tspan></text>
	</g>
</g>
<g fill="none" color="black" stroke="currentColor" stroke-width="1.00" stroke-linecap="butt" stroke-linejoin="miter">
	<path stroke="black" d="M1020.5,459.6 L1011.5,459.6  "/>	<g transform="translate(1028.8,463.5)" stroke="none" fill="black" font-family="Helvetica" font-size="12.00" text-anchor="start">
		<text><tspan font-family="Helvetica"> 4</tspan></text>
	</g>
</g>
<g fill="none" color="black" stroke="currentColor" stroke-width="1.00" stroke-linecap="butt" stroke-linejoin="miter">
	<path stroke="black" d="M1020.5,358.2 L1011.5,358.2  "/>	<g transform="translate(1028.8,362.1)" stroke="none" fill="black" font-family="Helvetica" font-size="12.00" text-anchor="start">
		<text><tspan font-family="Helvetica"> 6</tspan></text>
	</g>
</g>
<g fill="none" color="black" stroke="currentColor" stroke-width="1.00" stroke-linecap="butt" stroke-linejoin="miter">
	<path stroke="black" d="M1020.5,256.9 L1011.5,256.9  "/>	<g transform="translate(1028.8,260.8)" stroke="none" fill="black" font-family="Helvetica" font-size="12.00" text-anchor="start">
		<text><tspan font-family="Helvetica"> 8</tspan></text>
	</g>
</g>
<g fill="none" color="black" stroke="currentColor" stroke-width="1.00" stroke-linecap="butt" stroke-linejoin="miter">
	<path stroke="black" d="M1020.5,155.5 L1011.5,155.5  "/>	<g transform="translate(1028.8,159.4)" stroke="none" fill="black" font-family="Helvetica" font-size="12.00" text-anchor="start">
		<text><tspan font-family="Helvetica"> 10</tspan></text>
	</g>
</g>
<g fill="none" color="black" stroke="currentColor" stroke-width="1.00" stroke-linecap="butt" stroke-linejoin="miter">
	<path stroke="black" d="M1020.5,54.1 L1011.5,54.1  "/>	<g transform="translate(1028.8,58.0)" stroke="none" fill="black" font-family="Helvetica" font-size="12.00" text-anchor="start">
		<text><tspan font-family="Helvetica"> 12</tspan></text>
	</g>
</g>
<g fill="none" color="black" stroke="currentColor" stroke-width="1.00" stroke-linecap="butt" stroke-linejoin="miter">
</g>
<g fill="none" color="black" stroke="currentColor" stroke-width="1.00" stroke-linecap="butt" stroke-linejoin="miter">
	<path stroke="black" d="M63.6,54.1 L63.6,662.4 L1020.5,662.4 L1020.5,54.1 L63.6,54.1 Z  "/></g>
<g fill="none" color="black" stroke="currentColor" stroke-width="1.00" stroke-linecap="butt" stroke-linejoin="miter">
	<g transform="translate(16.3,358.3) rotate(270)" stroke="none" fill="black" font-family="Helvetica" font-size="12.00" text-anchor="middle">
		<text><tspan font-family="Helvetica">Iterations (x 10</tspan><tspan font-family="Helvetica" font-size="9.6" dy="-6.00px">3</tspan><tspan font-family="Helvetica" font-size="12.0" dy="6.00px">)</tspan></text>
	</g>
</g>
<g fill="none" color="black" stroke="currentColor" stroke-width="1.00" stroke-linecap="butt" stroke-linejoin="miter">
	<g transform="translate(1082.5,358.3) rotate(270)" stroke="none" fill="black" font-family="Helvetica" font-size="12.00" text-anchor="middle">
		<text><tspan font-family="Helvetica">Density (a.u.)</tspan></text>
	</g>
</g>
<g fill="none" color="black" stroke="currentColor" stroke-width="1.00" stroke-linecap="butt" stroke-linejoin="miter">
	<g transform="translate(542.0,711.3)" stroke="none" fill="black" font-family="Helvetica" font-size="12.00" text-anchor="middle">
		<text><tspan font-family="Helvetica">Average time (us)</tspan></text>
	</g>
</g>
<g fill="none" color="black" stroke="currentColor" stroke-width="1.00" stroke-linecap="butt" stroke-linejoin="miter">
	<g transform="translate(542.0,31.0)" stroke="none" fill="black" font-family="Helvetica" font-size="12.00" text-anchor="middle">
		<text><tspan font-family="Helvetica">Problem 7/p7_memoize/12121212121212121212</tspan></text>
	</g>
</g>
	<g id="gnuplot_plot_1"><title>PDF</title>
<g fill="none" color="black" stroke="currentColor" stroke-width="1.00" stroke-linecap="butt" stroke-linejoin="miter">
	<g transform="translate(1155.4,67.0)" stroke="none" fill="black" font-family="Helvetica" font-size="12.00" text-anchor="start">
		<text><tspan font-family="Helvetica">PDF</tspan></text>
	</g>
</g>
<g fill="none" color="black" stroke="currentColor" stroke-width="1.00" stroke-linecap="butt" stroke-linejoin="miter">
	<g stroke="none" shape-rendering="crispEdges">
		<polygon fill="rgb( 31, 120, 180)" fill-opacity="0.250000" points="1104.9,67.6 1147.1,67.6 1147.1,58.6 1104.9,58.6 "/>
		<polygon fill="rgb( 31, 120, 180)" fill-opacity="0.250000" points="63.6,661.9 65.5,661.8 67.4,661.8 69.4,661.7 71.3,661.6 73.2,661.5 75.1,661.5 77.0,661.4 78.9,661.3 80.9,661.2 82.8,661.0 84.7,660.9 86.6,660.8 88.5,660.6 90.4,660.5 92.4,660.3 94.3,660.1 96.2,659.9 98.1,659.7 100.0,659.4 102.0,659.1 103.9,658.9 105.8,658.6 107.7,658.2 109.6,657.9 111.5,657.5 113.5,657.1 115.4,656.7 117.3,656.2 119.2,655.7 121.1,655.2 123.0,654.6 125.0,654.0 126.9,653.4 128.8,652.7 130.7,652.0 132.6,651.2 134.6,650.4 136.5,649.5 138.4,648.6 140.3,647.6 142.2,646.6 144.1,645.5 146.1,644.3 148.0,643.1 149.9,641.8 151.8,640.4 153.7,639.0 155.6,637.5 157.6,635.9 159.5,634.2 161.4,632.5 163.3,630.6 165.2,628.7 167.2,626.7 169.1,624.6 171.0,622.3 172.9,620.0 174.8,617.6 176.7,615.1 178.7,612.4 180.6,609.7 182.5,606.8 184.4,603.9 186.3,600.8 188.2,597.6 190.2,594.3 192.1,590.8 194.0,587.3 195.9,583.6 197.8,579.7 199.8,575.8 201.7,571.7 203.6,567.5 205.5,563.2 207.4,558.7 209.3,554.1 211.3,549.4 213.2,544.5 215.1,539.6 217.0,534.4 218.9,529.2 220.8,523.8 222.8,518.3 224.7,512.7 226.6,507.0 228.5,501.1 230.4,495.1 232.4,489.0 234.3,482.8 236.2,476.5 238.1,470.1 240.0,463.6 241.9,457.0 243.9,450.2 245.8,443.4 247.7,436.6 249.6,429.6 251.5,422.5 253.4,415.4 255.4,408.3 257.3,401.0 259.2,393.7 261.1,386.4 263.0,379.0 265.0,371.6 266.9,364.2 268.8,356.8 270.7,349.3 272.6,341.8 274.5,334.4 276.5,326.9 278.4,319.5 280.3,312.1 282.2,304.8 284.1,297.4 286.0,290.2 288.0,283.0 289.9,275.8 291.8,268.8 293.7,261.8 295.6,254.9 297.6,248.1 299.5,241.4 301.4,234.9 303.3,228.5 305.2,222.2 307.1,216.0 309.1,210.0 311.0,204.2 312.9,198.5 314.8,193.0 316.7,187.7 318.6,182.5 320.6,177.6 322.5,172.9 324.4,168.4 326.3,164.1 328.2,160.0 330.2,156.1 332.1,152.5 334.0,149.1 335.9,145.9 337.8,143.1 339.7,140.4 341.7,138.0 343.6,135.9 345.5,134.0 347.4,132.4 349.3,131.1 351.2,130.0 353.2,129.2 355.1,128.7 357.0,128.4 358.9,128.4 360.8,128.7 362.8,129.2 364.7,130.0 366.6,131.1 368.5,132.5 370.4,134.1 372.3,136.0 374.3,138.1 376.2,140.4 378.1,143.1 380.0,145.9 381.9,149.0 383.8,152.3 385.8,155.9 387.7,159.7 389.6,163.6 391.5,167.8 393.4,172.2 395.4,176.8 397.3,181.5 399.2,186.4 401.1,191.5 403.0,196.8 404.9,202.2 406.9,207.7 408.8,213.3 410.7,219.1 412.6,225.0 414.5,230.9 416.4,237.0 418.4,243.2 420.3,249.4 422.2,255.6 424.1,262.0 426.0,268.3 428.0,274.7 429.9,281.2 431.8,287.6 433.7,294.0 435.6,300.5 437.5,306.9 439.5,313.3 441.4,319.6 443.3,326.0 445.2,332.2 447.1,338.5 449.0,344.6 451.0,350.8 452.9,356.8 454.8,362.7 456.7,368.6 458.6,374.4 460.6,380.0 462.5,385.6 464.4,391.1 466.3,396.4 468.2,401.7 470.1,406.8 472.1,411.8 474.0,416.7 475.9,421.4 477.8,426.1 479.7,430.6 481.6,434.9 483.6,439.1 485.5,443.2 487.4,447.2 489.3,451.0 491.2,454.7 493.2,458.3 495.1,461.7 497.0,465.0 498.9,468.2 500.8,471.2 502.7,474.1 504.7,476.9 506.6,479.5 508.5,482.0 510.4,484.4 512.3,486.7 514.2,488.8 516.2,490.8 518.1,492.8 520.0,494.6 521.9,496.3 523.8,497.8 525.8,499.3 527.7,500.7 529.6,502.0 531.5,503.2 533.4,504.3 535.3,505.3 537.3,506.2 539.2,507.0 541.1,507.7 543.0,508.4 544.9,509.0 546.8,509.5 548.8,509.9 550.7,510.3 552.6,510.6 554.5,510.9 556.4,511.1 558.3,511.2 560.3,511.3 562.2,511.3 564.1,511.3 566.0,511.2 567.9,511.1 569.9,510.9 571.8,510.7 573.7,510.5 575.6,510.3 577.5,510.0 579.4,509.7 581.4,509.3 583.3,509.0 585.2,508.6 587.1,508.2 589.0,507.8 590.9,507.4 592.9,507.0 594.8,506.5 596.7,506.1 598.6,505.6 600.5,505.2 602.5,504.7 604.4,504.3 606.3,503.9 608.2,503.5 610.1,503.0 612.0,502.6 614.0,502.2 615.9,501.9 617.8,501.5 619.7,501.2 621.6,500.9 623.5,500.6 625.5,500.3 627.4,500.1 629.3,499.8 631.2,499.6 633.1,499.5 635.1,499.3 637.0,499.2 638.9,499.2 640.8,499.1 642.7,499.1 644.6,499.1 646.6,499.2 648.5,499.3 650.4,499.4 652.3,499.6 654.2,499.8 656.1,500.0 658.1,500.3 660.0,500.6 661.9,500.9 663.8,501.3 665.7,501.7 667.7,502.1 669.6,502.6 671.5,503.1 673.4,503.7 675.3,504.2 677.2,504.8 679.2,505.5 681.1,506.1 683.0,506.8 684.9,507.6 686.8,508.3 688.7,509.1 690.7,509.9 692.6,510.7 694.5,511.6 696.4,512.5 698.3,513.4 700.3,514.3 702.2,515.3 704.1,516.3 706.0,517.3 707.9,518.3 709.8,519.3 711.8,520.4 713.7,521.4 715.6,522.5 717.5,523.6 719.4,524.8 721.3,525.9 723.3,527.1 725.2,528.3 727.1,529.5 729.0,530.7 730.9,531.9 732.9,533.1 734.8,534.4 736.7,535.6 738.6,536.9 740.5,538.2 742.4,539.5 744.4,540.8 746.3,542.2 748.2,543.5 750.1,544.9 752.0,546.2 753.9,547.6 755.9,549.0 757.8,550.4 759.7,551.8 761.6,553.2 763.5,554.7 765.5,556.1 767.4,557.6 769.3,559.1 771.2,560.5 773.1,562.0 775.0,563.5 777.0,565.0 778.9,566.5 780.8,568.1 782.7,569.6 784.6,571.1 786.5,572.7 788.5,574.2 790.4,575.8 792.3,577.4 794.2,578.9 796.1,580.5 798.1,582.1 800.0,583.6 801.9,585.2 803.8,586.8 805.7,588.4 807.6,589.9 809.6,591.5 811.5,593.1 813.4,594.6 815.3,596.2 817.2,597.8 819.1,599.3 821.1,600.8 823.0,602.4 824.9,603.9 826.8,605.4 828.7,606.9 830.7,608.4 832.6,609.9 834.5,611.3 836.4,612.8 838.3,614.2 840.2,615.6 842.2,617.0 844.1,618.4 846.0,619.8 847.9,621.1 849.8,622.5 851.7,623.8 853.7,625.0 855.6,626.3 857.5,627.5 859.4,628.7 861.3,629.9 863.3,631.1 865.2,632.2 867.1,633.4 869.0,634.5 870.9,635.5 872.8,636.6 874.8,637.6 876.7,638.6 878.6,639.6 880.5,640.5 882.4,641.4 884.3,642.3 886.3,643.2 888.2,644.0 890.1,644.8 892.0,645.6 893.9,646.4 895.9,647.1 897.8,647.8 899.7,648.5 901.6,649.2 903.5,649.8 905.4,650.4 907.4,651.0 909.3,651.6 911.2,652.2 913.1,652.7 915.0,653.2 916.9,653.7 918.9,654.2 920.8,654.6 922.7,655.0 924.6,655.4 926.5,655.8 928.5,656.2 930.4,656.6 932.3,656.9 934.2,657.2 936.1,657.5 938.0,657.8 940.0,658.1 941.9,658.4 943.8,658.6 945.7,658.9 947.6,659.1 949.5,659.3 951.5,659.5 953.4,659.7 955.3,659.9 957.2,660.0 959.1,660.2 961.1,660.4 963.0,660.5 964.9,660.6 966.8,660.8 968.7,660.9 970.6,661.0 972.6,661.1 974.5,661.2 976.4,661.3 978.3,661.4 980.2,661.4 982.1,661.5 984.1,661.6 986.0,661.6 987.9,661.7 989.8,661.8 991.7,661.8 993.7,661.9 995.6,661.9 997.5,661.9 999.4,662.0 1001.3,662.0 1003.2,662.0 1005.2,662.1 1007.1,662.1 1009.0,662.1 1010.9,662.2 1012.8,662.2 1014.7,662.2 1016.7,662.2 1018.6,662.2 1020.5,662.2 1020.5,662.4 1018.6,662.4 1016.7,662.4 1014.7,662.4 1012.8,662.4 1010.9,662.4 1009.0,662.4 1007.1,662.4 1005.2,662.4 1003.2,662.4 1001.3,662.4 999.4,662.4 997.5,662.4 995.6,662.4 993.7,662.4 991.7,662.4 989.8,662.4 987.9,662.4 986.0,662.4 984.1,662.4 982.1,662.4 980.2,662.4 978.3,662.4 976.4,662.4 974.5,662.4 972.6,662.4 970.6,662.4 968.7,662.4 966.8,662.4 964.9,662.4 963.0,662.4 961.1,662.4 959.1,662.4 957.2,662.4 955.3,662.4 953.4,662.4 951.5,662.4 949.5,662.4 947.6,662.4 945.7,662.4 943.8,662.4 941.9,662.4 940.0,662.4 938.0,662.4 936.1,662.4 934.2,662.4 932.3,662.4 930.4,662.4 928.5,662.4 926.5,662.4 924.6,662.4 922.7,662.4 920.8,662.4 918.9,662.4 916.9,662.4 915.0,662.4 913.1,662.4 911.2,662.4 909.3,662.4 907.4,662.4 905.4,662.4 903.5,662.4 901.6,662.4 899.7,662.4 897.8,662.4 895.9,662.4 893.9,662.4 892.0,662.4 890.1,662.4 888.2,662.4 886.3,662.4 884.3,662.4 882.4,662.4 880.5,662.4 878.6,662.4 876.7,662.4 874.8,662.4 872.8,662.4 870.9,662.4 869.0,662.4 867.1,662.4 865.2,662.4 863.3,662.4 861.3,662.4 859.4,662.4 857.5,662.4 855.6,662.4 853.7,662.4 851.7,662.4 849.8,662.4 847.9,662.4 846.0,662.4 844.1,662.4 842.2,662.4 840.2,662.4 838.3,662.4 836.4,662.4 834.5,662.4 832.6,662.4 830.7,662.4 828.7,662.4 826.8,662.4 824.9,662.4 823.0,662.4 821.1,662.4 819.1,662.4 817.2,662.4 815.3,662.4 813.4,662.4 811.5,662.4 809.6,662.4 807.6,662.4 805.7,662.4 803.8,662.4 801.9,662.4 800.0,662.4 798.1,662.4 796.1,662.4 794.2,662.4 792.3,662.4 790.4,662.4 788.5,662.4 786.5,662.4 784.6,662.4 782.7,662.4 780.8,662.4 778.9,662.4 777.0,662.4 775.0,662.4 773.1,662.4 771.2,662.4 769.3,662.4 767.4,662.4 765.5,662.4 763.5,662.4 761.6,662.4 759.7,662.4 757.8,662.4 755.9,662.4 753.9,662.4 752.0,662.4 750.1,662.4 748.2,662.4 746.3,662.4 744.4,662.4 742.4,662.4 740.5,662.4 738.6,662.4 736.7,662.4 734.8,662.4 732.9,662.4 730.9,662.4 729.0,662.4 727.1,662.4 725.2,662.4 723.3,662.4 721.3,662.4 719.4,662.4 717.5,662.4 715.6,662.4 713.7,662.4 711.8,662.4 709.8,662.4 707.9,662.4 706.0,662.4 704.1,662.4 702.2,662.4 700.3,662.4 698.3,662.4 696.4,662.4 694.5,662.4 692.6,662.4 690.7,662.4 688.7,662.4 686.8,662.4 684.9,662.4 683.0,662.4 681.1,662.4 679.2,662.4 677.2,662.4 675.3,662.4 673.4,662.4 671.5,662.4 669.6,662.4 667.7,662.4 665.7,662.4 663.8,662.4 661.9,662.4 660.0,662.4 658.1,662.4 656.1,662.4 654.2,662.4 652.3,662.4 650.4,662.4 648.5,662.4 646.6,662.4 644.6,662.4 642.7,662.4 640.8,662.4 638.9,662.4 637.0,662.4 635.1,662.4 633.1,662.4 631.2,662.4 629.3,662.4 627.4,662.4 625.5,662.4 623.5,662.4 621.6,662.4 619.7,662.4 617.8,662.4 615.9,662.4 614.0,662.4 612.0,662.4 610.1,662.4 608.2,662.4 606.3,662.4 604.4,662.4 602.5,662.4 600.5,662.4 598.6,662.4 596.7,662.4 594.8,662.4 592.9,662.4 590.9,662.4 589.0,662.4 587.1,662.4 585.2,662.4 583.3,662.4 581.4,662.4 579.4,662.4 577.5,662.4 575.6,662.4 573.7,662.4 571.8,662.4 569.9,662.4 567.9,662.4 566.0,662.4 564.1,662.4 562.2,662.4 560.3,662.4 558.3,662.4 556.4,662.4 554.5,662.4 552.6,662.4 550.7,662.4 548.8,662.4 546.8,662.4 544.9,662.4 543.0,662.4 541.1,662.4 539.2,662.4 537.3,662.4 535.3,662.4 533.4,662.4 531.5,662.4 529.6,662.4 527.7,662.4 525.8,662.4 523.8,662.4 521.9,662.4 520.0,662.4 518.1,662.4 516.2,662.4 514.2,662.4 512.3,662.4 510.4,662.4 508.5,662.4 506.6,662.4 504.7,662.4 502.7,662.4 500.8,662.4 498.9,662.4 497.0,662.4 495.1,662.4 493.2,662.4 491.2,662.4 489.3,662.4 487.4,662.4 485.5,662.4 483.6,662.4 481.6,662.4 479.7,662.4 477.8,662.4 475.9,662.4 474.0,662.4 472.1,662.4 470.1,662.4 468.2,662.4 466.3,662.4 464.4,662.4 462.5,662.4 460.6,662.4 458.6,662.4 456.7,662.4 454.8,662.4 452.9,662.4 451.0,662.4 449.0,662.4 447.1,662.4 445.2,662.4 443.3,662.4 441.4,662.4 439.5,662.4 437.5,662.4 435.6,662.4 433.7,662.4 431.8,662.4 429.9,662.4 428.0,662.4 426.0,662.4 424.1,662.4 422.2,662.4 420.3,662.4 418.4,662.4 416.4,662.4 414.5,662.4 412.6,662.4 410.7,662.4 408.8,662.4 406.9,662.4 404.9,662.4 403.0,662.4 401.1,662.4 399.2,662.4 397.3,662.4 395.4,662.4 393.4,662.4 391.5,662.4 389.6,662.4 387.7,662.4 385.8,662.4 383.8,662.4 381.9,662.4 380.0,662.4 378.1,662.4 376.2,662.4 374.3,662.4 372.3,662.4 370.4,662.4 368.5,662.4 366.6,662.4 364.7,662.4 362.8,662.4 360.8,662.4 358.9,662.4 357.0,662.4 355.1,662.4 353.2,662.4 351.2,662.4 349.3,662.4 347.4,662.4 345.5,662.4 343.6,662.4 341.7,662.4 339.7,662.4 337.8,662.4 335.9,662.4 334.0,662.4 332.1,662.4 330.2,662.4 328.2,662.4 326.3,662.4 324.4,662.4 322.5,662.4 320.6,662.4 318.6,662.4 316.7,662.4 314.8,662.4 312.9,662.4 311.0,662.4 309.1,662.4 307.1,662.4 305.2,662.4 303.3,662.4 301.4,662.4 299.5,662.4 297.6,662.4 295.6,662.4 293.7,662.4 291.8,662.4 289.9,662.4 288.0,662.4 286.0,662.4 284.1,662.4 282.2,662.4 280.3,662.4 278.4,662.4 276.5,662.4 274.5,662.4 272.6,662.4 270.7,662.4 268.8,662.4 266.9,662.4 265.0,662.4 263.0,662.4 261.1,662.4 259.2,662.4 257.3,662.4 255.4,662.4 253.4,662.4 251.5,662.4 249.6,662.4 247.7,662.4 245.8,662.4 243.9,662.4 241.9,662.4 240.0,662.4 238.1,662.4 236.2,662.4 234.3,662.4 232.4,662.4 230.4,662.4 228.5,662.4 226.6,662.4 224.7,662.4 222.8,662.4 220.8,662.4 218.9,662.4 217.0,662.4 215.1,662.4 213.2,662.4 211.3,662.4 209.3,662.4 207.4,662.4 205.5,662.4 203.6,662.4 201.7,662.4 199.8,662.4 197.8,662.4 195.9,662.4 194.0,662.4 192.1,662.4 190.2,662.4 188.2,662.4 186.3,662.4 184.4,662.4 182.5,662.4 180.6,662.4 178.7,662.4 176.7,662.4 174.8,662.4 172.9,662.4 171.0,662.4 169.1,662.4 167.2,662.4 165.2,662.4 163.3,662.4 161.4,662.4 159.5,662.4 157.6,662.4 155.6,662.4 153.7,662.4 151.8,662.4 149.9,662.4 148.0,662.4 146.1,662.4 144.1,662.4 142.2,662.4 140.3,662.4 138.4,662.4 136.5,662.4 134.6,662.4 132.6,662.4 130.7,662.4 128.8,662.4 126.9,662.4 125.0,662.4 123.0,662.4 121.1,662.4 119.2,662.4 117.3,662.4 115.4,662.4 113.5,662.4 111.5,662.4 109.6,662.4 107.7,662.4 105.8,662.4 103.9,662.4 102.0,662.4 100.0,662.4 98.1,662.4 96.2,662.4 94.3,662.4 92.4,662.4 90.4,662.4 88.5,662.4 86.6,662.4 84.7,662.4 82.8,662.4 80.9,662.4 78.9,662.4 77.0,662.4 75.1,662.4 73.2,662.4 71.3,662.4 69.4,662.4 67.4,662.4 65.5,662.4 63.6,662.4 "/>
	</g>
</g>
	</g>
	<g id="gnuplot_plot_2"><title>Mean</title>
<g fill="none" color="white" stroke="rgb( 31, 120, 180)" stroke-width="2.00" stroke-linecap="butt" stroke-linejoin="miter">
</g>
<g fill="none" color="black" stroke="currentColor" stroke-width="2.00" stroke-linecap="butt" stroke-linejoin="miter">
	<g transform="translate(1155.4,85.0)" stroke="none" fill="black" font-family="Helvetica" font-size="12.00" text-anchor="start">
		<text><tspan font-family="Helvetica">Mean</tspan></text>
	</g>
</g>
<g fill="none" color="black" stroke="currentColor" stroke-width="2.00" stroke-linecap="butt" stroke-linejoin="miter">
	<path stroke="rgb( 31, 120, 180)" d="M1104.9,81.1 L1147.1,81.1 M446.4,662.4 L446.4,54.1  "/></g>
	</g>
	<g id="gnuplot_plot_3"><title>"Clean" sample</title>
<g fill="none" color="white" stroke="rgb( 31, 120, 180)" stroke-width="1.00" stroke-linecap="butt" stroke-linejoin="miter">
</g>
<g fill="none" color="black" stroke="currentColor" stroke-width="1.00" stroke-linecap="butt" stroke-linejoin="miter">
	<g transform="translate(1155.4,103.0)" stroke="none" fill="black" font-family="Helvetica" font-size="12.00" text-anchor="start">
		<text><tspan font-family="Helvetica">"Clean" sample</tspan></text>
	</g>
</g>
<g fill="none" color="black" stroke="currentColor" stroke-width="1.00" stroke-linecap="butt" stroke-linejoin="miter">
	<use xlink:href="#gpPt6" transform="translate(430.0,656.3) scale(3.38)" color="rgb( 31, 120, 180)"/>
	<use xlink:href="#gpPt6" transform="translate(518.8,650.2) scale(3.38)" color="rgb( 31, 120, 180)"/>
	<use xlink:href="#gpPt6" transform="translate(383.2,644.2) scale(3.38)" color="rgb( 31, 120, 180)"/>
	<use xlink:href="#gpPt6" transform="translate(316.7,638.1) scale(3.38)" color="rgb( 31, 120, 180)"/>
	<use xlink:href="#gpPt6" transform="translate(345.4,632.0) scale(3.38)" color="rgb( 31, 120, 180)"/>
	<use xlink:href="#gpPt6" transform="translate(374.7,625.9) scale(3.38)" color="rgb( 31, 120, 180)"/>
	<use xlink:href="#gpPt6" transform="translate(431.9,619.8) scale(3.38)" color="rgb( 31, 120, 180)"/>
	<use xlink:href="#gpPt6" transform="translate(365.9,613.7) scale(3.38)" color="rgb( 31, 120, 180)"/>
	<use xlink:href="#gpPt6" transform="translate(357.3,607.7) scale(3.38)" color="rgb( 31, 120, 180)"/>
	<use xlink:href="#gpPt6" transform="translate(308.1,601.6) scale(3.38)" color="rgb( 31, 120, 180)"/>
	<use xlink:href="#gpPt6" transform="translate(261.0,595.5) scale(3.38)" color="rgb( 31, 120, 180)"/>
	<use xlink:href="#gpPt6" transform="translate(332.6,589.4) scale(3.38)" color="rgb( 31, 120, 180)"/>
	<use xlink:href="#gpPt6" transform="translate(340.2,583.3) scale(3.38)" color="rgb( 31, 120, 180)"/>
	<use xlink:href="#gpPt6" transform="translate(358.1,577.2) scale(3.38)" color="rgb( 31, 120, 180)"/>
	<use xlink:href="#gpPt6" transform="translate(368.4,571.2) scale(3.38)" color="rgb( 31, 120, 180)"/>
	<use xlink:href="#gpPt6" transform="translate(385.5,565.1) scale(3.38)" color="rgb( 31, 120, 180)"/>
	<use xlink:href="#gpPt6" transform="translate(361.0,559.0) scale(3.38)" color="rgb( 31, 120, 180)"/>
	<use xlink:href="#gpPt6" transform="translate(380.5,552.9) scale(3.38)" color="rgb( 31, 120, 180)"/>
	<use xlink:href="#gpPt6" transform="translate(378.9,546.8) scale(3.38)" color="rgb( 31, 120, 180)"/>
	<use xlink:href="#gpPt6" transform="translate(619.1,540.7) scale(3.38)" color="rgb( 31, 120, 180)"/>
	<use xlink:href="#gpPt6" transform="translate(602.5,534.7) scale(3.38)" color="rgb( 31, 120, 180)"/>
	<use xlink:href="#gpPt6" transform="translate(785.1,528.6) scale(3.38)" color="rgb( 31, 120, 180)"/>
	<use xlink:href="#gpPt6" transform="translate(751.8,522.5) scale(3.38)" color="rgb( 31, 120, 180)"/>
	<use xlink:href="#gpPt6" transform="translate(688.7,516.4) scale(3.38)" color="rgb( 31, 120, 180)"/>
	<use xlink:href="#gpPt6" transform="translate(608.1,510.3) scale(3.38)" color="rgb( 31, 120, 180)"/>
	<use xlink:href="#gpPt6" transform="translate(602.3,504.2) scale(3.38)" color="rgb( 31, 120, 180)"/>
	<use xlink:href="#gpPt6" transform="translate(397.4,498.2) scale(3.38)" color="rgb( 31, 120, 180)"/>
	<use xlink:href="#gpPt6" transform="translate(349.5,492.1) scale(3.38)" color="rgb( 31, 120, 180)"/>
	<use xlink:href="#gpPt6" transform="translate(376.6,486.0) scale(3.38)" color="rgb( 31, 120, 180)"/>
	<use xlink:href="#gpPt6" transform="translate(374.4,479.9) scale(3.38)" color="rgb( 31, 120, 180)"/>
	<use xlink:href="#gpPt6" transform="translate(331.6,473.8) scale(3.38)" color="rgb( 31, 120, 180)"/>
	<use xlink:href="#gpPt6" transform="translate(664.1,467.7) scale(3.38)" color="rgb( 31, 120, 180)"/>
	<use xlink:href="#gpPt6" transform="translate(321.0,461.7) scale(3.38)" color="rgb( 31, 120, 180)"/>
	<use xlink:href="#gpPt6" transform="translate(338.9,455.6) scale(3.38)" color="rgb( 31, 120, 180)"/>
	<use xlink:href="#gpPt6" transform="translate(292.6,449.5) scale(3.38)" color="rgb( 31, 120, 180)"/>
	<use xlink:href="#gpPt6" transform="translate(298.8,443.4) scale(3.38)" color="rgb( 31, 120, 180)"/>
	<use xlink:href="#gpPt6" transform="translate(283.6,437.3) scale(3.38)" color="rgb( 31, 120, 180)"/>
	<use xlink:href="#gpPt6" transform="translate(311.9,431.2) scale(3.38)" color="rgb( 31, 120, 180)"/>
	<use xlink:href="#gpPt6" transform="translate(548.9,425.2) scale(3.38)" color="rgb( 31, 120, 180)"/>
	<use xlink:href="#gpPt6" transform="translate(828.7,419.1) scale(3.38)" color="rgb( 31, 120, 180)"/>
	<use xlink:href="#gpPt6" transform="translate(677.1,413.0) scale(3.38)" color="rgb( 31, 120, 180)"/>
	<use xlink:href="#gpPt6" transform="translate(632.3,406.9) scale(3.38)" color="rgb( 31, 120, 180)"/>
	<use xlink:href="#gpPt6" transform="translate(360.0,400.8) scale(3.38)" color="rgb( 31, 120, 180)"/>
	<use xlink:href="#gpPt6" transform="translate(349.0,394.7) scale(3.38)" color="rgb( 31, 120, 180)"/>
	<use xlink:href="#gpPt6" transform="translate(342.3,388.7) scale(3.38)" color="rgb( 31, 120, 180)"/>
	<use xlink:href="#gpPt6" transform="translate(331.4,382.6) scale(3.38)" color="rgb( 31, 120, 180)"/>
	<use xlink:href="#gpPt6" transform="translate(387.1,376.5) scale(3.38)" color="rgb( 31, 120, 180)"/>
	<use xlink:href="#gpPt6" transform="translate(314.6,370.4) scale(3.38)" color="rgb( 31, 120, 180)"/>
	<use xlink:href="#gpPt6" transform="translate(358.7,364.3) scale(3.38)" color="rgb( 31, 120, 180)"/>
	<use xlink:href="#gpPt6" transform="translate(431.2,358.2) scale(3.38)" color="rgb( 31, 120, 180)"/>
	<use xlink:href="#gpPt6" transform="translate(645.1,352.2) scale(3.38)" color="rgb( 31, 120, 180)"/>
	<use xlink:href="#gpPt6" transform="translate(752.5,346.1) scale(3.38)" color="rgb( 31, 120, 180)"/>
	<use xlink:href="#gpPt6" transform="translate(664.4,340.0) scale(3.38)" color="rgb( 31, 120, 180)"/>
	<use xlink:href="#gpPt6" transform="translate(411.6,333.9) scale(3.38)" color="rgb( 31, 120, 180)"/>
	<use xlink:href="#gpPt6" transform="translate(544.7,327.8) scale(3.38)" color="rgb( 31, 120, 180)"/>
	<use xlink:href="#gpPt6" transform="translate(433.2,321.8) scale(3.38)" color="rgb( 31, 120, 180)"/>
	<use xlink:href="#gpPt6" transform="translate(347.3,315.7) scale(3.38)" color="rgb( 31, 120, 180)"/>
	<use xlink:href="#gpPt6" transform="translate(352.0,309.6) scale(3.38)" color="rgb( 31, 120, 180)"/>
	<use xlink:href="#gpPt6" transform="translate(366.0,303.5) scale(3.38)" color="rgb( 31, 120, 180)"/>
	<use xlink:href="#gpPt6" transform="translate(358.9,297.4) scale(3.38)" color="rgb( 31, 120, 180)"/>
	<use xlink:href="#gpPt6" transform="translate(646.7,291.3) scale(3.38)" color="rgb( 31, 120, 180)"/>
	<use xlink:href="#gpPt6" transform="translate(616.3,285.3) scale(3.38)" color="rgb( 31, 120, 180)"/>
	<use xlink:href="#gpPt6" transform="translate(489.1,279.2) scale(3.38)" color="rgb( 31, 120, 180)"/>
	<use xlink:href="#gpPt6" transform="translate(395.9,273.1) scale(3.38)" color="rgb( 31, 120, 180)"/>
	<use xlink:href="#gpPt6" transform="translate(382.0,267.0) scale(3.38)" color="rgb( 31, 120, 180)"/>
	<use xlink:href="#gpPt6" transform="translate(391.7,260.9) scale(3.38)" color="rgb( 31, 120, 180)"/>
	<use xlink:href="#gpPt6" transform="translate(401.0,254.8) scale(3.38)" color="rgb( 31, 120, 180)"/>
	<use xlink:href="#gpPt6" transform="translate(419.2,248.8) scale(3.38)" color="rgb( 31, 120, 180)"/>
	<use xlink:href="#gpPt6" transform="translate(728.2,242.7) scale(3.38)" color="rgb( 31, 120, 180)"/>
	<use xlink:href="#gpPt6" transform="translate(708.4,236.6) scale(3.38)" color="rgb( 31, 120, 180)"/>
	<use xlink:href="#gpPt6" transform="translate(571.3,230.5) scale(3.38)" color="rgb( 31, 120, 180)"/>
	<use xlink:href="#gpPt6" transform="translate(293.9,224.4) scale(3.38)" color="rgb( 31, 120, 180)"/>
	<use xlink:href="#gpPt6" transform="translate(300.9,218.3) scale(3.38)" color="rgb( 31, 120, 180)"/>
	<use xlink:href="#gpPt6" transform="translate(289.8,212.3) scale(3.38)" color="rgb( 31, 120, 180)"/>
	<use xlink:href="#gpPt6" transform="translate(295.4,206.2) scale(3.38)" color="rgb( 31, 120, 180)"/>
	<use xlink:href="#gpPt6" transform="translate(459.7,200.1) scale(3.38)" color="rgb( 31, 120, 180)"/>
	<use xlink:href="#gpPt6" transform="translate(686.5,194.0) scale(3.38)" color="rgb( 31, 120, 180)"/>
	<use xlink:href="#gpPt6" transform="translate(502.8,187.9) scale(3.38)" color="rgb( 31, 120, 180)"/>
	<use xlink:href="#gpPt6" transform="translate(305.2,181.8) scale(3.38)" color="rgb( 31, 120, 180)"/>
	<use xlink:href="#gpPt6" transform="translate(289.3,175.8) scale(3.38)" color="rgb( 31, 120, 180)"/>
	<use xlink:href="#gpPt6" transform="translate(255.4,169.7) scale(3.38)" color="rgb( 31, 120, 180)"/>
	<use xlink:href="#gpPt6" transform="translate(260.0,163.6) scale(3.38)" color="rgb( 31, 120, 180)"/>
	<use xlink:href="#gpPt6" transform="translate(402.6,157.5) scale(3.38)" color="rgb( 31, 120, 180)"/>
	<use xlink:href="#gpPt6" transform="translate(756.5,151.4) scale(3.38)" color="rgb( 31, 120, 180)"/>
	<use xlink:href="#gpPt6" transform="translate(479.1,145.3) scale(3.38)" color="rgb( 31, 120, 180)"/>
	<use xlink:href="#gpPt6" transform="translate(398.8,139.3) scale(3.38)" color="rgb( 31, 120, 180)"/>
	<use xlink:href="#gpPt6" transform="translate(378.6,133.2) scale(3.38)" color="rgb( 31, 120, 180)"/>
	<use xlink:href="#gpPt6" transform="translate(395.2,127.1) scale(3.38)" color="rgb( 31, 120, 180)"/>
	<use xlink:href="#gpPt6" transform="translate(518.1,121.0) scale(3.38)" color="rgb( 31, 120, 180)"/>
	<use xlink:href="#gpPt6" transform="translate(800.1,114.9) scale(3.38)" color="rgb( 31, 120, 180)"/>
	<use xlink:href="#gpPt6" transform="translate(536.8,108.8) scale(3.38)" color="rgb( 31, 120, 180)"/>
	<use xlink:href="#gpPt6" transform="translate(393.6,102.8) scale(3.38)" color="rgb( 31, 120, 180)"/>
	<use xlink:href="#gpPt6" transform="translate(421.7,96.7) scale(3.38)" color="rgb( 31, 120, 180)"/>
	<use xlink:href="#gpPt6" transform="translate(398.5,90.6) scale(3.38)" color="rgb( 31, 120, 180)"/>
	<use xlink:href="#gpPt6" transform="translate(762.0,84.5) scale(3.38)" color="rgb( 31, 120, 180)"/>
	<use xlink:href="#gpPt6" transform="translate(659.1,78.4) scale(3.38)" color="rgb( 31, 120, 180)"/>
	<use xlink:href="#gpPt6" transform="translate(341.3,72.3) scale(3.38)" color="rgb( 31, 120, 180)"/>
	<use xlink:href="#gpPt6" transform="translate(281.5,66.3) scale(3.38)" color="rgb( 31, 120, 180)"/>
	<use xlink:href="#gpPt6" transform="translate(277.9,60.2) scale(3.38)" color="rgb( 31, 120, 180)"/>
	<use xlink:href="#gpPt6" transform="translate(313.4,54.1) scale(3.38)" color="rgb( 31, 120, 180)"/>
	<use xlink:href="#gpPt6" transform="translate(1126.0,99.1) scale(3.38)" color="rgb( 31, 120, 180)"/>
</g>
	</g>
	<g id="gnuplot_plot_4"><title>gnuplot_plot_4</title>
<g fill="none" color="white" stroke="rgb( 31, 120, 180)" stroke-width="2.00" stroke-linecap="butt" stroke-linejoin="miter">
</g>
<g fill="none" color="black" stroke="currentColor" stroke-width="2.00" stroke-linecap="butt" stroke-linejoin="miter">
</g>
	</g>
	<g id="gnuplot_plot_5"><title>gnuplot_plot_5</title>
<g fill="none" color="black" stroke="currentColor" stroke-width="2.00" stroke-linecap="butt" stroke-linejoin="miter">
	<path stroke="rgb(255, 127,   0)" d="M852.9,662.4 L852.9,54.1  "/></g>
	</g>
	<g id="gnuplot_plot_6"><title>gnuplot_plot_6</title>
<g fill="none" color="black" stroke="currentColor" stroke-width="2.00" stroke-linecap="butt" stroke-linejoin="miter">
</g>
	</g>
	<g id="gnuplot_plot_7"><title>gnuplot_plot_7</title>
<g fill="none" color="black" stroke="currentColor" stroke-width="2.00" stroke-linecap="butt" stroke-linejoin="miter">
</g>
	</g>
<g fill="none" color="black" stroke="currentColor" stroke-width="2.00" stroke-linecap="butt" stroke-linejoin="miter">
</g>
<g fill="none" color="black" stroke="black" stroke-width="1.00" stroke-linecap="butt" stroke-linejoin="miter">
</g>
<g fill="none" color="black" stroke="currentColor" stroke-width="1.00" stroke-linecap="butt" stroke-linejoin="miter">
	<path stroke="black" d="M63.6,54.1 L63.6,662.4 L1020.5,662.4 L1020.5,54.1 L63.6,54.1 Z  "/></g>
<g fill="none" color="black" stroke="currentColor" stroke-width="1.00" stroke-linecap="butt" stroke-linejoin="miter">
</g>
</g>
</svg>