<?xml version="1.0" encoding="UTF-8" standalone="no"?>
<svg viewBox="0 0 1280 720" xmlns="http://www.w3.org/2000/svg" xmlns:xlink="http://www.w3.org/1999/xlink">

<title>Gnuplot</title>
<desc>Produced by GNUPLOT 5.2 patchlevel 2 </desc>

<g id="gnuplot_canvas">

<rect x="0" y="0" width="1280" height="720" fill="none"/>
<defs>

	<circle id="gpDot" r="0.5" stroke-width="0.5"/>
	<path id="gpPt0" stroke-width="0.222" stroke="currentColor" d="M-1,0 h2 M0,-1 v2"/>
	<path id="gpPt1" stroke-width="0.222" stroke="currentColor" d="M-1,-1 L1,1 M1,-1 L-1,1"/>
	<path id="gpPt2" stroke-width="0.222" stroke="currentColor" d="M-1,0 L1,0 M0,-1 L0,1 M-1,-1 L1,1 M-1,1 L1,-1"/>
	<rect id="gpPt3" stroke-width="0.222" stroke="currentColor" x="-1" y="-1" width="2" height="2"/>
	<rect id="gpPt4" stroke-width="0.222" stroke="currentColor" fill="currentColor" x="-1" y="-1" width="2" height="2"/>
	<circle id="gpPt5" stroke-width="0.222" stroke="currentColor" cx="0" cy="0" r="1"/>
	<use xlink:href="#gpPt5" id="gpPt6" fill="currentColor" stroke="none"/>
	<path id="gpPt7" stroke-width="0.222" stroke="currentColor" d="M0,-1.33 L-1.33,0.67 L1.33,0.67 z"/>
	<use xlink:href="#gpPt7" id="gpPt8" fill="currentColor" stroke="none"/>
	<use xlink:href="#gpPt7" id="gpPt9" stroke="currentColor" transform="rotate(180)"/>
	<use xlink:href="#gpPt9" id="gpPt10" fill="currentColor" stroke="none"/>
	<use xlink:href="#gpPt3" id="gpPt11" stroke="currentColor" transform="rotate(45)"/>
	<use xlink:href="#gpPt11" id="gpPt12" fill="currentColor" stroke="none"/>
	<path id="gpPt13" stroke-width="0.222" stroke="currentColor" d="M0,1.330 L1.265,0.411 L0.782,-1.067 L-0.782,-1.076 L-1.265,0.411 z"/>
	<use xlink:href="#gpPt13" id="gpPt14" fill="currentColor" stroke="none"/>
	<filter id="textbox" filterUnits="objectBoundingBox" x="0" y="0" height="1" width="1">
	  <feFlood flood-color="white" flood-opacity="1" result="bgnd"/>
	  <feComposite in="SourceGraphic" in2="bgnd" operator="atop"/>
	</filter>
	<filter id="greybox" filterUnits="objectBoundingBox" x="0" y="0" height="1" width="1">
	  <feFlood flood-color="lightgrey" flood-opacity="1" result="grey"/>
	  <feComposite in="SourceGraphic" in2="grey" operator="atop"/>
	</filter>
</defs>
<g fill="none" color="white" stroke="currentColor" stroke-width="1.00" stroke-linecap="butt" stroke-linejoin="miter">
</g>
<g fill="none" color="black" stroke="currentColor" stroke-width="1.00" stroke-linecap="butt" stroke-linejoin="miter">
	<path stroke="black" d="M71.9,662.4 L80.9,662.4  "/>	<g transform="translate(63.6,666.3)" stroke="none" fill="black" font-family="Helvetica" font-size="12.00" text-anchor="end">
		<text><tspan font-family="Helvetica"> 0</tspan></text>
	</g>
</g>
<g fill="none" color="black" stroke="currentColor" stroke-width="1.00" stroke-linecap="butt" stroke-linejoin="miter">
	<path stroke="black" d="M71.9,561.0 L80.9,561.0  "/>	<g transform="translate(63.6,564.9)" stroke="none" fill="black" font-family="Helvetica" font-size="12.00" text-anchor="end">
		<text><tspan font-family="Helvetica"> 50</tspan></text>
	</g>
</g>
<g fill="none" color="black" stroke="currentColor" stroke-width="1.00" stroke-linecap="butt" stroke-linejoin="miter">
	<path stroke="black" d="M71.9,459.6 L80.9,459.6  "/>	<g transform="translate(63.6,463.5)" stroke="none" fill="black" font-family="Helvetica" font-size="12.00" text-anchor="end">
		<text><tspan font-family="Helvetica"> 100</tspan></text>
	</g>
</g>
<g fill="none" color="black" stroke="currentColor" stroke-width="1.00" stroke-linecap="butt" stroke-linejoin="miter">
	<path stroke="black" d="M71.9,358.2 L80.9,358.2  "/>	<g transform="translate(63.6,362.1)" stroke="none" fill="black" font-family="Helvetica" font-size="12.00" text-anchor="end">
		<text><tspan font-family="Helvetica"> 150</tspan></text>
	</g>
</g>
<g fill="none" color="black" stroke="currentColor" stroke-width="1.00" stroke-linecap="butt" stroke-linejoin="miter">
	<path stroke="black" d="M71.9,256.9 L80.9,256.9  "/>	<g transform="translate(63.6,260.8)" stroke="none" fill="black" font-family="Helvetica" font-size="12.00" text-anchor="end">
		<text><tspan font-family="Helvetica"> 200</tspan></text>
	</g>
</g>
<g fill="none" color="black" stroke="currentColor" stroke-width="1.00" stroke-linecap="butt" stroke-linejoin="miter">
	<path stroke="black" d="M71.9,155.5 L80.9,155.5  "/>	<g transform="translate(63.6,159.4)" stroke="none" fill="black" font-family="Helvetica" font-size="12.00" text-anchor="end">
		<text><tspan font-family="Helvetica"> 250</tspan></text>
	</g>
</g>
<g fill="none" color="black" stroke="currentColor" stroke-width="1.00" stroke-linecap="butt" stroke-linejoin="miter">
	<path stroke="black" d="M71.9,54.1 L80.9,54.1  "/>	<g transform="translate(63.6,58.0)" stroke="none" fill="black" font-family="Helvetica" font-size="12.00" text-anchor="end">
		<text><tspan font-family="Helvetica"> 300</tspan></text>
	</g>
</g>
<g fill="none" color="black" stroke="currentColor" stroke-width="1.00" stroke-linecap="butt" stroke-linejoin="miter">
	<path stroke="black" d="M98.7,662.4 L98.7,653.4  "/>	<g transform="translate(98.7,684.3)" stroke="none" fill="black" font-family="Helvetica" font-size="12.00" text-anchor="middle">
		<text><tspan font-family="Helvetica"> 410</tspan></text>
	</g>
</g>
<g fill="none" color="black" stroke="currentColor" stroke-width="1.00" stroke-linecap="butt" stroke-linejoin="miter">
	<path stroke="black" d="M239.6,662.4 L239.6,653.4  "/>	<g transform="translate(239.6,684.3)" stroke="none" fill="black" font-family="Helvetica" font-size="12.00" text-anchor="middle">
		<text><tspan font-family="Helvetica"> 415</tspan></text>
	</g>
</g>
<g fill="none" color="black" stroke="currentColor" stroke-width="1.00" stroke-linecap="butt" stroke-linejoin="miter">
	<path stroke="black" d="M380.4,662.4 L380.4,653.4  "/>	<g transform="translate(380.4,684.3)" stroke="none" fill="black" font-family="Helvetica" font-size="12.00" text-anchor="middle">
		<text><tspan font-family="Helvetica"> 420</tspan></text>
	</g>
</g>
<g fill="none" color="black" stroke="currentColor" stroke-width="1.00" stroke-linecap="butt" stroke-linejoin="miter">
	<path stroke="black" d="M521.3,662.4 L521.3,653.4  "/>	<g transform="translate(521.3,684.3)" stroke="none" fill="black" font-family="Helvetica" font-size="12.00" text-anchor="middle">
		<text><tspan font-family="Helvetica"> 425</tspan></text>
	</g>
</g>
<g fill="none" color="black" stroke="currentColor" stroke-width="1.00" stroke-linecap="butt" stroke-linejoin="miter">
	<path stroke="black" d="M662.1,662.4 L662.1,653.4  "/>	<g transform="translate(662.1,684.3)" stroke="none" fill="black" font-family="Helvetica" font-size="12.00" text-anchor="middle">
		<text><tspan font-family="Helvetica"> 430</tspan></text>
	</g>
</g>
<g fill="none" color="black" stroke="currentColor" stroke-width="1.00" stroke-linecap="butt" stroke-linejoin="miter">
	<path stroke="black" d="M803.0,662.4 L803.0,653.4  "/>	<g transform="translate(803.0,684.3)" stroke="none" fill="black" font-family="Helvetica" font-size="12.00" text-anchor="middle">
		<text><tspan font-family="Helvetica"> 435</tspan></text>
	</g>
</g>
<g fill="none" color="black" stroke="currentColor" stroke-width="1.00" stroke-linecap="butt" stroke-linejoin="miter">
	<path stroke="black" d="M943.9,662.4 L943.9,653.4  "/>	<g transform="translate(943.9,684.3)" stroke="none" fill="black" font-family="Helvetica" font-size="12.00" text-anchor="middle">
		<text><tspan font-family="Helvetica"> 440</tspan></text>
	</g>
</g>
<g fill="none" color="black" stroke="currentColor" stroke-width="1.00" stroke-linecap="butt" stroke-linejoin="miter">
	<path stroke="black" d="M1003.9,662.4 L994.9,662.4  "/>	<g transform="translate(1012.2,666.3)" stroke="none" fill="black" font-family="Helvetica" font-size="12.00" text-anchor="start">
		<text><tspan font-family="Helvetica"> 0</tspan></text>
	</g>
</g>
<g fill="none" color="black" stroke="currentColor" stroke-width="1.00" stroke-linecap="butt" stroke-linejoin="miter">
	<path stroke="black" d="M1003.9,594.8 L994.9,594.8  "/>	<g transform="translate(1012.2,598.7)" stroke="none" fill="black" font-family="Helvetica" font-size="12.00" text-anchor="start">
		<text><tspan font-family="Helvetica"> 0.01</tspan></text>
	</g>
</g>
<g fill="none" color="black" stroke="currentColor" stroke-width="1.00" stroke-linecap="butt" stroke-linejoin="miter">
	<path stroke="black" d="M1003.9,527.2 L994.9,527.2  "/>	<g transform="translate(1012.2,531.1)" stroke="none" fill="black" font-family="Helvetica" font-size="12.00" text-anchor="start">
		<text><tspan font-family="Helvetica"> 0.02</tspan></text>
	</g>
</g>
<g fill="none" color="black" stroke="currentColor" stroke-width="1.00" stroke-linecap="butt" stroke-linejoin="miter">
	<path stroke="black" d="M1003.9,459.6 L994.9,459.6  "/>	<g transform="translate(1012.2,463.5)" stroke="none" fill="black" font-family="Helvetica" font-size="12.00" text-anchor="start">
		<text><tspan font-family="Helvetica"> 0.03</tspan></text>
	</g>
</g>
<g fill="none" color="black" stroke="currentColor" stroke-width="1.00" stroke-linecap="butt" stroke-linejoin="miter">
	<path stroke="black" d="M1003.9,392.0 L994.9,392.0  "/>	<g transform="translate(1012.2,395.9)" stroke="none" fill="black" font-family="Helvetica" font-size="12.00" text-anchor="start">
		<text><tspan font-family="Helvetica"> 0.04</tspan></text>
	</g>
</g>
<g fill="none" color="black" stroke="currentColor" stroke-width="1.00" stroke-linecap="butt" stroke-linejoin="miter">
	<path stroke="black" d="M1003.9,324.5 L994.9,324.5  "/>	<g transform="translate(1012.2,328.4)" stroke="none" fill="black" font-family="Helvetica" font-size="12.00" text-anchor="start">
		<text><tspan font-family="Helvetica"> 0.05</tspan></text>
	</g>
</g>
<g fill="none" color="black" stroke="currentColor" stroke-width="1.00" stroke-linecap="butt" stroke-linejoin="miter">
	<path stroke="black" d="M1003.9,256.9 L994.9,256.9  "/>	<g transform="translate(1012.2,260.8)" stroke="none" fill="black" font-family="Helvetica" font-size="12.00" text-anchor="start">
		<text><tspan font-family="Helvetica"> 0.06</tspan></text>
	</g>
</g>
<g fill="none" color="black" stroke="currentColor" stroke-width="1.00" stroke-linecap="butt" stroke-linejoin="miter">
	<path stroke="black" d="M1003.9,189.3 L994.9,189.3  "/>	<g transform="translate(1012.2,193.2)" stroke="none" fill="black" font-family="Helvetica" font-size="12.00" text-anchor="start">
		<text><tspan font-family="Helvetica"> 0.07</tspan></text>
	</g>
</g>
<g fill="none" color="black" stroke="currentColor" stroke-width="1.00" stroke-linecap="butt" stroke-linejoin="miter">
	<path stroke="black" d="M1003.9,121.7 L994.9,121.7  "/>	<g transform="translate(1012.2,125.6)" stroke="none" fill="black" font-family="Helvetica" font-size="12.00" text-anchor="start">
		<text><tspan font-family="Helvetica"> 0.08</tspan></text>
	</g>
</g>
<g fill="none" color="black" stroke="currentColor" stroke-width="1.00" stroke-linecap="butt" stroke-linejoin="miter">
	<path stroke="black" d="M1003.9,54.1 L994.9,54.1  "/>	<g transform="translate(1012.2,58.0)" stroke="none" fill="black" font-family="Helvetica" font-size="12.00" text-anchor="start">
		<text><tspan font-family="Helvetica"> 0.09</tspan></text>
	</g>
</g>
<g fill="none" color="black" stroke="currentColor" stroke-width="1.00" stroke-linecap="butt" stroke-linejoin="miter">
</g>
<g fill="none" color="black" stroke="currentColor" stroke-width="1.00" stroke-linecap="butt" stroke-linejoin="miter">
	<path stroke="black" d="M71.9,54.1 L71.9,662.4 L1003.9,662.4 L1003.9,54.1 L71.9,54.1 Z  "/></g>
<g fill="none" color="black" stroke="currentColor" stroke-width="1.00" stroke-linecap="butt" stroke-linejoin="miter">
	<g transform="translate(16.3,358.3) rotate(270)" stroke="none" fill="black" font-family="Helvetica" font-size="12.00" text-anchor="middle">
		<text><tspan font-family="Helvetica">Iterations</tspan></text>
	</g>
</g>
<g fill="none" color="black" stroke="currentColor" stroke-width="1.00" stroke-linecap="butt" stroke-linejoin="miter">
	<g transform="translate(1082.5,358.3) rotate(270)" stroke="none" fill="black" font-family="Helvetica" font-size="12.00" text-anchor="middle">
		<text><tspan font-family="Helvetica">Density (a.u.)</tspan></text>
	</g>
</g>
<g fill="none" color="black" stroke="currentColor" stroke-width="1.00" stroke-linecap="butt" stroke-linejoin="miter">
	<g transform="translate(537.9,711.3)" stroke="none" fill="black" font-family="Helvetica" font-size="12.00" text-anchor="middle">
		<text><tspan font-family="Helvetica">Average time (us)</tspan></text>
	</g>
</g>
<g fill="none" color="black" stroke="currentColor" stroke-width="1.00" stroke-linecap="butt" stroke-linejoin="miter">
	<g transform="translate(537.9,31.0)" stroke="none" fill="black" font-family="Helvetica" font-size="12.00" text-anchor="middle">
		<text><tspan font-family="Helvetica">Problem 7/p7_tail_recursive/12121212121212121212</tspan></text>
	</g>
</g>
	<g id="gnuplot_plot_1"><title>PDF</title>
<g fill="none" color="black" stroke="currentColor" stroke-width="1.00" stroke-linecap="butt" stroke-linejoin="miter">
	<g transform="translate(1155.4,67.0)" stroke="none" fill="black" font-family="Helvetica" font-size="12.00" text-anchor="start">
		<text><tspan font-family="Helvetica">PDF</tspan></text>
	</g>
</g>
<g fill="none" color="black" stroke="currentColor" stroke-width="1.00" stroke-linecap="butt" stroke-linejoin="miter">
	<g stroke="none" shape-rendering="crispEdges">
		<polygon fill="rgb( 31, 120, 180)" fill-opacity="0.250000" points="1104.9,67.6 1147.1,67.6 1147.1,58.6 1104.9,58.6 "/>
		<polygon fill="rgb( 31, 120, 180)" fill-opacity="0.250000" points="71.9,661.7 73.8,661.6 75.6,661.6 77.5,661.5 79.4,661.3 81.2,661.2 83.1,661.1 85.0,660.9 86.8,660.8 88.7,660.6 90.6,660.4 92.4,660.2 94.3,660.0 96.2,659.7 98.0,659.4 99.9,659.1 101.8,658.8 103.7,658.4 105.5,658.0 107.4,657.6 109.3,657.1 111.1,656.6 113.0,656.0 114.9,655.4 116.7,654.8 118.6,654.1 120.5,653.3 122.3,652.5 124.2,651.7 126.1,650.7 127.9,649.7 129.8,648.6 131.7,647.5 133.5,646.2 135.4,644.9 137.3,643.5 139.1,642.0 141.0,640.4 142.9,638.6 144.7,636.8 146.6,634.9 148.5,632.8 150.3,630.7 152.2,628.4 154.1,626.0 155.9,623.4 157.8,620.7 159.7,617.9 161.6,614.9 163.4,611.7 165.3,608.4 167.2,605.0 169.0,601.4 170.9,597.6 172.8,593.6 174.6,589.5 176.5,585.2 178.4,580.7 180.2,576.1 182.1,571.2 184.0,566.2 185.8,561.0 187.7,555.7 189.6,550.1 191.4,544.4 193.3,538.4 195.2,532.3 197.0,526.1 198.9,519.6 200.8,513.0 202.6,506.2 204.5,499.2 206.4,492.1 208.2,484.9 210.1,477.4 212.0,469.9 213.8,462.2 215.7,454.3 217.6,446.4 219.5,438.3 221.3,430.1 223.2,421.9 225.1,413.5 226.9,405.1 228.8,396.6 230.7,388.0 232.5,379.4 234.4,370.7 236.3,362.0 238.1,353.4 240.0,344.7 241.9,336.0 243.7,327.3 245.6,318.7 247.5,310.1 249.3,301.5 251.2,293.0 253.1,284.6 254.9,276.3 256.8,268.1 258.7,260.0 260.5,252.0 262.4,244.2 264.3,236.5 266.1,229.0 268.0,221.6 269.9,214.4 271.7,207.3 273.6,200.5 275.5,193.8 277.4,187.4 279.2,181.1 281.1,175.1 283.0,169.3 284.8,163.7 286.7,158.3 288.6,153.2 290.4,148.3 292.3,143.7 294.2,139.3 296.0,135.1 297.9,131.2 299.8,127.5 301.6,124.1 303.5,120.9 305.4,117.9 307.2,115.2 309.1,112.8 311.0,110.6 312.8,108.6 314.7,106.8 316.6,105.3 318.4,104.0 320.3,102.9 322.2,102.0 324.0,101.3 325.9,100.9 327.8,100.6 329.6,100.5 331.5,100.6 333.4,100.9 335.3,101.4 337.1,102.1 339.0,102.9 340.9,103.8 342.7,104.9 344.6,106.2 346.5,107.5 348.3,109.1 350.2,110.7 352.1,112.4 353.9,114.3 355.8,116.3 357.7,118.3 359.5,120.5 361.4,122.7 363.3,125.0 365.1,127.4 367.0,129.8 368.9,132.3 370.7,134.9 372.6,137.5 374.5,140.1 376.3,142.8 378.2,145.4 380.1,148.2 381.9,150.9 383.8,153.6 385.7,156.4 387.5,159.2 389.4,161.9 391.3,164.6 393.2,167.4 395.0,170.1 396.9,172.8 398.8,175.5 400.6,178.1 402.5,180.7 404.4,183.3 406.2,185.8 408.1,188.3 410.0,190.8 411.8,193.2 413.7,195.5 415.6,197.9 417.4,200.1 419.3,202.3 421.2,204.5 423.0,206.6 424.9,208.6 426.8,210.6 428.6,212.5 430.5,214.4 432.4,216.2 434.2,218.0 436.1,219.7 438.0,221.4 439.8,223.1 441.7,224.6 443.6,226.2 445.4,227.7 447.3,229.2 449.2,230.6 451.1,232.0 452.9,233.4 454.8,234.7 456.7,236.1 458.5,237.4 460.4,238.7 462.3,240.0 464.1,241.3 466.0,242.6 467.9,244.0 469.7,245.3 471.6,246.7 473.5,248.0 475.3,249.4 477.2,250.9 479.1,252.3 480.9,253.8 482.8,255.4 484.7,257.0 486.5,258.6 488.4,260.3 490.3,262.0 492.1,263.8 494.0,265.7 495.9,267.6 497.7,269.6 499.6,271.7 501.5,273.8 503.3,276.0 505.2,278.3 507.1,280.6 509.0,283.1 510.8,285.5 512.7,288.1 514.6,290.7 516.4,293.4 518.3,296.2 520.2,299.0 522.0,301.9 523.9,304.9 525.8,307.9 527.6,311.0 529.5,314.1 531.4,317.3 533.2,320.6 535.1,323.9 537.0,327.2 538.8,330.6 540.7,334.0 542.6,337.4 544.4,340.9 546.3,344.4 548.2,347.9 550.0,351.5 551.9,355.0 553.8,358.6 555.6,362.2 557.5,365.8 559.4,369.3 561.2,372.9 563.1,376.5 565.0,380.1 566.8,383.6 568.7,387.1 570.6,390.6 572.5,394.1 574.3,397.6 576.2,401.0 578.1,404.4 579.9,407.8 581.8,411.1 583.7,414.4 585.5,417.6 587.4,420.8 589.3,424.0 591.1,427.1 593.0,430.2 594.9,433.2 596.7,436.2 598.6,439.1 600.5,442.0 602.3,444.8 604.2,447.6 606.1,450.3 607.9,453.0 609.8,455.7 611.7,458.3 613.5,460.8 615.4,463.4 617.3,465.8 619.1,468.3 621.0,470.7 622.9,473.1 624.7,475.4 626.6,477.7 628.5,480.0 630.4,482.2 632.2,484.4 634.1,486.7 636.0,488.8 637.8,491.0 639.7,493.2 641.6,495.3 643.4,497.4 645.3,499.6 647.2,501.7 649.0,503.8 650.9,505.9 652.8,508.1 654.6,510.2 656.5,512.3 658.4,514.5 660.2,516.6 662.1,518.8 664.0,520.9 665.8,523.1 667.7,525.3 669.6,527.5 671.4,529.8 673.3,532.0 675.2,534.3 677.0,536.6 678.9,538.8 680.8,541.2 682.6,543.5 684.5,545.8 686.4,548.2 688.3,550.5 690.1,552.9 692.0,555.3 693.9,557.7 695.7,560.1 697.6,562.5 699.5,564.9 701.3,567.3 703.2,569.7 705.1,572.1 706.9,574.5 708.8,576.9 710.7,579.3 712.5,581.6 714.4,584.0 716.3,586.3 718.1,588.6 720.0,590.9 721.9,593.1 723.7,595.3 725.6,597.5 727.5,599.7 729.3,601.8 731.2,603.8 733.1,605.9 734.9,607.9 736.8,609.8 738.7,611.7 740.5,613.5 742.4,615.3 744.3,617.1 746.2,618.8 748.0,620.4 749.9,622.0 751.8,623.5 753.6,625.0 755.5,626.4 757.4,627.7 759.2,629.0 761.1,630.3 763.0,631.4 764.8,632.6 766.7,633.6 768.6,634.6 770.4,635.6 772.3,636.5 774.2,637.4 776.0,638.2 777.9,638.9 779.8,639.6 781.6,640.3 783.5,640.9 785.4,641.4 787.2,641.9 789.1,642.4 791.0,642.9 792.8,643.3 794.7,643.6 796.6,644.0 798.4,644.3 800.3,644.6 802.2,644.8 804.1,645.0 805.9,645.3 807.8,645.4 809.7,645.6 811.5,645.8 813.4,645.9 815.3,646.0 817.1,646.1 819.0,646.2 820.9,646.3 822.7,646.4 824.6,646.5 826.5,646.6 828.3,646.7 830.2,646.8 832.1,646.9 833.9,646.9 835.8,647.0 837.7,647.1 839.5,647.2 841.4,647.3 843.3,647.5 845.1,647.6 847.0,647.7 848.9,647.9 850.7,648.0 852.6,648.2 854.5,648.4 856.3,648.5 858.2,648.7 860.1,648.9 862.0,649.1 863.8,649.3 865.7,649.6 867.6,649.8 869.4,650.0 871.3,650.3 873.2,650.6 875.0,650.8 876.9,651.1 878.8,651.4 880.6,651.6 882.5,651.9 884.4,652.2 886.2,652.5 888.1,652.8 890.0,653.1 891.8,653.4 893.7,653.7 895.6,654.0 897.4,654.3 899.3,654.6 901.2,654.9 903.0,655.1 904.9,655.4 906.8,655.7 908.6,656.0 910.5,656.3 912.4,656.5 914.2,656.8 916.1,657.1 918.0,657.3 919.9,657.6 921.7,657.8 923.6,658.0 925.5,658.3 927.3,658.5 929.2,658.7 931.1,658.9 932.9,659.1 934.8,659.3 936.7,659.5 938.5,659.6 940.4,659.8 942.3,660.0 944.1,660.1 946.0,660.3 947.9,660.4 949.7,660.5 951.6,660.7 953.5,660.8 955.3,660.9 957.2,661.0 959.1,661.1 960.9,661.2 962.8,661.3 964.7,661.4 966.5,661.4 968.4,661.5 970.3,661.6 972.1,661.6 974.0,661.7 975.9,661.8 977.8,661.8 979.6,661.9 981.5,661.9 983.4,662.0 985.2,662.0 987.1,662.0 989.0,662.1 990.8,662.1 992.7,662.1 994.6,662.1 996.4,662.2 998.3,662.2 1000.2,662.2 1002.0,662.2 1003.9,662.2 1003.9,662.4 1002.0,662.4 1000.2,662.4 998.3,662.4 996.4,662.4 994.6,662.4 992.7,662.4 990.8,662.4 989.0,662.4 987.1,662.4 985.2,662.4 983.4,662.4 981.5,662.4 979.6,662.4 977.8,662.4 975.9,662.4 974.0,662.4 972.1,662.4 970.3,662.4 968.4,662.4 966.5,662.4 964.7,662.4 962.8,662.4 960.9,662.4 959.1,662.4 957.2,662.4 955.3,662.4 953.5,662.4 951.6,662.4 949.7,662.4 947.9,662.4 946.0,662.4 944.1,662.4 942.3,662.4 940.4,662.4 938.5,662.4 936.7,662.4 934.8,662.4 932.9,662.4 931.1,662.4 929.2,662.4 927.3,662.4 925.5,662.4 923.6,662.4 921.7,662.4 919.9,662.4 918.0,662.4 916.1,662.4 914.2,662.4 912.4,662.4 910.5,662.4 908.6,662.4 906.8,662.4 904.9,662.4 903.0,662.4 901.2,662.4 899.3,662.4 897.4,662.4 895.6,662.4 893.7,662.4 891.8,662.4 890.0,662.4 888.1,662.4 886.2,662.4 884.4,662.4 882.5,662.4 880.6,662.4 878.8,662.4 876.9,662.4 875.0,662.4 873.2,662.4 871.3,662.4 869.4,662.4 867.6,662.4 865.7,662.4 863.8,662.4 862.0,662.4 860.1,662.4 858.2,662.4 856.3,662.4 854.5,662.4 852.6,662.4 850.7,662.4 848.9,662.4 847.0,662.4 845.1,662.4 843.3,662.4 841.4,662.4 839.5,662.4 837.7,662.4 835.8,662.4 833.9,662.4 832.1,662.4 830.2,662.4 828.3,662.4 826.5,662.4 824.6,662.4 822.7,662.4 820.9,662.4 819.0,662.4 817.1,662.4 815.3,662.4 813.4,662.4 811.5,662.4 809.7,662.4 807.8,662.4 805.9,662.4 804.1,662.4 802.2,662.4 800.3,662.4 798.4,662.4 796.6,662.4 794.7,662.4 792.8,662.4 791.0,662.4 789.1,662.4 787.2,662.4 785.4,662.4 783.5,662.4 781.6,662.4 779.8,662.4 777.9,662.4 776.0,662.4 774.2,662.4 772.3,662.4 770.4,662.4 768.6,662.4 766.7,662.4 764.8,662.4 763.0,662.4 761.1,662.4 759.2,662.4 757.4,662.4 755.5,662.4 753.6,662.4 751.8,662.4 749.9,662.4 748.0,662.4 746.2,662.4 744.3,662.4 742.4,662.4 740.5,662.4 738.7,662.4 736.8,662.4 734.9,662.4 733.1,662.4 731.2,662.4 729.3,662.4 727.5,662.4 725.6,662.4 723.7,662.4 721.9,662.4 720.0,662.4 718.1,662.4 716.3,662.4 714.4,662.4 712.5,662.4 710.7,662.4 708.8,662.4 706.9,662.4 705.1,662.4 703.2,662.4 701.3,662.4 699.5,662.4 697.6,662.4 695.7,662.4 693.9,662.4 692.0,662.4 690.1,662.4 688.3,662.4 686.4,662.4 684.5,662.4 682.6,662.4 680.8,662.4 678.9,662.4 677.0,662.4 675.2,662.4 673.3,662.4 671.4,662.4 669.6,662.4 667.7,662.4 665.8,662.4 664.0,662.4 662.1,662.4 660.2,662.4 658.4,662.4 656.5,662.4 654.6,662.4 652.8,662.4 650.9,662.4 649.0,662.4 647.2,662.4 645.3,662.4 643.4,662.4 641.6,662.4 639.7,662.4 637.8,662.4 636.0,662.4 634.1,662.4 632.2,662.4 630.4,662.4 628.5,662.4 626.6,662.4 624.7,662.4 622.9,662.4 621.0,662.4 619.1,662.4 617.3,662.4 615.4,662.4 613.5,662.4 611.7,662.4 609.8,662.4 607.9,662.4 606.1,662.4 604.2,662.4 602.3,662.4 600.5,662.4 598.6,662.4 596.7,662.4 594.9,662.4 593.0,662.4 591.1,662.4 589.3,662.4 587.4,662.4 585.5,662.4 583.7,662.4 581.8,662.4 579.9,662.4 578.1,662.4 576.2,662.4 574.3,662.4 572.5,662.4 570.6,662.4 568.7,662.4 566.8,662.4 565.0,662.4 563.1,662.4 561.2,662.4 559.4,662.4 557.5,662.4 555.6,662.4 553.8,662.4 551.9,662.4 550.0,662.4 548.2,662.4 546.3,662.4 544.4,662.4 542.6,662.4 540.7,662.4 538.8,662.4 537.0,662.4 535.1,662.4 533.2,662.4 531.4,662.4 529.5,662.4 527.6,662.4 525.8,662.4 523.9,662.4 522.0,662.4 520.2,662.4 518.3,662.4 516.4,662.4 514.6,662.4 512.7,662.4 510.8,662.4 509.0,662.4 507.1,662.4 505.2,662.4 503.3,662.4 501.5,662.4 499.6,662.4 497.7,662.4 495.9,662.4 494.0,662.4 492.1,662.4 490.3,662.4 488.4,662.4 486.5,662.4 484.7,662.4 482.8,662.4 480.9,662.4 479.1,662.4 477.2,662.4 475.3,662.4 473.5,662.4 471.6,662.4 469.7,662.4 467.9,662.4 466.0,662.4 464.1,662.4 462.3,662.4 460.4,662.4 458.5,662.4 456.7,662.4 454.8,662.4 452.9,662.4 451.1,662.4 449.2,662.4 447.3,662.4 445.4,662.4 443.6,662.4 441.7,662.4 439.8,662.4 438.0,662.4 436.1,662.4 434.2,662.4 432.4,662.4 430.5,662.4 428.6,662.4 426.8,662.4 424.9,662.4 423.0,662.4 421.2,662.4 419.3,662.4 417.4,662.4 415.6,662.4 413.7,662.4 411.8,662.4 410.0,662.4 408.1,662.4 406.2,662.4 404.4,662.4 402.5,662.4 400.6,662.4 398.8,662.4 396.9,662.4 395.0,662.4 393.2,662.4 391.3,662.4 389.4,662.4 387.5,662.4 385.7,662.4 383.8,662.4 381.9,662.4 380.1,662.4 378.2,662.4 376.3,662.4 374.5,662.4 372.6,662.4 370.7,662.4 368.9,662.4 367.0,662.4 365.1,662.4 363.3,662.4 361.4,662.4 359.5,662.4 357.7,662.4 355.8,662.4 353.9,662.4 352.1,662.4 350.2,662.4 348.3,662.4 346.5,662.4 344.6,662.4 342.7,662.4 340.9,662.4 339.0,662.4 337.1,662.4 335.3,662.4 333.4,662.4 331.5,662.4 329.6,662.4 327.8,662.4 325.9,662.4 324.0,662.4 322.2,662.4 320.3,662.4 318.4,662.4 316.6,662.4 314.7,662.4 312.8,662.4 311.0,662.4 309.1,662.4 307.2,662.4 305.4,662.4 303.5,662.4 301.6,662.4 299.8,662.4 297.9,662.4 296.0,662.4 294.2,662.4 292.3,662.4 290.4,662.4 288.6,662.4 286.7,662.4 284.8,662.4 283.0,662.4 281.1,662.4 279.2,662.4 277.4,662.4 275.5,662.4 273.6,662.4 271.7,662.4 269.9,662.4 268.0,662.4 266.1,662.4 264.3,662.4 262.4,662.4 260.5,662.4 258.7,662.4 256.8,662.4 254.9,662.4 253.1,662.4 251.2,662.4 249.3,662.4 247.5,662.4 245.6,662.4 243.7,662.4 241.9,662.4 240.0,662.4 238.1,662.4 236.3,662.4 234.4,662.4 232.5,662.4 230.7,662.4 228.8,662.4 226.9,662.4 225.1,662.4 223.2,662.4 221.3,662.4 219.5,662.4 217.6,662.4 215.7,662.4 213.8,662.4 212.0,662.4 210.1,662.4 208.2,662.4 206.4,662.4 204.5,662.4 202.6,662.4 200.8,662.4 198.9,662.4 197.0,662.4 195.2,662.4 193.3,662.4 191.4,662.4 189.6,662.4 187.7,662.4 185.8,662.4 184.0,662.4 182.1,662.4 180.2,662.4 178.4,662.4 176.5,662.4 174.6,662.4 172.8,662.4 170.9,662.4 169.0,662.4 167.2,662.4 165.3,662.4 163.4,662.4 161.6,662.4 159.7,662.4 157.8,662.4 155.9,662.4 154.1,662.4 152.2,662.4 150.3,662.4 148.5,662.4 146.6,662.4 144.7,662.4 142.9,662.4 141.0,662.4 139.1,662.4 137.3,662.4 135.4,662.4 133.5,662.4 131.7,662.4 129.8,662.4 127.9,662.4 126.1,662.4 124.2,662.4 122.3,662.4 120.5,662.4 118.6,662.4 116.7,662.4 114.9,662.4 113.0,662.4 111.1,662.4 109.3,662.4 107.4,662.4 105.5,662.4 103.7,662.4 101.8,662.4 99.9,662.4 98.0,662.4 96.2,662.4 94.3,662.4 92.4,662.4 90.6,662.4 88.7,662.4 86.8,662.4 85.0,662.4 83.1,662.4 81.2,662.4 79.4,662.4 77.5,662.4 75.6,662.4 73.8,662.4 71.9,662.4 "/>
	</g>
</g>
	</g>
	<g id="gnuplot_plot_2"><title>Mean</title>
<g fill="none" color="white" stroke="rgb( 31, 120, 180)" stroke-width="2.00" stroke-linecap="butt" stroke-linejoin="miter">
</g>
<g fill="none" color="black" stroke="currentColor" stroke-width="2.00" stroke-linecap="butt" stroke-linejoin="miter">
	<g transform="translate(1155.4,85.0)" stroke="none" fill="black" font-family="Helvetica" font-size="12.00" text-anchor="start">
		<text><tspan font-family="Helvetica">Mean</tspan></text>
	</g>
</g>
<g fill="none" color="black" stroke="currentColor" stroke-width="2.00" stroke-linecap="butt" stroke-linejoin="miter">
	<path stroke="rgb( 31, 120, 180)" d="M1104.9,81.1 L1147.1,81.1 M420.7,662.4 L420.7,54.1  "/></g>
	</g>
	<g id="gnuplot_plot_3"><title>"Clean" sample</title>
<g fill="none" color="white" stroke="rgb( 31, 120, 180)" stroke-width="1.00" stroke-linecap="butt" stroke-linejoin="miter">
</g>
<g fill="none" color="black" stroke="currentColor" stroke-width="1.00" stroke-linecap="butt" stroke-linejoin="miter">
	<g transform="translate(1155.4,103.0)" stroke="none" fill="black" font-family="Helvetica" font-size="12.00" text-anchor="start">
		<text><tspan font-family="Helvetica">"Clean" sample</tspan></text>
	</g>
</g>
<g fill="none" color="black" stroke="currentColor" stroke-width="1.00" stroke-linecap="butt" stroke-linejoin="miter">
	<use xlink:href="#gpPt6" transform="translate(262.1,656.3) scale(3.38)" color="rgb( 31, 120, 180)"/>
	<use xlink:href="#gpPt6" transform="translate(244.3,650.2) scale(3.38)" color="rgb( 31, 120, 180)"/>
	<use xlink:href="#gpPt6" transform="translate(235.2,644.2) scale(3.38)" color="rgb( 31, 120, 180)"/>
	<use xlink:href="#gpPt6" transform="translate(244.0,638.1) scale(3.38)" color="rgb( 31, 120, 180)"/>
	<use xlink:href="#gpPt6" transform="translate(298.2,632.0) scale(3.38)" color="rgb( 31, 120, 180)"/>
	<use xlink:href="#gpPt6" transform="translate(267.1,625.9) scale(3.38)" color="rgb( 31, 120, 180)"/>
	<use xlink:href="#gpPt6" transform="translate(264.9,619.8) scale(3.38)" color="rgb( 31, 120, 180)"/>
	<use xlink:href="#gpPt6" transform="translate(282.3,613.7) scale(3.38)" color="rgb( 31, 120, 180)"/>
	<use xlink:href="#gpPt6" transform="translate(289.4,607.7) scale(3.38)" color="rgb( 31, 120, 180)"/>
	<use xlink:href="#gpPt6" transform="translate(282.9,601.6) scale(3.38)" color="rgb( 31, 120, 180)"/>
	<use xlink:href="#gpPt6" transform="translate(254.0,595.5) scale(3.38)" color="rgb( 31, 120, 180)"/>
	<use xlink:href="#gpPt6" transform="translate(264.8,589.4) scale(3.38)" color="rgb( 31, 120, 180)"/>
	<use xlink:href="#gpPt6" transform="translate(527.8,583.3) scale(3.38)" color="rgb( 31, 120, 180)"/>
	<use xlink:href="#gpPt6" transform="translate(394.2,577.2) scale(3.38)" color="rgb( 31, 120, 180)"/>
	<use xlink:href="#gpPt6" transform="translate(251.7,571.2) scale(3.38)" color="rgb( 31, 120, 180)"/>
	<use xlink:href="#gpPt6" transform="translate(329.4,565.1) scale(3.38)" color="rgb( 31, 120, 180)"/>
	<use xlink:href="#gpPt6" transform="translate(319.3,559.0) scale(3.38)" color="rgb( 31, 120, 180)"/>
	<use xlink:href="#gpPt6" transform="translate(363.5,552.9) scale(3.38)" color="rgb( 31, 120, 180)"/>
	<use xlink:href="#gpPt6" transform="translate(500.8,546.8) scale(3.38)" color="rgb( 31, 120, 180)"/>
	<use xlink:href="#gpPt6" transform="translate(515.0,540.7) scale(3.38)" color="rgb( 31, 120, 180)"/>
	<use xlink:href="#gpPt6" transform="translate(625.7,534.7) scale(3.38)" color="rgb( 31, 120, 180)"/>
	<use xlink:href="#gpPt6" transform="translate(497.4,528.6) scale(3.38)" color="rgb( 31, 120, 180)"/>
	<use xlink:href="#gpPt6" transform="translate(478.7,522.5) scale(3.38)" color="rgb( 31, 120, 180)"/>
	<use xlink:href="#gpPt6" transform="translate(501.1,516.4) scale(3.38)" color="rgb( 31, 120, 180)"/>
	<use xlink:href="#gpPt6" transform="translate(393.3,510.3) scale(3.38)" color="rgb( 31, 120, 180)"/>
	<use xlink:href="#gpPt6" transform="translate(371.0,504.2) scale(3.38)" color="rgb( 31, 120, 180)"/>
	<use xlink:href="#gpPt6" transform="translate(389.3,498.2) scale(3.38)" color="rgb( 31, 120, 180)"/>
	<use xlink:href="#gpPt6" transform="translate(595.9,492.1) scale(3.38)" color="rgb( 31, 120, 180)"/>
	<use xlink:href="#gpPt6" transform="translate(483.2,486.0) scale(3.38)" color="rgb( 31, 120, 180)"/>
	<use xlink:href="#gpPt6" transform="translate(352.0,479.9) scale(3.38)" color="rgb( 31, 120, 180)"/>
	<use xlink:href="#gpPt6" transform="translate(275.3,473.8) scale(3.38)" color="rgb( 31, 120, 180)"/>
	<use xlink:href="#gpPt6" transform="translate(650.1,467.7) scale(3.38)" color="rgb( 31, 120, 180)"/>
	<use xlink:href="#gpPt6" transform="translate(351.2,461.7) scale(3.38)" color="rgb( 31, 120, 180)"/>
	<use xlink:href="#gpPt6" transform="translate(404.1,455.6) scale(3.38)" color="rgb( 31, 120, 180)"/>
	<use xlink:href="#gpPt6" transform="translate(571.5,449.5) scale(3.38)" color="rgb( 31, 120, 180)"/>
	<use xlink:href="#gpPt6" transform="translate(497.9,443.4) scale(3.38)" color="rgb( 31, 120, 180)"/>
	<use xlink:href="#gpPt6" transform="translate(561.2,437.3) scale(3.38)" color="rgb( 31, 120, 180)"/>
	<use xlink:href="#gpPt6" transform="translate(416.6,431.2) scale(3.38)" color="rgb( 31, 120, 180)"/>
	<use xlink:href="#gpPt6" transform="translate(436.4,425.2) scale(3.38)" color="rgb( 31, 120, 180)"/>
	<use xlink:href="#gpPt6" transform="translate(429.4,419.1) scale(3.38)" color="rgb( 31, 120, 180)"/>
	<use xlink:href="#gpPt6" transform="translate(365.5,413.0) scale(3.38)" color="rgb( 31, 120, 180)"/>
	<use xlink:href="#gpPt6" transform="translate(373.3,406.9) scale(3.38)" color="rgb( 31, 120, 180)"/>
	<use xlink:href="#gpPt6" transform="translate(322.6,400.8) scale(3.38)" color="rgb( 31, 120, 180)"/>
	<use xlink:href="#gpPt6" transform="translate(316.2,394.7) scale(3.38)" color="rgb( 31, 120, 180)"/>
	<use xlink:href="#gpPt6" transform="translate(398.2,388.7) scale(3.38)" color="rgb( 31, 120, 180)"/>
	<use xlink:href="#gpPt6" transform="translate(545.8,382.6) scale(3.38)" color="rgb( 31, 120, 180)"/>
	<use xlink:href="#gpPt6" transform="translate(461.4,376.5) scale(3.38)" color="rgb( 31, 120, 180)"/>
	<use xlink:href="#gpPt6" transform="translate(314.7,370.4) scale(3.38)" color="rgb( 31, 120, 180)"/>
	<use xlink:href="#gpPt6" transform="translate(259.0,364.3) scale(3.38)" color="rgb( 31, 120, 180)"/>
	<use xlink:href="#gpPt6" transform="translate(296.7,358.2) scale(3.38)" color="rgb( 31, 120, 180)"/>
	<use xlink:href="#gpPt6" transform="translate(434.6,352.2) scale(3.38)" color="rgb( 31, 120, 180)"/>
	<use xlink:href="#gpPt6" transform="translate(394.8,346.1) scale(3.38)" color="rgb( 31, 120, 180)"/>
	<use xlink:href="#gpPt6" transform="translate(313.7,340.0) scale(3.38)" color="rgb( 31, 120, 180)"/>
	<use xlink:href="#gpPt6" transform="translate(621.8,333.9) scale(3.38)" color="rgb( 31, 120, 180)"/>
	<use xlink:href="#gpPt6" transform="translate(496.0,327.8) scale(3.38)" color="rgb( 31, 120, 180)"/>
	<use xlink:href="#gpPt6" transform="translate(375.9,321.8) scale(3.38)" color="rgb( 31, 120, 180)"/>
	<use xlink:href="#gpPt6" transform="translate(287.5,315.7) scale(3.38)" color="rgb( 31, 120, 180)"/>
	<use xlink:href="#gpPt6" transform="translate(321.9,309.6) scale(3.38)" color="rgb( 31, 120, 180)"/>
	<use xlink:href="#gpPt6" transform="translate(449.2,303.5) scale(3.38)" color="rgb( 31, 120, 180)"/>
	<use xlink:href="#gpPt6" transform="translate(420.8,297.4) scale(3.38)" color="rgb( 31, 120, 180)"/>
	<use xlink:href="#gpPt6" transform="translate(544.8,291.3) scale(3.38)" color="rgb( 31, 120, 180)"/>
	<use xlink:href="#gpPt6" transform="translate(700.7,285.3) scale(3.38)" color="rgb( 31, 120, 180)"/>
	<use xlink:href="#gpPt6" transform="translate(586.6,279.2) scale(3.38)" color="rgb( 31, 120, 180)"/>
	<use xlink:href="#gpPt6" transform="translate(428.7,273.1) scale(3.38)" color="rgb( 31, 120, 180)"/>
	<use xlink:href="#gpPt6" transform="translate(469.6,267.0) scale(3.38)" color="rgb( 31, 120, 180)"/>
	<use xlink:href="#gpPt6" transform="translate(371.5,260.9) scale(3.38)" color="rgb( 31, 120, 180)"/>
	<use xlink:href="#gpPt6" transform="translate(361.5,254.8) scale(3.38)" color="rgb( 31, 120, 180)"/>
	<use xlink:href="#gpPt6" transform="translate(565.1,248.8) scale(3.38)" color="rgb( 31, 120, 180)"/>
	<use xlink:href="#gpPt6" transform="translate(470.1,242.7) scale(3.38)" color="rgb( 31, 120, 180)"/>
	<use xlink:href="#gpPt6" transform="translate(327.6,236.6) scale(3.38)" color="rgb( 31, 120, 180)"/>
	<use xlink:href="#gpPt6" transform="translate(323.3,230.5) scale(3.38)" color="rgb( 31, 120, 180)"/>
	<use xlink:href="#gpPt6" transform="translate(295.4,224.4) scale(3.38)" color="rgb( 31, 120, 180)"/>
	<use xlink:href="#gpPt6" transform="translate(325.8,218.3) scale(3.38)" color="rgb( 31, 120, 180)"/>
	<use xlink:href="#gpPt6" transform="translate(533.3,212.3) scale(3.38)" color="rgb( 31, 120, 180)"/>
	<use xlink:href="#gpPt6" transform="translate(499.5,206.2) scale(3.38)" color="rgb( 31, 120, 180)"/>
	<use xlink:href="#gpPt6" transform="translate(486.7,200.1) scale(3.38)" color="rgb( 31, 120, 180)"/>
	<use xlink:href="#gpPt6" transform="translate(357.3,194.0) scale(3.38)" color="rgb( 31, 120, 180)"/>
	<use xlink:href="#gpPt6" transform="translate(282.2,187.9) scale(3.38)" color="rgb( 31, 120, 180)"/>
	<use xlink:href="#gpPt6" transform="translate(369.0,181.8) scale(3.38)" color="rgb( 31, 120, 180)"/>
	<use xlink:href="#gpPt6" transform="translate(526.4,175.8) scale(3.38)" color="rgb( 31, 120, 180)"/>
	<use xlink:href="#gpPt6" transform="translate(319.1,169.7) scale(3.38)" color="rgb( 31, 120, 180)"/>
	<use xlink:href="#gpPt6" transform="translate(281.5,163.6) scale(3.38)" color="rgb( 31, 120, 180)"/>
	<use xlink:href="#gpPt6" transform="translate(323.6,157.5) scale(3.38)" color="rgb( 31, 120, 180)"/>
	<use xlink:href="#gpPt6" transform="translate(330.0,151.4) scale(3.38)" color="rgb( 31, 120, 180)"/>
	<use xlink:href="#gpPt6" transform="translate(553.4,145.3) scale(3.38)" color="rgb( 31, 120, 180)"/>
	<use xlink:href="#gpPt6" transform="translate(624.1,139.3) scale(3.38)" color="rgb( 31, 120, 180)"/>
	<use xlink:href="#gpPt6" transform="translate(566.9,133.2) scale(3.38)" color="rgb( 31, 120, 180)"/>
	<use xlink:href="#gpPt6" transform="translate(668.4,127.1) scale(3.38)" color="rgb( 31, 120, 180)"/>
	<use xlink:href="#gpPt6" transform="translate(670.8,121.0) scale(3.38)" color="rgb( 31, 120, 180)"/>
	<use xlink:href="#gpPt6" transform="translate(669.6,108.8) scale(3.38)" color="rgb( 31, 120, 180)"/>
	<use xlink:href="#gpPt6" transform="translate(498.1,102.8) scale(3.38)" color="rgb( 31, 120, 180)"/>
	<use xlink:href="#gpPt6" transform="translate(442.0,96.7) scale(3.38)" color="rgb( 31, 120, 180)"/>
	<use xlink:href="#gpPt6" transform="translate(688.7,90.6) scale(3.38)" color="rgb( 31, 120, 180)"/>
	<use xlink:href="#gpPt6" transform="translate(395.6,84.5) scale(3.38)" color="rgb( 31, 120, 180)"/>
	<use xlink:href="#gpPt6" transform="translate(294.2,78.4) scale(3.38)" color="rgb( 31, 120, 180)"/>
	<use xlink:href="#gpPt6" transform="translate(292.8,72.3) scale(3.38)" color="rgb( 31, 120, 180)"/>
	<use xlink:href="#gpPt6" transform="translate(385.2,66.3) scale(3.38)" color="rgb( 31, 120, 180)"/>
	<use xlink:href="#gpPt6" transform="translate(488.9,60.2) scale(3.38)" color="rgb( 31, 120, 180)"/>
	<use xlink:href="#gpPt6" transform="translate(466.7,54.1) scale(3.38)" color="rgb( 31, 120, 180)"/>
	<use xlink:href="#gpPt6" transform="translate(1126.0,99.1) scale(3.38)" color="rgb( 31, 120, 180)"/>
</g>
	</g>
	<g id="gnuplot_plot_4"><title>Mild outliers</title>
<g fill="none" color="black" stroke="currentColor" stroke-width="1.00" stroke-linecap="butt" stroke-linejoin="miter">
	<g transform="translate(1155.4,121.0)" stroke="none" fill="black" font-family="Helvetica" font-size="12.00" text-anchor="start">
		<text><tspan font-family="Helvetica">Mild outliers</tspan></text>
	</g>
</g>
<g fill="none" color="black" stroke="currentColor" stroke-width="1.00" stroke-linecap="butt" stroke-linejoin="miter">
	<use xlink:href="#gpPt6" transform="translate(840.6,114.9) scale(3.38)" color="rgb(255, 127,   0)"/>
	<use xlink:href="#gpPt6" transform="translate(1126.0,117.1) scale(3.38)" color="rgb(255, 127,   0)"/>
</g>
	</g>
	<g id="gnuplot_plot_5"><title>gnuplot_plot_5</title>
<g fill="none" color="white" stroke="rgb(255, 127,   0)" stroke-width="2.00" stroke-linecap="butt" stroke-linejoin="miter">
</g>
<g fill="none" color="black" stroke="currentColor" stroke-width="2.00" stroke-linecap="butt" stroke-linejoin="miter">
</g>
	</g>
	<g id="gnuplot_plot_6"><title>gnuplot_plot_6</title>
<g fill="none" color="black" stroke="currentColor" stroke-width="2.00" stroke-linecap="butt" stroke-linejoin="miter">
	<path stroke="rgb(255, 127,   0)" d="M772.1,662.4 L772.1,54.1  "/></g>
	</g>
	<g id="gnuplot_plot_7"><title>gnuplot_plot_7</title>
<g fill="none" color="black" stroke="currentColor" stroke-width="2.00" stroke-linecap="butt" stroke-linejoin="miter">
</g>
	</g>
	<g id="gnuplot_plot_8"><title>gnuplot_plot_8</title>
<g fill="none" color="black" stroke="currentColor" stroke-width="2.00" stroke-linecap="butt" stroke-linejoin="miter">
</g>
	</g>
<g fill="none" color="black" stroke="currentColor" stroke-width="2.00" stroke-linecap="butt" stroke-linejoin="miter">
</g>
<g fill="none" color="black" stroke="black" stroke-width="1.00" stroke-linecap="butt" stroke-linejoin="miter">
</g>
<g fill="none" color="black" stroke="currentColor" stroke-width="1.00" stroke-linecap="butt" stroke-linejoin="miter">
	<path stroke="black" d="M71.9,54.1 L71.9,662.4 L1003.9,662.4 L1003.9,54.1 L71.9,54.1 Z  "/></g>
<g fill="none" color="black" stroke="currentColor" stroke-width="1.00" stroke-linecap="butt" stroke-linejoin="miter">
</g>
</g>
</svg>