<?xml version="1.0" encoding="UTF-8" standalone="no"?>
<svg viewBox="0 0 1280 720" xmlns="http://www.w3.org/2000/svg" xmlns:xlink="http://www.w3.org/1999/xlink">

<title>Gnuplot</title>
<desc>Produced by GNUPLOT 5.2 patchlevel 2 </desc>

<g id="gnuplot_canvas">

<rect x="0" y="0" width="1280" height="720" fill="none"/>
<defs>

	<circle id="gpDot" r="0.5" stroke-width="0.5"/>
	<path id="gpPt0" stroke-width="0.222" stroke="currentColor" d="M-1,0 h2 M0,-1 v2"/>
	<path id="gpPt1" stroke-width="0.222" stroke="currentColor" d="M-1,-1 L1,1 M1,-1 L-1,1"/>
	<path id="gpPt2" stroke-width="0.222" stroke="currentColor" d="M-1,0 L1,0 M0,-1 L0,1 M-1,-1 L1,1 M-1,1 L1,-1"/>
	<rect id="gpPt3" stroke-width="0.222" stroke="currentColor" x="-1" y="-1" width="2" height="2"/>
	<rect id="gpPt4" stroke-width="0.222" stroke="currentColor" fill="currentColor" x="-1" y="-1" width="2" height="2"/>
	<circle id="gpPt5" stroke-width="0.222" stroke="currentColor" cx="0" cy="0" r="1"/>
	<use xlink:href="#gpPt5" id="gpPt6" fill="currentColor" stroke="none"/>
	<path id="gpPt7" stroke-width="0.222" stroke="currentColor" d="M0,-1.33 L-1.33,0.67 L1.33,0.67 z"/>
	<use xlink:href="#gpPt7" id="gpPt8" fill="currentColor" stroke="none"/>
	<use xlink:href="#gpPt7" id="gpPt9" stroke="currentColor" transform="rotate(180)"/>
	<use xlink:href="#gpPt9" id="gpPt10" fill="currentColor" stroke="none"/>
	<use xlink:href="#gpPt3" id="gpPt11" stroke="currentColor" transform="rotate(45)"/>
	<use xlink:href="#gpPt11" id="gpPt12" fill="currentColor" stroke="none"/>
	<path id="gpPt13" stroke-width="0.222" stroke="currentColor" d="M0,1.330 L1.265,0.411 L0.782,-1.067 L-0.782,-1.076 L-1.265,0.411 z"/>
	<use xlink:href="#gpPt13" id="gpPt14" fill="currentColor" stroke="none"/>
	<filter id="textbox" filterUnits="objectBoundingBox" x="0" y="0" height="1" width="1">
	  <feFlood flood-color="white" flood-opacity="1" result="bgnd"/>
	  <feComposite in="SourceGraphic" in2="bgnd" operator="atop"/>
	</filter>
	<filter id="greybox" filterUnits="objectBoundingBox" x="0" y="0" height="1" width="1">
	  <feFlood flood-color="lightgrey" flood-opacity="1" result="grey"/>
	  <feComposite in="SourceGraphic" in2="grey" operator="atop"/>
	</filter>
</defs>
<g fill="none" color="white" stroke="currentColor" stroke-width="1.00" stroke-linecap="butt" stroke-linejoin="miter">
</g>
<g fill="none" color="black" stroke="currentColor" stroke-width="1.00" stroke-linecap="butt" stroke-linejoin="miter">
	<path stroke="black" d="M63.6,662.4 L72.6,662.4  "/>	<g transform="translate(55.3,666.3)" stroke="none" fill="black" font-family="Helvetica" font-size="12.00" text-anchor="end">
		<text><tspan font-family="Helvetica"> 0</tspan></text>
	</g>
</g>
<g fill="none" color="black" stroke="currentColor" stroke-width="1.00" stroke-linecap="butt" stroke-linejoin="miter">
	<path stroke="black" d="M63.6,522.2 L72.6,522.2  "/>	<g transform="translate(55.3,526.1)" stroke="none" fill="black" font-family="Helvetica" font-size="12.00" text-anchor="end">
		<text><tspan font-family="Helvetica"> 5</tspan></text>
	</g>
</g>
<g fill="none" color="black" stroke="currentColor" stroke-width="1.00" stroke-linecap="butt" stroke-linejoin="miter">
	<path stroke="black" d="M63.6,382.1 L72.6,382.1  "/>	<g transform="translate(55.3,386.0)" stroke="none" fill="black" font-family="Helvetica" font-size="12.00" text-anchor="end">
		<text><tspan font-family="Helvetica"> 10</tspan></text>
	</g>
</g>
<g fill="none" color="black" stroke="currentColor" stroke-width="1.00" stroke-linecap="butt" stroke-linejoin="miter">
	<path stroke="black" d="M63.6,241.9 L72.6,241.9  "/>	<g transform="translate(55.3,245.8)" stroke="none" fill="black" font-family="Helvetica" font-size="12.00" text-anchor="end">
		<text><tspan font-family="Helvetica"> 15</tspan></text>
	</g>
</g>
<g fill="none" color="black" stroke="currentColor" stroke-width="1.00" stroke-linecap="butt" stroke-linejoin="miter">
	<path stroke="black" d="M63.6,101.8 L72.6,101.8  "/>	<g transform="translate(55.3,105.7)" stroke="none" fill="black" font-family="Helvetica" font-size="12.00" text-anchor="end">
		<text><tspan font-family="Helvetica"> 20</tspan></text>
	</g>
</g>
<g fill="none" color="black" stroke="currentColor" stroke-width="1.00" stroke-linecap="butt" stroke-linejoin="miter">
	<path stroke="black" d="M85.1,662.4 L85.1,653.4  "/>	<g transform="translate(85.1,684.3)" stroke="none" fill="black" font-family="Helvetica" font-size="12.00" text-anchor="middle">
		<text><tspan font-family="Helvetica"> 4.5</tspan></text>
	</g>
</g>
<g fill="none" color="black" stroke="currentColor" stroke-width="1.00" stroke-linecap="butt" stroke-linejoin="miter">
	<path stroke="black" d="M257.8,662.4 L257.8,653.4  "/>	<g transform="translate(257.8,684.3)" stroke="none" fill="black" font-family="Helvetica" font-size="12.00" text-anchor="middle">
		<text><tspan font-family="Helvetica"> 4.55</tspan></text>
	</g>
</g>
<g fill="none" color="black" stroke="currentColor" stroke-width="1.00" stroke-linecap="butt" stroke-linejoin="miter">
	<path stroke="black" d="M430.6,662.4 L430.6,653.4  "/>	<g transform="translate(430.6,684.3)" stroke="none" fill="black" font-family="Helvetica" font-size="12.00" text-anchor="middle">
		<text><tspan font-family="Helvetica"> 4.6</tspan></text>
	</g>
</g>
<g fill="none" color="black" stroke="currentColor" stroke-width="1.00" stroke-linecap="butt" stroke-linejoin="miter">
	<path stroke="black" d="M603.4,662.4 L603.4,653.4  "/>	<g transform="translate(603.4,684.3)" stroke="none" fill="black" font-family="Helvetica" font-size="12.00" text-anchor="middle">
		<text><tspan font-family="Helvetica"> 4.65</tspan></text>
	</g>
</g>
<g fill="none" color="black" stroke="currentColor" stroke-width="1.00" stroke-linecap="butt" stroke-linejoin="miter">
	<path stroke="black" d="M776.1,662.4 L776.1,653.4  "/>	<g transform="translate(776.1,684.3)" stroke="none" fill="black" font-family="Helvetica" font-size="12.00" text-anchor="middle">
		<text><tspan font-family="Helvetica"> 4.7</tspan></text>
	</g>
</g>
<g fill="none" color="black" stroke="currentColor" stroke-width="1.00" stroke-linecap="butt" stroke-linejoin="miter">
	<path stroke="black" d="M948.9,662.4 L948.9,653.4  "/>	<g transform="translate(948.9,684.3)" stroke="none" fill="black" font-family="Helvetica" font-size="12.00" text-anchor="middle">
		<text><tspan font-family="Helvetica"> 4.75</tspan></text>
	</g>
</g>
<g fill="none" color="black" stroke="currentColor" stroke-width="1.00" stroke-linecap="butt" stroke-linejoin="miter">
	<path stroke="black" d="M1020.5,662.4 L1011.5,662.4  "/>	<g transform="translate(1028.8,666.3)" stroke="none" fill="black" font-family="Helvetica" font-size="12.00" text-anchor="start">
		<text><tspan font-family="Helvetica"> 0</tspan></text>
	</g>
</g>
<g fill="none" color="black" stroke="currentColor" stroke-width="1.00" stroke-linecap="butt" stroke-linejoin="miter">
	<path stroke="black" d="M1020.5,575.5 L1011.5,575.5  "/>	<g transform="translate(1028.8,579.4)" stroke="none" fill="black" font-family="Helvetica" font-size="12.00" text-anchor="start">
		<text><tspan font-family="Helvetica"> 2</tspan></text>
	</g>
</g>
<g fill="none" color="black" stroke="currentColor" stroke-width="1.00" stroke-linecap="butt" stroke-linejoin="miter">
	<path stroke="black" d="M1020.5,488.6 L1011.5,488.6  "/>	<g transform="translate(1028.8,492.5)" stroke="none" fill="black" font-family="Helvetica" font-size="12.00" text-anchor="start">
		<text><tspan font-family="Helvetica"> 4</tspan></text>
	</g>
</g>
<g fill="none" color="black" stroke="currentColor" stroke-width="1.00" stroke-linecap="butt" stroke-linejoin="miter">
	<path stroke="black" d="M1020.5,401.7 L1011.5,401.7  "/>	<g transform="translate(1028.8,405.6)" stroke="none" fill="black" font-family="Helvetica" font-size="12.00" text-anchor="start">
		<text><tspan font-family="Helvetica"> 6</tspan></text>
	</g>
</g>
<g fill="none" color="black" stroke="currentColor" stroke-width="1.00" stroke-linecap="butt" stroke-linejoin="miter">
	<path stroke="black" d="M1020.5,314.8 L1011.5,314.8  "/>	<g transform="translate(1028.8,318.7)" stroke="none" fill="black" font-family="Helvetica" font-size="12.00" text-anchor="start">
		<text><tspan font-family="Helvetica"> 8</tspan></text>
	</g>
</g>
<g fill="none" color="black" stroke="currentColor" stroke-width="1.00" stroke-linecap="butt" stroke-linejoin="miter">
	<path stroke="black" d="M1020.5,227.9 L1011.5,227.9  "/>	<g transform="translate(1028.8,231.8)" stroke="none" fill="black" font-family="Helvetica" font-size="12.00" text-anchor="start">
		<text><tspan font-family="Helvetica"> 10</tspan></text>
	</g>
</g>
<g fill="none" color="black" stroke="currentColor" stroke-width="1.00" stroke-linecap="butt" stroke-linejoin="miter">
	<path stroke="black" d="M1020.5,141.0 L1011.5,141.0  "/>	<g transform="translate(1028.8,144.9)" stroke="none" fill="black" font-family="Helvetica" font-size="12.00" text-anchor="start">
		<text><tspan font-family="Helvetica"> 12</tspan></text>
	</g>
</g>
<g fill="none" color="black" stroke="currentColor" stroke-width="1.00" stroke-linecap="butt" stroke-linejoin="miter">
	<path stroke="black" d="M1020.5,54.1 L1011.5,54.1  "/>	<g transform="translate(1028.8,58.0)" stroke="none" fill="black" font-family="Helvetica" font-size="12.00" text-anchor="start">
		<text><tspan font-family="Helvetica"> 14</tspan></text>
	</g>
</g>
<g fill="none" color="black" stroke="currentColor" stroke-width="1.00" stroke-linecap="butt" stroke-linejoin="miter">
</g>
<g fill="none" color="black" stroke="currentColor" stroke-width="1.00" stroke-linecap="butt" stroke-linejoin="miter">
	<path stroke="black" d="M63.6,54.1 L63.6,662.4 L1020.5,662.4 L1020.5,54.1 L63.6,54.1 Z  "/></g>
<g fill="none" color="black" stroke="currentColor" stroke-width="1.00" stroke-linecap="butt" stroke-linejoin="miter">
	<g transform="translate(16.3,358.3) rotate(270)" stroke="none" fill="black" font-family="Helvetica" font-size="12.00" text-anchor="middle">
		<text><tspan font-family="Helvetica">Iterations (x 10</tspan><tspan font-family="Helvetica" font-size="9.6" dy="-6.00px">3</tspan><tspan font-family="Helvetica" font-size="12.0" dy="6.00px">)</tspan></text>
	</g>
</g>
<g fill="none" color="black" stroke="currentColor" stroke-width="1.00" stroke-linecap="butt" stroke-linejoin="miter">
	<g transform="translate(1082.5,358.3) rotate(270)" stroke="none" fill="black" font-family="Helvetica" font-size="12.00" text-anchor="middle">
		<text><tspan font-family="Helvetica">Density (a.u.)</tspan></text>
	</g>
</g>
<g fill="none" color="black" stroke="currentColor" stroke-width="1.00" stroke-linecap="butt" stroke-linejoin="miter">
	<g transform="translate(542.0,711.3)" stroke="none" fill="black" font-family="Helvetica" font-size="12.00" text-anchor="middle">
		<text><tspan font-family="Helvetica">Average time (us)</tspan></text>
	</g>
</g>
<g fill="none" color="black" stroke="currentColor" stroke-width="1.00" stroke-linecap="butt" stroke-linejoin="miter">
	<g transform="translate(542.0,31.0)" stroke="none" fill="black" font-family="Helvetica" font-size="12.00" text-anchor="middle">
		<text><tspan font-family="Helvetica">Problem 7/p7/124782193651078432562974</tspan></text>
	</g>
</g>
	<g id="gnuplot_plot_1"><title>PDF</title>
<g fill="none" color="black" stroke="currentColor" stroke-width="1.00" stroke-linecap="butt" stroke-linejoin="miter">
	<g transform="translate(1155.4,67.0)" stroke="none" fill="black" font-family="Helvetica" font-size="12.00" text-anchor="start">
		<text><tspan font-family="Helvetica">PDF</tspan></text>
	</g>
</g>
<g fill="none" color="black" stroke="currentColor" stroke-width="1.00" stroke-linecap="butt" stroke-linejoin="miter">
	<g stroke="none" shape-rendering="crispEdges">
		<polygon fill="rgb( 31, 120, 180)" fill-opacity="0.250000" points="1104.9,67.6 1147.1,67.6 1147.1,58.6 1104.9,58.6 "/>
		<polygon fill="rgb( 31, 120, 180)" fill-opacity="0.250000" points="63.6,660.1 65.5,659.9 67.4,659.6 69.4,659.3 71.3,659.0 73.2,658.6 75.1,658.2 77.0,657.8 78.9,657.4 80.9,656.9 82.8,656.3 84.7,655.7 86.6,655.1 88.5,654.4 90.4,653.6 92.4,652.8 94.3,651.9 96.2,650.9 98.1,649.9 100.0,648.8 102.0,647.6 103.9,646.3 105.8,644.9 107.7,643.5 109.6,641.9 111.5,640.2 113.5,638.4 115.4,636.4 117.3,634.4 119.2,632.2 121.1,629.8 123.0,627.3 125.0,624.7 126.9,621.9 128.8,618.9 130.7,615.8 132.6,612.4 134.6,608.9 136.5,605.3 138.4,601.4 140.3,597.3 142.2,593.0 144.1,588.5 146.1,583.7 148.0,578.8 149.9,573.6 151.8,568.2 153.7,562.6 155.6,556.7 157.6,550.6 159.5,544.3 161.4,537.7 163.3,530.9 165.2,523.8 167.2,516.5 169.1,508.9 171.0,501.2 172.9,493.2 174.8,484.9 176.7,476.5 178.7,467.8 180.6,458.9 182.5,449.8 184.4,440.5 186.3,431.1 188.2,421.4 190.2,411.6 192.1,401.7 194.0,391.6 195.9,381.3 197.8,371.0 199.8,360.6 201.7,350.0 203.6,339.5 205.5,328.9 207.4,318.2 209.3,307.6 211.3,296.9 213.2,286.3 215.1,275.7 217.0,265.2 218.9,254.9 220.8,244.6 222.8,234.4 224.7,224.4 226.6,214.6 228.5,205.0 230.4,195.6 232.4,186.4 234.3,177.5 236.2,168.9 238.1,160.5 240.0,152.5 241.9,144.8 243.9,137.5 245.8,130.5 247.7,123.9 249.6,117.7 251.5,111.9 253.4,106.6 255.4,101.6 257.3,97.1 259.2,93.1 261.1,89.5 263.0,86.3 265.0,83.7 266.9,81.4 268.8,79.7 270.7,78.4 272.6,77.6 274.5,77.3 276.5,77.4 278.4,77.9 280.3,79.0 282.2,80.4 284.1,82.3 286.0,84.6 288.0,87.3 289.9,90.4 291.8,93.9 293.7,97.8 295.6,102.0 297.6,106.5 299.5,111.4 301.4,116.6 303.3,122.1 305.2,127.8 307.1,133.8 309.1,140.0 311.0,146.4 312.9,153.0 314.8,159.8 316.7,166.7 318.6,173.8 320.6,180.9 322.5,188.2 324.4,195.6 326.3,203.0 328.2,210.4 330.2,217.9 332.1,225.4 334.0,232.8 335.9,240.3 337.8,247.7 339.7,255.1 341.7,262.4 343.6,269.6 345.5,276.7 347.4,283.7 349.3,290.7 351.2,297.5 353.2,304.2 355.1,310.7 357.0,317.1 358.9,323.4 360.8,329.5 362.8,335.5 364.7,341.4 366.6,347.0 368.5,352.6 370.4,357.9 372.3,363.1 374.3,368.2 376.2,373.1 378.1,377.8 380.0,382.4 381.9,386.9 383.8,391.2 385.8,395.3 387.7,399.3 389.6,403.2 391.5,407.0 393.4,410.7 395.4,414.2 397.3,417.6 399.2,420.9 401.1,424.1 403.0,427.3 404.9,430.3 406.9,433.2 408.8,436.1 410.7,438.9 412.6,441.6 414.5,444.2 416.4,446.8 418.4,449.4 420.3,451.9 422.2,454.3 424.1,456.7 426.0,459.0 428.0,461.3 429.9,463.6 431.8,465.8 433.7,468.0 435.6,470.2 437.5,472.3 439.5,474.4 441.4,476.5 443.3,478.6 445.2,480.6 447.1,482.6 449.0,484.6 451.0,486.6 452.9,488.5 454.8,490.4 456.7,492.2 458.6,494.1 460.6,495.8 462.5,497.6 464.4,499.3 466.3,501.0 468.2,502.6 470.1,504.2 472.1,505.8 474.0,507.3 475.9,508.7 477.8,510.1 479.7,511.5 481.6,512.8 483.6,514.0 485.5,515.1 487.4,516.2 489.3,517.3 491.2,518.3 493.2,519.2 495.1,520.0 497.0,520.8 498.9,521.5 500.8,522.1 502.7,522.6 504.7,523.1 506.6,523.5 508.5,523.8 510.4,524.1 512.3,524.3 514.2,524.4 516.2,524.4 518.1,524.4 520.0,524.3 521.9,524.2 523.8,523.9 525.8,523.6 527.7,523.3 529.6,522.9 531.5,522.4 533.4,521.9 535.3,521.4 537.3,520.7 539.2,520.1 541.1,519.4 543.0,518.7 544.9,517.9 546.8,517.1 548.8,516.3 550.7,515.5 552.6,514.6 554.5,513.8 556.4,512.9 558.3,512.0 560.3,511.1 562.2,510.3 564.1,509.4 566.0,508.5 567.9,507.7 569.9,506.9 571.8,506.1 573.7,505.4 575.6,504.6 577.5,503.9 579.4,503.3 581.4,502.7 583.3,502.1 585.2,501.6 587.1,501.2 589.0,500.8 590.9,500.5 592.9,500.2 594.8,500.0 596.7,499.9 598.6,499.9 600.5,499.9 602.5,500.0 604.4,500.1 606.3,500.4 608.2,500.7 610.1,501.1 612.0,501.6 614.0,502.2 615.9,502.9 617.8,503.6 619.7,504.5 621.6,505.4 623.5,506.4 625.5,507.5 627.4,508.6 629.3,509.9 631.2,511.2 633.1,512.6 635.1,514.1 637.0,515.6 638.9,517.3 640.8,519.0 642.7,520.7 644.6,522.5 646.6,524.4 648.5,526.4 650.4,528.4 652.3,530.5 654.2,532.6 656.1,534.8 658.1,537.0 660.0,539.3 661.9,541.5 663.8,543.9 665.7,546.2 667.7,548.6 669.6,551.1 671.5,553.5 673.4,556.0 675.3,558.4 677.2,560.9 679.2,563.4 681.1,565.9 683.0,568.4 684.9,570.9 686.8,573.4 688.7,575.8 690.7,578.3 692.6,580.7 694.5,583.2 696.4,585.6 698.3,587.9 700.3,590.3 702.2,592.6 704.1,594.9 706.0,597.2 707.9,599.4 709.8,601.5 711.8,603.7 713.7,605.8 715.6,607.8 717.5,609.8 719.4,611.8 721.3,613.7 723.3,615.5 725.2,617.3 727.1,619.1 729.0,620.8 730.9,622.4 732.9,624.0 734.8,625.6 736.7,627.0 738.6,628.5 740.5,629.9 742.4,631.2 744.4,632.4 746.3,633.7 748.2,634.8 750.1,635.9 752.0,637.0 753.9,638.0 755.9,638.9 757.8,639.9 759.7,640.7 761.6,641.5 763.5,642.3 765.5,643.0 767.4,643.7 769.3,644.3 771.2,644.9 773.1,645.5 775.0,646.0 777.0,646.5 778.9,646.9 780.8,647.4 782.7,647.7 784.6,648.1 786.5,648.4 788.5,648.7 790.4,649.0 792.3,649.2 794.2,649.5 796.1,649.7 798.1,649.9 800.0,650.0 801.9,650.2 803.8,650.3 805.7,650.4 807.6,650.5 809.6,650.6 811.5,650.7 813.4,650.8 815.3,650.9 817.2,651.0 819.1,651.0 821.1,651.1 823.0,651.1 824.9,651.2 826.8,651.3 828.7,651.3 830.7,651.4 832.6,651.4 834.5,651.5 836.4,651.5 838.3,651.6 840.2,651.7 842.2,651.8 844.1,651.8 846.0,651.9 847.9,652.0 849.8,652.1 851.7,652.2 853.7,652.3 855.6,652.4 857.5,652.5 859.4,652.7 861.3,652.8 863.3,652.9 865.2,653.1 867.1,653.2 869.0,653.4 870.9,653.5 872.8,653.7 874.8,653.8 876.7,654.0 878.6,654.2 880.5,654.4 882.4,654.6 884.3,654.7 886.3,654.9 888.2,655.1 890.1,655.3 892.0,655.5 893.9,655.7 895.9,655.9 897.8,656.1 899.7,656.3 901.6,656.5 903.5,656.7 905.4,656.9 907.4,657.1 909.3,657.2 911.2,657.4 913.1,657.6 915.0,657.8 916.9,658.0 918.9,658.2 920.8,658.3 922.7,658.5 924.6,658.7 926.5,658.9 928.5,659.0 930.4,659.2 932.3,659.3 934.2,659.5 936.1,659.6 938.0,659.8 940.0,659.9 941.9,660.0 943.8,660.1 945.7,660.3 947.6,660.4 949.5,660.5 951.5,660.6 953.4,660.7 955.3,660.8 957.2,660.9 959.1,661.0 961.1,661.1 963.0,661.2 964.9,661.2 966.8,661.3 968.7,661.4 970.6,661.5 972.6,661.5 974.5,661.6 976.4,661.6 978.3,661.7 980.2,661.7 982.1,661.8 984.1,661.8 986.0,661.9 987.9,661.9 989.8,662.0 991.7,662.0 993.7,662.0 995.6,662.0 997.5,662.1 999.4,662.1 1001.3,662.1 1003.2,662.1 1005.2,662.2 1007.1,662.2 1009.0,662.2 1010.9,662.2 1012.8,662.2 1014.7,662.3 1016.7,662.3 1018.6,662.3 1020.5,662.3 1020.5,662.4 1018.6,662.4 1016.7,662.4 1014.7,662.4 1012.8,662.4 1010.9,662.4 1009.0,662.4 1007.1,662.4 1005.2,662.4 1003.2,662.4 1001.3,662.4 999.4,662.4 997.5,662.4 995.6,662.4 993.7,662.4 991.7,662.4 989.8,662.4 987.9,662.4 986.0,662.4 984.1,662.4 982.1,662.4 980.2,662.4 978.3,662.4 976.4,662.4 974.5,662.4 972.6,662.4 970.6,662.4 968.7,662.4 966.8,662.4 964.9,662.4 963.0,662.4 961.1,662.4 959.1,662.4 957.2,662.4 955.3,662.4 953.4,662.4 951.5,662.4 949.5,662.4 947.6,662.4 945.7,662.4 943.8,662.4 941.9,662.4 940.0,662.4 938.0,662.4 936.1,662.4 934.2,662.4 932.3,662.4 930.4,662.4 928.5,662.4 926.5,662.4 924.6,662.4 922.7,662.4 920.8,662.4 918.9,662.4 916.9,662.4 915.0,662.4 913.1,662.4 911.2,662.4 909.3,662.4 907.4,662.4 905.4,662.4 903.5,662.4 901.6,662.4 899.7,662.4 897.8,662.4 895.9,662.4 893.9,662.4 892.0,662.4 890.1,662.4 888.2,662.4 886.3,662.4 884.3,662.4 882.4,662.4 880.5,662.4 878.6,662.4 876.7,662.4 874.8,662.4 872.8,662.4 870.9,662.4 869.0,662.4 867.1,662.4 865.2,662.4 863.3,662.4 861.3,662.4 859.4,662.4 857.5,662.4 855.6,662.4 853.7,662.4 851.7,662.4 849.8,662.4 847.9,662.4 846.0,662.4 844.1,662.4 842.2,662.4 840.2,662.4 838.3,662.4 836.4,662.4 834.5,662.4 832.6,662.4 830.7,662.4 828.7,662.4 826.8,662.4 824.9,662.4 823.0,662.4 821.1,662.4 819.1,662.4 817.2,662.4 815.3,662.4 813.4,662.4 811.5,662.4 809.6,662.4 807.6,662.4 805.7,662.4 803.8,662.4 801.9,662.4 800.0,662.4 798.1,662.4 796.1,662.4 794.2,662.4 792.3,662.4 790.4,662.4 788.5,662.4 786.5,662.4 784.6,662.4 782.7,662.4 780.8,662.4 778.9,662.4 777.0,662.4 775.0,662.4 773.1,662.4 771.2,662.4 769.3,662.4 767.4,662.4 765.5,662.4 763.5,662.4 761.6,662.4 759.7,662.4 757.8,662.4 755.9,662.4 753.9,662.4 752.0,662.4 750.1,662.4 748.2,662.4 746.3,662.4 744.4,662.4 742.4,662.4 740.5,662.4 738.6,662.4 736.7,662.4 734.8,662.4 732.9,662.4 730.9,662.4 729.0,662.4 727.1,662.4 725.2,662.4 723.3,662.4 721.3,662.4 719.4,662.4 717.5,662.4 715.6,662.4 713.7,662.4 711.8,662.4 709.8,662.4 707.9,662.4 706.0,662.4 704.1,662.4 702.2,662.4 700.3,662.4 698.3,662.4 696.4,662.4 694.5,662.4 692.6,662.4 690.7,662.4 688.7,662.4 686.8,662.4 684.9,662.4 683.0,662.4 681.1,662.4 679.2,662.4 677.2,662.4 675.3,662.4 673.4,662.4 671.5,662.4 669.6,662.4 667.7,662.4 665.7,662.4 663.8,662.4 661.9,662.4 660.0,662.4 658.1,662.4 656.1,662.4 654.2,662.4 652.3,662.4 650.4,662.4 648.5,662.4 646.6,662.4 644.6,662.4 642.7,662.4 640.8,662.4 638.9,662.4 637.0,662.4 635.1,662.4 633.1,662.4 631.2,662.4 629.3,662.4 627.4,662.4 625.5,662.4 623.5,662.4 621.6,662.4 619.7,662.4 617.8,662.4 615.9,662.4 614.0,662.4 612.0,662.4 610.1,662.4 608.2,662.4 606.3,662.4 604.4,662.4 602.5,662.4 600.5,662.4 598.6,662.4 596.7,662.4 594.8,662.4 592.9,662.4 590.9,662.4 589.0,662.4 587.1,662.4 585.2,662.4 583.3,662.4 581.4,662.4 579.4,662.4 577.5,662.4 575.6,662.4 573.7,662.4 571.8,662.4 569.9,662.4 567.9,662.4 566.0,662.4 564.1,662.4 562.2,662.4 560.3,662.4 558.3,662.4 556.4,662.4 554.5,662.4 552.6,662.4 550.7,662.4 548.8,662.4 546.8,662.4 544.9,662.4 543.0,662.4 541.1,662.4 539.2,662.4 537.3,662.4 535.3,662.4 533.4,662.4 531.5,662.4 529.6,662.4 527.7,662.4 525.8,662.4 523.8,662.4 521.9,662.4 520.0,662.4 518.1,662.4 516.2,662.4 514.2,662.4 512.3,662.4 510.4,662.4 508.5,662.4 506.6,662.4 504.7,662.4 502.7,662.4 500.8,662.4 498.9,662.4 497.0,662.4 495.1,662.4 493.2,662.4 491.2,662.4 489.3,662.4 487.4,662.4 485.5,662.4 483.6,662.4 481.6,662.4 479.7,662.4 477.8,662.4 475.9,662.4 474.0,662.4 472.1,662.4 470.1,662.4 468.2,662.4 466.3,662.4 464.4,662.4 462.5,662.4 460.6,662.4 458.6,662.4 456.7,662.4 454.8,662.4 452.9,662.4 451.0,662.4 449.0,662.4 447.1,662.4 445.2,662.4 443.3,662.4 441.4,662.4 439.5,662.4 437.5,662.4 435.6,662.4 433.7,662.4 431.8,662.4 429.9,662.4 428.0,662.4 426.0,662.4 424.1,662.4 422.2,662.4 420.3,662.4 418.4,662.4 416.4,662.4 414.5,662.4 412.6,662.4 410.7,662.4 408.8,662.4 406.9,662.4 404.9,662.4 403.0,662.4 401.1,662.4 399.2,662.4 397.3,662.4 395.4,662.4 393.4,662.4 391.5,662.4 389.6,662.4 387.7,662.4 385.8,662.4 383.8,662.4 381.9,662.4 380.0,662.4 378.1,662.4 376.2,662.4 374.3,662.4 372.3,662.4 370.4,662.4 368.5,662.4 366.6,662.4 364.7,662.4 362.8,662.4 360.8,662.4 358.9,662.4 357.0,662.4 355.1,662.4 353.2,662.4 351.2,662.4 349.3,662.4 347.4,662.4 345.5,662.4 343.6,662.4 341.7,662.4 339.7,662.4 337.8,662.4 335.9,662.4 334.0,662.4 332.1,662.4 330.2,662.4 328.2,662.4 326.3,662.4 324.4,662.4 322.5,662.4 320.6,662.4 318.6,662.4 316.7,662.4 314.8,662.4 312.9,662.4 311.0,662.4 309.1,662.4 307.1,662.4 305.2,662.4 303.3,662.4 301.4,662.4 299.5,662.4 297.6,662.4 295.6,662.4 293.7,662.4 291.8,662.4 289.9,662.4 288.0,662.4 286.0,662.4 284.1,662.4 282.2,662.4 280.3,662.4 278.4,662.4 276.5,662.4 274.5,662.4 272.6,662.4 270.7,662.4 268.8,662.4 266.9,662.4 265.0,662.4 263.0,662.4 261.1,662.4 259.2,662.4 257.3,662.4 255.4,662.4 253.4,662.4 251.5,662.4 249.6,662.4 247.7,662.4 245.8,662.4 243.9,662.4 241.9,662.4 240.0,662.4 238.1,662.4 236.2,662.4 234.3,662.4 232.4,662.4 230.4,662.4 228.5,662.4 226.6,662.4 224.7,662.4 222.8,662.4 220.8,662.4 218.9,662.4 217.0,662.4 215.1,662.4 213.2,662.4 211.3,662.4 209.3,662.4 207.4,662.4 205.5,662.4 203.6,662.4 201.7,662.4 199.8,662.4 197.8,662.4 195.9,662.4 194.0,662.4 192.1,662.4 190.2,662.4 188.2,662.4 186.3,662.4 184.4,662.4 182.5,662.4 180.6,662.4 178.7,662.4 176.7,662.4 174.8,662.4 172.9,662.4 171.0,662.4 169.1,662.4 167.2,662.4 165.2,662.4 163.3,662.4 161.4,662.4 159.5,662.4 157.6,662.4 155.6,662.4 153.7,662.4 151.8,662.4 149.9,662.4 148.0,662.4 146.1,662.4 144.1,662.4 142.2,662.4 140.3,662.4 138.4,662.4 136.5,662.4 134.6,662.4 132.6,662.4 130.7,662.4 128.8,662.4 126.9,662.4 125.0,662.4 123.0,662.4 121.1,662.4 119.2,662.4 117.3,662.4 115.4,662.4 113.5,662.4 111.5,662.4 109.6,662.4 107.7,662.4 105.8,662.4 103.9,662.4 102.0,662.4 100.0,662.4 98.1,662.4 96.2,662.4 94.3,662.4 92.4,662.4 90.4,662.4 88.5,662.4 86.6,662.4 84.7,662.4 82.8,662.4 80.9,662.4 78.9,662.4 77.0,662.4 75.1,662.4 73.2,662.4 71.3,662.4 69.4,662.4 67.4,662.4 65.5,662.4 63.6,662.4 "/>
	</g>
</g>
	</g>
	<g id="gnuplot_plot_2"><title>Mean</title>
<g fill="none" color="white" stroke="rgb( 31, 120, 180)" stroke-width="2.00" stroke-linecap="butt" stroke-linejoin="miter">
</g>
<g fill="none" color="black" stroke="currentColor" stroke-width="2.00" stroke-linecap="butt" stroke-linejoin="miter">
	<g transform="translate(1155.4,85.0)" stroke="none" fill="black" font-family="Helvetica" font-size="12.00" text-anchor="start">
		<text><tspan font-family="Helvetica">Mean</tspan></text>
	</g>
</g>
<g fill="none" color="black" stroke="currentColor" stroke-width="2.00" stroke-linecap="butt" stroke-linejoin="miter">
	<path stroke="rgb( 31, 120, 180)" d="M1104.9,81.1 L1147.1,81.1 M371.1,662.4 L371.1,54.1  "/></g>
	</g>
	<g id="gnuplot_plot_3"><title>"Clean" sample</title>
<g fill="none" color="white" stroke="rgb( 31, 120, 180)" stroke-width="1.00" stroke-linecap="butt" stroke-linejoin="miter">
</g>
<g fill="none" color="black" stroke="currentColor" stroke-width="1.00" stroke-linecap="butt" stroke-linejoin="miter">
	<g transform="translate(1155.4,103.0)" stroke="none" fill="black" font-family="Helvetica" font-size="12.00" text-anchor="start">
		<text><tspan font-family="Helvetica">"Clean" sample</tspan></text>
	</g>
</g>
<g fill="none" color="black" stroke="currentColor" stroke-width="1.00" stroke-linecap="butt" stroke-linejoin="miter">
	<use xlink:href="#gpPt6" transform="translate(421.0,656.3) scale(3.38)" color="rgb( 31, 120, 180)"/>
	<use xlink:href="#gpPt6" transform="translate(403.5,650.2) scale(3.38)" color="rgb( 31, 120, 180)"/>
	<use xlink:href="#gpPt6" transform="translate(333.5,644.2) scale(3.38)" color="rgb( 31, 120, 180)"/>
	<use xlink:href="#gpPt6" transform="translate(334.7,638.1) scale(3.38)" color="rgb( 31, 120, 180)"/>
	<use xlink:href="#gpPt6" transform="translate(255.1,632.0) scale(3.38)" color="rgb( 31, 120, 180)"/>
	<use xlink:href="#gpPt6" transform="translate(244.0,625.9) scale(3.38)" color="rgb( 31, 120, 180)"/>
	<use xlink:href="#gpPt6" transform="translate(257.5,619.8) scale(3.38)" color="rgb( 31, 120, 180)"/>
	<use xlink:href="#gpPt6" transform="translate(244.1,613.7) scale(3.38)" color="rgb( 31, 120, 180)"/>
	<use xlink:href="#gpPt6" transform="translate(245.2,607.7) scale(3.38)" color="rgb( 31, 120, 180)"/>
	<use xlink:href="#gpPt6" transform="translate(250.0,601.6) scale(3.38)" color="rgb( 31, 120, 180)"/>
	<use xlink:href="#gpPt6" transform="translate(257.8,595.5) scale(3.38)" color="rgb( 31, 120, 180)"/>
	<use xlink:href="#gpPt6" transform="translate(278.8,589.4) scale(3.38)" color="rgb( 31, 120, 180)"/>
	<use xlink:href="#gpPt6" transform="translate(277.6,583.3) scale(3.38)" color="rgb( 31, 120, 180)"/>
	<use xlink:href="#gpPt6" transform="translate(260.6,577.2) scale(3.38)" color="rgb( 31, 120, 180)"/>
	<use xlink:href="#gpPt6" transform="translate(260.9,571.2) scale(3.38)" color="rgb( 31, 120, 180)"/>
	<use xlink:href="#gpPt6" transform="translate(247.1,565.1) scale(3.38)" color="rgb( 31, 120, 180)"/>
	<use xlink:href="#gpPt6" transform="translate(262.2,559.0) scale(3.38)" color="rgb( 31, 120, 180)"/>
	<use xlink:href="#gpPt6" transform="translate(267.0,552.9) scale(3.38)" color="rgb( 31, 120, 180)"/>
	<use xlink:href="#gpPt6" transform="translate(273.5,546.8) scale(3.38)" color="rgb( 31, 120, 180)"/>
	<use xlink:href="#gpPt6" transform="translate(301.9,540.7) scale(3.38)" color="rgb( 31, 120, 180)"/>
	<use xlink:href="#gpPt6" transform="translate(551.2,534.7) scale(3.38)" color="rgb( 31, 120, 180)"/>
	<use xlink:href="#gpPt6" transform="translate(422.3,528.6) scale(3.38)" color="rgb( 31, 120, 180)"/>
	<use xlink:href="#gpPt6" transform="translate(659.5,522.5) scale(3.38)" color="rgb( 31, 120, 180)"/>
	<use xlink:href="#gpPt6" transform="translate(683.3,516.4) scale(3.38)" color="rgb( 31, 120, 180)"/>
	<use xlink:href="#gpPt6" transform="translate(614.9,510.3) scale(3.38)" color="rgb( 31, 120, 180)"/>
	<use xlink:href="#gpPt6" transform="translate(568.6,504.2) scale(3.38)" color="rgb( 31, 120, 180)"/>
	<use xlink:href="#gpPt6" transform="translate(507.9,498.2) scale(3.38)" color="rgb( 31, 120, 180)"/>
	<use xlink:href="#gpPt6" transform="translate(315.0,492.1) scale(3.38)" color="rgb( 31, 120, 180)"/>
	<use xlink:href="#gpPt6" transform="translate(259.1,486.0) scale(3.38)" color="rgb( 31, 120, 180)"/>
	<use xlink:href="#gpPt6" transform="translate(262.1,479.9) scale(3.38)" color="rgb( 31, 120, 180)"/>
	<use xlink:href="#gpPt6" transform="translate(287.3,473.8) scale(3.38)" color="rgb( 31, 120, 180)"/>
	<use xlink:href="#gpPt6" transform="translate(285.2,467.7) scale(3.38)" color="rgb( 31, 120, 180)"/>
	<use xlink:href="#gpPt6" transform="translate(270.2,461.7) scale(3.38)" color="rgb( 31, 120, 180)"/>
	<use xlink:href="#gpPt6" transform="translate(257.7,455.6) scale(3.38)" color="rgb( 31, 120, 180)"/>
	<use xlink:href="#gpPt6" transform="translate(269.4,449.5) scale(3.38)" color="rgb( 31, 120, 180)"/>
	<use xlink:href="#gpPt6" transform="translate(254.9,443.4) scale(3.38)" color="rgb( 31, 120, 180)"/>
	<use xlink:href="#gpPt6" transform="translate(268.0,437.3) scale(3.38)" color="rgb( 31, 120, 180)"/>
	<use xlink:href="#gpPt6" transform="translate(575.0,431.2) scale(3.38)" color="rgb( 31, 120, 180)"/>
	<use xlink:href="#gpPt6" transform="translate(605.4,419.1) scale(3.38)" color="rgb( 31, 120, 180)"/>
	<use xlink:href="#gpPt6" transform="translate(665.7,413.0) scale(3.38)" color="rgb( 31, 120, 180)"/>
	<use xlink:href="#gpPt6" transform="translate(581.9,406.9) scale(3.38)" color="rgb( 31, 120, 180)"/>
	<use xlink:href="#gpPt6" transform="translate(386.3,400.8) scale(3.38)" color="rgb( 31, 120, 180)"/>
	<use xlink:href="#gpPt6" transform="translate(282.0,394.7) scale(3.38)" color="rgb( 31, 120, 180)"/>
	<use xlink:href="#gpPt6" transform="translate(315.3,388.7) scale(3.38)" color="rgb( 31, 120, 180)"/>
	<use xlink:href="#gpPt6" transform="translate(325.1,382.6) scale(3.38)" color="rgb( 31, 120, 180)"/>
	<use xlink:href="#gpPt6" transform="translate(260.1,376.5) scale(3.38)" color="rgb( 31, 120, 180)"/>
	<use xlink:href="#gpPt6" transform="translate(280.6,370.4) scale(3.38)" color="rgb( 31, 120, 180)"/>
	<use xlink:href="#gpPt6" transform="translate(245.6,364.3) scale(3.38)" color="rgb( 31, 120, 180)"/>
	<use xlink:href="#gpPt6" transform="translate(292.0,358.2) scale(3.38)" color="rgb( 31, 120, 180)"/>
	<use xlink:href="#gpPt6" transform="translate(455.8,352.2) scale(3.38)" color="rgb( 31, 120, 180)"/>
	<use xlink:href="#gpPt6" transform="translate(645.6,346.1) scale(3.38)" color="rgb( 31, 120, 180)"/>
	<use xlink:href="#gpPt6" transform="translate(570.9,340.0) scale(3.38)" color="rgb( 31, 120, 180)"/>
	<use xlink:href="#gpPt6" transform="translate(359.1,333.9) scale(3.38)" color="rgb( 31, 120, 180)"/>
	<use xlink:href="#gpPt6" transform="translate(265.7,327.8) scale(3.38)" color="rgb( 31, 120, 180)"/>
	<use xlink:href="#gpPt6" transform="translate(270.5,321.8) scale(3.38)" color="rgb( 31, 120, 180)"/>
	<use xlink:href="#gpPt6" transform="translate(266.8,315.7) scale(3.38)" color="rgb( 31, 120, 180)"/>
	<use xlink:href="#gpPt6" transform="translate(268.6,309.6) scale(3.38)" color="rgb( 31, 120, 180)"/>
	<use xlink:href="#gpPt6" transform="translate(533.5,303.5) scale(3.38)" color="rgb( 31, 120, 180)"/>
	<use xlink:href="#gpPt6" transform="translate(304.5,297.4) scale(3.38)" color="rgb( 31, 120, 180)"/>
	<use xlink:href="#gpPt6" transform="translate(565.6,291.3) scale(3.38)" color="rgb( 31, 120, 180)"/>
	<use xlink:href="#gpPt6" transform="translate(632.4,285.3) scale(3.38)" color="rgb( 31, 120, 180)"/>
	<use xlink:href="#gpPt6" transform="translate(432.7,279.2) scale(3.38)" color="rgb( 31, 120, 180)"/>
	<use xlink:href="#gpPt6" transform="translate(268.2,273.1) scale(3.38)" color="rgb( 31, 120, 180)"/>
	<use xlink:href="#gpPt6" transform="translate(262.8,267.0) scale(3.38)" color="rgb( 31, 120, 180)"/>
	<use xlink:href="#gpPt6" transform="translate(268.0,260.9) scale(3.38)" color="rgb( 31, 120, 180)"/>
	<use xlink:href="#gpPt6" transform="translate(262.4,254.8) scale(3.38)" color="rgb( 31, 120, 180)"/>
	<use xlink:href="#gpPt6" transform="translate(256.2,248.8) scale(3.38)" color="rgb( 31, 120, 180)"/>
	<use xlink:href="#gpPt6" transform="translate(450.4,242.7) scale(3.38)" color="rgb( 31, 120, 180)"/>
	<use xlink:href="#gpPt6" transform="translate(625.9,236.6) scale(3.38)" color="rgb( 31, 120, 180)"/>
	<use xlink:href="#gpPt6" transform="translate(428.6,230.5) scale(3.38)" color="rgb( 31, 120, 180)"/>
	<use xlink:href="#gpPt6" transform="translate(268.0,224.4) scale(3.38)" color="rgb( 31, 120, 180)"/>
	<use xlink:href="#gpPt6" transform="translate(257.3,218.3) scale(3.38)" color="rgb( 31, 120, 180)"/>
	<use xlink:href="#gpPt6" transform="translate(401.9,212.3) scale(3.38)" color="rgb( 31, 120, 180)"/>
	<use xlink:href="#gpPt6" transform="translate(266.6,206.2) scale(3.38)" color="rgb( 31, 120, 180)"/>
	<use xlink:href="#gpPt6" transform="translate(390.8,200.1) scale(3.38)" color="rgb( 31, 120, 180)"/>
	<use xlink:href="#gpPt6" transform="translate(609.1,194.0) scale(3.38)" color="rgb( 31, 120, 180)"/>
	<use xlink:href="#gpPt6" transform="translate(493.9,187.9) scale(3.38)" color="rgb( 31, 120, 180)"/>
	<use xlink:href="#gpPt6" transform="translate(268.4,181.8) scale(3.38)" color="rgb( 31, 120, 180)"/>
	<use xlink:href="#gpPt6" transform="translate(249.1,175.8) scale(3.38)" color="rgb( 31, 120, 180)"/>
	<use xlink:href="#gpPt6" transform="translate(263.0,169.7) scale(3.38)" color="rgb( 31, 120, 180)"/>
	<use xlink:href="#gpPt6" transform="translate(257.2,163.6) scale(3.38)" color="rgb( 31, 120, 180)"/>
	<use xlink:href="#gpPt6" transform="translate(448.3,157.5) scale(3.38)" color="rgb( 31, 120, 180)"/>
	<use xlink:href="#gpPt6" transform="translate(634.5,151.4) scale(3.38)" color="rgb( 31, 120, 180)"/>
	<use xlink:href="#gpPt6" transform="translate(326.6,145.3) scale(3.38)" color="rgb( 31, 120, 180)"/>
	<use xlink:href="#gpPt6" transform="translate(265.8,139.3) scale(3.38)" color="rgb( 31, 120, 180)"/>
	<use xlink:href="#gpPt6" transform="translate(435.6,133.2) scale(3.38)" color="rgb( 31, 120, 180)"/>
	<use xlink:href="#gpPt6" transform="translate(263.9,127.1) scale(3.38)" color="rgb( 31, 120, 180)"/>
	<use xlink:href="#gpPt6" transform="translate(368.2,121.0) scale(3.38)" color="rgb( 31, 120, 180)"/>
	<use xlink:href="#gpPt6" transform="translate(624.5,114.9) scale(3.38)" color="rgb( 31, 120, 180)"/>
	<use xlink:href="#gpPt6" transform="translate(409.6,108.8) scale(3.38)" color="rgb( 31, 120, 180)"/>
	<use xlink:href="#gpPt6" transform="translate(284.2,102.8) scale(3.38)" color="rgb( 31, 120, 180)"/>
	<use xlink:href="#gpPt6" transform="translate(276.3,96.7) scale(3.38)" color="rgb( 31, 120, 180)"/>
	<use xlink:href="#gpPt6" transform="translate(274.9,90.6) scale(3.38)" color="rgb( 31, 120, 180)"/>
	<use xlink:href="#gpPt6" transform="translate(392.3,84.5) scale(3.38)" color="rgb( 31, 120, 180)"/>
	<use xlink:href="#gpPt6" transform="translate(611.1,78.4) scale(3.38)" color="rgb( 31, 120, 180)"/>
	<use xlink:href="#gpPt6" transform="translate(335.8,72.3) scale(3.38)" color="rgb( 31, 120, 180)"/>
	<use xlink:href="#gpPt6" transform="translate(432.2,66.3) scale(3.38)" color="rgb( 31, 120, 180)"/>
	<use xlink:href="#gpPt6" transform="translate(280.3,60.2) scale(3.38)" color="rgb( 31, 120, 180)"/>
	<use xlink:href="#gpPt6" transform="translate(258.0,54.1) scale(3.38)" color="rgb( 31, 120, 180)"/>
	<use xlink:href="#gpPt6" transform="translate(1126.0,99.1) scale(3.38)" color="rgb( 31, 120, 180)"/>
</g>
	</g>
	<g id="gnuplot_plot_4"><title>Mild outliers</title>
<g fill="none" color="black" stroke="currentColor" stroke-width="1.00" stroke-linecap="butt" stroke-linejoin="miter">
	<g transform="translate(1155.4,121.0)" stroke="none" fill="black" font-family="Helvetica" font-size="12.00" text-anchor="start">
		<text><tspan font-family="Helvetica">Mild outliers</tspan></text>
	</g>
</g>
<g fill="none" color="black" stroke="currentColor" stroke-width="1.00" stroke-linecap="butt" stroke-linejoin="miter">
	<use xlink:href="#gpPt6" transform="translate(840.1,425.2) scale(3.38)" color="rgb(255, 127,   0)"/>
	<use xlink:href="#gpPt6" transform="translate(1126.0,117.1) scale(3.38)" color="rgb(255, 127,   0)"/>
</g>
	</g>
	<g id="gnuplot_plot_5"><title>gnuplot_plot_5</title>
<g fill="none" color="white" stroke="rgb(255, 127,   0)" stroke-width="2.00" stroke-linecap="butt" stroke-linejoin="miter">
</g>
<g fill="none" color="black" stroke="currentColor" stroke-width="2.00" stroke-linecap="butt" stroke-linejoin="miter">
</g>
	</g>
	<g id="gnuplot_plot_6"><title>gnuplot_plot_6</title>
<g fill="none" color="black" stroke="currentColor" stroke-width="2.00" stroke-linecap="butt" stroke-linejoin="miter">
	<path stroke="rgb(255, 127,   0)" d="M701.5,662.4 L701.5,54.1  "/></g>
	</g>
	<g id="gnuplot_plot_7"><title>gnuplot_plot_7</title>
<g fill="none" color="black" stroke="currentColor" stroke-width="2.00" stroke-linecap="butt" stroke-linejoin="miter">
</g>
	</g>
	<g id="gnuplot_plot_8"><title>gnuplot_plot_8</title>
<g fill="none" color="black" stroke="currentColor" stroke-width="2.00" stroke-linecap="butt" stroke-linejoin="miter">
	<path stroke="rgb(227,  26,  28)" d="M964.1,662.4 L964.1,54.1  "/></g>
	</g>
<g fill="none" color="black" stroke="currentColor" stroke-width="2.00" stroke-linecap="butt" stroke-linejoin="miter">
</g>
<g fill="none" color="black" stroke="black" stroke-width="1.00" stroke-linecap="butt" stroke-linejoin="miter">
</g>
<g fill="none" color="black" stroke="currentColor" stroke-width="1.00" stroke-linecap="butt" stroke-linejoin="miter">
	<path stroke="black" d="M63.6,54.1 L63.6,662.4 L1020.5,662.4 L1020.5,54.1 L63.6,54.1 Z  "/></g>
<g fill="none" color="black" stroke="currentColor" stroke-width="1.00" stroke-linecap="butt" stroke-linejoin="miter">
</g>
</g>
</svg>