<?xml version="1.0" encoding="UTF-8" standalone="no"?>
<svg viewBox="0 0 1280 720" xmlns="http://www.w3.org/2000/svg" xmlns:xlink="http://www.w3.org/1999/xlink">

<title>Gnuplot</title>
<desc>Produced by GNUPLOT 5.2 patchlevel 2 </desc>

<g id="gnuplot_canvas">

<rect x="0" y="0" width="1280" height="720" fill="none"/>
<defs>

	<circle id="gpDot" r="0.5" stroke-width="0.5"/>
	<path id="gpPt0" stroke-width="0.222" stroke="currentColor" d="M-1,0 h2 M0,-1 v2"/>
	<path id="gpPt1" stroke-width="0.222" stroke="currentColor" d="M-1,-1 L1,1 M1,-1 L-1,1"/>
	<path id="gpPt2" stroke-width="0.222" stroke="currentColor" d="M-1,0 L1,0 M0,-1 L0,1 M-1,-1 L1,1 M-1,1 L1,-1"/>
	<rect id="gpPt3" stroke-width="0.222" stroke="currentColor" x="-1" y="-1" width="2" height="2"/>
	<rect id="gpPt4" stroke-width="0.222" stroke="currentColor" fill="currentColor" x="-1" y="-1" width="2" height="2"/>
	<circle id="gpPt5" stroke-width="0.222" stroke="currentColor" cx="0" cy="0" r="1"/>
	<use xlink:href="#gpPt5" id="gpPt6" fill="currentColor" stroke="none"/>
	<path id="gpPt7" stroke-width="0.222" stroke="currentColor" d="M0,-1.33 L-1.33,0.67 L1.33,0.67 z"/>
	<use xlink:href="#gpPt7" id="gpPt8" fill="currentColor" stroke="none"/>
	<use xlink:href="#gpPt7" id="gpPt9" stroke="currentColor" transform="rotate(180)"/>
	<use xlink:href="#gpPt9" id="gpPt10" fill="currentColor" stroke="none"/>
	<use xlink:href="#gpPt3" id="gpPt11" stroke="currentColor" transform="rotate(45)"/>
	<use xlink:href="#gpPt11" id="gpPt12" fill="currentColor" stroke="none"/>
	<path id="gpPt13" stroke-width="0.222" stroke="currentColor" d="M0,1.330 L1.265,0.411 L0.782,-1.067 L-0.782,-1.076 L-1.265,0.411 z"/>
	<use xlink:href="#gpPt13" id="gpPt14" fill="currentColor" stroke="none"/>
	<filter id="textbox" filterUnits="objectBoundingBox" x="0" y="0" height="1" width="1">
	  <feFlood flood-color="white" flood-opacity="1" result="bgnd"/>
	  <feComposite in="SourceGraphic" in2="bgnd" operator="atop"/>
	</filter>
	<filter id="greybox" filterUnits="objectBoundingBox" x="0" y="0" height="1" width="1">
	  <feFlood flood-color="lightgrey" flood-opacity="1" result="grey"/>
	  <feComposite in="SourceGraphic" in2="grey" operator="atop"/>
	</filter>
</defs>
<g fill="none" color="white" stroke="currentColor" stroke-width="1.00" stroke-linecap="butt" stroke-linejoin="miter">
</g>
<g fill="none" color="black" stroke="currentColor" stroke-width="1.00" stroke-linecap="butt" stroke-linejoin="miter">
	<path stroke="black" d="M63.6,662.4 L72.6,662.4  "/>	<g transform="translate(55.3,666.3)" stroke="none" fill="black" font-family="Helvetica" font-size="12.00" text-anchor="end">
		<text><tspan font-family="Helvetica"> 0</tspan></text>
	</g>
</g>
<g fill="none" color="black" stroke="currentColor" stroke-width="1.00" stroke-linecap="butt" stroke-linejoin="miter">
	<path stroke="black" d="M63.6,524.8 L72.6,524.8  "/>	<g transform="translate(55.3,528.7)" stroke="none" fill="black" font-family="Helvetica" font-size="12.00" text-anchor="end">
		<text><tspan font-family="Helvetica"> 5</tspan></text>
	</g>
</g>
<g fill="none" color="black" stroke="currentColor" stroke-width="1.00" stroke-linecap="butt" stroke-linejoin="miter">
	<path stroke="black" d="M63.6,387.2 L72.6,387.2  "/>	<g transform="translate(55.3,391.1)" stroke="none" fill="black" font-family="Helvetica" font-size="12.00" text-anchor="end">
		<text><tspan font-family="Helvetica"> 10</tspan></text>
	</g>
</g>
<g fill="none" color="black" stroke="currentColor" stroke-width="1.00" stroke-linecap="butt" stroke-linejoin="miter">
	<path stroke="black" d="M63.6,249.5 L72.6,249.5  "/>	<g transform="translate(55.3,253.4)" stroke="none" fill="black" font-family="Helvetica" font-size="12.00" text-anchor="end">
		<text><tspan font-family="Helvetica"> 15</tspan></text>
	</g>
</g>
<g fill="none" color="black" stroke="currentColor" stroke-width="1.00" stroke-linecap="butt" stroke-linejoin="miter">
	<path stroke="black" d="M63.6,111.9 L72.6,111.9  "/>	<g transform="translate(55.3,115.8)" stroke="none" fill="black" font-family="Helvetica" font-size="12.00" text-anchor="end">
		<text><tspan font-family="Helvetica"> 20</tspan></text>
	</g>
</g>
<g fill="none" color="black" stroke="currentColor" stroke-width="1.00" stroke-linecap="butt" stroke-linejoin="miter">
	<path stroke="black" d="M95.2,662.4 L95.2,653.4  "/>	<g transform="translate(95.2,684.3)" stroke="none" fill="black" font-family="Helvetica" font-size="12.00" text-anchor="middle">
		<text><tspan font-family="Helvetica"> 4.4</tspan></text>
	</g>
</g>
<g fill="none" color="black" stroke="currentColor" stroke-width="1.00" stroke-linecap="butt" stroke-linejoin="miter">
	<path stroke="black" d="M228.6,662.4 L228.6,653.4  "/>	<g transform="translate(228.6,684.3)" stroke="none" fill="black" font-family="Helvetica" font-size="12.00" text-anchor="middle">
		<text><tspan font-family="Helvetica"> 4.45</tspan></text>
	</g>
</g>
<g fill="none" color="black" stroke="currentColor" stroke-width="1.00" stroke-linecap="butt" stroke-linejoin="miter">
	<path stroke="black" d="M362.0,662.4 L362.0,653.4  "/>	<g transform="translate(362.0,684.3)" stroke="none" fill="black" font-family="Helvetica" font-size="12.00" text-anchor="middle">
		<text><tspan font-family="Helvetica"> 4.5</tspan></text>
	</g>
</g>
<g fill="none" color="black" stroke="currentColor" stroke-width="1.00" stroke-linecap="butt" stroke-linejoin="miter">
	<path stroke="black" d="M495.4,662.4 L495.4,653.4  "/>	<g transform="translate(495.4,684.3)" stroke="none" fill="black" font-family="Helvetica" font-size="12.00" text-anchor="middle">
		<text><tspan font-family="Helvetica"> 4.55</tspan></text>
	</g>
</g>
<g fill="none" color="black" stroke="currentColor" stroke-width="1.00" stroke-linecap="butt" stroke-linejoin="miter">
	<path stroke="black" d="M628.8,662.4 L628.8,653.4  "/>	<g transform="translate(628.8,684.3)" stroke="none" fill="black" font-family="Helvetica" font-size="12.00" text-anchor="middle">
		<text><tspan font-family="Helvetica"> 4.6</tspan></text>
	</g>
</g>
<g fill="none" color="black" stroke="currentColor" stroke-width="1.00" stroke-linecap="butt" stroke-linejoin="miter">
	<path stroke="black" d="M762.1,662.4 L762.1,653.4  "/>	<g transform="translate(762.1,684.3)" stroke="none" fill="black" font-family="Helvetica" font-size="12.00" text-anchor="middle">
		<text><tspan font-family="Helvetica"> 4.65</tspan></text>
	</g>
</g>
<g fill="none" color="black" stroke="currentColor" stroke-width="1.00" stroke-linecap="butt" stroke-linejoin="miter">
	<path stroke="black" d="M895.5,662.4 L895.5,653.4  "/>	<g transform="translate(895.5,684.3)" stroke="none" fill="black" font-family="Helvetica" font-size="12.00" text-anchor="middle">
		<text><tspan font-family="Helvetica"> 4.7</tspan></text>
	</g>
</g>
<g fill="none" color="black" stroke="currentColor" stroke-width="1.00" stroke-linecap="butt" stroke-linejoin="miter">
	<path stroke="black" d="M1012.2,662.4 L1003.2,662.4  "/>	<g transform="translate(1020.5,666.3)" stroke="none" fill="black" font-family="Helvetica" font-size="12.00" text-anchor="start">
		<text><tspan font-family="Helvetica"> 0</tspan></text>
	</g>
</g>
<g fill="none" color="black" stroke="currentColor" stroke-width="1.00" stroke-linecap="butt" stroke-linejoin="miter">
	<path stroke="black" d="M1012.2,575.5 L1003.2,575.5  "/>	<g transform="translate(1020.5,579.4)" stroke="none" fill="black" font-family="Helvetica" font-size="12.00" text-anchor="start">
		<text><tspan font-family="Helvetica"> 2</tspan></text>
	</g>
</g>
<g fill="none" color="black" stroke="currentColor" stroke-width="1.00" stroke-linecap="butt" stroke-linejoin="miter">
	<path stroke="black" d="M1012.2,488.6 L1003.2,488.6  "/>	<g transform="translate(1020.5,492.5)" stroke="none" fill="black" font-family="Helvetica" font-size="12.00" text-anchor="start">
		<text><tspan font-family="Helvetica"> 4</tspan></text>
	</g>
</g>
<g fill="none" color="black" stroke="currentColor" stroke-width="1.00" stroke-linecap="butt" stroke-linejoin="miter">
	<path stroke="black" d="M1012.2,401.7 L1003.2,401.7  "/>	<g transform="translate(1020.5,405.6)" stroke="none" fill="black" font-family="Helvetica" font-size="12.00" text-anchor="start">
		<text><tspan font-family="Helvetica"> 6</tspan></text>
	</g>
</g>
<g fill="none" color="black" stroke="currentColor" stroke-width="1.00" stroke-linecap="butt" stroke-linejoin="miter">
	<path stroke="black" d="M1012.2,314.8 L1003.2,314.8  "/>	<g transform="translate(1020.5,318.7)" stroke="none" fill="black" font-family="Helvetica" font-size="12.00" text-anchor="start">
		<text><tspan font-family="Helvetica"> 8</tspan></text>
	</g>
</g>
<g fill="none" color="black" stroke="currentColor" stroke-width="1.00" stroke-linecap="butt" stroke-linejoin="miter">
	<path stroke="black" d="M1012.2,227.9 L1003.2,227.9  "/>	<g transform="translate(1020.5,231.8)" stroke="none" fill="black" font-family="Helvetica" font-size="12.00" text-anchor="start">
		<text><tspan font-family="Helvetica"> 10</tspan></text>
	</g>
</g>
<g fill="none" color="black" stroke="currentColor" stroke-width="1.00" stroke-linecap="butt" stroke-linejoin="miter">
	<path stroke="black" d="M1012.2,141.0 L1003.2,141.0  "/>	<g transform="translate(1020.5,144.9)" stroke="none" fill="black" font-family="Helvetica" font-size="12.00" text-anchor="start">
		<text><tspan font-family="Helvetica"> 12</tspan></text>
	</g>
</g>
<g fill="none" color="black" stroke="currentColor" stroke-width="1.00" stroke-linecap="butt" stroke-linejoin="miter">
	<path stroke="black" d="M1012.2,54.1 L1003.2,54.1  "/>	<g transform="translate(1020.5,58.0)" stroke="none" fill="black" font-family="Helvetica" font-size="12.00" text-anchor="start">
		<text><tspan font-family="Helvetica"> 14</tspan></text>
	</g>
</g>
<g fill="none" color="black" stroke="currentColor" stroke-width="1.00" stroke-linecap="butt" stroke-linejoin="miter">
</g>
<g fill="none" color="black" stroke="currentColor" stroke-width="1.00" stroke-linecap="butt" stroke-linejoin="miter">
	<path stroke="black" d="M63.6,54.1 L63.6,662.4 L1012.2,662.4 L1012.2,54.1 L63.6,54.1 Z  "/></g>
<g fill="none" color="black" stroke="currentColor" stroke-width="1.00" stroke-linecap="butt" stroke-linejoin="miter">
	<g transform="translate(16.3,358.3) rotate(270)" stroke="none" fill="black" font-family="Helvetica" font-size="12.00" text-anchor="middle">
		<text><tspan font-family="Helvetica">Iterations (x 10</tspan><tspan font-family="Helvetica" font-size="9.6" dy="-6.00px">3</tspan><tspan font-family="Helvetica" font-size="12.0" dy="6.00px">)</tspan></text>
	</g>
</g>
<g fill="none" color="black" stroke="currentColor" stroke-width="1.00" stroke-linecap="butt" stroke-linejoin="miter">
	<g transform="translate(1074.2,358.3) rotate(270)" stroke="none" fill="black" font-family="Helvetica" font-size="12.00" text-anchor="middle">
		<text><tspan font-family="Helvetica">Density (a.u.)</tspan></text>
	</g>
</g>
<g fill="none" color="black" stroke="currentColor" stroke-width="1.00" stroke-linecap="butt" stroke-linejoin="miter">
	<g transform="translate(537.9,711.3)" stroke="none" fill="black" font-family="Helvetica" font-size="12.00" text-anchor="middle">
		<text><tspan font-family="Helvetica">Average time (us)</tspan></text>
	</g>
</g>
<g fill="none" color="black" stroke="currentColor" stroke-width="1.00" stroke-linecap="butt" stroke-linejoin="miter">
	<g transform="translate(537.9,31.0)" stroke="none" fill="black" font-family="Helvetica" font-size="12.00" text-anchor="middle">
		<text><tspan font-family="Helvetica">Problem 7/p7_memoize/124782193651078432562974</tspan></text>
	</g>
</g>
	<g id="gnuplot_plot_1"><title>PDF</title>
<g fill="none" color="black" stroke="currentColor" stroke-width="1.00" stroke-linecap="butt" stroke-linejoin="miter">
	<g transform="translate(1147.1,67.0)" stroke="none" fill="black" font-family="Helvetica" font-size="12.00" text-anchor="start">
		<text><tspan font-family="Helvetica">PDF</tspan></text>
	</g>
</g>
<g fill="none" color="black" stroke="currentColor" stroke-width="1.00" stroke-linecap="butt" stroke-linejoin="miter">
	<g stroke="none" shape-rendering="crispEdges">
		<polygon fill="rgb( 31, 120, 180)" fill-opacity="0.250000" points="1096.6,67.6 1138.8,67.6 1138.8,58.6 1096.6,58.6 "/>
		<polygon fill="rgb( 31, 120, 180)" fill-opacity="0.250000" points="63.6,661.8 65.5,661.7 67.4,661.6 69.3,661.5 71.2,661.3 73.1,661.2 75.0,661.0 76.9,660.8 78.8,660.6 80.7,660.4 82.6,660.2 84.5,659.9 86.4,659.6 88.3,659.3 90.2,658.9 92.1,658.5 94.0,658.0 95.9,657.5 97.8,656.9 99.7,656.3 101.6,655.6 103.5,654.9 105.4,654.1 107.3,653.2 109.2,652.2 111.1,651.1 113.0,650.0 114.9,648.7 116.8,647.4 118.7,645.9 120.6,644.3 122.5,642.5 124.4,640.7 126.3,638.6 128.2,636.5 130.1,634.1 132.0,631.6 133.9,628.9 135.8,626.1 137.7,623.0 139.6,619.7 141.5,616.2 143.4,612.5 145.3,608.5 147.2,604.3 149.1,599.9 151.0,595.2 152.9,590.3 154.8,585.1 156.7,579.6 158.7,573.8 160.6,567.7 162.5,561.4 164.4,554.7 166.3,547.8 168.2,540.6 170.1,533.1 172.0,525.3 173.9,517.1 175.8,508.7 177.7,500.1 179.6,491.1 181.5,481.9 183.4,472.3 185.3,462.6 187.2,452.6 189.1,442.3 191.0,431.9 192.9,421.2 194.8,410.3 196.7,399.3 198.6,388.1 200.5,376.8 202.4,365.4 204.3,353.9 206.2,342.3 208.1,330.7 210.0,319.1 211.9,307.4 213.8,295.9 215.7,284.4 217.6,272.9 219.5,261.7 221.4,250.5 223.3,239.6 225.2,228.9 227.1,218.4 229.0,208.2 230.9,198.3 232.8,188.7 234.7,179.5 236.6,170.7 238.5,162.2 240.4,154.2 242.3,146.7 244.2,139.7 246.1,133.1 248.0,127.1 249.9,121.6 251.8,116.6 253.7,112.2 255.6,108.4 257.5,105.2 259.4,102.5 261.3,100.5 263.2,99.1 265.1,98.2 267.0,98.0 268.9,98.3 270.8,99.3 272.7,100.8 274.6,102.9 276.5,105.6 278.4,108.8 280.3,112.5 282.2,116.8 284.1,121.5 286.0,126.7 287.9,132.4 289.8,138.5 291.7,145.0 293.6,151.9 295.5,159.2 297.4,166.8 299.3,174.6 301.2,182.8 303.1,191.2 305.0,199.8 306.9,208.6 308.8,217.6 310.7,226.7 312.6,235.9 314.5,245.2 316.4,254.5 318.3,263.9 320.2,273.2 322.1,282.6 324.0,291.8 325.9,301.1 327.8,310.2 329.7,319.2 331.6,328.1 333.5,336.8 335.4,345.4 337.3,353.8 339.2,362.0 341.1,370.0 343.0,377.8 344.9,385.4 346.8,392.8 348.8,399.9 350.7,406.8 352.6,413.4 354.5,419.8 356.4,425.9 358.3,431.8 360.2,437.4 362.1,442.8 364.0,448.0 365.9,452.9 367.8,457.6 369.7,462.0 371.6,466.2 373.5,470.2 375.4,474.0 377.3,477.6 379.2,480.9 381.1,484.1 383.0,487.1 384.9,489.9 386.8,492.5 388.7,495.0 390.6,497.3 392.5,499.4 394.4,501.5 396.3,503.3 398.2,505.1 400.1,506.7 402.0,508.2 403.9,509.6 405.8,510.9 407.7,512.1 409.6,513.2 411.5,514.2 413.4,515.1 415.3,515.9 417.2,516.7 419.1,517.4 421.0,518.0 422.9,518.5 424.8,519.0 426.7,519.4 428.6,519.7 430.5,520.0 432.4,520.2 434.3,520.3 436.2,520.4 438.1,520.5 440.0,520.5 441.9,520.4 443.8,520.3 445.7,520.1 447.6,519.9 449.5,519.7 451.4,519.4 453.3,519.1 455.2,518.7 457.1,518.3 459.0,517.9 460.9,517.4 462.8,516.9 464.7,516.4 466.6,515.9 468.5,515.4 470.4,514.9 472.3,514.3 474.2,513.8 476.1,513.2 478.0,512.7 479.9,512.2 481.8,511.7 483.7,511.3 485.6,510.9 487.5,510.5 489.4,510.1 491.3,509.9 493.2,509.6 495.1,509.4 497.0,509.3 498.9,509.2 500.8,509.3 502.7,509.4 504.6,509.5 506.5,509.8 508.4,510.1 510.3,510.5 512.2,511.0 514.1,511.6 516.0,512.3 517.9,513.1 519.8,514.0 521.7,515.0 523.6,516.0 525.5,517.2 527.4,518.4 529.3,519.8 531.2,521.2 533.1,522.7 535.0,524.3 536.9,526.0 538.9,527.8 540.8,529.6 542.7,531.5 544.6,533.5 546.5,535.5 548.4,537.6 550.3,539.8 552.2,542.0 554.1,544.3 556.0,546.5 557.9,548.9 559.8,551.2 561.7,553.6 563.6,556.0 565.5,558.5 567.4,560.9 569.3,563.4 571.2,565.8 573.1,568.3 575.0,570.8 576.9,573.2 578.8,575.7 580.7,578.1 582.6,580.5 584.5,582.9 586.4,585.3 588.3,587.7 590.2,590.0 592.1,592.3 594.0,594.6 595.9,596.8 597.8,599.0 599.7,601.2 601.6,603.3 603.5,605.4 605.4,607.5 607.3,609.5 609.2,611.5 611.1,613.4 613.0,615.3 614.9,617.2 616.8,619.0 618.7,620.8 620.6,622.5 622.5,624.2 624.4,625.8 626.3,627.4 628.2,629.0 630.1,630.5 632.0,631.9 633.9,633.4 635.8,634.7 637.7,636.1 639.6,637.4 641.5,638.6 643.4,639.8 645.3,641.0 647.2,642.1 649.1,643.2 651.0,644.2 652.9,645.2 654.8,646.2 656.7,647.1 658.6,648.0 660.5,648.8 662.4,649.7 664.3,650.4 666.2,651.2 668.1,651.9 670.0,652.6 671.9,653.2 673.8,653.8 675.7,654.4 677.6,654.9 679.5,655.4 681.4,655.9 683.3,656.4 685.2,656.8 687.1,657.2 689.0,657.6 690.9,658.0 692.8,658.3 694.7,658.6 696.6,658.9 698.5,659.2 700.4,659.4 702.3,659.7 704.2,659.9 706.1,660.1 708.0,660.3 709.9,660.5 711.8,660.6 713.7,660.7 715.6,660.9 717.5,661.0 719.4,661.1 721.3,661.2 723.2,661.3 725.1,661.3 727.0,661.4 729.0,661.5 730.9,661.5 732.8,661.5 734.7,661.6 736.6,661.6 738.5,661.6 740.4,661.6 742.3,661.6 744.2,661.6 746.1,661.6 748.0,661.5 749.9,661.5 751.8,661.5 753.7,661.4 755.6,661.3 757.5,661.3 759.4,661.2 761.3,661.1 763.2,661.1 765.1,661.0 767.0,660.9 768.9,660.8 770.8,660.7 772.7,660.6 774.6,660.4 776.5,660.3 778.4,660.2 780.3,660.0 782.2,659.9 784.1,659.7 786.0,659.6 787.9,659.4 789.8,659.2 791.7,659.0 793.6,658.9 795.5,658.7 797.4,658.5 799.3,658.3 801.2,658.1 803.1,657.9 805.0,657.7 806.9,657.5 808.8,657.2 810.7,657.0 812.6,656.8 814.5,656.6 816.4,656.4 818.3,656.2 820.2,656.0 822.1,655.8 824.0,655.5 825.9,655.3 827.8,655.1 829.7,655.0 831.6,654.8 833.5,654.6 835.4,654.4 837.3,654.3 839.2,654.1 841.1,654.0 843.0,653.8 844.9,653.7 846.8,653.6 848.7,653.5 850.6,653.4 852.5,653.3 854.4,653.2 856.3,653.2 858.2,653.2 860.1,653.1 862.0,653.1 863.9,653.1 865.8,653.1 867.7,653.2 869.6,653.2 871.5,653.3 873.4,653.3 875.3,653.4 877.2,653.5 879.1,653.6 881.0,653.7 882.9,653.8 884.8,654.0 886.7,654.1 888.6,654.3 890.5,654.4 892.4,654.6 894.3,654.8 896.2,655.0 898.1,655.2 900.0,655.4 901.9,655.6 903.8,655.8 905.7,656.0 907.6,656.2 909.5,656.4 911.4,656.6 913.3,656.9 915.2,657.1 917.1,657.3 919.1,657.5 921.0,657.7 922.9,657.9 924.8,658.1 926.7,658.3 928.6,658.5 930.5,658.7 932.4,658.9 934.3,659.1 936.2,659.3 938.1,659.4 940.0,659.6 941.9,659.8 943.8,659.9 945.7,660.1 947.6,660.2 949.5,660.4 951.4,660.5 953.3,660.6 955.2,660.7 957.1,660.9 959.0,661.0 960.9,661.1 962.8,661.2 964.7,661.3 966.6,661.3 968.5,661.4 970.4,661.5 972.3,661.6 974.2,661.6 976.1,661.7 978.0,661.8 979.9,661.8 981.8,661.9 983.7,661.9 985.6,662.0 987.5,662.0 989.4,662.0 991.3,662.1 993.2,662.1 995.1,662.1 997.0,662.2 998.9,662.2 1000.8,662.2 1002.7,662.2 1004.6,662.2 1006.5,662.3 1008.4,662.3 1010.3,662.3 1012.2,662.3 1012.2,662.4 1010.3,662.4 1008.4,662.4 1006.5,662.4 1004.6,662.4 1002.7,662.4 1000.8,662.4 998.9,662.4 997.0,662.4 995.1,662.4 993.2,662.4 991.3,662.4 989.4,662.4 987.5,662.4 985.6,662.4 983.7,662.4 981.8,662.4 979.9,662.4 978.0,662.4 976.1,662.4 974.2,662.4 972.3,662.4 970.4,662.4 968.5,662.4 966.6,662.4 964.7,662.4 962.8,662.4 960.9,662.4 959.0,662.4 957.1,662.4 955.2,662.4 953.3,662.4 951.4,662.4 949.5,662.4 947.6,662.4 945.7,662.4 943.8,662.4 941.9,662.4 940.0,662.4 938.1,662.4 936.2,662.4 934.3,662.4 932.4,662.4 930.5,662.4 928.6,662.4 926.7,662.4 924.8,662.4 922.9,662.4 921.0,662.4 919.1,662.4 917.1,662.4 915.2,662.4 913.3,662.4 911.4,662.4 909.5,662.4 907.6,662.4 905.7,662.4 903.8,662.4 901.9,662.4 900.0,662.4 898.1,662.4 896.2,662.4 894.3,662.4 892.4,662.4 890.5,662.4 888.6,662.4 886.7,662.4 884.8,662.4 882.9,662.4 881.0,662.4 879.1,662.4 877.2,662.4 875.3,662.4 873.4,662.4 871.5,662.4 869.6,662.4 867.7,662.4 865.8,662.4 863.9,662.4 862.0,662.4 860.1,662.4 858.2,662.4 856.3,662.4 854.4,662.4 852.5,662.4 850.6,662.4 848.7,662.4 846.8,662.4 844.9,662.4 843.0,662.4 841.1,662.4 839.2,662.4 837.3,662.4 835.4,662.4 833.5,662.4 831.6,662.4 829.7,662.4 827.8,662.4 825.9,662.4 824.0,662.4 822.1,662.4 820.2,662.4 818.3,662.4 816.4,662.4 814.5,662.4 812.6,662.4 810.7,662.4 808.8,662.4 806.9,662.4 805.0,662.4 803.1,662.4 801.2,662.4 799.3,662.4 797.4,662.4 795.5,662.4 793.6,662.4 791.7,662.4 789.8,662.4 787.9,662.4 786.0,662.4 784.1,662.4 782.2,662.4 780.3,662.4 778.4,662.4 776.5,662.4 774.6,662.4 772.7,662.4 770.8,662.4 768.9,662.4 767.0,662.4 765.1,662.4 763.2,662.4 761.3,662.4 759.4,662.4 757.5,662.4 755.6,662.4 753.7,662.4 751.8,662.4 749.9,662.4 748.0,662.4 746.1,662.4 744.2,662.4 742.3,662.4 740.4,662.4 738.5,662.4 736.6,662.4 734.7,662.4 732.8,662.4 730.9,662.4 729.0,662.4 727.0,662.4 725.1,662.4 723.2,662.4 721.3,662.4 719.4,662.4 717.5,662.4 715.6,662.4 713.7,662.4 711.8,662.4 709.9,662.4 708.0,662.4 706.1,662.4 704.2,662.4 702.3,662.4 700.4,662.4 698.5,662.4 696.6,662.4 694.7,662.4 692.8,662.4 690.9,662.4 689.0,662.4 687.1,662.4 685.2,662.4 683.3,662.4 681.4,662.4 679.5,662.4 677.6,662.4 675.7,662.4 673.8,662.4 671.9,662.4 670.0,662.4 668.1,662.4 666.2,662.4 664.3,662.4 662.4,662.4 660.5,662.4 658.6,662.4 656.7,662.4 654.8,662.4 652.9,662.4 651.0,662.4 649.1,662.4 647.2,662.4 645.3,662.4 643.4,662.4 641.5,662.4 639.6,662.4 637.7,662.4 635.8,662.4 633.9,662.4 632.0,662.4 630.1,662.4 628.2,662.4 626.3,662.4 624.4,662.4 622.5,662.4 620.6,662.4 618.7,662.4 616.8,662.4 614.9,662.4 613.0,662.4 611.1,662.4 609.2,662.4 607.3,662.4 605.4,662.4 603.5,662.4 601.6,662.4 599.7,662.4 597.8,662.4 595.9,662.4 594.0,662.4 592.1,662.4 590.2,662.4 588.3,662.4 586.4,662.4 584.5,662.4 582.6,662.4 580.7,662.4 578.8,662.4 576.9,662.4 575.0,662.4 573.1,662.4 571.2,662.4 569.3,662.4 567.4,662.4 565.5,662.4 563.6,662.4 561.7,662.4 559.8,662.4 557.9,662.4 556.0,662.4 554.1,662.4 552.2,662.4 550.3,662.4 548.4,662.4 546.5,662.4 544.6,662.4 542.7,662.4 540.8,662.4 538.9,662.4 536.9,662.4 535.0,662.4 533.1,662.4 531.2,662.4 529.3,662.4 527.4,662.4 525.5,662.4 523.6,662.4 521.7,662.4 519.8,662.4 517.9,662.4 516.0,662.4 514.1,662.4 512.2,662.4 510.3,662.4 508.4,662.4 506.5,662.4 504.6,662.4 502.7,662.4 500.8,662.4 498.9,662.4 497.0,662.4 495.1,662.4 493.2,662.4 491.3,662.4 489.4,662.4 487.5,662.4 485.6,662.4 483.7,662.4 481.8,662.4 479.9,662.4 478.0,662.4 476.1,662.4 474.2,662.4 472.3,662.4 470.4,662.4 468.5,662.4 466.6,662.4 464.7,662.4 462.8,662.4 460.9,662.4 459.0,662.4 457.1,662.4 455.2,662.4 453.3,662.4 451.4,662.4 449.5,662.4 447.6,662.4 445.7,662.4 443.8,662.4 441.9,662.4 440.0,662.4 438.1,662.4 436.2,662.4 434.3,662.4 432.4,662.4 430.5,662.4 428.6,662.4 426.7,662.4 424.8,662.4 422.9,662.4 421.0,662.4 419.1,662.4 417.2,662.4 415.3,662.4 413.4,662.4 411.5,662.4 409.6,662.4 407.7,662.4 405.8,662.4 403.9,662.4 402.0,662.4 400.1,662.4 398.2,662.4 396.3,662.4 394.4,662.4 392.5,662.4 390.6,662.4 388.7,662.4 386.8,662.4 384.9,662.4 383.0,662.4 381.1,662.4 379.2,662.4 377.3,662.4 375.4,662.4 373.5,662.4 371.6,662.4 369.7,662.4 367.8,662.4 365.9,662.4 364.0,662.4 362.1,662.4 360.2,662.4 358.3,662.4 356.4,662.4 354.5,662.4 352.6,662.4 350.7,662.4 348.8,662.4 346.8,662.4 344.9,662.4 343.0,662.4 341.1,662.4 339.2,662.4 337.3,662.4 335.4,662.4 333.5,662.4 331.6,662.4 329.7,662.4 327.8,662.4 325.9,662.4 324.0,662.4 322.1,662.4 320.2,662.4 318.3,662.4 316.4,662.4 314.5,662.4 312.6,662.4 310.7,662.4 308.8,662.4 306.9,662.4 305.0,662.4 303.1,662.4 301.2,662.4 299.3,662.4 297.4,662.4 295.5,662.4 293.6,662.4 291.7,662.4 289.8,662.4 287.9,662.4 286.0,662.4 284.1,662.4 282.2,662.4 280.3,662.4 278.4,662.4 276.5,662.4 274.6,662.4 272.7,662.4 270.8,662.4 268.9,662.4 267.0,662.4 265.1,662.4 263.2,662.4 261.3,662.4 259.4,662.4 257.5,662.4 255.6,662.4 253.7,662.4 251.8,662.4 249.9,662.4 248.0,662.4 246.1,662.4 244.2,662.4 242.3,662.4 240.4,662.4 238.5,662.4 236.6,662.4 234.7,662.4 232.8,662.4 230.9,662.4 229.0,662.4 227.1,662.4 225.2,662.4 223.3,662.4 221.4,662.4 219.5,662.4 217.6,662.4 215.7,662.4 213.8,662.4 211.9,662.4 210.0,662.4 208.1,662.4 206.2,662.4 204.3,662.4 202.4,662.4 200.5,662.4 198.6,662.4 196.7,662.4 194.8,662.4 192.9,662.4 191.0,662.4 189.1,662.4 187.2,662.4 185.3,662.4 183.4,662.4 181.5,662.4 179.6,662.4 177.7,662.4 175.8,662.4 173.9,662.4 172.0,662.4 170.1,662.4 168.2,662.4 166.3,662.4 164.4,662.4 162.5,662.4 160.6,662.4 158.7,662.4 156.7,662.4 154.8,662.4 152.9,662.4 151.0,662.4 149.1,662.4 147.2,662.4 145.3,662.4 143.4,662.4 141.5,662.4 139.6,662.4 137.7,662.4 135.8,662.4 133.9,662.4 132.0,662.4 130.1,662.4 128.2,662.4 126.3,662.4 124.4,662.4 122.5,662.4 120.6,662.4 118.7,662.4 116.8,662.4 114.9,662.4 113.0,662.4 111.1,662.4 109.2,662.4 107.3,662.4 105.4,662.4 103.5,662.4 101.6,662.4 99.7,662.4 97.8,662.4 95.9,662.4 94.0,662.4 92.1,662.4 90.2,662.4 88.3,662.4 86.4,662.4 84.5,662.4 82.6,662.4 80.7,662.4 78.8,662.4 76.9,662.4 75.0,662.4 73.1,662.4 71.2,662.4 69.3,662.4 67.4,662.4 65.5,662.4 63.6,662.4 "/>
	</g>
</g>
	</g>
	<g id="gnuplot_plot_2"><title>Mean</title>
<g fill="none" color="white" stroke="rgb( 31, 120, 180)" stroke-width="2.00" stroke-linecap="butt" stroke-linejoin="miter">
</g>
<g fill="none" color="black" stroke="currentColor" stroke-width="2.00" stroke-linecap="butt" stroke-linejoin="miter">
	<g transform="translate(1147.1,85.0)" stroke="none" fill="black" font-family="Helvetica" font-size="12.00" text-anchor="start">
		<text><tspan font-family="Helvetica">Mean</tspan></text>
	</g>
</g>
<g fill="none" color="black" stroke="currentColor" stroke-width="2.00" stroke-linecap="butt" stroke-linejoin="miter">
	<path stroke="rgb( 31, 120, 180)" d="M1096.6,81.1 L1138.8,81.1 M336.3,662.4 L336.3,54.1  "/></g>
	</g>
	<g id="gnuplot_plot_3"><title>"Clean" sample</title>
<g fill="none" color="white" stroke="rgb( 31, 120, 180)" stroke-width="1.00" stroke-linecap="butt" stroke-linejoin="miter">
</g>
<g fill="none" color="black" stroke="currentColor" stroke-width="1.00" stroke-linecap="butt" stroke-linejoin="miter">
	<g transform="translate(1147.1,103.0)" stroke="none" fill="black" font-family="Helvetica" font-size="12.00" text-anchor="start">
		<text><tspan font-family="Helvetica">"Clean" sample</tspan></text>
	</g>
</g>
<g fill="none" color="black" stroke="currentColor" stroke-width="1.00" stroke-linecap="butt" stroke-linejoin="miter">
	<use xlink:href="#gpPt6" transform="translate(285.9,656.3) scale(3.38)" color="rgb( 31, 120, 180)"/>
	<use xlink:href="#gpPt6" transform="translate(226.8,650.2) scale(3.38)" color="rgb( 31, 120, 180)"/>
	<use xlink:href="#gpPt6" transform="translate(234.0,644.2) scale(3.38)" color="rgb( 31, 120, 180)"/>
	<use xlink:href="#gpPt6" transform="translate(271.2,638.1) scale(3.38)" color="rgb( 31, 120, 180)"/>
	<use xlink:href="#gpPt6" transform="translate(276.5,632.0) scale(3.38)" color="rgb( 31, 120, 180)"/>
	<use xlink:href="#gpPt6" transform="translate(221.0,625.9) scale(3.38)" color="rgb( 31, 120, 180)"/>
	<use xlink:href="#gpPt6" transform="translate(251.6,619.8) scale(3.38)" color="rgb( 31, 120, 180)"/>
	<use xlink:href="#gpPt6" transform="translate(242.3,613.7) scale(3.38)" color="rgb( 31, 120, 180)"/>
	<use xlink:href="#gpPt6" transform="translate(268.8,607.7) scale(3.38)" color="rgb( 31, 120, 180)"/>
	<use xlink:href="#gpPt6" transform="translate(278.5,601.6) scale(3.38)" color="rgb( 31, 120, 180)"/>
	<use xlink:href="#gpPt6" transform="translate(275.5,595.5) scale(3.38)" color="rgb( 31, 120, 180)"/>
	<use xlink:href="#gpPt6" transform="translate(235.6,589.4) scale(3.38)" color="rgb( 31, 120, 180)"/>
	<use xlink:href="#gpPt6" transform="translate(233.3,583.3) scale(3.38)" color="rgb( 31, 120, 180)"/>
	<use xlink:href="#gpPt6" transform="translate(213.0,577.2) scale(3.38)" color="rgb( 31, 120, 180)"/>
	<use xlink:href="#gpPt6" transform="translate(269.0,571.2) scale(3.38)" color="rgb( 31, 120, 180)"/>
	<use xlink:href="#gpPt6" transform="translate(260.7,565.1) scale(3.38)" color="rgb( 31, 120, 180)"/>
	<use xlink:href="#gpPt6" transform="translate(241.1,559.0) scale(3.38)" color="rgb( 31, 120, 180)"/>
	<use xlink:href="#gpPt6" transform="translate(236.7,552.9) scale(3.38)" color="rgb( 31, 120, 180)"/>
	<use xlink:href="#gpPt6" transform="translate(241.0,546.8) scale(3.38)" color="rgb( 31, 120, 180)"/>
	<use xlink:href="#gpPt6" transform="translate(240.6,540.7) scale(3.38)" color="rgb( 31, 120, 180)"/>
	<use xlink:href="#gpPt6" transform="translate(260.5,534.7) scale(3.38)" color="rgb( 31, 120, 180)"/>
	<use xlink:href="#gpPt6" transform="translate(273.3,528.6) scale(3.38)" color="rgb( 31, 120, 180)"/>
	<use xlink:href="#gpPt6" transform="translate(237.8,522.5) scale(3.38)" color="rgb( 31, 120, 180)"/>
	<use xlink:href="#gpPt6" transform="translate(261.1,516.4) scale(3.38)" color="rgb( 31, 120, 180)"/>
	<use xlink:href="#gpPt6" transform="translate(411.6,510.3) scale(3.38)" color="rgb( 31, 120, 180)"/>
	<use xlink:href="#gpPt6" transform="translate(428.3,504.2) scale(3.38)" color="rgb( 31, 120, 180)"/>
	<use xlink:href="#gpPt6" transform="translate(592.1,492.1) scale(3.38)" color="rgb( 31, 120, 180)"/>
	<use xlink:href="#gpPt6" transform="translate(518.6,486.0) scale(3.38)" color="rgb( 31, 120, 180)"/>
	<use xlink:href="#gpPt6" transform="translate(520.5,479.9) scale(3.38)" color="rgb( 31, 120, 180)"/>
	<use xlink:href="#gpPt6" transform="translate(389.9,473.8) scale(3.38)" color="rgb( 31, 120, 180)"/>
	<use xlink:href="#gpPt6" transform="translate(291.4,467.7) scale(3.38)" color="rgb( 31, 120, 180)"/>
	<use xlink:href="#gpPt6" transform="translate(281.0,461.7) scale(3.38)" color="rgb( 31, 120, 180)"/>
	<use xlink:href="#gpPt6" transform="translate(300.6,455.6) scale(3.38)" color="rgb( 31, 120, 180)"/>
	<use xlink:href="#gpPt6" transform="translate(291.0,449.5) scale(3.38)" color="rgb( 31, 120, 180)"/>
	<use xlink:href="#gpPt6" transform="translate(310.2,443.4) scale(3.38)" color="rgb( 31, 120, 180)"/>
	<use xlink:href="#gpPt6" transform="translate(265.9,437.3) scale(3.38)" color="rgb( 31, 120, 180)"/>
	<use xlink:href="#gpPt6" transform="translate(248.9,431.2) scale(3.38)" color="rgb( 31, 120, 180)"/>
	<use xlink:href="#gpPt6" transform="translate(277.0,425.2) scale(3.38)" color="rgb( 31, 120, 180)"/>
	<use xlink:href="#gpPt6" transform="translate(256.7,419.1) scale(3.38)" color="rgb( 31, 120, 180)"/>
	<use xlink:href="#gpPt6" transform="translate(408.6,413.0) scale(3.38)" color="rgb( 31, 120, 180)"/>
	<use xlink:href="#gpPt6" transform="translate(504.9,406.9) scale(3.38)" color="rgb( 31, 120, 180)"/>
	<use xlink:href="#gpPt6" transform="translate(591.5,400.8) scale(3.38)" color="rgb( 31, 120, 180)"/>
	<use xlink:href="#gpPt6" transform="translate(475.9,394.7) scale(3.38)" color="rgb( 31, 120, 180)"/>
	<use xlink:href="#gpPt6" transform="translate(422.6,388.7) scale(3.38)" color="rgb( 31, 120, 180)"/>
	<use xlink:href="#gpPt6" transform="translate(273.0,382.6) scale(3.38)" color="rgb( 31, 120, 180)"/>
	<use xlink:href="#gpPt6" transform="translate(281.7,376.5) scale(3.38)" color="rgb( 31, 120, 180)"/>
	<use xlink:href="#gpPt6" transform="translate(265.0,370.4) scale(3.38)" color="rgb( 31, 120, 180)"/>
	<use xlink:href="#gpPt6" transform="translate(306.7,364.3) scale(3.38)" color="rgb( 31, 120, 180)"/>
	<use xlink:href="#gpPt6" transform="translate(280.0,358.2) scale(3.38)" color="rgb( 31, 120, 180)"/>
	<use xlink:href="#gpPt6" transform="translate(263.0,352.2) scale(3.38)" color="rgb( 31, 120, 180)"/>
	<use xlink:href="#gpPt6" transform="translate(301.8,346.1) scale(3.38)" color="rgb( 31, 120, 180)"/>
	<use xlink:href="#gpPt6" transform="translate(594.9,340.0) scale(3.38)" color="rgb( 31, 120, 180)"/>
	<use xlink:href="#gpPt6" transform="translate(525.3,333.9) scale(3.38)" color="rgb( 31, 120, 180)"/>
	<use xlink:href="#gpPt6" transform="translate(485.8,327.8) scale(3.38)" color="rgb( 31, 120, 180)"/>
	<use xlink:href="#gpPt6" transform="translate(306.1,321.8) scale(3.38)" color="rgb( 31, 120, 180)"/>
	<use xlink:href="#gpPt6" transform="translate(268.9,315.7) scale(3.38)" color="rgb( 31, 120, 180)"/>
	<use xlink:href="#gpPt6" transform="translate(266.7,309.6) scale(3.38)" color="rgb( 31, 120, 180)"/>
	<use xlink:href="#gpPt6" transform="translate(232.1,303.5) scale(3.38)" color="rgb( 31, 120, 180)"/>
	<use xlink:href="#gpPt6" transform="translate(230.8,297.4) scale(3.38)" color="rgb( 31, 120, 180)"/>
	<use xlink:href="#gpPt6" transform="translate(266.7,291.3) scale(3.38)" color="rgb( 31, 120, 180)"/>
	<use xlink:href="#gpPt6" transform="translate(384.0,285.3) scale(3.38)" color="rgb( 31, 120, 180)"/>
	<use xlink:href="#gpPt6" transform="translate(524.8,279.2) scale(3.38)" color="rgb( 31, 120, 180)"/>
	<use xlink:href="#gpPt6" transform="translate(463.1,273.1) scale(3.38)" color="rgb( 31, 120, 180)"/>
	<use xlink:href="#gpPt6" transform="translate(289.2,267.0) scale(3.38)" color="rgb( 31, 120, 180)"/>
	<use xlink:href="#gpPt6" transform="translate(261.3,260.9) scale(3.38)" color="rgb( 31, 120, 180)"/>
	<use xlink:href="#gpPt6" transform="translate(237.2,254.8) scale(3.38)" color="rgb( 31, 120, 180)"/>
	<use xlink:href="#gpPt6" transform="translate(256.9,248.8) scale(3.38)" color="rgb( 31, 120, 180)"/>
	<use xlink:href="#gpPt6" transform="translate(400.5,242.7) scale(3.38)" color="rgb( 31, 120, 180)"/>
	<use xlink:href="#gpPt6" transform="translate(325.9,236.6) scale(3.38)" color="rgb( 31, 120, 180)"/>
	<use xlink:href="#gpPt6" transform="translate(528.9,230.5) scale(3.38)" color="rgb( 31, 120, 180)"/>
	<use xlink:href="#gpPt6" transform="translate(460.1,224.4) scale(3.38)" color="rgb( 31, 120, 180)"/>
	<use xlink:href="#gpPt6" transform="translate(305.2,218.3) scale(3.38)" color="rgb( 31, 120, 180)"/>
	<use xlink:href="#gpPt6" transform="translate(269.8,212.3) scale(3.38)" color="rgb( 31, 120, 180)"/>
	<use xlink:href="#gpPt6" transform="translate(253.2,206.2) scale(3.38)" color="rgb( 31, 120, 180)"/>
	<use xlink:href="#gpPt6" transform="translate(241.5,200.1) scale(3.38)" color="rgb( 31, 120, 180)"/>
	<use xlink:href="#gpPt6" transform="translate(269.7,194.0) scale(3.38)" color="rgb( 31, 120, 180)"/>
	<use xlink:href="#gpPt6" transform="translate(539.1,187.9) scale(3.38)" color="rgb( 31, 120, 180)"/>
	<use xlink:href="#gpPt6" transform="translate(507.8,181.8) scale(3.38)" color="rgb( 31, 120, 180)"/>
	<use xlink:href="#gpPt6" transform="translate(284.2,175.8) scale(3.38)" color="rgb( 31, 120, 180)"/>
	<use xlink:href="#gpPt6" transform="translate(250.8,169.7) scale(3.38)" color="rgb( 31, 120, 180)"/>
	<use xlink:href="#gpPt6" transform="translate(370.6,163.6) scale(3.38)" color="rgb( 31, 120, 180)"/>
	<use xlink:href="#gpPt6" transform="translate(245.8,157.5) scale(3.38)" color="rgb( 31, 120, 180)"/>
	<use xlink:href="#gpPt6" transform="translate(324.4,151.4) scale(3.38)" color="rgb( 31, 120, 180)"/>
	<use xlink:href="#gpPt6" transform="translate(511.5,145.3) scale(3.38)" color="rgb( 31, 120, 180)"/>
	<use xlink:href="#gpPt6" transform="translate(383.9,139.3) scale(3.38)" color="rgb( 31, 120, 180)"/>
	<use xlink:href="#gpPt6" transform="translate(238.8,133.2) scale(3.38)" color="rgb( 31, 120, 180)"/>
	<use xlink:href="#gpPt6" transform="translate(248.7,127.1) scale(3.38)" color="rgb( 31, 120, 180)"/>
	<use xlink:href="#gpPt6" transform="translate(283.6,121.0) scale(3.38)" color="rgb( 31, 120, 180)"/>
	<use xlink:href="#gpPt6" transform="translate(275.6,114.9) scale(3.38)" color="rgb( 31, 120, 180)"/>
	<use xlink:href="#gpPt6" transform="translate(493.9,108.8) scale(3.38)" color="rgb( 31, 120, 180)"/>
	<use xlink:href="#gpPt6" transform="translate(422.9,102.8) scale(3.38)" color="rgb( 31, 120, 180)"/>
	<use xlink:href="#gpPt6" transform="translate(271.9,96.7) scale(3.38)" color="rgb( 31, 120, 180)"/>
	<use xlink:href="#gpPt6" transform="translate(334.4,90.6) scale(3.38)" color="rgb( 31, 120, 180)"/>
	<use xlink:href="#gpPt6" transform="translate(244.8,84.5) scale(3.38)" color="rgb( 31, 120, 180)"/>
	<use xlink:href="#gpPt6" transform="translate(308.3,78.4) scale(3.38)" color="rgb( 31, 120, 180)"/>
	<use xlink:href="#gpPt6" transform="translate(526.5,72.3) scale(3.38)" color="rgb( 31, 120, 180)"/>
	<use xlink:href="#gpPt6" transform="translate(382.4,66.3) scale(3.38)" color="rgb( 31, 120, 180)"/>
	<use xlink:href="#gpPt6" transform="translate(337.1,60.2) scale(3.38)" color="rgb( 31, 120, 180)"/>
	<use xlink:href="#gpPt6" transform="translate(533.2,54.1) scale(3.38)" color="rgb( 31, 120, 180)"/>
	<use xlink:href="#gpPt6" transform="translate(1117.7,99.1) scale(3.38)" color="rgb( 31, 120, 180)"/>
</g>
	</g>
	<g id="gnuplot_plot_4"><title>Severe outliers</title>
<g fill="none" color="black" stroke="currentColor" stroke-width="1.00" stroke-linecap="butt" stroke-linejoin="miter">
	<g transform="translate(1147.1,121.0)" stroke="none" fill="black" font-family="Helvetica" font-size="12.00" text-anchor="start">
		<text><tspan font-family="Helvetica">Severe outliers</tspan></text>
	</g>
</g>
<g fill="none" color="black" stroke="currentColor" stroke-width="1.00" stroke-linecap="butt" stroke-linejoin="miter">
	<use xlink:href="#gpPt6" transform="translate(862.8,498.2) scale(3.38)" color="rgb(227,  26,  28)"/>
	<use xlink:href="#gpPt6" transform="translate(1117.7,117.1) scale(3.38)" color="rgb(227,  26,  28)"/>
</g>
	</g>
	<g id="gnuplot_plot_5"><title>gnuplot_plot_5</title>
<g fill="none" color="white" stroke="rgb(227,  26,  28)" stroke-width="2.00" stroke-linecap="butt" stroke-linejoin="miter">
</g>
<g fill="none" color="black" stroke="currentColor" stroke-width="2.00" stroke-linecap="butt" stroke-linejoin="miter">
</g>
	</g>
	<g id="gnuplot_plot_6"><title>gnuplot_plot_6</title>
<g fill="none" color="black" stroke="currentColor" stroke-width="2.00" stroke-linecap="butt" stroke-linejoin="miter">
	<path stroke="rgb(255, 127,   0)" d="M621.2,662.4 L621.2,54.1  "/></g>
	</g>
	<g id="gnuplot_plot_7"><title>gnuplot_plot_7</title>
<g fill="none" color="black" stroke="currentColor" stroke-width="2.00" stroke-linecap="butt" stroke-linejoin="miter">
</g>
	</g>
	<g id="gnuplot_plot_8"><title>gnuplot_plot_8</title>
<g fill="none" color="black" stroke="currentColor" stroke-width="2.00" stroke-linecap="butt" stroke-linejoin="miter">
	<path stroke="rgb(227,  26,  28)" d="M839.8,662.4 L839.8,54.1  "/></g>
	</g>
<g fill="none" color="black" stroke="currentColor" stroke-width="2.00" stroke-linecap="butt" stroke-linejoin="miter">
</g>
<g fill="none" color="black" stroke="black" stroke-width="1.00" stroke-linecap="butt" stroke-linejoin="miter">
</g>
<g fill="none" color="black" stroke="currentColor" stroke-width="1.00" stroke-linecap="butt" stroke-linejoin="miter">
	<path stroke="black" d="M63.6,54.1 L63.6,662.4 L1012.2,662.4 L1012.2,54.1 L63.6,54.1 Z  "/></g>
<g fill="none" color="black" stroke="currentColor" stroke-width="1.00" stroke-linecap="butt" stroke-linejoin="miter">
</g>
</g>
</svg>