<?xml version="1.0" encoding="UTF-8" standalone="no"?>
<svg viewBox="0 0 1280 720" xmlns="http://www.w3.org/2000/svg" xmlns:xlink="http://www.w3.org/1999/xlink">

<title>Gnuplot</title>
<desc>Produced by GNUPLOT 5.2 patchlevel 2 </desc>

<g id="gnuplot_canvas">

<rect x="0" y="0" width="1280" height="720" fill="none"/>
<defs>

	<circle id="gpDot" r="0.5" stroke-width="0.5"/>
	<path id="gpPt0" stroke-width="0.222" stroke="currentColor" d="M-1,0 h2 M0,-1 v2"/>
	<path id="gpPt1" stroke-width="0.222" stroke="currentColor" d="M-1,-1 L1,1 M1,-1 L-1,1"/>
	<path id="gpPt2" stroke-width="0.222" stroke="currentColor" d="M-1,0 L1,0 M0,-1 L0,1 M-1,-1 L1,1 M-1,1 L1,-1"/>
	<rect id="gpPt3" stroke-width="0.222" stroke="currentColor" x="-1" y="-1" width="2" height="2"/>
	<rect id="gpPt4" stroke-width="0.222" stroke="currentColor" fill="currentColor" x="-1" y="-1" width="2" height="2"/>
	<circle id="gpPt5" stroke-width="0.222" stroke="currentColor" cx="0" cy="0" r="1"/>
	<use xlink:href="#gpPt5" id="gpPt6" fill="currentColor" stroke="none"/>
	<path id="gpPt7" stroke-width="0.222" stroke="currentColor" d="M0,-1.33 L-1.33,0.67 L1.33,0.67 z"/>
	<use xlink:href="#gpPt7" id="gpPt8" fill="currentColor" stroke="none"/>
	<use xlink:href="#gpPt7" id="gpPt9" stroke="currentColor" transform="rotate(180)"/>
	<use xlink:href="#gpPt9" id="gpPt10" fill="currentColor" stroke="none"/>
	<use xlink:href="#gpPt3" id="gpPt11" stroke="currentColor" transform="rotate(45)"/>
	<use xlink:href="#gpPt11" id="gpPt12" fill="currentColor" stroke="none"/>
	<path id="gpPt13" stroke-width="0.222" stroke="currentColor" d="M0,1.330 L1.265,0.411 L0.782,-1.067 L-0.782,-1.076 L-1.265,0.411 z"/>
	<use xlink:href="#gpPt13" id="gpPt14" fill="currentColor" stroke="none"/>
	<filter id="textbox" filterUnits="objectBoundingBox" x="0" y="0" height="1" width="1">
	  <feFlood flood-color="white" flood-opacity="1" result="bgnd"/>
	  <feComposite in="SourceGraphic" in2="bgnd" operator="atop"/>
	</filter>
	<filter id="greybox" filterUnits="objectBoundingBox" x="0" y="0" height="1" width="1">
	  <feFlood flood-color="lightgrey" flood-opacity="1" result="grey"/>
	  <feComposite in="SourceGraphic" in2="grey" operator="atop"/>
	</filter>
</defs>
<g fill="none" color="white" stroke="currentColor" stroke-width="1.00" stroke-linecap="butt" stroke-linejoin="miter">
</g>
<g fill="none" color="black" stroke="currentColor" stroke-width="1.00" stroke-linecap="butt" stroke-linejoin="miter">
	<path stroke="black" d="M63.6,662.4 L72.6,662.4  "/>	<g transform="translate(55.3,666.3)" stroke="none" fill="black" font-family="Helvetica" font-size="12.00" text-anchor="end">
		<text><tspan font-family="Helvetica"> 0</tspan></text>
	</g>
</g>
<g fill="none" color="black" stroke="currentColor" stroke-width="1.00" stroke-linecap="butt" stroke-linejoin="miter">
	<path stroke="black" d="M63.6,598.7 L72.6,598.7  "/>	<g transform="translate(55.3,602.6)" stroke="none" fill="black" font-family="Helvetica" font-size="12.00" text-anchor="end">
		<text><tspan font-family="Helvetica"> 2</tspan></text>
	</g>
</g>
<g fill="none" color="black" stroke="currentColor" stroke-width="1.00" stroke-linecap="butt" stroke-linejoin="miter">
	<path stroke="black" d="M63.6,535.0 L72.6,535.0  "/>	<g transform="translate(55.3,538.9)" stroke="none" fill="black" font-family="Helvetica" font-size="12.00" text-anchor="end">
		<text><tspan font-family="Helvetica"> 4</tspan></text>
	</g>
</g>
<g fill="none" color="black" stroke="currentColor" stroke-width="1.00" stroke-linecap="butt" stroke-linejoin="miter">
	<path stroke="black" d="M63.6,471.3 L72.6,471.3  "/>	<g transform="translate(55.3,475.2)" stroke="none" fill="black" font-family="Helvetica" font-size="12.00" text-anchor="end">
		<text><tspan font-family="Helvetica"> 6</tspan></text>
	</g>
</g>
<g fill="none" color="black" stroke="currentColor" stroke-width="1.00" stroke-linecap="butt" stroke-linejoin="miter">
	<path stroke="black" d="M63.6,407.6 L72.6,407.6  "/>	<g transform="translate(55.3,411.5)" stroke="none" fill="black" font-family="Helvetica" font-size="12.00" text-anchor="end">
		<text><tspan font-family="Helvetica"> 8</tspan></text>
	</g>
</g>
<g fill="none" color="black" stroke="currentColor" stroke-width="1.00" stroke-linecap="butt" stroke-linejoin="miter">
	<path stroke="black" d="M63.6,343.9 L72.6,343.9  "/>	<g transform="translate(55.3,347.8)" stroke="none" fill="black" font-family="Helvetica" font-size="12.00" text-anchor="end">
		<text><tspan font-family="Helvetica"> 10</tspan></text>
	</g>
</g>
<g fill="none" color="black" stroke="currentColor" stroke-width="1.00" stroke-linecap="butt" stroke-linejoin="miter">
	<path stroke="black" d="M63.6,280.2 L72.6,280.2  "/>	<g transform="translate(55.3,284.1)" stroke="none" fill="black" font-family="Helvetica" font-size="12.00" text-anchor="end">
		<text><tspan font-family="Helvetica"> 12</tspan></text>
	</g>
</g>
<g fill="none" color="black" stroke="currentColor" stroke-width="1.00" stroke-linecap="butt" stroke-linejoin="miter">
	<path stroke="black" d="M63.6,216.5 L72.6,216.5  "/>	<g transform="translate(55.3,220.4)" stroke="none" fill="black" font-family="Helvetica" font-size="12.00" text-anchor="end">
		<text><tspan font-family="Helvetica"> 14</tspan></text>
	</g>
</g>
<g fill="none" color="black" stroke="currentColor" stroke-width="1.00" stroke-linecap="butt" stroke-linejoin="miter">
	<path stroke="black" d="M63.6,152.8 L72.6,152.8  "/>	<g transform="translate(55.3,156.7)" stroke="none" fill="black" font-family="Helvetica" font-size="12.00" text-anchor="end">
		<text><tspan font-family="Helvetica"> 16</tspan></text>
	</g>
</g>
<g fill="none" color="black" stroke="currentColor" stroke-width="1.00" stroke-linecap="butt" stroke-linejoin="miter">
	<path stroke="black" d="M63.6,89.1 L72.6,89.1  "/>	<g transform="translate(55.3,93.0)" stroke="none" fill="black" font-family="Helvetica" font-size="12.00" text-anchor="end">
		<text><tspan font-family="Helvetica"> 18</tspan></text>
	</g>
</g>
<g fill="none" color="black" stroke="currentColor" stroke-width="1.00" stroke-linecap="butt" stroke-linejoin="miter">
	<path stroke="black" d="M126.6,662.4 L126.6,653.4  "/>	<g transform="translate(126.6,684.3)" stroke="none" fill="black" font-family="Helvetica" font-size="12.00" text-anchor="middle">
		<text><tspan font-family="Helvetica"> 5.1</tspan></text>
	</g>
</g>
<g fill="none" color="black" stroke="currentColor" stroke-width="1.00" stroke-linecap="butt" stroke-linejoin="miter">
	<path stroke="black" d="M225.7,662.4 L225.7,653.4  "/>	<g transform="translate(225.7,684.3)" stroke="none" fill="black" font-family="Helvetica" font-size="12.00" text-anchor="middle">
		<text><tspan font-family="Helvetica"> 5.15</tspan></text>
	</g>
</g>
<g fill="none" color="black" stroke="currentColor" stroke-width="1.00" stroke-linecap="butt" stroke-linejoin="miter">
	<path stroke="black" d="M324.8,662.4 L324.8,653.4  "/>	<g transform="translate(324.8,684.3)" stroke="none" fill="black" font-family="Helvetica" font-size="12.00" text-anchor="middle">
		<text><tspan font-family="Helvetica"> 5.2</tspan></text>
	</g>
</g>
<g fill="none" color="black" stroke="currentColor" stroke-width="1.00" stroke-linecap="butt" stroke-linejoin="miter">
	<path stroke="black" d="M423.9,662.4 L423.9,653.4  "/>	<g transform="translate(423.9,684.3)" stroke="none" fill="black" font-family="Helvetica" font-size="12.00" text-anchor="middle">
		<text><tspan font-family="Helvetica"> 5.25</tspan></text>
	</g>
</g>
<g fill="none" color="black" stroke="currentColor" stroke-width="1.00" stroke-linecap="butt" stroke-linejoin="miter">
	<path stroke="black" d="M523.0,662.4 L523.0,653.4  "/>	<g transform="translate(523.0,684.3)" stroke="none" fill="black" font-family="Helvetica" font-size="12.00" text-anchor="middle">
		<text><tspan font-family="Helvetica"> 5.3</tspan></text>
	</g>
</g>
<g fill="none" color="black" stroke="currentColor" stroke-width="1.00" stroke-linecap="butt" stroke-linejoin="miter">
	<path stroke="black" d="M622.1,662.4 L622.1,653.4  "/>	<g transform="translate(622.1,684.3)" stroke="none" fill="black" font-family="Helvetica" font-size="12.00" text-anchor="middle">
		<text><tspan font-family="Helvetica"> 5.35</tspan></text>
	</g>
</g>
<g fill="none" color="black" stroke="currentColor" stroke-width="1.00" stroke-linecap="butt" stroke-linejoin="miter">
	<path stroke="black" d="M721.3,662.4 L721.3,653.4  "/>	<g transform="translate(721.3,684.3)" stroke="none" fill="black" font-family="Helvetica" font-size="12.00" text-anchor="middle">
		<text><tspan font-family="Helvetica"> 5.4</tspan></text>
	</g>
</g>
<g fill="none" color="black" stroke="currentColor" stroke-width="1.00" stroke-linecap="butt" stroke-linejoin="miter">
	<path stroke="black" d="M820.4,662.4 L820.4,653.4  "/>	<g transform="translate(820.4,684.3)" stroke="none" fill="black" font-family="Helvetica" font-size="12.00" text-anchor="middle">
		<text><tspan font-family="Helvetica"> 5.45</tspan></text>
	</g>
</g>
<g fill="none" color="black" stroke="currentColor" stroke-width="1.00" stroke-linecap="butt" stroke-linejoin="miter">
	<path stroke="black" d="M919.5,662.4 L919.5,653.4  "/>	<g transform="translate(919.5,684.3)" stroke="none" fill="black" font-family="Helvetica" font-size="12.00" text-anchor="middle">
		<text><tspan font-family="Helvetica"> 5.5</tspan></text>
	</g>
</g>
<g fill="none" color="black" stroke="currentColor" stroke-width="1.00" stroke-linecap="butt" stroke-linejoin="miter">
	<path stroke="black" d="M1018.6,662.4 L1018.6,653.4  "/>	<g transform="translate(1018.6,684.3)" stroke="none" fill="black" font-family="Helvetica" font-size="12.00" text-anchor="middle">
		<text><tspan font-family="Helvetica"> 5.55</tspan></text>
	</g>
</g>
<g fill="none" color="black" stroke="currentColor" stroke-width="1.00" stroke-linecap="butt" stroke-linejoin="miter">
	<path stroke="black" d="M1020.5,662.4 L1011.5,662.4  "/>	<g transform="translate(1028.8,666.3)" stroke="none" fill="black" font-family="Helvetica" font-size="12.00" text-anchor="start">
		<text><tspan font-family="Helvetica"> 0</tspan></text>
	</g>
</g>
<g fill="none" color="black" stroke="currentColor" stroke-width="1.00" stroke-linecap="butt" stroke-linejoin="miter">
	<path stroke="black" d="M1020.5,586.4 L1011.5,586.4  "/>	<g transform="translate(1028.8,590.3)" stroke="none" fill="black" font-family="Helvetica" font-size="12.00" text-anchor="start">
		<text><tspan font-family="Helvetica"> 1</tspan></text>
	</g>
</g>
<g fill="none" color="black" stroke="currentColor" stroke-width="1.00" stroke-linecap="butt" stroke-linejoin="miter">
	<path stroke="black" d="M1020.5,510.3 L1011.5,510.3  "/>	<g transform="translate(1028.8,514.2)" stroke="none" fill="black" font-family="Helvetica" font-size="12.00" text-anchor="start">
		<text><tspan font-family="Helvetica"> 2</tspan></text>
	</g>
</g>
<g fill="none" color="black" stroke="currentColor" stroke-width="1.00" stroke-linecap="butt" stroke-linejoin="miter">
	<path stroke="black" d="M1020.5,434.3 L1011.5,434.3  "/>	<g transform="translate(1028.8,438.2)" stroke="none" fill="black" font-family="Helvetica" font-size="12.00" text-anchor="start">
		<text><tspan font-family="Helvetica"> 3</tspan></text>
	</g>
</g>
<g fill="none" color="black" stroke="currentColor" stroke-width="1.00" stroke-linecap="butt" stroke-linejoin="miter">
	<path stroke="black" d="M1020.5,358.2 L1011.5,358.2  "/>	<g transform="translate(1028.8,362.1)" stroke="none" fill="black" font-family="Helvetica" font-size="12.00" text-anchor="start">
		<text><tspan font-family="Helvetica"> 4</tspan></text>
	</g>
</g>
<g fill="none" color="black" stroke="currentColor" stroke-width="1.00" stroke-linecap="butt" stroke-linejoin="miter">
	<path stroke="black" d="M1020.5,282.2 L1011.5,282.2  "/>	<g transform="translate(1028.8,286.1)" stroke="none" fill="black" font-family="Helvetica" font-size="12.00" text-anchor="start">
		<text><tspan font-family="Helvetica"> 5</tspan></text>
	</g>
</g>
<g fill="none" color="black" stroke="currentColor" stroke-width="1.00" stroke-linecap="butt" stroke-linejoin="miter">
	<path stroke="black" d="M1020.5,206.2 L1011.5,206.2  "/>	<g transform="translate(1028.8,210.1)" stroke="none" fill="black" font-family="Helvetica" font-size="12.00" text-anchor="start">
		<text><tspan font-family="Helvetica"> 6</tspan></text>
	</g>
</g>
<g fill="none" color="black" stroke="currentColor" stroke-width="1.00" stroke-linecap="butt" stroke-linejoin="miter">
	<path stroke="black" d="M1020.5,130.1 L1011.5,130.1  "/>	<g transform="translate(1028.8,134.0)" stroke="none" fill="black" font-family="Helvetica" font-size="12.00" text-anchor="start">
		<text><tspan font-family="Helvetica"> 7</tspan></text>
	</g>
</g>
<g fill="none" color="black" stroke="currentColor" stroke-width="1.00" stroke-linecap="butt" stroke-linejoin="miter">
	<path stroke="black" d="M1020.5,54.1 L1011.5,54.1  "/>	<g transform="translate(1028.8,58.0)" stroke="none" fill="black" font-family="Helvetica" font-size="12.00" text-anchor="start">
		<text><tspan font-family="Helvetica"> 8</tspan></text>
	</g>
</g>
<g fill="none" color="black" stroke="currentColor" stroke-width="1.00" stroke-linecap="butt" stroke-linejoin="miter">
</g>
<g fill="none" color="black" stroke="currentColor" stroke-width="1.00" stroke-linecap="butt" stroke-linejoin="miter">
	<path stroke="black" d="M63.6,54.1 L63.6,662.4 L1020.5,662.4 L1020.5,54.1 L63.6,54.1 Z  "/></g>
<g fill="none" color="black" stroke="currentColor" stroke-width="1.00" stroke-linecap="butt" stroke-linejoin="miter">
	<g transform="translate(16.3,358.3) rotate(270)" stroke="none" fill="black" font-family="Helvetica" font-size="12.00" text-anchor="middle">
		<text><tspan font-family="Helvetica">Iterations (x 10</tspan><tspan font-family="Helvetica" font-size="9.6" dy="-6.00px">3</tspan><tspan font-family="Helvetica" font-size="12.0" dy="6.00px">)</tspan></text>
	</g>
</g>
<g fill="none" color="black" stroke="currentColor" stroke-width="1.00" stroke-linecap="butt" stroke-linejoin="miter">
	<g transform="translate(1074.2,358.3) rotate(270)" stroke="none" fill="black" font-family="Helvetica" font-size="12.00" text-anchor="middle">
		<text><tspan font-family="Helvetica">Density (a.u.)</tspan></text>
	</g>
</g>
<g fill="none" color="black" stroke="currentColor" stroke-width="1.00" stroke-linecap="butt" stroke-linejoin="miter">
	<g transform="translate(542.0,711.3)" stroke="none" fill="black" font-family="Helvetica" font-size="12.00" text-anchor="middle">
		<text><tspan font-family="Helvetica">Average time (us)</tspan></text>
	</g>
</g>
<g fill="none" color="black" stroke="currentColor" stroke-width="1.00" stroke-linecap="butt" stroke-linejoin="miter">
	<g transform="translate(542.0,31.0)" stroke="none" fill="black" font-family="Helvetica" font-size="12.00" text-anchor="middle">
		<text><tspan font-family="Helvetica">Problem 7/p7_tail_recursive_ish/124782193651078432562974</tspan></text>
	</g>
</g>
	<g id="gnuplot_plot_1"><title>PDF</title>
<g fill="none" color="black" stroke="currentColor" stroke-width="1.00" stroke-linecap="butt" stroke-linejoin="miter">
	<g transform="translate(1147.1,67.0)" stroke="none" fill="black" font-family="Helvetica" font-size="12.00" text-anchor="start">
		<text><tspan font-family="Helvetica">PDF</tspan></text>
	</g>
</g>
<g fill="none" color="black" stroke="currentColor" stroke-width="1.00" stroke-linecap="butt" stroke-linejoin="miter">
	<g stroke="none" shape-rendering="crispEdges">
		<polygon fill="rgb( 31, 120, 180)" fill-opacity="0.250000" points="1096.6,67.6 1138.8,67.6 1138.8,58.6 1096.6,58.6 "/>
		<polygon fill="rgb( 31, 120, 180)" fill-opacity="0.250000" points="63.6,661.6 65.5,661.5 67.4,661.4 69.4,661.2 71.3,661.1 73.2,660.9 75.1,660.7 77.0,660.5 78.9,660.2 80.9,660.0 82.8,659.7 84.7,659.3 86.6,659.0 88.5,658.6 90.4,658.2 92.4,657.7 94.3,657.1 96.2,656.6 98.1,655.9 100.0,655.2 102.0,654.5 103.9,653.7 105.8,652.8 107.7,651.8 109.6,650.8 111.5,649.6 113.5,648.4 115.4,647.1 117.3,645.7 119.2,644.1 121.1,642.5 123.0,640.7 125.0,638.8 126.9,636.8 128.8,634.7 130.7,632.4 132.6,630.0 134.6,627.4 136.5,624.7 138.4,621.8 140.3,618.8 142.2,615.6 144.1,612.2 146.1,608.6 148.0,604.9 149.9,601.0 151.8,596.9 153.7,592.7 155.6,588.2 157.6,583.6 159.5,578.8 161.4,573.8 163.3,568.6 165.2,563.3 167.2,557.8 169.1,552.1 171.0,546.3 172.9,540.2 174.8,534.1 176.7,527.8 178.7,521.3 180.6,514.7 182.5,508.0 184.4,501.2 186.3,494.3 188.2,487.3 190.2,480.2 192.1,473.0 194.0,465.8 195.9,458.5 197.8,451.2 199.8,443.8 201.7,436.5 203.6,429.1 205.5,421.8 207.4,414.5 209.3,407.2 211.3,400.0 213.2,392.8 215.1,385.7 217.0,378.7 218.9,371.8 220.8,365.1 222.8,358.4 224.7,351.9 226.6,345.5 228.5,339.3 230.4,333.2 232.4,327.3 234.3,321.5 236.2,316.0 238.1,310.6 240.0,305.4 241.9,300.3 243.9,295.5 245.8,290.8 247.7,286.4 249.6,282.1 251.5,278.0 253.4,274.1 255.4,270.3 257.3,266.7 259.2,263.3 261.1,260.0 263.0,256.9 265.0,253.9 266.9,251.0 268.8,248.2 270.7,245.6 272.6,243.1 274.5,240.6 276.5,238.2 278.4,235.9 280.3,233.6 282.2,231.3 284.1,229.1 286.0,226.9 288.0,224.7 289.9,222.5 291.8,220.3 293.7,218.1 295.6,215.8 297.6,213.5 299.5,211.1 301.4,208.7 303.3,206.2 305.2,203.6 307.1,201.0 309.1,198.3 311.0,195.5 312.9,192.7 314.8,189.7 316.7,186.8 318.6,183.7 320.6,180.6 322.5,177.5 324.4,174.3 326.3,171.1 328.2,167.8 330.2,164.6 332.1,161.3 334.0,158.1 335.9,154.9 337.8,151.8 339.7,148.7 341.7,145.7 343.6,142.7 345.5,139.9 347.4,137.3 349.3,134.7 351.2,132.4 353.2,130.2 355.1,128.2 357.0,126.4 358.9,124.9 360.8,123.6 362.8,122.5 364.7,121.7 366.6,121.2 368.5,121.0 370.4,121.1 372.3,121.5 374.3,122.2 376.2,123.3 378.1,124.6 380.0,126.3 381.9,128.3 383.8,130.7 385.8,133.3 387.7,136.3 389.6,139.6 391.5,143.3 393.4,147.2 395.4,151.4 397.3,155.9 399.2,160.7 401.1,165.8 403.0,171.1 404.9,176.6 406.9,182.4 408.8,188.4 410.7,194.5 412.6,200.9 414.5,207.4 416.4,214.0 418.4,220.8 420.3,227.7 422.2,234.7 424.1,241.7 426.0,248.9 428.0,256.0 429.9,263.2 431.8,270.4 433.7,277.6 435.6,284.8 437.5,292.0 439.5,299.1 441.4,306.1 443.3,313.1 445.2,320.0 447.1,326.8 449.0,333.6 451.0,340.2 452.9,346.7 454.8,353.0 456.7,359.3 458.6,365.4 460.6,371.3 462.5,377.1 464.4,382.8 466.3,388.3 468.2,393.6 470.1,398.8 472.1,403.8 474.0,408.7 475.9,413.4 477.8,417.9 479.7,422.3 481.6,426.5 483.6,430.6 485.5,434.5 487.4,438.2 489.3,441.8 491.2,445.3 493.2,448.6 495.1,451.7 497.0,454.8 498.9,457.7 500.8,460.5 502.7,463.1 504.7,465.7 506.6,468.1 508.5,470.5 510.4,472.7 512.3,474.8 514.2,476.9 516.2,478.9 518.1,480.8 520.0,482.6 521.9,484.4 523.8,486.1 525.8,487.7 527.7,489.3 529.6,490.9 531.5,492.5 533.4,494.0 535.3,495.5 537.3,496.9 539.2,498.4 541.1,499.9 543.0,501.3 544.9,502.8 546.8,504.3 548.8,505.7 550.7,507.2 552.6,508.7 554.5,510.3 556.4,511.9 558.3,513.5 560.3,515.1 562.2,516.8 564.1,518.5 566.0,520.2 567.9,522.0 569.9,523.9 571.8,525.8 573.7,527.7 575.6,529.7 577.5,531.7 579.4,533.8 581.4,535.9 583.3,538.1 585.2,540.3 587.1,542.6 589.0,544.9 590.9,547.2 592.9,549.6 594.8,552.0 596.7,554.5 598.6,557.0 600.5,559.5 602.5,562.0 604.4,564.6 606.3,567.2 608.2,569.8 610.1,572.4 612.0,575.0 614.0,577.7 615.9,580.3 617.8,582.9 619.7,585.5 621.6,588.1 623.5,590.7 625.5,593.3 627.4,595.9 629.3,598.4 631.2,600.9 633.1,603.4 635.1,605.8 637.0,608.2 638.9,610.5 640.8,612.8 642.7,615.1 644.6,617.3 646.6,619.4 648.5,621.5 650.4,623.6 652.3,625.6 654.2,627.5 656.1,629.4 658.1,631.2 660.0,632.9 661.9,634.6 663.8,636.2 665.7,637.8 667.7,639.2 669.6,640.7 671.5,642.0 673.4,643.3 675.3,644.6 677.2,645.8 679.2,646.9 681.1,648.0 683.0,649.0 684.9,649.9 686.8,650.8 688.7,651.7 690.7,652.5 692.6,653.3 694.5,654.0 696.4,654.6 698.3,655.3 700.3,655.8 702.2,656.4 704.1,656.9 706.0,657.3 707.9,657.8 709.8,658.2 711.8,658.5 713.7,658.9 715.6,659.2 717.5,659.5 719.4,659.7 721.3,660.0 723.3,660.2 725.2,660.4 727.1,660.6 729.0,660.7 730.9,660.9 732.9,661.0 734.8,661.1 736.7,661.2 738.6,661.3 740.5,661.4 742.4,661.4 744.4,661.5 746.3,661.5 748.2,661.5 750.1,661.6 752.0,661.6 753.9,661.6 755.9,661.5 757.8,661.5 759.7,661.5 761.6,661.5 763.5,661.4 765.5,661.3 767.4,661.3 769.3,661.2 771.2,661.1 773.1,661.0 775.0,660.9 777.0,660.8 778.9,660.7 780.8,660.6 782.7,660.4 784.6,660.3 786.5,660.1 788.5,660.0 790.4,659.8 792.3,659.6 794.2,659.4 796.1,659.2 798.1,659.0 800.0,658.8 801.9,658.6 803.8,658.3 805.7,658.1 807.6,657.8 809.6,657.6 811.5,657.3 813.4,657.0 815.3,656.8 817.2,656.5 819.1,656.2 821.1,655.9 823.0,655.6 824.9,655.3 826.8,655.0 828.7,654.7 830.7,654.4 832.6,654.1 834.5,653.8 836.4,653.5 838.3,653.2 840.2,652.9 842.2,652.6 844.1,652.4 846.0,652.1 847.9,651.9 849.8,651.6 851.7,651.4 853.7,651.2 855.6,651.0 857.5,650.8 859.4,650.6 861.3,650.5 863.3,650.3 865.2,650.2 867.1,650.1 869.0,650.0 870.9,650.0 872.8,649.9 874.8,649.9 876.7,649.9 878.6,649.9 880.5,650.0 882.4,650.0 884.3,650.1 886.3,650.2 888.2,650.3 890.1,650.4 892.0,650.6 893.9,650.8 895.9,650.9 897.8,651.1 899.7,651.3 901.6,651.6 903.5,651.8 905.4,652.0 907.4,652.3 909.3,652.6 911.2,652.8 913.1,653.1 915.0,653.4 916.9,653.7 918.9,654.0 920.8,654.3 922.7,654.6 924.6,654.9 926.5,655.2 928.5,655.5 930.4,655.8 932.3,656.1 934.2,656.4 936.1,656.7 938.0,657.0 940.0,657.2 941.9,657.5 943.8,657.8 945.7,658.0 947.6,658.3 949.5,658.5 951.5,658.7 953.4,659.0 955.3,659.2 957.2,659.4 959.1,659.6 961.1,659.8 963.0,660.0 964.9,660.1 966.8,660.3 968.7,660.4 970.6,660.6 972.6,660.7 974.5,660.9 976.4,661.0 978.3,661.1 980.2,661.2 982.1,661.3 984.1,661.4 986.0,661.5 987.9,661.6 989.8,661.6 991.7,661.7 993.7,661.8 995.6,661.8 997.5,661.9 999.4,661.9 1001.3,662.0 1003.2,662.0 1005.2,662.1 1007.1,662.1 1009.0,662.1 1010.9,662.2 1012.8,662.2 1014.7,662.2 1016.7,662.2 1018.6,662.2 1020.5,662.3 1020.5,662.4 1018.6,662.4 1016.7,662.4 1014.7,662.4 1012.8,662.4 1010.9,662.4 1009.0,662.4 1007.1,662.4 1005.2,662.4 1003.2,662.4 1001.3,662.4 999.4,662.4 997.5,662.4 995.6,662.4 993.7,662.4 991.7,662.4 989.8,662.4 987.9,662.4 986.0,662.4 984.1,662.4 982.1,662.4 980.2,662.4 978.3,662.4 976.4,662.4 974.5,662.4 972.6,662.4 970.6,662.4 968.7,662.4 966.8,662.4 964.9,662.4 963.0,662.4 961.1,662.4 959.1,662.4 957.2,662.4 955.3,662.4 953.4,662.4 951.5,662.4 949.5,662.4 947.6,662.4 945.7,662.4 943.8,662.4 941.9,662.4 940.0,662.4 938.0,662.4 936.1,662.4 934.2,662.4 932.3,662.4 930.4,662.4 928.5,662.4 926.5,662.4 924.6,662.4 922.7,662.4 920.8,662.4 918.9,662.4 916.9,662.4 915.0,662.4 913.1,662.4 911.2,662.4 909.3,662.4 907.4,662.4 905.4,662.4 903.5,662.4 901.6,662.4 899.7,662.4 897.8,662.4 895.9,662.4 893.9,662.4 892.0,662.4 890.1,662.4 888.2,662.4 886.3,662.4 884.3,662.4 882.4,662.4 880.5,662.4 878.6,662.4 876.7,662.4 874.8,662.4 872.8,662.4 870.9,662.4 869.0,662.4 867.1,662.4 865.2,662.4 863.3,662.4 861.3,662.4 859.4,662.4 857.5,662.4 855.6,662.4 853.7,662.4 851.7,662.4 849.8,662.4 847.9,662.4 846.0,662.4 844.1,662.4 842.2,662.4 840.2,662.4 838.3,662.4 836.4,662.4 834.5,662.4 832.6,662.4 830.7,662.4 828.7,662.4 826.8,662.4 824.9,662.4 823.0,662.4 821.1,662.4 819.1,662.4 817.2,662.4 815.3,662.4 813.4,662.4 811.5,662.4 809.6,662.4 807.6,662.4 805.7,662.4 803.8,662.4 801.9,662.4 800.0,662.4 798.1,662.4 796.1,662.4 794.2,662.4 792.3,662.4 790.4,662.4 788.5,662.4 786.5,662.4 784.6,662.4 782.7,662.4 780.8,662.4 778.9,662.4 777.0,662.4 775.0,662.4 773.1,662.4 771.2,662.4 769.3,662.4 767.4,662.4 765.5,662.4 763.5,662.4 761.6,662.4 759.7,662.4 757.8,662.4 755.9,662.4 753.9,662.4 752.0,662.4 750.1,662.4 748.2,662.4 746.3,662.4 744.4,662.4 742.4,662.4 740.5,662.4 738.6,662.4 736.7,662.4 734.8,662.4 732.9,662.4 730.9,662.4 729.0,662.4 727.1,662.4 725.2,662.4 723.3,662.4 721.3,662.4 719.4,662.4 717.5,662.4 715.6,662.4 713.7,662.4 711.8,662.4 709.8,662.4 707.9,662.4 706.0,662.4 704.1,662.4 702.2,662.4 700.3,662.4 698.3,662.4 696.4,662.4 694.5,662.4 692.6,662.4 690.7,662.4 688.7,662.4 686.8,662.4 684.9,662.4 683.0,662.4 681.1,662.4 679.2,662.4 677.2,662.4 675.3,662.4 673.4,662.4 671.5,662.4 669.6,662.4 667.7,662.4 665.7,662.4 663.8,662.4 661.9,662.4 660.0,662.4 658.1,662.4 656.1,662.4 654.2,662.4 652.3,662.4 650.4,662.4 648.5,662.4 646.6,662.4 644.6,662.4 642.7,662.4 640.8,662.4 638.9,662.4 637.0,662.4 635.1,662.4 633.1,662.4 631.2,662.4 629.3,662.4 627.4,662.4 625.5,662.4 623.5,662.4 621.6,662.4 619.7,662.4 617.8,662.4 615.9,662.4 614.0,662.4 612.0,662.4 610.1,662.4 608.2,662.4 606.3,662.4 604.4,662.4 602.5,662.4 600.5,662.4 598.6,662.4 596.7,662.4 594.8,662.4 592.9,662.4 590.9,662.4 589.0,662.4 587.1,662.4 585.2,662.4 583.3,662.4 581.4,662.4 579.4,662.4 577.5,662.4 575.6,662.4 573.7,662.4 571.8,662.4 569.9,662.4 567.9,662.4 566.0,662.4 564.1,662.4 562.2,662.4 560.3,662.4 558.3,662.4 556.4,662.4 554.5,662.4 552.6,662.4 550.7,662.4 548.8,662.4 546.8,662.4 544.9,662.4 543.0,662.4 541.1,662.4 539.2,662.4 537.3,662.4 535.3,662.4 533.4,662.4 531.5,662.4 529.6,662.4 527.7,662.4 525.8,662.4 523.8,662.4 521.9,662.4 520.0,662.4 518.1,662.4 516.2,662.4 514.2,662.4 512.3,662.4 510.4,662.4 508.5,662.4 506.6,662.4 504.7,662.4 502.7,662.4 500.8,662.4 498.9,662.4 497.0,662.4 495.1,662.4 493.2,662.4 491.2,662.4 489.3,662.4 487.4,662.4 485.5,662.4 483.6,662.4 481.6,662.4 479.7,662.4 477.8,662.4 475.9,662.4 474.0,662.4 472.1,662.4 470.1,662.4 468.2,662.4 466.3,662.4 464.4,662.4 462.5,662.4 460.6,662.4 458.6,662.4 456.7,662.4 454.8,662.4 452.9,662.4 451.0,662.4 449.0,662.4 447.1,662.4 445.2,662.4 443.3,662.4 441.4,662.4 439.5,662.4 437.5,662.4 435.6,662.4 433.7,662.4 431.8,662.4 429.9,662.4 428.0,662.4 426.0,662.4 424.1,662.4 422.2,662.4 420.3,662.4 418.4,662.4 416.4,662.4 414.5,662.4 412.6,662.4 410.7,662.4 408.8,662.4 406.9,662.4 404.9,662.4 403.0,662.4 401.1,662.4 399.2,662.4 397.3,662.4 395.4,662.4 393.4,662.4 391.5,662.4 389.6,662.4 387.7,662.4 385.8,662.4 383.8,662.4 381.9,662.4 380.0,662.4 378.1,662.4 376.2,662.4 374.3,662.4 372.3,662.4 370.4,662.4 368.5,662.4 366.6,662.4 364.7,662.4 362.8,662.4 360.8,662.4 358.9,662.4 357.0,662.4 355.1,662.4 353.2,662.4 351.2,662.4 349.3,662.4 347.4,662.4 345.5,662.4 343.6,662.4 341.7,662.4 339.7,662.4 337.8,662.4 335.9,662.4 334.0,662.4 332.1,662.4 330.2,662.4 328.2,662.4 326.3,662.4 324.4,662.4 322.5,662.4 320.6,662.4 318.6,662.4 316.7,662.4 314.8,662.4 312.9,662.4 311.0,662.4 309.1,662.4 307.1,662.4 305.2,662.4 303.3,662.4 301.4,662.4 299.5,662.4 297.6,662.4 295.6,662.4 293.7,662.4 291.8,662.4 289.9,662.4 288.0,662.4 286.0,662.4 284.1,662.4 282.2,662.4 280.3,662.4 278.4,662.4 276.5,662.4 274.5,662.4 272.6,662.4 270.7,662.4 268.8,662.4 266.9,662.4 265.0,662.4 263.0,662.4 261.1,662.4 259.2,662.4 257.3,662.4 255.4,662.4 253.4,662.4 251.5,662.4 249.6,662.4 247.7,662.4 245.8,662.4 243.9,662.4 241.9,662.4 240.0,662.4 238.1,662.4 236.2,662.4 234.3,662.4 232.4,662.4 230.4,662.4 228.5,662.4 226.6,662.4 224.7,662.4 222.8,662.4 220.8,662.4 218.9,662.4 217.0,662.4 215.1,662.4 213.2,662.4 211.3,662.4 209.3,662.4 207.4,662.4 205.5,662.4 203.6,662.4 201.7,662.4 199.8,662.4 197.8,662.4 195.9,662.4 194.0,662.4 192.1,662.4 190.2,662.4 188.2,662.4 186.3,662.4 184.4,662.4 182.5,662.4 180.6,662.4 178.7,662.4 176.7,662.4 174.8,662.4 172.9,662.4 171.0,662.4 169.1,662.4 167.2,662.4 165.2,662.4 163.3,662.4 161.4,662.4 159.5,662.4 157.6,662.4 155.6,662.4 153.7,662.4 151.8,662.4 149.9,662.4 148.0,662.4 146.1,662.4 144.1,662.4 142.2,662.4 140.3,662.4 138.4,662.4 136.5,662.4 134.6,662.4 132.6,662.4 130.7,662.4 128.8,662.4 126.9,662.4 125.0,662.4 123.0,662.4 121.1,662.4 119.2,662.4 117.3,662.4 115.4,662.4 113.5,662.4 111.5,662.4 109.6,662.4 107.7,662.4 105.8,662.4 103.9,662.4 102.0,662.4 100.0,662.4 98.1,662.4 96.2,662.4 94.3,662.4 92.4,662.4 90.4,662.4 88.5,662.4 86.6,662.4 84.7,662.4 82.8,662.4 80.9,662.4 78.9,662.4 77.0,662.4 75.1,662.4 73.2,662.4 71.3,662.4 69.4,662.4 67.4,662.4 65.5,662.4 63.6,662.4 "/>
	</g>
</g>
	</g>
	<g id="gnuplot_plot_2"><title>Mean</title>
<g fill="none" color="white" stroke="rgb( 31, 120, 180)" stroke-width="2.00" stroke-linecap="butt" stroke-linejoin="miter">
</g>
<g fill="none" color="black" stroke="currentColor" stroke-width="2.00" stroke-linecap="butt" stroke-linejoin="miter">
	<g transform="translate(1147.1,85.0)" stroke="none" fill="black" font-family="Helvetica" font-size="12.00" text-anchor="start">
		<text><tspan font-family="Helvetica">Mean</tspan></text>
	</g>
</g>
<g fill="none" color="black" stroke="currentColor" stroke-width="2.00" stroke-linecap="butt" stroke-linejoin="miter">
	<path stroke="rgb( 31, 120, 180)" d="M1096.6,81.1 L1138.8,81.1 M372.3,662.4 L372.3,54.1  "/></g>
	</g>
	<g id="gnuplot_plot_3"><title>"Clean" sample</title>
<g fill="none" color="white" stroke="rgb( 31, 120, 180)" stroke-width="1.00" stroke-linecap="butt" stroke-linejoin="miter">
</g>
<g fill="none" color="black" stroke="currentColor" stroke-width="1.00" stroke-linecap="butt" stroke-linejoin="miter">
	<g transform="translate(1147.1,103.0)" stroke="none" fill="black" font-family="Helvetica" font-size="12.00" text-anchor="start">
		<text><tspan font-family="Helvetica">"Clean" sample</tspan></text>
	</g>
</g>
<g fill="none" color="black" stroke="currentColor" stroke-width="1.00" stroke-linecap="butt" stroke-linejoin="miter">
	<use xlink:href="#gpPt6" transform="translate(431.7,656.3) scale(3.38)" color="rgb( 31, 120, 180)"/>
	<use xlink:href="#gpPt6" transform="translate(557.8,650.2) scale(3.38)" color="rgb( 31, 120, 180)"/>
	<use xlink:href="#gpPt6" transform="translate(399.9,644.2) scale(3.38)" color="rgb( 31, 120, 180)"/>
	<use xlink:href="#gpPt6" transform="translate(382.4,638.1) scale(3.38)" color="rgb( 31, 120, 180)"/>
	<use xlink:href="#gpPt6" transform="translate(378.6,632.0) scale(3.38)" color="rgb( 31, 120, 180)"/>
	<use xlink:href="#gpPt6" transform="translate(392.3,625.9) scale(3.38)" color="rgb( 31, 120, 180)"/>
	<use xlink:href="#gpPt6" transform="translate(366.3,619.8) scale(3.38)" color="rgb( 31, 120, 180)"/>
	<use xlink:href="#gpPt6" transform="translate(369.5,613.7) scale(3.38)" color="rgb( 31, 120, 180)"/>
	<use xlink:href="#gpPt6" transform="translate(355.4,607.7) scale(3.38)" color="rgb( 31, 120, 180)"/>
	<use xlink:href="#gpPt6" transform="translate(368.1,601.6) scale(3.38)" color="rgb( 31, 120, 180)"/>
	<use xlink:href="#gpPt6" transform="translate(391.8,595.5) scale(3.38)" color="rgb( 31, 120, 180)"/>
	<use xlink:href="#gpPt6" transform="translate(396.5,589.4) scale(3.38)" color="rgb( 31, 120, 180)"/>
	<use xlink:href="#gpPt6" transform="translate(364.3,583.3) scale(3.38)" color="rgb( 31, 120, 180)"/>
	<use xlink:href="#gpPt6" transform="translate(340.0,577.2) scale(3.38)" color="rgb( 31, 120, 180)"/>
	<use xlink:href="#gpPt6" transform="translate(336.9,571.2) scale(3.38)" color="rgb( 31, 120, 180)"/>
	<use xlink:href="#gpPt6" transform="translate(342.3,565.1) scale(3.38)" color="rgb( 31, 120, 180)"/>
	<use xlink:href="#gpPt6" transform="translate(362.0,559.0) scale(3.38)" color="rgb( 31, 120, 180)"/>
	<use xlink:href="#gpPt6" transform="translate(377.8,552.9) scale(3.38)" color="rgb( 31, 120, 180)"/>
	<use xlink:href="#gpPt6" transform="translate(360.2,546.8) scale(3.38)" color="rgb( 31, 120, 180)"/>
	<use xlink:href="#gpPt6" transform="translate(453.4,540.7) scale(3.38)" color="rgb( 31, 120, 180)"/>
	<use xlink:href="#gpPt6" transform="translate(545.8,534.7) scale(3.38)" color="rgb( 31, 120, 180)"/>
	<use xlink:href="#gpPt6" transform="translate(610.9,528.6) scale(3.38)" color="rgb( 31, 120, 180)"/>
	<use xlink:href="#gpPt6" transform="translate(391.1,516.4) scale(3.38)" color="rgb( 31, 120, 180)"/>
	<use xlink:href="#gpPt6" transform="translate(376.6,510.3) scale(3.38)" color="rgb( 31, 120, 180)"/>
	<use xlink:href="#gpPt6" transform="translate(394.8,504.2) scale(3.38)" color="rgb( 31, 120, 180)"/>
	<use xlink:href="#gpPt6" transform="translate(311.4,498.2) scale(3.38)" color="rgb( 31, 120, 180)"/>
	<use xlink:href="#gpPt6" transform="translate(232.4,492.1) scale(3.38)" color="rgb( 31, 120, 180)"/>
	<use xlink:href="#gpPt6" transform="translate(213.8,486.0) scale(3.38)" color="rgb( 31, 120, 180)"/>
	<use xlink:href="#gpPt6" transform="translate(218.5,479.9) scale(3.38)" color="rgb( 31, 120, 180)"/>
	<use xlink:href="#gpPt6" transform="translate(227.7,473.8) scale(3.38)" color="rgb( 31, 120, 180)"/>
	<use xlink:href="#gpPt6" transform="translate(217.4,467.7) scale(3.38)" color="rgb( 31, 120, 180)"/>
	<use xlink:href="#gpPt6" transform="translate(210.3,461.7) scale(3.38)" color="rgb( 31, 120, 180)"/>
	<use xlink:href="#gpPt6" transform="translate(208.1,455.6) scale(3.38)" color="rgb( 31, 120, 180)"/>
	<use xlink:href="#gpPt6" transform="translate(236.7,449.5) scale(3.38)" color="rgb( 31, 120, 180)"/>
	<use xlink:href="#gpPt6" transform="translate(213.6,443.4) scale(3.38)" color="rgb( 31, 120, 180)"/>
	<use xlink:href="#gpPt6" transform="translate(233.3,437.3) scale(3.38)" color="rgb( 31, 120, 180)"/>
	<use xlink:href="#gpPt6" transform="translate(330.5,431.2) scale(3.38)" color="rgb( 31, 120, 180)"/>
	<use xlink:href="#gpPt6" transform="translate(448.9,425.2) scale(3.38)" color="rgb( 31, 120, 180)"/>
	<use xlink:href="#gpPt6" transform="translate(564.6,419.1) scale(3.38)" color="rgb( 31, 120, 180)"/>
	<use xlink:href="#gpPt6" transform="translate(493.5,413.0) scale(3.38)" color="rgb( 31, 120, 180)"/>
	<use xlink:href="#gpPt6" transform="translate(456.7,406.9) scale(3.38)" color="rgb( 31, 120, 180)"/>
	<use xlink:href="#gpPt6" transform="translate(289.2,400.8) scale(3.38)" color="rgb( 31, 120, 180)"/>
	<use xlink:href="#gpPt6" transform="translate(274.7,394.7) scale(3.38)" color="rgb( 31, 120, 180)"/>
	<use xlink:href="#gpPt6" transform="translate(259.0,388.7) scale(3.38)" color="rgb( 31, 120, 180)"/>
	<use xlink:href="#gpPt6" transform="translate(263.2,382.6) scale(3.38)" color="rgb( 31, 120, 180)"/>
	<use xlink:href="#gpPt6" transform="translate(264.4,376.5) scale(3.38)" color="rgb( 31, 120, 180)"/>
	<use xlink:href="#gpPt6" transform="translate(274.8,370.4) scale(3.38)" color="rgb( 31, 120, 180)"/>
	<use xlink:href="#gpPt6" transform="translate(281.2,364.3) scale(3.38)" color="rgb( 31, 120, 180)"/>
	<use xlink:href="#gpPt6" transform="translate(297.6,358.2) scale(3.38)" color="rgb( 31, 120, 180)"/>
	<use xlink:href="#gpPt6" transform="translate(514.6,352.2) scale(3.38)" color="rgb( 31, 120, 180)"/>
	<use xlink:href="#gpPt6" transform="translate(525.2,346.1) scale(3.38)" color="rgb( 31, 120, 180)"/>
	<use xlink:href="#gpPt6" transform="translate(464.4,340.0) scale(3.38)" color="rgb( 31, 120, 180)"/>
	<use xlink:href="#gpPt6" transform="translate(346.9,333.9) scale(3.38)" color="rgb( 31, 120, 180)"/>
	<use xlink:href="#gpPt6" transform="translate(296.1,327.8) scale(3.38)" color="rgb( 31, 120, 180)"/>
	<use xlink:href="#gpPt6" transform="translate(301.3,321.8) scale(3.38)" color="rgb( 31, 120, 180)"/>
	<use xlink:href="#gpPt6" transform="translate(269.6,315.7) scale(3.38)" color="rgb( 31, 120, 180)"/>
	<use xlink:href="#gpPt6" transform="translate(282.3,309.6) scale(3.38)" color="rgb( 31, 120, 180)"/>
	<use xlink:href="#gpPt6" transform="translate(242.6,303.5) scale(3.38)" color="rgb( 31, 120, 180)"/>
	<use xlink:href="#gpPt6" transform="translate(288.4,297.4) scale(3.38)" color="rgb( 31, 120, 180)"/>
	<use xlink:href="#gpPt6" transform="translate(439.0,291.3) scale(3.38)" color="rgb( 31, 120, 180)"/>
	<use xlink:href="#gpPt6" transform="translate(431.1,285.3) scale(3.38)" color="rgb( 31, 120, 180)"/>
	<use xlink:href="#gpPt6" transform="translate(311.4,279.2) scale(3.38)" color="rgb( 31, 120, 180)"/>
	<use xlink:href="#gpPt6" transform="translate(240.6,273.1) scale(3.38)" color="rgb( 31, 120, 180)"/>
	<use xlink:href="#gpPt6" transform="translate(273.2,267.0) scale(3.38)" color="rgb( 31, 120, 180)"/>
	<use xlink:href="#gpPt6" transform="translate(249.5,260.9) scale(3.38)" color="rgb( 31, 120, 180)"/>
	<use xlink:href="#gpPt6" transform="translate(253.0,254.8) scale(3.38)" color="rgb( 31, 120, 180)"/>
	<use xlink:href="#gpPt6" transform="translate(355.5,248.8) scale(3.38)" color="rgb( 31, 120, 180)"/>
	<use xlink:href="#gpPt6" transform="translate(404.9,242.7) scale(3.38)" color="rgb( 31, 120, 180)"/>
	<use xlink:href="#gpPt6" transform="translate(486.5,236.6) scale(3.38)" color="rgb( 31, 120, 180)"/>
	<use xlink:href="#gpPt6" transform="translate(303.5,230.5) scale(3.38)" color="rgb( 31, 120, 180)"/>
	<use xlink:href="#gpPt6" transform="translate(266.3,224.4) scale(3.38)" color="rgb( 31, 120, 180)"/>
	<use xlink:href="#gpPt6" transform="translate(243.7,218.3) scale(3.38)" color="rgb( 31, 120, 180)"/>
	<use xlink:href="#gpPt6" transform="translate(228.7,212.3) scale(3.38)" color="rgb( 31, 120, 180)"/>
	<use xlink:href="#gpPt6" transform="translate(305.8,206.2) scale(3.38)" color="rgb( 31, 120, 180)"/>
	<use xlink:href="#gpPt6" transform="translate(458.8,200.1) scale(3.38)" color="rgb( 31, 120, 180)"/>
	<use xlink:href="#gpPt6" transform="translate(597.1,194.0) scale(3.38)" color="rgb( 31, 120, 180)"/>
	<use xlink:href="#gpPt6" transform="translate(511.9,187.9) scale(3.38)" color="rgb( 31, 120, 180)"/>
	<use xlink:href="#gpPt6" transform="translate(372.6,181.8) scale(3.38)" color="rgb( 31, 120, 180)"/>
	<use xlink:href="#gpPt6" transform="translate(371.8,175.8) scale(3.38)" color="rgb( 31, 120, 180)"/>
	<use xlink:href="#gpPt6" transform="translate(426.9,169.7) scale(3.38)" color="rgb( 31, 120, 180)"/>
	<use xlink:href="#gpPt6" transform="translate(366.1,163.6) scale(3.38)" color="rgb( 31, 120, 180)"/>
	<use xlink:href="#gpPt6" transform="translate(509.2,157.5) scale(3.38)" color="rgb( 31, 120, 180)"/>
	<use xlink:href="#gpPt6" transform="translate(579.0,151.4) scale(3.38)" color="rgb( 31, 120, 180)"/>
	<use xlink:href="#gpPt6" transform="translate(421.4,145.3) scale(3.38)" color="rgb( 31, 120, 180)"/>
	<use xlink:href="#gpPt6" transform="translate(353.0,139.3) scale(3.38)" color="rgb( 31, 120, 180)"/>
	<use xlink:href="#gpPt6" transform="translate(391.5,133.2) scale(3.38)" color="rgb( 31, 120, 180)"/>
	<use xlink:href="#gpPt6" transform="translate(374.2,127.1) scale(3.38)" color="rgb( 31, 120, 180)"/>
	<use xlink:href="#gpPt6" transform="translate(447.0,121.0) scale(3.38)" color="rgb( 31, 120, 180)"/>
	<use xlink:href="#gpPt6" transform="translate(602.3,114.9) scale(3.38)" color="rgb( 31, 120, 180)"/>
	<use xlink:href="#gpPt6" transform="translate(417.0,108.8) scale(3.38)" color="rgb( 31, 120, 180)"/>
	<use xlink:href="#gpPt6" transform="translate(384.8,102.8) scale(3.38)" color="rgb( 31, 120, 180)"/>
	<use xlink:href="#gpPt6" transform="translate(402.8,96.7) scale(3.38)" color="rgb( 31, 120, 180)"/>
	<use xlink:href="#gpPt6" transform="translate(368.2,90.6) scale(3.38)" color="rgb( 31, 120, 180)"/>
	<use xlink:href="#gpPt6" transform="translate(542.2,84.5) scale(3.38)" color="rgb( 31, 120, 180)"/>
	<use xlink:href="#gpPt6" transform="translate(573.9,78.4) scale(3.38)" color="rgb( 31, 120, 180)"/>
	<use xlink:href="#gpPt6" transform="translate(371.3,72.3) scale(3.38)" color="rgb( 31, 120, 180)"/>
	<use xlink:href="#gpPt6" transform="translate(346.4,66.3) scale(3.38)" color="rgb( 31, 120, 180)"/>
	<use xlink:href="#gpPt6" transform="translate(383.5,60.2) scale(3.38)" color="rgb( 31, 120, 180)"/>
	<use xlink:href="#gpPt6" transform="translate(392.5,54.1) scale(3.38)" color="rgb( 31, 120, 180)"/>
	<use xlink:href="#gpPt6" transform="translate(1117.7,99.1) scale(3.38)" color="rgb( 31, 120, 180)"/>
</g>
	</g>
	<g id="gnuplot_plot_4"><title>Severe outliers</title>
<g fill="none" color="black" stroke="currentColor" stroke-width="1.00" stroke-linecap="butt" stroke-linejoin="miter">
	<g transform="translate(1147.1,121.0)" stroke="none" fill="black" font-family="Helvetica" font-size="12.00" text-anchor="start">
		<text><tspan font-family="Helvetica">Severe outliers</tspan></text>
	</g>
</g>
<g fill="none" color="black" stroke="currentColor" stroke-width="1.00" stroke-linecap="butt" stroke-linejoin="miter">
	<use xlink:href="#gpPt6" transform="translate(876.0,522.5) scale(3.38)" color="rgb(227,  26,  28)"/>
	<use xlink:href="#gpPt6" transform="translate(1117.7,117.1) scale(3.38)" color="rgb(227,  26,  28)"/>
</g>
	</g>
	<g id="gnuplot_plot_5"><title>gnuplot_plot_5</title>
<g fill="none" color="white" stroke="rgb(227,  26,  28)" stroke-width="2.00" stroke-linecap="butt" stroke-linejoin="miter">
</g>
<g fill="none" color="black" stroke="currentColor" stroke-width="2.00" stroke-linecap="butt" stroke-linejoin="miter">
</g>
	</g>
	<g id="gnuplot_plot_6"><title>gnuplot_plot_6</title>
<g fill="none" color="black" stroke="currentColor" stroke-width="2.00" stroke-linecap="butt" stroke-linejoin="miter">
	<path stroke="rgb(255, 127,   0)" d="M646.8,662.4 L646.8,54.1  "/></g>
	</g>
	<g id="gnuplot_plot_7"><title>gnuplot_plot_7</title>
<g fill="none" color="black" stroke="currentColor" stroke-width="2.00" stroke-linecap="butt" stroke-linejoin="miter">
</g>
	</g>
	<g id="gnuplot_plot_8"><title>gnuplot_plot_8</title>
<g fill="none" color="black" stroke="currentColor" stroke-width="2.00" stroke-linecap="butt" stroke-linejoin="miter">
	<path stroke="rgb(227,  26,  28)" d="M865.6,662.4 L865.6,54.1  "/></g>
	</g>
<g fill="none" color="black" stroke="currentColor" stroke-width="2.00" stroke-linecap="butt" stroke-linejoin="miter">
</g>
<g fill="none" color="black" stroke="black" stroke-width="1.00" stroke-linecap="butt" stroke-linejoin="miter">
</g>
<g fill="none" color="black" stroke="currentColor" stroke-width="1.00" stroke-linecap="butt" stroke-linejoin="miter">
	<path stroke="black" d="M63.6,54.1 L63.6,662.4 L1020.5,662.4 L1020.5,54.1 L63.6,54.1 Z  "/></g>
<g fill="none" color="black" stroke="currentColor" stroke-width="1.00" stroke-linecap="butt" stroke-linejoin="miter">
</g>
</g>
</svg>