<?xml version="1.0" encoding="UTF-8" standalone="no"?>
<svg viewBox="0 0 1280 720" xmlns="http://www.w3.org/2000/svg" xmlns:xlink="http://www.w3.org/1999/xlink">

<title>Gnuplot</title>
<desc>Produced by GNUPLOT 5.2 patchlevel 2 </desc>

<g id="gnuplot_canvas">

<rect x="0" y="0" width="1280" height="720" fill="none"/>
<defs>

	<circle id="gpDot" r="0.5" stroke-width="0.5"/>
	<path id="gpPt0" stroke-width="0.222" stroke="currentColor" d="M-1,0 h2 M0,-1 v2"/>
	<path id="gpPt1" stroke-width="0.222" stroke="currentColor" d="M-1,-1 L1,1 M1,-1 L-1,1"/>
	<path id="gpPt2" stroke-width="0.222" stroke="currentColor" d="M-1,0 L1,0 M0,-1 L0,1 M-1,-1 L1,1 M-1,1 L1,-1"/>
	<rect id="gpPt3" stroke-width="0.222" stroke="currentColor" x="-1" y="-1" width="2" height="2"/>
	<rect id="gpPt4" stroke-width="0.222" stroke="currentColor" fill="currentColor" x="-1" y="-1" width="2" height="2"/>
	<circle id="gpPt5" stroke-width="0.222" stroke="currentColor" cx="0" cy="0" r="1"/>
	<use xlink:href="#gpPt5" id="gpPt6" fill="currentColor" stroke="none"/>
	<path id="gpPt7" stroke-width="0.222" stroke="currentColor" d="M0,-1.33 L-1.33,0.67 L1.33,0.67 z"/>
	<use xlink:href="#gpPt7" id="gpPt8" fill="currentColor" stroke="none"/>
	<use xlink:href="#gpPt7" id="gpPt9" stroke="currentColor" transform="rotate(180)"/>
	<use xlink:href="#gpPt9" id="gpPt10" fill="currentColor" stroke="none"/>
	<use xlink:href="#gpPt3" id="gpPt11" stroke="currentColor" transform="rotate(45)"/>
	<use xlink:href="#gpPt11" id="gpPt12" fill="currentColor" stroke="none"/>
	<path id="gpPt13" stroke-width="0.222" stroke="currentColor" d="M0,1.330 L1.265,0.411 L0.782,-1.067 L-0.782,-1.076 L-1.265,0.411 z"/>
	<use xlink:href="#gpPt13" id="gpPt14" fill="currentColor" stroke="none"/>
	<filter id="textbox" filterUnits="objectBoundingBox" x="0" y="0" height="1" width="1">
	  <feFlood flood-color="white" flood-opacity="1" result="bgnd"/>
	  <feComposite in="SourceGraphic" in2="bgnd" operator="atop"/>
	</filter>
	<filter id="greybox" filterUnits="objectBoundingBox" x="0" y="0" height="1" width="1">
	  <feFlood flood-color="lightgrey" flood-opacity="1" result="grey"/>
	  <feComposite in="SourceGraphic" in2="grey" operator="atop"/>
	</filter>
</defs>
<g fill="none" color="white" stroke="currentColor" stroke-width="1.00" stroke-linecap="butt" stroke-linejoin="miter">
</g>
<g fill="none" color="black" stroke="currentColor" stroke-width="1.00" stroke-linecap="butt" stroke-linejoin="miter">
	<path stroke="black" d="M71.9,662.4 L80.9,662.4  "/>	<g transform="translate(63.6,666.3)" stroke="none" fill="black" font-family="Helvetica" font-size="12.00" text-anchor="end">
		<text><tspan font-family="Helvetica"> 0</tspan></text>
	</g>
</g>
<g fill="none" color="black" stroke="currentColor" stroke-width="1.00" stroke-linecap="butt" stroke-linejoin="miter">
	<path stroke="black" d="M71.9,540.7 L80.9,540.7  "/>	<g transform="translate(63.6,544.6)" stroke="none" fill="black" font-family="Helvetica" font-size="12.00" text-anchor="end">
		<text><tspan font-family="Helvetica"> 20</tspan></text>
	</g>
</g>
<g fill="none" color="black" stroke="currentColor" stroke-width="1.00" stroke-linecap="butt" stroke-linejoin="miter">
	<path stroke="black" d="M71.9,419.1 L80.9,419.1  "/>	<g transform="translate(63.6,423.0)" stroke="none" fill="black" font-family="Helvetica" font-size="12.00" text-anchor="end">
		<text><tspan font-family="Helvetica"> 40</tspan></text>
	</g>
</g>
<g fill="none" color="black" stroke="currentColor" stroke-width="1.00" stroke-linecap="butt" stroke-linejoin="miter">
	<path stroke="black" d="M71.9,297.4 L80.9,297.4  "/>	<g transform="translate(63.6,301.3)" stroke="none" fill="black" font-family="Helvetica" font-size="12.00" text-anchor="end">
		<text><tspan font-family="Helvetica"> 60</tspan></text>
	</g>
</g>
<g fill="none" color="black" stroke="currentColor" stroke-width="1.00" stroke-linecap="butt" stroke-linejoin="miter">
	<path stroke="black" d="M71.9,175.8 L80.9,175.8  "/>	<g transform="translate(63.6,179.7)" stroke="none" fill="black" font-family="Helvetica" font-size="12.00" text-anchor="end">
		<text><tspan font-family="Helvetica"> 80</tspan></text>
	</g>
</g>
<g fill="none" color="black" stroke="currentColor" stroke-width="1.00" stroke-linecap="butt" stroke-linejoin="miter">
	<path stroke="black" d="M71.9,54.1 L80.9,54.1  "/>	<g transform="translate(63.6,58.0)" stroke="none" fill="black" font-family="Helvetica" font-size="12.00" text-anchor="end">
		<text><tspan font-family="Helvetica"> 100</tspan></text>
	</g>
</g>
<g fill="none" color="black" stroke="currentColor" stroke-width="1.00" stroke-linecap="butt" stroke-linejoin="miter">
	<path stroke="black" d="M118.3,662.4 L118.3,653.4  "/>	<g transform="translate(118.3,684.3)" stroke="none" fill="black" font-family="Helvetica" font-size="12.00" text-anchor="middle">
		<text><tspan font-family="Helvetica"> 2.42</tspan></text>
	</g>
</g>
<g fill="none" color="black" stroke="currentColor" stroke-width="1.00" stroke-linecap="butt" stroke-linejoin="miter">
	<path stroke="black" d="M233.7,662.4 L233.7,653.4  "/>	<g transform="translate(233.7,684.3)" stroke="none" fill="black" font-family="Helvetica" font-size="12.00" text-anchor="middle">
		<text><tspan font-family="Helvetica"> 2.44</tspan></text>
	</g>
</g>
<g fill="none" color="black" stroke="currentColor" stroke-width="1.00" stroke-linecap="butt" stroke-linejoin="miter">
	<path stroke="black" d="M349.1,662.4 L349.1,653.4  "/>	<g transform="translate(349.1,684.3)" stroke="none" fill="black" font-family="Helvetica" font-size="12.00" text-anchor="middle">
		<text><tspan font-family="Helvetica"> 2.46</tspan></text>
	</g>
</g>
<g fill="none" color="black" stroke="currentColor" stroke-width="1.00" stroke-linecap="butt" stroke-linejoin="miter">
	<path stroke="black" d="M464.5,662.4 L464.5,653.4  "/>	<g transform="translate(464.5,684.3)" stroke="none" fill="black" font-family="Helvetica" font-size="12.00" text-anchor="middle">
		<text><tspan font-family="Helvetica"> 2.48</tspan></text>
	</g>
</g>
<g fill="none" color="black" stroke="currentColor" stroke-width="1.00" stroke-linecap="butt" stroke-linejoin="miter">
	<path stroke="black" d="M579.9,662.4 L579.9,653.4  "/>	<g transform="translate(579.9,684.3)" stroke="none" fill="black" font-family="Helvetica" font-size="12.00" text-anchor="middle">
		<text><tspan font-family="Helvetica"> 2.5</tspan></text>
	</g>
</g>
<g fill="none" color="black" stroke="currentColor" stroke-width="1.00" stroke-linecap="butt" stroke-linejoin="miter">
	<path stroke="black" d="M695.3,662.4 L695.3,653.4  "/>	<g transform="translate(695.3,684.3)" stroke="none" fill="black" font-family="Helvetica" font-size="12.00" text-anchor="middle">
		<text><tspan font-family="Helvetica"> 2.52</tspan></text>
	</g>
</g>
<g fill="none" color="black" stroke="currentColor" stroke-width="1.00" stroke-linecap="butt" stroke-linejoin="miter">
	<path stroke="black" d="M810.7,662.4 L810.7,653.4  "/>	<g transform="translate(810.7,684.3)" stroke="none" fill="black" font-family="Helvetica" font-size="12.00" text-anchor="middle">
		<text><tspan font-family="Helvetica"> 2.54</tspan></text>
	</g>
</g>
<g fill="none" color="black" stroke="currentColor" stroke-width="1.00" stroke-linecap="butt" stroke-linejoin="miter">
	<path stroke="black" d="M926.1,662.4 L926.1,653.4  "/>	<g transform="translate(926.1,684.3)" stroke="none" fill="black" font-family="Helvetica" font-size="12.00" text-anchor="middle">
		<text><tspan font-family="Helvetica"> 2.56</tspan></text>
	</g>
</g>
<g fill="none" color="black" stroke="currentColor" stroke-width="1.00" stroke-linecap="butt" stroke-linejoin="miter">
	<path stroke="black" d="M1020.5,662.4 L1011.5,662.4  "/>	<g transform="translate(1028.8,666.3)" stroke="none" fill="black" font-family="Helvetica" font-size="12.00" text-anchor="start">
		<text><tspan font-family="Helvetica"> 0</tspan></text>
	</g>
</g>
<g fill="none" color="black" stroke="currentColor" stroke-width="1.00" stroke-linecap="butt" stroke-linejoin="miter">
	<path stroke="black" d="M1020.5,601.6 L1011.5,601.6  "/>	<g transform="translate(1028.8,605.5)" stroke="none" fill="black" font-family="Helvetica" font-size="12.00" text-anchor="start">
		<text><tspan font-family="Helvetica"> 2</tspan></text>
	</g>
</g>
<g fill="none" color="black" stroke="currentColor" stroke-width="1.00" stroke-linecap="butt" stroke-linejoin="miter">
	<path stroke="black" d="M1020.5,540.7 L1011.5,540.7  "/>	<g transform="translate(1028.8,544.6)" stroke="none" fill="black" font-family="Helvetica" font-size="12.00" text-anchor="start">
		<text><tspan font-family="Helvetica"> 4</tspan></text>
	</g>
</g>
<g fill="none" color="black" stroke="currentColor" stroke-width="1.00" stroke-linecap="butt" stroke-linejoin="miter">
	<path stroke="black" d="M1020.5,479.9 L1011.5,479.9  "/>	<g transform="translate(1028.8,483.8)" stroke="none" fill="black" font-family="Helvetica" font-size="12.00" text-anchor="start">
		<text><tspan font-family="Helvetica"> 6</tspan></text>
	</g>
</g>
<g fill="none" color="black" stroke="currentColor" stroke-width="1.00" stroke-linecap="butt" stroke-linejoin="miter">
	<path stroke="black" d="M1020.5,419.1 L1011.5,419.1  "/>	<g transform="translate(1028.8,423.0)" stroke="none" fill="black" font-family="Helvetica" font-size="12.00" text-anchor="start">
		<text><tspan font-family="Helvetica"> 8</tspan></text>
	</g>
</g>
<g fill="none" color="black" stroke="currentColor" stroke-width="1.00" stroke-linecap="butt" stroke-linejoin="miter">
	<path stroke="black" d="M1020.5,358.2 L1011.5,358.2  "/>	<g transform="translate(1028.8,362.1)" stroke="none" fill="black" font-family="Helvetica" font-size="12.00" text-anchor="start">
		<text><tspan font-family="Helvetica"> 10</tspan></text>
	</g>
</g>
<g fill="none" color="black" stroke="currentColor" stroke-width="1.00" stroke-linecap="butt" stroke-linejoin="miter">
	<path stroke="black" d="M1020.5,297.4 L1011.5,297.4  "/>	<g transform="translate(1028.8,301.3)" stroke="none" fill="black" font-family="Helvetica" font-size="12.00" text-anchor="start">
		<text><tspan font-family="Helvetica"> 12</tspan></text>
	</g>
</g>
<g fill="none" color="black" stroke="currentColor" stroke-width="1.00" stroke-linecap="butt" stroke-linejoin="miter">
	<path stroke="black" d="M1020.5,236.6 L1011.5,236.6  "/>	<g transform="translate(1028.8,240.5)" stroke="none" fill="black" font-family="Helvetica" font-size="12.00" text-anchor="start">
		<text><tspan font-family="Helvetica"> 14</tspan></text>
	</g>
</g>
<g fill="none" color="black" stroke="currentColor" stroke-width="1.00" stroke-linecap="butt" stroke-linejoin="miter">
	<path stroke="black" d="M1020.5,175.8 L1011.5,175.8  "/>	<g transform="translate(1028.8,179.7)" stroke="none" fill="black" font-family="Helvetica" font-size="12.00" text-anchor="start">
		<text><tspan font-family="Helvetica"> 16</tspan></text>
	</g>
</g>
<g fill="none" color="black" stroke="currentColor" stroke-width="1.00" stroke-linecap="butt" stroke-linejoin="miter">
	<path stroke="black" d="M1020.5,114.9 L1011.5,114.9  "/>	<g transform="translate(1028.8,118.8)" stroke="none" fill="black" font-family="Helvetica" font-size="12.00" text-anchor="start">
		<text><tspan font-family="Helvetica"> 18</tspan></text>
	</g>
</g>
<g fill="none" color="black" stroke="currentColor" stroke-width="1.00" stroke-linecap="butt" stroke-linejoin="miter">
	<path stroke="black" d="M1020.5,54.1 L1011.5,54.1  "/>	<g transform="translate(1028.8,58.0)" stroke="none" fill="black" font-family="Helvetica" font-size="12.00" text-anchor="start">
		<text><tspan font-family="Helvetica"> 20</tspan></text>
	</g>
</g>
<g fill="none" color="black" stroke="currentColor" stroke-width="1.00" stroke-linecap="butt" stroke-linejoin="miter">
</g>
<g fill="none" color="black" stroke="currentColor" stroke-width="1.00" stroke-linecap="butt" stroke-linejoin="miter">
	<path stroke="black" d="M71.9,54.1 L71.9,662.4 L1020.5,662.4 L1020.5,54.1 L71.9,54.1 Z  "/></g>
<g fill="none" color="black" stroke="currentColor" stroke-width="1.00" stroke-linecap="butt" stroke-linejoin="miter">
	<g transform="translate(16.3,358.3) rotate(270)" stroke="none" fill="black" font-family="Helvetica" font-size="12.00" text-anchor="middle">
		<text><tspan font-family="Helvetica">Iterations</tspan></text>
	</g>
</g>
<g fill="none" color="black" stroke="currentColor" stroke-width="1.00" stroke-linecap="butt" stroke-linejoin="miter">
	<g transform="translate(1082.5,358.3) rotate(270)" stroke="none" fill="black" font-family="Helvetica" font-size="12.00" text-anchor="middle">
		<text><tspan font-family="Helvetica">Density (a.u.)</tspan></text>
	</g>
</g>
<g fill="none" color="black" stroke="currentColor" stroke-width="1.00" stroke-linecap="butt" stroke-linejoin="miter">
	<g transform="translate(546.2,711.3)" stroke="none" fill="black" font-family="Helvetica" font-size="12.00" text-anchor="middle">
		<text><tspan font-family="Helvetica">Average time (ms)</tspan></text>
	</g>
</g>
<g fill="none" color="black" stroke="currentColor" stroke-width="1.00" stroke-linecap="butt" stroke-linejoin="miter">
	<g transform="translate(546.2,31.0)" stroke="none" fill="black" font-family="Helvetica" font-size="12.00" text-anchor="middle">
		<text><tspan font-family="Helvetica">Problem 7/p7/123123123123123123123123123123</tspan></text>
	</g>
</g>
	<g id="gnuplot_plot_1"><title>PDF</title>
<g fill="none" color="black" stroke="currentColor" stroke-width="1.00" stroke-linecap="butt" stroke-linejoin="miter">
	<g transform="translate(1155.4,67.0)" stroke="none" fill="black" font-family="Helvetica" font-size="12.00" text-anchor="start">
		<text><tspan font-family="Helvetica">PDF</tspan></text>
	</g>
</g>
<g fill="none" color="black" stroke="currentColor" stroke-width="1.00" stroke-linecap="butt" stroke-linejoin="miter">
	<g stroke="none" shape-rendering="crispEdges">
		<polygon fill="rgb( 31, 120, 180)" fill-opacity="0.250000" points="1104.9,67.6 1147.1,67.6 1147.1,58.6 1104.9,58.6 "/>
		<polygon fill="rgb( 31, 120, 180)" fill-opacity="0.250000" points="71.9,662.0 73.8,662.0 75.7,662.0 77.6,661.9 79.5,661.9 81.4,661.8 83.3,661.8 85.2,661.7 87.1,661.6 89.0,661.5 90.9,661.4 92.8,661.3 94.7,661.2 96.6,661.1 98.5,661.0 100.4,660.9 102.3,660.7 104.2,660.6 106.1,660.4 108.0,660.3 109.9,660.1 111.8,659.9 113.7,659.6 115.6,659.4 117.5,659.2 119.4,658.9 121.3,658.6 123.2,658.3 125.1,658.0 127.0,657.6 128.9,657.3 130.8,656.9 132.7,656.5 134.6,656.0 136.5,655.6 138.4,655.1 140.3,654.6 142.2,654.1 144.1,653.5 146.0,652.9 147.9,652.3 149.8,651.6 151.7,650.9 153.6,650.2 155.5,649.5 157.4,648.7 159.3,647.9 161.2,647.0 163.1,646.2 165.0,645.2 167.0,644.3 168.9,643.3 170.8,642.3 172.7,641.3 174.6,640.2 176.5,639.1 178.4,637.9 180.3,636.7 182.2,635.5 184.1,634.2 186.0,633.0 187.9,631.6 189.8,630.3 191.7,628.9 193.6,627.5 195.5,626.1 197.4,624.6 199.3,623.1 201.2,621.6 203.1,620.1 205.0,618.5 206.9,616.9 208.8,615.3 210.7,613.7 212.6,612.0 214.5,610.4 216.4,608.7 218.3,607.0 220.2,605.3 222.1,603.5 224.0,601.8 225.9,600.0 227.8,598.2 229.7,596.4 231.6,594.6 233.5,592.8 235.4,591.0 237.3,589.1 239.2,587.3 241.1,585.4 243.0,583.6 244.9,581.7 246.8,579.8 248.7,577.9 250.6,576.0 252.5,574.0 254.4,572.1 256.3,570.2 258.2,568.2 260.1,566.2 262.0,564.2 263.9,562.2 265.8,560.1 267.7,558.0 269.6,555.9 271.5,553.8 273.4,551.7 275.3,549.5 277.2,547.3 279.1,545.0 281.0,542.7 282.9,540.4 284.8,538.1 286.7,535.7 288.6,533.2 290.5,530.7 292.4,528.2 294.3,525.5 296.2,522.9 298.1,520.2 300.0,517.4 301.9,514.5 303.8,511.6 305.7,508.6 307.6,505.6 309.5,502.4 311.4,499.2 313.3,495.9 315.2,492.6 317.1,489.1 319.0,485.6 320.9,482.0 322.8,478.2 324.7,474.4 326.6,470.5 328.5,466.6 330.4,462.5 332.3,458.3 334.2,454.0 336.1,449.6 338.0,445.1 339.9,440.6 341.8,435.9 343.7,431.1 345.6,426.2 347.5,421.3 349.4,416.2 351.3,411.0 353.2,405.7 355.1,400.4 357.1,394.9 359.0,389.4 360.9,383.7 362.8,378.0 364.7,372.2 366.6,366.3 368.5,360.3 370.4,354.3 372.3,348.2 374.2,342.0 376.1,335.8 378.0,329.5 379.9,323.2 381.8,316.8 383.7,310.4 385.6,303.9 387.5,297.4 389.4,290.9 391.3,284.4 393.2,277.9 395.1,271.4 397.0,264.8 398.9,258.3 400.8,251.9 402.7,245.4 404.6,239.0 406.5,232.6 408.4,226.3 410.3,220.0 412.2,213.8 414.1,207.7 416.0,201.7 417.9,195.7 419.8,189.9 421.7,184.1 423.6,178.5 425.5,173.0 427.4,167.6 429.3,162.3 431.2,157.2 433.1,152.3 435.0,147.5 436.9,142.8 438.8,138.4 440.7,134.1 442.6,129.9 444.5,126.0 446.4,122.2 448.3,118.7 450.2,115.3 452.1,112.1 454.0,109.1 455.9,106.4 457.8,103.8 459.7,101.5 461.6,99.3 463.5,97.4 465.4,95.7 467.3,94.2 469.2,92.9 471.1,91.8 473.0,91.0 474.9,90.3 476.8,89.9 478.7,89.7 480.6,89.7 482.5,89.9 484.4,90.3 486.3,90.9 488.2,91.8 490.1,92.8 492.0,94.0 493.9,95.4 495.8,97.0 497.7,98.8 499.6,100.7 501.5,102.9 503.4,105.2 505.3,107.7 507.2,110.3 509.1,113.1 511.0,116.1 512.9,119.2 514.8,122.4 516.7,125.8 518.6,129.3 520.5,133.0 522.4,136.8 524.3,140.7 526.2,144.7 528.1,148.8 530.0,153.1 531.9,157.4 533.8,161.8 535.7,166.3 537.6,170.9 539.5,175.6 541.4,180.3 543.3,185.2 545.2,190.0 547.2,195.0 549.1,200.0 551.0,205.0 552.9,210.1 554.8,215.2 556.7,220.4 558.6,225.6 560.5,230.8 562.4,236.0 564.3,241.3 566.2,246.6 568.1,251.8 570.0,257.1 571.9,262.4 573.8,267.7 575.7,273.0 577.6,278.2 579.5,283.5 581.4,288.7 583.3,293.9 585.2,299.1 587.1,304.3 589.0,309.4 590.9,314.5 592.8,319.6 594.7,324.6 596.6,329.6 598.5,334.5 600.4,339.4 602.3,344.3 604.2,349.1 606.1,353.8 608.0,358.5 609.9,363.1 611.8,367.7 613.7,372.2 615.6,376.7 617.5,381.1 619.4,385.4 621.3,389.7 623.2,393.9 625.1,398.0 627.0,402.1 628.9,406.1 630.8,410.0 632.7,413.9 634.6,417.7 636.5,421.4 638.4,425.1 640.3,428.7 642.2,432.2 644.1,435.7 646.0,439.1 647.9,442.4 649.8,445.7 651.7,448.8 653.6,452.0 655.5,455.0 657.4,458.0 659.3,461.0 661.2,463.8 663.1,466.6 665.0,469.4 666.9,472.0 668.8,474.7 670.7,477.2 672.6,479.7 674.5,482.2 676.4,484.6 678.3,486.9 680.2,489.2 682.1,491.4 684.0,493.6 685.9,495.7 687.8,497.8 689.7,499.8 691.6,501.8 693.5,503.7 695.4,505.6 697.3,507.4 699.2,509.2 701.1,511.0 703.0,512.7 704.9,514.4 706.8,516.0 708.7,517.6 710.6,519.2 712.5,520.7 714.4,522.2 716.3,523.7 718.2,525.2 720.1,526.6 722.0,527.9 723.9,529.3 725.8,530.6 727.7,531.9 729.6,533.2 731.5,534.4 733.4,535.7 735.3,536.9 737.3,538.0 739.2,539.2 741.1,540.3 743.0,541.5 744.9,542.6 746.8,543.6 748.7,544.7 750.6,545.8 752.5,546.8 754.4,547.8 756.3,548.8 758.2,549.8 760.1,550.8 762.0,551.7 763.9,552.7 765.8,553.6 767.7,554.6 769.6,555.5 771.5,556.4 773.4,557.3 775.3,558.2 777.2,559.1 779.1,560.0 781.0,560.9 782.9,561.8 784.8,562.7 786.7,563.5 788.6,564.4 790.5,565.3 792.4,566.2 794.3,567.1 796.2,568.0 798.1,568.9 800.0,569.8 801.9,570.7 803.8,571.6 805.7,572.5 807.6,573.4 809.5,574.4 811.4,575.4 813.3,576.3 815.2,577.3 817.1,578.3 819.0,579.3 820.9,580.4 822.8,581.4 824.7,582.5 826.6,583.6 828.5,584.7 830.4,585.8 832.3,586.9 834.2,588.1 836.1,589.2 838.0,590.4 839.9,591.6 841.8,592.9 843.7,594.1 845.6,595.4 847.5,596.7 849.4,597.9 851.3,599.3 853.2,600.6 855.1,601.9 857.0,603.3 858.9,604.6 860.8,606.0 862.7,607.3 864.6,608.7 866.5,610.1 868.4,611.5 870.3,612.9 872.2,614.3 874.1,615.6 876.0,617.0 877.9,618.4 879.8,619.8 881.7,621.1 883.6,622.5 885.5,623.8 887.4,625.2 889.3,626.5 891.2,627.8 893.1,629.1 895.0,630.3 896.9,631.6 898.8,632.8 900.7,634.0 902.6,635.2 904.5,636.3 906.4,637.4 908.3,638.5 910.2,639.6 912.1,640.7 914.0,641.7 915.9,642.7 917.8,643.6 919.7,644.6 921.6,645.5 923.5,646.3 925.4,647.2 927.4,648.0 929.3,648.8 931.2,649.5 933.1,650.3 935.0,651.0 936.9,651.6 938.8,652.3 940.7,652.9 942.6,653.5 944.5,654.0 946.4,654.5 948.3,655.0 950.2,655.5 952.1,656.0 954.0,656.4 955.9,656.8 957.8,657.2 959.7,657.6 961.6,657.9 963.5,658.2 965.4,658.5 967.3,658.8 969.2,659.1 971.1,659.3 973.0,659.6 974.9,659.8 976.8,660.0 978.7,660.2 980.6,660.4 982.5,660.5 984.4,660.7 986.3,660.8 988.2,661.0 990.1,661.1 992.0,661.2 993.9,661.3 995.8,661.4 997.7,661.5 999.6,661.6 1001.5,661.7 1003.4,661.7 1005.3,661.8 1007.2,661.8 1009.1,661.9 1011.0,661.9 1012.9,662.0 1014.8,662.0 1016.7,662.1 1018.6,662.1 1020.5,662.1 1020.5,662.4 1018.6,662.4 1016.7,662.4 1014.8,662.4 1012.9,662.4 1011.0,662.4 1009.1,662.4 1007.2,662.4 1005.3,662.4 1003.4,662.4 1001.5,662.4 999.6,662.4 997.7,662.4 995.8,662.4 993.9,662.4 992.0,662.4 990.1,662.4 988.2,662.4 986.3,662.4 984.4,662.4 982.5,662.4 980.6,662.4 978.7,662.4 976.8,662.4 974.9,662.4 973.0,662.4 971.1,662.4 969.2,662.4 967.3,662.4 965.4,662.4 963.5,662.4 961.6,662.4 959.7,662.4 957.8,662.4 955.9,662.4 954.0,662.4 952.1,662.4 950.2,662.4 948.3,662.4 946.4,662.4 944.5,662.4 942.6,662.4 940.7,662.4 938.8,662.4 936.9,662.4 935.0,662.4 933.1,662.4 931.2,662.4 929.3,662.4 927.4,662.4 925.4,662.4 923.5,662.4 921.6,662.4 919.7,662.4 917.8,662.4 915.9,662.4 914.0,662.4 912.1,662.4 910.2,662.4 908.3,662.4 906.4,662.4 904.5,662.4 902.6,662.4 900.7,662.4 898.8,662.4 896.9,662.4 895.0,662.4 893.1,662.4 891.2,662.4 889.3,662.4 887.4,662.4 885.5,662.4 883.6,662.4 881.7,662.4 879.8,662.4 877.9,662.4 876.0,662.4 874.1,662.4 872.2,662.4 870.3,662.4 868.4,662.4 866.5,662.4 864.6,662.4 862.7,662.4 860.8,662.4 858.9,662.4 857.0,662.4 855.1,662.4 853.2,662.4 851.3,662.4 849.4,662.4 847.5,662.4 845.6,662.4 843.7,662.4 841.8,662.4 839.9,662.4 838.0,662.4 836.1,662.4 834.2,662.4 832.3,662.4 830.4,662.4 828.5,662.4 826.6,662.4 824.7,662.4 822.8,662.4 820.9,662.4 819.0,662.4 817.1,662.4 815.2,662.4 813.3,662.4 811.4,662.4 809.5,662.4 807.6,662.4 805.7,662.4 803.8,662.4 801.9,662.4 800.0,662.4 798.1,662.4 796.2,662.4 794.3,662.4 792.4,662.4 790.5,662.4 788.6,662.4 786.7,662.4 784.8,662.4 782.9,662.4 781.0,662.4 779.1,662.4 777.2,662.4 775.3,662.4 773.4,662.4 771.5,662.4 769.6,662.4 767.7,662.4 765.8,662.4 763.9,662.4 762.0,662.4 760.1,662.4 758.2,662.4 756.3,662.4 754.4,662.4 752.5,662.4 750.6,662.4 748.7,662.4 746.8,662.4 744.9,662.4 743.0,662.4 741.1,662.4 739.2,662.4 737.3,662.4 735.3,662.4 733.4,662.4 731.5,662.4 729.6,662.4 727.7,662.4 725.8,662.4 723.9,662.4 722.0,662.4 720.1,662.4 718.2,662.4 716.3,662.4 714.4,662.4 712.5,662.4 710.6,662.4 708.7,662.4 706.8,662.4 704.9,662.4 703.0,662.4 701.1,662.4 699.2,662.4 697.3,662.4 695.4,662.4 693.5,662.4 691.6,662.4 689.7,662.4 687.8,662.4 685.9,662.4 684.0,662.4 682.1,662.4 680.2,662.4 678.3,662.4 676.4,662.4 674.5,662.4 672.6,662.4 670.7,662.4 668.8,662.4 666.9,662.4 665.0,662.4 663.1,662.4 661.2,662.4 659.3,662.4 657.4,662.4 655.5,662.4 653.6,662.4 651.7,662.4 649.8,662.4 647.9,662.4 646.0,662.4 644.1,662.4 642.2,662.4 640.3,662.4 638.4,662.4 636.5,662.4 634.6,662.4 632.7,662.4 630.8,662.4 628.9,662.4 627.0,662.4 625.1,662.4 623.2,662.4 621.3,662.4 619.4,662.4 617.5,662.4 615.6,662.4 613.7,662.4 611.8,662.4 609.9,662.4 608.0,662.4 606.1,662.4 604.2,662.4 602.3,662.4 600.4,662.4 598.5,662.4 596.6,662.4 594.7,662.4 592.8,662.4 590.9,662.4 589.0,662.4 587.1,662.4 585.2,662.4 583.3,662.4 581.4,662.4 579.5,662.4 577.6,662.4 575.7,662.4 573.8,662.4 571.9,662.4 570.0,662.4 568.1,662.4 566.2,662.4 564.3,662.4 562.4,662.4 560.5,662.4 558.6,662.4 556.7,662.4 554.8,662.4 552.9,662.4 551.0,662.4 549.1,662.4 547.2,662.4 545.2,662.4 543.3,662.4 541.4,662.4 539.5,662.4 537.6,662.4 535.7,662.4 533.8,662.4 531.9,662.4 530.0,662.4 528.1,662.4 526.2,662.4 524.3,662.4 522.4,662.4 520.5,662.4 518.6,662.4 516.7,662.4 514.8,662.4 512.9,662.4 511.0,662.4 509.1,662.4 507.2,662.4 505.3,662.4 503.4,662.4 501.5,662.4 499.6,662.4 497.7,662.4 495.8,662.4 493.9,662.4 492.0,662.4 490.1,662.4 488.2,662.4 486.3,662.4 484.4,662.4 482.5,662.4 480.6,662.4 478.7,662.4 476.8,662.4 474.9,662.4 473.0,662.4 471.1,662.4 469.2,662.4 467.3,662.4 465.4,662.4 463.5,662.4 461.6,662.4 459.7,662.4 457.8,662.4 455.9,662.4 454.0,662.4 452.1,662.4 450.2,662.4 448.3,662.4 446.4,662.4 444.5,662.4 442.6,662.4 440.7,662.4 438.8,662.4 436.9,662.4 435.0,662.4 433.1,662.4 431.2,662.4 429.3,662.4 427.4,662.4 425.5,662.4 423.6,662.4 421.7,662.4 419.8,662.4 417.9,662.4 416.0,662.4 414.1,662.4 412.2,662.4 410.3,662.4 408.4,662.4 406.5,662.4 404.6,662.4 402.7,662.4 400.8,662.4 398.9,662.4 397.0,662.4 395.1,662.4 393.2,662.4 391.3,662.4 389.4,662.4 387.5,662.4 385.6,662.4 383.7,662.4 381.8,662.4 379.9,662.4 378.0,662.4 376.1,662.4 374.2,662.4 372.3,662.4 370.4,662.4 368.5,662.4 366.6,662.4 364.7,662.4 362.8,662.4 360.9,662.4 359.0,662.4 357.1,662.4 355.1,662.4 353.2,662.4 351.3,662.4 349.4,662.4 347.5,662.4 345.6,662.4 343.7,662.4 341.8,662.4 339.9,662.4 338.0,662.4 336.1,662.4 334.2,662.4 332.3,662.4 330.4,662.4 328.5,662.4 326.6,662.4 324.7,662.4 322.8,662.4 320.9,662.4 319.0,662.4 317.1,662.4 315.2,662.4 313.3,662.4 311.4,662.4 309.5,662.4 307.6,662.4 305.7,662.4 303.8,662.4 301.9,662.4 300.0,662.4 298.1,662.4 296.2,662.4 294.3,662.4 292.4,662.4 290.5,662.4 288.6,662.4 286.7,662.4 284.8,662.4 282.9,662.4 281.0,662.4 279.1,662.4 277.2,662.4 275.3,662.4 273.4,662.4 271.5,662.4 269.6,662.4 267.7,662.4 265.8,662.4 263.9,662.4 262.0,662.4 260.1,662.4 258.2,662.4 256.3,662.4 254.4,662.4 252.5,662.4 250.6,662.4 248.7,662.4 246.8,662.4 244.9,662.4 243.0,662.4 241.1,662.4 239.2,662.4 237.3,662.4 235.4,662.4 233.5,662.4 231.6,662.4 229.7,662.4 227.8,662.4 225.9,662.4 224.0,662.4 222.1,662.4 220.2,662.4 218.3,662.4 216.4,662.4 214.5,662.4 212.6,662.4 210.7,662.4 208.8,662.4 206.9,662.4 205.0,662.4 203.1,662.4 201.2,662.4 199.3,662.4 197.4,662.4 195.5,662.4 193.6,662.4 191.7,662.4 189.8,662.4 187.9,662.4 186.0,662.4 184.1,662.4 182.2,662.4 180.3,662.4 178.4,662.4 176.5,662.4 174.6,662.4 172.7,662.4 170.8,662.4 168.9,662.4 167.0,662.4 165.0,662.4 163.1,662.4 161.2,662.4 159.3,662.4 157.4,662.4 155.5,662.4 153.6,662.4 151.7,662.4 149.8,662.4 147.9,662.4 146.0,662.4 144.1,662.4 142.2,662.4 140.3,662.4 138.4,662.4 136.5,662.4 134.6,662.4 132.7,662.4 130.8,662.4 128.9,662.4 127.0,662.4 125.1,662.4 123.2,662.4 121.3,662.4 119.4,662.4 117.5,662.4 115.6,662.4 113.7,662.4 111.8,662.4 109.9,662.4 108.0,662.4 106.1,662.4 104.2,662.4 102.3,662.4 100.4,662.4 98.5,662.4 96.6,662.4 94.7,662.4 92.8,662.4 90.9,662.4 89.0,662.4 87.1,662.4 85.2,662.4 83.3,662.4 81.4,662.4 79.5,662.4 77.6,662.4 75.7,662.4 73.8,662.4 71.9,662.4 "/>
	</g>
</g>
	</g>
	<g id="gnuplot_plot_2"><title>Mean</title>
<g fill="none" color="white" stroke="rgb( 31, 120, 180)" stroke-width="2.00" stroke-linecap="butt" stroke-linejoin="miter">
</g>
<g fill="none" color="black" stroke="currentColor" stroke-width="2.00" stroke-linecap="butt" stroke-linejoin="miter">
	<g transform="translate(1155.4,85.0)" stroke="none" fill="black" font-family="Helvetica" font-size="12.00" text-anchor="start">
		<text><tspan font-family="Helvetica">Mean</tspan></text>
	</g>
</g>
<g fill="none" color="black" stroke="currentColor" stroke-width="2.00" stroke-linecap="butt" stroke-linejoin="miter">
	<path stroke="rgb( 31, 120, 180)" d="M1104.9,81.1 L1147.1,81.1 M511.6,662.4 L511.6,54.1  "/></g>
	</g>
	<g id="gnuplot_plot_3"><title>"Clean" sample</title>
<g fill="none" color="white" stroke="rgb( 31, 120, 180)" stroke-width="1.00" stroke-linecap="butt" stroke-linejoin="miter">
</g>
<g fill="none" color="black" stroke="currentColor" stroke-width="1.00" stroke-linecap="butt" stroke-linejoin="miter">
	<g transform="translate(1155.4,103.0)" stroke="none" fill="black" font-family="Helvetica" font-size="12.00" text-anchor="start">
		<text><tspan font-family="Helvetica">"Clean" sample</tspan></text>
	</g>
</g>
<g fill="none" color="black" stroke="currentColor" stroke-width="1.00" stroke-linecap="butt" stroke-linejoin="miter">
	<use xlink:href="#gpPt6" transform="translate(330.0,656.3) scale(3.38)" color="rgb( 31, 120, 180)"/>
	<use xlink:href="#gpPt6" transform="translate(319.1,650.2) scale(3.38)" color="rgb( 31, 120, 180)"/>
	<use xlink:href="#gpPt6" transform="translate(239.8,644.2) scale(3.38)" color="rgb( 31, 120, 180)"/>
	<use xlink:href="#gpPt6" transform="translate(508.8,638.1) scale(3.38)" color="rgb( 31, 120, 180)"/>
	<use xlink:href="#gpPt6" transform="translate(335.2,632.0) scale(3.38)" color="rgb( 31, 120, 180)"/>
	<use xlink:href="#gpPt6" transform="translate(273.1,625.9) scale(3.38)" color="rgb( 31, 120, 180)"/>
	<use xlink:href="#gpPt6" transform="translate(258.1,619.8) scale(3.38)" color="rgb( 31, 120, 180)"/>
	<use xlink:href="#gpPt6" transform="translate(239.5,613.7) scale(3.38)" color="rgb( 31, 120, 180)"/>
	<use xlink:href="#gpPt6" transform="translate(440.1,607.7) scale(3.38)" color="rgb( 31, 120, 180)"/>
	<use xlink:href="#gpPt6" transform="translate(510.5,601.6) scale(3.38)" color="rgb( 31, 120, 180)"/>
	<use xlink:href="#gpPt6" transform="translate(531.8,595.5) scale(3.38)" color="rgb( 31, 120, 180)"/>
	<use xlink:href="#gpPt6" transform="translate(474.7,583.3) scale(3.38)" color="rgb( 31, 120, 180)"/>
	<use xlink:href="#gpPt6" transform="translate(537.1,577.2) scale(3.38)" color="rgb( 31, 120, 180)"/>
	<use xlink:href="#gpPt6" transform="translate(559.8,571.2) scale(3.38)" color="rgb( 31, 120, 180)"/>
	<use xlink:href="#gpPt6" transform="translate(514.7,565.1) scale(3.38)" color="rgb( 31, 120, 180)"/>
	<use xlink:href="#gpPt6" transform="translate(423.2,559.0) scale(3.38)" color="rgb( 31, 120, 180)"/>
	<use xlink:href="#gpPt6" transform="translate(747.0,552.9) scale(3.38)" color="rgb( 31, 120, 180)"/>
	<use xlink:href="#gpPt6" transform="translate(751.4,540.7) scale(3.38)" color="rgb( 31, 120, 180)"/>
	<use xlink:href="#gpPt6" transform="translate(289.5,534.7) scale(3.38)" color="rgb( 31, 120, 180)"/>
	<use xlink:href="#gpPt6" transform="translate(514.1,528.6) scale(3.38)" color="rgb( 31, 120, 180)"/>
	<use xlink:href="#gpPt6" transform="translate(425.7,522.5) scale(3.38)" color="rgb( 31, 120, 180)"/>
	<use xlink:href="#gpPt6" transform="translate(356.2,516.4) scale(3.38)" color="rgb( 31, 120, 180)"/>
	<use xlink:href="#gpPt6" transform="translate(401.7,510.3) scale(3.38)" color="rgb( 31, 120, 180)"/>
	<use xlink:href="#gpPt6" transform="translate(454.2,504.2) scale(3.38)" color="rgb( 31, 120, 180)"/>
	<use xlink:href="#gpPt6" transform="translate(657.0,498.2) scale(3.38)" color="rgb( 31, 120, 180)"/>
	<use xlink:href="#gpPt6" transform="translate(725.1,492.1) scale(3.38)" color="rgb( 31, 120, 180)"/>
	<use xlink:href="#gpPt6" transform="translate(454.9,486.0) scale(3.38)" color="rgb( 31, 120, 180)"/>
	<use xlink:href="#gpPt6" transform="translate(466.2,479.9) scale(3.38)" color="rgb( 31, 120, 180)"/>
	<use xlink:href="#gpPt6" transform="translate(517.0,473.8) scale(3.38)" color="rgb( 31, 120, 180)"/>
	<use xlink:href="#gpPt6" transform="translate(453.3,467.7) scale(3.38)" color="rgb( 31, 120, 180)"/>
	<use xlink:href="#gpPt6" transform="translate(421.9,461.7) scale(3.38)" color="rgb( 31, 120, 180)"/>
	<use xlink:href="#gpPt6" transform="translate(646.5,455.6) scale(3.38)" color="rgb( 31, 120, 180)"/>
	<use xlink:href="#gpPt6" transform="translate(517.8,443.4) scale(3.38)" color="rgb( 31, 120, 180)"/>
	<use xlink:href="#gpPt6" transform="translate(458.4,437.3) scale(3.38)" color="rgb( 31, 120, 180)"/>
	<use xlink:href="#gpPt6" transform="translate(389.7,431.2) scale(3.38)" color="rgb( 31, 120, 180)"/>
	<use xlink:href="#gpPt6" transform="translate(410.9,425.2) scale(3.38)" color="rgb( 31, 120, 180)"/>
	<use xlink:href="#gpPt6" transform="translate(664.7,419.1) scale(3.38)" color="rgb( 31, 120, 180)"/>
	<use xlink:href="#gpPt6" transform="translate(616.6,413.0) scale(3.38)" color="rgb( 31, 120, 180)"/>
	<use xlink:href="#gpPt6" transform="translate(475.1,406.9) scale(3.38)" color="rgb( 31, 120, 180)"/>
	<use xlink:href="#gpPt6" transform="translate(452.2,400.8) scale(3.38)" color="rgb( 31, 120, 180)"/>
	<use xlink:href="#gpPt6" transform="translate(494.2,394.7) scale(3.38)" color="rgb( 31, 120, 180)"/>
	<use xlink:href="#gpPt6" transform="translate(527.9,388.7) scale(3.38)" color="rgb( 31, 120, 180)"/>
	<use xlink:href="#gpPt6" transform="translate(603.4,382.6) scale(3.38)" color="rgb( 31, 120, 180)"/>
	<use xlink:href="#gpPt6" transform="translate(416.6,376.5) scale(3.38)" color="rgb( 31, 120, 180)"/>
	<use xlink:href="#gpPt6" transform="translate(414.3,370.4) scale(3.38)" color="rgb( 31, 120, 180)"/>
	<use xlink:href="#gpPt6" transform="translate(495.4,364.3) scale(3.38)" color="rgb( 31, 120, 180)"/>
	<use xlink:href="#gpPt6" transform="translate(567.5,352.2) scale(3.38)" color="rgb( 31, 120, 180)"/>
	<use xlink:href="#gpPt6" transform="translate(397.0,346.1) scale(3.38)" color="rgb( 31, 120, 180)"/>
	<use xlink:href="#gpPt6" transform="translate(450.8,340.0) scale(3.38)" color="rgb( 31, 120, 180)"/>
	<use xlink:href="#gpPt6" transform="translate(696.5,333.9) scale(3.38)" color="rgb( 31, 120, 180)"/>
	<use xlink:href="#gpPt6" transform="translate(566.7,327.8) scale(3.38)" color="rgb( 31, 120, 180)"/>
	<use xlink:href="#gpPt6" transform="translate(476.6,321.8) scale(3.38)" color="rgb( 31, 120, 180)"/>
	<use xlink:href="#gpPt6" transform="translate(342.7,315.7) scale(3.38)" color="rgb( 31, 120, 180)"/>
	<use xlink:href="#gpPt6" transform="translate(436.6,303.5) scale(3.38)" color="rgb( 31, 120, 180)"/>
	<use xlink:href="#gpPt6" transform="translate(480.2,297.4) scale(3.38)" color="rgb( 31, 120, 180)"/>
	<use xlink:href="#gpPt6" transform="translate(599.8,291.3) scale(3.38)" color="rgb( 31, 120, 180)"/>
	<use xlink:href="#gpPt6" transform="translate(545.3,285.3) scale(3.38)" color="rgb( 31, 120, 180)"/>
	<use xlink:href="#gpPt6" transform="translate(481.5,279.2) scale(3.38)" color="rgb( 31, 120, 180)"/>
	<use xlink:href="#gpPt6" transform="translate(431.2,273.1) scale(3.38)" color="rgb( 31, 120, 180)"/>
	<use xlink:href="#gpPt6" transform="translate(630.3,267.0) scale(3.38)" color="rgb( 31, 120, 180)"/>
	<use xlink:href="#gpPt6" transform="translate(533.2,260.9) scale(3.38)" color="rgb( 31, 120, 180)"/>
	<use xlink:href="#gpPt6" transform="translate(396.3,254.8) scale(3.38)" color="rgb( 31, 120, 180)"/>
	<use xlink:href="#gpPt6" transform="translate(578.7,248.8) scale(3.38)" color="rgb( 31, 120, 180)"/>
	<use xlink:href="#gpPt6" transform="translate(567.0,242.7) scale(3.38)" color="rgb( 31, 120, 180)"/>
	<use xlink:href="#gpPt6" transform="translate(459.5,236.6) scale(3.38)" color="rgb( 31, 120, 180)"/>
	<use xlink:href="#gpPt6" transform="translate(600.0,230.5) scale(3.38)" color="rgb( 31, 120, 180)"/>
	<use xlink:href="#gpPt6" transform="translate(452.8,224.4) scale(3.38)" color="rgb( 31, 120, 180)"/>
	<use xlink:href="#gpPt6" transform="translate(495.6,218.3) scale(3.38)" color="rgb( 31, 120, 180)"/>
	<use xlink:href="#gpPt6" transform="translate(743.0,212.3) scale(3.38)" color="rgb( 31, 120, 180)"/>
	<use xlink:href="#gpPt6" transform="translate(565.1,206.2) scale(3.38)" color="rgb( 31, 120, 180)"/>
	<use xlink:href="#gpPt6" transform="translate(481.1,200.1) scale(3.38)" color="rgb( 31, 120, 180)"/>
	<use xlink:href="#gpPt6" transform="translate(658.3,194.0) scale(3.38)" color="rgb( 31, 120, 180)"/>
	<use xlink:href="#gpPt6" transform="translate(491.2,187.9) scale(3.38)" color="rgb( 31, 120, 180)"/>
	<use xlink:href="#gpPt6" transform="translate(355.1,181.8) scale(3.38)" color="rgb( 31, 120, 180)"/>
	<use xlink:href="#gpPt6" transform="translate(560.5,175.8) scale(3.38)" color="rgb( 31, 120, 180)"/>
	<use xlink:href="#gpPt6" transform="translate(491.1,169.7) scale(3.38)" color="rgb( 31, 120, 180)"/>
	<use xlink:href="#gpPt6" transform="translate(482.0,163.6) scale(3.38)" color="rgb( 31, 120, 180)"/>
	<use xlink:href="#gpPt6" transform="translate(502.2,157.5) scale(3.38)" color="rgb( 31, 120, 180)"/>
	<use xlink:href="#gpPt6" transform="translate(356.3,151.4) scale(3.38)" color="rgb( 31, 120, 180)"/>
	<use xlink:href="#gpPt6" transform="translate(676.1,145.3) scale(3.38)" color="rgb( 31, 120, 180)"/>
	<use xlink:href="#gpPt6" transform="translate(562.7,139.3) scale(3.38)" color="rgb( 31, 120, 180)"/>
	<use xlink:href="#gpPt6" transform="translate(598.5,133.2) scale(3.38)" color="rgb( 31, 120, 180)"/>
	<use xlink:href="#gpPt6" transform="translate(638.6,127.1) scale(3.38)" color="rgb( 31, 120, 180)"/>
	<use xlink:href="#gpPt6" transform="translate(403.3,121.0) scale(3.38)" color="rgb( 31, 120, 180)"/>
	<use xlink:href="#gpPt6" transform="translate(540.7,114.9) scale(3.38)" color="rgb( 31, 120, 180)"/>
	<use xlink:href="#gpPt6" transform="translate(387.9,108.8) scale(3.38)" color="rgb( 31, 120, 180)"/>
	<use xlink:href="#gpPt6" transform="translate(455.9,102.8) scale(3.38)" color="rgb( 31, 120, 180)"/>
	<use xlink:href="#gpPt6" transform="translate(548.8,96.7) scale(3.38)" color="rgb( 31, 120, 180)"/>
	<use xlink:href="#gpPt6" transform="translate(494.5,90.6) scale(3.38)" color="rgb( 31, 120, 180)"/>
	<use xlink:href="#gpPt6" transform="translate(585.6,84.5) scale(3.38)" color="rgb( 31, 120, 180)"/>
	<use xlink:href="#gpPt6" transform="translate(423.1,78.4) scale(3.38)" color="rgb( 31, 120, 180)"/>
	<use xlink:href="#gpPt6" transform="translate(526.1,72.3) scale(3.38)" color="rgb( 31, 120, 180)"/>
	<use xlink:href="#gpPt6" transform="translate(440.7,66.3) scale(3.38)" color="rgb( 31, 120, 180)"/>
	<use xlink:href="#gpPt6" transform="translate(722.0,60.2) scale(3.38)" color="rgb( 31, 120, 180)"/>
	<use xlink:href="#gpPt6" transform="translate(436.3,54.1) scale(3.38)" color="rgb( 31, 120, 180)"/>
	<use xlink:href="#gpPt6" transform="translate(1126.0,99.1) scale(3.38)" color="rgb( 31, 120, 180)"/>
</g>
	</g>
	<g id="gnuplot_plot_4"><title>Mild outliers</title>
<g fill="none" color="black" stroke="currentColor" stroke-width="1.00" stroke-linecap="butt" stroke-linejoin="miter">
	<g transform="translate(1155.4,121.0)" stroke="none" fill="black" font-family="Helvetica" font-size="12.00" text-anchor="start">
		<text><tspan font-family="Helvetica">Mild outliers</tspan></text>
	</g>
</g>
<g fill="none" color="black" stroke="currentColor" stroke-width="1.00" stroke-linecap="butt" stroke-linejoin="miter">
	<use xlink:href="#gpPt6" transform="translate(799.6,589.4) scale(3.38)" color="rgb(255, 127,   0)"/>
	<use xlink:href="#gpPt6" transform="translate(852.9,546.8) scale(3.38)" color="rgb(255, 127,   0)"/>
	<use xlink:href="#gpPt6" transform="translate(836.3,449.5) scale(3.38)" color="rgb(255, 127,   0)"/>
	<use xlink:href="#gpPt6" transform="translate(807.4,358.2) scale(3.38)" color="rgb(255, 127,   0)"/>
	<use xlink:href="#gpPt6" transform="translate(838.2,309.6) scale(3.38)" color="rgb(255, 127,   0)"/>
	<use xlink:href="#gpPt6" transform="translate(1126.0,117.1) scale(3.38)" color="rgb(255, 127,   0)"/>
</g>
	</g>
	<g id="gnuplot_plot_5"><title>gnuplot_plot_5</title>
<g fill="none" color="white" stroke="rgb(255, 127,   0)" stroke-width="2.00" stroke-linecap="butt" stroke-linejoin="miter">
</g>
<g fill="none" color="black" stroke="currentColor" stroke-width="2.00" stroke-linecap="butt" stroke-linejoin="miter">
	<path stroke="rgb(255, 127,   0)" d="M219.1,662.4 L219.1,54.1  "/></g>
	</g>
	<g id="gnuplot_plot_6"><title>gnuplot_plot_6</title>
<g fill="none" color="black" stroke="currentColor" stroke-width="2.00" stroke-linecap="butt" stroke-linejoin="miter">
	<path stroke="rgb(255, 127,   0)" d="M781.0,662.4 L781.0,54.1  "/></g>
	</g>
	<g id="gnuplot_plot_7"><title>gnuplot_plot_7</title>
<g fill="none" color="black" stroke="currentColor" stroke-width="2.00" stroke-linecap="butt" stroke-linejoin="miter">
</g>
	</g>
	<g id="gnuplot_plot_8"><title>gnuplot_plot_8</title>
<g fill="none" color="black" stroke="currentColor" stroke-width="2.00" stroke-linecap="butt" stroke-linejoin="miter">
	<path stroke="rgb(227,  26,  28)" d="M991.8,662.4 L991.8,54.1  "/></g>
	</g>
<g fill="none" color="black" stroke="currentColor" stroke-width="2.00" stroke-linecap="butt" stroke-linejoin="miter">
</g>
<g fill="none" color="black" stroke="black" stroke-width="1.00" stroke-linecap="butt" stroke-linejoin="miter">
</g>
<g fill="none" color="black" stroke="currentColor" stroke-width="1.00" stroke-linecap="butt" stroke-linejoin="miter">
	<path stroke="black" d="M71.9,54.1 L71.9,662.4 L1020.5,662.4 L1020.5,54.1 L71.9,54.1 Z  "/></g>
<g fill="none" color="black" stroke="currentColor" stroke-width="1.00" stroke-linecap="butt" stroke-linejoin="miter">
</g>
</g>
</svg>