<?xml version="1.0" encoding="UTF-8" standalone="no"?>
<svg viewBox="0 0 1280 720" xmlns="http://www.w3.org/2000/svg" xmlns:xlink="http://www.w3.org/1999/xlink">

<title>Gnuplot</title>
<desc>Produced by GNUPLOT 5.2 patchlevel 2 </desc>

<g id="gnuplot_canvas">

<rect x="0" y="0" width="1280" height="720" fill="none"/>
<defs>

	<circle id="gpDot" r="0.5" stroke-width="0.5"/>
	<path id="gpPt0" stroke-width="0.222" stroke="currentColor" d="M-1,0 h2 M0,-1 v2"/>
	<path id="gpPt1" stroke-width="0.222" stroke="currentColor" d="M-1,-1 L1,1 M1,-1 L-1,1"/>
	<path id="gpPt2" stroke-width="0.222" stroke="currentColor" d="M-1,0 L1,0 M0,-1 L0,1 M-1,-1 L1,1 M-1,1 L1,-1"/>
	<rect id="gpPt3" stroke-width="0.222" stroke="currentColor" x="-1" y="-1" width="2" height="2"/>
	<rect id="gpPt4" stroke-width="0.222" stroke="currentColor" fill="currentColor" x="-1" y="-1" width="2" height="2"/>
	<circle id="gpPt5" stroke-width="0.222" stroke="currentColor" cx="0" cy="0" r="1"/>
	<use xlink:href="#gpPt5" id="gpPt6" fill="currentColor" stroke="none"/>
	<path id="gpPt7" stroke-width="0.222" stroke="currentColor" d="M0,-1.33 L-1.33,0.67 L1.33,0.67 z"/>
	<use xlink:href="#gpPt7" id="gpPt8" fill="currentColor" stroke="none"/>
	<use xlink:href="#gpPt7" id="gpPt9" stroke="currentColor" transform="rotate(180)"/>
	<use xlink:href="#gpPt9" id="gpPt10" fill="currentColor" stroke="none"/>
	<use xlink:href="#gpPt3" id="gpPt11" stroke="currentColor" transform="rotate(45)"/>
	<use xlink:href="#gpPt11" id="gpPt12" fill="currentColor" stroke="none"/>
	<path id="gpPt13" stroke-width="0.222" stroke="currentColor" d="M0,1.330 L1.265,0.411 L0.782,-1.067 L-0.782,-1.076 L-1.265,0.411 z"/>
	<use xlink:href="#gpPt13" id="gpPt14" fill="currentColor" stroke="none"/>
	<filter id="textbox" filterUnits="objectBoundingBox" x="0" y="0" height="1" width="1">
	  <feFlood flood-color="white" flood-opacity="1" result="bgnd"/>
	  <feComposite in="SourceGraphic" in2="bgnd" operator="atop"/>
	</filter>
	<filter id="greybox" filterUnits="objectBoundingBox" x="0" y="0" height="1" width="1">
	  <feFlood flood-color="lightgrey" flood-opacity="1" result="grey"/>
	  <feComposite in="SourceGraphic" in2="grey" operator="atop"/>
	</filter>
</defs>
<g fill="none" color="white" stroke="currentColor" stroke-width="1.00" stroke-linecap="butt" stroke-linejoin="miter">
</g>
<g fill="none" color="black" stroke="currentColor" stroke-width="1.00" stroke-linecap="butt" stroke-linejoin="miter">
	<path stroke="black" d="M71.9,662.4 L80.9,662.4  "/>	<g transform="translate(63.6,666.3)" stroke="none" fill="black" font-family="Helvetica" font-size="12.00" text-anchor="end">
		<text><tspan font-family="Helvetica"> 0</tspan></text>
	</g>
</g>
<g fill="none" color="black" stroke="currentColor" stroke-width="1.00" stroke-linecap="butt" stroke-linejoin="miter">
	<path stroke="black" d="M71.9,540.7 L80.9,540.7  "/>	<g transform="translate(63.6,544.6)" stroke="none" fill="black" font-family="Helvetica" font-size="12.00" text-anchor="end">
		<text><tspan font-family="Helvetica"> 20</tspan></text>
	</g>
</g>
<g fill="none" color="black" stroke="currentColor" stroke-width="1.00" stroke-linecap="butt" stroke-linejoin="miter">
	<path stroke="black" d="M71.9,419.1 L80.9,419.1  "/>	<g transform="translate(63.6,423.0)" stroke="none" fill="black" font-family="Helvetica" font-size="12.00" text-anchor="end">
		<text><tspan font-family="Helvetica"> 40</tspan></text>
	</g>
</g>
<g fill="none" color="black" stroke="currentColor" stroke-width="1.00" stroke-linecap="butt" stroke-linejoin="miter">
	<path stroke="black" d="M71.9,297.4 L80.9,297.4  "/>	<g transform="translate(63.6,301.3)" stroke="none" fill="black" font-family="Helvetica" font-size="12.00" text-anchor="end">
		<text><tspan font-family="Helvetica"> 60</tspan></text>
	</g>
</g>
<g fill="none" color="black" stroke="currentColor" stroke-width="1.00" stroke-linecap="butt" stroke-linejoin="miter">
	<path stroke="black" d="M71.9,175.8 L80.9,175.8  "/>	<g transform="translate(63.6,179.7)" stroke="none" fill="black" font-family="Helvetica" font-size="12.00" text-anchor="end">
		<text><tspan font-family="Helvetica"> 80</tspan></text>
	</g>
</g>
<g fill="none" color="black" stroke="currentColor" stroke-width="1.00" stroke-linecap="butt" stroke-linejoin="miter">
	<path stroke="black" d="M71.9,54.1 L80.9,54.1  "/>	<g transform="translate(63.6,58.0)" stroke="none" fill="black" font-family="Helvetica" font-size="12.00" text-anchor="end">
		<text><tspan font-family="Helvetica"> 100</tspan></text>
	</g>
</g>
<g fill="none" color="black" stroke="currentColor" stroke-width="1.00" stroke-linecap="butt" stroke-linejoin="miter">
	<path stroke="black" d="M147.9,662.4 L147.9,653.4  "/>	<g transform="translate(147.9,684.3)" stroke="none" fill="black" font-family="Helvetica" font-size="12.00" text-anchor="middle">
		<text><tspan font-family="Helvetica"> 2.9</tspan></text>
	</g>
</g>
<g fill="none" color="black" stroke="currentColor" stroke-width="1.00" stroke-linecap="butt" stroke-linejoin="miter">
	<path stroke="black" d="M248.2,662.4 L248.2,653.4  "/>	<g transform="translate(248.2,684.3)" stroke="none" fill="black" font-family="Helvetica" font-size="12.00" text-anchor="middle">
		<text><tspan font-family="Helvetica"> 2.92</tspan></text>
	</g>
</g>
<g fill="none" color="black" stroke="currentColor" stroke-width="1.00" stroke-linecap="butt" stroke-linejoin="miter">
	<path stroke="black" d="M348.5,662.4 L348.5,653.4  "/>	<g transform="translate(348.5,684.3)" stroke="none" fill="black" font-family="Helvetica" font-size="12.00" text-anchor="middle">
		<text><tspan font-family="Helvetica"> 2.94</tspan></text>
	</g>
</g>
<g fill="none" color="black" stroke="currentColor" stroke-width="1.00" stroke-linecap="butt" stroke-linejoin="miter">
	<path stroke="black" d="M448.8,662.4 L448.8,653.4  "/>	<g transform="translate(448.8,684.3)" stroke="none" fill="black" font-family="Helvetica" font-size="12.00" text-anchor="middle">
		<text><tspan font-family="Helvetica"> 2.96</tspan></text>
	</g>
</g>
<g fill="none" color="black" stroke="currentColor" stroke-width="1.00" stroke-linecap="butt" stroke-linejoin="miter">
	<path stroke="black" d="M549.1,662.4 L549.1,653.4  "/>	<g transform="translate(549.1,684.3)" stroke="none" fill="black" font-family="Helvetica" font-size="12.00" text-anchor="middle">
		<text><tspan font-family="Helvetica"> 2.98</tspan></text>
	</g>
</g>
<g fill="none" color="black" stroke="currentColor" stroke-width="1.00" stroke-linecap="butt" stroke-linejoin="miter">
	<path stroke="black" d="M649.4,662.4 L649.4,653.4  "/>	<g transform="translate(649.4,684.3)" stroke="none" fill="black" font-family="Helvetica" font-size="12.00" text-anchor="middle">
		<text><tspan font-family="Helvetica"> 3</tspan></text>
	</g>
</g>
<g fill="none" color="black" stroke="currentColor" stroke-width="1.00" stroke-linecap="butt" stroke-linejoin="miter">
	<path stroke="black" d="M749.7,662.4 L749.7,653.4  "/>	<g transform="translate(749.7,684.3)" stroke="none" fill="black" font-family="Helvetica" font-size="12.00" text-anchor="middle">
		<text><tspan font-family="Helvetica"> 3.02</tspan></text>
	</g>
</g>
<g fill="none" color="black" stroke="currentColor" stroke-width="1.00" stroke-linecap="butt" stroke-linejoin="miter">
	<path stroke="black" d="M850.0,662.4 L850.0,653.4  "/>	<g transform="translate(850.0,684.3)" stroke="none" fill="black" font-family="Helvetica" font-size="12.00" text-anchor="middle">
		<text><tspan font-family="Helvetica"> 3.04</tspan></text>
	</g>
</g>
<g fill="none" color="black" stroke="currentColor" stroke-width="1.00" stroke-linecap="butt" stroke-linejoin="miter">
	<path stroke="black" d="M950.3,662.4 L950.3,653.4  "/>	<g transform="translate(950.3,684.3)" stroke="none" fill="black" font-family="Helvetica" font-size="12.00" text-anchor="middle">
		<text><tspan font-family="Helvetica"> 3.06</tspan></text>
	</g>
</g>
<g fill="none" color="black" stroke="currentColor" stroke-width="1.00" stroke-linecap="butt" stroke-linejoin="miter">
	<path stroke="black" d="M1020.5,662.4 L1011.5,662.4  "/>	<g transform="translate(1028.8,666.3)" stroke="none" fill="black" font-family="Helvetica" font-size="12.00" text-anchor="start">
		<text><tspan font-family="Helvetica"> 0</tspan></text>
	</g>
</g>
<g fill="none" color="black" stroke="currentColor" stroke-width="1.00" stroke-linecap="butt" stroke-linejoin="miter">
	<path stroke="black" d="M1020.5,586.4 L1011.5,586.4  "/>	<g transform="translate(1028.8,590.3)" stroke="none" fill="black" font-family="Helvetica" font-size="12.00" text-anchor="start">
		<text><tspan font-family="Helvetica"> 2</tspan></text>
	</g>
</g>
<g fill="none" color="black" stroke="currentColor" stroke-width="1.00" stroke-linecap="butt" stroke-linejoin="miter">
	<path stroke="black" d="M1020.5,510.3 L1011.5,510.3  "/>	<g transform="translate(1028.8,514.2)" stroke="none" fill="black" font-family="Helvetica" font-size="12.00" text-anchor="start">
		<text><tspan font-family="Helvetica"> 4</tspan></text>
	</g>
</g>
<g fill="none" color="black" stroke="currentColor" stroke-width="1.00" stroke-linecap="butt" stroke-linejoin="miter">
	<path stroke="black" d="M1020.5,434.3 L1011.5,434.3  "/>	<g transform="translate(1028.8,438.2)" stroke="none" fill="black" font-family="Helvetica" font-size="12.00" text-anchor="start">
		<text><tspan font-family="Helvetica"> 6</tspan></text>
	</g>
</g>
<g fill="none" color="black" stroke="currentColor" stroke-width="1.00" stroke-linecap="butt" stroke-linejoin="miter">
	<path stroke="black" d="M1020.5,358.2 L1011.5,358.2  "/>	<g transform="translate(1028.8,362.1)" stroke="none" fill="black" font-family="Helvetica" font-size="12.00" text-anchor="start">
		<text><tspan font-family="Helvetica"> 8</tspan></text>
	</g>
</g>
<g fill="none" color="black" stroke="currentColor" stroke-width="1.00" stroke-linecap="butt" stroke-linejoin="miter">
	<path stroke="black" d="M1020.5,282.2 L1011.5,282.2  "/>	<g transform="translate(1028.8,286.1)" stroke="none" fill="black" font-family="Helvetica" font-size="12.00" text-anchor="start">
		<text><tspan font-family="Helvetica"> 10</tspan></text>
	</g>
</g>
<g fill="none" color="black" stroke="currentColor" stroke-width="1.00" stroke-linecap="butt" stroke-linejoin="miter">
	<path stroke="black" d="M1020.5,206.2 L1011.5,206.2  "/>	<g transform="translate(1028.8,210.1)" stroke="none" fill="black" font-family="Helvetica" font-size="12.00" text-anchor="start">
		<text><tspan font-family="Helvetica"> 12</tspan></text>
	</g>
</g>
<g fill="none" color="black" stroke="currentColor" stroke-width="1.00" stroke-linecap="butt" stroke-linejoin="miter">
	<path stroke="black" d="M1020.5,130.1 L1011.5,130.1  "/>	<g transform="translate(1028.8,134.0)" stroke="none" fill="black" font-family="Helvetica" font-size="12.00" text-anchor="start">
		<text><tspan font-family="Helvetica"> 14</tspan></text>
	</g>
</g>
<g fill="none" color="black" stroke="currentColor" stroke-width="1.00" stroke-linecap="butt" stroke-linejoin="miter">
	<path stroke="black" d="M1020.5,54.1 L1011.5,54.1  "/>	<g transform="translate(1028.8,58.0)" stroke="none" fill="black" font-family="Helvetica" font-size="12.00" text-anchor="start">
		<text><tspan font-family="Helvetica"> 16</tspan></text>
	</g>
</g>
<g fill="none" color="black" stroke="currentColor" stroke-width="1.00" stroke-linecap="butt" stroke-linejoin="miter">
</g>
<g fill="none" color="black" stroke="currentColor" stroke-width="1.00" stroke-linecap="butt" stroke-linejoin="miter">
	<path stroke="black" d="M71.9,54.1 L71.9,662.4 L1020.5,662.4 L1020.5,54.1 L71.9,54.1 Z  "/></g>
<g fill="none" color="black" stroke="currentColor" stroke-width="1.00" stroke-linecap="butt" stroke-linejoin="miter">
	<g transform="translate(16.3,358.3) rotate(270)" stroke="none" fill="black" font-family="Helvetica" font-size="12.00" text-anchor="middle">
		<text><tspan font-family="Helvetica">Iterations</tspan></text>
	</g>
</g>
<g fill="none" color="black" stroke="currentColor" stroke-width="1.00" stroke-linecap="butt" stroke-linejoin="miter">
	<g transform="translate(1082.5,358.3) rotate(270)" stroke="none" fill="black" font-family="Helvetica" font-size="12.00" text-anchor="middle">
		<text><tspan font-family="Helvetica">Density (a.u.)</tspan></text>
	</g>
</g>
<g fill="none" color="black" stroke="currentColor" stroke-width="1.00" stroke-linecap="butt" stroke-linejoin="miter">
	<g transform="translate(546.2,711.3)" stroke="none" fill="black" font-family="Helvetica" font-size="12.00" text-anchor="middle">
		<text><tspan font-family="Helvetica">Average time (ms)</tspan></text>
	</g>
</g>
<g fill="none" color="black" stroke="currentColor" stroke-width="1.00" stroke-linecap="butt" stroke-linejoin="miter">
	<g transform="translate(546.2,31.0)" stroke="none" fill="black" font-family="Helvetica" font-size="12.00" text-anchor="middle">
		<text><tspan font-family="Helvetica">Problem 7/p7_tail_recursive_ish/123123123123123123123123123123</tspan></text>
	</g>
</g>
	<g id="gnuplot_plot_1"><title>PDF</title>
<g fill="none" color="black" stroke="currentColor" stroke-width="1.00" stroke-linecap="butt" stroke-linejoin="miter">
	<g transform="translate(1155.4,67.0)" stroke="none" fill="black" font-family="Helvetica" font-size="12.00" text-anchor="start">
		<text><tspan font-family="Helvetica">PDF</tspan></text>
	</g>
</g>
<g fill="none" color="black" stroke="currentColor" stroke-width="1.00" stroke-linecap="butt" stroke-linejoin="miter">
	<g stroke="none" shape-rendering="crispEdges">
		<polygon fill="rgb( 31, 120, 180)" fill-opacity="0.250000" points="1104.9,67.6 1147.1,67.6 1147.1,58.6 1104.9,58.6 "/>
		<polygon fill="rgb( 31, 120, 180)" fill-opacity="0.250000" points="71.9,662.2 73.8,662.2 75.7,662.2 77.6,662.2 79.5,662.2 81.4,662.1 83.3,662.1 85.2,662.1 87.1,662.0 89.0,662.0 90.9,662.0 92.8,661.9 94.7,661.9 96.6,661.8 98.5,661.8 100.4,661.7 102.3,661.7 104.2,661.6 106.1,661.5 108.0,661.4 109.9,661.3 111.8,661.3 113.7,661.2 115.6,661.1 117.5,660.9 119.4,660.8 121.3,660.7 123.2,660.6 125.1,660.4 127.0,660.3 128.9,660.1 130.8,659.9 132.7,659.7 134.6,659.5 136.5,659.3 138.4,659.1 140.3,658.9 142.2,658.7 144.1,658.4 146.0,658.1 147.9,657.8 149.8,657.5 151.7,657.2 153.6,656.9 155.5,656.6 157.4,656.2 159.3,655.8 161.2,655.4 163.1,655.0 165.0,654.6 167.0,654.2 168.9,653.7 170.8,653.2 172.7,652.7 174.6,652.2 176.5,651.6 178.4,651.0 180.3,650.5 182.2,649.8 184.1,649.2 186.0,648.5 187.9,647.8 189.8,647.1 191.7,646.4 193.6,645.6 195.5,644.8 197.4,644.0 199.3,643.1 201.2,642.2 203.1,641.3 205.0,640.4 206.9,639.4 208.8,638.3 210.7,637.3 212.6,636.2 214.5,635.1 216.4,633.9 218.3,632.7 220.2,631.4 222.1,630.2 224.0,628.8 225.9,627.4 227.8,626.0 229.7,624.6 231.6,623.0 233.5,621.5 235.4,619.9 237.3,618.2 239.2,616.5 241.1,614.7 243.0,612.9 244.9,611.0 246.8,609.1 248.7,607.1 250.6,605.0 252.5,602.9 254.4,600.7 256.3,598.4 258.2,596.1 260.1,593.7 262.0,591.3 263.9,588.8 265.8,586.2 267.7,583.5 269.6,580.8 271.5,578.0 273.4,575.1 275.3,572.1 277.2,569.1 279.1,566.0 281.0,562.8 282.9,559.5 284.8,556.1 286.7,552.6 288.6,549.1 290.5,545.4 292.4,541.6 294.3,537.8 296.2,533.9 298.1,529.8 300.0,525.6 301.9,521.4 303.8,517.0 305.7,512.5 307.6,507.9 309.5,503.2 311.4,498.4 313.3,493.5 315.2,488.4 317.1,483.2 319.0,477.9 320.9,472.4 322.8,466.8 324.7,461.1 326.6,455.3 328.5,449.3 330.4,443.2 332.3,437.0 334.2,430.6 336.1,424.1 338.0,417.5 339.9,410.7 341.8,403.8 343.7,396.8 345.6,389.7 347.5,382.4 349.4,375.1 351.3,367.6 353.2,360.1 355.1,352.4 357.1,344.6 359.0,336.8 360.9,328.9 362.8,320.9 364.7,312.9 366.6,304.8 368.5,296.7 370.4,288.6 372.3,280.4 374.2,272.3 376.1,264.2 378.0,256.1 379.9,248.0 381.8,240.0 383.7,232.0 385.6,224.2 387.5,216.4 389.4,208.7 391.3,201.2 393.2,193.8 395.1,186.5 397.0,179.4 398.9,172.5 400.8,165.7 402.7,159.2 404.6,152.9 406.5,146.8 408.4,140.9 410.3,135.3 412.2,129.9 414.1,124.8 416.0,120.0 417.9,115.5 419.8,111.2 421.7,107.2 423.6,103.5 425.5,100.2 427.4,97.1 429.3,94.3 431.2,91.8 433.1,89.6 435.0,87.7 436.9,86.1 438.8,84.8 440.7,83.7 442.6,83.0 444.5,82.5 446.4,82.3 448.3,82.3 450.2,82.6 452.1,83.2 454.0,83.9 455.9,84.9 457.8,86.1 459.7,87.5 461.6,89.0 463.5,90.8 465.4,92.7 467.3,94.7 469.2,96.9 471.1,99.2 473.0,101.7 474.9,104.2 476.8,106.8 478.7,109.5 480.6,112.3 482.5,115.1 484.4,117.9 486.3,120.8 488.2,123.7 490.1,126.7 492.0,129.6 493.9,132.6 495.8,135.5 497.7,138.4 499.6,141.3 501.5,144.2 503.4,147.1 505.3,149.9 507.2,152.7 509.1,155.4 511.0,158.1 512.9,160.8 514.8,163.4 516.7,166.0 518.6,168.5 520.5,171.0 522.4,173.4 524.3,175.8 526.2,178.2 528.1,180.5 530.0,182.8 531.9,185.0 533.8,187.2 535.7,189.4 537.6,191.6 539.5,193.7 541.4,195.8 543.3,197.9 545.2,200.0 547.2,202.1 549.1,204.2 551.0,206.3 552.9,208.4 554.8,210.5 556.7,212.6 558.6,214.7 560.5,216.9 562.4,219.1 564.3,221.3 566.2,223.5 568.1,225.7 570.0,228.0 571.9,230.4 573.8,232.7 575.7,235.1 577.6,237.6 579.5,240.0 581.4,242.6 583.3,245.1 585.2,247.7 587.1,250.4 589.0,253.1 590.9,255.9 592.8,258.7 594.7,261.5 596.6,264.4 598.5,267.3 600.4,270.3 602.3,273.4 604.2,276.4 606.1,279.5 608.0,282.7 609.9,285.9 611.8,289.1 613.7,292.4 615.6,295.7 617.5,299.0 619.4,302.4 621.3,305.8 623.2,309.2 625.1,312.7 627.0,316.2 628.9,319.7 630.8,323.2 632.7,326.8 634.6,330.4 636.5,334.0 638.4,337.6 640.3,341.2 642.2,344.8 644.1,348.4 646.0,352.1 647.9,355.7 649.8,359.4 651.7,363.0 653.6,366.7 655.5,370.3 657.4,373.9 659.3,377.6 661.2,381.2 663.1,384.8 665.0,388.4 666.9,392.0 668.8,395.5 670.7,399.1 672.6,402.6 674.5,406.1 676.4,409.5 678.3,413.0 680.2,416.4 682.1,419.8 684.0,423.1 685.9,426.5 687.8,429.7 689.7,433.0 691.6,436.2 693.5,439.4 695.4,442.5 697.3,445.6 699.2,448.6 701.1,451.6 703.0,454.6 704.9,457.5 706.8,460.3 708.7,463.1 710.6,465.9 712.5,468.6 714.4,471.2 716.3,473.8 718.2,476.4 720.1,478.9 722.0,481.4 723.9,483.8 725.8,486.1 727.7,488.4 729.6,490.7 731.5,492.9 733.4,495.1 735.3,497.2 737.3,499.3 739.2,501.3 741.1,503.3 743.0,505.3 744.9,507.2 746.8,509.1 748.7,510.9 750.6,512.8 752.5,514.5 754.4,516.3 756.3,518.0 758.2,519.7 760.1,521.4 762.0,523.1 763.9,524.7 765.8,526.3 767.7,528.0 769.6,529.6 771.5,531.2 773.4,532.8 775.3,534.3 777.2,535.9 779.1,537.5 781.0,539.1 782.9,540.7 784.8,542.2 786.7,543.8 788.6,545.4 790.5,547.0 792.4,548.6 794.3,550.3 796.2,551.9 798.1,553.5 800.0,555.2 801.9,556.9 803.8,558.5 805.7,560.2 807.6,561.9 809.5,563.6 811.4,565.4 813.3,567.1 815.2,568.9 817.1,570.6 819.0,572.4 820.9,574.2 822.8,576.0 824.7,577.7 826.6,579.5 828.5,581.3 830.4,583.2 832.3,585.0 834.2,586.8 836.1,588.6 838.0,590.4 839.9,592.2 841.8,594.0 843.7,595.8 845.6,597.6 847.5,599.4 849.4,601.1 851.3,602.9 853.2,604.6 855.1,606.4 857.0,608.1 858.9,609.8 860.8,611.4 862.7,613.1 864.6,614.7 866.5,616.3 868.4,617.9 870.3,619.5 872.2,621.0 874.1,622.5 876.0,624.0 877.9,625.4 879.8,626.8 881.7,628.2 883.6,629.6 885.5,630.9 887.4,632.2 889.3,633.5 891.2,634.7 893.1,635.9 895.0,637.1 896.9,638.2 898.8,639.3 900.7,640.4 902.6,641.4 904.5,642.4 906.4,643.4 908.3,644.3 910.2,645.2 912.1,646.1 914.0,647.0 915.9,647.8 917.8,648.5 919.7,649.3 921.6,650.0 923.5,650.7 925.4,651.4 927.4,652.0 929.3,652.6 931.2,653.2 933.1,653.7 935.0,654.2 936.9,654.7 938.8,655.2 940.7,655.7 942.6,656.1 944.5,656.5 946.4,656.9 948.3,657.3 950.2,657.6 952.1,657.9 954.0,658.2 955.9,658.5 957.8,658.8 959.7,659.1 961.6,659.3 963.5,659.5 965.4,659.8 967.3,660.0 969.2,660.1 971.1,660.3 973.0,660.5 974.9,660.6 976.8,660.8 978.7,660.9 980.6,661.0 982.5,661.1 984.4,661.2 986.3,661.3 988.2,661.4 990.1,661.5 992.0,661.6 993.9,661.7 995.8,661.7 997.7,661.8 999.6,661.8 1001.5,661.9 1003.4,661.9 1005.3,662.0 1007.2,662.0 1009.1,662.1 1011.0,662.1 1012.9,662.1 1014.8,662.2 1016.7,662.2 1018.6,662.2 1020.5,662.2 1020.5,662.4 1018.6,662.4 1016.7,662.4 1014.8,662.4 1012.9,662.4 1011.0,662.4 1009.1,662.4 1007.2,662.4 1005.3,662.4 1003.4,662.4 1001.5,662.4 999.6,662.4 997.7,662.4 995.8,662.4 993.9,662.4 992.0,662.4 990.1,662.4 988.2,662.4 986.3,662.4 984.4,662.4 982.5,662.4 980.6,662.4 978.7,662.4 976.8,662.4 974.9,662.4 973.0,662.4 971.1,662.4 969.2,662.4 967.3,662.4 965.4,662.4 963.5,662.4 961.6,662.4 959.7,662.4 957.8,662.4 955.9,662.4 954.0,662.4 952.1,662.4 950.2,662.4 948.3,662.4 946.4,662.4 944.5,662.4 942.6,662.4 940.7,662.4 938.8,662.4 936.9,662.4 935.0,662.4 933.1,662.4 931.2,662.4 929.3,662.4 927.4,662.4 925.4,662.4 923.5,662.4 921.6,662.4 919.7,662.4 917.8,662.4 915.9,662.4 914.0,662.4 912.1,662.4 910.2,662.4 908.3,662.4 906.4,662.4 904.5,662.4 902.6,662.4 900.7,662.4 898.8,662.4 896.9,662.4 895.0,662.4 893.1,662.4 891.2,662.4 889.3,662.4 887.4,662.4 885.5,662.4 883.6,662.4 881.7,662.4 879.8,662.4 877.9,662.4 876.0,662.4 874.1,662.4 872.2,662.4 870.3,662.4 868.4,662.4 866.5,662.4 864.6,662.4 862.7,662.4 860.8,662.4 858.9,662.4 857.0,662.4 855.1,662.4 853.2,662.4 851.3,662.4 849.4,662.4 847.5,662.4 845.6,662.4 843.7,662.4 841.8,662.4 839.9,662.4 838.0,662.4 836.1,662.4 834.2,662.4 832.3,662.4 830.4,662.4 828.5,662.4 826.6,662.4 824.7,662.4 822.8,662.4 820.9,662.4 819.0,662.4 817.1,662.4 815.2,662.4 813.3,662.4 811.4,662.4 809.5,662.4 807.6,662.4 805.7,662.4 803.8,662.4 801.9,662.4 800.0,662.4 798.1,662.4 796.2,662.4 794.3,662.4 792.4,662.4 790.5,662.4 788.6,662.4 786.7,662.4 784.8,662.4 782.9,662.4 781.0,662.4 779.1,662.4 777.2,662.4 775.3,662.4 773.4,662.4 771.5,662.4 769.6,662.4 767.7,662.4 765.8,662.4 763.9,662.4 762.0,662.4 760.1,662.4 758.2,662.4 756.3,662.4 754.4,662.4 752.5,662.4 750.6,662.4 748.7,662.4 746.8,662.4 744.9,662.4 743.0,662.4 741.1,662.4 739.2,662.4 737.3,662.4 735.3,662.4 733.4,662.4 731.5,662.4 729.6,662.4 727.7,662.4 725.8,662.4 723.9,662.4 722.0,662.4 720.1,662.4 718.2,662.4 716.3,662.4 714.4,662.4 712.5,662.4 710.6,662.4 708.7,662.4 706.8,662.4 704.9,662.4 703.0,662.4 701.1,662.4 699.2,662.4 697.3,662.4 695.4,662.4 693.5,662.4 691.6,662.4 689.7,662.4 687.8,662.4 685.9,662.4 684.0,662.4 682.1,662.4 680.2,662.4 678.3,662.4 676.4,662.4 674.5,662.4 672.6,662.4 670.7,662.4 668.8,662.4 666.9,662.4 665.0,662.4 663.1,662.4 661.2,662.4 659.3,662.4 657.4,662.4 655.5,662.4 653.6,662.4 651.7,662.4 649.8,662.4 647.9,662.4 646.0,662.4 644.1,662.4 642.2,662.4 640.3,662.4 638.4,662.4 636.5,662.4 634.6,662.4 632.7,662.4 630.8,662.4 628.9,662.4 627.0,662.4 625.1,662.4 623.2,662.4 621.3,662.4 619.4,662.4 617.5,662.4 615.6,662.4 613.7,662.4 611.8,662.4 609.9,662.4 608.0,662.4 606.1,662.4 604.2,662.4 602.3,662.4 600.4,662.4 598.5,662.4 596.6,662.4 594.7,662.4 592.8,662.4 590.9,662.4 589.0,662.4 587.1,662.4 585.2,662.4 583.3,662.4 581.4,662.4 579.5,662.4 577.6,662.4 575.7,662.4 573.8,662.4 571.9,662.4 570.0,662.4 568.1,662.4 566.2,662.4 564.3,662.4 562.4,662.4 560.5,662.4 558.6,662.4 556.7,662.4 554.8,662.4 552.9,662.4 551.0,662.4 549.1,662.4 547.2,662.4 545.2,662.4 543.3,662.4 541.4,662.4 539.5,662.4 537.6,662.4 535.7,662.4 533.8,662.4 531.9,662.4 530.0,662.4 528.1,662.4 526.2,662.4 524.3,662.4 522.4,662.4 520.5,662.4 518.6,662.4 516.7,662.4 514.8,662.4 512.9,662.4 511.0,662.4 509.1,662.4 507.2,662.4 505.3,662.4 503.4,662.4 501.5,662.4 499.6,662.4 497.7,662.4 495.8,662.4 493.9,662.4 492.0,662.4 490.1,662.4 488.2,662.4 486.3,662.4 484.4,662.4 482.5,662.4 480.6,662.4 478.7,662.4 476.8,662.4 474.9,662.4 473.0,662.4 471.1,662.4 469.2,662.4 467.3,662.4 465.4,662.4 463.5,662.4 461.6,662.4 459.7,662.4 457.8,662.4 455.9,662.4 454.0,662.4 452.1,662.4 450.2,662.4 448.3,662.4 446.4,662.4 444.5,662.4 442.6,662.4 440.7,662.4 438.8,662.4 436.9,662.4 435.0,662.4 433.1,662.4 431.2,662.4 429.3,662.4 427.4,662.4 425.5,662.4 423.6,662.4 421.7,662.4 419.8,662.4 417.9,662.4 416.0,662.4 414.1,662.4 412.2,662.4 410.3,662.4 408.4,662.4 406.5,662.4 404.6,662.4 402.7,662.4 400.8,662.4 398.9,662.4 397.0,662.4 395.1,662.4 393.2,662.4 391.3,662.4 389.4,662.4 387.5,662.4 385.6,662.4 383.7,662.4 381.8,662.4 379.9,662.4 378.0,662.4 376.1,662.4 374.2,662.4 372.3,662.4 370.4,662.4 368.5,662.4 366.6,662.4 364.7,662.4 362.8,662.4 360.9,662.4 359.0,662.4 357.1,662.4 355.1,662.4 353.2,662.4 351.3,662.4 349.4,662.4 347.5,662.4 345.6,662.4 343.7,662.4 341.8,662.4 339.9,662.4 338.0,662.4 336.1,662.4 334.2,662.4 332.3,662.4 330.4,662.4 328.5,662.4 326.6,662.4 324.7,662.4 322.8,662.4 320.9,662.4 319.0,662.4 317.1,662.4 315.2,662.4 313.3,662.4 311.4,662.4 309.5,662.4 307.6,662.4 305.7,662.4 303.8,662.4 301.9,662.4 300.0,662.4 298.1,662.4 296.2,662.4 294.3,662.4 292.4,662.4 290.5,662.4 288.6,662.4 286.7,662.4 284.8,662.4 282.9,662.4 281.0,662.4 279.1,662.4 277.2,662.4 275.3,662.4 273.4,662.4 271.5,662.4 269.6,662.4 267.7,662.4 265.8,662.4 263.9,662.4 262.0,662.4 260.1,662.4 258.2,662.4 256.3,662.4 254.4,662.4 252.5,662.4 250.6,662.4 248.7,662.4 246.8,662.4 244.9,662.4 243.0,662.4 241.1,662.4 239.2,662.4 237.3,662.4 235.4,662.4 233.5,662.4 231.6,662.4 229.7,662.4 227.8,662.4 225.9,662.4 224.0,662.4 222.1,662.4 220.2,662.4 218.3,662.4 216.4,662.4 214.5,662.4 212.6,662.4 210.7,662.4 208.8,662.4 206.9,662.4 205.0,662.4 203.1,662.4 201.2,662.4 199.3,662.4 197.4,662.4 195.5,662.4 193.6,662.4 191.7,662.4 189.8,662.4 187.9,662.4 186.0,662.4 184.1,662.4 182.2,662.4 180.3,662.4 178.4,662.4 176.5,662.4 174.6,662.4 172.7,662.4 170.8,662.4 168.9,662.4 167.0,662.4 165.0,662.4 163.1,662.4 161.2,662.4 159.3,662.4 157.4,662.4 155.5,662.4 153.6,662.4 151.7,662.4 149.8,662.4 147.9,662.4 146.0,662.4 144.1,662.4 142.2,662.4 140.3,662.4 138.4,662.4 136.5,662.4 134.6,662.4 132.7,662.4 130.8,662.4 128.9,662.4 127.0,662.4 125.1,662.4 123.2,662.4 121.3,662.4 119.4,662.4 117.5,662.4 115.6,662.4 113.7,662.4 111.8,662.4 109.9,662.4 108.0,662.4 106.1,662.4 104.2,662.4 102.3,662.4 100.4,662.4 98.5,662.4 96.6,662.4 94.7,662.4 92.8,662.4 90.9,662.4 89.0,662.4 87.1,662.4 85.2,662.4 83.3,662.4 81.4,662.4 79.5,662.4 77.6,662.4 75.7,662.4 73.8,662.4 71.9,662.4 "/>
	</g>
</g>
	</g>
	<g id="gnuplot_plot_2"><title>Mean</title>
<g fill="none" color="white" stroke="rgb( 31, 120, 180)" stroke-width="2.00" stroke-linecap="butt" stroke-linejoin="miter">
</g>
<g fill="none" color="black" stroke="currentColor" stroke-width="2.00" stroke-linecap="butt" stroke-linejoin="miter">
	<g transform="translate(1155.4,85.0)" stroke="none" fill="black" font-family="Helvetica" font-size="12.00" text-anchor="start">
		<text><tspan font-family="Helvetica">Mean</tspan></text>
	</g>
</g>
<g fill="none" color="black" stroke="currentColor" stroke-width="2.00" stroke-linecap="butt" stroke-linejoin="miter">
	<path stroke="rgb( 31, 120, 180)" d="M1104.9,81.1 L1147.1,81.1 M521.3,662.4 L521.3,54.1  "/></g>
	</g>
	<g id="gnuplot_plot_3"><title>"Clean" sample</title>
<g fill="none" color="white" stroke="rgb( 31, 120, 180)" stroke-width="1.00" stroke-linecap="butt" stroke-linejoin="miter">
</g>
<g fill="none" color="black" stroke="currentColor" stroke-width="1.00" stroke-linecap="butt" stroke-linejoin="miter">
	<g transform="translate(1155.4,103.0)" stroke="none" fill="black" font-family="Helvetica" font-size="12.00" text-anchor="start">
		<text><tspan font-family="Helvetica">"Clean" sample</tspan></text>
	</g>
</g>
<g fill="none" color="black" stroke="currentColor" stroke-width="1.00" stroke-linecap="butt" stroke-linejoin="miter">
	<use xlink:href="#gpPt6" transform="translate(643.9,656.3) scale(3.38)" color="rgb( 31, 120, 180)"/>
	<use xlink:href="#gpPt6" transform="translate(554.8,650.2) scale(3.38)" color="rgb( 31, 120, 180)"/>
	<use xlink:href="#gpPt6" transform="translate(600.2,644.2) scale(3.38)" color="rgb( 31, 120, 180)"/>
	<use xlink:href="#gpPt6" transform="translate(632.0,638.1) scale(3.38)" color="rgb( 31, 120, 180)"/>
	<use xlink:href="#gpPt6" transform="translate(787.6,632.0) scale(3.38)" color="rgb( 31, 120, 180)"/>
	<use xlink:href="#gpPt6" transform="translate(819.8,625.9) scale(3.38)" color="rgb( 31, 120, 180)"/>
	<use xlink:href="#gpPt6" transform="translate(679.8,619.8) scale(3.38)" color="rgb( 31, 120, 180)"/>
	<use xlink:href="#gpPt6" transform="translate(585.6,613.7) scale(3.38)" color="rgb( 31, 120, 180)"/>
	<use xlink:href="#gpPt6" transform="translate(789.5,607.7) scale(3.38)" color="rgb( 31, 120, 180)"/>
	<use xlink:href="#gpPt6" transform="translate(679.2,601.6) scale(3.38)" color="rgb( 31, 120, 180)"/>
	<use xlink:href="#gpPt6" transform="translate(484.3,595.5) scale(3.38)" color="rgb( 31, 120, 180)"/>
	<use xlink:href="#gpPt6" transform="translate(526.4,589.4) scale(3.38)" color="rgb( 31, 120, 180)"/>
	<use xlink:href="#gpPt6" transform="translate(482.3,583.3) scale(3.38)" color="rgb( 31, 120, 180)"/>
	<use xlink:href="#gpPt6" transform="translate(527.7,577.2) scale(3.38)" color="rgb( 31, 120, 180)"/>
	<use xlink:href="#gpPt6" transform="translate(314.9,571.2) scale(3.38)" color="rgb( 31, 120, 180)"/>
	<use xlink:href="#gpPt6" transform="translate(235.2,565.1) scale(3.38)" color="rgb( 31, 120, 180)"/>
	<use xlink:href="#gpPt6" transform="translate(351.4,559.0) scale(3.38)" color="rgb( 31, 120, 180)"/>
	<use xlink:href="#gpPt6" transform="translate(448.6,552.9) scale(3.38)" color="rgb( 31, 120, 180)"/>
	<use xlink:href="#gpPt6" transform="translate(432.8,546.8) scale(3.38)" color="rgb( 31, 120, 180)"/>
	<use xlink:href="#gpPt6" transform="translate(556.4,540.7) scale(3.38)" color="rgb( 31, 120, 180)"/>
	<use xlink:href="#gpPt6" transform="translate(652.7,534.7) scale(3.38)" color="rgb( 31, 120, 180)"/>
	<use xlink:href="#gpPt6" transform="translate(363.3,528.6) scale(3.38)" color="rgb( 31, 120, 180)"/>
	<use xlink:href="#gpPt6" transform="translate(353.1,522.5) scale(3.38)" color="rgb( 31, 120, 180)"/>
	<use xlink:href="#gpPt6" transform="translate(303.7,516.4) scale(3.38)" color="rgb( 31, 120, 180)"/>
	<use xlink:href="#gpPt6" transform="translate(307.6,510.3) scale(3.38)" color="rgb( 31, 120, 180)"/>
	<use xlink:href="#gpPt6" transform="translate(415.3,504.2) scale(3.38)" color="rgb( 31, 120, 180)"/>
	<use xlink:href="#gpPt6" transform="translate(568.4,498.2) scale(3.38)" color="rgb( 31, 120, 180)"/>
	<use xlink:href="#gpPt6" transform="translate(601.5,492.1) scale(3.38)" color="rgb( 31, 120, 180)"/>
	<use xlink:href="#gpPt6" transform="translate(709.0,486.0) scale(3.38)" color="rgb( 31, 120, 180)"/>
	<use xlink:href="#gpPt6" transform="translate(406.7,479.9) scale(3.38)" color="rgb( 31, 120, 180)"/>
	<use xlink:href="#gpPt6" transform="translate(510.7,473.8) scale(3.38)" color="rgb( 31, 120, 180)"/>
	<use xlink:href="#gpPt6" transform="translate(403.2,467.7) scale(3.38)" color="rgb( 31, 120, 180)"/>
	<use xlink:href="#gpPt6" transform="translate(626.7,461.7) scale(3.38)" color="rgb( 31, 120, 180)"/>
	<use xlink:href="#gpPt6" transform="translate(801.2,455.6) scale(3.38)" color="rgb( 31, 120, 180)"/>
	<use xlink:href="#gpPt6" transform="translate(462.6,449.5) scale(3.38)" color="rgb( 31, 120, 180)"/>
	<use xlink:href="#gpPt6" transform="translate(325.0,443.4) scale(3.38)" color="rgb( 31, 120, 180)"/>
	<use xlink:href="#gpPt6" transform="translate(413.7,437.3) scale(3.38)" color="rgb( 31, 120, 180)"/>
	<use xlink:href="#gpPt6" transform="translate(570.8,431.2) scale(3.38)" color="rgb( 31, 120, 180)"/>
	<use xlink:href="#gpPt6" transform="translate(755.9,425.2) scale(3.38)" color="rgb( 31, 120, 180)"/>
	<use xlink:href="#gpPt6" transform="translate(489.7,419.1) scale(3.38)" color="rgb( 31, 120, 180)"/>
	<use xlink:href="#gpPt6" transform="translate(428.7,413.0) scale(3.38)" color="rgb( 31, 120, 180)"/>
	<use xlink:href="#gpPt6" transform="translate(487.7,406.9) scale(3.38)" color="rgb( 31, 120, 180)"/>
	<use xlink:href="#gpPt6" transform="translate(761.5,400.8) scale(3.38)" color="rgb( 31, 120, 180)"/>
	<use xlink:href="#gpPt6" transform="translate(552.8,394.7) scale(3.38)" color="rgb( 31, 120, 180)"/>
	<use xlink:href="#gpPt6" transform="translate(432.9,388.7) scale(3.38)" color="rgb( 31, 120, 180)"/>
	<use xlink:href="#gpPt6" transform="translate(497.5,382.6) scale(3.38)" color="rgb( 31, 120, 180)"/>
	<use xlink:href="#gpPt6" transform="translate(857.2,376.5) scale(3.38)" color="rgb( 31, 120, 180)"/>
	<use xlink:href="#gpPt6" transform="translate(481.3,370.4) scale(3.38)" color="rgb( 31, 120, 180)"/>
	<use xlink:href="#gpPt6" transform="translate(408.5,364.3) scale(3.38)" color="rgb( 31, 120, 180)"/>
	<use xlink:href="#gpPt6" transform="translate(539.5,358.2) scale(3.38)" color="rgb( 31, 120, 180)"/>
	<use xlink:href="#gpPt6" transform="translate(691.0,352.2) scale(3.38)" color="rgb( 31, 120, 180)"/>
	<use xlink:href="#gpPt6" transform="translate(439.9,346.1) scale(3.38)" color="rgb( 31, 120, 180)"/>
	<use xlink:href="#gpPt6" transform="translate(424.0,340.0) scale(3.38)" color="rgb( 31, 120, 180)"/>
	<use xlink:href="#gpPt6" transform="translate(745.9,333.9) scale(3.38)" color="rgb( 31, 120, 180)"/>
	<use xlink:href="#gpPt6" transform="translate(421.4,327.8) scale(3.38)" color="rgb( 31, 120, 180)"/>
	<use xlink:href="#gpPt6" transform="translate(501.9,321.8) scale(3.38)" color="rgb( 31, 120, 180)"/>
	<use xlink:href="#gpPt6" transform="translate(611.2,315.7) scale(3.38)" color="rgb( 31, 120, 180)"/>
	<use xlink:href="#gpPt6" transform="translate(560.0,309.6) scale(3.38)" color="rgb( 31, 120, 180)"/>
	<use xlink:href="#gpPt6" transform="translate(412.4,303.5) scale(3.38)" color="rgb( 31, 120, 180)"/>
	<use xlink:href="#gpPt6" transform="translate(623.0,297.4) scale(3.38)" color="rgb( 31, 120, 180)"/>
	<use xlink:href="#gpPt6" transform="translate(526.5,291.3) scale(3.38)" color="rgb( 31, 120, 180)"/>
	<use xlink:href="#gpPt6" transform="translate(336.6,285.3) scale(3.38)" color="rgb( 31, 120, 180)"/>
	<use xlink:href="#gpPt6" transform="translate(535.5,279.2) scale(3.38)" color="rgb( 31, 120, 180)"/>
	<use xlink:href="#gpPt6" transform="translate(465.5,273.1) scale(3.38)" color="rgb( 31, 120, 180)"/>
	<use xlink:href="#gpPt6" transform="translate(447.4,267.0) scale(3.38)" color="rgb( 31, 120, 180)"/>
	<use xlink:href="#gpPt6" transform="translate(528.1,260.9) scale(3.38)" color="rgb( 31, 120, 180)"/>
	<use xlink:href="#gpPt6" transform="translate(410.6,254.8) scale(3.38)" color="rgb( 31, 120, 180)"/>
	<use xlink:href="#gpPt6" transform="translate(429.7,248.8) scale(3.38)" color="rgb( 31, 120, 180)"/>
	<use xlink:href="#gpPt6" transform="translate(592.6,242.7) scale(3.38)" color="rgb( 31, 120, 180)"/>
	<use xlink:href="#gpPt6" transform="translate(415.0,236.6) scale(3.38)" color="rgb( 31, 120, 180)"/>
	<use xlink:href="#gpPt6" transform="translate(538.6,230.5) scale(3.38)" color="rgb( 31, 120, 180)"/>
	<use xlink:href="#gpPt6" transform="translate(418.4,224.4) scale(3.38)" color="rgb( 31, 120, 180)"/>
	<use xlink:href="#gpPt6" transform="translate(410.0,218.3) scale(3.38)" color="rgb( 31, 120, 180)"/>
	<use xlink:href="#gpPt6" transform="translate(629.3,212.3) scale(3.38)" color="rgb( 31, 120, 180)"/>
	<use xlink:href="#gpPt6" transform="translate(463.8,206.2) scale(3.38)" color="rgb( 31, 120, 180)"/>
	<use xlink:href="#gpPt6" transform="translate(557.3,200.1) scale(3.38)" color="rgb( 31, 120, 180)"/>
	<use xlink:href="#gpPt6" transform="translate(443.3,194.0) scale(3.38)" color="rgb( 31, 120, 180)"/>
	<use xlink:href="#gpPt6" transform="translate(430.1,187.9) scale(3.38)" color="rgb( 31, 120, 180)"/>
	<use xlink:href="#gpPt6" transform="translate(685.4,181.8) scale(3.38)" color="rgb( 31, 120, 180)"/>
	<use xlink:href="#gpPt6" transform="translate(440.8,175.8) scale(3.38)" color="rgb( 31, 120, 180)"/>
	<use xlink:href="#gpPt6" transform="translate(630.1,169.7) scale(3.38)" color="rgb( 31, 120, 180)"/>
	<use xlink:href="#gpPt6" transform="translate(486.2,163.6) scale(3.38)" color="rgb( 31, 120, 180)"/>
	<use xlink:href="#gpPt6" transform="translate(683.6,157.5) scale(3.38)" color="rgb( 31, 120, 180)"/>
	<use xlink:href="#gpPt6" transform="translate(454.0,151.4) scale(3.38)" color="rgb( 31, 120, 180)"/>
	<use xlink:href="#gpPt6" transform="translate(589.8,145.3) scale(3.38)" color="rgb( 31, 120, 180)"/>
	<use xlink:href="#gpPt6" transform="translate(411.1,139.3) scale(3.38)" color="rgb( 31, 120, 180)"/>
	<use xlink:href="#gpPt6" transform="translate(575.8,133.2) scale(3.38)" color="rgb( 31, 120, 180)"/>
	<use xlink:href="#gpPt6" transform="translate(445.1,127.1) scale(3.38)" color="rgb( 31, 120, 180)"/>
	<use xlink:href="#gpPt6" transform="translate(514.2,121.0) scale(3.38)" color="rgb( 31, 120, 180)"/>
	<use xlink:href="#gpPt6" transform="translate(447.1,114.9) scale(3.38)" color="rgb( 31, 120, 180)"/>
	<use xlink:href="#gpPt6" transform="translate(613.0,108.8) scale(3.38)" color="rgb( 31, 120, 180)"/>
	<use xlink:href="#gpPt6" transform="translate(425.8,102.8) scale(3.38)" color="rgb( 31, 120, 180)"/>
	<use xlink:href="#gpPt6" transform="translate(546.9,96.7) scale(3.38)" color="rgb( 31, 120, 180)"/>
	<use xlink:href="#gpPt6" transform="translate(405.9,90.6) scale(3.38)" color="rgb( 31, 120, 180)"/>
	<use xlink:href="#gpPt6" transform="translate(705.6,84.5) scale(3.38)" color="rgb( 31, 120, 180)"/>
	<use xlink:href="#gpPt6" transform="translate(415.8,78.4) scale(3.38)" color="rgb( 31, 120, 180)"/>
	<use xlink:href="#gpPt6" transform="translate(579.6,72.3) scale(3.38)" color="rgb( 31, 120, 180)"/>
	<use xlink:href="#gpPt6" transform="translate(419.2,66.3) scale(3.38)" color="rgb( 31, 120, 180)"/>
	<use xlink:href="#gpPt6" transform="translate(647.7,60.2) scale(3.38)" color="rgb( 31, 120, 180)"/>
	<use xlink:href="#gpPt6" transform="translate(377.0,54.1) scale(3.38)" color="rgb( 31, 120, 180)"/>
	<use xlink:href="#gpPt6" transform="translate(1126.0,99.1) scale(3.38)" color="rgb( 31, 120, 180)"/>
</g>
	</g>
	<g id="gnuplot_plot_4"><title>gnuplot_plot_4</title>
<g fill="none" color="white" stroke="rgb( 31, 120, 180)" stroke-width="2.00" stroke-linecap="butt" stroke-linejoin="miter">
</g>
<g fill="none" color="black" stroke="currentColor" stroke-width="2.00" stroke-linecap="butt" stroke-linejoin="miter">
	<path stroke="rgb(255, 127,   0)" d="M152.6,662.4 L152.6,54.1  "/></g>
	</g>
	<g id="gnuplot_plot_5"><title>gnuplot_plot_5</title>
<g fill="none" color="black" stroke="currentColor" stroke-width="2.00" stroke-linecap="butt" stroke-linejoin="miter">
	<path stroke="rgb(255, 127,   0)" d="M874.7,662.4 L874.7,54.1  "/></g>
	</g>
	<g id="gnuplot_plot_6"><title>gnuplot_plot_6</title>
<g fill="none" color="black" stroke="currentColor" stroke-width="2.00" stroke-linecap="butt" stroke-linejoin="miter">
</g>
	</g>
	<g id="gnuplot_plot_7"><title>gnuplot_plot_7</title>
<g fill="none" color="black" stroke="currentColor" stroke-width="2.00" stroke-linecap="butt" stroke-linejoin="miter">
</g>
	</g>
<g fill="none" color="black" stroke="currentColor" stroke-width="2.00" stroke-linecap="butt" stroke-linejoin="miter">
</g>
<g fill="none" color="black" stroke="black" stroke-width="1.00" stroke-linecap="butt" stroke-linejoin="miter">
</g>
<g fill="none" color="black" stroke="currentColor" stroke-width="1.00" stroke-linecap="butt" stroke-linejoin="miter">
	<path stroke="black" d="M71.9,54.1 L71.9,662.4 L1020.5,662.4 L1020.5,54.1 L71.9,54.1 Z  "/></g>
<g fill="none" color="black" stroke="currentColor" stroke-width="1.00" stroke-linecap="butt" stroke-linejoin="miter">
</g>
</g>
</svg>