<?xml version="1.0" encoding="UTF-8" standalone="no"?>
<svg viewBox="0 0 1280 720" xmlns="http://www.w3.org/2000/svg" xmlns:xlink="http://www.w3.org/1999/xlink">

<title>Gnuplot</title>
<desc>Produced by GNUPLOT 5.2 patchlevel 2 </desc>

<g id="gnuplot_canvas">

<rect x="0" y="0" width="1280" height="720" fill="none"/>
<defs>

	<circle id="gpDot" r="0.5" stroke-width="0.5"/>
	<path id="gpPt0" stroke-width="0.222" stroke="currentColor" d="M-1,0 h2 M0,-1 v2"/>
	<path id="gpPt1" stroke-width="0.222" stroke="currentColor" d="M-1,-1 L1,1 M1,-1 L-1,1"/>
	<path id="gpPt2" stroke-width="0.222" stroke="currentColor" d="M-1,0 L1,0 M0,-1 L0,1 M-1,-1 L1,1 M-1,1 L1,-1"/>
	<rect id="gpPt3" stroke-width="0.222" stroke="currentColor" x="-1" y="-1" width="2" height="2"/>
	<rect id="gpPt4" stroke-width="0.222" stroke="currentColor" fill="currentColor" x="-1" y="-1" width="2" height="2"/>
	<circle id="gpPt5" stroke-width="0.222" stroke="currentColor" cx="0" cy="0" r="1"/>
	<use xlink:href="#gpPt5" id="gpPt6" fill="currentColor" stroke="none"/>
	<path id="gpPt7" stroke-width="0.222" stroke="currentColor" d="M0,-1.33 L-1.33,0.67 L1.33,0.67 z"/>
	<use xlink:href="#gpPt7" id="gpPt8" fill="currentColor" stroke="none"/>
	<use xlink:href="#gpPt7" id="gpPt9" stroke="currentColor" transform="rotate(180)"/>
	<use xlink:href="#gpPt9" id="gpPt10" fill="currentColor" stroke="none"/>
	<use xlink:href="#gpPt3" id="gpPt11" stroke="currentColor" transform="rotate(45)"/>
	<use xlink:href="#gpPt11" id="gpPt12" fill="currentColor" stroke="none"/>
	<path id="gpPt13" stroke-width="0.222" stroke="currentColor" d="M0,1.330 L1.265,0.411 L0.782,-1.067 L-0.782,-1.076 L-1.265,0.411 z"/>
	<use xlink:href="#gpPt13" id="gpPt14" fill="currentColor" stroke="none"/>
	<filter id="textbox" filterUnits="objectBoundingBox" x="0" y="0" height="1" width="1">
	  <feFlood flood-color="white" flood-opacity="1" result="bgnd"/>
	  <feComposite in="SourceGraphic" in2="bgnd" operator="atop"/>
	</filter>
	<filter id="greybox" filterUnits="objectBoundingBox" x="0" y="0" height="1" width="1">
	  <feFlood flood-color="lightgrey" flood-opacity="1" result="grey"/>
	  <feComposite in="SourceGraphic" in2="grey" operator="atop"/>
	</filter>
</defs>
<g fill="none" color="white" stroke="currentColor" stroke-width="1.00" stroke-linecap="butt" stroke-linejoin="miter">
</g>
<g fill="none" color="black" stroke="currentColor" stroke-width="1.00" stroke-linecap="butt" stroke-linejoin="miter">
	<path stroke="black" d="M71.9,662.4 L80.9,662.4  "/>	<g transform="translate(63.6,666.3)" stroke="none" fill="black" font-family="Helvetica" font-size="12.00" text-anchor="end">
		<text><tspan font-family="Helvetica"> 0</tspan></text>
	</g>
</g>
<g fill="none" color="black" stroke="currentColor" stroke-width="1.00" stroke-linecap="butt" stroke-linejoin="miter">
	<path stroke="black" d="M71.9,540.7 L80.9,540.7  "/>	<g transform="translate(63.6,544.6)" stroke="none" fill="black" font-family="Helvetica" font-size="12.00" text-anchor="end">
		<text><tspan font-family="Helvetica"> 20</tspan></text>
	</g>
</g>
<g fill="none" color="black" stroke="currentColor" stroke-width="1.00" stroke-linecap="butt" stroke-linejoin="miter">
	<path stroke="black" d="M71.9,419.1 L80.9,419.1  "/>	<g transform="translate(63.6,423.0)" stroke="none" fill="black" font-family="Helvetica" font-size="12.00" text-anchor="end">
		<text><tspan font-family="Helvetica"> 40</tspan></text>
	</g>
</g>
<g fill="none" color="black" stroke="currentColor" stroke-width="1.00" stroke-linecap="butt" stroke-linejoin="miter">
	<path stroke="black" d="M71.9,297.4 L80.9,297.4  "/>	<g transform="translate(63.6,301.3)" stroke="none" fill="black" font-family="Helvetica" font-size="12.00" text-anchor="end">
		<text><tspan font-family="Helvetica"> 60</tspan></text>
	</g>
</g>
<g fill="none" color="black" stroke="currentColor" stroke-width="1.00" stroke-linecap="butt" stroke-linejoin="miter">
	<path stroke="black" d="M71.9,175.8 L80.9,175.8  "/>	<g transform="translate(63.6,179.7)" stroke="none" fill="black" font-family="Helvetica" font-size="12.00" text-anchor="end">
		<text><tspan font-family="Helvetica"> 80</tspan></text>
	</g>
</g>
<g fill="none" color="black" stroke="currentColor" stroke-width="1.00" stroke-linecap="butt" stroke-linejoin="miter">
	<path stroke="black" d="M71.9,54.1 L80.9,54.1  "/>	<g transform="translate(63.6,58.0)" stroke="none" fill="black" font-family="Helvetica" font-size="12.00" text-anchor="end">
		<text><tspan font-family="Helvetica"> 100</tspan></text>
	</g>
</g>
<g fill="none" color="black" stroke="currentColor" stroke-width="1.00" stroke-linecap="butt" stroke-linejoin="miter">
	<path stroke="black" d="M159.8,662.4 L159.8,653.4  "/>	<g transform="translate(159.8,684.3)" stroke="none" fill="black" font-family="Helvetica" font-size="12.00" text-anchor="middle">
		<text><tspan font-family="Helvetica"> 2.6</tspan></text>
	</g>
</g>
<g fill="none" color="black" stroke="currentColor" stroke-width="1.00" stroke-linecap="butt" stroke-linejoin="miter">
	<path stroke="black" d="M332.9,662.4 L332.9,653.4  "/>	<g transform="translate(332.9,684.3)" stroke="none" fill="black" font-family="Helvetica" font-size="12.00" text-anchor="middle">
		<text><tspan font-family="Helvetica"> 2.7</tspan></text>
	</g>
</g>
<g fill="none" color="black" stroke="currentColor" stroke-width="1.00" stroke-linecap="butt" stroke-linejoin="miter">
	<path stroke="black" d="M506.0,662.4 L506.0,653.4  "/>	<g transform="translate(506.0,684.3)" stroke="none" fill="black" font-family="Helvetica" font-size="12.00" text-anchor="middle">
		<text><tspan font-family="Helvetica"> 2.8</tspan></text>
	</g>
</g>
<g fill="none" color="black" stroke="currentColor" stroke-width="1.00" stroke-linecap="butt" stroke-linejoin="miter">
	<path stroke="black" d="M679.1,662.4 L679.1,653.4  "/>	<g transform="translate(679.1,684.3)" stroke="none" fill="black" font-family="Helvetica" font-size="12.00" text-anchor="middle">
		<text><tspan font-family="Helvetica"> 2.9</tspan></text>
	</g>
</g>
<g fill="none" color="black" stroke="currentColor" stroke-width="1.00" stroke-linecap="butt" stroke-linejoin="miter">
	<path stroke="black" d="M852.2,662.4 L852.2,653.4  "/>	<g transform="translate(852.2,684.3)" stroke="none" fill="black" font-family="Helvetica" font-size="12.00" text-anchor="middle">
		<text><tspan font-family="Helvetica"> 3</tspan></text>
	</g>
</g>
<g fill="none" color="black" stroke="currentColor" stroke-width="1.00" stroke-linecap="butt" stroke-linejoin="miter">
	<path stroke="black" d="M1012.2,662.4 L1003.2,662.4  "/>	<g transform="translate(1020.5,666.3)" stroke="none" fill="black" font-family="Helvetica" font-size="12.00" text-anchor="start">
		<text><tspan font-family="Helvetica"> 0</tspan></text>
	</g>
</g>
<g fill="none" color="black" stroke="currentColor" stroke-width="1.00" stroke-linecap="butt" stroke-linejoin="miter">
	<path stroke="black" d="M1012.2,601.6 L1003.2,601.6  "/>	<g transform="translate(1020.5,605.5)" stroke="none" fill="black" font-family="Helvetica" font-size="12.00" text-anchor="start">
		<text><tspan font-family="Helvetica"> 0.5</tspan></text>
	</g>
</g>
<g fill="none" color="black" stroke="currentColor" stroke-width="1.00" stroke-linecap="butt" stroke-linejoin="miter">
	<path stroke="black" d="M1012.2,540.7 L1003.2,540.7  "/>	<g transform="translate(1020.5,544.6)" stroke="none" fill="black" font-family="Helvetica" font-size="12.00" text-anchor="start">
		<text><tspan font-family="Helvetica"> 1</tspan></text>
	</g>
</g>
<g fill="none" color="black" stroke="currentColor" stroke-width="1.00" stroke-linecap="butt" stroke-linejoin="miter">
	<path stroke="black" d="M1012.2,479.9 L1003.2,479.9  "/>	<g transform="translate(1020.5,483.8)" stroke="none" fill="black" font-family="Helvetica" font-size="12.00" text-anchor="start">
		<text><tspan font-family="Helvetica"> 1.5</tspan></text>
	</g>
</g>
<g fill="none" color="black" stroke="currentColor" stroke-width="1.00" stroke-linecap="butt" stroke-linejoin="miter">
	<path stroke="black" d="M1012.2,419.1 L1003.2,419.1  "/>	<g transform="translate(1020.5,423.0)" stroke="none" fill="black" font-family="Helvetica" font-size="12.00" text-anchor="start">
		<text><tspan font-family="Helvetica"> 2</tspan></text>
	</g>
</g>
<g fill="none" color="black" stroke="currentColor" stroke-width="1.00" stroke-linecap="butt" stroke-linejoin="miter">
	<path stroke="black" d="M1012.2,358.2 L1003.2,358.2  "/>	<g transform="translate(1020.5,362.1)" stroke="none" fill="black" font-family="Helvetica" font-size="12.00" text-anchor="start">
		<text><tspan font-family="Helvetica"> 2.5</tspan></text>
	</g>
</g>
<g fill="none" color="black" stroke="currentColor" stroke-width="1.00" stroke-linecap="butt" stroke-linejoin="miter">
	<path stroke="black" d="M1012.2,297.4 L1003.2,297.4  "/>	<g transform="translate(1020.5,301.3)" stroke="none" fill="black" font-family="Helvetica" font-size="12.00" text-anchor="start">
		<text><tspan font-family="Helvetica"> 3</tspan></text>
	</g>
</g>
<g fill="none" color="black" stroke="currentColor" stroke-width="1.00" stroke-linecap="butt" stroke-linejoin="miter">
	<path stroke="black" d="M1012.2,236.6 L1003.2,236.6  "/>	<g transform="translate(1020.5,240.5)" stroke="none" fill="black" font-family="Helvetica" font-size="12.00" text-anchor="start">
		<text><tspan font-family="Helvetica"> 3.5</tspan></text>
	</g>
</g>
<g fill="none" color="black" stroke="currentColor" stroke-width="1.00" stroke-linecap="butt" stroke-linejoin="miter">
	<path stroke="black" d="M1012.2,175.8 L1003.2,175.8  "/>	<g transform="translate(1020.5,179.7)" stroke="none" fill="black" font-family="Helvetica" font-size="12.00" text-anchor="start">
		<text><tspan font-family="Helvetica"> 4</tspan></text>
	</g>
</g>
<g fill="none" color="black" stroke="currentColor" stroke-width="1.00" stroke-linecap="butt" stroke-linejoin="miter">
	<path stroke="black" d="M1012.2,114.9 L1003.2,114.9  "/>	<g transform="translate(1020.5,118.8)" stroke="none" fill="black" font-family="Helvetica" font-size="12.00" text-anchor="start">
		<text><tspan font-family="Helvetica"> 4.5</tspan></text>
	</g>
</g>
<g fill="none" color="black" stroke="currentColor" stroke-width="1.00" stroke-linecap="butt" stroke-linejoin="miter">
	<path stroke="black" d="M1012.2,54.1 L1003.2,54.1  "/>	<g transform="translate(1020.5,58.0)" stroke="none" fill="black" font-family="Helvetica" font-size="12.00" text-anchor="start">
		<text><tspan font-family="Helvetica"> 5</tspan></text>
	</g>
</g>
<g fill="none" color="black" stroke="currentColor" stroke-width="1.00" stroke-linecap="butt" stroke-linejoin="miter">
</g>
<g fill="none" color="black" stroke="currentColor" stroke-width="1.00" stroke-linecap="butt" stroke-linejoin="miter">
	<path stroke="black" d="M71.9,54.1 L71.9,662.4 L1012.2,662.4 L1012.2,54.1 L71.9,54.1 Z  "/></g>
<g fill="none" color="black" stroke="currentColor" stroke-width="1.00" stroke-linecap="butt" stroke-linejoin="miter">
	<g transform="translate(16.3,358.3) rotate(270)" stroke="none" fill="black" font-family="Helvetica" font-size="12.00" text-anchor="middle">
		<text><tspan font-family="Helvetica">Iterations</tspan></text>
	</g>
</g>
<g fill="none" color="black" stroke="currentColor" stroke-width="1.00" stroke-linecap="butt" stroke-linejoin="miter">
	<g transform="translate(1082.5,358.3) rotate(270)" stroke="none" fill="black" font-family="Helvetica" font-size="12.00" text-anchor="middle">
		<text><tspan font-family="Helvetica">Density (a.u.)</tspan></text>
	</g>
</g>
<g fill="none" color="black" stroke="currentColor" stroke-width="1.00" stroke-linecap="butt" stroke-linejoin="miter">
	<g transform="translate(542.0,711.3)" stroke="none" fill="black" font-family="Helvetica" font-size="12.00" text-anchor="middle">
		<text><tspan font-family="Helvetica">Average time (ms)</tspan></text>
	</g>
</g>
<g fill="none" color="black" stroke="currentColor" stroke-width="1.00" stroke-linecap="butt" stroke-linejoin="miter">
	<g transform="translate(542.0,31.0)" stroke="none" fill="black" font-family="Helvetica" font-size="12.00" text-anchor="middle">
		<text><tspan font-family="Helvetica">Problem 7/p7_tail_recursive/123123123123123123123123123123</tspan></text>
	</g>
</g>
	<g id="gnuplot_plot_1"><title>PDF</title>
<g fill="none" color="black" stroke="currentColor" stroke-width="1.00" stroke-linecap="butt" stroke-linejoin="miter">
	<g transform="translate(1155.4,67.0)" stroke="none" fill="black" font-family="Helvetica" font-size="12.00" text-anchor="start">
		<text><tspan font-family="Helvetica">PDF</tspan></text>
	</g>
</g>
<g fill="none" color="black" stroke="currentColor" stroke-width="1.00" stroke-linecap="butt" stroke-linejoin="miter">
	<g stroke="none" shape-rendering="crispEdges">
		<polygon fill="rgb( 31, 120, 180)" fill-opacity="0.250000" points="1104.9,67.6 1147.1,67.6 1147.1,58.6 1104.9,58.6 "/>
		<polygon fill="rgb( 31, 120, 180)" fill-opacity="0.250000" points="71.9,661.6 73.8,661.5 75.7,661.4 77.6,661.3 79.4,661.2 81.3,661.1 83.2,660.9 85.1,660.8 87.0,660.7 88.9,660.5 90.7,660.3 92.6,660.2 94.5,660.0 96.4,659.8 98.3,659.5 100.2,659.3 102.0,659.0 103.9,658.7 105.8,658.4 107.7,658.1 109.6,657.7 111.5,657.4 113.4,657.0 115.2,656.5 117.1,656.1 119.0,655.6 120.9,655.1 122.8,654.5 124.7,653.9 126.5,653.3 128.4,652.6 130.3,651.9 132.2,651.1 134.1,650.3 136.0,649.5 137.9,648.6 139.7,647.6 141.6,646.6 143.5,645.5 145.4,644.4 147.3,643.2 149.2,642.0 151.0,640.6 152.9,639.2 154.8,637.8 156.7,636.2 158.6,634.6 160.5,632.9 162.3,631.1 164.2,629.3 166.1,627.3 168.0,625.3 169.9,623.2 171.8,620.9 173.7,618.6 175.5,616.2 177.4,613.7 179.3,611.0 181.2,608.3 183.1,605.5 185.0,602.5 186.8,599.4 188.7,596.3 190.6,593.0 192.5,589.5 194.4,586.0 196.3,582.4 198.2,578.6 200.0,574.7 201.9,570.7 203.8,566.5 205.7,562.3 207.6,557.9 209.5,553.3 211.3,548.7 213.2,543.9 215.1,539.0 217.0,534.0 218.9,528.9 220.8,523.6 222.6,518.2 224.5,512.7 226.4,507.1 228.3,501.3 230.2,495.5 232.1,489.5 234.0,483.4 235.8,477.2 237.7,471.0 239.6,464.6 241.5,458.1 243.4,451.5 245.3,444.8 247.1,438.1 249.0,431.3 250.9,424.3 252.8,417.4 254.7,410.3 256.6,403.2 258.5,396.1 260.3,388.8 262.2,381.6 264.1,374.3 266.0,367.0 267.9,359.6 269.8,352.2 271.6,344.9 273.5,337.5 275.4,330.1 277.3,322.7 279.2,315.4 281.1,308.0 282.9,300.7 284.8,293.4 286.7,286.2 288.6,279.0 290.5,271.9 292.4,264.9 294.3,257.9 296.1,251.0 298.0,244.2 299.9,237.5 301.8,230.9 303.7,224.4 305.6,218.0 307.4,211.8 309.3,205.6 311.2,199.6 313.1,193.8 315.0,188.1 316.9,182.6 318.8,177.2 320.6,172.0 322.5,166.9 324.4,162.1 326.3,157.4 328.2,152.9 330.1,148.6 331.9,144.5 333.8,140.6 335.7,136.9 337.6,133.4 339.5,130.1 341.4,127.0 343.2,124.1 345.1,121.5 347.0,119.0 348.9,116.8 350.8,114.8 352.7,113.0 354.6,111.4 356.4,110.0 358.3,108.9 360.2,108.0 362.1,107.2 364.0,106.7 365.9,106.4 367.7,106.3 369.6,106.4 371.5,106.7 373.4,107.2 375.3,107.9 377.2,108.7 379.1,109.8 380.9,111.0 382.8,112.4 384.7,113.9 386.6,115.7 388.5,117.5 390.4,119.5 392.2,121.7 394.1,124.0 396.0,126.4 397.9,129.0 399.8,131.6 401.7,134.4 403.5,137.2 405.4,140.2 407.3,143.2 409.2,146.4 411.1,149.6 413.0,152.8 414.9,156.2 416.7,159.5 418.6,163.0 420.5,166.4 422.4,169.9 424.3,173.5 426.2,177.0 428.0,180.6 429.9,184.2 431.8,187.7 433.7,191.3 435.6,194.9 437.5,198.5 439.4,202.0 441.2,205.5 443.1,209.0 445.0,212.5 446.9,216.0 448.8,219.4 450.7,222.8 452.5,226.1 454.4,229.4 456.3,232.7 458.2,235.9 460.1,239.0 462.0,242.2 463.8,245.2 465.7,248.3 467.6,251.2 469.5,254.2 471.4,257.0 473.3,259.8 475.2,262.6 477.0,265.3 478.9,268.0 480.8,270.6 482.7,273.2 484.6,275.8 486.5,278.2 488.3,280.7 490.2,283.1 492.1,285.5 494.0,287.8 495.9,290.1 497.8,292.4 499.7,294.6 501.5,296.8 503.4,299.0 505.3,301.1 507.2,303.2 509.1,305.3 511.0,307.4 512.8,309.5 514.7,311.5 516.6,313.6 518.5,315.6 520.4,317.6 522.3,319.6 524.1,321.6 526.0,323.5 527.9,325.5 529.8,327.5 531.7,329.4 533.6,331.4 535.5,333.3 537.3,335.3 539.2,337.2 541.1,339.2 543.0,341.1 544.9,343.1 546.8,345.0 548.6,346.9 550.5,348.9 552.4,350.8 554.3,352.7 556.2,354.6 558.1,356.5 560.0,358.4 561.8,360.3 563.7,362.2 565.6,364.1 567.5,365.9 569.4,367.8 571.3,369.6 573.1,371.4 575.0,373.2 576.9,375.0 578.8,376.8 580.7,378.5 582.6,380.2 584.4,381.9 586.3,383.5 588.2,385.2 590.1,386.7 592.0,388.3 593.9,389.8 595.8,391.3 597.6,392.7 599.5,394.1 601.4,395.5 603.3,396.8 605.2,398.0 607.1,399.3 608.9,400.4 610.8,401.5 612.7,402.6 614.6,403.6 616.5,404.6 618.4,405.5 620.3,406.4 622.1,407.2 624.0,408.0 625.9,408.7 627.8,409.3 629.7,410.0 631.6,410.5 633.4,411.0 635.3,411.5 637.2,411.9 639.1,412.3 641.0,412.6 642.9,412.9 644.7,413.1 646.6,413.3 648.5,413.5 650.4,413.6 652.3,413.7 654.2,413.7 656.1,413.8 657.9,413.8 659.8,413.8 661.7,413.7 663.6,413.7 665.5,413.6 667.4,413.5 669.2,413.4 671.1,413.3 673.0,413.2 674.9,413.1 676.8,413.1 678.7,413.0 680.6,412.9 682.4,412.9 684.3,412.8 686.2,412.8 688.1,412.8 690.0,412.9 691.9,413.0 693.7,413.1 695.6,413.2 697.5,413.4 699.4,413.6 701.3,413.9 703.2,414.3 705.0,414.6 706.9,415.1 708.8,415.6 710.7,416.1 712.6,416.7 714.5,417.4 716.4,418.1 718.2,418.9 720.1,419.8 722.0,420.7 723.9,421.7 725.8,422.8 727.7,424.0 729.5,425.2 731.4,426.5 733.3,427.8 735.2,429.3 737.1,430.8 739.0,432.3 740.9,434.0 742.7,435.7 744.6,437.5 746.5,439.3 748.4,441.2 750.3,443.2 752.2,445.3 754.0,447.4 755.9,449.6 757.8,451.8 759.7,454.1 761.6,456.5 763.5,458.9 765.3,461.3 767.2,463.8 769.1,466.4 771.0,469.0 772.9,471.6 774.8,474.3 776.7,477.1 778.5,479.8 780.4,482.6 782.3,485.5 784.2,488.3 786.1,491.2 788.0,494.1 789.8,497.1 791.7,500.0 793.6,503.0 795.5,506.0 797.4,509.0 799.3,512.0 801.2,515.0 803.0,518.0 804.9,521.0 806.8,524.0 808.7,527.0 810.6,530.1 812.5,533.1 814.3,536.0 816.2,539.0 818.1,542.0 820.0,544.9 821.9,547.9 823.8,550.8 825.6,553.6 827.5,556.5 829.4,559.3 831.3,562.2 833.2,564.9 835.1,567.7 837.0,570.4 838.8,573.1 840.7,575.7 842.6,578.3 844.5,580.9 846.4,583.5 848.3,586.0 850.1,588.4 852.0,590.8 853.9,593.2 855.8,595.5 857.7,597.8 859.6,600.1 861.5,602.2 863.3,604.4 865.2,606.5 867.1,608.6 869.0,610.6 870.9,612.5 872.8,614.4 874.6,616.3 876.5,618.1 878.4,619.9 880.3,621.6 882.2,623.3 884.1,624.9 885.9,626.5 887.8,628.1 889.7,629.6 891.6,631.0 893.5,632.4 895.4,633.8 897.3,635.1 899.1,636.3 901.0,637.6 902.9,638.7 904.8,639.9 906.7,641.0 908.6,642.0 910.4,643.0 912.3,644.0 914.2,645.0 916.1,645.9 918.0,646.7 919.9,647.6 921.8,648.4 923.6,649.1 925.5,649.9 927.4,650.5 929.3,651.2 931.2,651.8 933.1,652.5 934.9,653.0 936.8,653.6 938.7,654.1 940.6,654.6 942.5,655.1 944.4,655.5 946.2,655.9 948.1,656.4 950.0,656.7 951.9,657.1 953.8,657.4 955.7,657.8 957.6,658.1 959.4,658.4 961.3,658.6 963.2,658.9 965.1,659.1 967.0,659.4 968.9,659.6 970.7,659.8 972.6,660.0 974.5,660.1 976.4,660.3 978.3,660.4 980.2,660.6 982.1,660.7 983.9,660.9 985.8,661.0 987.7,661.1 989.6,661.2 991.5,661.3 993.4,661.4 995.2,661.4 997.1,661.5 999.0,661.6 1000.9,661.7 1002.8,661.7 1004.7,661.8 1006.5,661.8 1008.4,661.9 1010.3,661.9 1012.2,662.0 1012.2,662.4 1010.3,662.4 1008.4,662.4 1006.5,662.4 1004.7,662.4 1002.8,662.4 1000.9,662.4 999.0,662.4 997.1,662.4 995.2,662.4 993.4,662.4 991.5,662.4 989.6,662.4 987.7,662.4 985.8,662.4 983.9,662.4 982.1,662.4 980.2,662.4 978.3,662.4 976.4,662.4 974.5,662.4 972.6,662.4 970.7,662.4 968.9,662.4 967.0,662.4 965.1,662.4 963.2,662.4 961.3,662.4 959.4,662.4 957.6,662.4 955.7,662.4 953.8,662.4 951.9,662.4 950.0,662.4 948.1,662.4 946.2,662.4 944.4,662.4 942.5,662.4 940.6,662.4 938.7,662.4 936.8,662.4 934.9,662.4 933.1,662.4 931.2,662.4 929.3,662.4 927.4,662.4 925.5,662.4 923.6,662.4 921.8,662.4 919.9,662.4 918.0,662.4 916.1,662.4 914.2,662.4 912.3,662.4 910.4,662.4 908.6,662.4 906.7,662.4 904.8,662.4 902.9,662.4 901.0,662.4 899.1,662.4 897.3,662.4 895.4,662.4 893.5,662.4 891.6,662.4 889.7,662.4 887.8,662.4 885.9,662.4 884.1,662.4 882.2,662.4 880.3,662.4 878.4,662.4 876.5,662.4 874.6,662.4 872.8,662.4 870.9,662.4 869.0,662.4 867.1,662.4 865.2,662.4 863.3,662.4 861.5,662.4 859.6,662.4 857.7,662.4 855.8,662.4 853.9,662.4 852.0,662.4 850.1,662.4 848.3,662.4 846.4,662.4 844.5,662.4 842.6,662.4 840.7,662.4 838.8,662.4 837.0,662.4 835.1,662.4 833.2,662.4 831.3,662.4 829.4,662.4 827.5,662.4 825.6,662.4 823.8,662.4 821.9,662.4 820.0,662.4 818.1,662.4 816.2,662.4 814.3,662.4 812.5,662.4 810.6,662.4 808.7,662.4 806.8,662.4 804.9,662.4 803.0,662.4 801.2,662.4 799.3,662.4 797.4,662.4 795.5,662.4 793.6,662.4 791.7,662.4 789.8,662.4 788.0,662.4 786.1,662.4 784.2,662.4 782.3,662.4 780.4,662.4 778.5,662.4 776.7,662.4 774.8,662.4 772.9,662.4 771.0,662.4 769.1,662.4 767.2,662.4 765.3,662.4 763.5,662.4 761.6,662.4 759.7,662.4 757.8,662.4 755.9,662.4 754.0,662.4 752.2,662.4 750.3,662.4 748.4,662.4 746.5,662.4 744.6,662.4 742.7,662.4 740.9,662.4 739.0,662.4 737.1,662.4 735.2,662.4 733.3,662.4 731.4,662.4 729.5,662.4 727.7,662.4 725.8,662.4 723.9,662.4 722.0,662.4 720.1,662.4 718.2,662.4 716.4,662.4 714.5,662.4 712.6,662.4 710.7,662.4 708.8,662.4 706.9,662.4 705.0,662.4 703.2,662.4 701.3,662.4 699.4,662.4 697.5,662.4 695.6,662.4 693.7,662.4 691.9,662.4 690.0,662.4 688.1,662.4 686.2,662.4 684.3,662.4 682.4,662.4 680.6,662.4 678.7,662.4 676.8,662.4 674.9,662.4 673.0,662.4 671.1,662.4 669.2,662.4 667.4,662.4 665.5,662.4 663.6,662.4 661.7,662.4 659.8,662.4 657.9,662.4 656.1,662.4 654.2,662.4 652.3,662.4 650.4,662.4 648.5,662.4 646.6,662.4 644.7,662.4 642.9,662.4 641.0,662.4 639.1,662.4 637.2,662.4 635.3,662.4 633.4,662.4 631.6,662.4 629.7,662.4 627.8,662.4 625.9,662.4 624.0,662.4 622.1,662.4 620.3,662.4 618.4,662.4 616.5,662.4 614.6,662.4 612.7,662.4 610.8,662.4 608.9,662.4 607.1,662.4 605.2,662.4 603.3,662.4 601.4,662.4 599.5,662.4 597.6,662.4 595.8,662.4 593.9,662.4 592.0,662.4 590.1,662.4 588.2,662.4 586.3,662.4 584.4,662.4 582.6,662.4 580.7,662.4 578.8,662.4 576.9,662.4 575.0,662.4 573.1,662.4 571.3,662.4 569.4,662.4 567.5,662.4 565.6,662.4 563.7,662.4 561.8,662.4 560.0,662.4 558.1,662.4 556.2,662.4 554.3,662.4 552.4,662.4 550.5,662.4 548.6,662.4 546.8,662.4 544.9,662.4 543.0,662.4 541.1,662.4 539.2,662.4 537.3,662.4 535.5,662.4 533.6,662.4 531.7,662.4 529.8,662.4 527.9,662.4 526.0,662.4 524.1,662.4 522.3,662.4 520.4,662.4 518.5,662.4 516.6,662.4 514.7,662.4 512.8,662.4 511.0,662.4 509.1,662.4 507.2,662.4 505.3,662.4 503.4,662.4 501.5,662.4 499.7,662.4 497.8,662.4 495.9,662.4 494.0,662.4 492.1,662.4 490.2,662.4 488.3,662.4 486.5,662.4 484.6,662.4 482.7,662.4 480.8,662.4 478.9,662.4 477.0,662.4 475.2,662.4 473.3,662.4 471.4,662.4 469.5,662.4 467.6,662.4 465.7,662.4 463.8,662.4 462.0,662.4 460.1,662.4 458.2,662.4 456.3,662.4 454.4,662.4 452.5,662.4 450.7,662.4 448.8,662.4 446.9,662.4 445.0,662.4 443.1,662.4 441.2,662.4 439.4,662.4 437.5,662.4 435.6,662.4 433.7,662.4 431.8,662.4 429.9,662.4 428.0,662.4 426.2,662.4 424.3,662.4 422.4,662.4 420.5,662.4 418.6,662.4 416.7,662.4 414.9,662.4 413.0,662.4 411.1,662.4 409.2,662.4 407.3,662.4 405.4,662.4 403.5,662.4 401.7,662.4 399.8,662.4 397.9,662.4 396.0,662.4 394.1,662.4 392.2,662.4 390.4,662.4 388.5,662.4 386.6,662.4 384.7,662.4 382.8,662.4 380.9,662.4 379.1,662.4 377.2,662.4 375.3,662.4 373.4,662.4 371.5,662.4 369.6,662.4 367.7,662.4 365.9,662.4 364.0,662.4 362.1,662.4 360.2,662.4 358.3,662.4 356.4,662.4 354.6,662.4 352.7,662.4 350.8,662.4 348.9,662.4 347.0,662.4 345.1,662.4 343.2,662.4 341.4,662.4 339.5,662.4 337.6,662.4 335.7,662.4 333.8,662.4 331.9,662.4 330.1,662.4 328.2,662.4 326.3,662.4 324.4,662.4 322.5,662.4 320.6,662.4 318.8,662.4 316.9,662.4 315.0,662.4 313.1,662.4 311.2,662.4 309.3,662.4 307.4,662.4 305.6,662.4 303.7,662.4 301.8,662.4 299.9,662.4 298.0,662.4 296.1,662.4 294.3,662.4 292.4,662.4 290.5,662.4 288.6,662.4 286.7,662.4 284.8,662.4 282.9,662.4 281.1,662.4 279.2,662.4 277.3,662.4 275.4,662.4 273.5,662.4 271.6,662.4 269.8,662.4 267.9,662.4 266.0,662.4 264.1,662.4 262.2,662.4 260.3,662.4 258.5,662.4 256.6,662.4 254.7,662.4 252.8,662.4 250.9,662.4 249.0,662.4 247.1,662.4 245.3,662.4 243.4,662.4 241.5,662.4 239.6,662.4 237.7,662.4 235.8,662.4 234.0,662.4 232.1,662.4 230.2,662.4 228.3,662.4 226.4,662.4 224.5,662.4 222.6,662.4 220.8,662.4 218.9,662.4 217.0,662.4 215.1,662.4 213.2,662.4 211.3,662.4 209.5,662.4 207.6,662.4 205.7,662.4 203.8,662.4 201.9,662.4 200.0,662.4 198.2,662.4 196.3,662.4 194.4,662.4 192.5,662.4 190.6,662.4 188.7,662.4 186.8,662.4 185.0,662.4 183.1,662.4 181.2,662.4 179.3,662.4 177.4,662.4 175.5,662.4 173.7,662.4 171.8,662.4 169.9,662.4 168.0,662.4 166.1,662.4 164.2,662.4 162.3,662.4 160.5,662.4 158.6,662.4 156.7,662.4 154.8,662.4 152.9,662.4 151.0,662.4 149.2,662.4 147.3,662.4 145.4,662.4 143.5,662.4 141.6,662.4 139.7,662.4 137.9,662.4 136.0,662.4 134.1,662.4 132.2,662.4 130.3,662.4 128.4,662.4 126.5,662.4 124.7,662.4 122.8,662.4 120.9,662.4 119.0,662.4 117.1,662.4 115.2,662.4 113.4,662.4 111.5,662.4 109.6,662.4 107.7,662.4 105.8,662.4 103.9,662.4 102.0,662.4 100.2,662.4 98.3,662.4 96.4,662.4 94.5,662.4 92.6,662.4 90.7,662.4 88.9,662.4 87.0,662.4 85.1,662.4 83.2,662.4 81.3,662.4 79.4,662.4 77.6,662.4 75.7,662.4 73.8,662.4 71.9,662.4 "/>
	</g>
</g>
	</g>
	<g id="gnuplot_plot_2"><title>Mean</title>
<g fill="none" color="white" stroke="rgb( 31, 120, 180)" stroke-width="2.00" stroke-linecap="butt" stroke-linejoin="miter">
</g>
<g fill="none" color="black" stroke="currentColor" stroke-width="2.00" stroke-linecap="butt" stroke-linejoin="miter">
	<g transform="translate(1155.4,85.0)" stroke="none" fill="black" font-family="Helvetica" font-size="12.00" text-anchor="start">
		<text><tspan font-family="Helvetica">Mean</tspan></text>
	</g>
</g>
<g fill="none" color="black" stroke="currentColor" stroke-width="2.00" stroke-linecap="butt" stroke-linejoin="miter">
	<path stroke="rgb( 31, 120, 180)" d="M1104.9,81.1 L1147.1,81.1 M484.0,662.4 L484.0,54.1  "/></g>
	</g>
	<g id="gnuplot_plot_3"><title>"Clean" sample</title>
<g fill="none" color="white" stroke="rgb( 31, 120, 180)" stroke-width="1.00" stroke-linecap="butt" stroke-linejoin="miter">
</g>
<g fill="none" color="black" stroke="currentColor" stroke-width="1.00" stroke-linecap="butt" stroke-linejoin="miter">
	<g transform="translate(1155.4,103.0)" stroke="none" fill="black" font-family="Helvetica" font-size="12.00" text-anchor="start">
		<text><tspan font-family="Helvetica">"Clean" sample</tspan></text>
	</g>
</g>
<g fill="none" color="black" stroke="currentColor" stroke-width="1.00" stroke-linecap="butt" stroke-linejoin="miter">
	<use xlink:href="#gpPt6" transform="translate(356.3,656.3) scale(3.38)" color="rgb( 31, 120, 180)"/>
	<use xlink:href="#gpPt6" transform="translate(374.7,650.2) scale(3.38)" color="rgb( 31, 120, 180)"/>
	<use xlink:href="#gpPt6" transform="translate(324.7,644.2) scale(3.38)" color="rgb( 31, 120, 180)"/>
	<use xlink:href="#gpPt6" transform="translate(375.8,638.1) scale(3.38)" color="rgb( 31, 120, 180)"/>
	<use xlink:href="#gpPt6" transform="translate(323.9,632.0) scale(3.38)" color="rgb( 31, 120, 180)"/>
	<use xlink:href="#gpPt6" transform="translate(297.6,625.9) scale(3.38)" color="rgb( 31, 120, 180)"/>
	<use xlink:href="#gpPt6" transform="translate(275.7,619.8) scale(3.38)" color="rgb( 31, 120, 180)"/>
	<use xlink:href="#gpPt6" transform="translate(303.2,613.7) scale(3.38)" color="rgb( 31, 120, 180)"/>
	<use xlink:href="#gpPt6" transform="translate(287.9,607.7) scale(3.38)" color="rgb( 31, 120, 180)"/>
	<use xlink:href="#gpPt6" transform="translate(299.4,601.6) scale(3.38)" color="rgb( 31, 120, 180)"/>
	<use xlink:href="#gpPt6" transform="translate(351.2,595.5) scale(3.38)" color="rgb( 31, 120, 180)"/>
	<use xlink:href="#gpPt6" transform="translate(356.8,589.4) scale(3.38)" color="rgb( 31, 120, 180)"/>
	<use xlink:href="#gpPt6" transform="translate(364.8,583.3) scale(3.38)" color="rgb( 31, 120, 180)"/>
	<use xlink:href="#gpPt6" transform="translate(381.0,577.2) scale(3.38)" color="rgb( 31, 120, 180)"/>
	<use xlink:href="#gpPt6" transform="translate(345.5,571.2) scale(3.38)" color="rgb( 31, 120, 180)"/>
	<use xlink:href="#gpPt6" transform="translate(287.5,565.1) scale(3.38)" color="rgb( 31, 120, 180)"/>
	<use xlink:href="#gpPt6" transform="translate(288.9,559.0) scale(3.38)" color="rgb( 31, 120, 180)"/>
	<use xlink:href="#gpPt6" transform="translate(275.7,552.9) scale(3.38)" color="rgb( 31, 120, 180)"/>
	<use xlink:href="#gpPt6" transform="translate(270.3,546.8) scale(3.38)" color="rgb( 31, 120, 180)"/>
	<use xlink:href="#gpPt6" transform="translate(288.5,540.7) scale(3.38)" color="rgb( 31, 120, 180)"/>
	<use xlink:href="#gpPt6" transform="translate(289.6,534.7) scale(3.38)" color="rgb( 31, 120, 180)"/>
	<use xlink:href="#gpPt6" transform="translate(305.3,528.6) scale(3.38)" color="rgb( 31, 120, 180)"/>
	<use xlink:href="#gpPt6" transform="translate(351.1,522.5) scale(3.38)" color="rgb( 31, 120, 180)"/>
	<use xlink:href="#gpPt6" transform="translate(430.6,516.4) scale(3.38)" color="rgb( 31, 120, 180)"/>
	<use xlink:href="#gpPt6" transform="translate(387.5,510.3) scale(3.38)" color="rgb( 31, 120, 180)"/>
	<use xlink:href="#gpPt6" transform="translate(337.3,504.2) scale(3.38)" color="rgb( 31, 120, 180)"/>
	<use xlink:href="#gpPt6" transform="translate(338.4,498.2) scale(3.38)" color="rgb( 31, 120, 180)"/>
	<use xlink:href="#gpPt6" transform="translate(328.0,492.1) scale(3.38)" color="rgb( 31, 120, 180)"/>
	<use xlink:href="#gpPt6" transform="translate(338.5,486.0) scale(3.38)" color="rgb( 31, 120, 180)"/>
	<use xlink:href="#gpPt6" transform="translate(366.5,479.9) scale(3.38)" color="rgb( 31, 120, 180)"/>
	<use xlink:href="#gpPt6" transform="translate(451.9,473.8) scale(3.38)" color="rgb( 31, 120, 180)"/>
	<use xlink:href="#gpPt6" transform="translate(481.4,467.7) scale(3.38)" color="rgb( 31, 120, 180)"/>
	<use xlink:href="#gpPt6" transform="translate(405.4,461.7) scale(3.38)" color="rgb( 31, 120, 180)"/>
	<use xlink:href="#gpPt6" transform="translate(337.1,455.6) scale(3.38)" color="rgb( 31, 120, 180)"/>
	<use xlink:href="#gpPt6" transform="translate(347.0,449.5) scale(3.38)" color="rgb( 31, 120, 180)"/>
	<use xlink:href="#gpPt6" transform="translate(483.2,443.4) scale(3.38)" color="rgb( 31, 120, 180)"/>
	<use xlink:href="#gpPt6" transform="translate(635.9,437.3) scale(3.38)" color="rgb( 31, 120, 180)"/>
	<use xlink:href="#gpPt6" transform="translate(692.8,431.2) scale(3.38)" color="rgb( 31, 120, 180)"/>
	<use xlink:href="#gpPt6" transform="translate(683.8,425.2) scale(3.38)" color="rgb( 31, 120, 180)"/>
	<use xlink:href="#gpPt6" transform="translate(498.8,419.1) scale(3.38)" color="rgb( 31, 120, 180)"/>
	<use xlink:href="#gpPt6" transform="translate(411.6,413.0) scale(3.38)" color="rgb( 31, 120, 180)"/>
	<use xlink:href="#gpPt6" transform="translate(410.3,406.9) scale(3.38)" color="rgb( 31, 120, 180)"/>
	<use xlink:href="#gpPt6" transform="translate(362.0,400.8) scale(3.38)" color="rgb( 31, 120, 180)"/>
	<use xlink:href="#gpPt6" transform="translate(368.1,394.7) scale(3.38)" color="rgb( 31, 120, 180)"/>
	<use xlink:href="#gpPt6" transform="translate(581.2,388.7) scale(3.38)" color="rgb( 31, 120, 180)"/>
	<use xlink:href="#gpPt6" transform="translate(808.1,382.6) scale(3.38)" color="rgb( 31, 120, 180)"/>
	<use xlink:href="#gpPt6" transform="translate(708.2,376.5) scale(3.38)" color="rgb( 31, 120, 180)"/>
	<use xlink:href="#gpPt6" transform="translate(526.2,370.4) scale(3.38)" color="rgb( 31, 120, 180)"/>
	<use xlink:href="#gpPt6" transform="translate(465.6,364.3) scale(3.38)" color="rgb( 31, 120, 180)"/>
	<use xlink:href="#gpPt6" transform="translate(425.8,358.2) scale(3.38)" color="rgb( 31, 120, 180)"/>
	<use xlink:href="#gpPt6" transform="translate(363.0,352.2) scale(3.38)" color="rgb( 31, 120, 180)"/>
	<use xlink:href="#gpPt6" transform="translate(525.2,346.1) scale(3.38)" color="rgb( 31, 120, 180)"/>
	<use xlink:href="#gpPt6" transform="translate(443.0,340.0) scale(3.38)" color="rgb( 31, 120, 180)"/>
	<use xlink:href="#gpPt6" transform="translate(714.3,333.9) scale(3.38)" color="rgb( 31, 120, 180)"/>
	<use xlink:href="#gpPt6" transform="translate(636.9,327.8) scale(3.38)" color="rgb( 31, 120, 180)"/>
	<use xlink:href="#gpPt6" transform="translate(372.8,321.8) scale(3.38)" color="rgb( 31, 120, 180)"/>
	<use xlink:href="#gpPt6" transform="translate(479.1,315.7) scale(3.38)" color="rgb( 31, 120, 180)"/>
	<use xlink:href="#gpPt6" transform="translate(711.7,309.6) scale(3.38)" color="rgb( 31, 120, 180)"/>
	<use xlink:href="#gpPt6" transform="translate(738.6,303.5) scale(3.38)" color="rgb( 31, 120, 180)"/>
	<use xlink:href="#gpPt6" transform="translate(504.9,297.4) scale(3.38)" color="rgb( 31, 120, 180)"/>
	<use xlink:href="#gpPt6" transform="translate(706.4,291.3) scale(3.38)" color="rgb( 31, 120, 180)"/>
	<use xlink:href="#gpPt6" transform="translate(594.5,285.3) scale(3.38)" color="rgb( 31, 120, 180)"/>
	<use xlink:href="#gpPt6" transform="translate(445.0,279.2) scale(3.38)" color="rgb( 31, 120, 180)"/>
	<use xlink:href="#gpPt6" transform="translate(479.4,273.1) scale(3.38)" color="rgb( 31, 120, 180)"/>
	<use xlink:href="#gpPt6" transform="translate(630.0,267.0) scale(3.38)" color="rgb( 31, 120, 180)"/>
	<use xlink:href="#gpPt6" transform="translate(736.3,260.9) scale(3.38)" color="rgb( 31, 120, 180)"/>
	<use xlink:href="#gpPt6" transform="translate(744.6,254.8) scale(3.38)" color="rgb( 31, 120, 180)"/>
	<use xlink:href="#gpPt6" transform="translate(723.5,248.8) scale(3.38)" color="rgb( 31, 120, 180)"/>
	<use xlink:href="#gpPt6" transform="translate(783.8,242.7) scale(3.38)" color="rgb( 31, 120, 180)"/>
	<use xlink:href="#gpPt6" transform="translate(533.5,236.6) scale(3.38)" color="rgb( 31, 120, 180)"/>
	<use xlink:href="#gpPt6" transform="translate(551.7,230.5) scale(3.38)" color="rgb( 31, 120, 180)"/>
	<use xlink:href="#gpPt6" transform="translate(395.1,224.4) scale(3.38)" color="rgb( 31, 120, 180)"/>
	<use xlink:href="#gpPt6" transform="translate(529.1,218.3) scale(3.38)" color="rgb( 31, 120, 180)"/>
	<use xlink:href="#gpPt6" transform="translate(737.8,212.3) scale(3.38)" color="rgb( 31, 120, 180)"/>
	<use xlink:href="#gpPt6" transform="translate(387.2,206.2) scale(3.38)" color="rgb( 31, 120, 180)"/>
	<use xlink:href="#gpPt6" transform="translate(553.3,200.1) scale(3.38)" color="rgb( 31, 120, 180)"/>
	<use xlink:href="#gpPt6" transform="translate(402.9,194.0) scale(3.38)" color="rgb( 31, 120, 180)"/>
	<use xlink:href="#gpPt6" transform="translate(682.7,187.9) scale(3.38)" color="rgb( 31, 120, 180)"/>
	<use xlink:href="#gpPt6" transform="translate(808.1,181.8) scale(3.38)" color="rgb( 31, 120, 180)"/>
	<use xlink:href="#gpPt6" transform="translate(781.4,175.8) scale(3.38)" color="rgb( 31, 120, 180)"/>
	<use xlink:href="#gpPt6" transform="translate(537.0,169.7) scale(3.38)" color="rgb( 31, 120, 180)"/>
	<use xlink:href="#gpPt6" transform="translate(362.9,163.6) scale(3.38)" color="rgb( 31, 120, 180)"/>
	<use xlink:href="#gpPt6" transform="translate(477.7,157.5) scale(3.38)" color="rgb( 31, 120, 180)"/>
	<use xlink:href="#gpPt6" transform="translate(586.0,151.4) scale(3.38)" color="rgb( 31, 120, 180)"/>
	<use xlink:href="#gpPt6" transform="translate(745.5,145.3) scale(3.38)" color="rgb( 31, 120, 180)"/>
	<use xlink:href="#gpPt6" transform="translate(676.6,139.3) scale(3.38)" color="rgb( 31, 120, 180)"/>
	<use xlink:href="#gpPt6" transform="translate(572.7,133.2) scale(3.38)" color="rgb( 31, 120, 180)"/>
	<use xlink:href="#gpPt6" transform="translate(399.4,127.1) scale(3.38)" color="rgb( 31, 120, 180)"/>
	<use xlink:href="#gpPt6" transform="translate(356.8,121.0) scale(3.38)" color="rgb( 31, 120, 180)"/>
	<use xlink:href="#gpPt6" transform="translate(515.4,114.9) scale(3.38)" color="rgb( 31, 120, 180)"/>
	<use xlink:href="#gpPt6" transform="translate(618.3,108.8) scale(3.38)" color="rgb( 31, 120, 180)"/>
	<use xlink:href="#gpPt6" transform="translate(573.0,102.8) scale(3.38)" color="rgb( 31, 120, 180)"/>
	<use xlink:href="#gpPt6" transform="translate(367.5,96.7) scale(3.38)" color="rgb( 31, 120, 180)"/>
	<use xlink:href="#gpPt6" transform="translate(382.0,90.6) scale(3.38)" color="rgb( 31, 120, 180)"/>
	<use xlink:href="#gpPt6" transform="translate(496.7,84.5) scale(3.38)" color="rgb( 31, 120, 180)"/>
	<use xlink:href="#gpPt6" transform="translate(532.9,78.4) scale(3.38)" color="rgb( 31, 120, 180)"/>
	<use xlink:href="#gpPt6" transform="translate(705.7,72.3) scale(3.38)" color="rgb( 31, 120, 180)"/>
	<use xlink:href="#gpPt6" transform="translate(813.8,66.3) scale(3.38)" color="rgb( 31, 120, 180)"/>
	<use xlink:href="#gpPt6" transform="translate(585.6,60.2) scale(3.38)" color="rgb( 31, 120, 180)"/>
	<use xlink:href="#gpPt6" transform="translate(409.2,54.1) scale(3.38)" color="rgb( 31, 120, 180)"/>
	<use xlink:href="#gpPt6" transform="translate(1126.0,99.1) scale(3.38)" color="rgb( 31, 120, 180)"/>
</g>
	</g>
	<g id="gnuplot_plot_4"><title>gnuplot_plot_4</title>
<g fill="none" color="white" stroke="rgb( 31, 120, 180)" stroke-width="2.00" stroke-linecap="butt" stroke-linejoin="miter">
</g>
<g fill="none" color="black" stroke="currentColor" stroke-width="2.00" stroke-linecap="butt" stroke-linejoin="miter">
</g>
	</g>
	<g id="gnuplot_plot_5"><title>gnuplot_plot_5</title>
<g fill="none" color="black" stroke="currentColor" stroke-width="2.00" stroke-linecap="butt" stroke-linejoin="miter">
	<path stroke="rgb(255, 127,   0)" d="M935.0,662.4 L935.0,54.1  "/></g>
	</g>
	<g id="gnuplot_plot_6"><title>gnuplot_plot_6</title>
<g fill="none" color="black" stroke="currentColor" stroke-width="2.00" stroke-linecap="butt" stroke-linejoin="miter">
</g>
	</g>
	<g id="gnuplot_plot_7"><title>gnuplot_plot_7</title>
<g fill="none" color="black" stroke="currentColor" stroke-width="2.00" stroke-linecap="butt" stroke-linejoin="miter">
</g>
	</g>
<g fill="none" color="black" stroke="currentColor" stroke-width="2.00" stroke-linecap="butt" stroke-linejoin="miter">
</g>
<g fill="none" color="black" stroke="black" stroke-width="1.00" stroke-linecap="butt" stroke-linejoin="miter">
</g>
<g fill="none" color="black" stroke="currentColor" stroke-width="1.00" stroke-linecap="butt" stroke-linejoin="miter">
	<path stroke="black" d="M71.9,54.1 L71.9,662.4 L1012.2,662.4 L1012.2,54.1 L71.9,54.1 Z  "/></g>
<g fill="none" color="black" stroke="currentColor" stroke-width="1.00" stroke-linecap="butt" stroke-linejoin="miter">
</g>
</g>
</svg>